<svg width="394" height="99" viewBox="0 0 394 99" xmlns="http://www.w3.org/2000/svg" xmlns:xlink="http://www.w3.org/1999/xlink"><title>Logo sicar green</title><defs><path id="a" d="M38.05.138H0v57.531h38.05V.138z"/></defs><g fill="none" fill-rule="evenodd"><path d="M38.457 47.381c0-3.537.681-8.528 7.371-12.016 6.689-3.489 15.832-9.498 15.832-9.498v13.099c0 3.989-.766 10.538-9.143 15.394-10.416 6.036-14.06 8.14-14.06 8.14V47.38zM30.88 74.716s11.742-6.784 24.93-14.343c13.187-7.559 13.379-19.576 13.379-19.576V12.693L39.365 30.54s-1.387.916-1.61 1.09c-2.834 2.196-6.069 4.553-6.875 17.95-.133 2.196 0 25.136 0 25.136z" fill="#8BC440"/><g transform="translate(0 .321)"><mask id="b" fill="#fff"><use xlink:href="#a"/></mask><path d="M7.676 28.048V12.543s9.21 5.878 15.833 9.496c5.897 3.223 7.23 8.482 7.37 12.018.007.172 0 .69 0 .69v14.427s-3.576-2.226-14.06-8.14c-7.592-4.283-9.143-8.997-9.143-12.986m23.203 21.21c.807-13.396 4.042-15.753 6.876-17.95l.048-.036.247-.194c-2-10.158-10.719-15.24-10.719-15.24L0 .137v23.646c0 9.885 3.058 15.312 6.498 18.607 3.335 3.194 23.114 14.582 24.323 15.278-.003-4.134.011-7.619.058-8.41" fill="#037F49" mask="url(#b)"/></g><path d="M107.855 52.285c-1.166-1.762-2.935-3.489-5.31-5.184a40.932 40.932 0 0 0-5.507-3.244 65.315 65.315 0 0 1-5.342-2.91c-1.606-.98-2.88-1.983-3.826-3.009-.945-1.025-1.22-2.207-.824-3.545a3.097 3.097 0 0 1 .957-1.538c.461-.401.99-.713 1.582-.936a8.701 8.701 0 0 1 1.88-.469c.66-.088 1.275-.133 1.847-.133 1.098-.044 2.363.078 3.792.367 1.429.29 2.78.68 4.056 1.171.44.179.847.346 1.22.502.374.157.736.3 1.09.434.701.313 1.295.468 1.78.468.527 0 1.01-.155 1.45-.468.352-.223.792-.669 1.32-1.337l.132-.201c-1.144-1.248-2.53-2.362-4.155-3.344-1.408-.847-3.123-1.627-5.145-2.341-2.023-.713-4.376-1.07-7.057-1.07-1.583 0-3.156.212-4.716.635a12.793 12.793 0 0 0-4.221 2.006 11.706 11.706 0 0 0-3.133 3.445c-.836 1.383-1.342 3.01-1.517 4.883-.22 2.497.44 4.872 1.979 7.123 1.539 2.252 3.89 4.292 7.057 6.12 1.934 1.07 3.76 2.073 5.474 3.01 1.715.935 3.21 1.85 4.485 2.742 1.275.892 2.276 1.817 3 2.775.727.96 1.067 2.018 1.023 3.177 0 .668-.154 1.37-.461 2.107-.308.736-.814 1.404-1.517 2.006-.704.602-1.627 1.094-2.77 1.472-1.144.38-2.53.568-4.156.568h-.725c-1.672-.088-3.1-.278-4.287-.568-1.187-.29-2.22-.612-3.1-.97-.44-.223-.835-.412-1.187-.568a6.739 6.739 0 0 0-1.055-.368 17.236 17.236 0 0 0-.956-.335 2.983 2.983 0 0 0-.891-.134c-.484 0-.946.134-1.385.402-.484.357-.924.826-1.32 1.404l-.197.2c.175.447.648 1.05 1.418 1.806.769.76 1.791 1.506 3.067 2.241 1.275.736 2.803 1.372 4.583 1.907 1.781.535 3.793.802 6.035.802 3.386 0 6.474-.59 9.267-1.772 2.792-1.181 4.891-2.887 6.299-5.117.791-1.204 1.406-2.585 1.847-4.146.438-1.56.527-3.188.264-4.883-.264-1.694-.98-3.422-2.144-5.183m7.683-11.755a4.311 4.311 0 0 0 1.979.468c1.626 0 2.902-.78 3.825-2.341a4.62 4.62 0 0 0 .594-2.274c0-.758-.177-1.472-.527-2.14a3.558 3.558 0 0 0-1.584-1.54c-.616-.356-1.253-.535-1.912-.535-.748 0-1.474.213-2.177.636a4.405 4.405 0 0 0-1.649 1.772c-.395.67-.593 1.428-.593 2.274 0 .76.174 1.461.527 2.107a4.14 4.14 0 0 0 1.517 1.572m9.828 26.938c-.528.2-1.055.257-1.583.167-.528-.089-.99-.368-1.385-.836-.396-.468-.593-1.237-.593-2.308V48.506c0-1.338.01-2.419.032-3.245a32.56 32.56 0 0 1 .099-1.972c.043-.536.087-.959.132-1.271-2.727 0-4.793.58-6.2 1.739-1.408 1.16-2.11 3.076-2.11 5.752l-.067 15.784c0 1.115.165 2.186.495 3.21a7.267 7.267 0 0 0 1.517 2.675c.682.76 1.528 1.35 2.54 1.774 1.01.423 2.198.569 3.562.434 1.406-.09 2.44-.501 3.1-1.237.658-.735 1.098-1.505 1.318-2.307.264-.937.352-1.984.264-3.144-.22.312-.594.568-1.121.769m15.3-31.803c1.32-1.472 2.804-2.563 4.453-3.278 1.648-.712 3.33-1.07 5.045-1.07 1.319 0 2.417.1 3.298.302.879.2 1.637.413 2.276.635.636.223 1.22.434 1.747.635a4.78 4.78 0 0 0 1.715.301c.615 0 1.164-.155 1.649-.468a1.88 1.88 0 0 0 .626-.435c.198-.2.363-.412.495-.635a4.12 4.12 0 0 0 .461-.736c-.22-.356-.637-.835-1.253-1.437-.616-.603-1.44-1.194-2.473-1.773-1.033-.58-2.254-1.08-3.66-1.505-1.408-.423-3.035-.635-4.881-.635-2.902 0-5.717.501-8.442 1.505a20.55 20.55 0 0 0-7.222 4.514c-2.09 2.007-3.77 4.504-5.046 7.491-1.276 2.988-1.912 6.443-1.912 10.367 0 3.924.636 7.38 1.912 10.366 1.275 2.99 2.956 5.485 5.046 7.492a20.963 20.963 0 0 0 7.222 4.548 23.793 23.793 0 0 0 8.442 1.538c1.846 0 3.473-.212 4.88-.635 1.407-.423 2.628-.914 3.661-1.472 1.033-.556 1.857-1.137 2.473-1.738.616-.602 1.033-1.105 1.253-1.506a4.206 4.206 0 0 0-.461-.735c-.264-.357-.638-.713-1.121-1.07a2.982 2.982 0 0 0-1.649-.468c-.617 0-1.187.1-1.715.3-.527.201-1.111.413-1.747.636-.639.223-1.397.435-2.276.635-.88.2-1.98.301-3.298.301-1.715 0-3.397-.356-5.045-1.07-1.65-.712-3.133-1.816-4.453-3.311-1.318-1.493-2.374-3.378-3.165-5.651-.792-2.275-1.187-4.994-1.187-8.16 0-3.12.395-5.83 1.187-8.126.791-2.297 1.847-4.18 3.165-5.652m73.316 6.421h-3.232c-1.672 0-3.353.19-5.046.568-1.205.27-2.82.717-3.859 1.337a7.056 7.056 0 0 0-2.269-1.49c-1.01-.423-2.198-.568-3.561-.434-1.407.09-2.44.501-3.1 1.237-.66.736-1.098 1.505-1.319 2.308-.264.936-.351 1.983-.264 3.144.22-.313.594-.57 1.121-.77a2.974 2.974 0 0 1 1.583-.167c.528.089.99.368 1.385.836.396.468.594 1.237.594 2.307v5.2c-.003.144-.004.29-.004.437v8.695c0 2.675.725 4.582 2.176 5.719 1.451 1.137 3.518 1.706 6.2 1.706a15.57 15.57 0 0 1-.132-1.205 32.516 32.516 0 0 1-.099-1.972c-.023-.825-.033-1.907-.033-3.245v-9.698c0-1.872.306-3.332.56-4.48.499-2.244 3.132-3.601 3.857-3.847a11.045 11.045 0 0 1 2.21-.501c1.143-.134 1.967-.512 2.473-1.137.505-.624.802-1.27.89-1.94.133-.803.089-1.672-.131-2.608m-31.698 19.663a8.608 8.608 0 0 1-.99 2.609c-.22.446-.484.86-.791 1.237a4.35 4.35 0 0 1-1.121.97c-.924.668-2.002 1.026-3.232 1.07-.177.045-.44.067-.792.067-1.144 0-2.056-.156-2.737-.469-.682-.31-1.199-.69-1.55-1.136a3.446 3.446 0 0 1-.791-1.438 5.797 5.797 0 0 1-.198-1.438c0-.267.022-.469.066-.602.043-.401.132-.77.264-1.103.131-.335.307-.636.528-.904.57-.757 1.406-1.314 2.506-1.672.483-.178 1.01-.3 1.583-.368.57-.067 1.164-.1 1.78-.1.748 0 1.484.045 2.21.133.726.09 1.374.18 1.945.268.307.09.572.157.792.2.22.046.418.09.594.135.043 0 .076.011.098.033.022.023.055.034.1.034 0 .758-.09 1.583-.264 2.474m7.505 8.395c-.023-.825-.033-1.906-.033-3.244v-5.763c-.048-2.1-.092-5.15-.092-7.43 0-1.79-.681-3.81-.921-4.369a14.008 14.008 0 0 0-2.502-3.908 13.408 13.408 0 0 0-4.353-3.043c-1.672-.736-3.519-1.104-5.54-1.104h-.56a2.92 2.92 0 0 0-.561.067c-2.11.134-4.057.636-5.838 1.505-1.78.87-3.33 2.017-4.65 3.445l-.131.2.132.268c.395.713.857 1.227 1.385 1.538.57.268 1.164.401 1.78.401.572 0 1.165-.077 1.781-.234a19.161 19.161 0 0 0 1.847-.568c.615-.223 1.23-.412 1.847-.57a10.67 10.67 0 0 1 1.847-.3h.725c.66 0 1.242.056 1.748.168a6 6 0 0 1 1.418.501c1.143.625 2 1.628 2.572 3.01.44 1.07.725 2.297.857 3.679-2.067-.67-4.243-1.004-6.53-1.004-1.627 0-3.188.19-4.682.568-1.495.38-2.836.948-4.023 1.706-1.276.848-2.22 1.85-2.836 3.01-.704 1.16-1.055 2.608-1.055 4.347v.402c.043 1.872.483 3.455 1.319 4.748.57 1.026 1.274 1.863 2.11 2.508.835.648 1.758 1.17 2.77 1.572a11.11 11.11 0 0 0 2.968.903c1.011.156 1.979.234 2.903.234h.857a4.8 4.8 0 0 0 .791-.067c1.98-.223 3.77-.779 5.376-1.671.275-.154.542-.319.804-.488.156.163.323.315.5.455 1.452 1.136 3.518 1.705 6.2 1.705a15.304 15.304 0 0 1-.131-1.204 32.395 32.395 0 0 1-.1-1.973" fill="#037F49"/><path d="M234.085 66.513c0 1.428.011 2.594.036 3.497.023.904.058 1.618.105 2.14.046.571.093 1 .14 1.285-2.861 0-5.066-.607-6.614-1.82s-2.322-3.246-2.322-6.101l-.07-29.042c0-3.283.516-5.827 1.548-7.636.515-.95 1.126-1.712 1.83-2.283.703-.57 1.5-1.046 2.392-1.427a16.16 16.16 0 0 1 1.9-.606 17.63 17.63 0 0 1 2.111-.393 60.724 60.724 0 0 1 3.096-.214 78.647 78.647 0 0 1 3.377-.071h6.193c3.001 0 5.16-.047 6.473-.143 1.313-.095 2.157-.166 2.533-.214h.563v.428c0 1.618-.281 2.879-.844 3.782-.47.952-1.196 1.69-2.181 2.212a7.613 7.613 0 0 1-2.955.856c-1.08.096-2.159.143-3.238.143h-11.962c-.469.048-.868.167-1.196.357a1.505 1.505 0 0 0-.633.57c-.282.525-.422 1.31-.422 2.355l.07 8.706h17.45c0 2.14-.587 3.853-1.758 5.138-1.173 1.285-2.84 1.926-4.996 1.926h-10.696l.07 16.555zm119.902-11.06c0-1.998-.2-3.603-.597-4.817-.4-1.213-.927-2.164-1.584-2.854-.658-.689-1.385-1.153-2.181-1.391a8.358 8.358 0 0 0-2.393-.357c-.798 0-1.583.12-2.357.357-.774.238-1.477.702-2.111 1.391-.633.69-1.15 1.641-1.548 2.854-.4 1.214-.599 2.82-.599 4.817v11.06c0 1.428.024 2.594.071 3.496.047.905.093 1.619.14 2.142.047.57.094.998.142 1.284-2.91 0-5.137-.618-6.685-1.855-1.549-1.237-2.323-3.258-2.323-6.066l.071-10.061c0-1.998-.2-3.603-.598-4.817-.399-1.213-.927-2.164-1.584-2.854-.656-.689-1.384-1.153-2.18-1.391a8.354 8.354 0 0 0-2.393-.357c-.798 0-1.584.12-2.358.357-.773.238-1.477.702-2.11 1.391-.634.69-1.138 1.641-1.513 2.854-.377 1.214-.563 2.82-.563 4.817v11.06c0 1.428.01 2.594.036 3.496.022.905.058 1.619.105 2.142.045.57.093.998.14 1.284-2.908 0-5.137-.618-6.684-1.855-1.548-1.237-2.322-3.258-2.322-6.066l.07-10.061c0-3.186.457-5.791 1.372-7.814.915-2.021 2.1-3.603 3.554-4.745a12.101 12.101 0 0 1 4.89-2.319c1.805-.404 3.6-.607 5.383-.607 1.97 0 3.917.24 5.84.714a11.984 11.984 0 0 1 5.137 2.712 11.977 11.977 0 0 1 5.137-2.712 24.28 24.28 0 0 1 5.84-.714c1.783 0 3.588.203 5.418.607a12.399 12.399 0 0 1 4.961 2.319c1.478 1.142 2.674 2.724 3.59 4.745.914 2.023 1.37 4.628 1.37 7.814v11.06c0 1.428.011 2.594.036 3.496.023.905.059 1.619.106 2.142.047.57.093.998.14 1.284-2.909 0-5.125-.618-6.65-1.855-1.524-1.237-2.286-3.258-2.286-6.066l.07-10.061zm30.891 9.633c.093-.808-.13-1.486-.669-2.034-.54-.546-1.313-1.07-2.322-1.57a62.875 62.875 0 0 0-3.553-1.605c-1.36-.57-2.791-1.331-4.292-2.283-1.126-.666-2.053-1.463-2.78-2.39a9.184 9.184 0 0 1-1.583-2.998 9.691 9.691 0 0 1-.422-3.282 9.316 9.316 0 0 1 .774-3.318c.468-1.046 1.078-1.927 1.83-2.64a10.062 10.062 0 0 1 2.498-1.749c.914-.451 1.84-.773 2.78-.963a13.23 13.23 0 0 1 2.603-.286h.844c2.486.143 4.76.762 6.825 1.855a16.817 16.817 0 0 1 5.277 4.353l.212.215-.212.285c-.468.667-.985 1.166-1.547 1.498-.517.334-1.103.5-1.76.5s-1.29-.13-1.9-.393c-.61-.26-1.266-.535-1.97-.82a35.015 35.015 0 0 0-2.497-.964 7.34 7.34 0 0 0-2.358-.392c-1.032 0-1.806.226-2.322.678-.517.453-.822.988-.915 1.606-.094.904.187 1.653.845 2.247.656.596 1.618 1.155 2.885 1.677a263.95 263.95 0 0 1 4.644 2.034c1.641.738 3.096 1.641 4.362 2.711a10.514 10.514 0 0 1 2.885 3.854c.657 1.498.727 3.318.211 5.459-.235.856-.632 1.748-1.195 2.676-.563.927-1.35 1.772-2.358 2.533-1.01.761-2.228 1.391-3.66 1.89-1.43.5-3.107.75-5.03.75a4.81 4.81 0 0 1-.915-.072c-2.252-.096-4.468-.69-6.65-1.783-2.18-1.094-4-2.545-5.453-4.354l-.211-.213.211-.286a3.84 3.84 0 0 1 .774-.927c.282-.238.538-.452.774-.643.563-.285 1.126-.428 1.689-.428.656 0 1.29.132 1.9.393.609.262 1.266.535 1.97.82.657.333 1.395.62 2.217.856.82.24 1.723.405 2.709.5 1.688 0 2.896-.332 3.623-.999.727-.665 1.138-1.331 1.232-1.998M308.51 40.73h-3.435c-1.777 0-3.564.204-5.364.608-1.28.288-2.997.764-4.1 1.427a7.498 7.498 0 0 0-2.413-1.59c-1.074-.452-2.336-.607-3.785-.465-1.495.097-2.594.536-3.295 1.322-.701.785-1.167 1.606-1.402 2.464-.28.999-.373 2.117-.28 3.356.234-.334.63-.608 1.191-.822a3.148 3.148 0 0 1 1.683-.178c.56.095 1.052.392 1.472.892.42.5.63 1.321.63 2.463v5.55c-.002.156-.004.31-.004.469v9.282c0 2.856.771 4.892 2.314 6.106 1.542 1.214 3.738 1.82 6.59 1.82a16.478 16.478 0 0 1-.14-1.285 34.51 34.51 0 0 1-.106-2.106c-.024-.88-.035-2.035-.035-3.463V56.226c0-2 .325-3.558.596-4.784.53-2.395 3.328-3.844 4.099-4.106.772-.261 1.554-.44 2.349-.536 1.214-.142 2.09-.546 2.629-1.214.536-.666.852-1.356.946-2.07.14-.857.093-1.785-.14-2.785m-32.714 21.047a9.182 9.182 0 0 1-1.062 2.786c-.237.477-.52.918-.85 1.321a4.66 4.66 0 0 1-1.204 1.036c-.99.714-2.148 1.096-3.47 1.143-.188.048-.471.071-.849.071-1.227 0-2.207-.166-2.938-.5-.732-.332-1.287-.737-1.664-1.214-.425-.475-.708-.988-.85-1.535a6.145 6.145 0 0 1-.212-1.536c0-.286.023-.5.07-.643.047-.428.143-.822.284-1.178.142-.358.33-.68.566-.965.613-.809 1.51-1.403 2.691-1.786a7.457 7.457 0 0 1 1.7-.392c.613-.072 1.25-.107 1.911-.107.803 0 1.593.048 2.372.142.78.096 1.475.191 2.089.286.33.096.613.168.85.214.236.048.448.096.637.143a.15.15 0 0 1 .106.036c.023.024.059.035.106.035 0 .811-.095 1.691-.283 2.643m8.057 8.966c-.025-.881-.035-2.036-.035-3.465v-6.154c-.052-2.243-.1-5.5-.1-7.934 0-1.913-.73-4.07-.987-4.667a14.965 14.965 0 0 0-2.686-4.174 14.405 14.405 0 0 0-4.674-3.25c-1.794-.786-3.777-1.178-5.947-1.178h-.602a3.17 3.17 0 0 0-.602.071c-2.266.143-4.355.68-6.267 1.608a16.72 16.72 0 0 0-4.991 3.678l-.142.214.142.286c.424.762.92 1.31 1.487 1.643.613.285 1.25.428 1.911.428.614 0 1.25-.083 1.912-.25.66-.166 1.321-.368 1.983-.607.66-.238 1.32-.44 1.982-.607.66-.167 1.321-.274 1.983-.321h.778c.71 0 1.334.06 1.877.178.542.12 1.05.298 1.523.536 1.226.668 2.147 1.739 2.76 3.214.472 1.143.78 2.453.921 3.929-2.219-.715-4.555-1.072-7.01-1.072-1.747 0-3.422.203-5.027.607-1.605.405-3.044 1.012-4.319 1.821-1.37.906-2.384 1.977-3.044 3.215-.756 1.239-1.133 2.785-1.133 4.643v.428c.046 2 .518 3.691 1.416 5.072.612 1.095 1.368 1.988 2.266 2.678.896.692 1.887 1.25 2.973 1.679 1.038.476 2.1.796 3.187.963a20.36 20.36 0 0 0 3.115.25h.92c.284 0 .567-.024.85-.07 2.125-.24 4.047-.833 5.77-1.786.297-.163.584-.34.865-.52.167.174.346.335.537.485 1.558 1.214 3.776 1.822 6.656 1.822a16.37 16.37 0 0 1-.142-1.287 34.734 34.734 0 0 1-.106-2.106" fill="#8BC440"/><path d="M207.991 84.788a24.93 24.93 0 0 0 .32-1.992c.05-.511.503-.988 1.175-.971h.37c.588-.017 1.04.46.924.902-.135.46-.303 1.26-.504 2.282-.336 1.891-.723 4.037-1.058 5.927a27.099 27.099 0 0 0-.303 1.908c-.05.527-.604.937-1.293.937h-.302c-.605.017-1.058-.427-.94-.886.1-.324.184-.681.318-1.26.017-.103.05-.205.067-.307l.05-.204c.017-.069.017-.12.035-.188l1.141-6.148zm6.449-.477c.083 0 .167-.017.251-.017.219 0 .42 0 .588-.017.504-.05.907.29.84.63-.101.375-.588.613-1.142.613-.32-.017-.588-.017-.823-.017-.017.086-.034.137-.05.239-.085.409-.185.92-.286 1.43-.084.46-.185.971-.269 1.431-.067.392-.15.75-.201 1.005-.185.885-.32 1.652-.32 2.146 0 .63.27.885.638.885a1.5 1.5 0 0 0 .353-.05c.454-.07.89.221.84.51-.1.426-.537.8-1.141.885-.118.017-.32.017-.437.017-1.125 0-1.848-.323-2.1-.68-.252-.375-.386-.682-.386-1.023 0-.323.067-.697.151-1.174l1.058-5.655c-.335-.068-.605-.306-.554-.579.05-.34.37-.613.806-.613.084-.425.117-.783.151-1.124.05-.545.554-1.022 1.276-1.192.588-.12 1.21.204 1.092.647-.168.562-.269.971-.386 1.703h.05zm3.928-.204c-.218.255-.622.392-1.075.392-.319 0-.621-.239-.487-.426.537-.733.89-1.465 1.058-2.23.034-.137.319-.154.554-.12h.068c.033 0 .05.017.117.017h.135c.1 0 .285 0 .436-.017.403.017.84.34.705.596-.285.493-.756 1.004-1.51 1.788m2.668 5.398c-.52-.306-1.511-.919-1.511-2.009 0-.92.621-1.771 1.444-2.435.856-.648 2.167-.767 2.855-.767.503 0 .856.035 1.159.12h-.017c.554.119.84.612.672 1.005-.118.272-.454.408-.823.408-.218 0-.42-.034-.57-.12h.016a1.956 1.956 0 0 0-.823-.203c-1.075 0-1.646.817-1.646 1.464 0 .8.538 1.107 1.091 1.43l.84.529c.538.323 1.36.834 1.36 1.84 0 .731-.369 1.702-1.427 2.485-.991.733-2.233.784-3.006.784-.453 0-.924-.051-1.243-.12-.588-.153-.99-.596-.89-.97.218-.562.89-.767 1.41-.511h-.016c.32.153.705.272 1.293.272 1.108 0 1.696-.715 1.696-1.396 0-.664-.403-.937-.823-1.192l-1.04-.614zm14.945-3.831c-.303-.102-.673-.221-1.075-.221-2.553 0-3.225 3.644-3.225 5.04 0 1.159.32 1.993 1.16 1.993.486 0 1.107-.272 1.679-1.124.453-.63.738-1.618 1.023-3.321l.438-2.367zm1.276-1.107c.605-.188 1.142.29 1.058.75-.117.56-.302 1.43-.588 2.996l-.302 1.67c-.235 1.396-.37 2.57-.37 3.065 0 .426-.554.733-1.125.75-.588.016-1.092-.341-1.058-.767.017-.29.067-.681.134-1.039-.688.954-1.578 1.993-2.888 1.993-1.394 0-2.772-.92-2.772-2.861 0-.784.454-3.883 2.906-5.86.403-.306 1.377-.953 2.94-.953.788 0 1.309.17 1.796.358l.27-.102zm3.625 9.315c-1.88-.017-2.065-1.175-2.015-2.043a8.97 8.97 0 0 1 .118-1.005c0-.017.016-.034.016-.05a3.04 3.04 0 0 0 .05-.427c.018-.102.034-.187.051-.255a1.03 1.03 0 0 0 .034-.204c.016-.103.05-.205.067-.341.067-.375.185-1.107.554-3.304.303-1.771.47-2.98.453-3.526-.016-.391.235-.885.823-.936a4.64 4.64 0 0 0 .521-.102c.571-.154 1.125.255 1.092.715-.084.425-.185.936-.303 1.652-.016.119-.033.255-.067.392-.05.255-.117.544-.168.851-.117.733-.251 1.533-.386 2.282-.134.767-.252 1.533-.386 2.282-.017.069-.017.136-.034.205-.017.17-.05.408-.084.544 0 .035-.017.103-.017.137-.1.562-.185 1.14-.067 1.499 0 0 .118.442.32.46.251 0 .386-.035.62-.12.018 0 .119-.034.168-.051.437-.153.84.187.706.545-.151.392-.638.664-1.21.75a6.832 6.832 0 0 1-.856.05m4.802 0c-1.881-.017-2.065-1.175-2.015-2.043a9.08 9.08 0 0 1 .117-1.005c0-.017.017-.034.017-.05a3.04 3.04 0 0 0 .05-.427 4.01 4.01 0 0 1 .05-.255.961.961 0 0 0 .034-.204c.017-.103.051-.205.068-.341.066-.375.184-1.107.554-3.304.302-1.771.47-2.98.453-3.526-.017-.391.235-.885.823-.936a4.53 4.53 0 0 0 .52-.102c.572-.154 1.126.255 1.093.715-.085.425-.186.936-.303 1.652-.017.119-.033.255-.067.392-.05.255-.117.544-.168.851-.118.733-.252 1.533-.386 2.282-.134.767-.252 1.533-.387 2.282-.017.069-.017.136-.034.205-.016.17-.05.408-.083.544 0 .035-.017.103-.017.137-.1.562-.185 1.14-.067 1.499 0 0 .118.442.32.46.251 0 .386-.035.62-.12.017 0 .118-.034.168-.051.437-.153.84.187.706.545-.152.392-.638.664-1.21.75a6.832 6.832 0 0 1-.856.05m12.845-8.208c-.302-.102-.672-.221-1.074-.221-2.553 0-3.225 3.644-3.225 5.04 0 1.159.32 1.993 1.16 1.993.486 0 1.107-.272 1.678-1.124.454-.63.739-1.618 1.024-3.321l.437-2.367zm1.277-1.107c.605-.188 1.142.29 1.058.75-.117.56-.303 1.43-.588 2.996l-.302 1.67c-.236 1.396-.37 2.57-.37 3.065 0 .426-.554.733-1.125.75-.588.016-1.092-.341-1.058-.767.017-.29.067-.681.134-1.039-.688.954-1.578 1.993-2.888 1.993-1.394 0-2.771-.92-2.771-2.861 0-.784.453-3.883 2.905-5.86.403-.306 1.377-.953 2.939-.953.79 0 1.31.17 1.796.358l.27-.102zm4.952 2.572c-.806 1.345-1.108 3.985-1.31 5.738.268.052.47.086.722.086 3.074 0 3.443-4.139 3.443-5.109 0-1.073-.303-2.01-1.16-2.01-.604 0-1.225.528-1.695 1.295zm-2.603.186c.32-1.822.57-3.303.57-4.257 0-.136-.016-.272-.033-.375-.034-.408.252-.834.857-.92a3.65 3.65 0 0 0 .537-.1c.588-.12 1.276.152 1.175.646a6.597 6.597 0 0 0-.1.494c-.034.119-.067.34-.084.494-.05.272-.118.63-.201 1.055-.051.324-.101.716-.169 1.057a4.41 4.41 0 0 0-.084.459c.589-.75 1.428-1.55 2.52-1.55 1.427 0 2.787.903 2.787 2.946a7.6 7.6 0 0 1-.252 1.84c-.772 2.895-2.804 4.956-6.062 4.956-.756 0-1.293-.068-1.713-.188h.017c-.706-.17-.924-.817-.79-1.345.118-.443.236-.988.437-1.993l.588-3.219zm14.374-1.43c-.202-.187-.538-.442-1.025-.442-2.401 0-2.99 3.933-2.99 5.262 0 1.6.672 2.163 1.445 2.163 2.653 0 3.023-4.599 3.023-5.416 0-.426-.017-1.158-.454-1.567m1.915-.715c.874.886.907 1.873.907 2.35 0 2.657-1.696 6.489-5.542 6.489-.974 0-1.932-.273-2.587-.869-.403-.392-1.04-1.14-1.04-2.64 0-2.741 1.796-6.216 5.575-6.216 1.192 0 2.133.29 2.687.886m3.86 4.564c-.185.868-.252 1.26-.252 1.635 0 .63.218 1.158.874 1.158.285 0 1.159-.136 1.863-1.277h-.017c.353-.63.757-2.215.992-3.525.184-.988.268-1.653.285-2.078.017-.495.42-.954 1.042-1.073.016 0 .083 0 .117-.017l-.034.034a.735.735 0 0 1 .32-.085c.52-.068 1.09.307 1.024.681-.235.852-.487 1.959-.756 3.525-.42 2.35-.57 3.492-.57 4.122v.136c.016.46-.522.834-1.126.834-.638 0-1.193-.425-1.16-.92v-.238c-.2.29-.419.529-.721.749-.756.512-1.797.597-2.066.597-1.276 0-2.418-.613-2.418-1.857 0-.238.034-.476.134-1.106l.84-4.514c.067-.323.1-.596.118-.8.033-.443.285-.954.94-1.073h-.033c.033-.017.1-.017.167-.017.017 0 .068-.017.084-.017h-.033a.76.76 0 0 1 .218-.034c.57-.068 1.16.34 1.075.783-.168.682-.252 1.005-.37 1.584-.016.085-.05.205-.067.307l-.47 2.486zm10.31-5.433c.083 0 .167-.017.251-.017.219 0 .42 0 .588-.017.504-.05.907.29.84.63-.101.375-.588.613-1.142.613-.32-.017-.588-.017-.823-.017-.017.086-.034.137-.05.239-.085.409-.186.92-.286 1.43-.084.46-.184.971-.269 1.431-.067.392-.151.75-.2 1.005-.186.885-.32 1.652-.32 2.146 0 .63.269.885.638.885.1 0 .218-.017.352-.05.454-.07.89.221.84.51-.1.426-.537.8-1.141.885-.118.017-.32.017-.437.017-1.125 0-1.848-.323-2.1-.68-.252-.375-.386-.682-.386-1.023 0-.323.067-.697.151-1.174l1.058-5.655c-.335-.068-.604-.306-.554-.579.05-.34.37-.613.806-.613.084-.425.118-.783.152-1.124.05-.545.553-1.022 1.275-1.192.588-.12 1.21.204 1.093.647-.169.562-.27.971-.387 1.703h.05zm5.674.443c.05-.272.437-.443.823-.477.319-1.822.823-2.707 1.763-3.457.773-.545 1.629-.698 2.402-.732.52-.017.924.391.772.783-.184.375-.755.51-1.259.528-.823.051-1.21 1.38-1.512 2.895h.52c.068 0 .136-.017.185-.017h.42c.47 0 .89.29.823.613-.05.34-.537.529-1.024.529-.219-.018-.722-.018-.907-.018h-.219c-.15.886-.302 1.755-.436 2.691-.152.936-.302 1.856-.453 2.742-.017.136-.034.273-.068.409-.033.136-.05.29-.083.426-.051.255-.101.562-.152.817-.285 1.635-1.193 5.109-4.618 5.314-.504-.017-.823-.46-.722-.8.15-.376.671-.546 1.158-.563.487-.068.857-.494 1.009-.698.503-.613.856-2.384 1.208-4.462.168-.954.32-1.975.488-2.964a69.26 69.26 0 0 0 .436-2.929c-.369-.068-.604-.358-.554-.63m4.735 2.726c.167-.92.218-1.483.2-1.874-.033-.426.253-.852.84-.937a10.9 10.9 0 0 0 .437-.051h-.016c.604-.12 1.175.221 1.141.63-.016.051-.016.222-.05.34-.017.086-.05.137-.067.222.27-.357.587-.698.974-.97a4.61 4.61 0 0 1 .974-.46c.622-.188 1.125.289.974.766-.15.443-.79.749-1.427.903h.016c-.637.17-1.494.885-1.948 2.571-.251.885-.638 3.117-.721 4.224-.052.51-.605.919-1.26.902h-.085c-.587 0-1.124-.392-1.007-.852.084-.289.168-.596.202-.817l.823-4.598zm7.135 2.162c.924-.136 1.898-.75 2.738-1.55.386-.392.688-.988.688-1.686 0-.732-.352-1.073-.772-1.073-.252 0-.823.12-1.545.971-.52.63-.974 1.924-1.109 3.338m1.596 3.218c.605 0 1.109-.17 1.512-.34.42-.187.923.068.822.443-.117.375-.47.749-1.075.92-.419.084-.94.17-1.645.17-2.922-.086-3.645-1.67-3.678-3.798 0-1.823.906-3.355 1.478-4.053 1.159-1.465 2.805-1.942 4.014-1.942 1.797 0 2.703.902 2.703 2.078 0 .477-.235 1.141-.605 1.72-.402.613-1.14 1.107-1.73 1.397-1.057.544-2.182.613-3.459.663-.016.069-.033.29-.033.613 0 .818.235 2.146 1.696 2.13m5.726-3.356c-.522-.306-1.513-.919-1.513-2.009 0-.92.622-1.771 1.445-2.435.856-.648 2.166-.767 2.855-.767.503 0 .856.035 1.159.12h-.017c.554.119.84.612.671 1.005-.117.272-.453.408-.822.408-.218 0-.42-.034-.571-.12h.017a1.956 1.956 0 0 0-.823-.203c-1.075 0-1.646.817-1.646 1.464 0 .8.538 1.107 1.091 1.43l.84.529c.538.323 1.36.834 1.36 1.84 0 .731-.369 1.702-1.427 2.485-.991.733-2.234.784-3.006.784-.453 0-.924-.051-1.243-.12-.588-.153-.99-.596-.89-.97.218-.562.89-.767 1.41-.511h-.016c.32.153.705.272 1.293.272 1.108 0 1.696-.715 1.696-1.396 0-.664-.403-.937-.823-1.192l-1.04-.614zm5.859-3.61c.336-1.805.47-2.708.454-3.219-.017-.39.167-.834.772-.903.168-.017.353-.034.52-.068.605-.084 1.243.256 1.142.716l-.352 1.754c-.084.477-.185.97-.269 1.464-.017.052-.017.052 0 .017.235-.323.504-.595.89-.834.723-.476 1.461-.562 1.998-.562 1.244 0 2.436.528 2.436 1.891 0 .357-.068.8-.202 1.669l-.655 3.798c-.067.425-.118.936-.151 1.243-.033.51-.604.902-1.31.902-.588 0-1.108-.426-1.007-.869.084-.323.184-.8.285-1.379.202-1.243.42-2.606.638-3.849.05-.29.1-.63.1-.885 0-.63-.2-1.107-.889-1.107-.571 0-1.192.323-1.696.868-.252.273-.722 1.176-1.091 2.708a69.477 69.477 0 0 0-.639 3.56c-.084.561-.672.97-1.411.97-.57 0-1.024-.426-.89-.85.084-.325.252-1.109.47-2.3l.857-4.735zm14.961 2.997c-.286.954-.538 2.436-.672 3.168a.677.677 0 0 0-.068.34h-.05c.319.171.705.358 1.226.358 1.041 0 1.612-.596 1.914-.97.907-1.107 1.193-3.134 1.193-4.156 0-.97-.32-1.805-1.108-1.805-.89 0-1.848 1.14-2.436 3.065m5.912-1.754c0 1.737-.79 3.986-2.116 5.314a4.964 4.964 0 0 1-3.56 1.499c-.32 0-.723 0-1.227-.103-.05.34-.117.63-.185.971-.067.358-.134.699-.2 1.04-.102.56-.152 1.038-.186 1.344-.05.545-.537.971-1.259.937h-.118c-.554 0-1.091-.375-1.008-.784.135-.51.269-1.175.403-1.821.034-.188.085-.375.101-.563 0-.017.017-.085.051-.17.017-.05.017-.12.033-.17l-.016.017 1.058-5.535c.067-.358.1-.664.15-.954.034-.238.085-.477.135-.783.05-.102.05-.205.05-.255a7.03 7.03 0 0 0 .135-1.619c.017-.323.219-.766.739-.834a5 5 0 0 0 .588-.085c.588-.102 1.141.255 1.108.698-.05.238-.101.46-.15.681.267-.391.587-.783.973-1.073.202-.153.823-.58 1.964-.58 1.546 0 2.537.99 2.537 2.828m1.207.342c.168-.92.218-1.483.201-1.874-.033-.426.252-.852.84-.937.168-.017.32-.034.437-.051h-.017c.605-.12 1.176.221 1.142.63-.017.051-.017.222-.05.34-.017.086-.05.137-.068.222.27-.357.588-.698.975-.97a4.61 4.61 0 0 1 .974-.46c.621-.188 1.125.289.973.766-.15.443-.789.749-1.427.903h.017c-.638.17-1.495.885-1.948 2.571-.252.885-.639 3.117-.722 4.224-.051.51-.605.919-1.26.902h-.084c-.588 0-1.125-.392-1.008-.852.084-.289.168-.596.202-.817l.823-4.598zm10.931-1.585c-.201-.187-.537-.442-1.024-.442-2.402 0-2.99 3.933-2.99 5.262 0 1.6.672 2.163 1.445 2.163 2.653 0 3.022-4.599 3.022-5.416 0-.426-.016-1.158-.453-1.567m1.914-.715c.874.886.907 1.873.907 2.35 0 2.657-1.696 6.489-5.541 6.489-.975 0-1.932-.273-2.587-.869-.403-.392-1.041-1.14-1.041-2.64 0-2.741 1.797-6.216 5.576-6.216 1.192 0 2.133.29 2.686.886m3.441 5.33c0 1.175.403 2.027 1.126 2.027.47 0 1.175-.375 1.763-1.567.437-.869.638-1.907 1.293-5.348-.32-.084-.588-.153-.89-.153-2.654 0-3.292 3.969-3.292 5.042zm5.66-.783a4.273 4.273 0 0 1-.067.443c-.151.902-.336 1.992-.336 2.725-.017.46-.437.886-1.075.903-.638 0-1.226-.41-1.16-.92.018-.17 0-.12.085-.596-.62.868-1.377 1.702-2.62 1.702-1.51 0-2.82-.97-2.82-2.912 0-.46.234-2.826 1.745-4.768.941-1.158 2.436-1.958 4.048-1.958.386 0 .689.05.94.102.151-.8.219-1.278.185-1.635-.017-.444.319-.903.924-.988.05-.017.168-.034.235-.052.655-.119 1.326.171 1.225.648-.067.187-.083.426-.134.715-.033.17-.067.358-.1.58-.017.118-.05.255-.068.391-.033.153-.067.323-.1.511l-.907 5.109zm3.861.017c-.186.868-.252 1.26-.252 1.635 0 .63.218 1.158.873 1.158.285 0 1.159-.136 1.864-1.277h-.017c.353-.63.756-2.215.991-3.525.185-.988.269-1.653.286-2.078.016-.495.42-.954 1.041-1.073.017 0 .083 0 .117-.017l-.034.034a.735.735 0 0 1 .32-.085c.52-.068 1.091.307 1.025.681-.235.852-.488 1.959-.757 3.525-.42 2.35-.57 3.492-.57 4.122v.136c.016.46-.521.834-1.126.834-.638 0-1.192-.425-1.159-.92v-.238c-.2.29-.42.529-.722.749-.755.512-1.797.597-2.066.597-1.276 0-2.417-.613-2.417-1.857 0-.238.033-.476.134-1.106l.84-4.514c.067-.323.1-.596.117-.8.034-.443.285-.954.94-1.073h-.033c.034-.017.1-.017.168-.017.016 0 .067-.017.084-.017h-.034a.76.76 0 0 1 .218-.034c.572-.068 1.16.34 1.075.783-.168.682-.251 1.005-.37 1.584-.016.085-.05.205-.066.307l-.47 2.486zm13.6-5.314c.521.12.69.613.555.954-.101.272-.403.375-.773.375-.218 0-.403-.034-.537-.103h.017a2.062 2.062 0 0 0-.672-.118c-2.05 0-3.258 2.282-3.258 4.598 0 .834.134 1.856.89 2.333.436.29.856.392 1.26.392.369 0 .688-.069 1.007-.188.487-.136.84.205.723.545-.152.392-.656.682-1.21.767a6.832 6.832 0 0 1-.873.051c-2.654 0-4.265-1.465-4.265-3.782 0-2.655 1.914-5.943 5.978-5.943.504 0 .873.052 1.158.12" fill="#037F49"/><path d="M387.192 89.642c.924-.136 1.897-.75 2.737-1.55.387-.392.689-.988.689-1.686 0-.732-.353-1.073-.772-1.073-.252 0-.823.12-1.546.971-.52.63-.973 1.924-1.108 3.338m1.595 3.218c.605 0 1.108-.17 1.512-.34.42-.187.923.068.822.443-.117.375-.47.749-1.074.92-.42.084-.94.17-1.646.17-2.922-.086-3.644-1.67-3.678-3.798 0-1.823.907-3.355 1.478-4.053 1.159-1.465 2.805-1.942 4.014-1.942 1.797 0 2.703.902 2.703 2.078 0 .477-.235 1.141-.604 1.72-.403.613-1.142 1.107-1.73 1.397-1.058.544-2.183.613-3.46.663a3.72 3.72 0 0 0-.033.613c0 .818.236 2.146 1.696 2.13" fill="#037F49"/></g></svg>