<svg width="233" height="44" viewBox="0 0 233 44" xmlns="http://www.w3.org/2000/svg"><title>Logo sicar green</title><g fill="#FFF" fill-rule="evenodd"><path d="M22.742 27.93c0-2.086.403-5.028 4.36-7.084 3.955-2.056 9.362-5.598 9.362-5.598v7.72c0 2.352-.453 6.213-5.407 9.075-6.16 3.558-8.315 4.798-8.315 4.798V27.93zm-4.48 16.112s6.943-3.999 14.742-8.455c7.799-4.455 7.912-11.539 7.912-11.539V7.482L23.28 18.002s-.82.54-.952.642c-1.676 1.295-3.589 2.684-4.066 10.582-.078 1.294 0 14.816 0 14.816z"/><path d="M4.54 16.723v-9.14s5.446 3.465 9.362 5.598c3.488 1.9 4.276 5 4.359 7.084.004.101 0 .407 0 .407v8.503s-2.115-1.312-8.315-4.798c-4.49-2.524-5.407-5.303-5.407-7.654m13.722 12.503c.477-7.898 2.39-9.287 4.066-10.581l.029-.022.146-.114c-1.183-5.988-6.339-8.984-6.339-8.984L0 .27v13.938c0 5.827 1.809 9.026 3.843 10.968 1.972 1.883 13.668 8.596 14.383 9.006 0-2.437.007-4.491.035-4.957m45.521 1.595c-.69-1.039-1.736-2.057-3.14-3.056a24.224 24.224 0 0 0-3.256-1.912 38.665 38.665 0 0 1-3.16-1.715c-.95-.578-1.703-1.17-2.262-1.774-.56-.604-.721-1.301-.488-2.09.104-.368.293-.67.566-.906a3.05 3.05 0 0 1 .936-.552 5.16 5.16 0 0 1 1.112-.276c.39-.053.753-.08 1.092-.08.65-.025 1.397.047 2.243.218.844.17 1.644.4 2.398.69.26.105.5.204.722.296.22.092.435.177.644.256.415.184.766.276 1.053.276.312 0 .597-.092.858-.276.208-.132.468-.395.78-.789l.078-.118c-.677-.736-1.496-1.393-2.457-1.972-.833-.498-1.847-.959-3.043-1.38-1.196-.42-2.587-.63-4.173-.63-.936 0-1.866.125-2.789.374A7.576 7.576 0 0 0 49 16.587a6.909 6.909 0 0 0-1.853 2.03c-.494.815-.793 1.775-.897 2.879-.13 1.472.26 2.872 1.17 4.198.91 1.328 2.301 2.53 4.174 3.607 1.143.632 2.223 1.223 3.237 1.775a28.443 28.443 0 0 1 2.652 1.616c.754.526 1.346 1.072 1.775 1.636.429.566.63 1.19.604 1.873 0 .394-.091.808-.273 1.242-.182.434-.481.828-.897 1.183-.416.354-.962.644-1.638.867-.676.224-1.495.335-2.457.335h-.43c-.988-.052-1.832-.164-2.534-.335-.702-.17-1.314-.36-1.834-.572-.26-.13-.494-.242-.702-.335a3.994 3.994 0 0 0-.624-.217 10.215 10.215 0 0 0-.565-.197 1.77 1.77 0 0 0-.527-.079c-.286 0-.56.08-.819.237-.286.21-.546.487-.78.828l-.117.118c.104.263.383.618.839 1.065.454.447 1.059.887 1.813 1.32.754.434 1.658.809 2.71 1.125 1.054.315 2.244.472 3.57.472 2.002 0 3.828-.348 5.48-1.044 1.65-.697 2.892-1.702 3.725-3.017a8.712 8.712 0 0 0 1.092-2.444c.26-.92.312-1.879.156-2.878-.156-.999-.58-2.017-1.268-3.055m4.544-6.93c.364.184.754.276 1.17.276.962 0 1.716-.46 2.262-1.38a2.717 2.717 0 0 0 .04-2.602 2.1 2.1 0 0 0-.937-.907 2.234 2.234 0 0 0-1.13-.315c-.443 0-.872.125-1.288.375a2.6 2.6 0 0 0-.975 1.044c-.234.395-.35.842-.35 1.34 0 .448.102.862.31 1.243.209.381.508.69.898.926m5.811 15.879a1.764 1.764 0 0 1-.936.098c-.312-.052-.584-.216-.819-.492-.234-.276-.35-.73-.35-1.36v-9.423c0-.788.005-1.425.019-1.912.013-.486.032-.874.058-1.163.026-.316.052-.565.079-.75-1.613 0-2.835.343-3.667 1.026-.833.684-1.248 1.813-1.248 3.39l-.04 9.305c0 .657.098 1.288.293 1.892a4.28 4.28 0 0 0 .897 1.577 4.12 4.12 0 0 0 1.502 1.045c.598.25 1.3.335 2.107.256.831-.053 1.443-.295 1.833-.73.39-.433.65-.886.78-1.36.156-.551.208-1.168.156-1.852-.13.184-.352.335-.664.453m9.049-18.747c.78-.867 1.658-1.51 2.633-1.932.975-.42 1.97-.63 2.984-.63.78 0 1.43.059 1.95.177.52.119.968.244 1.346.375.376.132.721.256 1.033.374.312.118.65.178 1.014.178s.689-.092.975-.276c.13-.052.254-.139.37-.257a1.95 1.95 0 0 0 .293-.374c.104-.131.195-.276.273-.434-.13-.21-.377-.492-.74-.847-.365-.355-.853-.704-1.463-1.045-.612-.342-1.333-.637-2.165-.887-.833-.25-1.795-.375-2.886-.375-1.717 0-3.381.296-4.993.887a12.159 12.159 0 0 0-4.27 2.662c-1.236 1.182-2.23 2.654-2.985 4.415-.754 1.761-1.13 3.798-1.13 6.111 0 2.313.376 4.35 1.13 6.11.755 1.762 1.749 3.234 2.984 4.417a12.403 12.403 0 0 0 4.271 2.68c1.612.605 3.276.907 4.993.907 1.091 0 2.053-.125 2.886-.375a11.61 11.61 0 0 0 2.165-.867c.61-.328 1.098-.67 1.462-1.025.364-.354.611-.65.741-.887a2.478 2.478 0 0 0-.273-.433 3.124 3.124 0 0 0-.663-.631 1.768 1.768 0 0 0-.975-.276c-.364 0-.702.06-1.014.177-.312.118-.657.244-1.033.375-.378.131-.826.256-1.346.374-.52.118-1.17.178-1.95.178a7.47 7.47 0 0 1-2.984-.631c-.975-.42-1.853-1.07-2.633-1.952-.78-.88-1.404-1.99-1.872-3.331-.468-1.34-.702-2.944-.702-4.81 0-1.84.234-3.436.702-4.79.468-1.354 1.092-2.464 1.872-3.332m43.357 3.785h-1.911c-.99 0-1.984.112-2.984.335-.713.16-1.668.423-2.283.788a4.174 4.174 0 0 0-1.342-.878c-.597-.25-1.3-.335-2.106-.256-.831.053-1.443.296-1.833.73-.39.433-.65.886-.78 1.36-.156.552-.208 1.169-.156 1.853.13-.185.351-.335.663-.454.312-.118.624-.151.936-.098.312.052.585.217.82.493.233.276.35.729.35 1.36v3.064a16.42 16.42 0 0 0-.002.258v5.126c0 1.576.429 2.7 1.287 3.37.858.67 2.08 1.006 3.666 1.006a9.15 9.15 0 0 1-.078-.71 19.106 19.106 0 0 1-.058-1.163 72.931 72.931 0 0 1-.02-1.912v-5.717c0-1.103.181-1.964.332-2.64.294-1.323 1.852-2.123 2.28-2.268a6.55 6.55 0 0 1 1.308-.296c.675-.078 1.163-.302 1.462-.67.299-.368.474-.749.527-1.143.078-.473.052-.986-.078-1.538m-18.746 11.591a5.064 5.064 0 0 1-.585 1.538c-.13.263-.286.506-.468.729a2.57 2.57 0 0 1-.663.572c-.546.394-1.183.605-1.911.63-.105.027-.26.04-.468.04-.677 0-1.216-.092-1.619-.276-.403-.184-.709-.407-.916-.67a2.03 2.03 0 0 1-.469-.848 3.406 3.406 0 0 1-.117-.847 1.2 1.2 0 0 1 .04-.355c.025-.237.077-.454.155-.65.078-.198.182-.376.313-.533.337-.447.831-.775 1.482-.986.285-.105.598-.177.936-.217.337-.04.688-.059 1.053-.059.442 0 .877.027 1.306.079.43.053.813.106 1.151.158.182.053.338.092.468.118a8 8 0 0 1 .351.08c.026 0 .045.006.059.019.013.013.032.02.058.02 0 .447-.052.933-.156 1.458m4.438 4.949a71.941 71.941 0 0 1-.019-1.913v-3.397a213.26 213.26 0 0 1-.054-4.379c0-1.056-.403-2.247-.545-2.576a8.254 8.254 0 0 0-1.48-2.304 7.93 7.93 0 0 0-2.574-1.793c-.988-.434-2.08-.65-3.276-.65h-.332a1.73 1.73 0 0 0-.331.038c-1.248.08-2.399.375-3.452.888a9.21 9.21 0 0 0-2.75 2.03l-.078.119.078.157c.234.42.507.723.82.907a2.45 2.45 0 0 0 1.052.236 4.28 4.28 0 0 0 1.053-.138c.364-.091.728-.203 1.093-.335a12.1 12.1 0 0 1 1.092-.335c.363-.092.727-.15 1.092-.177h.429c.39 0 .734.033 1.033.098.299.066.579.165.84.296.675.368 1.182.96 1.52 1.774.26.631.43 1.354.507 2.169a12.496 12.496 0 0 0-3.861-.592c-.963 0-1.886.112-2.77.335a8.099 8.099 0 0 0-2.379 1.005c-.754.5-1.313 1.091-1.677 1.774-.416.684-.624 1.538-.624 2.563v.237c.026 1.104.286 2.037.78 2.799a4.763 4.763 0 0 0 1.248 1.478c.494.382 1.04.69 1.638.927.572.263 1.157.44 1.756.532.598.092 1.17.138 1.716.138h.507c.156 0 .312-.014.468-.04 1.17-.13 2.23-.458 3.179-.985.163-.09.32-.187.476-.287.092.096.19.186.296.268.858.67 2.08 1.005 3.666 1.005a9.024 9.024 0 0 1-.078-.71 19.035 19.035 0 0 1-.059-1.162m26.196-2.14c0 .841.007 1.529.021 2.06.014.534.034.954.062 1.263.028.336.056.589.084.757-1.693 0-2.997-.358-3.912-1.073s-1.373-1.913-1.373-3.596l-.042-17.12c0-1.934.305-3.434.916-4.5.304-.56.666-1.01 1.082-1.346a5.925 5.925 0 0 1 1.414-.841c.36-.14.735-.26 1.124-.358a10.43 10.43 0 0 1 1.248-.231 36.025 36.025 0 0 1 1.831-.127 46.66 46.66 0 0 1 1.998-.041h3.661c1.776 0 3.052-.028 3.829-.084a35.94 35.94 0 0 0 1.498-.127h.333v.252c0 .954-.167 1.698-.5 2.23a2.915 2.915 0 0 1-1.29 1.304 4.53 4.53 0 0 1-1.747.505c-.639.056-1.276.084-1.914.084h-7.075a1.758 1.758 0 0 0-.707.21.889.889 0 0 0-.374.337c-.167.309-.25.771-.25 1.388l.041 5.131h10.32c0 1.262-.347 2.271-1.04 3.029-.693.757-1.679 1.135-2.954 1.135h-6.326l.042 9.759zm70.906-6.52c0-1.177-.117-2.124-.353-2.84-.236-.714-.548-1.275-.936-1.681-.39-.406-.82-.68-1.29-.82a4.958 4.958 0 0 0-1.415-.211c-.472 0-.937.07-1.394.21-.458.14-.874.415-1.249.82-.374.407-.68.968-.915 1.683-.236.715-.354 1.662-.354 2.84v6.519c0 .841.014 1.529.042 2.06.028.534.055.955.083 1.263.027.336.055.589.084.757-1.721 0-3.039-.364-3.954-1.094-.916-.729-1.373-1.92-1.373-3.575l.042-5.93c0-1.178-.119-2.125-.354-2.84-.236-.715-.548-1.276-.937-1.682-.388-.406-.818-.68-1.29-.82a4.955 4.955 0 0 0-1.414-.211c-.472 0-.937.07-1.394.21-.458.14-.874.415-1.249.82-.374.407-.673.968-.894 1.683-.223.715-.333 1.662-.333 2.84v6.519c0 .841.006 1.529.021 2.06.013.534.034.955.062 1.263.027.336.055.589.083.757-1.72 0-3.038-.364-3.953-1.094-.915-.729-1.373-1.92-1.373-3.575l.042-5.93c0-1.879.27-3.414.811-4.607.54-1.191 1.241-2.124 2.102-2.797a7.166 7.166 0 0 1 2.892-1.367 14.596 14.596 0 0 1 3.183-.357c1.165 0 2.316.14 3.454.42a7.087 7.087 0 0 1 3.037 1.599 7.09 7.09 0 0 1 3.038-1.599c1.137-.28 2.289-.42 3.454-.42 1.054 0 2.122.12 3.204.357a7.343 7.343 0 0 1 2.934 1.367c.873.673 1.58 1.606 2.122 2.797.54 1.193.811 2.728.811 4.606v6.52c0 .841.007 1.529.021 2.06.014.534.035.955.063 1.263.027.336.055.589.083.757-1.72 0-3.031-.364-3.933-1.094-.901-.729-1.352-1.92-1.352-3.575l.041-5.93zm18.268 5.679c.056-.477-.076-.876-.395-1.2-.32-.321-.777-.63-1.373-.924a37.24 37.24 0 0 0-2.102-.947 17.23 17.23 0 0 1-2.538-1.346 5.814 5.814 0 0 1-1.643-1.409 5.408 5.408 0 0 1-.937-1.767 5.695 5.695 0 0 1-.25-1.934c.028-.659.18-1.31.459-1.956a4.843 4.843 0 0 1 1.082-1.557 5.95 5.95 0 0 1 1.477-1.03 6.736 6.736 0 0 1 1.643-.568 7.848 7.848 0 0 1 1.54-.168h.5c1.47.084 2.815.448 4.036 1.093a9.94 9.94 0 0 1 3.12 2.566l.125.126-.125.169c-.277.393-.582.687-.915.883a1.88 1.88 0 0 1-1.04.294 2.83 2.83 0 0 1-1.124-.231 73.1 73.1 0 0 0-1.165-.484 20.748 20.748 0 0 0-1.477-.568 4.353 4.353 0 0 0-1.394-.231c-.61 0-1.068.134-1.374.4-.305.267-.485.582-.54.946-.056.533.11.975.499 1.325.388.351.957.68 1.706.989.86.364 1.775.764 2.747 1.198.97.435 1.83.968 2.58 1.599a6.2 6.2 0 0 1 1.705 2.271c.389.883.43 1.956.125 3.218a6.252 6.252 0 0 1-.707 1.577c-.333.547-.798 1.045-1.394 1.493-.597.45-1.318.82-2.164 1.115-.847.294-1.838.442-2.975.442a2.81 2.81 0 0 1-.541-.043c-1.332-.056-2.643-.406-3.932-1.051-1.29-.645-2.366-1.5-3.226-2.566l-.124-.126.124-.168c.139-.224.292-.406.458-.547.167-.14.319-.267.458-.379a2.2 2.2 0 0 1 .999-.252c.388 0 .762.078 1.123.231.36.155.75.316 1.165.484.389.196.825.365 1.311.505.485.14 1.02.238 1.602.294.999 0 1.713-.196 2.143-.589.43-.392.673-.784.728-1.177M182.444 24.01h-2.032c-1.05 0-2.107.119-3.171.357-.758.17-1.773.45-2.426.841a4.435 4.435 0 0 0-1.426-.937c-.635-.267-1.382-.358-2.239-.274-.884.057-1.534.316-1.948.78-.415.462-.69.946-.83 1.451-.165.59-.22 1.248-.165 1.979.138-.197.373-.358.704-.485.332-.126.664-.161.995-.105.332.056.623.232.871.526.249.295.373.779.373 1.452v3.272c-.001.091-.003.183-.003.276v5.471c0 1.684.457 2.884 1.369 3.6.912.715 2.21 1.073 3.897 1.073a9.684 9.684 0 0 1-.083-.758 20.277 20.277 0 0 1-.062-1.242c-.015-.519-.021-1.2-.021-2.041v-6.103c0-1.179.192-2.097.352-2.82.313-1.412 1.968-2.266 2.424-2.42a6.954 6.954 0 0 1 1.39-.316c.718-.084 1.236-.322 1.554-.716.317-.392.504-.8.56-1.22.082-.505.055-1.052-.083-1.642m-19.346 12.407a5.402 5.402 0 0 1-.628 1.642 4.2 4.2 0 0 1-.503.779 2.754 2.754 0 0 1-.712.61c-.586.421-1.27.646-2.052.674a2.219 2.219 0 0 1-.502.042c-.726 0-1.305-.098-1.738-.295-.433-.196-.76-.435-.984-.715a2.164 2.164 0 0 1-.502-.905 3.611 3.611 0 0 1-.126-.906c0-.168.014-.295.042-.379.028-.252.084-.484.168-.694.083-.211.195-.4.335-.57.362-.476.892-.826 1.59-1.052a4.475 4.475 0 0 1 1.006-.231 9.81 9.81 0 0 1 1.13-.063c.475 0 .942.028 1.403.084.46.057.872.113 1.235.168.195.057.363.1.503.127.14.028.265.056.377.084.027 0 .048.007.062.02.014.015.035.022.063.022 0 .478-.056.997-.167 1.558m4.764 5.284c-.014-.519-.02-1.2-.02-2.042v-3.627c-.031-1.323-.06-3.243-.06-4.677 0-1.128-.431-2.4-.584-2.751a8.818 8.818 0 0 0-1.588-2.46 8.519 8.519 0 0 0-2.764-1.916c-1.06-.463-2.233-.694-3.517-.694h-.356a1.88 1.88 0 0 0-.356.041c-1.34.085-2.575.4-3.706.948a9.885 9.885 0 0 0-2.951 2.168l-.084.126.084.169c.25.45.544.772.879.968.362.169.74.253 1.13.253.363 0 .74-.05 1.131-.148.39-.097.781-.217 1.173-.357.39-.14.78-.26 1.172-.359a6.82 6.82 0 0 1 1.172-.189h.46c.42 0 .79.036 1.11.106.321.07.621.175.901.315.725.394 1.27 1.025 1.633 1.895.278.674.46 1.446.544 2.316a13.489 13.489 0 0 0-4.145-.632c-1.033 0-2.024.12-2.973.358-.95.239-1.8.597-2.554 1.073-.81.534-1.41 1.166-1.8 1.895-.448.73-.67 1.642-.67 2.737v.252c.027 1.18.306 2.176.837 2.99a5.092 5.092 0 0 0 1.34 1.579c.53.407 1.116.737 1.758.99a7.1 7.1 0 0 0 1.884.567c.642.099 1.256.148 1.843.148h.544c.168 0 .335-.015.502-.042 1.257-.14 2.394-.49 3.413-1.053.175-.096.345-.2.511-.306.099.102.205.198.318.286.921.715 2.233 1.073 3.936 1.073a9.62 9.62 0 0 1-.084-.758 20.408 20.408 0 0 1-.063-1.242"/></g></svg>