<?xml version="1.0" encoding="UTF-8" standalone="no"?>
<svg width="120px" height="120px" viewBox="0 0 120 120" version="1.1" xmlns="http://www.w3.org/2000/svg" xmlns:xlink="http://www.w3.org/1999/xlink">
    <!-- Generator: Sketch 46 (44423) - http://www.bohemiancoding.com/sketch -->
    <title>Crecimiento</title>
    <desc>Created with Sketch.</desc>
    <defs>
        <polygon id="path-1" points="0 59.914293 0 119.618293 119.788916 119.618293 119.788916 59.914293 119.788916 0.210292803 0 0.210292803 0 59.914293"></polygon>
    </defs>
    <g id="6-We-care" stroke="none" stroke-width="1" fill="none" fill-rule="evenodd">
        <g transform="translate(-179.000000, -4327.000000)" id="Crecimiento">
            <g transform="translate(179.000000, 4327.000000)">
                <path d="M27.5019277,76.5827058 C27.5019277,76.2937484 27.7209639,76.0528304 28.0096386,76.0240067 C31.0975904,75.7139119 34.2910843,75.2481692 37.313494,74.6063618 C37.4763855,74.5717734 37.6390361,74.5367046 37.8014458,74.5011554 C38.2255422,74.4084392 38.626747,74.7307841 38.626747,75.1636197 L38.626747,91.5546887 C38.626747,91.9291564 38.3221687,92.233006 37.9462651,92.233006 L28.1821687,92.233006 C27.806506,92.233006 27.5016867,91.9291564 27.5016867,91.5546887 L27.5016867,89.1985926 L27.5016867,83.9841478 L27.5016867,78.689477 C27.5016867,78.1975528 27.5021687,77.7056286 27.5021687,77.2137043 C27.5021687,77.0993704 27.5019277,76.8305895 27.5019277,76.5827058" id="Fill-1" fill="#FFFFFF"></path>
                <path d="M44.0608916,72.8746829 C47.3459518,71.8826677 50.5936627,70.6747151 53.7411325,69.2741242 C54.1907711,69.0740398 54.6972771,69.4023896 54.6972771,69.893353 L54.6972771,91.5545926 C54.6972771,91.9293005 54.3926988,92.23291 54.0167952,92.23291 L44.2529398,92.23291 C43.8770361,92.23291 43.5724578,91.9293005 43.5724578,91.5545926 L43.5724578,73.5253775 C43.5724578,73.2263318 43.7690843,72.9630755 44.0560723,72.876124 C44.057759,72.8756436 44.0592048,72.8751633 44.0608916,72.8746829" id="Fill-3" fill="#FFFFFF"></path>
                <path d="M60.4671566,65.905308 C63.6536627,64.1247248 66.7425783,62.1183561 69.6796867,59.9224717 C70.1283614,59.5871562 70.7681205,59.9049373 70.7681205,60.4641168 L70.7681205,91.5545445 C70.7681205,91.9292524 70.4633012,92.2328619 70.0876386,92.2328619 L60.3235422,92.2328619 C59.9476386,92.2328619 59.6430602,91.9292524 59.6430602,91.5545445 L59.6430602,66.7611312 C59.6430602,66.5137279 59.7787229,66.2865012 59.9958313,66.1668829 C60.1534217,66.0799314 60.3105301,65.9927398 60.4671566,65.905308" id="Fill-5" fill="#FFFFFF"></path>
                <g id="Group-9" transform="translate(0.000000, 0.030025)">
                    <mask id="mask-2" fill="white">
                        <use xlink:href="#path-1"></use>
                    </mask>
                    <g id="Clip-8"></g>
                    <path d="M59.8944578,0.210292803 C26.8156627,0.210292803 0,26.9406578 0,59.9142329 C0,92.8878081 26.8156627,119.618413 59.8944578,119.618413 C92.973253,119.618413 119.788916,92.8878081 119.788916,59.9142329 C119.788916,26.9406578 92.973253,0.210292803 59.8944578,0.210292803 M59.8944578,7.41621408 C67.0074699,7.41621408 73.9038554,8.80311373 80.3920482,11.5389618 C86.6624096,14.1825742 92.2954217,17.9688054 97.1344578,22.7926893 C101.973735,27.616333 105.772048,33.2314271 108.424096,39.4818432 C111.168675,45.9493977 112.56,52.8238466 112.56,59.9142329 C112.56,67.0046193 111.168434,73.8790682 108.424096,80.3466227 C105.772048,86.597279 101.973735,92.2123731 97.1344578,97.0360168 C92.2954217,101.859661 86.6624096,105.646132 80.3920482,108.289744 C73.9038554,111.025352 67.0074699,112.412492 59.8944578,112.412492 C52.7814458,112.412492 45.8850602,111.025352 39.3968675,108.289744 C33.126506,105.646132 27.493494,101.859661 22.6544578,97.0360168 C17.8151807,92.2123731 14.0168675,86.597279 11.3648193,80.3466227 C8.62048193,73.8790682 7.22891566,67.0046193 7.22891566,59.9142329 C7.22891566,52.8238466 8.62024096,45.9493977 11.3648193,39.4818432 C14.0168675,33.2314271 17.8151807,27.616333 22.6544578,22.7926893 C27.493494,17.9688054 33.126506,14.1825742 39.3968675,11.5389618 C45.8850602,8.80311373 52.7814458,7.41621408 59.8944578,7.41621408" id="Fill-7" fill="#FFFFFF" mask="url(#mask-2)"></path>
                </g>
                <path d="M82.1106506,48.48826 C80.4455904,50.366123 78.694988,52.1678436 76.8694458,53.8857352 C76.561012,54.176374 76.2487229,54.4655717 75.9352289,54.7511663 C75.7940241,54.8803925 75.7123373,55.0612611 75.7123373,55.2522181 L75.7123373,91.5549289 C75.7123373,91.9293966 76.0169157,92.233006 76.3925783,92.233006 L86.1583614,92.233006 C86.5340241,92.233006 86.8386024,91.9293966 86.8386024,91.5549289 L86.8386024,52.2622411 C84.6839036,51.9175579 82.901012,50.4528343 82.1106506,48.48826" id="Fill-10" fill="#FFFFFF"></path>
                <path d="M92.2845542,31.9404382 C92.2831084,31.9082518 92.2819036,31.8772663 92.279253,31.8448397 C92.2715422,31.704084 92.2561205,31.5633283 92.2351566,31.4252148 C92.2300964,31.388945 92.2235904,31.3526752 92.2170843,31.3178466 C92.2105783,31.283018 92.2043133,31.2481894 92.1963614,31.2119196 C92.1898554,31.174689 92.1809398,31.1372182 92.172988,31.1009484 C92.1341928,30.9342514 92.086241,30.7701966 92.0279277,30.6102251 C92.0149157,30.5713132 92.0006988,30.5326414 91.9852771,30.4939696 C91.9566024,30.420229 91.9255181,30.3467286 91.8920241,30.274189 C91.8814217,30.2511301 91.8710602,30.2278309 91.8606988,30.205973 C91.852988,30.188919 91.8452771,30.1723453 91.8361205,30.1555315 C91.8180482,30.1192617 91.7999759,30.0817909 91.7804578,30.0457613 C91.7623855,30.0094915 91.7428675,29.9734619 91.7221446,29.9383931 C91.626241,29.766652 91.5175663,29.6001952 91.399494,29.4426257 C91.3814217,29.4193266 91.3645542,29.3960274 91.3464819,29.3727283 C91.2505783,29.2514286 91.1493735,29.1337319 91.0419036,29.0227607 C91.0211807,29.0009027 91.0004578,28.9802458 90.9785301,28.9581476 C90.8669639,28.8471764 90.7491325,28.7412494 90.6274458,28.6430086 C90.579253,28.6043369 90.5300964,28.5668661 90.4809398,28.5305963 C90.4315422,28.4931255 90.3811807,28.4582969 90.3305783,28.4234682 C90.3255181,28.4208261 90.3214217,28.4169829 90.3175663,28.4143407 C90.2696145,28.3833553 90.2231084,28.3523698 90.1737108,28.3228255 C90.1310602,28.2956832 90.0869639,28.2697419 90.0428675,28.2440408 C89.9806988,28.207771 89.9158795,28.1729424 89.8498554,28.1393147 C89.8072048,28.1172166 89.7619036,28.0953586 89.7178072,28.0747016 C89.6982892,28.0658143 89.6775663,28.0566868 89.6580482,28.0475593 C89.6231084,28.0307455 89.5881687,28.0153729 89.5517831,28.0012013 C89.5245542,27.9894316 89.4961205,27.9779021 89.4676867,27.9661324 C89.4132289,27.9457157 89.3587711,27.9248185 89.3043133,27.9056027 C89.2643133,27.8911909 89.2226265,27.8770192 89.1826265,27.8654897 C89.1281687,27.8474749 89.0737108,27.8306611 89.019253,27.8164895 C88.9920241,27.8088032 88.9635904,27.8008766 88.9363614,27.7943913 C88.9337108,27.7931903 88.932506,27.7931903 88.9298554,27.7931903 C88.8845542,27.7802197 88.839253,27.7698912 88.7939518,27.7595627 C88.7886506,27.7583617 88.7821446,27.7569205 88.7744337,27.7557195 C88.7303373,27.745391 88.6838313,27.7362635 88.6382892,27.7285772 C88.6113012,27.7235331 88.5840723,27.7182487 88.5553976,27.7144056 C88.5100964,27.7067193 88.466,27.7002339 88.4206988,27.6937486 C88.3638313,27.6860623 88.3067229,27.679577 88.2496145,27.6742926 C88.2288916,27.6718906 88.2069639,27.6704495 88.1847952,27.6680475 C88.1782892,27.6680475 88.1720241,27.6680475 88.1640723,27.6666063 C88.1187711,27.6627631 88.0734699,27.660121 88.0267229,27.6574788 L88.0021446,27.6574788 C87.9426265,27.6550768 87.8816627,27.6536356 87.8206988,27.6536356 L74.739253,27.6536356 L73.6703373,27.6536356 C71.2045542,27.6536356 69.2052771,29.6479945 69.2052771,32.105694 C69.2052771,34.5650749 71.2045542,36.5579926 73.6703373,36.5579926 L78.1573253,36.5579926 C77.8426265,36.9829017 77.5226265,37.4039677 77.1985301,37.8211906 L76.8655181,38.2369722 L75.712506,39.6745535 C74.1549157,41.5497744 72.5043133,43.3464508 70.7679277,45.054014 C67.3720241,48.3966006 63.6455181,51.4060336 59.6431084,54.0292291 C58.0378072,55.081774 56.3884096,56.071147 54.6973253,56.9947059 C51.1587711,58.9318977 47.4402169,60.5801321 43.572506,61.9117864 C41.9488916,62.4697649 40.299494,62.9734588 38.6267229,63.4163827 C35.0219036,64.3747703 31.306,65.0617348 27.5016627,65.4544575 L27.5016627,74.3974862 C31.2917831,74.0499206 35.0064819,73.4429418 38.6267229,72.5931235 C40.2956386,72.203043 41.9450361,71.760119 43.572506,71.2679546 C47.4088916,70.1092424 51.1250361,68.6745435 54.6973253,66.9876373 C56.3778072,66.1945056 58.0274458,65.3446873 59.6431084,64.4405844 C63.5638313,62.2502245 67.2838313,59.7430443 70.7679277,56.9557939 C72.4744337,55.5919532 74.1238313,54.1608573 75.712506,52.6651482 C77.8088916,50.6943287 79.799012,48.61494 81.6751566,46.4332273 C82.2452771,45.7695619 82.8050361,45.0965289 83.3544337,44.4146085 L83.3544337,46.2112849 C83.3544337,46.4706981 83.3766024,46.7265083 83.4206988,46.974392 C83.7276867,48.7492104 85.0893735,50.1634925 86.8385301,50.5547741 C87.1546747,50.6244313 87.4838313,50.6619021 87.8206988,50.6619021 C90.2864819,50.6619021 92.2872048,48.6689845 92.2872048,46.2112849 L92.2872048,45.1455292 L92.2872048,32.105694 C92.2872048,32.0502084 92.285759,31.9947228 92.2845542,31.9404382" id="Fill-12" fill="#FFFFFF"></path>
            </g>
        </g>
    </g>
</svg>