<?xml version="1.0" encoding="UTF-8" standalone="no"?>
<svg width="120px" height="120px" viewBox="0 0 120 120" version="1.1" xmlns="http://www.w3.org/2000/svg" xmlns:xlink="http://www.w3.org/1999/xlink">
    <!-- Generator: Sketch 46 (44423) - http://www.bohemiancoding.com/sketch -->
    <title>Identidad</title>
    <desc>Created with Sketch.</desc>
    <defs></defs>
    <g id="6-We-care" stroke="none" stroke-width="1" fill="none" fill-rule="evenodd">
        <g transform="translate(-441.000000, -4327.000000)" id="Identidad" fill="#FFFFFF">
            <g transform="translate(441.000000, 4327.000000)">
                <g id="Group-3" transform="translate(0.000000, 0.031263)">
                    <path d="M97.1349157,97.1493788 C92.2963614,101.978236 86.6626265,105.770862 80.392747,108.416152 C73.9035904,111.15499 67.0072048,112.54521 59.8939518,112.54521 C52.7806988,112.54521 45.8843133,111.15499 39.3975663,108.416152 C33.1276867,105.770862 27.4939518,101.978236 22.6553976,97.1493788 C17.8144337,92.320521 14.0168434,86.6980762 11.3638313,80.441002 C8.61925301,73.9646092 7.22889157,67.0820441 7.22889157,59.9830461 C7.22889157,52.8840481 8.61925301,46.0017234 11.3638313,39.527976 C14.0168434,33.2704208 17.8144337,27.647976 22.6553976,22.8191182 C27.4939518,17.9878557 33.1276867,14.1981162 39.3975663,11.5501804 C45.8843133,8.81350701 52.7806988,7.42376754 59.8939518,7.42376754 C67.0072048,7.42376754 73.9035904,8.81350701 80.392747,11.5501804 C86.6626265,14.1981162 92.2963614,17.9878557 97.1349157,22.8191182 C101.97347,27.647976 105.77347,33.2704208 108.424072,39.527976 C111.168651,46.0017234 112.559012,52.8840481 112.559012,59.9830461 C112.559012,67.0820441 111.168651,73.9646092 108.424072,80.441002 C105.77347,86.6980762 101.97347,92.320521 97.1349157,97.1493788 M59.8939518,0.209338677 C26.8168434,0.209338677 -2.40963855e-05,26.9722244 -2.40963855e-05,59.9830461 C-2.40963855e-05,92.9962725 26.8168434,119.759639 59.8939518,119.759639 C92.9734699,119.759639 119.787928,92.9962725 119.787928,59.9830461 C119.787928,26.9722244 92.9734699,0.209338677 59.8939518,0.209338677" id="Fill-1"></path>
                </g>
                <path d="M81.8962892,89.4347495 L37.8938795,89.4347495 L37.8938795,88.9754309 C37.8938795,80.3036874 44.937253,73.272024 53.6288193,73.272024 L66.1613494,73.272024 C74.850506,73.272024 81.8962892,80.3036874 81.8962892,88.9754309 L81.8962892,89.4347495 Z M59.8938795,48.9425651 C65.8746024,48.9425651 70.7252048,53.7810421 70.7252048,59.75002 C70.7252048,65.718517 65.8746024,70.5593988 59.8938795,70.5593988 C53.9131566,70.5593988 49.0649639,65.718517 49.0649639,59.75002 C49.0649639,53.7810421 53.9131566,48.9425651 59.8938795,48.9425651 L59.8938795,48.9425651 Z M56.0119518,28.4971142 C56.0119518,28.2347495 56.2264096,28.0207214 56.4914699,28.0207214 L63.2986988,28.0207214 C63.5613494,28.0207214 63.7758072,28.2347495 63.7758072,28.4971142 L63.7758072,34.5353507 L63.7758072,40.5716633 C63.7758072,40.8359519 63.5613494,41.04998 63.2986988,41.04998 L56.4914699,41.04998 C56.2264096,41.04998 56.0119518,40.8359519 56.0119518,40.5716633 L56.0119518,34.5353507 L56.0119518,28.4971142 Z M83.4986988,34.5353507 L66.9083373,34.5353507 L66.9083373,28.4971142 C66.9083373,26.510501 65.2890602,24.8944689 63.2986988,24.8944689 L56.4914699,24.8944689 C54.4986988,24.8944689 52.8794217,26.510501 52.8794217,28.4971142 L52.8794217,34.5353507 L36.2914699,34.5353507 C30.9565301,34.5353507 26.6312289,38.8495792 26.6312289,44.1738277 L26.6312289,83.9325451 C26.6312289,89.2567936 30.9565301,93.5734269 36.2914699,93.5734269 L83.4986988,93.5734269 C88.8336386,93.5734269 93.1589398,89.2567936 93.1589398,83.9325451 L93.1589398,44.1738277 C93.1589398,38.8495792 88.8336386,34.5353507 83.4986988,34.5353507 L83.4986988,34.5353507 Z" id="Fill-4"></path>
            </g>
        </g>
    </g>
</svg>