<?xml version="1.0" encoding="UTF-8" standalone="no"?>
<svg width="120px" height="120px" viewBox="0 0 120 120" version="1.1" xmlns="http://www.w3.org/2000/svg" xmlns:xlink="http://www.w3.org/1999/xlink">
    <!-- Generator: Sketch 46 (44423) - http://www.bohemiancoding.com/sketch -->
    <title>Respeto</title>
    <desc>Created with Sketch.</desc>
    <defs>
        <polygon id="path-1" points="0 119.759519 0 0.210661323 119.788916 0.210661323 119.788916 119.759519"></polygon>
    </defs>
    <g id="6-We-care" stroke="none" stroke-width="1" fill="none" fill-rule="evenodd">
        <g transform="translate(-849.000000, -4558.000000)" id="Respeto">
            <g transform="translate(849.000000, 4558.000000)">
                <g id="Group-3" transform="translate(0.000000, 0.029820)">
                    <mask id="mask-2" fill="white">
                        <use xlink:href="#path-1"></use>
                    </mask>
                    <g id="Clip-2"></g>
                    <path d="M97.5921928,96.6829659 L97.5921928,69.9905411 C97.5921928,63.1825251 92.8066506,57.663487 86.9030361,57.663487 C86.4596627,57.663487 86.0235181,57.6971543 85.5946024,57.7596794 C82.0861687,57.7596794 79.2620723,59.6113828 76.8885783,62.0666934 C74.5150843,64.5195992 72.5946024,67.578517 70.8885783,69.9905411 C69.2668916,72.2871343 66.7367711,73.9873347 64.5271325,75.1368337 C66.3343614,76.459479 67.5247229,78.6959519 67.5247229,81.2282164 C67.5247229,82.0338277 67.404241,82.8081764 67.1801446,83.5344289 C72.6476145,80.6222044 76.2162892,75.4157916 76.2162892,75.4157916 L76.2162892,109.971703 C70.9724337,111.678397 65.5011084,112.54509 59.8946024,112.54509 C54.6466506,112.54509 49.517494,111.786854 44.5825542,110.290341 L44.5825542,75.4157916 C44.5825542,75.4157916 45.717494,77.0703006 47.6861687,79.0374349 C47.8379759,79.1889379 47.9946024,79.3404409 48.1560482,79.4943487 C48.317494,79.6506613 48.483759,79.8069739 48.6548434,79.9608818 C48.7391807,80.0378357 48.8259277,80.1171944 48.9126747,80.1941483 C49.0018313,80.273507 49.090988,80.3504609 49.1801446,80.4298196 C49.2693012,80.5067735 49.3584578,80.5861323 49.4500241,80.6630862 C49.544,80.7424449 49.6355663,80.8218036 49.7319518,80.8987575 C49.8283373,80.9781162 49.9223133,81.0550701 50.0186988,81.132024 C50.1150843,81.2113828 50.2138795,81.2883367 50.3126747,81.3652906 C50.4114699,81.4422445 50.5102651,81.5191984 50.6114699,81.5961523 C50.7126747,81.6731062 50.8138795,81.7476553 50.917494,81.8246092 C51.3295422,82.1276152 51.7584578,82.4234068 52.2018313,82.7047695 C52.3126747,82.774509 52.4235181,82.8442485 52.5367711,82.913988 C52.6500241,82.9837275 52.7608675,83.0510621 52.8765301,83.1183968 C52.9921928,83.1857315 53.1078554,83.2530661 53.2235181,83.317996 C53.3608675,83.3949499 53.5006265,83.4719038 53.6403855,83.5464529 C53.7391807,83.5969539 53.8355663,83.6474549 53.9343614,83.6979559 C54.0500241,83.7580762 54.1656867,83.8157916 54.283759,83.8711022 C54.3536386,83.9047695 54.4235181,83.9384369 54.4958072,83.9721042 C54.5921928,84.0177956 54.690988,84.063487 54.7897831,84.1067735 C55.0162892,84.2077756 55.2452048,84.3039679 55.4765301,84.3977555 C55.5729157,84.4338277 55.6693012,84.4723046 55.7656867,84.5059719 C55.8476145,84.5396393 55.9319518,84.568497 56.0162892,84.5973547 C56.1078554,84.631022 56.1994217,84.6646894 56.2933976,84.6935471 C56.4211084,84.7368337 56.5488193,84.7777154 56.6765301,84.8161924 C56.7946024,84.8546693 56.9126747,84.8883367 57.030747,84.922004 C57.797012,85.1360321 58.5849639,85.2923447 59.397012,85.376513 L59.397012,85.376513 C59.4020723,85.376994 59.4071325,85.3772345 59.4121928,85.3777154 C59.6218313,85.4224449 59.8382169,85.4462525 60.0596627,85.4462525 C60.1680964,85.4462525 60.2765301,85.4438477 60.3849639,85.4414429 L60.397012,85.4414429 C60.5102651,85.4438477 60.6235181,85.4462525 60.7367711,85.4462525 L60.7367711,85.4462525 L60.737012,85.4462525 C60.7948434,85.4462525 60.8502651,85.4438477 60.9054458,85.4414429 C60.9367711,85.4390381 60.9680964,85.4390381 60.9994217,85.4342285 C61.0158072,85.4332665 61.030988,85.4311022 61.0468916,85.4298998 C61.0591807,85.4284569 61.0712289,85.4277355 61.0832771,85.4262926 C61.097012,85.4248497 61.1112289,85.4238878 61.1247229,85.4222044 C61.1753253,85.4173948 61.2235181,85.4101804 61.2717108,85.4005611 C61.3150843,85.3933467 61.3560482,85.3861323 61.3994217,85.376513 L61.3994217,85.376513 C61.4093012,85.3745892 61.4186988,85.370982 61.4285783,85.3688176 C61.4741205,85.3594389 61.5199036,85.3481363 61.5656867,85.3356313 C61.5977349,85.3276954 61.630506,85.3171142 61.6632771,85.307014 C61.6979759,85.2964329 61.7321928,85.2856112 61.7661687,85.2740681 C61.7999036,85.2627655 61.8338795,85.2519439 61.8668916,85.2394389 C61.8854458,85.2327054 61.9035181,85.2228457 61.9223133,85.2156313 C61.983759,85.1913427 62.044241,85.1656112 62.104241,85.1377154 C62.1220723,85.1292986 62.1408675,85.1232866 62.1584578,85.1143888 C62.1861687,85.1009218 62.2124337,85.0855311 62.2396627,85.0715832 C62.2738795,85.0537876 62.3080964,85.0364729 62.3418313,85.0174749 C62.3967711,84.9864529 62.4502651,84.9527856 62.5032771,84.9186373 C62.5533976,84.8866533 62.6025542,84.8539479 62.6512289,84.8193186 C62.6659277,84.808497 62.6813494,84.7991182 62.6958072,84.7873347 C62.7177349,84.7729058 62.737494,84.7548697 62.7586988,84.7392385 C62.7960482,84.7103808 62.8341205,84.6827255 62.870506,84.6524248 C62.9059277,84.6235671 62.9394217,84.5947094 62.9729157,84.5636874 C62.9818313,84.5557515 62.9895422,84.5463727 62.9984578,84.5381964 C63.0866506,84.4581162 63.1714699,84.3734669 63.2526747,84.284489 C63.2671325,84.2686172 63.2823133,84.2539479 63.2965301,84.2380762 C63.3871325,84.1351503 63.4733976,84.0274148 63.5546024,83.9141483 C63.5579759,83.9090982 63.5620723,83.90501 63.5656867,83.8999599 C63.5994217,83.8518637 63.6331566,83.8037675 63.6644819,83.7532665 C63.6668916,83.7508617 63.6693012,83.7460521 63.6717108,83.7436473 C63.6820723,83.7270541 63.6919518,83.7097395 63.7023133,83.6929058 C63.7189398,83.6662124 63.7350843,83.6390381 63.7514699,83.6118637 C63.7526747,83.6092184 63.7546024,83.6068136 63.7560482,83.6041683 C63.763759,83.5914228 63.7702651,83.5774749 63.7777349,83.564489 C63.8215904,83.4887375 63.8647229,83.4127455 63.904241,83.3336273 C63.9512289,83.2405611 63.9948434,83.1450902 64.0353253,83.0474549 C64.0531566,83.0048898 64.0678554,82.9604008 64.084241,82.9171142 C64.1078554,82.8550701 64.1319518,82.7932665 64.1529157,82.7295391 C64.1697831,82.6785571 64.183759,82.6261323 64.1989398,82.5744289 C64.2117108,82.5301804 64.2264096,82.4873747 64.2379759,82.4426453 C64.243759,82.4222044 64.2478554,82.401523 64.2531566,82.3808417 C64.2577349,82.3613627 64.2627952,82.3418838 64.2671325,82.3221643 C64.2700241,82.3094188 64.2736386,82.2966733 64.2765301,82.2839279 C64.290988,82.2165932 64.3054458,82.1468537 64.317494,82.0771142 C64.3208675,82.0595591 64.3230361,82.0422445 64.3256867,82.0246894 C64.3300241,81.9996794 64.3341205,81.9746693 64.3377349,81.9496593 C64.3389398,81.9417234 64.3403855,81.9335471 64.3415904,81.9256112 C64.3488193,81.8847295 64.3536386,81.8438477 64.3584578,81.8029659 C64.3632771,81.7548697 64.3680964,81.7067735 64.3729157,81.6562725 C64.3736386,81.650982 64.3736386,81.6454509 64.3741205,81.6401603 C64.3760482,81.6156313 64.377494,81.5911022 64.3791807,81.5665731 C64.3801446,81.54998 64.3815904,81.5338677 64.3825542,81.5167936 C64.3895422,81.4266132 64.3917108,81.3318637 64.3919518,81.2390381 C64.3919518,81.2354309 64.3921928,81.2318236 64.3921928,81.2282164 C64.3921928,78.8979559 62.7560482,77.0101804 60.7367711,77.0101804 C60.7367711,77.0101804 60.6162892,76.9741082 60.3994217,76.9019639 C60.3989398,76.9022044 60.3986988,76.9022044 60.3982169,76.9024449 C60.3977349,76.9022044 60.397494,76.9022044 60.397012,76.9019639 C60.2114699,76.8394389 59.9536386,76.7504609 59.6403855,76.6350301 C59.570506,76.6085772 59.4958072,76.5821242 59.4211084,76.5532665 C59.0693012,76.4185972 58.6596627,76.2550701 58.2090602,76.0626854 C58.1488193,76.0338277 58.0861687,76.0073747 58.0211084,75.9809218 C56.9343614,75.5023647 55.6331566,74.8530661 54.3391807,74.0234068 C54.204241,73.9392385 54.0668916,73.8502605 53.9319518,73.7564729 C53.7825542,73.6554709 53.6331566,73.5520641 53.483759,73.4462525 C53.4090602,73.3933467 53.3343614,73.3404409 53.2620723,73.2875351 C52.9608675,73.0686974 52.6620723,72.8378357 52.370506,72.5949499 C52.2500241,72.4963527 52.1319518,72.3929459 52.0138795,72.2895391 C51.9536386,72.2390381 51.8933976,72.1861323 51.8355663,72.1332265 C51.7415904,72.0466533 51.6476145,71.9600802 51.5536386,71.8711022 C51.4186988,71.7436473 51.2861687,71.6137876 51.1560482,71.4791182 C51.1295422,71.4526653 51.1030361,71.4262124 51.0765301,71.3973547 C50.9921928,71.3107816 50.9102651,71.2218036 50.830747,71.1328257 C50.8114699,71.1135872 50.7921928,71.0943487 50.7753253,71.0727054 C50.6861687,70.9741082 50.597012,70.8731062 50.5126747,70.7696994 C50.5030361,70.7600802 50.4958072,70.7504609 50.4885783,70.7408417 C50.4018313,70.6398397 50.3199036,70.5388377 50.2379759,70.4354309 C50.1247229,70.2911423 50.0138795,70.1420441 49.9078554,69.9905411 C46.4958072,65.166493 42.2211084,57.7596794 35.2018313,57.7596794 C34.7729157,57.6971543 34.3367711,57.663487 33.8933976,57.663487 C27.9897831,57.663487 23.204241,63.1825251 23.204241,69.9905411 L23.2044819,97.686493 C23.0206265,97.5085371 22.8358072,97.3317836 22.6543614,97.1504609 C17.8153253,92.3211222 14.0167711,86.6993988 11.3647229,80.4416032 C8.62038554,73.9664128 7.22881928,67.0838477 7.22881928,59.9850902 C7.22881928,52.8863327 8.62038554,46.0037675 11.3647229,39.5285772 C14.0167711,33.2707816 17.8153253,27.6490581 22.6543614,22.8197194 C27.4933976,17.9901403 33.1264096,14.1994389 39.3967711,11.5527054 C45.8852048,8.81362725 52.7815904,7.42509018 59.8946024,7.42509018 C67.0073735,7.42509018 73.903759,8.81386774 80.3919518,11.5527054 C86.6625542,14.1994389 92.2958072,17.9901403 97.1348434,22.8197194 C101.97388,27.6490581 105.772193,33.2707816 108.424241,39.5285772 C111.168578,46.0037675 112.560145,52.8863327 112.560145,59.9850902 C112.560145,67.0838477 111.168578,73.9664128 108.424241,80.4416032 C105.856771,86.4995591 102.212193,91.9589579 97.5921928,96.6829659 M59.8946024,0.210661323 C26.8155663,0.210661323 -9.63855422e-05,26.9725852 -9.63855422e-05,59.9850902 C-9.63855422e-05,92.9975952 26.8155663,119.759519 59.8946024,119.759519 C92.9733976,119.759519 119.78906,92.9975952 119.78906,59.9850902 C119.78906,26.9725852 92.9733976,0.210661323 59.8946024,0.210661323" id="Fill-1" fill="#FFFFFF" mask="url(#mask-2)"></path>
                </g>
                <path d="M33.9641928,33.7197114 C28.0217831,33.7197114 23.2044337,38.5274068 23.2044337,44.4579078 C23.2044337,50.3884088 28.0217831,55.1961042 33.9641928,55.1961042 C39.9068434,55.1961042 44.7239518,50.3884088 44.7239518,44.4579078 C44.7239518,38.5274068 39.9068434,33.7197114 33.9641928,33.7197114" id="Fill-4" fill="#FFFFFF"></path>
                <path d="M86.8324578,33.7197114 C80.8898072,33.7197114 76.0726988,38.5274068 76.0726988,44.4579078 C76.0726988,50.3884088 80.8898072,55.1961042 86.8324578,55.1961042 C92.7748675,55.1961042 97.5922169,50.3884088 97.5922169,44.4579078 C97.5922169,38.5274068 92.7748675,33.7197114 86.8324578,33.7197114" id="Fill-6" fill="#FFFFFF"></path>
            </g>
        </g>
    </g>
</svg>