<?xml version="1.0" encoding="UTF-8" standalone="no"?>
<svg width="120px" height="120px" viewBox="0 0 120 120" version="1.1" xmlns="http://www.w3.org/2000/svg" xmlns:xlink="http://www.w3.org/1999/xlink">
    <!-- Generator: Sketch 46 (44423) - http://www.bohemiancoding.com/sketch -->
    <title>Remuneracion</title>
    <desc>Created with Sketch.</desc>
    <defs>
        <polygon id="path-1" points="119.787952 0.209338677 119.787952 119.759519 9.63855422e-05 119.759519 9.63855422e-05 0.209338677 119.787952 0.209338677"></polygon>
    </defs>
    <g id="6-We-care" stroke="none" stroke-width="1" fill="none" fill-rule="evenodd">
        <g transform="translate(-969.000000, -4327.000000)" id="Remuneracion">
            <g transform="translate(969.000000, 4327.000000)">
                <path d="M93.5686988,54.7357515 C93.5446024,54.8009218 93.5132771,54.8632064 93.4747229,54.9281363 C93.4241205,55.0147094 93.3614699,55.0988778 93.2819518,55.1830461 C92.6313494,55.8732265 91.094,56.4939078 88.9277349,56.9962725 L88.9253253,56.9962725 C87.8458072,57.2439679 86.607253,57.4628056 85.2482169,57.6458116 C83.8867711,57.8261723 82.4024337,57.9702204 80.8265301,58.0712224 C80.0385783,58.1217234 79.2289398,58.1602004 78.4000241,58.1868938 C78.1229157,58.196513 77.8433976,58.203487 77.5638795,58.2107014 L77.5108675,58.2107014 C76.8747229,58.196513 76.2289398,58.1890581 75.5735181,58.1890581 C74.9108675,58.1890581 74.2578554,58.196513 73.6144819,58.2107014 L73.5831566,58.2107014 C73.0217108,58.1986774 72.4699036,58.1794389 71.9253253,58.1553908 C71.380747,58.1313427 70.8458072,58.1048898 70.320506,58.0712224 C67.1686988,57.8692184 64.3831566,57.4940681 62.2217108,56.9962725 L62.2193012,56.9962725 C62.1084578,56.9698196 62.0000241,56.9457715 61.894,56.9169138 L61.894,60.8367535 C61.894,61.2167134 61.8024337,61.5894589 61.6193012,61.9477756 C62.5012289,62.1738277 63.5036386,62.3782365 64.607253,62.5564329 C64.6843614,62.5682164 64.7638795,62.5802405 64.840988,62.5922645 C65.3132771,62.6644088 65.8024337,62.7341483 66.3108675,62.7990782 C66.8530361,62.8666533 67.4120723,62.9289379 67.9903855,62.9842485 C69.720506,63.15499 71.6000241,63.2656112 73.5759277,63.3113026 C74.2313494,63.3281363 74.8988193,63.3353507 75.5735181,63.3353507 C76.2482169,63.3353507 76.9156867,63.3281363 77.5711084,63.3113026 C78.8891807,63.2824449 80.1614699,63.2223246 81.3783373,63.1357515 C81.9879759,63.0924649 82.580747,63.0419639 83.1566506,62.9842485 C83.7349639,62.9289379 84.294,62.8666533 84.8361687,62.7990782 C85.3446024,62.7341483 85.833759,62.6644088 86.3060482,62.5922645 C86.3735181,62.5802405 86.4433976,62.5706212 86.5108675,62.5585972 C89.3108675,62.1113026 91.4699036,61.4956713 92.640988,60.7838477 C92.6530361,60.7766333 92.6650843,60.7694188 92.6771325,60.7597996 C93.0626747,60.5219639 93.3373735,60.2740281 93.4891807,60.0167134 C93.580747,59.8628056 93.6265301,59.706493 93.6265301,59.5453707 L93.6265301,54.4736273 C93.6241205,54.5169138 93.6168916,54.5577956 93.607253,54.5986774 C93.5976145,54.6443687 93.5855663,54.6903006 93.5686988,54.7357515" id="Fill-1" fill="#FFFFFF"></path>
                <path d="M89.014506,49.4836713 C86.2892048,50.1209459 82.5470361,50.5610261 78.3229398,50.6981002 C77.4265542,50.6716473 76.5084819,50.6548136 75.5735422,50.6548136 C74.6386024,50.6548136 73.7205301,50.6716473 72.8241446,50.6981002 C68.6000482,50.5610261 64.8578795,50.1209459 62.1325783,49.4836713 C62.0530602,49.4644329 61.9711325,49.4451944 61.8940241,49.4283607 L61.8940241,53.302509 C61.8940241,53.6896834 61.8048675,54.0624289 61.6241446,54.4159359 C64.5398072,55.1614269 68.7831807,55.6688417 73.5952289,55.7818677 L73.614506,55.7818677 C74.2578795,55.7938918 74.9108916,55.8011062 75.5735422,55.8011062 C76.2361928,55.8011062 76.8892048,55.7938918 77.5325783,55.7818677 L77.5518554,55.7818677 C84.5807711,55.6183407 90.4000482,54.6107255 92.6386024,53.2496032 C92.674747,53.2736513 92.7108916,53.2952946 92.7470361,53.3145331 L92.6771566,53.2279599 C93.2940241,52.8455952 93.6265542,52.4391824 93.6265542,52.0135311 L93.6265542,46.9538116 C93.6265542,47.9253547 91.8819759,48.8127295 89.014506,49.4836713" id="Fill-3" fill="#FFFFFF"></path>
                <path d="M93.5277349,62.3759519 C93.4433976,62.5416433 93.3060482,62.7054108 93.1229157,62.8665331 C93.1108675,62.8761523 93.1036386,62.8857715 93.0915904,62.8951503 C92.4024337,63.4725451 91.0771325,63.9991984 89.2843614,64.4392786 C89.1638795,64.4678958 89.0458072,64.4993988 88.920506,64.528016 C88.607253,64.6004008 88.2795422,64.667495 87.9397831,64.7350701 C86.7229157,64.9755511 85.347012,65.1823647 83.8458072,65.343487 C83.1277349,65.4228457 82.380747,65.4899399 81.6096627,65.5476553 C80.3253253,65.6440882 78.9711084,65.7087776 77.5711084,65.7426854 C77.2506265,65.7354709 76.9277349,65.7304208 76.6024337,65.7258517 C76.2602651,65.7208016 75.9180964,65.7208016 75.5735181,65.7208016 C75.2361687,65.7208016 74.9012289,65.7208016 74.5686988,65.7258517 C74.233759,65.728016 73.9036386,65.7354709 73.5759277,65.7426854 C72.1976145,65.7087776 70.867494,65.646493 69.6024337,65.5527054 C69.3229157,65.5310621 69.0458072,65.5091784 68.7735181,65.4875351 C68.5229157,65.4661323 68.2747229,65.4420842 68.0289398,65.4177956 C66.2217108,65.2448898 64.5783373,65.008978 63.154241,64.7254509 C62.833759,64.660521 62.5229157,64.5953507 62.2265301,64.528016 C62.1590602,64.5114228 62.094,64.4945892 62.0265301,64.4801603 C61.980747,64.4705411 61.9373735,64.4582766 61.894,64.4488978 L61.894,68.3687375 C61.894,68.6859319 61.8313494,69.0733467 61.6193012,69.4821643 C62.9566506,69.8258116 64.5735181,70.1146293 66.3976145,70.3430862 C66.9132771,70.4056112 67.4458072,70.4657315 67.9927952,70.5183968 C68.2048434,70.5400401 68.4217108,70.5592786 68.6385783,70.578517 C68.9903855,70.6073747 69.3494217,70.6364729 69.7108675,70.6629259 C70.947012,70.7519038 72.240988,70.8144289 73.5783373,70.8456914 L73.6144819,70.8456914 C74.2578554,70.8577154 74.9108675,70.8649299 75.5735181,70.8649299 C76.2361687,70.8649299 76.8891807,70.8577154 77.5325542,70.8456914 L77.5686988,70.8456914 C78.2265301,70.831022 78.8747229,70.8072144 79.5108675,70.7781162 C80.1446024,70.7470942 80.7686988,70.7107816 81.3759277,70.667495 C82.5927952,70.5811623 83.7518313,70.4678958 84.833759,70.3310621 C85.5566506,70.2394389 86.2482169,70.1384369 86.9012289,70.0278156 C87.5518313,69.9171944 88.1686988,69.7969539 88.7421928,69.6697395 C88.8843614,69.6382365 89.0265301,69.6048096 89.1638795,69.5711423 C90.6819518,69.2077756 91.8723133,68.7823647 92.640988,68.3155912 L92.6771325,68.2939479 C92.8313494,68.197996 92.9686988,68.1018036 93.0867711,68.0029659 C93.1446024,67.9548697 93.2000241,67.9043687 93.2482169,67.8538677 C93.3662892,67.7362725 93.4554458,67.6133868 93.5180964,67.490982 C93.5879759,67.3563126 93.6265301,67.2192385 93.6265301,67.0797595 L93.6265301,62.0200401 C93.6241205,62.0703006 93.6144819,62.1208016 93.6000241,62.1713026 C93.5831566,62.2410421 93.5614699,62.3086172 93.5277349,62.3759519" id="Fill-5" fill="#FFFFFF"></path>
                <path d="M93.0915904,70.4271343 C92.867494,70.6171142 92.5711084,70.7998798 92.2193012,70.9754309 C91.4168916,71.3770341 90.2988193,71.7449699 88.9277349,72.06 L88.9253253,72.06 C86.7277349,72.5652505 83.8843614,72.9449699 80.667494,73.1421643 C81.0843614,73.2169539 81.4795422,73.2936673 81.8699036,73.3754309 C86.0964096,74.2652104 88.2144819,75.5036874 88.4771325,77.2591984 C88.8217108,77.1848898 89.154241,77.1076954 89.4699036,77.0283367 C89.5373735,77.011503 89.6024337,76.9949098 89.6699036,76.9778357 C90.0289398,76.8842886 90.3686988,76.7854509 90.6843614,76.6846894 C91.4915904,76.4271343 92.1518313,76.1457715 92.640988,75.84998 L92.6771325,75.8259319 C93.294,75.4459719 93.6265301,75.0371543 93.6265301,74.611503 L93.6265301,69.5517836 C93.6096627,69.8523848 93.4265301,70.1457715 93.0915904,70.4271343" id="Fill-7" fill="#FFFFFF"></path>
                <path d="M75.5735904,40.6918076 C70.1037108,40.6918076 65.2049157,41.2013868 61.8940723,42.0094028 L61.8940723,45.7705251 C61.8940723,46.0879599 61.8314217,46.4753747 61.6193735,46.8865972 C61.7856386,46.9296433 61.9567229,46.9705251 62.1326265,47.0114068 C64.8579277,47.6489218 68.6000964,48.089002 72.8241928,48.2258357 C73.0796145,48.2330501 73.3374458,48.240505 73.5976867,48.2477194 L73.6145542,48.2477194 C74.2579277,48.2619078 74.9109398,48.2693627 75.5735904,48.2693627 C76.236241,48.2693627 76.889253,48.2619078 77.5326265,48.2477194 L77.549494,48.2477194 C77.8097349,48.240505 78.0675663,48.2330501 78.322988,48.2258357 C82.5470843,48.089002 86.289253,47.6489218 89.0145542,47.0114068 C90.6049157,46.6386613 91.8506988,46.1985812 92.6434699,45.7176192 C93.2820241,45.3306854 93.6266024,44.9122485 93.6266024,44.4817876 C93.6266024,42.3896032 85.5446747,40.6918076 75.5735904,40.6918076" id="Fill-9" fill="#FFFFFF"></path>
                <g id="Group-13" transform="translate(0.000000, 0.031263)">
                    <mask id="mask-2" fill="white">
                        <use xlink:href="#path-1"></use>
                    </mask>
                    <g id="Clip-12"></g>
                    <path d="M97.1350361,97.1493788 C92.2940723,101.978236 86.662747,105.770862 80.3904578,108.416152 C73.9037108,111.15499 67.0073253,112.54521 59.8940723,112.54521 C52.7808193,112.54521 45.8844337,111.15499 39.3952771,108.416152 C33.1253976,105.770862 27.4916627,101.978236 22.6531084,97.1493788 C17.8145542,92.320521 14.0169639,86.6980762 11.3639518,80.441002 C8.61937349,73.9646092 7.22901205,67.0820441 7.22901205,59.9830461 C7.22901205,52.8840481 8.61937349,46.0017234 11.3639518,39.527976 C14.0169639,33.2704208 17.8145542,27.647976 22.6531084,22.8191182 C27.4916627,17.9878557 33.1253976,14.1981162 39.3952771,11.5501804 C45.8844337,8.81350701 52.7808193,7.42376754 59.8940723,7.42376754 C67.0073253,7.42376754 73.9037108,8.81350701 80.3904578,11.5501804 C86.662747,14.1981162 92.2940723,17.9878557 97.1350361,22.8191182 C101.97359,27.647976 105.771181,33.2704208 108.424193,39.527976 C111.168771,46.0017234 112.559133,52.8840481 112.559133,59.9830461 C112.559133,67.0820441 111.168771,73.9646092 108.424193,80.441002 C105.771181,86.6980762 101.97359,92.320521 97.1350361,97.1493788 M59.8940723,0.209338677 C26.8145542,0.209338677 9.63855422e-05,26.9722244 9.63855422e-05,59.9830461 C9.63855422e-05,92.9962725 26.8145542,119.759639 59.8940723,119.759639 C92.9735904,119.759639 119.788048,92.9962725 119.788048,59.9830461 C119.788048,26.9722244 92.9735904,0.209338677 59.8940723,0.209338677" id="Fill-11" fill="#FFFFFF" mask="url(#mask-2)"></path>
                </g>
                <path d="M25.1710843,54.5194629 L25.2072289,54.5411062 C26.3759036,55.2505251 28.5228916,55.8661563 31.3084337,56.3134509 C31.3855422,56.3254749 31.4650602,56.337499 31.5421687,56.3492826 C32.0144578,56.4240721 32.5036145,56.4938116 33.0120482,56.5563367 C33.5542169,56.6236713 34.113253,56.6861964 34.6915663,56.7439118 C36.4216867,56.912008 38.3012048,57.0252745 40.2771084,57.0707255 C40.9325301,57.0853948 41.6,57.0923687 42.2746988,57.0923687 C42.9493976,57.0923687 43.6168675,57.0853948 44.2722892,57.0707255 C45.5903614,57.0394629 46.8628916,56.9793427 48.0795181,56.8927695 C48.686747,56.849483 49.2819277,56.798982 49.8578313,56.7439118 C50.4361446,56.6861964 50.9951807,56.6236713 51.5373494,56.5563367 C52.0457831,56.4938116 52.5349398,56.4240721 53.0074699,56.3492826 C53.0746988,56.3396633 53.1445783,56.3278798 53.2120482,56.31802 C54.9108434,56.046517 56.373494,55.7122485 57.5204819,55.3322886 C57.6481928,55.2914068 57.7686747,55.2478798 57.886988,55.2048337 C58.4698795,54.9953747 58.9590361,54.7743727 59.3421687,54.5411062 C59.3542169,54.5338918 59.3662651,54.5264369 59.3783133,54.5194629 C59.6746988,54.3364569 59.9060241,54.146477 60.0650602,53.9519279 C60.113253,53.8918076 60.1542169,53.8338517 60.1903614,53.7737315 C60.2819277,53.6200641 60.3277108,53.463511 60.3277108,53.3023888 L60.3277108,49.7865571 L60.3277108,48.9833507 L60.3277108,48.3653146 L60.3277108,48.2330501 C60.3253012,48.2739319 60.3156627,48.3148136 60.3084337,48.3583407 C60.3060241,48.3679599 60.3036145,48.3749339 60.3012048,48.3845531 C60.2939759,48.4208657 60.2843373,48.4593427 60.2698795,48.4927695 C60.2457831,48.5579399 60.2144578,48.6226293 60.1761446,48.6851543 C60.1349398,48.7527295 60.0891566,48.8176593 60.0337349,48.8847535 C60.0192771,48.903992 60.0024096,48.9232305 59.9831325,48.9427094 C59.8240964,49.1110461 59.6096386,49.2767375 59.3445783,49.4378597 C58.8819277,49.7194629 58.2674699,49.9861563 57.5204819,50.2340922 C56.9614458,50.4166172 56.3277108,50.5924088 55.6289157,50.7535311 L55.626506,50.7535311 C54.5445783,51.000986 53.3086747,51.2198236 51.9493976,51.4028297 C50.5879518,51.5831904 49.1036145,51.727479 47.5277108,51.828481 C46.739759,51.878982 45.9301205,51.9174589 45.1012048,51.9463166 C44.8240964,51.9532906 44.5445783,51.9629098 44.2650602,51.9679599 L44.2120482,51.9679599 C43.5759036,51.9532906 42.9301205,51.9463166 42.2746988,51.9463166 C41.6120482,51.9463166 40.9590361,51.9532906 40.3156627,51.9679599 L40.2843373,51.9679599 C39.7228916,51.9559359 39.1710843,51.9366974 38.626506,51.9150541 C38.0819277,51.8907655 37.546988,51.8619078 37.0216867,51.828481 C33.8698795,51.626477 31.0843373,51.2510862 28.9228916,50.7535311 L28.9204819,50.7535311 C28.460241,50.647479 28.0337349,50.5346934 27.6337349,50.419022 C26.3036145,50.0294429 25.3084337,49.5896032 24.746988,49.1134509 C24.4192771,48.8342525 24.2385542,48.5432705 24.2216867,48.2450741 L24.2216867,53.3023888 C24.2216867,53.5164168 24.3036145,53.7256353 24.4650602,53.9278798 C24.626506,54.1322886 24.8626506,54.329483 25.1710843,54.5194629" id="Fill-14" fill="#FFFFFF"></path>
                <path d="M25.1710843,46.9851703 L25.2096386,47.0092184 C27.4481928,48.3679359 33.2674699,49.3753106 40.2963855,49.5390782 L40.3156627,49.5390782 C40.9590361,49.5511022 41.6120482,49.5607214 42.2746988,49.5607214 C42.9373494,49.5607214 43.5903614,49.5511022 44.2337349,49.5390782 L44.253012,49.5390782 C49.8313253,49.4092184 54.6506024,48.7478958 57.5204819,47.8004008 C57.6361446,47.7616834 57.746988,47.7232064 57.8578313,47.6847295 C58.4096386,47.4877756 58.8771084,47.2785571 59.253012,47.0597194 L59.2554217,47.0573146 L59.2556627,47.0573146 L59.3493976,47.0140281 L59.3807229,46.98998 C59.4,46.9755511 59.4192771,46.9608818 59.4385542,46.9466934 C59.4554217,46.9370741 59.4746988,46.9250501 59.4915663,46.9127856 C59.5638554,46.8649299 59.6313253,46.8168337 59.6942169,46.7687375 C59.6963855,46.7663327 59.7012048,46.7639279 59.7012048,46.7639279 C59.8481928,46.6506613 59.9686747,46.5354709 60.0626506,46.4197996 C60.2385542,46.2084168 60.3277108,45.991984 60.3277108,45.770501 L60.3277108,42.4518637 L60.3277108,40.7134269 C60.3277108,41.6849699 58.5831325,42.5699399 55.7156627,43.2408818 C52.9903614,43.8781563 49.2481928,44.3206413 45.0240964,44.4574749 C44.1277108,44.4288577 43.2096386,44.4144289 42.2746988,44.4144289 C41.339759,44.4144289 40.4216867,44.4288577 39.5253012,44.4574749 C35.3012048,44.3206413 31.5590361,43.8781563 28.8337349,43.2408818 C25.9662651,42.5699399 24.2216867,41.6849699 24.2216867,40.7134269 L24.2216867,45.770501 C24.2216867,46.1963928 24.5542169,46.6052104 25.1710843,46.9851703" id="Fill-16" fill="#FFFFFF"></path>
                <path d="M60.3303976,48.2021463 L60.3253976,48.1971463 C60.3303976,48.2171463 60.3303976,48.2321463 60.3303976,48.2521463 L60.3303976,48.2021463 Z" id="Fill-18" fill="#FFFFFF"></path>
                <path d="M25.1710843,62.0511583 C25.1759036,62.0562084 25.1831325,62.0583727 25.1879518,62.0631824 L25.2072289,62.0754469 C26.6168675,62.9289138 29.4433735,63.6455471 33.0987952,64.1002966 C33.6144578,64.1625812 34.146988,64.2227014 34.6939759,64.2756072 C34.9060241,64.2972505 35.1228916,64.316489 35.339759,64.3357275 C35.6915663,64.36699 36.0506024,64.3958477 36.4120482,64.4223006 C37.6481928,64.5112786 38.9421687,64.5713988 40.2795181,64.6026613 L40.3156627,64.6026613 C40.9590361,64.6170902 41.6120482,64.6243046 42.2746988,64.6243046 C42.9373494,64.6243046 43.5903614,64.6170902 44.2337349,64.6026613 L44.2698795,64.6026613 C44.9277108,64.5882325 45.5759036,64.5641844 46.2120482,64.5353267 C46.8457831,64.5064689 47.4698795,64.467992 48.0771084,64.4247054 C49.2939759,64.3381323 50.4506024,64.2251062 51.5349398,64.0904369 C52.2578313,63.9992946 52.9493976,63.8982926 53.6024096,63.7876713 C54.253012,63.6768096 54.8698795,63.5565691 55.4433735,63.4291142 C55.5855422,63.3954469 55.7253012,63.3641844 55.8650602,63.330517 C56.4722892,63.1838236 57.0240964,63.0299158 57.5204819,62.863984 C57.6481928,62.8231022 57.7710843,62.7822204 57.8891566,62.7389339 C58.4698795,62.5273106 58.9590361,62.3084729 59.3421687,62.0754469 L59.3783133,62.0511583 C59.5325301,61.9573707 59.6698795,61.8587735 59.7879518,61.7601764 C59.8457831,61.7120802 59.9012048,61.6615792 59.9493976,61.6110782 C59.9903614,61.5701964 60.0289157,61.5293146 60.0626506,61.4860281 C60.1253012,61.4066693 60.1783133,61.3273106 60.2192771,61.2479519 C60.2891566,61.113523 60.3277108,60.9762084 60.3277108,60.8367295 L60.3277108,56.472 L60.3277108,55.77701 C60.3253012,55.827511 60.3156627,55.878012 60.3012048,55.9309178 C60.2843373,55.9982525 60.2626506,56.0655872 60.2289157,56.1353267 C60.1879518,56.2170902 60.1325301,56.2988537 60.0650602,56.3806172 C59.9975904,56.4623808 59.9156627,56.5443848 59.8240964,56.6237435 C59.8120482,56.6333627 59.8048193,56.6427415 59.7927711,56.6523607 C59.3180723,57.0515591 58.5421687,57.4243046 57.5204819,57.7633828 C57.0578313,57.9175311 56.5445783,58.0615792 55.9855422,58.1986533 C55.8650602,58.2277515 55.7445783,58.2566092 55.6216867,58.2852265 C55.3084337,58.3576112 54.9807229,58.4273507 54.6409639,58.4944449 C53.4240964,58.7349259 52.0481928,58.9395752 50.546988,59.1028617 C49.8289157,59.1800561 49.0819277,59.2471503 48.3108434,59.3048657 C47.0240964,59.4010581 45.6722892,59.4683928 44.2722892,59.4998958 C43.9518072,59.4924409 43.6289157,59.4876313 43.3012048,59.4828216 C42.9614458,59.4806573 42.6192771,59.478012 42.2746988,59.478012 C41.9373494,59.478012 41.6024096,59.4806573 41.2674699,59.4828216 C40.9349398,59.4876313 40.6048193,59.4924409 40.2771084,59.4998958 C38.8987952,59.4683928 37.5686747,59.4034629 36.3036145,59.3099158 C36.0240964,59.2906774 35.746988,59.2690341 35.4746988,59.2447455 C35.2240964,59.2231022 34.9759036,59.2014589 34.7301205,59.1774108 C32.9228916,59.0018597 31.2795181,58.7661884 29.8554217,58.4824208 C29.5349398,58.4198958 29.2240964,58.3525611 28.9277108,58.2852265 C28.860241,58.2686333 28.7951807,58.2539639 28.7277108,58.2373707 C26.8506024,57.7898357 25.4650602,57.2487535 24.7566265,56.6523607 C24.4216867,56.370998 24.2385542,56.0776112 24.2216867,55.77701 L24.2216867,60.8367295 C24.2216867,61.0483527 24.3036145,61.2575711 24.4650602,61.46198 C24.626506,61.6642244 24.8626506,61.8611784 25.1710843,62.0511583" id="Fill-20" fill="#FFFFFF"></path>
                <path d="M24.7615181,69.2944689 C24.8795904,69.3930661 25.0169398,69.489499 25.1711566,69.5854509 L25.2073012,69.6070942 C25.742241,69.9317435 26.4844096,70.2371543 27.3976627,70.5161122 C27.6145301,70.5812826 27.8434458,70.6459719 28.0795904,70.708497 C28.2097108,70.7445691 28.342241,70.7782365 28.4747711,70.8121443 C31.3832048,71.5357515 35.5566988,72.0263327 40.2795904,72.1369539 L40.3157349,72.1369539 C40.6362169,72.1417635 40.9566988,72.148978 41.282,72.1513828 C41.6097108,72.1561924 41.942241,72.1561924 42.2747711,72.1561924 C42.9374217,72.1561924 43.5904337,72.148978 44.2338072,72.1369539 L44.2699518,72.1369539 C49.0458554,72.0263327 53.2603133,71.5239679 56.1711566,70.7878557 C56.2386265,70.771022 56.3036867,70.7541884 56.368747,70.7349499 C56.7301928,70.6414028 57.0699518,70.5449699 57.3856145,70.4439679 C57.4313976,70.4295391 57.4771807,70.4151102 57.5205542,70.3982766 C57.6458554,70.3573948 57.768747,70.316513 57.8868193,70.2710621 C58.4699518,70.064008 58.9591084,69.8406012 59.342241,69.6070942 L59.3783855,69.5854509 C59.6747711,69.4002806 59.9036867,69.2127054 60.0627229,69.0181563 C60.2386265,68.8086974 60.3277831,68.5922645 60.3277831,68.3686172 L60.3277831,64.0038878 L60.3277831,63.3088978 C60.3157349,63.5157114 60.2265783,63.7179559 60.0627229,63.9149098 C59.9904337,64.0062926 59.8988675,64.0952705 59.7928434,64.1842485 C59.568747,64.3742285 59.2723614,64.556994 58.9181446,64.7349499 C58.5229639,64.92998 58.0579036,65.1197194 57.5205542,65.2976754 C56.9615181,65.4828457 56.3277831,65.655992 55.628988,65.8171142 L55.6265783,65.8171142 C52.7446506,66.4808417 48.7542892,66.9281363 44.2675422,67.0341884 L44.2338072,67.0341884 C44.1060964,67.0315431 43.9759759,67.0291383 43.8482651,67.0267335 C43.3277831,67.0171142 42.8048916,67.0098998 42.2747711,67.0098998 C41.7446506,67.0098998 41.2241687,67.0171142 40.708506,67.0267335 C40.5783855,67.0291383 40.4458554,67.0291383 40.3157349,67.0341884 L40.282,67.0341884 C35.795253,66.9281363 31.8048916,66.4808417 28.9229639,65.8171142 L28.9205542,65.8171142 C28.3807952,65.6944689 27.882,65.5622044 27.4241687,65.4227255 C27.2723614,65.3770341 27.1229639,65.3289379 26.9807952,65.2832465 C26.4627229,65.1076954 26.0121205,64.9249299 25.628988,64.7349499 C25.2771807,64.556994 24.9807952,64.3742285 24.7566988,64.1842485 C24.6892289,64.1291784 24.628988,64.0736273 24.5735663,64.0159118 C24.5181446,63.9584369 24.4699518,63.900481 24.428988,63.8427655 C24.3012771,63.6696192 24.2313976,63.4916633 24.221759,63.3088978 L24.221759,68.3686172 C24.221759,68.6884569 24.4097108,68.9989178 24.7615181,69.2944689" id="Fill-22" fill="#FFFFFF"></path>
                <path d="M44.2674699,74.5658116 L44.2337349,74.5658116 C43.5903614,74.5513828 42.9373494,74.5441683 42.2746988,74.5441683 C41.6120482,74.5441683 40.9590361,74.5513828 40.3156627,74.5658116 L40.2819277,74.5658116 C35.7951807,74.4624048 31.8048193,74.0127054 28.9228916,73.3513828 L28.9204819,73.3513828 C28.3807229,73.2265731 27.8819277,73.0940681 27.4240964,72.9572345 C27.2722892,72.9088978 27.1228916,72.8632064 26.9807229,72.8151102 C26.2674699,72.5770341 25.6746988,72.3197194 25.226506,72.0503808 C25.1373494,71.9953106 25.053012,71.9397595 24.973494,71.8846894 C24.853012,71.8002806 24.7493976,71.7139479 24.6554217,71.6249699 C24.3879518,71.3722244 24.2361446,71.1127455 24.2216867,70.8434068 L24.2216867,75.900481 C24.2216867,76.1674148 24.3518072,76.4247295 24.6,76.6750701 C24.7493976,76.8263327 24.939759,76.9730261 25.1710843,77.1151503 L25.2096386,77.1389579 C25.4192771,77.2664128 25.660241,77.3914629 25.9325301,77.5117034 C26.9228916,77.9541884 28.313253,78.350982 30,78.6804409 C30.2722892,78.7333467 30.5542169,78.7838477 30.8409639,78.8343487 C31.0674699,78.8728257 31.2963855,78.9113026 31.5301205,78.9473747 C34.0289157,79.3369539 37.0240964,79.5942685 40.2795181,79.6688176 L40.3156627,79.6688176 C40.9590361,79.6832465 41.6120482,79.6907014 42.2746988,79.6907014 C42.9373494,79.6907014 43.5903614,79.6832465 44.2337349,79.6688176 L44.2698795,79.6688176 C45.826506,79.6351503 47.3228916,79.5557916 48.7349398,79.4427655 C48.8096386,79.3008818 48.9036145,79.171022 49.0144578,79.0582365 C48.7303614,78.6395591 48.6120482,78.2355511 48.5759036,77.8870942 C48.5662651,77.8002806 48.5614458,77.7163527 48.5614458,77.636994 C48.5614458,76.9802405 48.8,76.3886573 49.2915663,75.8595992 C50.0795181,75.0058918 51.5204819,74.3109018 53.6554217,73.7409619 C51.0361446,74.188497 47.8048193,74.4840481 44.2674699,74.5658116" id="Fill-24" fill="#FFFFFF"></path>
                <path d="M48.5615181,85.3153347 L48.5615181,83.4516072 L48.5615181,81.8836713 C47.2000723,81.9918878 45.7639277,82.0640321 44.2699518,82.1001042 L44.2338072,82.1001042 C43.5904337,82.0856754 42.9374217,82.0760561 42.2747711,82.0760561 C41.6121205,82.0760561 40.9591084,82.0856754 40.3157349,82.1001042 L40.2795904,82.1001042 C35.7976627,81.9942926 31.8097108,81.546998 28.9277831,80.8832705 C28.4771807,80.7774589 28.0530843,80.6692425 27.6603133,80.5562164 C27.5205542,80.5153347 27.3832048,80.4744529 27.2482651,80.4311663 C27.1518795,80.3999038 27.0579036,80.3710461 26.968747,80.3397836 C26.8313976,80.2940922 26.7012771,80.2484008 26.5735663,80.2003046 C26.108506,80.0295631 25.7060964,79.8516072 25.3711566,79.6616273 C25.3326024,79.6423888 25.2964578,79.6231503 25.2627229,79.601507 C25.2193494,79.5750541 25.1807952,79.551006 25.1398313,79.5245531 C25.082,79.4908858 25.028988,79.4548136 24.9759759,79.4163367 C24.9735663,79.4163367 24.9711566,79.4139319 24.968747,79.4139319 C24.9181446,79.3754549 24.8699518,79.3417876 24.8265783,79.3057154 C24.7856145,79.2720481 24.7470602,79.2407856 24.7133253,79.209523 C24.4988675,79.0243527 24.3542892,78.8319679 24.2795904,78.6347735 C24.255494,78.5770581 24.2410361,78.5169379 24.2313976,78.4568176 C24.2265783,78.4303647 24.2241687,78.4039118 24.221759,78.3750541 L24.221759,83.4347735 C24.221759,83.85802 24.5542892,84.2668377 25.1711566,84.6492024 C27.5832048,86.144994 34.3301928,87.2223487 42.2747711,87.2223487 C44.5856145,87.2223487 46.795253,87.1309659 48.8265783,86.9650341 C48.882,86.8832705 48.9446506,86.8063166 49.0145301,86.7365772 C48.6892289,86.25802 48.5783855,85.7938918 48.5663373,85.4139319 C48.5615181,85.3802645 48.5615181,85.3465972 48.5615181,85.3153347" id="Fill-26" fill="#FFFFFF"></path>
                <path d="M25.2048434,39.4771864 C25.9976145,39.9581483 27.2433976,40.3958236 28.833759,40.7685691 C31.5590602,41.4060842 35.3012289,41.8461643 39.5253253,41.982998 C39.780747,41.9902124 40.0385783,41.9974269 40.2988193,42.0048818 L40.3156867,42.0048818 C40.9590602,42.0190701 41.6120723,42.0265251 42.2747229,42.0265251 C42.9373735,42.0265251 43.5903855,42.0190701 44.233759,42.0048818 L44.2506265,42.0048818 C44.5108675,41.9974269 44.7686988,41.9902124 45.0241205,41.982998 C49.2482169,41.8461643 52.9903855,41.4060842 55.7156867,40.7685691 C57.3060482,40.3958236 58.5518313,39.9581483 59.3446024,39.4771864 C59.9831566,39.0876072 60.3277349,38.6715752 60.3277349,38.2389499 C60.3277349,36.1465251 52.2458072,34.4513747 42.2747229,34.4513747 C32.3036386,34.4513747 24.2217108,36.1465251 24.2217108,38.2389499 C24.2217108,38.6715752 24.5662892,39.0876072 25.2048434,39.4771864" id="Fill-28" fill="#FFFFFF"></path>
                <path d="M85.3621446,81.7243287 C84.5746747,82.0963527 83.5149157,82.4375952 82.2361205,82.7374749 C80.5168434,83.1393186 78.3987711,83.4642084 76.0141928,83.6871343 C74.5455181,83.8242084 72.9761205,83.9228056 71.3349157,83.9757114 C71.3243133,83.9754709 71.3134699,83.9754709 71.3028675,83.97499 C70.3997349,83.9468537 69.4756386,83.9326653 68.532506,83.9326653 C67.5893735,83.9326653 66.6655181,83.9468537 65.7623855,83.97499 C65.7517831,83.9754709 65.7406988,83.9754709 65.7300964,83.9757114 C64.7450361,83.9439679 63.7864819,83.8961122 62.8602169,83.8333467 C62.5267229,83.810501 62.1970843,83.7862124 61.8722651,83.759519 C61.3852771,83.7200802 60.9115422,83.6760721 60.4467229,83.6286974 C60.4009398,83.6238878 60.3539518,83.6197996 60.3084096,83.61499 C59.9105783,83.5721844 59.5243133,83.5262525 59.1440723,83.4786373 C58.9069639,83.4488176 58.6703373,83.418998 58.4409398,83.3867735 C58.4385301,83.3891784 58.4385301,83.3891784 58.4385301,83.3867735 C57.9380482,83.3182365 57.4544337,83.2444088 56.9893735,83.1662525 C56.5245542,83.0878557 56.0782892,83.0048898 55.652506,82.9175952 C55.3686506,82.8593988 55.0939518,82.7992786 54.8288916,82.7374749 C54.759012,82.7206413 54.6867229,82.7035671 54.619253,82.6869739 C53.9975663,82.5357114 53.4322651,82.3745892 52.925759,82.2050501 C52.352506,82.0133868 51.8549157,81.8106613 51.4481687,81.5975952 L51.445759,81.5975952 C50.992747,81.3592786 50.6484096,81.1115832 50.4288916,80.854509 L50.4264819,80.854509 C50.3782892,80.7989579 50.3358795,80.7434068 50.2987711,80.6873747 C50.2619036,80.6308617 50.2310602,80.5743487 50.205759,80.5173547 C50.1553976,80.4036072 50.1288916,80.2879359 50.1276867,80.1715431 L50.1276867,80.1717836 L50.1276867,80.8857715 L50.1276867,81.7442886 L50.1276867,83.3143888 L50.1276867,85.269499 L50.1276867,85.3154309 C50.1276867,85.5871743 50.2604578,85.850982 50.5134699,86.1056513 C50.5182892,86.1102204 50.5243133,86.1150301 50.5291325,86.1195992 C50.6035904,86.1931864 50.6903373,86.2658116 50.7847952,86.3379559 C50.8799759,86.4105812 50.9816627,86.4827255 51.0963614,86.5539078 L51.1091325,86.5616032 L51.1351566,86.5779559 C51.2072048,86.621002 51.2819036,86.6645291 51.359012,86.7078156 C51.639253,86.8593186 51.9635904,87.0067335 52.3293735,87.1490982 C52.4510602,87.1962325 52.5775663,87.2431263 52.7084096,87.2895391 C53.2320241,87.4742285 53.8264819,87.6492986 54.4843133,87.8113828 C57.452988,88.547495 61.706,89.0474549 66.5156386,89.1583166 L66.5349157,89.1583166 C66.8635904,89.1640882 67.1951566,89.1691383 67.5291325,89.172505 C67.8614217,89.1756313 68.1961205,89.1773146 68.532506,89.1773146 C68.8691325,89.1773146 69.2038313,89.1756313 69.5361205,89.172505 C69.8700964,89.1691383 70.2016627,89.1640882 70.5300964,89.1583166 L70.5493735,89.1583166 C72.1170843,89.122004 73.6255181,89.0443287 75.0498554,88.9310621 C75.6602169,88.882485 76.2551566,88.8271743 76.832747,88.7656112 C81.0669639,88.3151904 84.3614217,87.5317034 85.9300964,86.5779559 C85.9520241,86.5666533 85.9679277,86.5543888 85.9684096,86.5541483 L85.9686506,86.5539078 C86.2045542,86.4079359 86.3997349,86.2583567 86.5515422,86.1056513 C86.8045542,85.850982 86.9373253,85.5871743 86.9373253,85.3154309 L86.9373253,80.1597595 L86.9373253,80.1592786 C86.9373253,80.7167134 86.3746747,81.246012 85.3621446,81.7243287" id="Fill-30" fill="#FFFFFF"></path>
                <path d="M86.9181687,87.9533627 C86.9085301,87.9990541 86.8964819,88.0447455 86.8796145,88.0928417 C86.8555181,88.158012 86.8241928,88.2227014 86.7832289,88.2878717 C86.7302169,88.3742044 86.6675663,88.4631824 86.5856386,88.5475912 C85.922988,89.2497956 84.3543133,89.8844248 82.1470843,90.3966493 L82.1446747,90.3966493 C81.0434699,90.6517996 79.7832289,90.8730421 78.3952771,91.0579719 C77.0073253,91.2433828 75.4940723,91.3874309 73.889253,91.4908377 C73.0844337,91.543984 72.2579277,91.5822204 71.4145542,91.6110782 C71.1326265,91.6206974 70.8482892,91.6279118 70.5615422,91.6353667 L70.5085301,91.6353667 C69.8603373,91.6182926 69.2000964,91.6110782 68.5326265,91.6110782 C67.8579277,91.6110782 67.1904578,91.6206974 66.5350361,91.6353667 L66.5037108,91.6353667 C65.9326265,91.6206974 65.3687711,91.6041042 64.8121446,91.5798156 C64.2579277,91.5557675 63.7133494,91.5247455 63.176,91.4908377 C59.9639518,91.2864289 57.122988,90.9043046 54.9205783,90.3966493 L54.9181687,90.3966493 C54.4506988,90.2884329 54.0145542,90.173002 53.6073253,90.0551663 C52.2506988,89.6583727 51.236241,89.2089138 50.662747,88.7229018 C50.5350361,88.6146854 50.4314217,88.5040641 50.349494,88.3934429 C50.2145542,88.2106774 50.1374458,88.025507 50.1278072,87.8381723 L50.1278072,88.4177315 L50.1278072,92.996489 C50.1278072,93.2126814 50.2121446,93.4243046 50.376,93.6311182 C50.5398554,93.8381723 50.7808193,94.0401764 51.0964819,94.2347255 L51.1326265,94.2563687 C52.322988,94.9804569 54.5133494,95.6078717 57.3543133,96.0626212 C57.4314217,96.0768096 57.5109398,96.0888337 57.5904578,96.1008577 C58.0723855,96.1754068 58.5711807,96.2475511 59.089253,96.3127214 C59.6410602,96.3822204 60.2121446,96.444986 60.8000964,96.5024609 C62.5663614,96.6734429 64.4820241,96.7886333 66.4964819,96.8345651 C67.1639518,96.8511583 67.8458795,96.8583727 68.5326265,96.8583727 C69.2193735,96.8583727 69.9013012,96.8511583 70.5687711,96.8345651 C71.9109398,96.8057074 73.2121446,96.7429419 74.4506988,96.6542044 C75.0699759,96.6106774 75.6772048,96.5601764 76.2651566,96.5024609 C76.8531084,96.444986 77.4241928,96.3822204 77.976,96.3127214 C78.4940723,96.2475511 78.9928675,96.1754068 79.4747952,96.1008577 C79.5446747,96.0912385 79.6145542,96.0792144 79.6820241,96.0671904 C82.5374458,95.6102766 84.7374458,94.9826212 85.9326265,94.2563687 C85.9446747,94.2493948 85.9567229,94.2419399 85.9687711,94.2347255 C86.3639518,93.9918397 86.6434699,93.7369299 86.7976867,93.4748056 C86.889253,93.3187335 86.9374458,93.1576112 86.9374458,92.996489 L86.9374458,87.924505 L86.9374458,87.8381723 C86.9326265,87.8715992 86.9278072,87.9028617 86.9205783,87.9367695 C86.9205783,87.9413387 86.9181687,87.9485531 86.9181687,87.9533627" id="Fill-32" fill="#FFFFFF"></path>
                <path d="M68.5325783,73.7746052 C66.1928193,73.7746052 63.9542651,73.865988 61.8940241,74.0319198 C61.3590843,74.0776112 60.8361928,74.1257074 60.327759,74.1788537 C59.7904096,74.2339238 59.2675181,74.2964489 58.761494,74.3637836 C58.334988,74.4193347 57.9205301,74.4794549 57.5205301,74.5417395 C57.3157108,74.573002 57.1157108,74.6066693 56.9181205,74.6405772 C56.9157108,74.6405772 56.9108916,74.6427415 56.9084819,74.6427415 C55.8289639,74.8279118 54.8506506,75.0371303 53.9952289,75.267992 L53.9904096,75.267992 C51.5687229,75.9223407 50.127759,76.7447856 50.127759,77.6369699 C50.127759,77.6728016 50.1301687,77.7088737 50.134988,77.7425411 C50.1855904,78.1441443 50.5325783,78.5337234 51.1301687,78.899495 C51.2699277,78.9834228 51.4217349,79.0675912 51.588,79.1495952 L51.5904096,79.1495952 C52.0313735,79.3657876 52.5639036,79.5726012 53.1783614,79.7700361 L53.1807711,79.7700361 C53.6795663,79.9261082 54.2313735,80.0752064 54.8289639,80.2146854 C54.8313735,80.2146854 54.8361928,80.2170902 54.8386024,80.2170902 C55.4241446,80.3541643 56.0530602,80.4818597 56.7253494,80.6021002 C57.8241446,80.7942445 59.0313735,80.9601764 60.327759,81.0948457 C60.8361928,81.1501563 61.3590843,81.1982525 61.8940241,81.2391343 C63.1157108,81.3401363 64.3976386,81.4122806 65.7301687,81.4555671 C65.9904096,81.463022 66.2530602,81.469996 66.5181205,81.4772104 L66.534988,81.4772104 C67.1904096,81.4916393 67.8578795,81.4988537 68.5325783,81.4988537 C69.2072771,81.4988537 69.874747,81.4916393 70.5301687,81.4772104 L70.5470361,81.4772104 C70.8120964,81.469996 71.074747,81.463022 71.334988,81.4555671 C75.641012,81.3160882 79.4578795,80.8663888 82.2361928,80.2146854 C83.8578795,79.8371303 85.127759,79.3900762 85.934988,78.899495 C86.5855904,78.5024609 86.9373976,78.0770501 86.9373976,77.6369699 C86.9373976,77.6078717 86.934988,77.5814188 86.9325783,77.5552064 C86.7229398,75.4579719 78.5663133,73.7746052 68.5325783,73.7746052" id="Fill-34" fill="#FFFFFF"></path>
            </g>
        </g>
    </g>
</svg>