<?xml version="1.0" encoding="UTF-8" standalone="no"?>
<svg width="120px" height="120px" viewBox="0 0 120 120" version="1.1" xmlns="http://www.w3.org/2000/svg" xmlns:xlink="http://www.w3.org/1999/xlink">
    <!-- Generator: Sketch 46 (44423) - http://www.bohemiancoding.com/sketch -->
    <title>Transparencia</title>
    <desc>Created with Sketch.</desc>
    <defs></defs>
    <g id="6-We-care" stroke="none" stroke-width="1" fill="none" fill-rule="evenodd">
        <g transform="translate(-576.000000, -4559.000000)" id="Transparencia" fill="#FFFFFF">
            <path d="M673.305863,4656.30567 C668.4583,4661.15346 662.815362,4664.95846 656.53371,4667.61542 C653.284621,4668.98964 649.933184,4670.02519 646.503536,4670.71725 L646.187076,4654.52157 C646.187076,4654.22152 646.374152,4653.95334 646.655611,4653.84954 C646.686509,4653.8382 649.847974,4652.64695 652.956816,4649.77057 C657.089145,4645.94747 659.184638,4641.10595 659.184638,4635.37998 L659.184638,4611.53061 C657.864967,4611.43864 654.76747,4611.39423 653.167065,4612.79307 C652.512419,4613.3654 652.194269,4614.1166 652.194269,4615.08988 L652.194269,4628.10624 C652.194269,4628.45336 651.944915,4628.75075 651.603109,4628.81134 C651.568349,4628.81737 648.077389,4629.4457 644.646293,4630.84406 C641.627731,4632.07394 638.029353,4634.16146 638.029353,4637.12039 C638.029353,4637.51603 637.70903,4637.83659 637.313395,4637.83659 C636.918,4637.83659 636.597436,4637.51603 636.597436,4637.12039 C636.597436,4634.10184 639.130326,4631.54119 644.126101,4629.50967 C646.878413,4628.39035 649.594516,4627.75937 650.762353,4627.51677 L650.762353,4615.08988 C650.762353,4613.706 651.249475,4612.57534 652.20996,4611.72879 L652.20996,4590.79418 C652.20996,4590.76931 652.211167,4590.74421 652.213822,4590.71959 C652.216719,4590.68628 652.288894,4589.75645 651.600454,4589.00501 C650.977189,4588.32526 649.911459,4587.9808 648.432713,4587.9808 C646.89362,4587.9808 645.781061,4588.3226 645.215729,4588.96952 C644.690468,4589.57058 644.777609,4590.26771 644.781712,4590.29692 C644.787506,4590.33457 644.789437,4590.36402 644.789437,4590.40192 L644.789437,4622.42783 C644.789437,4622.82322 644.468873,4623.14379 644.073237,4623.14379 C643.677843,4623.14379 643.35752,4622.82322 643.35752,4622.42783 L643.35752,4607.6322 C643.34352,4607.57668 643.335554,4607.51898 643.335554,4607.45936 L643.335554,4583.97207 C643.335554,4583.94721 643.336761,4583.92234 643.339416,4583.89748 C643.342796,4583.85838 643.426799,4582.80327 642.644459,4581.94827 C641.942018,4581.18042 640.746421,4580.7913 639.090738,4580.7913 C637.353224,4580.7913 636.099693,4581.18428 635.465807,4581.928 C634.874888,4582.62102 634.983272,4583.41784 634.984479,4583.42581 C634.990513,4583.46322 634.99341,4583.50112 634.99341,4583.53902 L634.99341,4621.98609 C634.99341,4622.38148 634.673088,4622.70229 634.277452,4622.70229 C633.882058,4622.70229 633.561494,4622.38148 633.561494,4621.98609 L633.561494,4612.24319 C633.547252,4612.18694 633.538803,4612.12805 633.538803,4612.06698 L633.538803,4590.79418 C633.538803,4590.76931 633.54001,4590.74421 633.542665,4590.71959 C633.545562,4590.68628 633.617737,4589.75645 632.929056,4589.00501 C632.306032,4588.32526 631.240302,4587.9808 629.761556,4587.9808 C628.222464,4587.9808 627.110146,4588.3226 626.544572,4588.96952 C626.019311,4589.57058 626.106452,4590.26771 626.110556,4590.29692 C626.116349,4590.33457 626.11828,4590.36402 626.11828,4590.40192 L626.11828,4622.42783 C626.11828,4622.82322 625.797716,4623.14379 625.402081,4623.14379 C625.006928,4623.14379 624.686123,4622.82322 624.686123,4622.42783 L624.686123,4622.2031 C624.674536,4622.15144 624.667536,4622.09785 624.667536,4622.04282 L624.667536,4603.73499 C624.667536,4603.71809 624.66826,4603.70095 624.669467,4603.68405 C624.670191,4603.67271 624.749125,4602.21086 623.808676,4601.21031 C623.180341,4600.54166 622.212856,4600.203 620.933256,4600.203 C619.707727,4600.203 618.783209,4600.54818 618.184807,4601.2289 C617.11618,4602.44501 617.337051,4604.41618 617.339465,4604.43598 C617.343568,4604.46639 617.345499,4604.49705 617.345499,4604.5277 L617.345499,4627.30604 C617.345499,4648.19069 623.28438,4653.94103 623.344244,4653.99655 C623.490284,4654.13197 623.573322,4654.32218 623.573322,4654.52157 L623.88254,4670.36145 C621.014363,4669.68749 618.203635,4668.77287 615.46629,4667.61518 C609.184879,4664.95846 603.5417,4661.15346 598.694137,4656.30567 C593.846573,4651.45811 590.041567,4645.81519 587.384846,4639.53379 C584.635672,4633.03394 583.241654,4626.12541 583.241654,4618.99988 C583.241654,4611.87435 584.635672,4604.96582 587.384604,4598.46621 C590.041567,4592.18481 593.846573,4586.54189 598.694137,4581.69433 C603.5417,4576.84654 609.184879,4573.04154 615.46629,4570.38482 C621.965916,4567.63566 628.874454,4566.24164 636,4566.24164 C643.125546,4566.24164 650.034084,4567.63566 656.533951,4570.38482 C662.815362,4573.04154 668.4583,4576.84654 673.305863,4581.69409 C678.153427,4586.54189 681.958433,4592.18481 684.615396,4598.46621 C687.364569,4604.96582 688.758346,4611.87435 688.758346,4618.99988 C688.758346,4626.12541 687.364569,4633.03394 684.615396,4639.53379 C681.958433,4645.81519 678.153427,4651.45811 673.305863,4656.30567 M636,4559 C602.862915,4559 576,4585.86286 576,4618.99988 C576,4652.1369 602.862915,4679 636,4679 C669.137085,4679 696,4652.1369 696,4618.99988 C696,4585.86286 669.137085,4559 636,4559"></path>
        </g>
    </g>
</svg>