<?xml version="1.0" encoding="UTF-8" standalone="no"?>
<svg width="120px" height="120px" viewBox="0 0 120 120" version="1.1" xmlns="http://www.w3.org/2000/svg" xmlns:xlink="http://www.w3.org/1999/xlink">
    <!-- Generator: Sketch 46 (44423) - http://www.bohemiancoding.com/sketch -->
    <title>Competitividad</title>
    <desc>Created with Sketch.</desc>
    <defs>
        <polygon id="path-1" points="0 119.790361 119.787952 119.790361 119.787952 0 0 0"></polygon>
    </defs>
    <g id="6-We-care" stroke="none" stroke-width="1" fill="none" fill-rule="evenodd">
        <g transform="translate(-714.000000, -4327.000000)" id="Competitividad">
            <g transform="translate(714.000000, 4327.000000)">
                <mask id="mask-2" fill="white">
                    <use xlink:href="#path-1"></use>
                </mask>
                <g id="Clip-2"></g>
                <path d="M51.6168675,61.334747 L49.7445783,61.2993253 C49.6696386,61.2916145 49.5937349,61.2872771 49.5161446,61.2901687 L49.4274699,61.2933012 L49.3561446,61.2918554 C49.2771084,61.2904096 49.1995181,61.2957108 49.1231325,61.3043855 L42.8310843,61.5304096 L47.940241,49.4771566 L53.3590361,53.9776386 C53.3766265,53.9920964 53.3966265,54.001494 53.4144578,54.014988 C53.5173494,54.1140241 53.6371084,54.1986024 53.7763855,54.2576386 L62.5807229,57.9894458 C62.7004819,58.0405301 62.8240964,58.0646265 62.9472289,58.074988 L53.2706024,69.2523373 L53.3855422,63.1713735 C53.4040964,62.1757108 52.6125301,61.3535422 51.6168675,61.334747 L51.6168675,61.334747 Z M39.7416867,77.8783614 C39.7640964,77.7672771 39.7742169,77.6566747 39.7756627,77.5475181 C39.8040964,77.4239036 39.8207229,77.2957108 39.8231325,77.1639036 L40.0057831,67.5026988 L47.4404819,67.2357108 L47.2713253,76.1817349 L37.9190361,86.9846265 L39.7416867,77.8783614 Z M26.173494,100.350651 C14.1339759,90.3051084 7.22891566,75.5590843 7.22891566,59.8940241 C7.22891566,52.781253 8.62024096,45.8851084 11.3645783,39.3969157 C14.0166265,33.1265542 17.8149398,27.4935422 22.6539759,22.654506 C27.493012,17.8154699 33.1257831,14.0169157 39.3963855,11.3648675 C45.8843373,8.62028916 52.7809639,7.22872289 59.8939759,7.22872289 C68.8072289,7.22872289 77.6113253,9.49426506 85.3549398,13.7802892 C92.8677108,17.9386024 99.3233735,23.941494 104.024819,31.1407711 C104.306988,31.5728193 104.580723,32.0096867 104.849398,32.4487229 C96.1159036,41.2320964 86.7681928,50.5988434 86.1325301,51.074506 C85.339759,51.6651084 84.339759,52.0964337 83.3566265,52.0964337 C81.6457831,52.0964337 79.7204819,50.9492048 79.3349398,49.188 C79.2915663,48.988 79.2024096,48.7976386 79.113253,48.6142651 C78.4120482,47.1733012 76.9349398,46.1783614 75.2216867,46.1783614 C73.8698795,46.1783614 72.6626506,46.7973976 71.8698795,47.7687229 L64.7139759,56.0342651 L64.7359036,55.9824578 C64.9949398,55.3716145 64.7096386,54.6667952 64.0987952,54.407759 L55.6575904,50.8294458 L48.093253,44.5472771 C48.0284337,44.481253 47.960241,44.4181205 47.8886747,44.3583614 L48.5339759,42.8357108 C50.8518072,43.0063133 53.1226506,41.7075181 54.08,39.4489639 C55.2826506,36.6118554 53.9575904,33.3371566 51.1204819,32.1342651 C48.2833735,30.9318554 45.0086747,32.2566747 43.8060241,35.0937831 C42.8484337,37.3525783 43.4944578,39.8875181 45.2284337,41.434506 L44.5831325,42.9571566 C43.353012,42.8263133 42.1306024,43.5022169 41.6226506,44.7002892 L34.5857831,61.301012 C34.3720482,61.5969157 34.2424096,61.9581205 34.2349398,62.3506506 L33.9607229,76.8670361 L31.2826506,90.2463133 C31.0872289,91.2229398 31.720241,92.1728193 32.6963855,92.368241 L33.1751807,92.4641446 L26.2754217,100.434024 C26.2414458,100.406072 26.206988,100.378843 26.173494,100.350651 L26.173494,100.350651 Z M110.077108,27.188 C99.3879518,10.8190843 80.9036145,-0.000192771084 59.8939759,-0.000192771084 C26.8144578,-0.000192771084 0,26.8166747 0,59.8940241 C0,78.3829398 8.37590361,94.9154699 21.5421687,105.901253 C31.9301205,114.573301 45.3036145,119.79041 59.8939759,119.79041 C92.973494,119.79041 119.787952,92.9735422 119.787952,59.8940241 C119.787952,47.8263133 116.219277,36.5925783 110.077108,27.188 L110.077108,27.188 Z" id="Fill-1" fill="#FFFFFF" mask="url(#mask-2)"></path>
            </g>
        </g>
    </g>
</svg>