<?xml version="1.0" encoding="UTF-8" standalone="no"?>
<svg width="120px" height="120px" viewBox="0 0 120 120" version="1.1" xmlns="http://www.w3.org/2000/svg" xmlns:xlink="http://www.w3.org/1999/xlink">
    <!-- Generator: Sketch 46 (44423) - http://www.bohemiancoding.com/sketch -->
    <title>Calidad de vida</title>
    <desc>Created with Sketch.</desc>
    <defs>
        <polygon id="path-1" points="119.788916 0.210517034 119.788916 119.759519 2.40963856e-05 119.759519 2.40963855e-05 0.210517034 119.788916 0.210517034"></polygon>
    </defs>
    <g id="6-We-care" stroke="none" stroke-width="1" fill="none" fill-rule="evenodd">
        <g transform="translate(-314.000000, -4558.000000)" id="Calidad-de-vida">
            <g transform="translate(314.000000, 4558.000000)">
                <path d="M93.997253,72.6654108 L81.6676145,61.8606012 L71.2061687,45.1368337 C70.7893012,44.4707014 70.0864096,44.0921844 69.3555663,44.0592385 C69.2049639,44.0258116 69.0401446,44.0075351 68.8577349,44.008016 L62.8254458,44.0277355 L62.8196627,41.3329058 C66.4362892,40.0977956 69.0338795,36.6745491 69.0252048,32.6474549 C69.0138795,27.5891784 64.8960482,23.4976353 59.8276145,23.5086974 C54.7591807,23.5197595 50.6591807,27.6295792 50.670506,32.6878557 C50.6791807,36.7149499 53.2921928,40.1266533 56.9141205,41.3458918 L56.9201446,44.0472144 L50.7543614,44.0674148 C50.750747,44.0674148 50.7478554,44.0678958 50.744241,44.0678958 C49.9068916,43.9921443 49.0584578,44.3764329 48.5827952,45.1368337 L38.1215904,61.8606012 L25.7917108,72.6654108 C24.8996627,73.4472144 24.8114699,74.8028056 25.5948434,75.6930661 L27.3519518,77.6902605 C28.1353253,78.580521 29.4936386,78.6685371 30.3856867,77.8867335 L43.2452048,66.6175551 C43.4430361,66.4441683 43.5989398,66.2419238 43.717012,66.0235671 C43.744,65.9855711 43.7719518,65.9487776 43.797012,65.9086172 L49.0382169,57.5297796 L49.0811084,76.9741082 L36.7346024,75.5581563 C33.6427952,75.2036874 30.8485783,77.4175551 30.4931566,80.5031663 C30.3264096,81.9518236 30.7271325,83.3350701 31.5189398,84.4316633 C31.6129157,84.5711423 31.7177349,84.7036473 31.8336386,84.827976 C32.6782169,85.8009619 33.8577349,86.488016 35.2203855,86.6998798 L55.0365301,96.2029659 C56.6427952,96.9732265 58.570506,96.2981964 59.3425542,94.6951503 L59.8946024,93.5485371 L60.4466506,94.6951503 C61.2184578,96.2981964 63.1461687,96.9732265 64.7524337,96.2029659 L84.5685783,86.6998798 C85.930988,86.488016 87.110747,85.8009619 87.9553253,84.827976 C88.0712289,84.7036473 88.1760482,84.5709018 88.2700241,84.4314228 C89.0620723,83.3348297 89.4625542,81.9518236 89.2958072,80.5031663 C88.9406265,77.4175551 86.1461687,75.2036874 83.0543614,75.5581563 L70.8114699,76.9620842 L70.7688193,57.5586373 L75.9919518,65.9086172 C76.017012,65.9487776 76.0449639,65.9855711 76.0719518,66.0233267 C76.1900241,66.2419238 76.3459277,66.4441683 76.5435181,66.6175551 L89.4035181,77.8867335 C90.2955663,78.6685371 91.6536386,78.580521 92.437012,77.6902605 L94.1941205,75.6930661 C94.977494,74.8028056 94.8893012,73.4472144 93.997253,72.6654108" id="Fill-1" fill="#FFFFFF"></path>
                <g id="Group-5" transform="translate(0.000000, 0.030060)">
                    <mask id="mask-2" fill="white">
                        <use xlink:href="#path-1"></use>
                    </mask>
                    <g id="Clip-4"></g>
                    <path d="M97.1347229,97.1505571 C92.2956867,101.980136 86.6626747,105.770838 80.3920723,108.417812 C73.9038795,111.156409 67.007494,112.545186 59.8944819,112.545186 C52.7814699,112.545186 45.8850843,111.156409 39.3968916,108.417571 C33.1262892,105.770838 27.4932771,101.980136 22.654241,97.1505571 C17.8152048,92.3212184 14.0168916,86.699495 11.3648434,80.4416994 C8.62050602,73.9662685 7.22893976,67.0837034 7.22893976,59.9849459 C7.22893976,52.8861884 8.62026506,46.0036232 11.3646024,39.5284329 C14.0168916,33.2706373 17.8152048,27.6489138 22.654241,22.8195752 C27.4932771,17.989996 33.1262892,14.1992946 39.3968916,11.5525611 C45.8850843,8.81372345 52.7814699,7.42494589 59.8944819,7.42494589 C67.007494,7.42494589 73.9038795,8.81372345 80.3923133,11.5525611 C86.6626747,14.1992946 92.2956867,17.989996 97.1347229,22.8193347 C101.973759,27.6489138 105.772072,33.2706373 108.424361,39.5284329 C111.168458,46.0036232 112.560024,52.8861884 112.560024,59.9849459 C112.560024,67.0837034 111.168458,73.9662685 108.424361,80.4416994 C105.772072,86.699495 101.973759,92.3212184 97.1347229,97.1505571 M59.8944819,0.210517034 C26.8156867,0.210517034 2.40963855e-05,26.9724409 2.40963855e-05,59.9849459 C2.40963855e-05,92.9974509 26.8156867,119.759615 59.8944819,119.759615 C92.9732771,119.759615 119.78894,92.9974509 119.78894,59.9849459 C119.78894,26.9724409 92.9732771,0.210517034 59.8944819,0.210517034" id="Fill-3" fill="#FFFFFF" mask="url(#mask-2)"></path>
                </g>
            </g>
        </g>
    </g>
</svg>