<?xml version="1.0" encoding="UTF-8" standalone="no"?>
<svg width="449px" height="334px" viewBox="0 0 449 334" version="1.1" xmlns="http://www.w3.org/2000/svg" xmlns:xlink="http://www.w3.org/1999/xlink">
    <!-- Generator: Sketch 46 (44423) - http://www.bohemiancoding.com/sketch -->
    <title>Responsabilidad social grafico</title>
    <desc>Created with Sketch.</desc>
    <defs>
        <polygon id="path-1" points="0.133894737 11.55744 0.133894737 0.024 31.8450526 0.024 31.8450526 11.55744 0.133894737 11.55744"></polygon>
    </defs>
    <g id="6-We-care" stroke="none" stroke-width="1" fill="none" fill-rule="evenodd">
        <g transform="translate(-715.000000, -1060.000000)" id="Responsabilidad-social-grafico">
            <g transform="translate(717.000000, 1060.000000)">
                <polygon id="Fill-1" fill="#F2AE75" points="362 123.186972 357.013679 120.883584 357.013679 105 325.008418 105 325.008418 120.883584 320 123.048172 321.333482 168.093243 325.008418 168.093243 325.008418 175 357.013679 175 357.013679 168.093243 360.666518 168.093243"></polygon>
                <polygon id="Fill-2" fill="#E0935A" points="326 105 326 116.471882 358 119 358 105"></polygon>
                <polygon id="Stroke-3" stroke="#895306" stroke-width="3" stroke-linejoin="round" points="362 123.186972 357.013679 120.883584 357.013679 105 325.008418 105 325.008418 120.883584 320 123.048172 321.333482 168.093243 325.008418 168.093243 325.008418 175 357.013679 175 357.013679 168.093243 360.666518 168.093243"></polygon>
                <g id="Group-32" transform="translate(82.000000, 3.000000)">
                    <path d="M334.484277,196.8085 C332.727662,198.231352 322.726123,197.59149 315.329892,197.01393 C315.417892,184.84728 315.502508,176.895304 315.502508,176.895304 C315.513508,176.908775 315.670046,176.80606 315.927277,176.596421 C321.033815,180.502108 324.805969,183.009359 332.425585,191.445442 C335.990431,195.392383 334.572277,196.736936 334.484277,196.8085 M183.360354,196.8085 C183.272354,196.736936 181.8542,195.392383 185.419892,191.445442 C192.877046,183.189531 196.827738,180.461696 201.903815,176.584634 C202.169508,176.801851 202.331123,176.908775 202.342123,176.894462 C202.342123,176.894462 202.427585,184.84728 202.515585,197.01393 C195.119354,197.59149 185.117815,198.231352 183.360354,196.8085 M357.859277,180.961799 C349.016969,163.049015 334.594277,146.817555 321.0922,134.137332 C314.290815,127.16704 300.025508,125.401524 280.277123,118.018689 C280.277123,118.018689 279.620508,120.665699 278.539123,125.020974 C276.161431,130.863088 270.801046,138.957349 259.317892,138.957349 C246.902277,138.957349 241.264354,129.493277 238.965354,123.647796 C238.087892,120.112555 237.567508,118.018689 237.567508,118.018689 C217.819969,125.400682 203.555508,127.16704 196.754123,134.13649 L196.754123,134.135648 C183.252046,146.816713 168.828508,163.049015 159.985354,180.961799 C149.340738,202.522641 159.449738,215.291266 164.288892,219.212108 C171.179123,224.792383 194.221585,223.573277 202.396277,223.573277 C202.494431,223.573277 202.575662,223.445304 202.662815,223.445304 C202.689046,230.261524 202.705969,237.784119 202.708508,244.519514 L315.137815,244.519514 C315.139508,237.784119 315.156431,230.261524 315.181815,223.445304 C315.268969,223.445304 315.351892,223.50929 315.450046,223.50929 C323.623046,223.50929 346.665508,224.76039 353.555738,219.180957 C358.396585,215.259273 368.503892,202.522641 357.859277,180.961799" id="Fill-4" fill="#FFFFFF"></path>
                    <path d="M334.484277,196.8085 C332.727662,198.231352 322.726123,197.59149 315.329892,197.01393 C315.417892,184.84728 315.502508,176.895304 315.502508,176.895304 C315.513508,176.908775 315.670046,176.80606 315.927277,176.596421 C321.033815,180.502108 324.805969,183.009359 332.425585,191.445442 C335.990431,195.392383 334.572277,196.736936 334.484277,196.8085 Z M183.360354,196.8085 C183.272354,196.736936 181.8542,195.392383 185.419892,191.445442 C192.877046,183.189531 196.827738,180.461696 201.903815,176.584634 C202.169508,176.801851 202.331123,176.908775 202.342123,176.894462 C202.342123,176.894462 202.427585,184.84728 202.515585,197.01393 C195.119354,197.59149 185.117815,198.231352 183.360354,196.8085 Z M357.859277,180.961799 C349.016969,163.049015 334.594277,146.817555 321.0922,134.137332 C314.290815,127.16704 300.025508,125.401524 280.277123,118.018689 C280.277123,118.018689 279.620508,120.665699 278.539123,125.020974 C276.161431,130.863088 270.801046,138.957349 259.317892,138.957349 C246.902277,138.957349 241.264354,129.493277 238.965354,123.647796 C238.087892,120.112555 237.567508,118.018689 237.567508,118.018689 C217.819969,125.400682 203.555508,127.16704 196.754123,134.13649 L196.754123,134.135648 C183.252046,146.816713 168.828508,163.049015 159.985354,180.961799 C149.340738,202.522641 159.449738,215.291266 164.288892,219.212108 C171.179123,224.792383 194.221585,223.573277 202.396277,223.573277 C202.494431,223.573277 202.575662,223.445304 202.662815,223.445304 C202.689046,230.261524 202.705969,237.784119 202.708508,244.519514 L315.137815,244.519514 C315.139508,237.784119 315.156431,230.261524 315.181815,223.445304 C315.268969,223.445304 315.351892,223.50929 315.450046,223.50929 C323.623046,223.50929 346.665508,224.76039 353.555738,219.180957 C358.396585,215.259273 368.503892,202.522641 357.859277,180.961799 Z" id="Stroke-6" stroke="#6B6B6B" stroke-width="3" stroke-linejoin="round"></path>
                    <path d="M293.825062,55.4182423 L294.903062,41.4667131 C294.903062,23.2230533 277.378369,8.44054467 259.055754,8.44054467 C240.720446,8.44054467 223.2076,23.2230533 223.2076,41.4667131 L224.284754,55.4047715 C223.259215,55.6506134 222.334369,56.1187234 221.561831,56.7779502 C220.1276,57.993689 219.224754,59.7895137 219.224754,61.8109742 L219.224754,68.6802354 C219.224754,72.3122973 222.164292,75.2590326 225.822215,75.2817646 C225.822215,92.5100636 246.6266,108.840871 259.055754,108.840871 C271.485754,108.840871 292.289292,92.5117474 292.289292,75.2842904 C295.932831,75.2581907 298.880831,72.3156649 298.880831,68.6836031 L298.880831,61.8135 C298.880831,58.7110086 296.723138,56.1271426 293.825062,55.4182423" id="Fill-8" fill="#F2AE75"></path>
                    <path d="M293.825062,55.4182423 L294.903062,41.4667131 C294.903062,23.2230533 277.378369,8.44054467 259.055754,8.44054467 C240.720446,8.44054467 223.2076,23.2230533 223.2076,41.4667131 L224.284754,55.4047715 C223.259215,55.6506134 222.334369,56.1187234 221.561831,56.7779502 C220.1276,57.993689 219.224754,59.7895137 219.224754,61.8109742 L219.224754,68.6802354 C219.224754,72.3122973 222.164292,75.2590326 225.822215,75.2817646 C225.822215,92.5100636 246.6266,108.840871 259.055754,108.840871 C271.485754,108.840871 292.289292,92.5117474 292.289292,75.2842904 C295.932831,75.2581907 298.880831,72.3156649 298.880831,68.6836031 L298.880831,61.8135 C298.880831,58.7110086 296.723138,56.1271426 293.825062,55.4182423 Z" id="Stroke-10" stroke="#895306" stroke-width="3" stroke-linejoin="round"></path>
                    <g id="Group-15" transform="translate(288.538462, 190.274914)">
                        <path d="M32.3593769,32.199988 C31.0402231,32.2092491 30.0206077,32.3860533 28.3723,32.3961564 C26.7553,32.3591117 25.0308385,32.3203832 23.3063769,32.2808127 C16.4694538,32.0273935 8.26853077,31.4043694 8.26853077,31.4043694 C3.00037692,30.9152113 -0.452776923,24.9560704 0.411992308,18.3427543 C1.28860769,11.6772388 5.8663,6.83196392 10.6005308,7.26892268 C10.6005308,7.26892268 12.9723,7.44235911 16.0979923,7.63431787 C15.5496846,6.85048625 15.2467615,5.74251375 15.3533769,4.52424914 C15.5479923,2.29988488 16.9424538,0.589936426 18.4697615,0.705280069 C22.5126846,1.00837285 25.7441462,3.73199828 28.2030692,6.47162027 C28.7090692,7.03570962 29.1769923,7.59979897 29.6068385,8.14368213 C30.5849923,8.13694674 31.4277615,8.3289055 32.2417615,8.32469588" id="Fill-12" fill="#F2AE75"></path>
                        <path d="M32.3593769,32.199988 C31.0402231,32.2092491 30.0206077,32.3860533 28.3723,32.3961564 C26.7553,32.3591117 25.0308385,32.3203832 23.3063769,32.2808127 C16.4694538,32.0273935 8.26853077,31.4043694 8.26853077,31.4043694 C3.00037692,30.9152113 -0.452776923,24.9560704 0.411992308,18.3427543 C1.28860769,11.6772388 5.8663,6.83196392 10.6005308,7.26892268 C10.6005308,7.26892268 12.9723,7.44235911 16.0979923,7.63431787 C15.5496846,6.85048625 15.2467615,5.74251375 15.3533769,4.52424914 C15.5479923,2.29988488 16.9424538,0.589936426 18.4697615,0.705280069 C22.5126846,1.00837285 25.7441462,3.73199828 28.2030692,6.47162027 C28.7090692,7.03570962 29.1769923,7.59979897 29.6068385,8.14368213 C30.5849923,8.13694674 31.4277615,8.3289055 32.2417615,8.32469588" id="Stroke-14" stroke="#895306" stroke-width="2.743" stroke-linejoin="round"></path>
                    </g>
                    <g id="Group-19" transform="translate(320.692308, 197.010309)">
                        <path d="M0.205530769,0.22083677 L0.680223077,26.6530533" id="Fill-16" fill="#FFFFFF"></path>
                        <path d="M0.205530769,0.22083677 L0.680223077,26.6530533" id="Stroke-18" stroke="#6B6B6B" stroke-width="3" stroke-linejoin="round"></path>
                    </g>
                    <path d="M259.053469,0.0481580756 C208.280008,0.0481580756 216.515623,53.492677 220.087238,64.8653918 C220.737085,66.9457869 223.532777,70.2124536 223.544623,70.2124536 C223.586085,70.2890687 223.619085,70.6620412 223.6487,70.6620412 L227.976777,70.6620412 C227.912469,69.8201168 228.1807,69.4985017 228.1807,69.0143952 L228.1807,47.9965945 C228.1807,47.9965945 231.472238,49.1635017 234.966854,48.9277629 C235.851085,48.8671443 236.691315,48.7896873 237.547623,48.6953918 C237.708392,48.6777113 237.847162,48.6524536 238.007085,48.6339313 C264.232777,45.5440687 277.147623,26.97711 277.403162,26.6487595 C277.418392,26.6487595 277.429392,26.6504433 277.444623,26.6504433 L277.443777,26.6487595 C283.590238,26.5923505 288.244931,30.2589313 289.910162,36.0951512 L290.245238,68.8670584 C290.245238,69.1566804 290.219854,69.8201168 290.196162,71.5039656 L294.772162,71.5039656 C295.429623,68.9781924 297.475623,66.4625223 298.020546,64.7188969 C301.592162,53.3453402 309.827777,0.0481580756 259.053469,0.0481580756" id="Fill-20" fill="#3C2417"></path>
                    <path d="M234.906608,48.9274261 C235.790838,48.8676495 236.660685,48.7893505 237.516992,48.6958969 C236.660685,48.7893505 235.790838,48.8676495 234.906608,48.9274261" id="Fill-22" fill="#3C2417"></path>
                    <path d="M237.516992,48.6955601 C237.677762,48.6778797 237.832608,48.652622 237.992531,48.6332577 C237.832608,48.652622 237.677762,48.6778797 237.516992,48.6955601" id="Fill-24" fill="#3C2417"></path>
                    <path d="M236.736923,161.164873 C238.689846,165.682639 241.984769,170.151574 246.597154,172.077897 C247.123462,172.296797 247.720846,172.460131 248.336,172.596522 C249.564615,170.774598 250.973462,169.295337 252.624308,168.083808 C254.045,167.046557 255.531692,166.2341 257.061538,165.595079 C256.622385,165.28946 256.162077,165.011625 255.679769,164.760732 C253.759846,163.76221 251.680846,162.884082 249.657692,161.939443 C251.560692,162.452175 253.743769,162.643292 255.563846,163.304203 C256.699385,163.71843 257.746923,164.290938 258.722538,164.973739 C261.635,163.986162 264.678615,163.511316 267.717154,163.150973 C265.254846,159.080268 260.001077,155.811918 256.041077,154.332656 C251.906769,152.788567 247.223308,152.59745 242.621077,152.122605 C239.802538,151.833825 236.736923,150.785629 234.493769,149.563155 C233.983538,149.28532 233.440308,149.748378 233.616308,150.310784 C234.718,153.819082 235.277308,157.792124 236.736923,161.164873" id="Fill-26" fill="#007B41"></path>
                    <path d="M286.200623,162.313426 C281.012854,165.118718 275.0627,165.462223 269.2327,166.128186 C266.386238,166.454852 263.5677,166.858976 260.885392,167.666381 C260.304931,167.841502 259.722777,168.03767 259.152469,168.25657 C257.457623,168.899801 255.8237,169.745935 254.282008,170.874955 C252.834238,171.934096 251.649623,173.188564 250.652008,174.570162 C249.061238,176.77432 247.953623,179.31188 247.043162,181.947103 C245.381315,186.732601 244.618931,191.818667 244.767008,196.87779 C244.827085,198.928718 244.860931,201.062155 245.370315,203.065093 C245.486238,203.507945 245.595392,204.069509 245.940623,204.396175 C246.390777,204.828082 247.196315,204.386072 247.015238,203.758838 C245.710469,199.332842 246.521931,194.159216 248.325931,189.931072 C250.399008,185.068117 254.403008,182.176948 259.294623,180.413959 C260.594315,179.944165 261.921931,179.535832 263.2707,179.147704 C263.299469,179.136759 263.326546,179.136759 263.353623,179.136759 C263.621854,179.136759 263.736931,179.529938 263.4577,179.655385 C261.866931,180.370179 260.288008,181.090866 258.785238,181.870488 C251.424546,185.691141 248.2117,194.58523 250.970162,194.58523 C251.195238,194.58523 251.457546,194.525454 251.759623,194.400007 C256.014931,192.647962 261.072392,192.631966 265.749931,191.769835 C267.394854,191.469268 268.996623,191.060935 270.499392,190.437911 C276.466469,187.960969 280.732777,183.114852 283.272085,177.287052 C285.164085,172.938512 285.899392,167.803615 287.330238,163.285007 C287.517238,162.706605 287.105162,162.209869 286.6017,162.209869 C286.474777,162.204818 286.3377,162.237653 286.200623,162.313426" id="Fill-28" fill="#007B41"></path>
                    <polygon id="Fill-30" fill="#F2AE75" points="42.0405615 119.037838 37.0753308 116.760433 37.0753308 101.056017 5.21086923 101.056017 5.21086923 116.760433 0.225330769 118.900605 1.55294615 163.437564 5.21086923 163.437564 5.21086923 170.266412 37.0753308 170.266412 37.0753308 163.437564 40.7129462 163.437564"></polygon>
                </g>
                <g id="Group-35" transform="translate(88.000000, 105.000000)">
                    <mask id="mask-2" fill="white">
                        <use xlink:href="#path-1"></use>
                    </mask>
                    <g id="Clip-34"></g>
                    <polygon id="Fill-33" fill="#E0935A" mask="url(#mask-2)" points="0.133473684 -2.37616 0.133473684 9.33024 31.8454737 11.55744 31.8454737 -2.37616"></polygon>
                </g>
                <g id="Group-68" transform="translate(0.000000, 3.000000)">
                    <polygon id="Stroke-36" stroke="#895306" stroke-width="3" stroke-linejoin="round" points="124.270935 119.114379 119.333228 116.83551 119.333228 101.120996 87.6453988 101.120996 87.6453988 116.83551 82.6874963 118.977058 84.0077524 163.542653 87.6453988 163.542653 87.6453988 170.375893 119.333228 170.375893 119.333228 163.542653 122.950679 163.542653"></polygon>
                    <path d="M178.622572,196.935047 C176.875694,198.358814 166.929596,197.71854 159.574365,197.140609 C159.661877,184.966136 159.746023,177.009047 159.746023,177.009047 C159.756962,177.022527 159.912633,176.919746 160.168438,176.709972 C165.24667,180.618171 168.997072,183.127034 176.575291,191.56854 C180.120377,195.51802 178.710084,196.863438 178.622572,196.935047 M28.3363646,196.935047 C28.2488524,196.863438 26.8385598,195.51802 30.3844866,191.56854 C37.7994622,183.307321 41.7290963,180.577732 46.7770354,176.698177 C47.0412549,176.915534 47.2019744,177.022527 47.2129134,177.008205 C47.2129134,177.008205 47.2979012,184.966136 47.3854134,197.140609 C40.0293402,197.71854 30.0832427,198.358814 28.3363646,196.935047 M201.867999,181.078157 C193.073865,163.153855 178.731962,146.911958 165.303889,134.223582 C158.541048,127.248808 144.354816,125.482157 124.715901,118.094575 C124.715901,118.094575 124.062926,120.743287 122.986694,125.101362 C120.623023,130.947232 115.291511,139.046698 103.872852,139.046698 C91.5260598,139.046698 85.919389,129.57654 83.6331329,123.727301 C82.7605354,120.189787 82.2430354,118.094575 82.2430354,118.094575 C62.6049622,125.481314 48.419572,127.248808 41.655889,134.222739 L41.655889,134.221897 C28.2278159,146.911116 13.885072,163.153855 5.0909378,181.078157 C-5.49467195,202.652862 4.55745,215.429698 9.37062073,219.353061 C16.2226573,224.936924 39.137389,223.717034 47.2659256,223.717034 C47.3635354,223.717034 47.4451573,224.010212 47.531828,224.010212 C47.5579134,230.830814 47.5747427,238.779479 47.5764256,245.519205 L159.382511,245.519205 C159.385035,238.779479 159.401865,230.830814 159.427109,224.010212 C159.513779,224.010212 159.595401,223.863623 159.693011,223.863623 C167.821548,223.863623 190.736279,225.010218 197.588316,219.427198 C202.401487,215.502992 212.453609,202.652862 201.867999,181.078157" id="Fill-38" fill="#FFFFFF"></path>
                    <path d="M178.622572,196.935047 C176.875694,198.358814 166.929596,197.71854 159.574365,197.140609 C159.661877,184.966136 159.746023,177.009047 159.746023,177.009047 C159.756962,177.022527 159.912633,176.919746 160.168438,176.709972 C165.24667,180.618171 168.997072,183.127034 176.575291,191.56854 C180.120377,195.51802 178.710084,196.863438 178.622572,196.935047 Z M28.3363646,196.935047 C28.2488524,196.863438 26.8385598,195.51802 30.3844866,191.56854 C37.7994622,183.307321 41.7290963,180.577732 46.7770354,176.698177 C47.0412549,176.915534 47.2019744,177.022527 47.2129134,177.008205 C47.2129134,177.008205 47.2979012,184.966136 47.3854134,197.140609 C40.0293402,197.71854 30.0832427,198.358814 28.3363646,196.935047 Z M201.867999,181.078157 C193.073865,163.153855 178.731962,146.911958 165.303889,134.223582 C158.541048,127.248808 144.354816,125.482157 124.715901,118.094575 C124.715901,118.094575 124.062926,120.743287 122.986694,125.101362 C120.623023,130.947232 115.291511,139.046698 103.872852,139.046698 C91.5260598,139.046698 85.919389,129.57654 83.6331329,123.727301 C82.7605354,120.189787 82.2430354,118.094575 82.2430354,118.094575 C62.6049622,125.481314 48.419572,127.248808 41.655889,134.222739 L41.655889,134.221897 C28.2278159,146.911116 13.885072,163.153855 5.0909378,181.078157 C-5.49467195,202.652862 4.55745,215.429698 9.37062073,219.353061 C16.2226573,224.936924 39.137389,223.717034 47.2659256,223.717034 C47.3635354,223.717034 47.4451573,224.010212 47.531828,224.010212 C47.5579134,230.830814 47.5747427,238.779479 47.5764256,245.519205 L159.382511,245.519205 C159.385035,238.779479 159.401865,230.830814 159.427109,224.010212 C159.513779,224.010212 159.595401,223.863623 159.693011,223.863623 C167.821548,223.863623 190.736279,225.010218 197.588316,219.427198 C202.401487,215.502992 212.453609,202.652862 201.867999,181.078157 Z" id="Stroke-40" stroke="#6B6B6B" stroke-width="3" stroke-linejoin="round"></path>
                    <path d="M166.404523,198.831438 C166.404523,198.831438 165.014426,198.837335 162.930121,198.846602 C162.143352,198.821328 161.258133,198.794369 160.31317,198.765725 C159.917682,198.221492 159.48517,197.656198 159.016474,197.090903 C156.739474,194.337725 153.716096,191.573595 149.820962,191.132986 C148.349243,190.96702 146.939791,192.579499 146.671365,194.734527 C146.52495,195.914821 146.776548,197.003287 147.278901,197.785938 C144.264779,197.48602 141.981048,197.231595 141.981048,197.231595 C137.421999,196.637657 132.823401,201.183602 131.73623,207.631835 C130.661682,214.030362 133.78267,219.947842 138.855852,220.61339 C138.855852,220.61339 146.757194,221.513986 153.354267,222.005986 C155.019523,222.106239 156.683938,222.206492 158.245694,222.300849 C159.838584,222.349712 161.32545,222.395205 162.600267,222.433958 C165.21217,222.423006 166.953999,222.415424 166.953999,222.415424 L166.404523,198.831438 Z" id="Fill-42" fill="#F2AE75"></path>
                    <path d="M166.404523,198.831438 C166.404523,198.831438 165.014426,198.837335 162.930121,198.846602 C162.143352,198.821328 161.258133,198.794369 160.31317,198.765725 C159.917682,198.221492 159.48517,197.656198 159.016474,197.090903 C156.739474,194.337725 153.716096,191.573595 149.820962,191.132986 C148.349243,190.96702 146.939791,192.579499 146.671365,194.734527 C146.52495,195.914821 146.776548,197.003287 147.278901,197.785938 C144.264779,197.48602 141.981048,197.231595 141.981048,197.231595 C137.421999,196.637657 132.823401,201.183602 131.73623,207.631835 C130.661682,214.030362 133.78267,219.947842 138.855852,220.61339 C138.855852,220.61339 146.757194,221.513986 153.354267,222.005986 C155.019523,222.106239 156.683938,222.206492 158.245694,222.300849 C159.838584,222.349712 161.32545,222.395205 162.600267,222.433958 C165.21217,222.423006 166.953999,222.415424 166.953999,222.415424 L166.404523,198.831438 Z" id="Stroke-44" stroke="#895306" stroke-width="3" stroke-linejoin="round"></path>
                    <g id="Group-49" transform="translate(43.756098, 190.397260)">
                        <path d="M0.749239024,32.2206925 C2.06023902,32.2299596 3.0750439,32.4068774 4.71337317,32.416987 C6.32225122,32.3799185 8.03715366,32.3411651 9.75289756,32.3015692 C16.5510805,32.047987 24.7065439,31.4245623 24.7065439,31.4245623 C29.9454951,30.9350897 33.3795073,24.9721171 32.5195317,18.3545486 C31.6477756,11.6847473 27.0954585,6.83635685 22.3866293,7.27359658 C22.3866293,7.27359658 20.0296902,7.44714452 16.9196415,7.63922671 C17.4665927,6.8548911 17.7669951,5.74620616 17.6609707,4.52715822 C17.4674341,2.3013637 16.079861,0.590315753 14.561861,0.705733562 C10.5413488,1.00902123 7.3278,3.73439795 4.88250732,6.47578151 C4.3793122,7.04023356 3.91398293,7.60468562 3.48651951,8.14891849 C2.5137878,8.14217877 1.67569024,8.33426096 0.866202439,8.33004863" id="Fill-46" fill="#F2AE75"></path>
                        <path d="M0.749239024,32.2206925 C2.06023902,32.2299596 3.0750439,32.4068774 4.71337317,32.416987 C6.32225122,32.3799185 8.03715366,32.3411651 9.75289756,32.3015692 C16.5510805,32.047987 24.7065439,31.4245623 24.7065439,31.4245623 C29.9454951,30.9350897 33.3795073,24.9721171 32.5195317,18.3545486 C31.6477756,11.6847473 27.0954585,6.83635685 22.3866293,7.27359658 C22.3866293,7.27359658 20.0296902,7.44714452 16.9196415,7.63922671 C17.4665927,6.8548911 17.7669951,5.74620616 17.6609707,4.52715822 C17.4674341,2.3013637 16.079861,0.590315753 14.561861,0.705733562 C10.5413488,1.00902123 7.3278,3.73439795 4.88250732,6.47578151 C4.3793122,7.04023356 3.91398293,7.60468562 3.48651951,8.14891849 C2.5137878,8.14217877 1.67569024,8.33426096 0.866202439,8.33004863" id="Stroke-48" stroke="#895306" stroke-width="2.743" stroke-linejoin="round"></path>
                    </g>
                    <path d="M138.188404,55.453876 L139.260428,41.493376 C139.260428,23.2379856 121.832879,8.44597192 103.61183,8.44597192 C85.3781598,8.44597192 67.9623915,23.2379856 67.9623915,41.493376 L69.0344159,55.4403966 C68.0145622,55.6863966 67.0940012,56.1548075 66.3257451,56.8144582 C64.8994646,58.0309788 64.0016232,59.8279582 64.0016232,61.8507185 L64.0016232,68.7243966 C64.0016232,72.3587938 66.9248671,75.307424 70.5625134,75.3301705 C70.5625134,92.5695473 91.2515744,108.910855 103.61183,108.910855 C115.972928,108.910855 136.661148,92.5712322 136.661148,75.3326979 C140.28533,75.3065815 143.216148,72.3621637 143.216148,68.7277664 L143.216148,61.8532459 C143.216148,58.7487596 141.070416,56.1632322 138.188404,55.453876" id="Fill-50" fill="#F2AE75"></path>
                    <path d="M138.188404,55.453876 L139.260428,41.493376 C139.260428,23.2379856 121.832879,8.44597192 103.61183,8.44597192 C85.3781598,8.44597192 67.9623915,23.2379856 67.9623915,41.493376 L69.0344159,55.4403966 C68.0145622,55.6863966 67.0940012,56.1548075 66.3257451,56.8144582 C64.8994646,58.0309788 64.0016232,59.8279582 64.0016232,61.8507185 L64.0016232,68.7243966 C64.0016232,72.3587938 66.9248671,75.307424 70.5625134,75.3301705 C70.5625134,92.5695473 91.2515744,108.910855 103.61183,108.910855 C115.972928,108.910855 136.661148,92.5712322 136.661148,75.3326979 C140.28533,75.3065815 143.216148,72.3621637 143.216148,68.7277664 L143.216148,61.8532459 C143.216148,58.7487596 141.070416,56.1632322 138.188404,55.453876 Z" id="Stroke-52" stroke="#895306" stroke-width="3" stroke-linejoin="round"></path>
                    <path d="M103.609895,0.0481890411 C53.1178829,0.0481890411 61.3078463,53.5270726 64.8596634,64.9071 C65.5050659,66.9888329 68.285261,70.2576 68.2978829,70.2576 C68.3391146,70.3342644 68.3719317,70.7074767 68.4013829,70.7074767 L72.7054683,70.7074767 C72.6415171,69.865011 72.9276146,69.543189 72.9276146,69.0587712 L72.9276146,48.0274562 C72.9276146,48.0274562 76.1916512,49.1951137 79.6660537,48.9592233 C80.5453829,48.8985658 81.3767488,48.8210589 82.2274683,48.7267027 C82.3881878,48.709011 82.5236634,48.683737 82.6827,48.6652027 C108.763017,45.5733534 121.60459,26.9944562 121.858712,26.6658945 C121.873859,26.6658945 121.883956,26.6675795 121.899102,26.6675795 L121.898261,26.6658945 C128.011493,26.6094493 132.639541,30.2783877 134.2947,36.1183603 L134.629602,68.9113397 C134.629602,69.2011479 134.603517,69.865011 134.579956,71.5499425 L139.129749,71.5499425 C139.783566,69.0225452 141.819066,66.5052575 142.360127,64.760511 C145.912785,53.3796411 154.101907,0.0481890411 103.609895,0.0481890411" id="Fill-54" fill="#3C2417"></path>
                    <path d="M79.5969695,48.9588863 C80.4762988,48.8990712 81.3413232,48.8207219 82.1928841,48.7272082 C81.3413232,48.8207219 80.4762988,48.8990712 79.5969695,48.9588863" id="Fill-56" fill="#3C2417"></path>
                    <path d="M82.1928841,48.7268712 C82.3527622,48.7091795 82.50675,48.6839055 82.6657866,48.6645288 C82.50675,48.6839055 82.3527622,48.7091795 82.1928841,48.7268712" id="Fill-58" fill="#3C2417"></path>
                    <path d="M81.4167183,162.110967 C83.3579744,166.631638 86.6363159,171.103447 91.2222915,173.031008 C91.7465232,173.250049 92.3405963,173.413488 92.9514988,173.549967 C94.1733037,171.726871 95.5751817,170.246659 97.2160354,169.034351 C98.6288524,167.996433 100.107304,167.183453 101.62867,166.544022 C101.19195,166.238207 100.734194,165.960193 100.25456,165.709138 C98.3452793,164.709974 96.2786451,163.831282 94.2658646,162.886036 C96.1583159,163.399097 98.3292915,163.590337 100.139279,164.251673 C101.268523,164.666166 102.310255,165.239042 103.281304,165.922282 C106.176779,164.93407 109.203523,164.458919 112.225218,164.098344 C109.77656,160.025022 104.551913,156.75457 100.613865,155.274358 C96.5024744,153.729275 91.8449744,153.538036 87.2690963,153.062885 C84.4653402,152.773919 81.4167183,151.725049 79.1859988,150.501789 C78.6785963,150.223775 78.1383768,150.687132 78.3134012,151.249899 C79.409828,154.760453 79.9660354,158.736049 81.4167183,162.110967" id="Fill-60" fill="#007B41"></path>
                    <path d="M130.606566,162.417793 C125.447554,165.224889 119.529541,165.568615 113.731859,166.235005 C110.902017,166.561882 108.098261,166.966266 105.431663,167.77419 C104.853578,167.949423 104.275493,168.145718 103.708346,168.364759 C102.022895,169.008403 100.398029,169.855081 98.8648829,170.984827 C97.425139,172.044649 96.2470902,173.299923 95.2550049,174.68241 C93.6730537,176.887985 92.571578,179.427177 91.6661634,182.064095 C90.0135293,186.85267 89.2553707,191.942005 89.4026268,197.004382 C89.4623707,199.056629 89.4951878,201.191437 90.0025902,203.195663 C90.1170293,203.6388 90.2264195,204.200725 90.5697366,204.527601 C91.0173951,204.959786 91.8184683,204.517492 91.6383951,203.889855 C90.3408585,199.461012 91.147822,194.28406 92.941822,190.053197 C95.0034073,185.187115 98.9852122,182.294088 103.849712,180.529964 C105.1422,180.059868 106.462456,179.651273 107.803749,179.262896 C107.831517,179.251944 107.858444,179.251944 107.886212,179.251944 C108.152956,179.251944 108.267395,179.645375 107.989712,179.770903 C106.407761,180.486156 104.836749,181.207307 103.343151,181.98743 C96.023261,185.81054 92.8282244,194.710348 95.5713951,194.710348 C95.7943829,194.710348 96.056078,194.650533 96.3564805,194.525005 C100.5882,192.771834 105.616785,192.755827 110.269237,191.893142 C111.905041,191.592382 113.497932,191.183786 114.992371,190.560362 C120.926371,188.081827 125.169029,183.232595 127.694261,177.401047 C129.575773,173.049711 130.307005,167.911512 131.72992,163.389999 C131.915041,162.811225 131.50609,162.31417 131.004578,162.31417 C130.8792,162.309115 130.742883,162.341971 130.606566,162.417793" id="Fill-62" fill="#007B41"></path>
                    <g id="Group-67" transform="translate(43.756098, 197.136986)">
                        <path d="M0.749239024,0.220978767 L0.278019512,26.6701911" id="Fill-64" fill="#FFFFFF"></path>
                        <path d="M0.749239024,0.220978767 L0.278019512,26.6701911" id="Stroke-66" stroke="#6B6B6B" stroke-width="3" stroke-linejoin="round"></path>
                    </g>
                </g>
                <polygon id="Fill-69" fill="#F2AE75" points="251 161.903576 244.351297 158.875489 244.351297 138 201.676646 138 201.676646 158.875489 195 161.721272 196.777334 220.923264 201.676646 220.923264 201.676646 230 244.351297 230 244.351297 220.923264 249.221819 220.923264"></polygon>
                <polygon id="Fill-70" fill="#E0935A" points="202 141 202 149.141281 245 158 245 141"></polygon>
                <polygon id="Stroke-71" stroke="#895306" stroke-width="3" stroke-linejoin="round" points="251 161.903576 244.351297 158.875489 244.351297 138 201.676646 138 201.676646 158.875489 195 161.721272 196.777334 220.923264 201.676646 220.923264 201.676646 230 244.351297 230 244.351297 220.923264 249.221819 220.923264"></polygon>
                <g id="Group-111" transform="translate(86.000000, 0.000000)">
                    <path d="M267.502569,246.421523 C255.880646,222.857949 239.415338,202.702853 221.712108,185.898934 C221.497185,185.684061 221.272954,185.476772 221.052108,185.267797 C220.949723,185.171736 220.849031,185.072305 220.748338,184.977086 L220.746646,184.980457 C210.049569,175.119888 191.132108,170.70867 166.263646,162.187898 C165.144185,161.798599 164.006954,161.409299 162.869723,161.002305 C162.851954,161.055391 162.851954,161.126173 162.834185,161.179259 C160.7628,172.841391 154.883723,187.938122 136.656723,189.70935 C118.430569,187.938122 112.551492,172.841391 110.480108,161.179259 C110.462338,161.126173 110.462338,161.055391 110.444569,161.002305 C109.307338,161.409299 108.170108,161.798599 107.051492,162.187898 C79.8569538,171.505807 59.7794154,175.908599 49.7863385,187.897675 C33.3396462,204.206122 18.0149538,224.356162 7.13172308,246.421523 C-7.11412308,275.30131 4.19218462,292.403523 10.6703385,297.656538 C19.8908769,305.129909 59.8801077,304.396812 63.1801077,304.133066 L61.4878,267.899563 C51.4972615,268.699228 38.7161077,269.693543 36.1928769,267.646772 C36.0752615,267.552396 34.1773385,265.750832 38.9488,260.464112 C50.3837231,247.79334 55.6603385,244.843259 64.0981846,238.159442 C64.1489538,238.199888 64.1760308,238.22264 64.1760308,238.22264 C64.1760308,238.22264 66.0511077,330.988832 70.2971077,330.988832 L203.428415,331.57868 C207.675262,331.57868 209.138262,238.22264 209.138262,238.22264 C209.138262,238.22264 209.396338,238.016193 209.849877,237.627736 C218.8428,244.87865 223.718338,247.203492 235.685492,260.464112 C240.4578,265.750832 238.559877,267.552396 238.441415,267.646772 C235.918185,269.693543 224.072031,269.399462 214.0798,268.598954 L211.519338,303.886173 C214.819338,304.149919 254.743415,305.129909 263.9648,297.656538 C270.442108,292.403523 281.749262,275.30131 267.502569,246.421523" id="Fill-72" fill="#FFFFFF"></path>
                    <path d="M267.502569,246.421523 C255.880646,222.857949 239.415338,202.702853 221.712108,185.898934 C221.497185,185.684061 221.272954,185.476772 221.052108,185.267797 C220.949723,185.171736 220.849031,185.072305 220.748338,184.977086 L220.746646,184.980457 C210.049569,175.119888 191.132108,170.70867 166.263646,162.187898 C165.144185,161.798599 164.006954,161.409299 162.869723,161.002305 C162.851954,161.055391 162.851954,161.126173 162.834185,161.179259 C160.7628,172.841391 154.883723,187.938122 136.656723,189.70935 C118.430569,187.938122 112.551492,172.841391 110.480108,161.179259 C110.462338,161.126173 110.462338,161.055391 110.444569,161.002305 C109.307338,161.409299 108.170108,161.798599 107.051492,162.187898 C79.8569538,171.505807 59.7794154,175.908599 49.7863385,187.897675 C33.3396462,204.206122 18.0149538,224.356162 7.13172308,246.421523 C-7.11412308,275.30131 4.19218462,292.403523 10.6703385,297.656538 C19.8908769,305.129909 59.8801077,304.396812 63.1801077,304.133066 L61.4878,267.899563 C51.4972615,268.699228 38.7161077,269.693543 36.1928769,267.646772 C36.0752615,267.552396 34.1773385,265.750832 38.9488,260.464112 C50.3837231,247.79334 55.6603385,244.843259 64.0981846,238.159442 C64.1489538,238.199888 64.1760308,238.22264 64.1760308,238.22264 C64.1760308,238.22264 66.0511077,330.988832 70.2971077,330.988832 L203.428415,331.57868 C207.675262,331.57868 209.138262,238.22264 209.138262,238.22264 C209.138262,238.22264 209.396338,238.016193 209.849877,237.627736 C218.8428,244.87865 223.718338,247.203492 235.685492,260.464112 C240.4578,265.750832 238.559877,267.552396 238.441415,267.646772 C235.918185,269.693543 224.072031,269.399462 214.0798,268.598954 L211.519338,303.886173 C214.819338,304.149919 254.743415,305.129909 263.9648,297.656538 C270.442108,292.403523 281.749262,275.30131 267.502569,246.421523 Z" id="Stroke-74" stroke="#6B6B6B" stroke-width="3" stroke-linejoin="round"></path>
                    <g id="Group-79" transform="translate(60.923077, 262.060914)">
                        <path d="M1.68841538,38.1323909 C3.2538,38.1433452 4.46464615,38.3531624 6.4218,38.365802 C8.34172308,38.3219848 10.3894154,38.274797 12.4379538,38.2276091 C20.5542615,37.9276294 30.2918,37.1869492 30.2918,37.1869492 C36.5465692,36.6055279 40.6470308,29.5231421 39.6198,21.6655279 C38.5790308,13.7455584 33.1433385,7.98780203 27.5223385,8.50602538 C27.5223385,8.50602538 24.7071846,8.71247208 20.9951077,8.94082741 C21.6466462,8.00886802 22.0062615,6.69182234 21.8793385,5.24501015 C21.6491846,2.60249239 19.9924154,0.570045685 18.1791077,0.706553299 C13.3788769,1.06720305 9.54326154,4.30293909 6.62403077,7.55974112 C6.02241538,8.22963959 5.46649231,8.89953807 4.95626154,9.545 C3.79533846,9.53741624 1.10795385,9.63684772 0.141646154,9.63094924" id="Fill-76" fill="#F2AE75"></path>
                        <path d="M1.68841538,38.1323909 C3.2538,38.1433452 4.46464615,38.3531624 6.4218,38.365802 C8.34172308,38.3219848 10.3894154,38.274797 12.4379538,38.2276091 C20.5542615,37.9276294 30.2918,37.1869492 30.2918,37.1869492 C36.5465692,36.6055279 40.6470308,29.5231421 39.6198,21.6655279 C38.5790308,13.7455584 33.1433385,7.98780203 27.5223385,8.50602538 C27.5223385,8.50602538 24.7071846,8.71247208 20.9951077,8.94082741 C21.6466462,8.00886802 22.0062615,6.69182234 21.8793385,5.24501015 C21.6491846,2.60249239 19.9924154,0.570045685 18.1791077,0.706553299 C13.3788769,1.06720305 9.54326154,4.30293909 6.62403077,7.55974112 C6.02241538,8.22963959 5.46649231,8.89953807 4.95626154,9.545 C3.79533846,9.53741624 1.10795385,9.63684772 0.141646154,9.63094924" id="Stroke-78" stroke="#895306" stroke-width="3" stroke-linejoin="round"></path>
                    </g>
                    <g id="Group-83" transform="translate(60.923077, 268.802030)">
                        <path d="M0.1419,0.361745178 L1.83420769,34.0673289" id="Fill-80" fill="#FFFFFF"></path>
                        <path d="M0.1419,0.361745178 L1.83420769,34.0673289" id="Stroke-82" stroke="#6B6B6B" stroke-width="3" stroke-linejoin="round"></path>
                    </g>
                    <g id="Group-87" transform="translate(174.307692, 262.060914)">
                        <path d="M38.2304154,38.1323909 C36.6650308,38.1433452 35.4541846,38.3531624 33.4970308,38.365802 C31.5771077,38.3219848 29.5294154,38.274797 27.4817231,38.2276091 C19.3645692,37.9276294 9.62703077,37.1869492 9.62703077,37.1869492 C3.37226154,36.6055279 -0.7282,29.5231421 0.299876923,21.6655279 C1.3398,13.7455584 6.77464615,7.98780203 12.3973385,8.50602538 C12.3973385,8.50602538 15.2116462,8.71247208 18.9245692,8.94082741 C18.2713385,8.00886802 17.9125692,6.69182234 18.0394923,5.24501015 C18.2696462,2.60249239 19.9264154,0.570045685 21.7397231,0.706553299 C26.5399538,1.06720305 30.3764154,4.30293909 33.2956462,7.55974112 C33.8964154,8.22963959 34.4523385,8.89953807 34.9625692,9.545 C36.1243385,9.53741624 38.8108769,9.63684772 39.7771846,9.63094924" id="Fill-84" fill="#F2AE75"></path>
                        <path d="M38.2304154,38.1323909 C36.6650308,38.1433452 35.4541846,38.3531624 33.4970308,38.365802 C31.5771077,38.3219848 29.5294154,38.274797 27.4817231,38.2276091 C19.3645692,37.9276294 9.62703077,37.1869492 9.62703077,37.1869492 C3.37226154,36.6055279 -0.7282,29.5231421 0.299876923,21.6655279 C1.3398,13.7455584 6.77464615,7.98780203 12.3973385,8.50602538 C12.3973385,8.50602538 15.2116462,8.71247208 18.9245692,8.94082741 C18.2713385,8.00886802 17.9125692,6.69182234 18.0394923,5.24501015 C18.2696462,2.60249239 19.9264154,0.570045685 21.7397231,0.706553299 C26.5399538,1.06720305 30.3764154,4.30293909 33.2956462,7.55974112 C33.8964154,8.22963959 34.4523385,8.89953807 34.9625692,9.545 C36.1243385,9.53741624 38.8108769,9.63684772 39.7771846,9.63094924" id="Stroke-86" stroke="#895306" stroke-width="3" stroke-linejoin="round"></path>
                    </g>
                    <g id="Group-91" transform="translate(211.538462, 268.802030)">
                        <path d="M2.68036154,0.361745178 L0.0124384615,34.9091259" id="Fill-88" fill="#FFFFFF"></path>
                        <path d="M2.68036154,0.361745178 L0.0124384615,34.9091259" id="Stroke-90" stroke="#6B6B6B" stroke-width="3" stroke-linejoin="round"></path>
                    </g>
                    <path d="M183.188754,78.255265 L184.632292,59.5688893 C184.632292,35.1323411 161.177754,15.3319959 136.657062,15.3319959 C112.1186,15.3319959 88.6826769,35.1323411 88.6826769,59.5688893 L90.1245231,78.2375695 C88.7520615,78.5670416 87.5141385,79.1931228 86.4792923,80.0762091 C84.5602154,81.7041888 83.3519077,84.1107675 83.3519077,86.8181685 L83.3519077,96.0197929 C83.3519077,100.884351 87.2856769,104.831275 92.1806769,104.860768 C92.1806769,127.936453 120.023369,149.810534 136.657062,149.810534 C153.2916,149.810534 181.1326,127.938981 181.1326,104.864138 C186.010677,104.82959 189.955446,100.887722 189.955446,96.0223208 L189.955446,86.8215391 C189.955446,82.6656406 187.067523,79.2049198 183.188754,78.255265" id="Fill-92" fill="#F2AE75"></path>
                    <path d="M183.188754,78.255265 L184.632292,59.5688893 C184.632292,35.1323411 161.177754,15.3319959 136.657062,15.3319959 C112.1186,15.3319959 88.6826769,35.1323411 88.6826769,59.5688893 L90.1245231,78.2375695 C88.7520615,78.5670416 87.5141385,79.1931228 86.4792923,80.0762091 C84.5602154,81.7041888 83.3519077,84.1107675 83.3519077,86.8181685 L83.3519077,96.0197929 C83.3519077,100.884351 87.2856769,104.831275 92.1806769,104.860768 C92.1806769,127.936453 120.023369,149.810534 136.657062,149.810534 C153.2916,149.810534 181.1326,127.938981 181.1326,104.864138 C186.010677,104.82959 189.955446,100.887722 189.955446,96.0223208 L189.955446,86.8215391 C189.955446,82.6656406 187.067523,79.2049198 183.188754,78.255265 Z" id="Stroke-94" stroke="#895306" stroke-width="3" stroke-linejoin="round"></path>
                    <g id="Group-98" transform="translate(83.769231, 0.000000)" fill="#4F3C30">
                        <path d="M100.183092,30.7473289 C100.680631,24.8378975 98.7767846,16.4258264 94.1051692,4.41568426 C93.0034769,1.58188731 89.2812462,1.08894315 87.3782462,3.4651868 C81.9670923,10.2223137 74.8111692,8.86987716 63.0386308,4.09548122 C43.3570923,-3.88684365 28.9132462,0.986141117 20.5870923,9.66364365 C-15.1036769,27.8039888 6.7034,91.3971563 6.7034,91.3971563 C6.7034,91.3971563 7.4514,58.2822629 19.7138615,43.0793594 C26.4306308,44.6138061 45.3294769,47.1914406 52.8873231,47.1914406 C60.4468615,47.1914406 80.2417846,44.719136 87.1125538,43.0793594 C96.1900923,52.7334812 99.0847846,91.3971563 99.0847846,91.3971563 C99.0847846,91.3971563 113.135169,56.1444863 100.183092,30.7473289" id="Fill-96"></path>
                    </g>
                    <path d="M167.406038,232.032441 C167.242731,231.755212 166.891577,231.664207 166.613192,231.820938 L166.224808,232.050136 L152.116885,240.806847 C151.843577,240.976217 151.758962,241.338552 151.934962,241.603141 C153.546885,244.10241 160.800962,255.399679 162.643038,258.911801 C162.769962,259.153639 163.043269,259.274136 163.309808,259.201669 C167.466962,258.09107 172.763038,257.113608 175.199962,253.311618 C176.429423,251.397984 177.163038,248.471496 175.926808,246.383436 L167.406038,232.032441 Z" id="Fill-99" fill="#007B41"></path>
                    <path d="M171.697138,260.867399 C164.333908,263.776191 152.498754,262.798729 149.928985,262.538353 C149.644677,262.508861 149.420446,262.279663 149.407754,261.989795 L149.171677,256.437643 C149.147985,255.858749 148.377138,255.671683 148.086908,256.172211 L139.415523,270.969805 C139.306369,271.156871 139.312292,271.386069 139.426523,271.567237 L148.807831,286.401064 C149.129369,286.90749 149.917138,286.660597 149.886677,286.069064 L149.644677,281.253379 C149.626062,280.933176 149.874831,280.661846 150.202292,280.650049 C151.935215,280.58348 157.091677,280.371978 159.855215,280.125084 C163.212754,279.823419 164.424446,276.829521 164.424446,276.829521 L172.423985,261.669592 C172.671908,261.199399 172.199754,260.668536 171.697138,260.867399" id="Fill-101" fill="#007B41"></path>
                    <path d="M156.989462,234.204934 L165.940077,219.105675 C166.243,218.59335 165.660846,218.013614 165.146385,218.315279 L160.946923,220.740396 C160.667692,220.904711 160.310615,220.813706 160.152385,220.529736 C159.291846,219.039107 156.728,214.591655 155.232,212.262599 C153.419538,209.44397 150.183846,209.757431 150.183846,209.757431 L132.948538,209.684964 C132.402769,209.684964 132.154846,210.348964 132.561,210.69866 C138.554308,215.847188 143.129462,226.728193 144.081385,229.105279 C144.190538,229.377452 144.081385,229.679117 143.826692,229.824051 L138.972308,232.587909 C138.468846,232.871036 138.650769,233.637838 139.233769,233.668173 L156.461462,234.488904 C156.673846,234.501543 156.880308,234.392843 156.989462,234.204934" id="Fill-103" fill="#007B41"></path>
                    <path d="M124.228246,211.08501 C121.949554,210.880249 118.993092,211.586381 117.689169,213.631467 C117.689169,213.638208 110.350477,225.225345 108.7504,227.760005 C108.5744,228.025437 108.659862,228.38103 108.9264,228.550401 L109.308015,228.792239 L123.641015,237.186614 C123.9194,237.355142 124.277323,237.259081 124.440631,236.98101 C125.931554,234.416015 132.718554,222.811183 135.015015,219.570391 C135.173246,219.347091 135.154631,219.051325 134.965938,218.852462 C132.057708,215.701832 128.743323,211.483579 124.228246,211.08501" id="Fill-105" fill="#007B41"></path>
                    <path d="M133.160754,263.335996 C130.124754,263.256788 116.271523,262.895295 112.277677,262.42426 C112.005215,262.388026 111.750523,262.5456 111.659138,262.80429 C110.241831,266.841377 108.066369,271.73627 109.847523,275.876158 C110.750369,277.958321 112.768446,280.21491 115.204523,280.378382 L132.4026,281.422412 C132.724138,281.440108 132.997446,281.199113 133.021138,280.884808 L133.0516,280.439052 L133.724292,263.933427 C133.742062,263.613224 133.482292,263.341894 133.160754,263.335996" id="Fill-107" fill="#007B41"></path>
                    <path d="M117.635015,249.763263 L122.385323,252.701547 C122.876938,253.009953 123.470092,252.484146 123.216246,251.965923 L115.804785,236.510227 C115.708323,236.317263 115.513708,236.190867 115.301323,236.178227 L97.6607077,235.50243 C97.0607846,235.478837 96.8247077,236.257436 97.3332462,236.570897 L101.472631,239.087019 C101.751862,239.25639 101.836477,239.611984 101.6664,239.883314 C100.745785,241.344451 98.0127077,245.695842 96.6546308,248.097364 C95.0122462,251.017953 96.8247077,253.697547 96.8247077,253.697547 L104.914785,268.809446 C105.163554,269.279639 105.872631,269.189476 105.993631,268.664512 C107.720631,260.988065 115.217554,251.839527 116.882785,249.877862 C117.064708,249.660461 117.386246,249.611588 117.635015,249.763263" id="Fill-109" fill="#007B41"></path>
                </g>
            </g>
        </g>
    </g>
</svg>