<?xml version="1.0" encoding="UTF-8" standalone="no"?>
<svg width="1280px" height="740px" viewBox="0 0 1280 740" version="1.1" xmlns="http://www.w3.org/2000/svg" xmlns:xlink="http://www.w3.org/1999/xlink">
    <!-- Generator: Sketch 46 (44423) - http://www.bohemiancoding.com/sketch -->
    <title>WE CARE</title>
    <desc>Created with Sketch.</desc>
    <defs></defs>
    <g id="6-We-care" stroke="none" stroke-width="1" fill="none" fill-rule="evenodd">
        <g transform="translate(0.000000, -30.000000)" id="WE-CARE" fill="#F15733">
            <g transform="translate(0.000000, 30.000000)">
                <path d="M0,0 L1280,0 L1280,740 L0,740 L0,0 Z M218.18,286.32 L244.36,357.38 L225,407.32 L180.56,285.88 L148,285.88 L211.14,442.08 L236.66,442.08 L263.72,376.52 L290.78,442.08 L316.3,442.08 L379.88,285.88 L346.88,285.88 L302.66,407.32 L282.86,357.38 L309.48,286.32 L281.32,286.32 L263.72,338.02 L246.12,286.32 L218.18,286.32 Z M504.4,415.46 L426.3,415.46 L426.3,374.76 L492.08,374.76 L492.08,350.12 L426.3,350.12 L426.3,312.5 L502.42,312.5 L502.42,285.88 L395.94,285.88 L395.94,442.08 L504.4,442.08 L504.4,415.46 Z M571.5,362.88 C571.5,372.853383 573.369981,382.643285 577.11,392.25 C580.850019,401.856715 586.056633,410.436629 592.73,417.99 C599.403367,425.543371 607.359954,431.666643 616.6,436.36 C625.840046,441.053357 636.033278,443.4 647.18,443.4 C653.486698,443.4 659.939967,442.593341 666.54,440.98 C673.140033,439.366659 679.336638,437.020015 685.13,433.94 C690.923362,430.859985 696.129977,427.083356 700.75,422.61 C705.370023,418.136644 708.926654,412.966696 711.42,407.1 L686.56,392.8 C684.799991,397.053355 682.453348,400.683318 679.52,403.69 C676.586652,406.696682 673.396684,409.153324 669.95,411.06 C666.503316,412.966676 662.873352,414.359996 659.06,415.24 C655.246648,416.120004 651.580018,416.56 648.06,416.56 C641.3133,416.56 635.116695,415.093348 629.47,412.16 C623.823305,409.226652 618.983354,405.340024 614.95,400.5 C610.916646,395.659976 607.800011,390.050032 605.6,383.67 C603.399989,377.289968 602.3,370.653368 602.3,363.76 C602.3,357.599969 603.253324,351.403365 605.16,345.17 C607.066676,338.936636 609.889981,333.363358 613.63,328.45 C617.370019,323.536642 622.063305,319.540015 627.71,316.46 C633.356695,313.379985 639.993295,311.84 647.62,311.84 C651.140018,311.84 654.733315,312.243329 658.4,313.05 C662.066685,313.856671 665.58665,315.139991 668.96,316.9 C672.33335,318.660009 675.486652,321.043318 678.42,324.05 C681.353348,327.056682 683.846656,330.759978 685.9,335.16 L709.22,319.1 C704.086641,308.979949 696.276719,300.766698 685.79,294.46 C675.303281,288.153302 662.873405,285 648.5,285 C636.326606,285 625.473381,287.273311 615.94,291.82 C606.406619,296.366689 598.340033,302.30663 591.74,309.64 C585.139967,316.97337 580.116684,325.29662 576.67,334.61 C573.223316,343.92338 571.5,353.346619 571.5,362.88 Z M774.12,285.88 L714.5,442.08 L745.74,442.08 L760.04,403.14 L814.6,403.14 L829.12,442.08 L860.36,442.08 L800.96,285.88 L774.12,285.88 Z M877.52,442.08 L907.88,442.08 L907.88,389.72 L937.8,389.72 L969.7,442.08 L1003.8,442.08 L968.16,383.34 C976.813377,379.673315 983.669975,373.696708 988.73,365.41 C993.790025,357.123292 996.32,347.920051 996.32,337.8 C996.32,331.493302 995.073346,325.223365 992.58,318.99 C990.086654,312.756636 986.640022,307.183358 982.24,302.27 C977.839978,297.356642 972.596697,293.396682 966.51,290.39 C960.423303,287.383318 953.786703,285.88 946.6,285.88 L877.52,285.88 L877.52,442.08 Z M1132.28,415.46 L1054.18,415.46 L1054.18,374.76 L1119.96,374.76 L1119.96,350.12 L1054.18,350.12 L1054.18,312.5 L1130.3,312.5 L1130.3,285.88 L1023.82,285.88 L1023.82,442.08 L1132.28,442.08 L1132.28,415.46 Z" id="Combined-Shape"></path>
                <polygon id="WE-CARE-Copy-2" points="809.1 381.8 787.54 320.42 765.1 381.8"></polygon>
                <path d="M907.88,363.1 L945.94,363.1 C948.726681,363.1 951.329988,362.440007 953.75,361.12 C956.170012,359.799993 958.259991,358.003345 960.02,355.73 C961.780009,353.456655 963.173328,350.780015 964.2,347.7 C965.226672,344.619985 965.74,341.320018 965.74,337.8 C965.74,334.133315 965.153339,330.760015 963.98,327.68 C962.806661,324.599985 961.23001,321.923345 959.25,319.65 C957.26999,317.376655 954.99668,315.616673 952.43,314.37 C949.863321,313.123327 947.260013,312.5 944.62,312.5 L907.88,312.5 L907.88,363.1 Z" id="WE-CARE-Copy-2"></path>
            </g>
        </g>
    </g>
</svg>