<svg width="169" height="169" viewBox="0 0 169 169" xmlns="http://www.w3.org/2000/svg" xmlns:xlink="http://www.w3.org/1999/xlink"><title>Investigacion</title><defs><path id="a" d="M0 69.59V.284h138.888v138.608H0z"/><path id="c" d="M48.99.331v48.846H.046V.33H48.99z"/></defs><g fill="none" fill-rule="evenodd"><g transform="translate(0 .056)"><mask id="b" fill="#fff"><use xlink:href="#a"/></mask><path d="M69.444 10.53c-32.63 0-59.178 26.494-59.178 59.059s26.547 59.059 59.178 59.059c32.63 0 59.178-26.494 59.178-59.059s-26.547-59.058-59.178-59.058m0 128.362C31.153 138.893 0 107.803 0 69.589S31.153.285 69.444.285c38.291 0 69.444 31.09 69.444 69.304s-31.153 69.304-69.444 69.304" fill="#FFF" mask="url(#b)"/></g><g transform="translate(119.769 119.583)"><mask id="d" fill="#fff"><use xlink:href="#c"/></mask><path d="M25.065 45.911L3.318 24.208c-4.363-4.354-4.363-11.413 0-15.767l4.854-4.844c4.363-4.354 11.436-4.354 15.799 0L45.718 25.3c4.363 4.354 4.363 11.413 0 15.767l-4.854 4.844c-4.362 4.354-11.436 4.354-15.799 0" fill="#FFF" mask="url(#d)"/></g><path fill="#FFF" d="M128.573 137.533l-18.774-18.735 8.897-8.879 18.773 18.736zM97.778 51.669a28.118 28.118 0 0 1-5.952 17.341c-5.184 6.654 2.276 25.609-22.382 25.609S52.562 75.83 47.369 69.397a28.123 28.123 0 0 1-6.26-17.728c0-15.617 12.686-28.277 28.335-28.277 15.648 0 28.334 12.66 28.334 28.277m-27.77 51.86c-10.018 0-14.544-3.013-14.732-3.141a1.876 1.876 0 0 1-.49-2.61 1.884 1.884 0 0 1 2.603-.5c.09.06 3.964 2.494 12.619 2.494 8.443 0 11.257-2.31 11.284-2.332l-.034.031 2.581 2.734c-.361.34-3.823 3.324-13.831 3.324m0 7.031c-10.018 0-14.544-3.012-14.732-3.14a1.876 1.876 0 0 1-.49-2.612 1.884 1.884 0 0 1 2.603-.498c.09.059 3.964 2.494 12.619 2.494 8.443 0 11.257-2.31 11.284-2.333l-.034.031 2.581 2.734c-.361.34-3.823 3.324-13.831 3.324m0 7.031c-4.1 0-6.584-.268-9.166-.992a1.878 1.878 0 1 1 1.017-3.616c1.927.54 3.879.852 8.149.852 3.106 0 5.154-.197 7.068-.68a1.878 1.878 0 1 1 .923 3.642c-2.237.564-4.553.794-7.991.794"/><path d="M77.538 93.729V54.494c0-1.698-2.094-4.397-3.932-3.026-1.236.922-2.543 1.789-4.162 1.789-1.694 0-2.82-.95-4.171-1.781-1.929-1.189-3.923 1.188-3.923 3.018V93.73" fill="#FFF"/></g></svg>