<svg width="169" height="169" viewBox="0 0 169 169" xmlns="http://www.w3.org/2000/svg" xmlns:xlink="http://www.w3.org/1999/xlink"><title>Respeto</title><defs><path id="a" d="M0 44.82V.309h44.533V44.82H0z"/></defs><g fill="none" fill-rule="evenodd"><path d="M39.334 86.64H12.662a214.546 214.546 0 0 0 3.03 33.712 26.692 26.692 0 0 1 6.575-.818c14.732 0 26.716 11.979 26.716 26.705a26.57 26.57 0 0 1-.821 6.576 214.878 214.878 0 0 0 33.73 3.028v-26.664c-12.655-.154-25.447-1.628-38.156-4.4-2.773-12.7-4.248-25.49-4.402-38.138m9.649-64.042c0 14.722-11.984 26.704-26.716 26.704-2.27 0-4.474-.284-6.576-.818a214.466 214.466 0 0 0-3.03 33.708h26.673c.154-12.649 1.629-25.435 4.402-38.139 12.71-2.768 25.5-4.246 38.156-4.4v-26.66a214.878 214.878 0 0 0-33.73 3.029c.537 2.104.821 4.307.821 6.576M128.9 82.193h26.672a214.467 214.467 0 0 0-3.03-33.708 26.692 26.692 0 0 1-6.575.818c-14.733 0-26.717-11.982-26.717-26.705 0-2.268.284-4.471.822-6.576a214.878 214.878 0 0 0-33.73-3.027v26.66c12.654.153 25.446 1.631 38.156 4.4 2.772 12.703 4.248 25.489 4.402 38.138m17.067 37.341c2.27 0 4.473.284 6.575.818a214.546 214.546 0 0 0 3.03-33.711H128.9c-.154 12.649-1.63 25.438-4.402 38.138-12.71 2.772-25.502 4.246-38.156 4.4v26.664a214.878 214.878 0 0 0 33.73-3.028 26.544 26.544 0 0 1-.822-6.576c0-14.726 11.984-26.705 26.717-26.705" fill="#FFF"/><path d="M145.967 44.855c.147 0 .294 0 .438-.007a19.139 19.139 0 0 0 .941-.038c.082-.003.164-.006.243-.013.03-.004.058-.004.09-.007.047-.004.095-.007.146-.014.02 0 .041-.003.062-.007a6.1 6.1 0 0 0 .356-.03l.106-.01c.127-.014.253-.028.377-.045a4.15 4.15 0 0 0 .191-.024c.017-.004.038-.004.055-.007.11-.014.22-.03.329-.048l.188-.03c.103-.014.205-.031.308-.052.424-.068.845-.154 1.26-.257a22.904 22.904 0 0 0 2.012-.571c.144-.048.288-.1.432-.15a21.577 21.577 0 0 0 .852-.326c.068-.027.14-.054.209-.085.072-.03.14-.058.209-.089.136-.058.277-.12.414-.185.106-.044.209-.092.308-.143.102-.048.202-.1.304-.148.206-.099.404-.201.603-.308a25.748 25.748 0 0 0 .787-.437c.185-.11.366-.22.548-.332.017-.01.038-.02.055-.035.181-.112.362-.229.54-.349.124-.082.247-.167.37-.253.079-.051.158-.11.236-.164l.031-.02c.004-.004.004-.007.007-.007l.058-.041a23.245 23.245 0 0 0 .948-.729c.137-.113.27-.223.404-.339.144-.12.28-.243.421-.366.086-.075.171-.154.254-.23.01-.01.02-.016.03-.027l.055-.05c.14-.134.277-.264.414-.401.007-.004.01-.007.017-.014.127-.123.254-.25.38-.38a7.918 7.918 0 0 0 .353-.376 22.932 22.932 0 0 0 .678-.766c.096-.113.191-.23.287-.346.12-.147.24-.298.356-.452.117-.15.233-.304.346-.462.051-.071.106-.143.157-.219a3.81 3.81 0 0 0 .154-.222c.12-.168.233-.339.346-.51l.01-.017a23.618 23.618 0 0 0 .64-1.043c.083-.14.161-.28.237-.425.072-.133.144-.263.212-.396.072-.134.14-.267.205-.404a8.88 8.88 0 0 0 .195-.407 17.24 17.24 0 0 0 .414-.934l.021-.045a.835.835 0 0 1 .034-.082.665.665 0 0 0 .028-.075c.055-.134.106-.264.154-.397a19.715 19.715 0 0 0 .209-.571c.051-.144.099-.288.147-.432.044-.136.085-.27.13-.407.041-.133.079-.27.12-.407.058-.205.116-.417.167-.63a20.347 20.347 0 0 0 .329-1.529c.027-.144.051-.284.072-.428.017-.112.038-.229.051-.345.01-.062.02-.127.028-.192.01-.058.017-.12.024-.181l.02-.181a13.53 13.53 0 0 0 .075-.742l.021-.268.02-.29v-.028a5.31 5.31 0 0 0 .014-.24c.004-.016.004-.034.004-.05v-.025a27.463 27.463 0 0 0 .02-.964c0-12.294-9.971-22.257-22.266-22.257-.192 0-.384.004-.575.007-.134.003-.267.007-.4.014-.015 0-.028 0-.042.003a6.814 6.814 0 0 0-.28.014l-.316.02c-.065.004-.133.01-.198.017-.144.01-.284.02-.421.038-.1.007-.199.017-.295.03-.006 0-.01 0-.017.004-.065.004-.126.01-.188.02-.065.008-.127.018-.188.025l-.079.01c-.089.01-.178.024-.263.038a4.609 4.609 0 0 0-.28.041c-.135.02-.268.044-.398.068a12.7 12.7 0 0 0-.544.103h-.007c-.182.037-.36.078-.538.12-.15.034-.304.071-.455.109-.041.01-.086.02-.127.034-.126.031-.25.065-.373.1a3.022 3.022 0 0 0-.188.054 8.653 8.653 0 0 0-.424.123c-.018.007-.035.01-.052.017-.164.052-.328.103-.493.161-.174.058-.345.117-.517.182a21.337 21.337 0 0 0-1.506.616c-.147.064-.294.133-.438.201-.03.014-.061.031-.092.045a20.057 20.057 0 0 0-1.852 1.009 20.236 20.236 0 0 0-.904.578 22.24 22.24 0 0 0-1.564 1.157c-.116.096-.23.188-.339.284-.11.092-.22.184-.325.28-.072.062-.144.123-.212.188-.069.062-.137.127-.21.192l-.013.01c-.044.041-.089.082-.133.127-.144.133-.288.27-.428.41l-.195.196c-.178.177-.35.362-.52.547-.151.164-.302.328-.45.5-.016.02-.033.044-.054.064-.133.158-.267.315-.397.476-.007.007-.01.014-.017.02a25.75 25.75 0 0 0-.733.955c0 .004-.003.004-.006.007-.072.103-.144.209-.22.311-.13.185-.253.37-.376.558-.123.188-.243.376-.36.568-.054.092-.112.185-.167.277l-.048.079c-.082.14-.16.28-.24.42l-.215.398c-.072.13-.14.266-.21.4-.133.267-.263.54-.39.814l-.184.414c-.031.069-.062.137-.09.209-.027.068-.054.14-.085.209-.058.14-.113.28-.167.424-.052.144-.107.284-.158.428a21.511 21.511 0 0 0-.688 2.299c-.02.078-.038.157-.058.232-.01.048-.02.1-.031.147-.034.158-.068.312-.1.47-.006.037-.016.078-.023.116l-.062.328-.024.133c-.013.086-.03.175-.044.264-.031.195-.062.393-.086.592-.027.191-.048.38-.068.571l-.01.106c-.014.11-.025.22-.031.329a10.223 10.223 0 0 0-.041.564 18.757 18.757 0 0 0-.038.945c-.007.143-.007.29-.007.438 0 12.29 9.968 22.256 22.267 22.256m-129.485-.76c1.845.496 3.786.76 5.785.76 12.298 0 22.266-9.967 22.266-22.257 0-2.001-.263-3.941-.763-5.785C41.226 7.325 32.563.342 22.267.342 9.967.342 0 10.305 0 22.598 0 32.89 6.99 41.55 16.482 44.095m151.731 101.168c0-.013 0-.027-.004-.04a9.228 9.228 0 0 0-.013-.281l-.021-.315a20.388 20.388 0 0 0-.058-.664 7.684 7.684 0 0 0-.045-.393 3.66 3.66 0 0 0-.034-.274 6.415 6.415 0 0 0-.034-.253c0-.003 0-.01-.004-.014a4.34 4.34 0 0 0-.044-.297 9.43 9.43 0 0 0-.072-.431 5.317 5.317 0 0 0-.062-.322c-.02-.11-.04-.223-.065-.332-.003-.017-.006-.038-.01-.054-.003-.011-.003-.018-.007-.028a13.012 13.012 0 0 0-.078-.353c-.042-.177-.086-.355-.13-.533a75.14 75.14 0 0 0-.124-.455c-.04-.154-.089-.308-.133-.459-.045-.143-.09-.29-.137-.434-.041-.13-.086-.257-.13-.387a16.306 16.306 0 0 0-.189-.523.9.9 0 0 0-.037-.093 9.466 9.466 0 0 0-.154-.397.665.665 0 0 0-.028-.075.948.948 0 0 1-.034-.082l-.02-.045a17.242 17.242 0 0 0-.226-.523 8.843 8.843 0 0 0-.189-.41 8.88 8.88 0 0 0-.195-.408 9.122 9.122 0 0 0-.205-.403c-.068-.134-.14-.267-.212-.397a14.521 14.521 0 0 0-.22-.394c-.15-.26-.304-.516-.461-.77a13.18 13.18 0 0 0-.233-.362.23.23 0 0 0-.024-.038s0-.003-.004-.003a20.592 20.592 0 0 0-.49-.715l-.163-.226a21.874 21.874 0 0 0-.51-.67c-.117-.145-.237-.288-.353-.432a40.01 40.01 0 0 0-.366-.424c-.096-.113-.199-.223-.298-.336a20.708 20.708 0 0 0-.934-.96l-.326-.309c-.11-.1-.219-.202-.332-.3a20.252 20.252 0 0 0-1.38-1.14l-.359-.267c-.123-.086-.243-.175-.366-.26-.123-.086-.246-.168-.37-.253-.246-.164-.5-.329-.756-.483-.13-.078-.257-.157-.387-.232-.13-.076-.26-.151-.39-.223l-.397-.215c-.13-.072-.264-.14-.4-.209-.268-.137-.541-.27-.815-.39-.137-.062-.278-.123-.414-.185a3.825 3.825 0 0 0-.21-.089c-.068-.027-.14-.055-.208-.085-.14-.059-.28-.113-.424-.168-.144-.051-.285-.106-.428-.157a18.488 18.488 0 0 0-.432-.151 17.73 17.73 0 0 0-1.318-.397c-.195-.051-.39-.102-.588-.15l-.168-.041a11.493 11.493 0 0 0-.469-.103c-.041-.01-.086-.017-.127-.027-.202-.038-.4-.076-.602-.11a4.591 4.591 0 0 0-.308-.051l-.188-.031c-.11-.017-.22-.034-.329-.048-.017-.003-.038-.003-.055-.007a3.665 3.665 0 0 0-.191-.024c-.124-.017-.25-.03-.377-.044l-.106-.01a6.244 6.244 0 0 0-.356-.031.377.377 0 0 0-.062-.007c-.051-.007-.099-.01-.147-.014-.03-.003-.058-.003-.089-.007a4.691 4.691 0 0 0-.243-.013 19.139 19.139 0 0 0-.941-.038c-.144-.007-.291-.007-.438-.007-12.3 0-22.267 9.967-22.267 22.257 0 .147 0 .294.007.444a19.144 19.144 0 0 0 .034.93c.007.083.01.165.017.247.004.031.004.058.007.09a2.354 2.354 0 0 0 .02.208c.007.12.018.24.031.356.004.037.007.079.014.116.01.093.017.188.03.28.011.093.021.189.035.281a15.844 15.844 0 0 0 .137.88c.03.184.065.37.103.554.03.157.065.311.099.469l.03.147c.021.075.039.154.059.232a25.876 25.876 0 0 0 .264.993 23.505 23.505 0 0 0 .424 1.307l.134.362.017.048.01.027.014.035c.051.126.099.253.15.38l.168.403c.065.144.127.288.192.428.123.274.253.547.39.814l.226.438.198.36c.076.136.154.27.233.403.075.127.15.257.23.383a15.658 15.658 0 0 0 .407.64c.102.158.212.318.322.476.075.11.15.212.225.318a25.752 25.752 0 0 0 .733.955c.007.006.01.013.017.02.13.16.264.319.397.476.02.02.038.044.055.065.144.164.287.325.435.482a17.207 17.207 0 0 0 .578.609 16.775 16.775 0 0 0 .579.565 26.474 26.474 0 0 0 .893.793 20.502 20.502 0 0 0 1.462 1.136c.147.103.294.206.441.305a20.237 20.237 0 0 0 .904.578 20.057 20.057 0 0 0 1.852 1.009c.03.014.061.031.092.045.144.068.291.137.438.202a21.337 21.337 0 0 0 2.023.797c.165.058.329.11.493.164a25.303 25.303 0 0 0 2.157.554h.007c.18.038.362.072.544.103.13.024.263.048.397.068l.27.041.356.052c.052.007.1.013.147.017l.024.003c.158.02.312.038.47.052.167.017.335.034.503.044.054.007.106.01.16.014l.315.02c.096.007.189.01.281.014.014.003.027.003.041.003.134.007.267.01.4.014.192.004.384.007.576.007 12.295 0 22.266-9.963 22.266-22.256a27.475 27.475 0 0 0-.02-.975" fill="#FFF"/><g transform="translate(0 123.674)"><mask id="b" fill="#fff"><use xlink:href="#a"/></mask><path d="M22.266.308c-.147 0-.294 0-.438.007a19.14 19.14 0 0 0-.941.038c-.079.003-.16.006-.24.013-.11.007-.219.017-.328.027a5.33 5.33 0 0 0-.39.038c-.206.02-.411.045-.613.072a17.396 17.396 0 0 0-.894.137c-.164.027-.325.058-.486.089l-.05.01c-.008.003-.018.003-.025.007-.089.017-.174.037-.263.055a4.026 4.026 0 0 0-.278.061c-.092.02-.185.045-.277.065l-.058.014a5.853 5.853 0 0 0-.445.113.358.358 0 0 0-.058.013l-.257.072c-.086.024-.175.048-.257.076a20.45 20.45 0 0 0-1.25.407c-.146.051-.29.106-.434.16-.144.055-.287.113-.428.172a7.946 7.946 0 0 0-.393.164c-.103.04-.202.089-.302.133-.102.045-.202.093-.3.137l-.028.01a.33.33 0 0 0-.052.028c-.184.085-.366.174-.547.267a4.334 4.334 0 0 0-.281.143.515.515 0 0 0-.075.038l-.076.041-.284.154c-.003 0-.003.003-.007.003-.054.031-.106.059-.157.09-.103.058-.205.116-.308.177a13.54 13.54 0 0 0-.548.332c-.017.01-.037.02-.055.034-.18.113-.362.23-.54.35-.124.081-.247.167-.37.253-.123.085-.243.17-.366.26l-.36.266c-.12.09-.236.182-.352.274-.353.274-.695.565-1.027.866a13.6 13.6 0 0 0-.332.3l-.325.309c-.08.078-.161.154-.24.236a20.708 20.708 0 0 0-.695.725 40.01 40.01 0 0 0-.664.76l-.352.43a21.879 21.879 0 0 0-.51.671l-.165.226-.257.366c-.082.117-.16.233-.232.35-.004 0-.004.003-.004.003s0 .003-.003.003a.515.515 0 0 0-.034.058 6.37 6.37 0 0 0-.216.336c-.027.034-.048.072-.072.11-.055.092-.11.18-.164.273-.079.13-.154.26-.23.39a15.47 15.47 0 0 0-.37.67 16.65 16.65 0 0 0-.28.551c-.062.127-.123.25-.181.377-.065.137-.13.273-.189.414a14.858 14.858 0 0 0-.434 1.05c-.007.017-.014.03-.02.048-.08.209-.158.417-.227.626a9.88 9.88 0 0 0-.154.459 19.969 19.969 0 0 0-.377 1.29c-.044.177-.088.355-.13.533-.027.117-.054.233-.078.353-.004.01-.004.017-.007.027l-.01.051c0 .004 0 .007-.004.01l-.061.326a4.853 4.853 0 0 0-.062.321 9.43 9.43 0 0 0-.072.431c-.017.1-.034.199-.044.298-.004.003-.004.01-.004.014a6.415 6.415 0 0 0-.034.253 3.596 3.596 0 0 0-.034.274 8.75 8.75 0 0 0-.045.393c-.017.16-.03.325-.044.486-.007.058-.01.12-.014.178l-.02.315c-.007.095-.01.188-.014.28-.004.014-.004.027-.004.041a32.182 32.182 0 0 0-.02.975c0 12.293 9.968 22.257 22.266 22.257.192 0 .384-.004.576-.007.133-.004.267-.007.4-.014.014 0 .027 0 .041-.003.093-.004.185-.007.28-.014l.316-.02a2.55 2.55 0 0 0 .16-.014c.168-.01.336-.028.504-.045.157-.013.311-.03.469-.051l.024-.003a2.77 2.77 0 0 0 .147-.017l.356-.052.27-.04c.134-.021.267-.045.397-.07.182-.03.363-.064.545-.102h.006a24.743 24.743 0 0 0 .993-.23c.394-.098.78-.208 1.164-.324.164-.055.329-.106.493-.164.174-.059.346-.117.517-.182a21.337 21.337 0 0 0 1.506-.616c.147-.065.294-.133.438-.202.03-.013.062-.03.092-.044.144-.068.288-.14.432-.216.486-.246.958-.51 1.42-.793a20.236 20.236 0 0 0 1.345-.883c.144-.103.288-.209.432-.315.236-.174.465-.356.691-.537.117-.096.23-.188.34-.284a27.418 27.418 0 0 0 .914-.814c.187-.175.376-.36.557-.544a17.206 17.206 0 0 0 .578-.61c.148-.157.291-.317.435-.482.017-.02.034-.044.055-.065.133-.157.267-.314.397-.475.007-.007.01-.014.017-.02a25.75 25.75 0 0 0 .733-.955l.226-.319a19.383 19.383 0 0 0 .41-.609c.11-.167.216-.335.319-.506.078-.127.154-.257.229-.383.079-.134.157-.267.233-.404l.198-.36.226-.437c.134-.267.264-.537.39-.814.065-.14.127-.284.192-.428l.168-.404c.051-.126.1-.253.15-.38l.014-.034.01-.027c.007-.017.01-.03.018-.048l.133-.363a21.511 21.511 0 0 0 .425-1.307l.123-.441c.048-.181.096-.366.14-.55.02-.08.038-.158.058-.234L44 27.42c.034-.157.069-.311.1-.468.037-.185.071-.37.102-.555a15.846 15.846 0 0 0 .137-.88c.014-.091.024-.187.034-.28.014-.092.02-.188.031-.28.007-.038.01-.079.014-.116.013-.117.024-.237.03-.356a2.354 2.354 0 0 0 .02-.209c.004-.03.004-.058.008-.089.007-.082.01-.164.017-.246.014-.209.02-.418.027-.626a7.94 7.94 0 0 0 .007-.305c.007-.15.007-.298.007-.445 0-12.29-9.968-22.256-22.267-22.256" fill="#FFF" mask="url(#b)"/></g></g></svg>