<svg width="168" height="168" viewBox="0 0 168 168" xmlns="http://www.w3.org/2000/svg" xmlns:xlink="http://www.w3.org/1999/xlink"><title>Lealtad</title><defs><path id="a" d="M0 167.816V.326h167.28v167.49H0z"/></defs><g fill="none" fill-rule="evenodd"><path d="M117.525 89.12l-6.133 6.145-14.245 14.262a23.428 23.428 0 0 1-6.643 4.672l29.074 29.107a69.375 69.375 0 0 0 12.992-10.234 69.225 69.225 0 0 0 12.266-16.61l-27.31-27.341zm-68.217-7.326c.03.198.067.4.104.598.016-.147.033-.296.053-.44l3.527 3.534c.06.06.121.118.182.172a4.235 4.235 0 0 0 .366.3c.003.003.01.006.013.01.037.026.07.053.108.077.05.033.097.067.144.097.05.03.1.064.148.09l.14.082c.048.027.095.054.145.077l.057.027a3.5 3.5 0 0 0 .28.124c.01.007.02.01.03.014.046.02.093.037.14.054.048.02.095.033.145.05.003.003.003.003.007.003a5.797 5.797 0 0 0 .38.111 4.862 4.862 0 0 0 .873.127l.006.001a3.613 3.613 0 0 0 .565 0c.006 0 .016 0 .023-.003.06 0 .114-.007.175-.013.01 0 .02 0 .03-.004h.02c.04-.003.08-.007.121-.013.01-.004.02-.004.03-.007.077-.01.158-.023.239-.037.077-.013.154-.034.235-.05a5.245 5.245 0 0 0 .379-.112c.004 0 .004 0 .007-.003l.097-.03a4.36 4.36 0 0 0 .286-.118c.067-.023.131-.054.198-.087a4.817 4.817 0 0 0 .615-.356c.007-.004.01-.008.017-.01 0-.004.003-.004.003-.004.044-.03.084-.057.124-.088a4.04 4.04 0 0 0 .188-.147 2.87 2.87 0 0 0 .188-.162c.064-.054.121-.111.182-.172l1.73-1.735a4.828 4.828 0 0 0 1.38-2.805 5.962 5.962 0 0 0 3.06-1.638l2.307-2.31a5.96 5.96 0 0 0 1.734-4.594 5.943 5.943 0 0 0 3.597-1.718l2.307-2.31a5.965 5.965 0 0 0 1.572-2.802 7.376 7.376 0 0 0 3.033.649 7.37 7.37 0 0 0 5.23-2.17l2.516-2.515a7.406 7.406 0 0 0 2.14-5.858v-.014a2.716 2.716 0 0 0-.027-.238c-.004-.068-.014-.131-.024-.195-.01-.088-.027-.175-.04-.26-.004-.01-.007-.016-.007-.026-.003-.014-.003-.027-.007-.04a6.263 6.263 0 0 0-.11-.492c-.02-.074-.04-.15-.064-.229a8.612 8.612 0 0 0-.078-.248l-.016-.048c-.024-.066-.047-.134-.074-.201a.561.561 0 0 0-.024-.07c-.006-.021-.017-.041-.023-.061 0-.004-.004-.004-.004-.004a2.462 2.462 0 0 0-.067-.16 6.697 6.697 0 0 0-.077-.18c-.03-.063-.06-.13-.094-.195a1.87 1.87 0 0 0-.057-.12 10.94 10.94 0 0 0-.259-.455 7.328 7.328 0 0 0-1.088-1.389l-4.185-4.19-.168-.168-1.972-1.974a4.88 4.88 0 0 0-.221-.212.96.96 0 0 0-.088-.077c-.05-.047-.1-.09-.154-.135a3.775 3.775 0 0 0-.296-.235 2.047 2.047 0 0 0-.168-.125c-.007-.006-.013-.013-.02-.016-.013-.01-.027-.017-.04-.027-.084-.057-.168-.115-.252-.168a6.473 6.473 0 0 0-.675-.387.642.642 0 0 1-.057-.03c-.01-.007-.024-.01-.034-.017-.01-.007-.024-.01-.034-.017-.006-.003-.013-.007-.02-.007-.04-.02-.077-.04-.12-.057a7.475 7.475 0 0 0-.243-.104 7.507 7.507 0 0 0-.248-.098 3.204 3.204 0 0 0-.192-.067c-.006-.003-.01-.003-.016-.007a5.839 5.839 0 0 0-.544-.158c-.054-.013-.101-.027-.152-.037l-.043-.01-.098-.02c-.063-.013-.124-.027-.188-.037a7.398 7.398 0 0 0-.618-.087h-.006c-.007 0-.017 0-.024-.004a7.387 7.387 0 0 0-5.918 2.14l-2.513 2.515c-.094.094-.184.191-.275.289a5.55 5.55 0 0 0-.232.276c-.08.094-.154.195-.228.296-.08.11-.158.222-.232.336-.037.057-.074.11-.107.171a2.9 2.9 0 0 0-.105.175c-.047.077-.09.158-.134.24a6.499 6.499 0 0 0-.312.672c-.037.087-.07.174-.101.265-.014.037-.03.077-.044.121-.067.206-.127.41-.181.62 0 .006-.004.009-.004.016-.023.101-.047.202-.067.302-.006.04-.016.081-.023.122a11.94 11.94 0 0 0-.087.622c0 .017 0 .03-.004.044-.01.107-.017.212-.02.319a7.566 7.566 0 0 0 .047 1.268 5.967 5.967 0 0 0-4.152 1.749l-2.307 2.31a5.975 5.975 0 0 0-1.737 4.594 5.935 5.935 0 0 0-3.594 1.719l-2.307 2.31A5.983 5.983 0 0 0 51.39 72.2c-.255.171-.5.37-.725.595l-1.357 1.359-.373.373a4.88 4.88 0 0 0 0 6.895l.373.373z" fill="#FFF"/><path d="M94.06 106.437l8.183-8.196 12.196-12.211 2.972-2.976c.172-.168.326-.347.47-.532a6.098 6.098 0 0 0-.47-8.094 6.05 6.05 0 0 0-1.686-1.188 5.995 5.995 0 0 0-1.343-6.4l-2.308-2.31a5.962 5.962 0 0 0-3.597-1.718 5.97 5.97 0 0 0-1.733-4.591l-2.308-2.31a5.958 5.958 0 0 0-4.151-1.753 7.406 7.406 0 0 0-2.11-6.15l-2.516-2.516a7.318 7.318 0 0 0-3.127-1.866 7.353 7.353 0 0 0-2.106-.307c-.708 0-1.42.101-2.106.306-.077.024-.15.044-.228.071a5.916 5.916 0 0 0-.443.165h-.004c-.07.033-.144.064-.215.097l4 4.006a11.673 11.673 0 0 1 1.929 2.542 11.798 11.798 0 0 1 1.447 7.022 11.717 11.717 0 0 1-3.375 7.1l-2.513 2.515a11.683 11.683 0 0 1-9.042 3.427 11.08 11.08 0 0 1-.796.898l-2.307 2.31a10.364 10.364 0 0 1-2.741 1.964 10.328 10.328 0 0 1-2.59 4.346l-2.307 2.31a10.328 10.328 0 0 1-2.647 1.92 9.226 9.226 0 0 1-1.79 2.523l-1.733 1.735a9.174 9.174 0 0 1-6.53 2.707c-1.35 0-2.66-.29-3.853-.837a9.104 9.104 0 0 1-2.035-1.285l-27.811 27.846a69.233 69.233 0 0 0 11.974 16.065 69.078 69.078 0 0 0 13.513 10.547l29.648-29.682 1.952-1.954a19.071 19.071 0 0 0 5.78-.639l.417-.118c.003 0 .003 0 .006-.003h.007c.064-.017.124-.037.188-.061a20.076 20.076 0 0 0 1.562-.552c.286-.117.568-.242.846-.37a18.17 18.17 0 0 0 2.056-1.113 19.01 19.01 0 0 0 3.376-2.69" fill="#FFF"/><g transform="translate(0 .01)"><mask id="b" fill="#fff"><use xlink:href="#a"/></mask><path d="M112.272 151.942c-9.065 3.837-18.698 5.785-28.634 5.785-9.935 0-19.568-1.948-28.63-5.785a73.024 73.024 0 0 1-9.963-5.149 73.621 73.621 0 0 1-13.422-10.64 73.547 73.547 0 0 1-12.102-15.938 72.717 72.717 0 0 1-3.667-7.48c-3.833-9.073-5.778-18.718-5.778-28.666s1.945-19.593 5.778-28.666a73.414 73.414 0 0 1 15.77-23.417 73.344 73.344 0 0 1 23.383-15.79c9.063-3.837 18.696-5.78 28.631-5.78 9.936 0 19.569 1.943 28.634 5.78 8.757 3.71 16.626 9.023 23.384 15.79a73.414 73.414 0 0 1 15.77 23.417c3.833 9.073 5.777 18.718 5.777 28.666s-1.944 19.593-5.777 28.667a73.524 73.524 0 0 1-15.77 23.417 73.45 73.45 0 0 1-12.908 10.318 72.908 72.908 0 0 1-10.476 5.471M83.638.326C37.448.326 0 37.817 0 84.07c0 15.938 4.447 30.833 12.162 43.515a84.129 84.129 0 0 0 25.588 26.51c13.177 8.677 28.943 13.722 45.888 13.722 17.16 0 33.118-5.176 46.392-14.054a84.086 84.086 0 0 0 25.4-26.703c7.527-12.568 11.85-27.274 11.85-42.99 0-46.252-37.448-83.743-83.642-83.743" fill="#FFF" mask="url(#b)"/></g></g></svg>