<svg width="190" height="190" viewBox="0 0 190 190" xmlns="http://www.w3.org/2000/svg" xmlns:xlink="http://www.w3.org/1999/xlink"><title>Colaboracion</title><defs><path id="a" d="M91.599.205v86.174H.051V.205h91.548z"/><path id="c" d="M.06.145h88.32v91.302H.06V.145z"/><path id="e" d="M0 86.44V.27h91.542v86.17H0z"/></defs><g fill="none" fill-rule="evenodd"><g transform="translate(98.297 75.208)"><mask id="b" fill="#fff"><use xlink:href="#a"/></mask><path d="M42.672 19.503l-.37.37-5.118-5.105-1.93 1.924a8.316 8.316 0 0 0-.731 10.939c.22.295.466.574.731.838l.915.913.92.916c.265.265.544.51.837.727l-1.716 1.71-1.708 1.704L8.558 60.314l-1.705 1.7-1.705 1.7L.051 68.8l5.366 5.352 1.715 1.71 1.709 1.704 8.49 8.468c.112.112.221.227.327.346l36.765-36.668 1.705-1.7 1.715-1.71a8.11 8.11 0 0 0 2.188 1.211 8.3 8.3 0 0 0 2.879.523 8.33 8.33 0 0 0 5.935-2.43l20.312-20.258a8.319 8.319 0 0 0 0-11.777L78.196 2.64A8.341 8.341 0 0 0 71.469.246a8.323 8.323 0 0 0-5.081 2.393L57.9 11.103l-1.708 1.704-.776.773-.939.937-.762.76-1.701 1.697-4.608 4.595-1.33 1.328-.371.37-1.691-1.687c.115-.13.234-.255.36-.38l-.37.37-1.692-1.687c.116-.13.238-.258.36-.38" fill="#FFF" mask="url(#b)"/></g><g transform="translate(75.168 .24)"><mask id="d" fill="#fff"><use xlink:href="#c"/></mask><path d="M.1 20.216c.09.916.33 1.823.726 2.671a8.12 8.12 0 0 0 1.67 2.4l8.49 8.467 1.71 1.704.775.774.94.937.761.76 1.702 1.697 2.903 2.895 1.701 1.697 1.33 1.327.371.37-1.69 1.687a9.506 9.506 0 0 1-.382-.36l.371.37-1.691 1.687a9.639 9.639 0 0 1-.381-.36l.37.37-5.114 5.1 1.933 1.928c2.987 2.98 7.694 3.221 10.96.73.297-.22.576-.465.841-.73l.916-.912.918-.917a7.62 7.62 0 0 0 .729-.835l1.715 1.71 1.708 1.704 25.944 25.875 1.705 1.7 1.705 1.701 5.097 5.084 5.37-5.355 1.715-1.711 1.705-1.7 8.49-8.468a8.16 8.16 0 0 1 .347-.326 12.439 12.439 0 0 1 1.92-1.48L51.104 35.232l-1.776-1.772-1.835-1.83a8.224 8.224 0 0 0 .524-2.87 8.284 8.284 0 0 0-2.44-5.923L25.267 2.578c-3.254-3.244-8.549-3.244-11.805.003L2.5 13.513a8.287 8.287 0 0 0-2.4 6.703" fill="#FFF" mask="url(#d)"/></g><g transform="translate(0 28.304)"><mask id="f" fill="#fff"><use xlink:href="#e"/></mask><path d="M48.924 67.143l.367-.367 5.118 5.105 1.933-1.928a8.313 8.313 0 0 0 .732-10.939 7.592 7.592 0 0 0-.729-.835l-.918-.916-.916-.913a7.753 7.753 0 0 0-.84-.73l1.715-1.71 1.705-1.7 25.947-25.88 1.705-1.7 1.705-1.7 5.094-5.08-5.367-5.353-1.715-1.71-1.704-1.7L74.262.616a7.69 7.69 0 0 1-.327-.346L37.173 36.933l-1.705 1.7-1.715 1.712a8.141 8.141 0 0 0-2.184-1.216 8.412 8.412 0 0 0-2.883-.519 8.333 8.333 0 0 0-5.931 2.434L2.443 61.302C-.814 64.55-.814 69.83 2.439 73.075L13.404 84.01a8.331 8.331 0 0 0 6.724 2.39 8.263 8.263 0 0 0 2.678-.724 8.3 8.3 0 0 0 2.403-1.67l8.49-8.467 1.705-1.7.776-.774.939-.937.762-.76 1.702-1.697 2.902-2.895 1.702-1.697 1.334-1.33.367-.367 1.691 1.687a9.431 9.431 0 0 1-.357.377l.368-.367 1.69 1.687a9.431 9.431 0 0 1-.356.377" fill="#FFF" mask="url(#f)"/></g><path d="M114.627 169.698a8.313 8.313 0 0 0-.724-2.67 8.278 8.278 0 0 0-1.678-2.393l-8.494-8.471-1.705-1.7-.772-.771-.943-.94-.759-.757-1.701-1.697-2.906-2.899-1.702-1.697-1.33-1.326-.371-.37 1.691-1.687c.13.115.256.234.382.36l-.372-.37 1.692-1.687a8.6 8.6 0 0 1 .38.36l-.37-.37 5.118-5.105-1.933-1.928c-2.988-2.98-7.698-3.224-10.964-.726a7.606 7.606 0 0 0-.837.726l-.92.917-.914.913c-.266.265-.51.543-.732.838l-1.715-1.71-1.705-1.7-25.947-25.88-1.705-1.7-1.705-1.7-5.098-5.084-5.366 5.352-1.715 1.71-1.709 1.705-8.486 8.464c-.113.112-.229.22-.348.325l36.762 36.665 1.705 1.7 1.712 1.708a7.979 7.979 0 0 0-1.211 2.185 8.304 8.304 0 0 0 1.916 8.794L89.46 187.34c3.253 3.244 8.551 3.248 11.804.003l10.965-10.935a8.3 8.3 0 0 0 2.398-6.71" fill="#FFF"/></g></svg>