<svg width="190" height="166" viewBox="0 0 190 166" xmlns="http://www.w3.org/2000/svg"><title>Trabajo</title><g fill="#FFF" fill-rule="evenodd"><path d="M68.288 32.267c19.83 0 35.923 16.025 36.061 35.853a51.924 51.924 0 0 1 13.664-1.82c1.514 0 3.01.066 4.49.192 1.138-6.867 8.253-12.327 14.072-13.283a69.73 69.73 0 0 0-9.287-22.445c-5.227 3.749-15.315 4.809-20.775-.66-5.461-5.468-4.402-15.57-.66-20.804A69.525 69.525 0 0 0 83.44 0c-1.042 6.353-7.428 14.251-15.152 14.251-7.724 0-14.11-7.898-15.153-14.251a69.53 69.53 0 0 0-22.413 9.3c3.743 5.235 4.802 15.336-.659 20.805-5.46 5.468-15.549 4.408-20.776.66A69.722 69.722 0 0 0 0 53.208c6.344 1.044 14.23 7.439 14.23 15.174 0 7.73-7.886 14.13-14.23 15.173A69.725 69.725 0 0 0 9.287 106c5.227-3.748 15.315-4.809 20.776.66 5.46 5.464 4.402 15.565.659 20.8a69.439 69.439 0 0 0 22.413 9.304c.955-5.827 6.407-12.953 13.264-14.092a53.514 53.514 0 0 1-.191-4.496c0-4.737.633-9.325 1.817-13.683-19.796-.138-35.803-16.255-35.803-36.111 0-19.95 16.149-36.116 36.066-36.116"/><path d="M156.35 109.758c.597 2.713.91 5.53.91 8.42 0 21.672-17.604 39.3-39.247 39.3-14.93 0-27.94-8.39-34.573-20.713v-.004a39.15 39.15 0 0 1-4.673-18.584 39.118 39.118 0 0 1 3.66-16.563 39.513 39.513 0 0 1 19.046-19.072 38.973 38.973 0 0 1 16.54-3.665c4.098 0 8.054.634 11.772 1.807a38.673 38.673 0 0 1 6.786 2.872h.005c3.705 2 7.052 4.575 9.92 7.61a304.124 304.124 0 0 1 6.37-5.393c-7.716-8.316-18.358-13.88-30.276-15.024a47.454 47.454 0 0 0-4.577-.22c-4.835 0-9.504.726-13.905 2.078-15.074 4.617-26.991 16.55-31.602 31.645a47.465 47.465 0 0 0-2.076 13.925c0 1.545.075 3.077.221 4.584 2.31 24.135 22.668 43.065 47.362 43.065 26.24 0 47.583-21.372 47.583-47.649 0-5.063-.792-9.943-2.259-14.522a297.641 297.641 0 0 0-6.986 6.103"/><path d="M118.05 124.672l-13.713-15.244-8.984 8.107 22.69 25.208 4.485-5.047c.242-.271 14.977-16.764 32.564-32.409a279.145 279.145 0 0 1 6.699-5.785 205.405 205.405 0 0 1 3.397-2.797c8.433-6.808 17.007-12.748 24.577-16.142l-4.935-11.05c-8.166 3.662-17.175 9.785-25.962 16.765a216.979 216.979 0 0 0-3.301 2.67 263.554 263.554 0 0 0-6.365 5.394c-13.24 11.542-24.974 23.702-31.151 30.33"/></g></svg>