<svg width="147" height="190" viewBox="0 0 147 190" xmlns="http://www.w3.org/2000/svg"><title>Medio ambiente</title><g fill="#FFF" fill-rule="evenodd"><path d="M73.358 69.882c19.285 0 34.919-15.643 34.919-34.94C108.277 15.643 92.643 0 73.358 0 54.074 0 38.44 15.644 38.44 34.941c0 19.298 15.634 34.941 34.918 34.941m33.764 95.336c-.019-.165-.038-.33-.065-.495a5.508 5.508 0 0 0-.057-.348 3.84 3.84 0 0 0-.057-.299l-.08-.39a.414.414 0 0 1-.016-.073c-.008-.039-.02-.073-.027-.111-.027-.1-.05-.2-.077-.3a8.855 8.855 0 0 0-.114-.424 8.224 8.224 0 0 0-.088-.288l-.058-.18c-.038-.119-.08-.237-.122-.356a10.324 10.324 0 0 0-.13-.352 9.48 9.48 0 0 0-.142-.35 5.49 5.49 0 0 0-.15-.34c-.06-.142-.13-.28-.198-.421l-.104-.207c-.034-.07-.073-.138-.11-.207a15.53 15.53 0 0 0-.544-.923 14.579 14.579 0 0 0-.345-.502c-.023-.031-.042-.062-.069-.092-.053-.08-.115-.157-.172-.234l-.176-.226a.65.65 0 0 1-.054-.069l-.061-.072c-.004-.008-.012-.012-.015-.02-.07-.08-.138-.165-.211-.24l-.057-.07-.02-.019a1.75 1.75 0 0 0-.118-.13 8.561 8.561 0 0 0-.402-.426c-.1-.1-.2-.195-.299-.287-.069-.065-.134-.127-.199-.184a9.221 9.221 0 0 1-.199-.172 4.867 4.867 0 0 0-.18-.15l-.1-.076a7.995 7.995 0 0 0-.32-.241 4.34 4.34 0 0 0-.345-.234c-.07-.043-.13-.084-.2-.123l-.015-.011a.026.026 0 0 0-.015-.008c-.103-.057-.203-.115-.306-.168l-.02-.012c-.072-.038-.149-.073-.222-.107a4.6 4.6 0 0 0-.777-.295c-.1-.027-.195-.054-.29-.077a6.049 6.049 0 0 0-.292-.06 3.277 3.277 0 0 0-.512-.05 3.206 3.206 0 0 0-.219-.009h-.019c-.164 0-.333 0-.497.016a4.43 4.43 0 0 0-.732.119 4.1 4.1 0 0 0-.206.053h-.008a14.23 14.23 0 0 1-.237.069 12.61 12.61 0 0 1-.234.08l-.053.02a6.733 6.733 0 0 0-.334.134c-.122.053-.24.107-.363.164-.042.02-.084.043-.127.062-.08.038-.16.08-.245.126l-.026.012c-.065.038-.13.072-.196.11-.084.05-.172.1-.26.154a12.114 12.114 0 0 0-.681.444c-.073.05-.146.104-.222.158-.065.046-.13.095-.2.149-.068.054-.141.107-.214.165a22.172 22.172 0 0 0-1.075.892l-.219.196c-.145.126-.29.26-.436.401a46.127 46.127 0 0 0-.666.636h-.004l-.448.445c-.153.153-.306.307-.455.46a25.562 25.562 0 0 0-.697.72c-.08.08-.157.16-.234.245-.137.142-.275.287-.413.437-.1.103-.2.21-.299.317-.092.096-.18.192-.268.288-.122.126-.24.257-.363.387a63.48 63.48 0 0 0-.219.23l-.624.67c-.168.18-.336.356-.505.54-.934.996-1.91 2.023-2.936 3.05-.21.21-.421.417-.628.62-.164.16-.325.322-.49.479-.191.183-.379.368-.566.548a107.903 107.903 0 0 1-1.236 1.168c-.131.126-.265.252-.399.375-.322.303-.64.598-.953.893-.115.107-.23.214-.34.314a1152.134 1152.134 0 0 1-.547.521c-.078.069-.15.138-.227.21-.349.33-.69.652-1.018.97-.08.076-.161.157-.238.23-.08.076-.157.156-.237.233l-.23.226c-.092.088-.18.18-.268.268a55.224 55.224 0 0 0-1.041 1.076 36.32 36.32 0 0 0-.789.877c-.122.142-.24.288-.36.43-.038.046-.072.092-.11.138-.05.057-.096.115-.138.172l-.004.004c-.012.016-.023.027-.035.042 0 .004 0 .004-.003.008a.793.793 0 0 0-.05.065c-.05.065-.1.127-.146.191-.007.008-.011.016-.019.024-.092.122-.184.245-.268.367-.126.18-.245.36-.36.536-.59-.93-1.37-1.872-2.281-2.854a55.224 55.224 0 0 0-1.041-1.076c-1.516-1.524-3.296-3.133-5.15-4.891-.18-.169-.36-.345-.543-.517a114.057 114.057 0 0 1-1.684-1.648c-1.443-1.444-2.79-2.892-4.058-4.252a29.383 29.383 0 0 0-.616-.655 936.515 936.515 0 0 0-.716-.762 27.986 27.986 0 0 0-.471-.494 54.01 54.01 0 0 1-.463-.483c-.138-.146-.28-.287-.418-.425a55.153 55.153 0 0 0-.945-.935c-.077-.072-.15-.146-.222-.21a27.74 27.74 0 0 0-1.263-1.138c-.085-.073-.173-.146-.26-.219-.104-.087-.211-.168-.315-.253-.007-.003-.011-.01-.019-.015-.13-.1-.256-.199-.386-.294-.1-.074-.2-.146-.299-.215a11.559 11.559 0 0 0-1.091-.693s-.004 0-.004-.004c-.103-.054-.207-.111-.31-.161a8.786 8.786 0 0 0-.62-.287c-.103-.042-.207-.08-.31-.12l-.207-.068c-.31-.1-.62-.172-.93-.219a4.26 4.26 0 0 0-.31-.034 7.157 7.157 0 0 0-.414-.015c-.13 0-.264.007-.398.015a4.78 4.78 0 0 0-.402.046v.004a3.719 3.719 0 0 0-.29.057c-.096.023-.192.05-.292.077a4.6 4.6 0 0 0-.777.295c-.072.034-.149.069-.222.107a5.674 5.674 0 0 0-.34.188c-.073.042-.142.088-.215.134a4.34 4.34 0 0 0-.344.234 7.995 7.995 0 0 0-.322.241 4.819 4.819 0 0 0-.28.226 11.859 11.859 0 0 0-1.217 1.199c-.126.138-.245.28-.363.421-.016.023-.035.046-.054.07a9.87 9.87 0 0 0-.348.459c-.027.03-.046.06-.07.092a11.17 11.17 0 0 0-.57.866c-.03.045-.057.091-.084.137a.423.423 0 0 0-.03.058 4.906 4.906 0 0 0-.157.276c-.035.057-.062.11-.092.168a9.8 9.8 0 0 0-.18.353l-.15.31c-.034.077-.068.15-.099.226-.103.23-.2.463-.283.697a3.293 3.293 0 0 0-.092.253c-.096.257-.18.517-.253.782-.042.141-.08.283-.115.424-.076.28-.141.564-.195.847-.023.107-.042.219-.061.326a5.05 5.05 0 0 0-.058.348c-.026.165-.05.33-.065.498a5.549 5.549 0 0 0-.05.433 16.918 16.918 0 0 0-.065 2.073c.004.115.008.233.016.352.004.096.007.192.015.284a19.66 19.66 0 0 0 .766 4.301c.034.115.069.226.103.337.16.518.34 1.035.544 1.548.05.13.103.256.157.387a22.73 22.73 0 0 0 1.523 3.03c.111.188.226.375.345.559.191.307.39.61.6.908a15.317 15.317 0 0 0 .325.456c.196.268.4.536.61.8.119.154.245.307.371.46.077.092.157.188.238.28.436.513.9 1.015 1.385 1.501a24.826 24.826 0 0 0 1.325 1.238c.302.264.605.517.915.758.141.115.283.226.429.333.321.25.65.483.98.71.16.11.321.217.482.321.16.103.321.207.482.306a22.854 22.854 0 0 0 1.474.843 21.691 21.691 0 0 0 1.5.724c.338.145.674.284 1.011.414.337.126.678.249 1.019.36.509.165 1.018.31 1.53.437.85.21 1.7.36 2.543.456a17.583 17.583 0 0 0 2.002.111h.004c.199 0 .39-.005.59-.012h.022c.31-.012.616-.03.919-.058.15-.015.298-.03.444-.05a14.752 14.752 0 0 0 2.622-.544c.142-.042.283-.083.421-.133a13.444 13.444 0 0 0 2.4-1.073c.096-.053.188-.11.284-.168.069-.039.138-.085.207-.127.222-.141.444-.287.658-.444a11.309 11.309 0 0 0 .8-.624h.004l.157-.143a9.73 9.73 0 0 0 .635-.59 10.49 10.49 0 0 0 1.022-1.171c.288.387.628.777 1.023 1.172.206.206.417.406.635.59.054.05.103.095.157.142h.004a11.309 11.309 0 0 0 .8.624c.214.157.436.303.658.444.07.042.138.088.207.127.096.057.188.115.283.168.004.004.008.004.012.008.157.088.317.176.478.257.165.088.333.168.502.244a12.098 12.098 0 0 0 1.03.43c.126.05.252.092.379.134.137.05.279.091.42.134a14.712 14.712 0 0 0 2.622.544c.127.015.257.03.388.042.019.004.038.004.057.007.302.027.609.046.919.058h.023c.199.007.39.012.59.012h.003a17.583 17.583 0 0 0 2.507-.177c.142-.02.284-.038.425-.065a.881.881 0 0 0 .142-.023 7.59 7.59 0 0 0 .398-.069 21.88 21.88 0 0 0 1.838-.437c.126-.038.256-.076.382-.115.127-.038.257-.076.383-.118.34-.111.682-.234 1.019-.36.336-.13.673-.269 1.01-.414a21.5 21.5 0 0 0 1.5-.724 22.854 22.854 0 0 0 1.475-.843c.16-.1.321-.203.482-.306.16-.104.322-.21.482-.322.33-.226.659-.46.98-.709.146-.107.287-.218.429-.333.31-.241.613-.494.915-.758.111-.096.222-.196.333-.296a24.825 24.825 0 0 0 1.527-1.497c.088-.092.177-.184.26-.28.089-.095.173-.188.257-.283.115-.127.222-.257.333-.383.08-.092.161-.188.238-.28.126-.153.252-.306.37-.46a23.62 23.62 0 0 0 .92-1.237c.007-.007.011-.011.015-.02a24.458 24.458 0 0 0 1.114-1.754 12.1 12.1 0 0 0 .276-.498c.057-.099.11-.198.164-.298.184-.345.356-.693.517-1.042l.15-.326c.003-.003.003-.011.007-.015.042-.092.08-.184.119-.272.042-.1.08-.195.122-.291.042-.096.08-.196.123-.292l.011-.034c.008-.015.012-.034.02-.05 0-.003.003-.007.003-.011.046-.111.084-.218.126-.33.062-.16.12-.321.177-.486.057-.16.11-.322.164-.486l.138-.43c.027-.103.057-.202.088-.306.023-.08.042-.165.065-.245.057-.21.111-.421.16-.636.035-.142.066-.288.097-.429a16.05 16.05 0 0 0 .234-1.283c.018-.13.037-.257.053-.387l.046-.391c.026-.26.05-.517.065-.774.007-.092.011-.184.015-.275.008-.123.011-.246.015-.364.004-.17.008-.334.008-.498a17 17 0 0 0-.069-1.537c-.015-.156-.03-.317-.054-.474"/><path d="M100.561 124.104c-1.689 2.656-5.365 3.34-8.25 4.12a.4.4 0 0 1-.463-.204c-1.277-2.46-6.314-10.36-7.431-12.107a.404.404 0 0 1 .126-.56l9.789-6.127.27-.157a.404.404 0 0 1 .551.145l5.913 10.041c.855 1.461.348 3.51-.505 4.849zm-1.927 5.846l-5.55 10.603s-.84 2.093-3.169 2.306c-1.92.172-5.5.32-6.702.368a.402.402 0 0 0-.385.424l.166 3.366c.021.416-.524.588-.745.235l-6.512-10.378a.404.404 0 0 1-.007-.419l6.017-10.353c.204-.35.737-.217.754.187l.162 3.883a.404.404 0 0 0 .363.386c1.783.18 9.995.866 15.104-1.17a.402.402 0 0 1 .504.562zm-23.213-20.347l3.371-1.933a.404.404 0 0 0 .175-.5c-.661-1.667-3.834-9.279-7.994-12.88a.402.402 0 0 1 .267-.706l11.961.05s2.247-.22 3.504 1.753c1.039 1.626 2.818 4.737 3.413 5.784.112.195.36.26.554.147l2.91-1.699c.36-.21.764.196.553.555l-6.21 10.563a.404.404 0 0 1-.369.199l-11.953-.578c-.404-.02-.532-.555-.182-.755zm-2.746-9.106c-1.595 2.268-6.301 10.386-7.339 12.18a.403.403 0 0 1-.555.146l-9.943-5.874-.264-.168a.404.404 0 0 1-.126-.556l6.207-9.88c.902-1.432 2.952-1.926 4.533-1.784 3.135.278 5.435 3.23 7.455 5.433a.4.4 0 0 1 .032.503zm-1.36 42.581l-.023.313a.405.405 0 0 1-.428.375l-11.935-.729c-1.689-.116-3.092-1.692-3.716-3.151-1.24-2.895.271-6.32 1.255-9.143a.4.4 0 0 1 .428-.268c2.771.33 12.385.586 14.492.639a.404.404 0 0 1 .394.42l-.468 11.544zm-19.528-8.136l-5.615-10.568s-1.255-1.875-.115-3.919c.94-1.683 2.837-4.726 3.477-5.746.12-.19.06-.44-.132-.558l-2.873-1.76c-.355-.218-.189-.766.227-.75l12.239.476c.15.006.285.095.349.23l5.146 10.812c.174.365-.236.731-.58.518l-3.296-2.058a.403.403 0 0 0-.522.082c-1.155 1.372-6.355 7.772-7.557 13.142a.402.402 0 0 1-.748.1zm34.855-59.879H60.075C26.896 75.063 0 101.977 0 135.178v11.963c0 17.835 14.447 32.292 32.271 32.292h5.436c-1.623-3.007-2.668-6.229-3.051-9.488-.51-4.352.18-8.428 1.964-11.895a19.84 19.84 0 0 1-6.925-5.286c-9.07-10.768-5.41-28.883-5.249-29.649a2.483 2.483 0 0 1 2.944-1.927 2.487 2.487 0 0 1 1.926 2.942c-.016.077-.743 3.7-.743 8.447 0 5.4.942 12.254 4.938 16.992 1.608 1.908 3.633 3.348 6.06 4.318.115-.12.23-.238.345-.353.991-.992 2.021-1.789 3.09-2.383 0 0 2.487-2.077 5.734-1.317.434.101.867.155 1.294.176 4.573.912 8.236 4.833 12.395 9.285 1.198 1.284 2.439 2.61 3.752 3.923 1.309 1.31 2.633 2.551 3.916 3.75a146.755 146.755 0 0 1 3.261 3.11 146.528 146.528 0 0 1 3.262-3.11 165.197 165.197 0 0 0 3.92-3.75c1.31-1.314 2.55-2.64 3.748-3.923 4.543-4.864 8.494-9.097 13.689-9.461 0 0 3.941.1 5.735 1.317 1.068.594 2.097 1.391 3.089 2.383.115.115.23.233.344.353 2.431-.973 4.46-2.418 6.072-4.33 7.526-8.936 4.218-25.258 4.184-25.423a2.488 2.488 0 1 1 4.87-1.019c.16.766 3.82 18.881-5.25 29.649a19.84 19.84 0 0 1-6.924 5.286c1.784 3.463 2.473 7.543 1.964 11.895-.383 3.26-1.428 6.481-3.051 9.488h5.436c17.823 0 32.27-14.457 32.27-32.292v-11.963c0-33.2-26.896-60.115-60.074-60.115z"/></g></svg>