<svg width="147" height="179" viewBox="0 0 147 179" xmlns="http://www.w3.org/2000/svg" xmlns:xlink="http://www.w3.org/1999/xlink"><title>Honestidad</title><defs><path id="a" d="M0 103.491V.034h146.526v103.457H0z"/><path id="c" d="M.14.053h69.746v69.668H.141V.053z"/></defs><g fill="none" fill-rule="evenodd"><g transform="translate(0 75.179)"><mask id="b" fill="#fff"><use xlink:href="#a"/></mask><path d="M94.657.034H51.868C23.222.034 0 23.23 0 51.845v34.973a15.5 15.5 0 0 0 1.116 5.786 14.95 14.95 0 0 0 .513 1.336 15.652 15.652 0 0 0 3.414 4.98c.279.275.57.539.871.798h.004c.6.508 1.235.967 1.9 1.383h.004c.333.206.67.397 1.017.58h.004a15.931 15.931 0 0 0 7.363 1.81c1.916 0 3.862-.347 5.754-1.08l.187-.073 7.452-2.89 4.97-1.933 57.576-22.348c6.293-2.444 10.147-8.444 10.147-14.806a15.85 15.85 0 0 0-1.086-5.747 15.937 15.937 0 0 0-2.837-4.694 15.808 15.808 0 0 0-3.104-2.726 15.934 15.934 0 0 0-8.881-2.711 15.737 15.737 0 0 0-3.965.507h-.004a16.183 16.183 0 0 0-1.785.577L34.569 63.443l-4.97 1.928V45.002a2.484 2.484 0 0 1 2.485-2.483 2.484 2.484 0 0 1 2.485 2.483v13.117l44.26-17.18a20.837 20.837 0 0 1 19.207 2.135 20.745 20.745 0 0 1 7.804 9.741 20.684 20.684 0 0 1-.356 15.951 20.714 20.714 0 0 1-11.538 11.03l-58.081 22.542h78.481V45.002a2.484 2.484 0 0 1 2.485-2.483 2.484 2.484 0 0 1 2.485 2.483v57.336h11.672c8.58 0 15.538-6.95 15.538-15.52V51.845c0-28.615-23.222-51.81-51.869-51.81" fill="#FFF" mask="url(#b)"/></g><g transform="translate(40.525 .329)"><mask id="d" fill="#fff"><use xlink:href="#c"/></mask><path d="M35.013 69.72c19.26 0 34.873-15.595 34.873-34.833S54.273.053 35.013.053C15.753.053.141 15.649.141 34.887c0 19.238 15.613 34.834 34.872 34.834" fill="#FFF" mask="url(#d)"/></g></g></svg>