<svg width="1280" height="740" viewBox="0 0 1280 740" xmlns="http://www.w3.org/2000/svg"><title>WE ARE</title><g fill="#88D43B" fill-rule="evenodd"><path d="M0 0h1280v740H0V0zm288.18 291.24l26.18 71.06L295 412.24 250.56 290.8H218L281.14 447h25.52l27.06-65.56L360.78 447h25.52l63.58-156.2h-33l-44.22 121.44-19.8-49.94 26.62-71.06h-28.16l-17.6 51.7-17.6-51.7h-27.94zM574.4 420.38h-78.1v-40.7h65.78v-24.64H496.3v-37.62h76.12V290.8H465.94V447H574.4v-26.62zm121-129.58L635.78 447h31.24l14.3-38.94h54.56L750.4 447h31.24l-59.4-156.2H695.4zM798.8 447h30.36v-52.36h29.92l31.9 52.36h34.1l-35.64-58.74c8.653-3.667 15.51-9.643 20.57-17.93 5.06-8.287 7.59-17.49 7.59-27.61 0-6.307-1.247-12.577-3.74-18.81-2.493-6.233-5.94-11.807-10.34-16.72-4.4-4.913-9.643-8.873-15.73-11.88-6.087-3.007-12.723-4.51-19.91-4.51H798.8V447zm254.76-26.62h-78.1v-40.7h65.78v-24.64h-65.78v-37.62h76.12V290.8H945.1V447h108.46v-26.62z"/><path d="M730.38 386.72l-21.56-61.38-22.44 61.38zm98.78-18.7h38.06c2.787 0 5.39-.66 7.81-1.98 2.42-1.32 4.51-3.117 6.27-5.39 1.76-2.273 3.153-4.95 4.18-8.03 1.027-3.08 1.54-6.38 1.54-9.9 0-3.667-.587-7.04-1.76-10.12-1.173-3.08-2.75-5.757-4.73-8.03-1.98-2.273-4.253-4.033-6.82-5.28-2.567-1.247-5.17-1.87-7.81-1.87h-36.74v50.6z"/></g></svg>