<?xml version="1.0" encoding="UTF-8" standalone="no"?>
<svg width="641px" height="220px" viewBox="0 0 641 220" version="1.1" xmlns="http://www.w3.org/2000/svg" xmlns:xlink="http://www.w3.org/1999/xlink">
    <!-- Generator: Sketch 46 (44423) - http://www.bohemiancoding.com/sketch -->
    <title>Slogan hero</title>
    <desc>Created with Sketch.</desc>
    <defs>
        <filter x="-1.1%" y="-2.4%" width="102.2%" height="106.6%" filterUnits="objectBoundingBox" id="filter-1">
            <feOffset dx="0" dy="2" in="SourceAlpha" result="shadowOffsetOuter1"></feOffset>
            <feGaussianBlur stdDeviation="2" in="shadowOffsetOuter1" result="shadowBlurOuter1"></feGaussianBlur>
            <feColorMatrix values="0 0 0 0 0   0 0 0 0 0   0 0 0 0 0  0 0 0 0.7 0" type="matrix" in="shadowBlurOuter1" result="shadowMatrixOuter1"></feColorMatrix>
            <feMerge>
                <feMergeNode in="shadowMatrixOuter1"></feMergeNode>
                <feMergeNode in="SourceGraphic"></feMergeNode>
            </feMerge>
        </filter>
        <polygon id="path-2" points="0 112.8257 0 0.416201792 61.5007756 0.416201792 61.5007756 112.8257"></polygon>
        <polygon id="path-4" points="53.251 0.8983 53.251 63.0463 0.508 63.0463 0.508 0.8983 53.251 0.8983"></polygon>
    </defs>
    <g id="1-Inicio" stroke="none" stroke-width="1" fill="none" fill-rule="evenodd">
        <g id="1.3-Slider-General" transform="translate(-319.000000, -322.000000)">
            <g id="Slogan-hero" filter="url(#filter-1)" transform="translate(323.000000, 324.000000)">
                <path d="M44.1358,19.9531 C45.3258,14.0121 45.8678,10.0091 46.1908,7.3091 C46.5168,4.0681 49.4318,1.0411 53.7568,1.1491 L56.1338,1.1491 C59.9178,1.0411 62.8368,4.0681 62.0798,6.8751 C61.2158,9.7941 60.1328,14.8761 58.8378,21.3591 C56.6758,33.3581 54.1868,46.9741 52.0288,58.9721 C50.9458,64.5911 50.4078,68.3741 50.0808,71.0781 C49.7588,74.4281 46.1908,77.0251 41.7588,77.0251 L39.8148,77.0251 C35.9198,77.1321 33.0048,74.3211 33.7608,71.4021 C34.4108,69.3511 34.9478,67.0801 35.8128,63.4051 C35.9198,62.7551 36.1388,62.1071 36.2458,61.4571 L36.5688,60.1621 C36.6768,59.7291 36.6768,59.4071 36.7878,58.9721 L44.1358,19.9531 Z" id="Fill-1" fill="#FFFFFF"></path>
                <path d="M85.6353,16.9267 C86.1733,16.9267 86.7153,16.8187 87.2563,16.8187 C88.6623,16.8187 89.9563,16.8187 91.0393,16.7117 C94.2813,16.3887 96.8743,18.5517 96.4433,20.7097 C95.7943,23.0877 92.6603,24.6007 89.0923,24.6007 C87.0413,24.4927 85.3083,24.4927 83.7963,24.4927 C83.6883,25.0347 83.5803,25.3577 83.4733,26.0067 C82.9313,28.6027 82.2823,31.8447 81.6373,35.0857 C81.0953,38.0057 80.4473,41.2467 79.9053,44.1657 C79.4753,46.6517 78.9333,48.9217 78.6113,50.5417 C77.4203,56.1607 76.5553,61.0277 76.5553,64.1617 C76.5553,68.1597 78.2843,69.7807 80.6613,69.7807 C81.3103,69.7807 82.0673,69.6737 82.9313,69.4577 C85.8503,69.0237 88.6623,70.8637 88.3353,72.6997 C87.6863,75.3997 84.8793,77.7817 80.9883,78.3187 C80.2313,78.4267 78.9333,78.4267 78.1763,78.4267 C70.9363,78.4267 66.2893,76.3757 64.6643,74.1057 C63.0443,71.7277 62.1793,69.7807 62.1793,67.6187 C62.1793,65.5667 62.6133,63.1897 63.1553,60.1627 L69.9613,24.2777 C67.8023,23.8437 66.0703,22.3307 66.3973,20.6027 C66.7193,18.4397 68.7743,16.7117 71.5813,16.7117 C72.1233,14.0117 72.3383,11.7417 72.5573,9.5787 C72.8803,6.1187 76.1213,3.0917 80.7693,2.0127 C84.5523,1.2557 88.5543,3.3107 87.7983,6.1187 C86.7153,9.6867 86.0653,12.2797 85.3083,16.9267 L85.6353,16.9267 Z" id="Fill-3" fill="#FFFFFF"></path>
                <path d="M110.9195,15.6323 C109.5135,17.2533 106.9175,18.1173 104.0025,18.1173 C101.9475,18.1173 100.0005,16.6043 100.8685,15.4133 C104.3245,10.7663 106.5945,6.1183 107.6735,1.2563 C107.8935,0.3923 109.7285,0.2843 111.2425,0.4993 L111.6765,0.4993 C111.8915,0.4993 111.9995,0.6073 112.4325,0.6073 L113.2965,0.6073 C113.9465,0.6073 115.1325,0.6073 116.1045,0.4993 C118.7015,0.6073 121.5085,2.6623 120.6445,4.2823 C118.8085,7.4173 115.7815,10.6583 110.9195,15.6323" id="Fill-5" fill="#FFFFFF"></path>
                <path d="M128.0997,49.893 C124.7457,47.949 118.3707,44.059 118.3707,37.141 C118.3707,31.303 122.3687,25.899 127.6657,21.685 C133.1767,17.576 141.6077,16.819 146.0397,16.819 C149.2817,16.819 151.5517,17.038 153.4987,17.576 L153.3917,17.576 C156.9557,18.332 158.7957,21.467 157.7117,23.956 C156.9557,25.684 154.7927,26.548 152.4157,26.548 C151.0147,26.548 149.7157,26.333 148.7447,25.791 L148.8517,25.791 C147.2307,25.035 145.3907,24.493 143.5547,24.493 C136.6377,24.493 132.9617,29.682 132.9617,33.788 C132.9617,38.87 136.4227,40.813 139.9867,42.868 L145.3907,46.221 C148.8517,48.272 154.1477,51.513 154.1477,57.893 C154.1477,62.54 151.7707,68.702 144.9607,73.671 C138.5807,78.319 130.5847,78.645 125.6147,78.645 C122.6957,78.645 119.6687,78.319 117.6137,77.888 C113.8307,76.914 111.2377,74.106 111.8877,71.728 C113.2887,68.16 117.6137,66.862 120.9627,68.482 L120.8557,68.482 C122.9107,69.457 125.3957,70.214 129.1787,70.214 C136.3107,70.214 140.0947,65.674 140.0947,61.35 C140.0947,57.137 137.5017,55.404 134.7977,53.784 L128.0997,49.893 Z" id="Fill-7" fill="#FFFFFF"></path>
                <path d="M224.2774,25.5761 C222.3304,24.9271 219.9524,24.1711 217.3604,24.1711 C200.9334,24.1711 196.6084,47.3001 196.6084,56.1601 C196.6084,63.5121 198.6624,68.8091 204.0674,68.8091 C207.2014,68.8091 211.1994,67.0801 214.8754,61.6761 C217.7944,57.6741 219.6304,51.4061 221.4654,40.5971 L224.2774,25.5761 Z M232.4924,18.5511 C236.3834,17.3601 239.8404,20.3871 239.3024,23.3061 C238.5464,26.8701 237.3554,32.3861 235.5194,42.3261 L233.5724,52.9191 C232.0594,61.7841 231.1944,69.2391 231.1944,72.3771 C231.1944,75.0771 227.6264,77.0251 223.9554,77.1321 C220.1714,77.2401 216.9254,74.9691 217.1454,72.2651 C217.2524,70.4291 217.5754,67.9451 218.0094,65.6741 C213.5764,71.7281 207.8504,78.3191 199.4194,78.3191 C190.4474,78.3191 181.5824,72.4851 181.5824,60.1621 C181.5824,55.1891 184.5014,35.5201 200.2834,22.9801 C202.8764,21.0361 209.1444,16.9271 219.1954,16.9271 C224.2774,16.9271 227.6264,18.0101 230.7604,19.1961 L232.4924,18.5511 Z" id="Fill-9" fill="#FFFFFF"></path>
                <path d="M255.8257,77.6694 C243.7197,77.5624 242.5327,70.2144 242.8547,64.7024 C242.9627,62.6484 243.2847,60.1624 243.6117,58.3234 C243.6117,58.2154 243.7197,58.1074 243.7197,58.0004 C243.9347,56.8104 244.0417,55.7314 244.0417,55.2964 C244.1537,54.6484 244.2617,54.1094 244.3677,53.6764 C244.4757,53.2454 244.5837,52.7034 244.5837,52.3814 C244.6907,51.7324 244.9097,51.0834 245.0177,50.2194 C245.4477,47.8414 246.2037,43.1944 248.5817,29.2484 C250.5297,18.0094 251.6087,10.3364 251.5007,6.8754 C251.3927,4.3904 253.0137,1.2554 256.7977,0.9334 C257.7687,0.8224 258.7447,0.6064 260.1467,0.2844 C263.8227,-0.6916 267.3897,1.9054 267.1757,4.8244 C266.6337,7.5244 265.9847,10.7664 265.2277,15.3054 C265.1207,16.0624 265.0127,16.9264 264.7937,17.7944 C264.4717,19.4164 264.0407,21.2514 263.7147,23.1984 C262.9577,27.8464 262.0937,32.9234 261.2297,37.6784 C260.3657,42.5444 259.6087,47.4074 258.7447,52.1624 C258.6337,52.5974 258.6337,53.0264 258.5257,53.4604 C258.4177,54.5394 258.2027,56.0534 257.9887,56.9174 C257.9887,57.1374 257.8767,57.5664 257.8767,57.7854 C257.2317,61.3504 256.6897,65.0254 257.4467,67.2954 C257.4467,67.2954 258.2027,70.1074 259.5017,70.2144 C261.1217,70.2144 261.9867,69.9954 263.4997,69.4574 C263.6067,69.4574 264.2567,69.2384 264.5787,69.1314 C267.3897,68.1594 269.9827,70.3224 269.1187,72.5924 C268.1467,75.0774 265.0127,76.8054 261.3377,77.3474 C259.7167,77.5624 257.6617,77.6694 255.8257,77.6694" id="Fill-11" fill="#FFFFFF"></path>
                <path d="M286.7286,77.6694 C274.6226,77.5624 273.4356,70.2144 273.7586,64.7024 C273.8656,62.6484 274.1876,60.1624 274.5146,58.3234 C274.5146,58.2154 274.6226,58.1074 274.6226,58.0004 C274.8376,56.8104 274.9446,55.7314 274.9446,55.2964 C275.0566,54.6484 275.1646,54.1094 275.2716,53.6764 C275.3786,53.2454 275.4866,52.7034 275.4866,52.3814 C275.5946,51.7324 275.8126,51.0834 275.9206,50.2194 C276.3506,47.8414 277.1066,43.1944 279.4846,29.2484 C281.4326,18.0094 282.5116,10.3364 282.4036,6.8754 C282.2966,4.3904 283.9176,1.2554 287.7006,0.9334 C288.6726,0.8224 289.6476,0.6064 291.0496,0.2844 C294.7256,-0.6916 298.2936,1.9054 298.0786,4.8244 C297.5366,7.5244 296.8876,10.7664 296.1316,15.3054 C296.0236,16.0624 295.9166,16.9264 295.6966,17.7944 C295.3746,19.4164 294.9446,21.2514 294.6176,23.1984 C293.8606,27.8464 292.9966,32.9234 292.1326,37.6784 C291.2686,42.5444 290.5126,47.4074 289.6476,52.1624 C289.5366,52.5974 289.5366,53.0264 289.4286,53.4604 C289.3216,54.5394 289.1056,56.0534 288.8916,56.9174 C288.8916,57.1374 288.7796,57.5664 288.7796,57.7854 C288.1346,61.3504 287.5926,65.0254 288.3496,67.2954 C288.3496,67.2954 289.1056,70.1074 290.4046,70.2144 C292.0256,70.2144 292.8896,69.9954 294.4026,69.4574 C294.5106,69.4574 295.1596,69.2384 295.4816,69.1314 C298.2936,68.1594 300.8856,70.3224 300.0216,72.5924 C299.0506,75.0774 295.9166,76.8054 292.2406,77.3474 C290.6196,77.5624 288.5646,77.6694 286.7286,77.6694" id="Fill-13" fill="#FFFFFF"></path>
                <path d="M369.399,25.5761 C367.451,24.9271 365.074,24.1711 362.481,24.1711 C346.054,24.1711 341.729,47.3001 341.729,56.1601 C341.729,63.5121 343.784,68.8091 349.188,68.8091 C352.322,68.8091 356.321,67.0801 359.996,61.6761 C362.916,57.6741 364.751,51.4061 366.586,40.5971 L369.399,25.5761 Z M377.614,18.5511 C381.504,17.3601 384.962,20.3871 384.424,23.3061 C383.668,26.8701 382.476,32.3861 380.64,42.3261 L378.694,52.9191 C377.18,61.7841 376.316,69.2391 376.316,72.3771 C376.316,75.0771 372.748,77.0251 369.076,77.1321 C365.293,77.2401 362.047,74.9691 362.266,72.2651 C362.374,70.4291 362.696,67.9451 363.13,65.6741 C358.698,71.7281 352.971,78.3191 344.541,78.3191 C335.569,78.3191 326.704,72.4851 326.704,60.1621 C326.704,55.1891 329.623,35.5201 345.405,22.9801 C347.998,21.0361 354.265,16.9271 364.317,16.9271 C369.399,16.9271 372.748,18.0101 375.881,19.1961 L377.614,18.5511 Z" id="Fill-15" fill="#FFFFFF"></path>
                <path d="M409.4849,34.8711 C404.2969,43.4091 402.3519,60.1631 401.0539,71.2931 C402.7829,71.6211 404.0809,71.8351 405.7019,71.8351 C425.4819,71.8351 427.8599,45.5721 427.8599,39.4111 C427.8599,32.6011 425.9129,26.6551 420.4009,26.6551 C416.5089,26.6551 412.5119,30.0041 409.4849,34.8711 L409.4849,34.8711 Z M392.7309,36.0581 C394.7869,24.4931 396.4069,15.0911 396.4069,9.0381 C396.4069,8.1731 396.2989,7.3091 396.1919,6.6601 C395.9729,4.0681 397.8129,1.3641 401.7039,0.8221 C402.7829,0.7141 403.8659,0.4991 405.1599,0.1771 C408.9439,-0.5799 413.3759,1.1491 412.7269,4.2831 C412.5119,5.1471 412.2969,6.1191 412.0779,7.4171 C411.8629,8.1731 411.6469,9.5791 411.5399,10.5511 C411.2139,12.2791 410.7829,14.5491 410.2419,17.2531 C409.9149,19.3041 409.5919,21.7931 409.1589,23.9551 C408.9439,24.9271 408.7279,25.8991 408.6209,26.8711 C412.4039,22.1161 417.8079,17.0381 424.8329,17.0381 C434.0199,17.0381 442.7729,22.7651 442.7729,35.7351 C442.7729,39.6261 442.1249,43.6241 441.1529,47.4081 C436.1819,65.7831 423.1049,78.8601 402.1329,78.8601 C397.2709,78.8601 393.8139,78.4261 391.1099,77.6691 L391.2179,77.6691 C386.6779,76.5901 385.2719,72.4851 386.1399,69.1311 C386.8969,66.3241 387.6539,62.8631 388.9479,56.4881 L392.7309,36.0581 Z" id="Fill-17" fill="#FFFFFF"></path>
                <path d="M485.2369,26.978 C483.9429,25.791 481.7809,24.171 478.6469,24.171 C463.1909,24.171 459.4079,49.136 459.4079,57.567 C459.4079,67.725 463.7289,71.293 468.7029,71.293 C485.7789,71.293 488.1569,42.111 488.1569,36.922 C488.1569,34.222 488.0499,29.575 485.2369,26.978 M497.5589,22.442 C503.1819,28.061 503.3969,34.33 503.3969,37.356 C503.3969,54.217 492.4809,78.538 467.7309,78.538 C461.4589,78.538 455.2979,76.805 451.0849,73.022 C448.4879,70.538 444.3829,65.783 444.3829,56.272 C444.3829,38.87 455.9469,16.819 480.2669,16.819 C487.9409,16.819 493.9949,18.659 497.5589,22.442" id="Fill-19" fill="#FFFFFF"></path>
                <path d="M522.4048,51.4057 C521.2148,56.9177 520.7838,59.4067 520.7838,61.7837 C520.7838,65.7827 522.1858,69.1317 526.4028,69.1317 C528.2388,69.1317 533.8618,68.2667 538.3978,61.0277 L538.2908,61.0277 C540.5598,57.0287 543.1568,46.9737 544.6708,38.6547 C545.8568,32.3857 546.3988,28.1687 546.5058,25.4647 C546.6138,22.3307 549.2098,19.4157 553.2088,18.6587 C553.3158,18.6587 553.7458,18.6587 553.9658,18.5517 L553.7458,18.7667 C554.2878,18.4397 555.2588,18.2247 555.8008,18.2247 C559.1498,17.7947 562.8258,20.1727 562.3948,22.5497 C560.8828,27.9537 559.2608,34.9787 557.5288,44.9227 C554.8298,59.8367 553.8578,67.0807 553.8578,71.0787 L553.8578,71.9427 C553.9658,74.8617 550.5048,77.2397 546.6138,77.2397 C542.5078,77.2397 538.9398,74.5357 539.1548,71.4017 L539.1548,69.8877 C537.8598,71.7277 536.4548,73.2417 534.5078,74.6427 C529.6448,77.8877 522.9418,78.4267 521.2148,78.4267 C512.9988,78.4267 505.6508,74.5357 505.6508,66.6467 C505.6508,65.1337 505.8658,63.6197 506.5148,59.6217 L511.9198,30.9807 C512.3528,28.9257 512.5678,27.1977 512.6758,25.8987 C512.8908,23.0877 514.5108,19.8457 518.7288,19.0897 L518.5138,19.0897 C518.7288,18.9817 519.1588,18.9817 519.5928,18.9817 C519.7008,18.9817 520.0268,18.8737 520.1348,18.8737 L519.9158,18.8737 C520.2428,18.7667 520.7838,18.6587 521.3218,18.6587 C524.9978,18.2247 528.7808,20.8177 528.2388,23.6297 C527.1598,27.9537 526.6178,30.0047 525.8608,33.6807 C525.7548,34.2217 525.5388,34.9787 525.4308,35.6277 L522.4048,51.4057 Z" id="Fill-21" fill="#FFFFFF"></path>
                <path d="M588.7545,16.9267 C589.2925,16.9267 589.8335,16.8187 590.3755,16.8187 C591.7815,16.8187 593.0755,16.8187 594.1585,16.7117 C597.4005,16.3887 599.9935,18.5517 599.5635,20.7097 C598.9135,23.0877 595.7795,24.6007 592.2115,24.6007 C590.1605,24.4927 588.4285,24.4927 586.9145,24.4927 C586.8075,25.0347 586.6995,25.3577 586.5925,26.0067 C586.0505,28.6027 585.4015,31.8447 584.7565,35.0857 C584.2145,38.0057 583.5665,41.2467 583.0245,44.1657 C582.5945,46.6517 582.0525,48.9217 581.7305,50.5417 C580.5395,56.1607 579.6755,61.0277 579.6755,64.1617 C579.6755,68.1597 581.4035,69.7807 583.7805,69.7807 C584.4305,69.7807 585.1875,69.6737 586.0505,69.4577 C588.9695,69.0237 591.7815,70.8637 591.4545,72.6997 C590.8055,75.3997 587.9985,77.7817 584.1085,78.3187 C583.3515,78.4267 582.0525,78.4267 581.2955,78.4267 C574.0565,78.4267 569.4085,76.3757 567.7835,74.1057 C566.1625,71.7277 565.2985,69.7807 565.2985,67.6187 C565.2985,65.5667 565.7335,63.1897 566.2705,60.1627 L573.0805,24.2777 C570.9225,23.8437 569.1895,22.3307 569.5165,20.6027 C569.8385,18.4397 571.8935,16.7117 574.7005,16.7117 C575.2425,14.0117 575.4575,11.7417 575.6775,9.5787 C575.9995,6.1187 579.2405,3.0917 583.8885,2.0127 C587.6715,1.2557 591.6735,3.3107 590.9175,6.1187 C589.8335,9.6867 589.1855,12.2797 588.4285,16.9267 L588.7545,16.9267 Z" id="Fill-23" fill="#FFFFFF"></path>
                <g id="Group-27" transform="translate(0.000000, 96.706000)">
                    <mask id="mask-3" fill="white">
                        <use xlink:href="#path-2"></use>
                    </mask>
                    <g id="Clip-26"></g>
                    <path d="M24.2213,30.0327 C24.5443,28.3037 27.0333,27.2197 29.5173,27.0057 C31.5723,15.4407 34.8143,9.8217 40.8673,5.0667 C45.8373,1.6057 51.3483,0.6347 56.3233,0.4197 C59.6723,0.3077 62.2683,2.9047 61.2933,5.3887 C60.1063,7.7667 56.4303,8.6317 53.1893,8.7387 C47.8923,9.0647 45.4073,17.4957 43.4603,27.1127 L46.8093,27.1127 C47.2433,27.1127 47.6773,27.0057 47.9993,27.0057 L50.7003,27.0057 C53.7263,27.0057 56.4303,28.8457 55.9963,30.8967 C55.6743,33.0587 52.5393,34.2497 49.4063,34.2497 C47.9993,34.1377 44.7583,34.1377 43.5673,34.1377 L42.1613,34.1377 C41.1903,39.7617 40.2183,45.2727 39.3543,51.2187 C38.3783,57.1597 37.4073,62.9977 36.4353,68.6177 C36.3273,69.4817 36.2203,70.3497 36.0013,71.2137 C35.7853,72.0777 35.6783,73.0497 35.4633,73.9137 C35.1373,75.5347 34.8143,77.4817 34.4883,79.1027 C32.6523,89.4767 26.8133,111.5267 4.7673,112.8257 C1.5223,112.7187 -0.5287,109.9067 0.1193,107.7437 C1.0913,105.3667 4.4413,104.2867 7.5753,104.1797 C10.7093,103.7457 13.0903,101.0417 14.0623,99.7477 C17.3043,95.8567 19.5743,84.6147 21.8443,71.4287 C22.9233,65.3757 23.8983,58.8917 24.9773,52.6197 C26.0573,46.2447 27.0333,40.0837 27.7893,34.0307 C25.4123,33.5997 23.8983,31.7607 24.2213,30.0327" id="Fill-25" fill="#FFFFFF" mask="url(#mask-3)"></path>
                </g>
                <path d="M54.6939,144.0336 C55.7739,138.1956 56.0959,134.6276 55.9879,132.1416 C55.7739,129.4416 57.6099,126.7386 61.3929,126.1966 C62.4759,126.0896 63.4469,125.9816 64.2039,125.8736 L64.0969,125.8736 C67.9869,125.1176 71.6629,127.2796 71.4439,129.8726 C71.3369,130.1986 71.3369,131.2776 71.1219,132.0346 C71.0139,132.5766 70.7989,132.8986 70.6869,133.4406 C72.4199,131.1706 74.4699,129.0086 76.9599,127.2796 C78.7959,126.0896 81.0649,125.1176 83.2279,124.3606 C87.2259,123.1706 90.4679,126.1966 89.4959,129.2226 C88.5239,132.0346 84.4149,133.9776 80.3089,134.9536 L80.4169,134.9536 C76.3099,136.0336 70.7989,140.5726 67.8799,151.2736 C66.2589,156.8926 63.7699,171.0546 63.2329,178.0786 C62.9059,181.3206 59.3419,183.9136 55.1239,183.8046 L54.5829,183.8046 C50.7989,183.8046 47.3429,181.3206 48.0989,178.4016 C48.6409,176.5656 49.1789,174.6186 49.3979,173.2166 L54.6939,144.0336 Z" id="Fill-28" fill="#FFFFFF"></path>
                <path d="M100.6187,157.7573 C106.5647,156.8933 112.8327,153.0023 118.2367,147.9243 C120.7257,145.4353 122.6687,141.6523 122.6687,137.2233 C122.6687,132.5763 120.3987,130.4133 117.6987,130.4133 C116.0777,130.4133 112.4027,131.1703 107.7557,136.5743 C104.4017,140.5723 101.4867,148.7883 100.6187,157.7573 M110.8897,178.1863 C114.7797,178.1863 118.0217,177.1073 120.6187,176.0243 C123.3187,174.8373 126.5597,176.4573 125.9107,178.8353 C125.1547,181.2133 122.8837,183.5903 118.9937,184.6693 C116.2927,185.2113 112.9437,185.7523 108.4037,185.7523 C89.5957,185.2113 84.9487,175.1593 84.7327,161.6483 C84.7327,150.0823 90.5667,140.3583 94.2437,135.9253 C101.7017,126.6303 112.2947,123.6043 120.0767,123.6043 C131.6407,123.6043 137.4747,129.3303 137.4747,136.7893 C137.4747,139.8163 135.9617,144.0333 133.5847,147.7053 C130.9927,151.5963 126.2377,154.7303 122.4537,156.5703 C115.6437,160.0273 108.4037,160.4603 100.1887,160.7833 C100.0807,161.2173 99.9737,162.6233 99.9737,164.6743 C99.9737,169.8623 101.4867,178.2933 110.8897,178.1863" id="Fill-30" fill="#FFFFFF"></path>
                <path d="M147.7339,156.893 C144.3809,154.949 138.0049,151.058 138.0049,144.141 C138.0049,138.303 142.0039,132.899 147.2999,128.686 C152.8119,124.576 161.2419,123.819 165.6739,123.819 C168.9159,123.819 171.1859,124.038 173.1329,124.576 L173.0259,124.576 C176.5899,125.332 178.4299,128.466 177.3469,130.955 C176.5899,132.684 174.4279,133.548 172.0499,133.548 C170.6489,133.548 169.3499,133.332 168.3789,132.791 L168.4859,132.791 C166.8649,132.035 165.0259,131.494 163.1899,131.494 C156.2719,131.494 152.5959,136.682 152.5959,140.788 C152.5959,145.87 156.0569,147.813 159.6209,149.868 L165.0259,153.221 C168.4859,155.272 173.7829,158.513 173.7829,164.893 C173.7829,169.54 171.4049,175.702 164.5949,180.671 C158.2159,185.319 150.2189,185.645 145.2489,185.645 C142.3299,185.645 139.3029,185.319 137.2489,184.888 C133.4649,183.914 130.8729,181.106 131.5219,178.728 C132.9229,175.16 137.2489,173.862 140.5979,175.482 L140.4899,175.482 C142.5449,176.457 145.0299,177.214 148.8129,177.214 C155.9449,177.214 159.7289,172.674 159.7289,168.35 C159.7289,164.137 157.1359,162.404 154.4319,160.784 L147.7339,156.893 Z" id="Fill-32" fill="#FFFFFF"></path>
                <path d="M185.4468,133.978 C187.6098,122.525 188.4738,116.794 188.3658,113.553 C188.2588,111.068 189.4458,108.256 193.3358,107.822 C194.4188,107.714 195.6058,107.607 196.6888,107.392 C200.5798,106.85 204.6858,109.013 204.0368,111.932 C203.3868,115.066 202.8498,117.766 201.7668,123.063 C201.2288,126.089 200.5798,129.223 200.0378,132.358 C199.9308,132.684 199.9308,132.684 200.0378,132.465 C201.5508,130.414 203.2798,128.686 205.7688,127.172 C210.4168,124.146 215.1718,123.604 218.6278,123.604 C226.6288,123.604 234.3028,126.954 234.3028,135.603 C234.3028,137.873 233.8678,140.68 233.0038,146.192 L228.7868,170.297 C228.3568,172.998 228.0298,176.239 227.8158,178.186 C227.5998,181.428 223.9248,183.914 219.3848,183.914 C215.6008,183.914 212.2528,181.213 212.9008,178.402 C213.4428,176.351 214.0878,173.324 214.7368,169.648 C216.0358,161.759 217.4408,153.11 218.8468,145.22 C219.1698,143.384 219.4918,141.222 219.4918,139.601 C219.4918,135.603 218.1978,132.577 213.7648,132.577 C210.0898,132.577 206.0918,134.627 202.8498,138.088 C201.2288,139.816 198.2018,145.547 195.8248,155.272 C195.1758,158.083 192.6908,171.054 191.7148,177.864 C191.1778,181.428 187.3948,184.025 182.6358,184.025 C178.9638,184.025 176.0448,181.321 176.9088,178.621 C177.4498,176.566 178.5298,171.591 179.9348,164.029 L185.4468,133.978 Z" id="Fill-34" fill="#FFFFFF"></path>
                <path d="M281.7286,153.0024 C279.8926,159.0554 278.2716,168.4574 277.4076,173.1054 C277.0816,173.7544 276.9736,174.2954 276.9736,175.2674 L276.6506,175.2674 C278.7016,176.3514 281.1866,177.5374 284.5406,177.5374 C291.2426,177.5374 294.9146,173.7544 296.8616,171.3764 C302.6956,164.3524 304.5356,151.4884 304.5356,145.0054 C304.5356,138.8444 302.4806,133.5484 297.4026,133.5484 C291.6726,133.5484 285.5116,140.7884 281.7286,153.0024 M319.7756,141.8714 C319.7756,152.8944 314.6946,167.1624 306.1566,175.5934 C300.3186,181.4284 292.3216,185.1044 283.2416,185.1044 C281.1866,185.1044 278.5946,185.1044 275.3526,184.4544 C275.0256,186.6164 274.5956,188.4524 274.1626,190.6144 C273.7316,192.8854 273.2976,195.0474 272.8676,197.2104 C272.2186,200.7734 271.8926,203.8014 271.6766,205.7484 C271.3546,209.2044 268.2206,211.9084 263.5726,211.6934 L262.8166,211.6934 C259.2486,211.6934 255.7876,209.3134 256.3286,206.7204 C257.1936,203.4784 258.0576,199.2614 258.9216,195.1544 C259.1406,193.9684 259.4626,192.7774 259.5706,191.5874 C259.5706,191.4794 259.6776,191.0494 259.8966,190.5074 C260.0046,190.1854 260.0046,189.7514 260.1126,189.4284 L260.0046,189.5364 L266.8146,154.4074 C267.2446,152.1384 267.4636,150.1934 267.7866,148.3544 C268.0016,146.8414 268.3276,145.3274 268.6506,143.3844 C268.9776,142.7354 268.9776,142.0864 268.9776,141.7634 C269.8406,137.3314 269.9486,133.7634 269.8406,131.4934 C269.9486,129.4414 271.2476,126.6304 274.5956,126.1964 C276.0016,126.0894 277.2956,125.8734 278.3796,125.6584 C282.1626,125.0104 285.7266,127.2794 285.5116,130.0874 C285.1886,131.6004 284.8626,133.0064 284.5406,134.4124 C286.2686,131.9274 288.3236,129.4414 290.8086,127.6034 C292.1066,126.6304 296.1046,123.9264 303.4526,123.9264 C313.3956,123.9264 319.7756,130.1984 319.7756,141.8714" id="Fill-36" fill="#FFFFFF"></path>
                <path d="M327.5455,144.0336 C328.6245,138.1956 328.9475,134.6276 328.8395,132.1416 C328.6245,129.4416 330.4605,126.7386 334.2435,126.1966 C335.3265,126.0896 336.2985,125.9816 337.0555,125.8736 L336.9475,125.8736 C340.8385,125.1176 344.5145,127.2796 344.2955,129.8726 C344.1885,130.1986 344.1885,131.2776 343.9725,132.0346 C343.8655,132.5766 343.6495,132.8986 343.5385,133.4406 C345.2715,131.1706 347.3215,129.0086 349.8115,127.2796 C351.6475,126.0896 353.9165,125.1176 356.0795,124.3606 C360.0775,123.1706 363.3185,126.1966 362.3475,129.2226 C361.3755,132.0346 357.2665,133.9776 353.1595,134.9536 L353.2675,134.9536 C349.1615,136.0336 343.6495,140.5726 340.7315,151.2736 C339.1105,156.8926 336.6215,171.0546 336.0835,178.0786 C335.7575,181.3206 332.1925,183.9136 327.9755,183.8046 L327.4345,183.8046 C323.6545,183.8046 320.1935,181.3206 320.9505,178.4016 C321.4915,176.5656 322.0295,174.6186 322.2485,173.2166 L327.5455,144.0336 Z" id="Fill-38" fill="#FFFFFF"></path>
                <path d="M397.8941,133.978 C396.5991,132.791 394.4371,131.17 391.3031,131.17 C375.8471,131.17 372.0641,156.136 372.0641,164.567 C372.0641,174.725 376.3851,178.293 381.3591,178.293 C398.4351,178.293 400.8131,149.111 400.8131,143.922 C400.8131,141.222 400.7061,136.575 397.8941,133.978 M410.2151,129.442 C415.8381,135.061 416.0531,141.33 416.0531,144.356 C416.0531,161.217 405.1381,185.538 380.3871,185.538 C374.1151,185.538 367.9551,183.805 363.7411,180.022 C361.1451,177.538 357.0391,172.783 357.0391,163.272 C357.0391,145.87 368.6041,123.819 392.9231,123.819 C400.5981,123.819 406.6511,125.659 410.2151,129.442" id="Fill-40" fill="#FFFFFF"></path>
                <path d="M432.3609,163.2719 C432.3609,170.7269 434.9539,176.1309 439.6049,176.1309 C442.6279,176.1309 447.1679,173.7539 450.9509,166.1879 C453.7619,160.6759 455.0599,154.0849 459.2739,132.2499 C457.2189,131.7119 455.4909,131.2779 453.5479,131.2779 C436.4669,131.2779 432.3609,156.4619 432.3609,163.2719 L432.3609,163.2719 Z M468.7879,158.2979 C468.6759,159.2699 468.5689,160.1339 468.3539,161.1099 C467.3819,166.8359 466.1909,173.7539 466.1909,178.4019 C466.0839,181.3209 463.3799,184.0249 459.2739,184.1319 C455.1689,184.1319 451.3849,181.5359 451.8149,178.2929 C451.9259,177.2139 451.8149,177.5379 452.3569,174.5099 C448.3579,180.0219 443.4959,185.3189 435.4959,185.3189 C425.7699,185.3189 417.3399,179.1579 417.3399,166.8359 C417.3399,163.9179 418.8529,148.8959 428.5779,136.5749 C434.6319,129.2229 444.2529,124.1459 454.6269,124.1459 C457.1119,124.1459 459.0589,124.4679 460.6799,124.7939 C461.6519,119.7129 462.0859,116.6869 461.8669,114.4169 C461.7589,111.6049 463.9219,108.6899 467.8119,108.1489 C468.1389,108.0419 468.8949,107.9329 469.3259,107.8219 C473.5429,107.0649 477.8639,108.9049 477.2149,111.9319 C476.7849,113.1189 476.6759,114.6319 476.3499,116.4719 C476.1349,117.5509 475.9209,118.7419 475.7019,120.1439 C475.5929,120.8999 475.3789,121.7679 475.2709,122.6319 C475.0559,123.6039 474.8379,124.6829 474.6219,125.8739 L468.7879,158.2979 Z" id="Fill-42" fill="#FFFFFF"></path>
                <path d="M493.6334,158.4057 C492.4434,163.9177 492.0134,166.4067 492.0134,168.7837 C492.0134,172.7827 493.4144,176.1317 497.6324,176.1317 C499.4684,176.1317 505.0914,175.2667 509.6264,168.0277 L509.5194,168.0277 C511.7894,164.0287 514.3864,153.9737 515.8994,145.6547 C517.0854,139.3857 517.6274,135.1687 517.7354,132.4657 C517.8424,129.3307 520.4394,126.4157 524.4374,125.6587 C524.5444,125.6587 524.9754,125.6587 525.1944,125.5507 L524.9754,125.7667 C525.5164,125.4397 526.4874,125.2247 527.0294,125.2247 C530.3794,124.7947 534.0544,127.1727 533.6244,129.5497 C532.1124,134.9537 530.4904,141.9787 528.7584,151.9227 C526.0584,166.8367 525.0864,174.0807 525.0864,178.0787 L525.0864,178.9427 C525.1944,181.8617 521.7334,184.2397 517.8424,184.2397 C513.7374,184.2397 510.1684,181.5357 510.3834,178.4017 L510.3834,176.8877 C509.0894,178.7277 507.6834,180.2417 505.7364,181.6427 C500.8734,184.8877 494.1714,185.4267 492.4434,185.4267 C484.2274,185.4267 476.8794,181.5357 476.8794,173.6467 C476.8794,172.1337 477.0954,170.6197 477.7434,166.6217 L483.1484,137.9807 C483.5824,135.9257 483.7974,134.1977 483.9044,132.8987 C484.1194,130.0877 485.7404,126.8447 489.9584,126.0897 L489.7424,126.0897 C489.9584,125.9817 490.3884,125.9817 490.8224,125.9817 C490.9294,125.9817 491.2564,125.8737 491.3634,125.8737 L491.1454,125.8737 C491.4714,125.7667 492.0134,125.6587 492.5504,125.6587 C496.2264,125.2247 500.0094,127.8177 499.4684,130.6297 C498.3884,134.9537 497.8474,137.0047 497.0904,140.6797 C496.9834,141.2217 496.7684,141.9787 496.6604,142.6277 L493.6334,158.4057 Z" id="Fill-44" fill="#FFFFFF"></path>
                <path d="M581.1666,124.6831 C584.5196,125.4401 585.5986,128.5741 584.7336,130.7371 C584.0856,132.4651 582.1416,133.1141 579.7606,133.1141 C578.3576,133.1141 577.1676,132.8991 576.3036,132.4651 L576.4116,132.4651 C575.1126,132.0351 573.7106,131.7121 572.0906,131.7121 C558.9006,131.7121 551.1186,146.1921 551.1186,160.8911 C551.1186,166.1881 551.9826,172.6741 556.8506,175.7021 C559.6576,177.5381 562.3606,178.1861 564.9536,178.1861 C567.3316,178.1861 569.3866,177.7521 571.4406,176.9961 C574.5756,176.1311 576.8456,178.2931 576.0886,180.4561 C575.1126,182.9411 571.8716,184.7821 568.3076,185.3191 C566.6826,185.5381 564.6316,185.6451 562.6846,185.6451 C545.6066,185.6451 535.2326,176.3511 535.2326,161.6481 C535.2326,144.7901 547.5556,123.9261 573.7106,123.9261 C576.9526,123.9261 579.3306,124.2531 581.1666,124.6831" id="Fill-46" fill="#FFFFFF"></path>
                <g id="Group-50" transform="translate(580.000000, 122.706000)">
                    <mask id="mask-5" fill="white">
                        <use xlink:href="#path-4"></use>
                    </mask>
                    <g id="Clip-49"></g>
                    <path d="M16.398,35.0513 C22.34,34.1873 28.609,30.2963 34.012,25.2183 C36.502,22.7293 38.445,18.9463 38.445,14.5173 C38.445,9.8703 36.174,7.7073 33.475,7.7073 C31.854,7.7073 28.178,8.4643 23.531,13.8683 C20.178,17.8663 17.262,26.0823 16.398,35.0513 M26.665,55.4803 C30.556,55.4803 33.797,54.4013 36.394,53.3183 C39.094,52.1313 42.335,53.7513 41.686,56.1293 C40.93,58.5073 38.66,60.8843 34.769,61.9633 C32.069,62.5053 28.72,63.0463 24.18,63.0463 C5.372,62.5053 0.724,52.4533 0.508,38.9423 C0.508,27.3763 6.343,17.6523 10.019,13.2193 C17.478,3.9243 28.071,0.8983 35.852,0.8983 C47.418,0.8983 53.252,6.6243 53.252,14.0833 C53.252,17.1103 51.738,21.3273 49.36,24.9993 C46.768,28.8903 42.013,32.0243 38.23,33.8643 C31.419,37.3213 24.18,37.7543 15.964,38.0773 C15.857,38.5113 15.75,39.9173 15.75,41.9683 C15.75,47.1563 17.262,55.5873 26.665,55.4803" id="Fill-48" fill="#FFFFFF" mask="url(#mask-5)"></path>
                </g>
            </g>
        </g>
    </g>
</svg>