<svg width="1280" height="740" viewBox="0 0 1280 740" xmlns="http://www.w3.org/2000/svg"><title>WE PACK</title><g fill="#F1C319" fill-rule="evenodd"><path d="M0 0h1280v740H0V0zm220.18 288.24l26.18 71.06L227 409.24 182.56 287.8H150L213.14 444h25.52l27.06-65.56L292.78 444h25.52l63.58-156.2h-33l-44.22 121.44-19.8-49.94 26.62-71.06h-28.16l-17.6 51.7-17.6-51.7h-27.94zM506.3 417.38h-78.1v-40.7h65.78v-24.64H428.2v-37.62h76.12V287.8H397.84V444H506.3v-26.62zM582.66 444h30.36v-52.36h36.96c7.187 0 13.787-1.467 19.8-4.4 6.013-2.933 11.147-6.82 15.4-11.66s7.553-10.377 9.9-16.61c2.347-6.233 3.52-12.65 3.52-19.25 0-6.307-1.247-12.577-3.74-18.81-2.493-6.233-5.94-11.807-10.34-16.72-4.4-4.913-9.643-8.873-15.73-11.88-6.087-3.007-12.723-4.51-19.91-4.51h-66.22V444zm171.5-156.2L694.54 444h31.24l14.3-38.94h54.56L809.16 444h31.24L781 287.8h-26.84zm88.12 77c0 9.973 1.87 19.763 5.61 29.37s8.947 18.187 15.62 25.74c6.673 7.553 14.63 13.677 23.87 18.37 9.24 4.693 19.433 7.04 30.58 7.04 6.307 0 12.76-.807 19.36-2.42s12.797-3.96 18.59-7.04c5.793-3.08 11-6.857 15.62-11.33 4.62-4.473 8.177-9.643 10.67-15.51l-24.86-14.3c-1.76 4.253-4.107 7.883-7.04 10.89-2.933 3.007-6.123 5.463-9.57 7.37a41.819 41.819 0 0 1-10.89 4.18c-3.813.88-7.48 1.32-11 1.32-6.747 0-12.943-1.467-18.59-4.4-5.647-2.933-10.487-6.82-14.52-11.66-4.033-4.84-7.15-10.45-9.35-16.83-2.2-6.38-3.3-13.017-3.3-19.91 0-6.16.953-12.357 2.86-18.59 1.907-6.233 4.73-11.807 8.47-16.72 3.74-4.913 8.433-8.91 14.08-11.99s12.283-4.62 19.91-4.62c3.52 0 7.113.403 10.78 1.21a42.461 42.461 0 0 1 10.56 3.85c3.373 1.76 6.527 4.143 9.46 7.15 2.933 3.007 5.427 6.71 7.48 11.11L980 321.02c-5.133-10.12-12.943-18.333-23.43-24.64-10.487-6.307-22.917-9.46-37.29-9.46-12.173 0-23.027 2.273-32.56 6.82-9.533 4.547-17.6 10.487-24.2 17.82-6.6 7.333-11.623 15.657-15.07 24.97-3.447 9.313-5.17 18.737-5.17 28.27zm160.28 79.2h30.36v-46.64l20.02-20.9 48.62 67.54h34.1l-63.58-86.9 59.84-69.3h-33.44l-65.56 74.36v-74.14h-30.36V444z"/><path d="M613.02 365.02h35.2c5.573 0 10.23-2.273 13.97-6.82 3.74-4.547 5.61-10.707 5.61-18.48 0-3.96-.587-7.517-1.76-10.67-1.173-3.153-2.713-5.83-4.62-8.03-1.907-2.2-4.143-3.85-6.71-4.95s-5.17-1.65-7.81-1.65h-33.88v50.6zm176.12 18.7l-21.56-61.38-22.44 61.38z"/></g></svg>