<?xml version="1.0" encoding="UTF-8" standalone="no"?>
<svg width="1280px" height="740px" viewBox="0 0 1280 740" version="1.1" xmlns="http://www.w3.org/2000/svg" xmlns:xlink="http://www.w3.org/1999/xlink">
    <!-- Generator: Sketch 46 (44423) - http://www.bohemiancoding.com/sketch -->
    <title>WE PACK</title>
    <desc>Created with Sketch.</desc>
    <defs></defs>
    <g id="4-We-pack" stroke="none" stroke-width="1" fill="none" fill-rule="evenodd">
        <g transform="translate(0.000000, -30.000000)" id="WE-PACK" fill="#F1C319">
            <g transform="translate(0.000000, 30.000000)">
                <path d="M0,0 L1280,0 L1280,740 L0,740 L0,0 Z M220.18,288.24 L246.36,359.3 L227,409.24 L182.56,287.8 L150,287.8 L213.14,444 L238.66,444 L265.72,378.44 L292.78,444 L318.3,444 L381.88,287.8 L348.88,287.8 L304.66,409.24 L284.86,359.3 L311.48,288.24 L283.32,288.24 L265.72,339.94 L248.12,288.24 L220.18,288.24 Z M506.3,417.38 L428.2,417.38 L428.2,376.68 L493.98,376.68 L493.98,352.04 L428.2,352.04 L428.2,314.42 L504.32,314.42 L504.32,287.8 L397.84,287.8 L397.84,444 L506.3,444 L506.3,417.38 Z M582.66,444 L613.02,444 L613.02,391.64 L649.98,391.64 C657.166703,391.64 663.766637,390.173348 669.78,387.24 C675.793363,384.306652 680.926645,380.420024 685.18,375.58 C689.433355,370.739976 692.733322,365.203365 695.08,358.97 C697.426678,352.736636 698.6,346.320033 698.6,339.72 C698.6,333.413302 697.353346,327.143364 694.86,320.91 C692.366654,314.676635 688.920022,309.103358 684.52,304.19 C680.119978,299.276642 674.876697,295.316682 668.79,292.31 C662.703303,289.303318 656.066703,287.8 648.88,287.8 L582.66,287.8 L582.66,444 Z M754.16,287.8 L694.54,444 L725.78,444 L740.08,405.06 L794.64,405.06 L809.16,444 L840.4,444 L781,287.8 L754.16,287.8 Z M842.28,364.8 C842.28,374.773383 844.149981,384.563285 847.89,394.17 C851.630019,403.776715 856.836633,412.356629 863.51,419.91 C870.183367,427.463371 878.139954,433.586643 887.38,438.28 C896.620046,442.973357 906.813278,445.32 917.96,445.32 C924.266698,445.32 930.719967,444.513341 937.32,442.9 C943.920033,441.286659 950.116638,438.940015 955.91,435.86 C961.703362,432.779985 966.909977,429.003356 971.53,424.53 C976.150023,420.056644 979.706654,414.886696 982.2,409.02 L957.34,394.72 C955.579991,398.973355 953.233348,402.603318 950.3,405.61 C947.366652,408.616682 944.176684,411.073324 940.73,412.98 C937.283316,414.886676 933.653352,416.279996 929.84,417.16 C926.026648,418.040004 922.360018,418.48 918.84,418.48 C912.0933,418.48 905.896695,417.013348 900.25,414.08 C894.603305,411.146652 889.763353,407.260024 885.73,402.42 C881.696646,397.579976 878.580011,391.970032 876.38,385.59 C874.179989,379.209968 873.08,372.573368 873.08,365.68 C873.08,359.519969 874.033324,353.323365 875.94,347.09 C877.846676,340.856636 880.669981,335.283358 884.41,330.37 C888.150019,325.456642 892.843305,321.460015 898.49,318.38 C904.136695,315.299985 910.773295,313.76 918.4,313.76 C921.920018,313.76 925.513315,314.163329 929.18,314.97 C932.846685,315.776671 936.36665,317.059991 939.74,318.82 C943.11335,320.580009 946.266652,322.963318 949.2,325.97 C952.133348,328.976682 954.626656,332.679978 956.68,337.08 L980,321.02 C974.866641,310.899949 967.056719,302.686698 956.57,296.38 C946.083281,290.073302 933.653405,286.92 919.28,286.92 C907.106606,286.92 896.253381,289.193311 886.72,293.74 C877.186619,298.286689 869.120033,304.22663 862.52,311.56 C855.919967,318.89337 850.896684,327.21662 847.45,336.53 C844.003316,345.84338 842.28,355.266619 842.28,364.8 Z M1002.56,444 L1032.92,444 L1032.92,397.36 L1052.94,376.46 L1101.56,444 L1135.66,444 L1072.08,357.1 L1131.92,287.8 L1098.48,287.8 L1032.92,362.16 L1032.92,288.02 L1002.56,288.02 L1002.56,444 Z" id="Combined-Shape"></path>
                <path d="M613.02,365.02 L648.22,365.02 C653.793361,365.02 658.449981,362.746689 662.19,358.2 C665.930019,353.653311 667.8,347.493372 667.8,339.72 C667.8,335.75998 667.213339,332.203349 666.04,329.05 C664.866661,325.896651 663.326676,323.220011 661.42,321.02 C659.513324,318.819989 657.276679,317.170006 654.71,316.07 C652.14332,314.969995 649.540013,314.42 646.9,314.42 L613.02,314.42 L613.02,365.02 Z"></path>
                <polygon points="789.14 383.72 767.58 322.34 745.14 383.72"></polygon>
            </g>
        </g>
    </g>
</svg>