<?xml version="1.0" encoding="UTF-8" standalone="no"?>
<svg width="233px" height="44px" viewBox="0 0 233 44" version="1.1" xmlns="http://www.w3.org/2000/svg" xmlns:xlink="http://www.w3.org/1999/xlink">
    <!-- Generator: Sketch 46 (44423) - http://www.bohemiancoding.com/sketch -->
    <title>Logo sicar green</title>
    <desc>Created with Sketch.</desc>
    <defs></defs>
    <g id="Symbols" stroke="none" stroke-width="1" fill="none" fill-rule="evenodd">
        <g id="Header" transform="translate(-33.000000, -25.000000)" fill="#FFFFFF">
            <g id="Logo-sicar-green" transform="translate(33.000000, 25.000000)">
                <path d="M22.7423266,27.9293066 C22.7423266,25.8442947 23.145122,22.9024841 27.1013013,20.8461674 C31.0569449,18.78958 36.4641518,15.2476043 36.4641518,15.2476043 L36.4641518,22.9688081 C36.4641518,25.3201992 36.0107392,29.1805304 31.0569449,32.0427521 C24.8974426,35.6009704 22.7423266,36.841095 22.7423266,36.841095 L22.7423266,27.9293066 Z M18.2612277,44.0419933 C18.2612277,44.0419933 25.2051633,40.0430584 33.0042357,35.5871642 C40.8030403,31.1318114 40.9160587,24.0484015 40.9160587,24.0484015 L40.9160587,7.48227474 L23.2792978,18.0018126 C23.2792978,18.0018126 22.4592449,18.5421507 22.3269438,18.6444792 C20.6512185,19.9392874 18.7382082,21.3283027 18.2612277,29.225739 C18.1830254,30.5200058 18.2612277,44.0419933 18.2612277,44.0419933 L18.2612277,44.0419933 Z" id="Fill-1"></path>
                <g id="Group-5" transform="translate(0.000000, 0.189497)">
                    <path d="M4.53948276,16.5333166 L4.53948276,7.39331928 C4.53948276,7.39331928 9.98605862,10.8586839 13.9023333,12.9910702 C17.3898345,14.8906455 18.1780172,17.9910924 18.2610402,20.0750216 C18.2653253,20.1768087 18.2610402,20.4821701 18.2610402,20.4821701 L18.2610402,28.9859978 C18.2610402,28.9859978 16.1463644,27.6738642 9.94642184,24.1876549 C5.45675287,21.6632799 4.53948276,18.884437 4.53948276,16.5333166 M18.2610402,29.0360793 C18.7382885,21.1389137 20.6512989,19.7498983 22.3270241,18.4550902 C22.3342552,18.4491345 22.3444322,18.4418254 22.3556805,18.433704 C22.4046908,18.3952632 22.4531655,18.3573637 22.501908,18.3191935 C21.3186966,12.3313488 16.162969,9.33539613 16.162969,9.33539613 L0,0.0811589965 L0,14.01977 C0,19.8462712 1.80856207,23.0452568 3.8428931,24.9876043 C5.81482299,26.8703956 17.511423,33.5834736 18.226492,33.9936 C18.2251529,31.5566644 18.2331874,29.5025134 18.2610402,29.0360793" id="Fill-3"></path>
                </g>
                <path d="M63.7823574,30.8196281 C63.0927309,29.7811828 62.0463734,28.7633114 60.6424815,27.7643898 C59.628262,27.054587 58.5422677,26.4176053 57.38557,25.8520911 C56.2283367,25.2871184 55.1752838,24.7153779 54.2264114,24.1368696 C53.2767355,23.5594442 52.5228332,22.9676711 51.963901,22.3631747 C51.404701,21.7586782 51.2426723,21.0618695 51.4764757,20.2732899 C51.5801206,19.9053944 51.7689309,19.6035522 52.0421033,19.3666806 C52.3150079,19.1300796 52.6272815,18.9465379 52.9781206,18.814702 C53.3292275,18.6836781 53.6998849,18.5916365 54.0898252,18.5385773 C54.4800332,18.4863302 54.8434597,18.4598005 55.1819792,18.4598005 C55.8314332,18.434083 56.5791757,18.506092 57.4246711,18.6766396 C58.2693631,18.8477286 59.0687941,19.0775618 59.8232321,19.3666806 C60.0827459,19.471987 60.3237803,19.5705256 60.5449964,19.6625671 C60.7654091,19.7548794 60.9799298,19.8398825 61.1885585,19.9186592 C61.6039413,20.1027423 61.9550482,20.1945132 62.2416114,20.1945132 C62.5536171,20.1945132 62.8393769,20.1027423 63.0996941,19.9186592 C63.3075194,19.7870939 63.5678367,19.5242341 63.8795746,19.1300796 L63.9577769,19.0117792 C63.2812734,18.2762588 62.462024,17.6192446 61.5005643,17.0404656 C60.667924,16.5415462 59.6539723,16.0813384 58.4581734,15.6606544 C57.261839,15.2405117 55.8705344,15.0296283 54.2847953,15.0296283 C53.348778,15.0296283 52.4186528,15.1549672 51.4960263,15.4042916 C50.5725964,15.654428 49.7410275,16.0485825 48.9997125,16.5870256 C48.2589332,17.1262808 47.6408137,17.803057 47.1472286,18.6176247 C46.6528401,19.4324632 46.3536895,20.3915904 46.2500447,21.4955477 C46.1196183,22.9676711 46.5098263,24.3675149 47.4201332,25.6942669 C48.3301723,27.021831 49.7212091,28.2243269 51.5935114,29.3014838 C52.7373539,29.9325099 53.8166528,30.5240123 54.8308723,31.0759909 C55.8450918,31.6276988 56.7286171,32.1669541 57.4830551,32.6924031 C58.2369574,33.2183935 58.8288309,33.7636044 59.2576045,34.3283064 C59.6869137,34.8938205 59.8880436,35.5178082 59.8623332,36.2010814 C59.8623332,36.5949651 59.7710079,37.0091521 59.5894286,37.4428303 C59.4070459,37.8767791 59.1078953,38.2706628 58.6922447,38.6255643 C58.2757907,38.9804657 57.7299815,39.2701259 57.0540137,39.4931913 C56.3775102,39.7167981 55.5585286,39.8277894 54.596801,39.8277894 L54.1677597,39.8277894 C53.1792505,39.7760837 52.3345585,39.6642803 51.6326125,39.4931913 C50.9306666,39.322373 50.3192424,39.1323342 49.7994114,38.9211801 C49.539362,38.7901562 49.3052907,38.6786235 49.0971976,38.5863112 C48.8888367,38.4945404 48.6812792,38.4225314 48.4731861,38.3694722 C48.2648252,38.2904247 48.0762826,38.2251835 47.9078263,38.1723949 C47.7382987,38.1198771 47.5628792,38.0933475 47.3810321,38.0933475 C47.0947367,38.0933475 46.8218321,38.1723949 46.5620505,38.3299484 C46.2757551,38.5405612 46.0159734,38.8169566 45.7819022,39.157781 L45.6648666,39.2760815 C45.7685114,39.5392121 46.0483792,39.8941135 46.5036666,40.340515 C46.9581505,40.7877287 47.5628792,41.2279039 48.3173171,41.6613114 C49.0712194,42.0952602 49.9748309,42.4699235 51.0278838,42.7855719 C52.0809367,43.1006789 53.2708436,43.2582324 54.596801,43.2582324 C56.5989941,43.2582324 58.4252321,42.909828 60.0768539,42.2135607 C61.7276723,41.5172934 62.9692677,40.5118748 63.8016401,39.1973048 C64.2697826,38.4875019 64.6334769,37.6734756 64.8937941,36.7533307 C65.1533079,35.8334566 65.2057999,34.8740587 65.0499309,33.8748664 C64.8937941,32.8764862 64.4709125,31.8580734 63.7823574,30.8196281" id="Fill-6"></path>
                <path d="M68.3259913,23.8902524 C68.6899533,24.0743355 69.0798936,24.1663771 69.4960798,24.1663771 C70.4578074,24.1663771 71.2122453,23.70644 71.7583223,22.7865658 C71.9921257,22.3661525 72.1091614,21.9192095 72.1091614,21.4460076 C72.1091614,20.9993354 72.0049809,20.5783806 71.7974234,20.1844969 C71.5890625,19.789801 71.276789,19.4879589 70.8611384,19.2773461 C70.4969085,19.0672748 70.1200913,18.9619684 69.730151,18.9619684 C69.2877189,18.9619684 68.8586775,19.0873074 68.4427591,19.3366317 C68.0268407,19.5867682 67.7019798,19.9349018 67.4679085,20.3813034 C67.2338372,20.7757285 67.1170694,21.2226715 67.1170694,21.7215909 C67.1170694,22.1690753 67.2201786,22.5829916 67.4288074,22.9636105 C67.6369005,23.3450415 67.936051,23.6536515 68.3259913,23.8902524" id="Fill-8"></path>
                <path d="M74.1374933,39.7689099 C73.8254876,39.8872104 73.5137497,39.9205078 73.2014761,39.8674485 C72.8894703,39.8152014 72.6165657,39.6506094 72.3824945,39.3747555 C72.1484232,39.0986308 72.0316554,38.6454615 72.0316554,38.0144354 L72.0316554,28.5923578 C72.0316554,27.8035075 72.0372795,27.1665258 72.0509382,26.6797884 C72.0637933,26.1935924 72.0830761,25.8064764 72.1093221,25.5170869 C72.1347646,25.2014385 72.1610106,24.9518435 72.1875244,24.7677604 C70.5747359,24.7677604 69.3529589,25.1096677 68.5211221,25.7929409 C67.6884818,26.4767555 67.2728313,27.6064303 67.2728313,29.1833187 L67.2337301,38.4876373 C67.2337301,39.1446516 67.3312152,39.7759484 67.5261853,40.3801741 C67.7214232,40.9849413 68.0200382,41.5103903 68.4233692,41.9567918 C68.8264324,42.404547 69.3267129,42.7524099 69.925014,43.0020049 C70.5230474,43.2516 71.2249933,43.3374152 72.0316554,43.258097 C72.8632244,43.2053085 73.4746485,42.9627519 73.8645887,42.5288031 C74.254529,42.0953956 74.5143106,41.6416849 74.6444692,41.1687537 C74.800606,40.6167751 74.8525623,39.9995552 74.800606,39.3157406 C74.6701795,39.4998237 74.4494991,39.6506094 74.1374933,39.7689099" id="Fill-10"></path>
                <path d="M83.1859278,21.0222646 C83.9663439,20.1549082 84.8437094,19.5114295 85.8188278,19.0904747 C86.7939462,18.6703321 87.7886152,18.4597193 88.8025669,18.4597193 C89.5824474,18.4597193 90.2321692,18.5190049 90.7528037,18.6373054 C91.2726347,18.7556059 91.7209589,18.8806741 92.0985795,19.0119687 C92.4748611,19.1435339 92.8200761,19.2677901 93.1320818,19.3860905 C93.4440876,19.504391 93.7815359,19.5636766 94.1463014,19.5636766 C94.5099956,19.5636766 94.8345887,19.4719057 95.121152,19.2878226 C95.2510428,19.2355755 95.3747738,19.1494896 95.4918094,19.0314598 C95.6085772,18.9131593 95.7060623,18.7886325 95.7842646,18.6567965 C95.8876416,18.5257727 95.9792347,18.3809426 96.0571692,18.2233891 C95.9270106,18.0133178 95.6800841,17.730696 95.3161221,17.3757946 C94.9516244,17.0208932 94.4641991,16.6724889 93.8535784,16.3308523 C93.2424221,15.9894864 92.5206577,15.6941412 91.6888209,15.4437341 C90.8561807,15.1944097 89.8944531,15.0693415 88.8025669,15.0693415 C87.0864014,15.0693415 85.4219244,15.3649573 83.8102071,15.9564597 C82.1974186,16.5476913 80.7739761,17.4348095 79.5390761,18.6175435 C78.3036405,19.8002775 77.3095071,21.272401 76.555337,23.0333726 C75.8008991,24.7943441 75.4243497,26.8311696 75.4243497,29.1441198 C75.4243497,31.4573407 75.8008991,33.4941662 76.555337,35.2545964 C77.3095071,37.0163801 78.3036405,38.4876914 79.5390761,39.6706961 C80.7739761,40.8534301 82.1974186,41.7470454 83.8102071,42.3515418 C85.4219244,42.9557676 87.0864014,43.2581512 88.8025669,43.2581512 C89.8944531,43.2581512 90.8561807,43.1330829 91.6888209,42.8834879 C92.5206577,42.6344343 93.2424221,42.3450448 93.8535784,42.0161316 C94.4641991,41.6880305 94.9516244,41.3461232 95.3161221,40.9914925 C95.6800841,40.6365911 95.9270106,40.3404338 96.0571692,40.1041036 C95.9792347,39.9465501 95.8876416,39.8022614 95.7842646,39.6706961 C95.6283956,39.4603541 95.4069117,39.2502828 95.121152,39.0396701 C94.8345887,38.8561284 94.5099956,38.7638161 94.1463014,38.7638161 C93.7815359,38.7638161 93.4440876,38.8231017 93.1320818,38.9411314 C92.8200761,39.0594319 92.4748611,39.1845001 92.0985795,39.3157947 C91.7209589,39.44736 91.2726347,39.5718868 90.7528037,39.6901873 C90.2321692,39.8084878 89.5824474,39.8675026 88.8025669,39.8675026 C87.7886152,39.8675026 86.7939462,39.6574313 85.8188278,39.237018 C84.8437094,38.8168753 83.9663439,38.1660874 83.1859278,37.2849248 C82.4060474,36.4051158 81.7820359,35.2941201 81.3138933,33.9538326 C80.8457508,32.6132744 80.6119474,31.0103978 80.6119474,29.1441198 C80.6119474,27.3046422 80.8457508,25.7077212 81.3138933,24.3538982 C81.7820359,23.0003459 82.4060474,21.8898916 83.1859278,21.0222646" id="Fill-12"></path>
                <path d="M126.542675,24.8071487 L124.631539,24.8071487 C123.642762,24.8071487 122.648361,24.9194936 121.647532,25.1422883 C120.934606,25.3017367 119.979574,25.5645966 119.365471,25.9303264 C118.992671,25.5627016 118.545151,25.2697929 118.023445,25.0524124 C117.42568,24.8028174 116.723734,24.7172729 115.917339,24.7960496 C115.085503,24.8491089 114.474346,25.0916654 114.084138,25.5256143 C113.694198,25.9592925 113.434684,26.4124618 113.304258,26.8859344 C113.148121,27.4376423 113.096432,28.0548621 113.148121,28.7389475 C113.27828,28.5543229 113.499228,28.4035372 113.811234,28.2852367 C114.122971,28.1669363 114.435245,28.1336389 114.747251,28.1866981 C115.059257,28.239216 115.332429,28.4035372 115.5665,28.6796619 C115.800304,28.9555159 115.917339,29.4086852 115.917339,30.0394405 L115.917339,33.1041537 C115.916,33.1896982 115.914929,33.2752427 115.914929,33.3624115 L115.914929,38.4875019 C115.914929,40.0643904 116.34397,41.1883802 117.202053,41.8586593 C118.060136,42.5289384 119.282181,42.864078 120.868455,42.864078 C120.841942,42.7062538 120.815963,42.4699235 120.790253,42.1542751 C120.764275,41.8654271 120.744457,41.4777697 120.731869,40.991303 C120.718478,40.5053777 120.712319,39.8673131 120.712319,39.0790043 L120.712319,33.3624115 C120.712319,32.2587249 120.893094,31.3981363 121.043875,30.7210895 C121.338473,29.3986689 122.895823,28.5987195 123.324597,28.4538894 C123.754174,28.3098714 124.188839,28.2113328 124.631539,28.1582735 C125.307239,28.0797675 125.794665,27.8564314 126.094083,27.4879944 C126.392698,27.1203696 126.568117,26.7392093 126.620609,26.3450549 C126.698544,25.8715823 126.672566,25.3593981 126.542675,24.8071487" id="Fill-14"></path>
                <path d="M107.797182,36.3979149 C107.693002,36.9241761 107.498032,37.436631 107.212272,37.9358211 C107.081578,38.1986809 106.925709,38.4423203 106.744129,38.6648443 C106.561747,38.8884512 106.34053,39.0790314 106.081017,39.2368556 C105.53494,39.6307393 104.897537,39.8416227 104.169881,39.8673402 C104.065433,39.8941406 103.909564,39.9068639 103.701739,39.9068639 C103.025235,39.9068639 102.485853,39.8150931 102.083058,39.6307393 C101.679727,39.4474683 101.374149,39.2238615 101.166591,38.9607309 C100.932252,38.6984124 100.776383,38.4152493 100.698449,38.1134071 C100.620514,37.8112943 100.581413,37.5284018 100.581413,37.265542 C100.581413,37.1079885 100.594268,36.9894173 100.620514,36.9106406 C100.646225,36.6743103 100.698449,36.4572005 100.776383,36.260394 C100.854318,36.0630461 100.957963,35.88546 101.088657,35.7276358 C101.426105,35.2812343 101.920226,34.9531332 102.570751,34.7422498 C102.856243,34.6374848 103.168517,34.5649344 103.506768,34.5254107 C103.844484,34.4858869 104.195324,34.4663958 104.559821,34.4663958 C105.001986,34.4663958 105.437455,34.4929254 105.866496,34.5449018 C106.295805,34.5979611 106.67905,34.6507496 107.017034,34.702726 C107.198613,34.756056 107.35475,34.795309 107.485176,34.8210265 C107.615067,34.8475561 107.732103,34.873815 107.836283,34.900074 C107.861726,34.900074 107.881276,34.9068417 107.894667,34.9195651 C107.907522,34.9333713 107.927073,34.939327 107.953051,34.939327 C107.953051,35.3865407 107.900827,35.8727366 107.797182,36.3979149 M112.23543,41.3465022 C112.221772,40.8603062 112.216148,40.2227831 112.216148,39.4344742 L112.216148,36.0373286 C112.187491,34.7993697 112.161513,33.0015815 112.161513,31.6580455 C112.161513,30.6022747 111.758986,29.4114193 111.617043,29.0822354 C111.247993,28.2254368 110.754675,27.4577019 110.137359,26.7784894 C109.409167,26.0164394 108.551084,25.41844 107.563111,24.9847619 C106.574602,24.550813 105.482448,24.3342446 104.286917,24.3342446 L103.95536,24.3342446 C103.863767,24.3342446 103.753427,24.3475094 103.623804,24.3734976 C102.375781,24.4525451 101.224975,24.7481609 100.171655,25.2606158 C99.1188695,25.7733414 98.2021351,26.4498469 97.4222546,27.291215 L97.3440523,27.4095155 L97.4222546,27.567069 C97.656058,27.987753 97.9289626,28.2904073 98.2412362,28.473949 C98.5789523,28.6315025 98.9300592,28.7102792 99.2942891,28.7102792 C99.632273,28.7102792 99.9831121,28.6645292 100.347342,28.5722169 C100.711304,28.4807168 101.075266,28.3691841 101.439764,28.2373481 C101.803458,28.1060535 102.167152,27.9945208 102.531918,27.9019378 C102.895344,27.810167 103.259306,27.7511521 103.623804,27.7246225 L104.052845,27.7246225 C104.443053,27.7246225 104.787197,27.7579198 105.086348,27.8234318 C105.384963,27.8892144 105.664563,27.987753 105.925148,28.1190476 C106.600848,28.4874845 107.108091,29.0787162 107.446075,29.8927425 C107.705857,30.5240393 107.875117,31.247107 107.953051,32.0616748 C106.730739,31.6672496 105.443614,31.4701724 104.091679,31.4701724 C103.129148,31.4701724 102.206253,31.5819758 101.32246,31.8050412 C100.438132,32.0289188 99.6451282,32.3637876 98.9431822,32.8104599 C98.1887443,33.3101914 97.6300799,33.9014231 97.2661178,34.5844256 C96.8499316,35.2682402 96.6421063,36.122061 96.6421063,37.1472415 L96.6421063,37.3838424 C96.6678167,38.487529 96.9278661,39.4209387 97.4222546,40.1829886 C97.7597029,40.7877558 98.1758891,41.2807195 98.6702776,41.6613384 C99.1641305,42.0433109 99.7099397,42.3513794 100.308241,42.5879804 C100.880296,42.8511109 101.465206,43.0278849 102.063507,43.1201971 C102.661541,43.2122387 103.233596,43.2579888 103.779941,43.2579888 L104.286917,43.2579888 C104.443053,43.2579888 104.598922,43.2444532 104.754791,43.2187357 C105.925148,43.0871705 106.984093,42.7596108 107.933768,42.2333497 C108.096868,42.1429324 108.254612,42.0457473 108.409678,41.9461259 C108.501806,42.0422281 108.600363,42.1315625 108.705614,42.2138585 C109.563697,42.8838669 110.785474,43.2192772 112.372017,43.2192772 C112.345771,43.0617237 112.319257,42.8251227 112.294082,42.5092036 C112.267836,42.2206263 112.248286,41.8332396 112.23543,41.3465022" id="Fill-16"></path>
                <path d="M138.431192,39.2068608 C138.431192,40.0482289 138.43762,40.7355628 138.452082,41.2677796 C138.46574,41.8008085 138.486362,42.2214925 138.514483,42.529561 C138.541532,42.8663249 138.569653,43.118627 138.597506,43.2867382 C136.905176,43.2867382 135.601447,42.9291297 134.685784,42.2141834 C133.770656,41.499237 133.312959,40.3005311 133.312959,38.6177949 L133.271179,21.4986067 C133.271179,19.563839 133.576222,18.0641031 134.186575,16.9977745 C134.491349,16.4374039 134.852633,15.9885659 135.268552,15.6520728 C135.684738,15.3155797 136.156094,15.0353944 136.683424,14.8109754 C137.043637,14.6707474 137.418044,14.5519055 137.806913,14.4533669 C138.194978,14.3553697 138.611432,14.278488 139.055471,14.2219095 C139.637703,14.1661431 140.247789,14.1239123 140.886262,14.0954877 C141.523932,14.0681459 142.189991,14.0537983 142.883634,14.0537983 L146.545484,14.0537983 C148.320569,14.0537983 149.596713,14.0259151 150.373915,13.9696073 C151.150314,13.913841 151.649523,13.8716101 151.87181,13.8431855 L151.955101,13.8431855 L152.204706,13.8431855 L152.204706,14.0954877 C152.204706,15.0494714 152.038392,15.7925716 151.705497,16.325059 C151.427771,16.8862418 150.998194,17.3207321 150.415426,17.6290713 C149.888097,17.9097981 149.305864,18.0779093 148.667926,18.1336756 C148.029453,18.1902541 147.391515,18.2178666 146.753577,18.2178666 L139.679483,18.2178666 C139.402025,18.2460205 139.165811,18.3164052 138.97218,18.4282086 C138.805867,18.5123996 138.680797,18.6247444 138.597506,18.7647017 C138.431192,19.0735824 138.347901,19.5362265 138.347901,20.1526343 L138.389413,25.2842218 L148.709438,25.2842218 C148.709438,26.5460032 148.36208,27.5554826 147.66924,28.3126597 C146.975597,29.0701076 145.990301,29.4482901 144.714693,29.4482901 L138.389413,29.4482901 L138.431192,39.2068608 Z" id="Fill-18"></path>
                <path d="M209.337431,32.6872866 C209.337431,31.5096961 209.219591,30.5632924 208.984181,29.8478046 C208.7477,29.1328583 208.435962,28.5724876 208.047628,28.1656098 C207.658759,27.7595441 207.228914,27.4858558 206.757826,27.3453571 C206.285398,27.2053998 205.81431,27.1350151 205.342954,27.1350151 C204.870794,27.1350151 204.406401,27.2053998 203.948703,27.3453571 C203.491005,27.4858558 203.075355,27.7595441 202.700412,28.1656098 C202.326005,28.5724876 202.020159,29.1328583 201.785017,29.8478046 C201.549071,30.5632924 201.430964,31.5096961 201.430964,32.6872866 L201.430964,39.2068067 C201.430964,40.0481748 201.445158,40.7355087 201.473011,41.2677254 C201.500596,41.8007543 201.527913,42.2217091 201.556034,42.5297776 C201.583351,42.8662707 201.611472,43.1185729 201.639593,43.2869548 C199.918874,43.2869548 198.601487,42.9225785 197.686091,42.1932845 C196.770428,41.4642612 196.312731,40.2728645 196.312731,38.6177407 L196.354778,32.6872866 C196.354778,31.5096961 196.236135,30.5632924 196.000993,29.8478046 C195.765047,29.1328583 195.452773,28.5724876 195.06444,28.1656098 C194.676106,27.7595441 194.245726,27.4858558 193.774637,27.3453571 C193.302746,27.2053998 192.831121,27.1350151 192.359765,27.1350151 C191.888141,27.1350151 191.423212,27.2053998 190.965514,27.3453571 C190.508352,27.4858558 190.091898,27.7595441 189.717224,28.1656098 C189.342817,28.5724876 189.04447,29.1328583 188.822718,29.8478046 C188.600163,30.5632924 188.489823,31.5096961 188.489823,32.6872866 L188.489823,39.2068067 C188.489823,40.0481748 188.49625,40.7355087 188.51098,41.2677254 C188.524371,41.8007543 188.54526,42.2217091 188.573381,42.5297776 C188.600163,42.8662707 188.628283,43.1185729 188.656136,43.2869548 C186.936221,43.2869548 185.618298,42.9225785 184.703439,42.1932845 C183.787775,41.4642612 183.330078,40.2728645 183.330078,38.6177407 L183.371589,32.6872866 C183.371589,30.8090975 183.641816,29.2736277 184.183072,28.0814188 C184.723793,26.8897514 185.4244,25.9574246 186.284625,25.2841676 C187.144047,24.6114521 188.107917,24.1558464 189.176503,23.9173505 C190.24375,23.679396 191.305373,23.559742 192.359765,23.559742 C193.524765,23.559742 194.676106,23.7005114 195.813521,23.9804261 C196.950936,24.2611528 197.963281,24.7941817 198.851359,25.5787006 C199.738902,24.7941817 200.751514,24.2611528 201.888929,23.9804261 C203.026344,23.7005114 204.177686,23.559742 205.342954,23.559742 C206.397078,23.559742 207.46486,23.679396 208.546837,23.9173505 C209.628814,24.1558464 210.606879,24.6114521 211.480763,25.2841676 C212.354379,25.9574246 213.061949,26.8897514 213.603205,28.0814188 C214.143926,29.2736277 214.414152,30.8090975 214.414152,32.6872866 L214.414152,39.2068067 C214.414152,40.0481748 214.42058,40.7355087 214.43531,41.2677254 C214.448701,41.8007543 214.469858,42.2217091 214.497711,42.5297776 C214.525296,42.8662707 214.552613,43.1185729 214.580734,43.2869548 C212.860551,43.2869548 211.549859,42.9225785 210.648123,42.1932845 C209.746654,41.4642612 209.295919,40.2728645 209.295919,38.6177407 L209.337431,32.6872866 Z" id="Fill-20"></path>
                <path d="M227.605354,38.3655198 C227.660792,37.8893401 227.528758,37.4895007 227.210057,37.1668139 C226.890553,36.8449391 226.43339,36.5360585 225.836696,36.2415255 C225.240002,35.9469925 224.539931,35.6313441 223.735411,35.2951217 C222.930892,34.9586286 222.084861,34.5103321 221.197318,33.9491493 C220.531527,33.5566191 219.983308,33.0869365 219.553731,32.5401014 C219.12335,31.9932662 218.810809,31.4042003 218.617178,30.7731742 C218.422743,30.1424188 218.33972,29.4975865 218.367841,28.8386772 C218.394623,28.1800387 218.547546,27.5281679 218.825539,26.8827941 C219.102193,26.2663864 219.463209,25.746893 219.907516,25.3264797 C220.350484,24.9055249 220.843533,24.5625348 221.384789,24.295885 C221.925242,24.0297766 222.472926,23.8402792 223.028377,23.7279344 C223.583024,23.6164017 224.095624,23.5595525 224.568051,23.5595525 L225.067261,23.5595525 C226.537571,23.6437435 227.882811,24.0083904 229.103517,24.6532228 C230.323955,25.2985965 231.36442,26.1537709 232.224378,27.2190165 L232.349448,27.3454383 L232.224378,27.5135495 C231.947188,27.9066211 231.641878,28.2008834 231.308982,28.3968777 C231.003672,28.5934135 230.65685,28.6914107 230.268517,28.6914107 C229.880184,28.6914107 229.505241,28.6142582 229.145028,28.4599533 C228.78428,28.3061897 228.395947,28.1445756 227.980296,27.9764644 C227.452966,27.7520454 226.96072,27.5628188 226.503023,27.4082431 C226.045325,27.2544796 225.580396,27.1767857 225.108772,27.1767857 C224.498419,27.1767857 224.040721,27.3105167 223.735411,27.576625 C223.430101,27.8435456 223.249593,28.1589232 223.19469,28.5232995 C223.138717,29.0560577 223.305031,29.4975865 223.6939,29.8478858 C224.082233,30.1989973 224.650807,30.5284519 225.400156,30.8365204 C226.259578,31.2011674 227.174973,31.6007361 228.14661,32.0352263 C229.117176,32.4702581 229.977669,33.0027455 230.726215,33.6335009 C231.475296,34.264527 232.043602,35.0217042 232.432203,35.9050324 C232.820536,36.7880899 232.862048,37.8609155 232.557273,39.122697 C232.418277,39.6273013 232.183134,40.1532917 231.850239,40.7001268 C231.517343,41.2469619 231.052147,41.7450692 230.455988,42.1933657 C229.859026,42.6422037 229.138065,43.0136184 228.292034,43.3078807 C227.445467,43.6024137 226.454012,43.7496802 225.317133,43.7496802 C225.094578,43.7496802 224.914338,43.7350618 224.775877,43.7074493 C223.444027,43.6508708 222.133335,43.3008422 220.843533,42.6560099 C219.553731,42.0111776 218.478181,41.1562739 217.618492,40.0899454 L217.493689,39.9640651 L217.618492,39.7956832 C217.756953,39.5715349 217.909876,39.3896175 218.076457,39.248848 C218.242771,39.1088907 218.394623,38.9824689 218.534155,38.8703948 C218.86705,38.7020129 219.199678,38.6178219 219.532573,38.6178219 C219.920907,38.6178219 220.295046,38.6955158 220.656062,38.8492794 C221.016274,39.0038551 221.405143,39.1646571 221.82133,39.333039 C222.209663,39.5293041 222.646471,39.6979567 223.132289,39.8376433 C223.617304,39.9784127 224.151597,40.0761392 224.734365,40.1321763 C225.732784,40.1321763 226.447049,39.9364526 226.877162,39.543381 C227.307007,39.1511215 227.549916,38.7585914 227.605354,38.3655198" id="Fill-22"></path>
                <path d="M182.443687,24.0090672 L180.412302,24.0090672 C179.361659,24.0090672 178.304589,24.128992 177.240556,24.3669465 C176.482904,24.5369526 175.467881,24.8176794 174.815213,25.2083146 C174.418845,24.8155137 173.943204,24.5031138 173.388825,24.2708442 C172.753565,24.0044651 172.007429,23.9132357 171.15015,23.997156 C170.266089,24.0540052 169.616367,24.3128044 169.201788,24.7762607 C168.787209,25.2389048 168.511358,25.7229352 168.372629,26.2283516 C168.207119,26.8174176 168.151949,27.4763268 168.206851,28.2067036 C168.345312,28.0098971 168.579919,27.8485537 168.911475,27.7224026 C169.243032,27.5959808 169.574856,27.5605178 169.906412,27.6170963 C170.238236,27.6731333 170.528549,27.8485537 170.77735,28.1433574 C171.025883,28.4378904 171.15015,28.9219207 171.15015,29.5951776 L171.15015,32.8669842 C171.148811,32.9582137 171.147472,33.0497138 171.147472,33.1428382 L171.147472,38.6144381 C171.147472,40.2979864 171.603563,41.4977752 172.515744,42.2132629 C173.427658,42.9290214 174.726566,43.2866299 176.412736,43.2866299 C176.384616,43.118248 176.356763,42.8662166 176.329713,42.5289113 C176.30186,42.2205721 176.280971,41.8069265 176.26758,41.2874332 C176.253118,40.7684812 176.24669,40.0876444 176.24669,39.2460056 L176.24669,33.1428382 C176.24669,31.9644356 176.438982,31.0456443 176.599136,30.3228473 C176.912481,28.9110923 178.567317,28.0570008 179.02314,27.9024251 C179.479766,27.7486615 179.942017,27.6436259 180.412302,27.5867767 C181.130584,27.5028564 181.648541,27.2646312 181.966974,26.8712889 C182.284068,26.4787588 182.471004,26.0716102 182.526442,25.6509262 C182.609465,25.1455097 182.581612,24.5986746 182.443687,24.0090672" id="Fill-24"></path>
                <path d="M163.097697,36.4156194 C162.98575,36.9773436 162.776317,37.5247202 162.469668,38.0580198 C162.329332,38.3387465 162.162215,38.5988993 161.967245,38.8365831 C161.771204,39.0753497 161.533919,39.278924 161.255122,39.4473059 C160.66914,39.8679899 159.98487,40.093221 159.203383,40.1208335 C159.091704,40.1492581 158.924319,40.1630643 158.70096,40.1630643 C157.974911,40.1630643 157.395892,40.0650671 156.963101,39.8679899 C156.530311,39.6722663 156.202236,39.4334996 155.979413,39.1525022 C155.727934,38.8723168 155.560549,38.5699333 155.47699,38.2475171 C155.393163,37.9248302 155.351384,37.6229881 155.351384,37.3422613 C155.351384,37.1738794 155.365043,37.0471869 155.393163,36.9632667 C155.420749,36.7106938 155.47699,36.4789657 155.560549,36.2686236 C155.644375,36.0580109 155.755519,35.8682429 155.895586,35.6998609 C156.257942,35.2231398 156.788485,34.8728405 157.486682,34.6473387 C157.793599,34.5355352 158.128637,34.4581121 158.491528,34.4158812 C158.854419,34.3736504 159.230968,34.3530764 159.622247,34.3530764 C160.096817,34.3530764 160.564424,34.3812303 161.025068,34.4367259 C161.485712,34.4935751 161.897077,34.5496122 162.260236,34.6053785 C162.455206,34.6622277 162.622591,34.7041879 162.762659,34.7318003 C162.902191,34.7599542 163.027797,34.7881081 163.139744,34.8159913 C163.167061,34.8159913 163.187683,34.8233005 163.202413,34.836836 C163.216071,34.8514544 163.236961,34.8579514 163.265082,34.8579514 C163.265082,35.3357554 163.20884,35.8547073 163.097697,36.4156194 M167.862145,41.700429 C167.847683,41.1812064 167.841523,40.5003696 167.841523,39.65846 L167.841523,36.0306691 C167.810992,34.7082485 167.782871,32.7883699 167.782871,31.3538752 C167.782871,30.2260954 167.350884,28.9545684 167.198497,28.6029155 C166.802129,27.6879141 166.272657,26.8682028 165.61008,26.1426988 C164.828057,25.3289431 163.907037,24.6903372 162.846485,24.2271516 C161.785398,23.7636953 160.612899,23.5325085 159.329257,23.5325085 L158.973329,23.5325085 C158.87504,23.5325085 158.756666,23.5468562 158.617401,23.5744686 C157.277517,23.6586596 156.042082,23.9745787 154.911362,24.5219553 C153.781178,25.0693318 152.796954,25.791858 151.959761,26.6900754 L151.875667,26.8164971 L151.959761,26.984879 C152.210705,27.4342584 152.503696,27.7574867 152.839001,27.9534811 C153.201357,28.1215923 153.578442,28.2057832 153.969453,28.2057832 C154.332076,28.2057832 154.708893,28.1567846 155.100173,28.058246 C155.490649,27.9605195 155.881392,27.8414069 156.272671,27.7006375 C156.663147,27.5604095 157.053623,27.4412969 157.444903,27.3424876 C157.835378,27.2444904 158.226122,27.1814148 158.617401,27.153261 L159.077777,27.153261 C159.496909,27.153261 159.866228,27.188724 160.187339,27.2585673 C160.508183,27.3286813 160.808137,27.4342584 161.088005,27.5742157 C161.813251,27.9678287 162.357721,28.5991255 162.720612,29.4686475 C162.999408,30.1427166 163.181255,30.9147828 163.265082,31.7845755 C161.952783,31.3636208 160.57112,31.153008 159.119557,31.153008 C158.08659,31.153008 157.09567,31.272662 156.146798,31.5106165 C155.19739,31.7496539 154.34627,32.1075331 153.592636,32.5842542 C152.782492,33.1180953 152.182852,33.7496628 151.792108,34.4789568 C151.345123,35.2093336 151.1223,36.1210864 151.1223,37.2158395 L151.1223,37.4684124 C151.149617,38.6470857 151.42895,39.6441124 151.959761,40.457868 C152.321849,41.1035125 152.768834,41.6300443 153.299645,42.0366514 C153.829653,42.4443414 154.415635,42.7735253 155.058126,43.0263689 C155.67196,43.3070956 156.299989,43.4957808 156.94248,43.5943194 C157.584435,43.692858 158.198269,43.7418566 158.784786,43.7418566 L159.329257,43.7418566 C159.496909,43.7418566 159.664027,43.7272383 159.831412,43.6996258 C161.088005,43.5591271 162.224884,43.2093692 163.244192,42.6473742 C163.419344,42.5510013 163.588871,42.4470485 163.755185,42.3406593 C163.854009,42.4432585 163.959797,42.5385486 164.073083,42.6265295 C164.994103,43.342288 166.305866,43.7004379 168.008908,43.7004379 C167.98052,43.532056 167.952399,43.2794832 167.925082,42.9421779 C167.896961,42.633568 167.876071,42.2199224 167.862145,41.700429" id="Fill-26"></path>
            </g>
        </g>
    </g>
</svg>