<?xml version="1.0" encoding="UTF-8" standalone="no"?>
<svg width="394px" height="99px" viewBox="0 0 394 99" version="1.1" xmlns="http://www.w3.org/2000/svg" xmlns:xlink="http://www.w3.org/1999/xlink">
    <!-- Generator: Sketch 46 (44423) - http://www.bohemiancoding.com/sketch -->
    <title>Logo sicar green</title>
    <desc>Created with Sketch.</desc>
    <defs>
        <polygon id="path-1" points="38.0504368 0.137775701 0 0.137775701 0 28.9034591 0 57.6691425 38.0504368 57.6691425 38.0504368 0.137775701"></polygon>
    </defs>
    <g id="Symbols" stroke="none" stroke-width="1" fill="none" fill-rule="evenodd">
        <g id="Footer" transform="translate(-52.000000, -53.000000)">
            <g id="Logo-sicar-green" transform="translate(52.000000, 53.000000)">
                <path d="M38.4569814,47.3812473 C38.4569814,43.8440858 39.1381032,38.8533906 45.8279515,35.3649099 C52.516894,31.8759699 61.6604113,25.8671123 61.6604113,25.8671123 L61.6604113,38.9659074 C61.6604113,42.9549732 60.8936963,49.5039116 52.516894,54.3595865 C42.1012549,60.3959992 38.4569814,62.4998342 38.4569814,62.4998342 L38.4569814,47.3812473 Z M30.8795009,74.7159463 C30.8795009,74.7159463 42.6216067,67.9318708 55.8097377,60.3725773 C68.9974159,52.8142024 69.1885285,40.7974058 69.1885285,40.7974058 L69.1885285,12.693459 L39.3649929,30.5395456 C39.3649929,30.5395456 37.978294,31.4562132 37.7545745,31.6298106 C34.9209446,33.8264145 31.6860687,36.1828383 30.8795009,49.5806067 C30.7472618,51.7762921 30.8795009,74.7159463 30.8795009,74.7159463 L30.8795009,74.7159463 Z" id="Fill-1" fill="#8BC440"></path>
                <g id="Group-5" transform="translate(0.000000, 0.321477)">
                    <mask id="mask-2" fill="white">
                        <use xlink:href="#path-1"></use>
                    </mask>
                    <g id="Clip-4"></g>
                    <path d="M7.6762069,28.0482853 L7.6762069,12.5425487 C7.6762069,12.5425487 16.8862966,18.4214379 23.5086667,22.0389685 C29.4059862,25.2615422 30.7387931,30.5213592 30.8791839,34.0566837 C30.8864299,34.2293625 30.8791839,34.7473992 30.8791839,34.7473992 L30.8791839,49.1738928 C30.8791839,49.1738928 27.3032943,46.9478967 16.8192713,41.0336452 C9.22729885,36.7511171 7.6762069,32.0368919 7.6762069,28.0482853 M30.8791839,49.2588545 C31.6862046,35.8615453 34.9210805,33.5051216 37.7547103,31.3085177 C37.7669379,31.2984141 37.7841471,31.2860143 37.8031678,31.2722367 C37.8860437,31.2070229 37.9680138,31.1427276 38.0504368,31.077973 C36.0496414,20.9197706 27.3313724,15.837225 27.3313724,15.837225 L0,0.13768385 L0,23.7841274 C0,33.6686154 3.05825517,39.0956003 6.49828276,42.3907358 C9.8327908,45.5848358 29.6115908,56.9733753 30.8207632,57.6691425 C30.8184989,53.534953 30.8320851,50.0501463 30.8791839,49.2588545" id="Fill-3" fill="#037F49" mask="url(#mask-2)"></path>
                </g>
                <path d="M107.855145,52.2845926 C106.688996,50.5229006 104.919619,48.7961119 102.545655,47.1014707 C100.830623,45.8973111 98.9942209,44.8166904 97.03826,43.8573122 C95.0813933,42.8988526 93.3006945,41.9289117 91.6961634,40.9474894 C90.0902738,39.9679042 88.8154347,38.9639786 87.8702876,37.9384681 C86.9246876,36.9129576 86.6506991,35.7308421 87.0460577,34.3930401 C87.2213198,33.7689161 87.5405956,33.2568498 88.0025267,32.855004 C88.4640048,32.4536175 88.9920554,32.1422444 89.5853198,31.9185885 C90.179037,31.6963104 90.805814,31.5401646 91.4651979,31.4501511 C92.1250347,31.3615154 92.7395841,31.3165087 93.3120163,31.3165087 C94.4102347,31.2728797 95.6746577,31.3950408 97.1043795,31.6843698 C98.5327428,31.9746173 99.8845703,32.3645225 101.160315,32.855004 C101.59915,33.0336532 102.006736,33.200821 102.380809,33.3569668 C102.753524,33.5135719 103.116276,33.6577771 103.469065,33.7914195 C104.171471,34.1037111 104.765189,34.2593976 105.249763,34.2593976 C105.777361,34.2593976 106.260577,34.1037111 106.70077,33.7914195 C107.0522,33.5682229 107.492393,33.1222889 108.019538,32.4536175 L108.151777,32.2529242 C107.007819,31.0051356 105.622478,29.8905302 103.996662,28.9086487 C102.588678,28.0622466 100.874099,27.2815176 98.8520186,26.5678395 C96.8290324,25.8550799 94.4763543,25.4973223 91.7948899,25.4973223 C90.2120968,25.4973223 88.6392669,25.7099561 87.0791175,26.1329276 C85.5176094,26.5572767 84.111437,27.2259481 82.857883,28.139401 C81.6052347,29.0542317 80.5600025,30.2023625 79.7253566,31.5842528 C78.889352,32.9666023 78.3834922,34.5937333 78.2082301,36.4665644 C77.9876807,38.9639786 78.6475175,41.3387724 80.1868347,43.5895681 C81.7256991,45.8417416 84.0779244,47.8817404 87.2439634,49.7091055 C89.1781864,50.7796227 91.0032669,51.783089 92.7182991,52.7195046 C94.4333313,53.6554608 95.9273611,54.5702915 97.203106,55.4617003 C98.4779451,56.3540276 99.4787956,57.2789618 100.203846,58.2369621 C100.929803,59.1963403 101.269911,60.2549169 101.226435,61.4140698 C101.226435,62.0822819 101.072005,62.784938 100.764957,63.5206603 C100.45655,64.2568418 99.9506899,64.9250539 99.2478301,65.5271337 C98.5436117,66.1292135 97.6206554,66.6206135 96.4776025,66.9990375 C95.3336439,67.3783799 93.9487566,67.5666733 92.3224876,67.5666733 L91.5969841,67.5666733 C89.9254278,67.4789561 88.4970646,67.2892849 87.310083,66.9990375 C86.1231014,66.7092492 85.089191,66.3868541 84.2101634,66.0286373 C83.7704232,65.8063591 83.3746117,65.6171472 83.022729,65.4605421 C82.6703933,65.3048556 82.3194163,65.1826945 81.9675336,65.092681 C81.6151979,64.9585793 81.2963749,64.8478995 81.0115175,64.7583453 C80.7248485,64.6692504 80.4282163,64.6242436 80.1207152,64.6242436 C79.6365933,64.6242436 79.1751152,64.7583453 78.7358278,65.0256302 C78.251706,65.3829285 77.8124186,65.8518251 77.4166071,66.4300238 L77.2187014,66.6307171 C77.3939634,67.0771104 77.8672163,67.6791902 78.6371014,68.4364973 C79.4056278,69.1951821 80.4282163,69.9419264 81.7039611,70.6771894 C82.9788002,71.4133709 84.5067956,72.0489761 86.2874945,72.5844644 C88.0681933,73.1190341 90.0803106,73.386319 92.3224876,73.386319 C95.7081703,73.386319 98.7963152,72.7952612 101.589186,71.6140642 C104.380699,70.4328672 106.480221,68.727204 107.887752,66.4970747 C108.679375,65.292915 109.294377,63.9119433 109.73457,62.3509446 C110.173405,60.7904051 110.262168,59.1628148 109.998596,57.4677145 C109.73457,55.7739919 109.019483,54.0462846 107.855145,52.2845926" id="Fill-6" fill="#037F49"></path>
                <path d="M115.538371,40.5291105 C116.153827,40.8414021 116.813211,40.9975479 117.516976,40.9975479 C119.143245,40.9975479 120.41899,40.2172782 121.342399,38.6567388 C121.737758,37.9435199 121.935663,37.1852943 121.935663,36.3825212 C121.935663,35.6247548 121.759496,34.9106175 121.408519,34.2424053 C121.056183,33.5728154 120.528132,33.060749 119.825273,32.7034507 C119.209365,32.3470709 118.572171,32.1684218 117.912788,32.1684218 C117.16464,32.1684218 116.439137,32.3810556 115.735824,32.804027 C115.032512,33.2283761 114.483176,33.8189747 114.087365,34.5762818 C113.691553,35.2454124 113.4941,36.003638 113.4941,36.8500401 C113.4941,37.6091842 113.668457,38.311381 114.021245,38.9570898 C114.373128,39.6041763 114.878988,40.127724 115.538371,40.5291105" id="Fill-8" fill="#037F49"></path>
                <path d="M125.365547,67.466786 C124.837949,67.6674792 124.310804,67.7239673 123.782754,67.6339538 C123.255156,67.5453181 122.793678,67.2660927 122.397866,66.7981146 C122.002055,66.3296772 121.804602,65.5608888 121.804602,64.4903716 L121.804602,48.506094 C121.804602,47.1678327 121.814112,46.0872119 121.837209,45.2614762 C121.858947,44.436659 121.891554,43.7799282 121.935935,43.2889875 C121.978958,42.7534992 122.02334,42.3300686 122.068174,42.017777 C119.34097,42.017777 117.27496,42.5978127 115.868335,43.7569656 C114.460351,44.917037 113.757491,46.833497 113.757491,49.5086419 L113.691372,65.2931447 C113.691372,66.4077501 113.856218,67.4787265 114.18591,68.5037777 C114.516055,69.5297475 115.021009,70.4211562 115.703036,71.1784633 C116.384611,71.9380667 117.230579,72.528206 118.242298,72.9516366 C119.253565,73.3750673 120.440547,73.5206503 121.804602,73.3860893 C123.210774,73.2965351 124.244685,72.885045 124.904069,72.1488635 C125.563452,71.4136005 126.00274,70.6438936 126.222836,69.8415798 C126.486862,68.9051643 126.574719,67.858069 126.486862,66.6979976 C126.266312,67.0102891 125.893144,67.2660927 125.365547,67.466786" id="Fill-10" fill="#037F49"></path>
                <path d="M140.666333,35.6636535 C141.986006,34.192209 143.46962,33.1005662 145.118533,32.3864288 C146.767446,31.6736692 148.449418,31.3163709 150.163997,31.3163709 C151.482765,31.3163709 152.581436,31.4169472 153.461823,31.6176404 C154.34085,31.8183337 155.09896,32.0305083 155.737512,32.2532457 C156.3738,32.4764423 156.957554,32.6872391 157.485151,32.8879324 C158.012749,33.0886257 158.58337,33.1892019 159.200183,33.1892019 C159.815186,33.1892019 160.364069,33.0335154 160.848643,32.7212238 C161.068287,32.6325881 161.277514,32.4865459 161.47542,32.2863118 C161.672873,32.0856186 161.837719,31.8743625 161.969958,31.6507066 C162.144767,31.4284285 162.29965,31.1827285 162.431436,30.9154436 C162.21134,30.5590638 161.79379,30.0796044 161.178335,29.4775245 C160.561974,28.8754447 159.737744,28.284387 158.705193,27.7048105 C157.671735,27.1256933 156.451241,26.624649 155.044616,26.1998406 C153.636632,25.7768692 152.010363,25.5646946 150.163997,25.5646946 C147.261983,25.5646946 144.447374,26.0661982 141.721981,27.0696645 C138.994777,28.0726716 136.587754,29.5776416 134.499554,31.584115 C132.410448,33.5905885 130.729381,36.0880027 129.454089,39.0754391 C128.178344,42.0628756 127.541604,45.5182901 127.541604,49.4421421 C127.541604,53.3664533 128.178344,56.8218679 129.454089,59.8083859 C130.729381,62.7972001 132.410448,65.2932365 134.499554,67.3001692 C136.587754,69.3066427 138.994777,70.8226346 141.721981,71.8481451 C144.447374,72.8731963 147.261983,73.3861812 150.163997,73.3861812 C152.010363,73.3861812 153.636632,73.1740066 155.044616,72.7505759 C156.451241,72.3280638 157.671735,71.837123 158.705193,71.2791315 C159.737744,70.7225176 160.561974,70.1424819 161.178335,69.5408614 C161.79379,68.9387816 162.21134,68.4363595 162.431436,68.0354322 C162.29965,67.7681473 162.144767,67.5233659 161.969958,67.3001692 C161.706386,66.9433301 161.331859,66.5869503 160.848643,66.229652 C160.364069,65.9182789 159.815186,65.7616739 159.200183,65.7616739 C158.58337,65.7616739 158.012749,65.8622501 157.485151,66.0624842 C156.957554,66.2631774 156.3738,66.475352 155.737512,66.6980894 C155.09896,66.921286 154.34085,67.1325421 153.461823,67.3332354 C152.581436,67.5339287 151.482765,67.6340457 150.163997,67.6340457 C148.449418,67.6340457 146.767446,67.2776659 145.118533,66.564447 C143.46962,65.8516873 141.986006,64.7476447 140.666333,63.2527784 C139.347565,61.7602083 138.29237,59.8754367 137.500747,57.6016784 C136.709124,55.3274608 136.313765,52.6082277 136.313765,49.4421421 C136.313765,46.3215225 136.709124,43.612393 137.500747,41.315672 C138.29237,39.0194103 139.347565,37.1355573 140.666333,35.6636535" id="Fill-12" fill="#037F49"></path>
                <path d="M213.982034,42.0845982 L210.750328,42.0845982 C209.078319,42.0845982 207.3968,42.2751879 205.704411,42.6531526 C204.498862,42.9236522 202.883914,43.3695862 201.845475,43.9900361 C201.215075,43.3663715 200.458324,42.8694604 199.576126,42.5006808 C198.565312,42.0772502 197.378331,41.9321264 196.014728,42.0657689 C194.608103,42.1557823 193.574646,42.5672724 192.914809,43.3034539 C192.255425,44.0391761 191.81659,44.8079646 191.596041,45.6111969 C191.332016,46.5471532 191.244611,47.5942485 191.332016,48.7547791 C191.552112,48.441569 191.925733,48.1857655 192.453331,47.9850722 C192.980475,47.784379 193.508526,47.7278909 194.036124,47.8179044 C194.563721,47.9069993 195.025652,48.1857655 195.421464,48.6542029 C195.816823,49.122181 196.014728,49.8909694 196.014728,50.9610274 L196.014728,56.1602231 C196.012464,56.3053468 196.010652,56.4504705 196.010652,56.5983498 L196.010652,65.292915 C196.010652,67.9680599 196.736156,69.8748756 198.187163,71.0119844 C199.63817,72.1490932 201.704632,72.7176476 204.387002,72.7176476 C204.342167,72.4499034 204.298239,72.0489761 204.254763,71.5134879 C204.210834,71.0234657 204.177321,70.3658163 204.156036,69.5405399 C204.133393,68.7161819 204.122977,67.6337242 204.122977,66.2963814 L204.122977,56.5983498 C204.122977,54.725978 204.428666,53.2660148 204.683634,52.1174247 C205.181795,49.8739771 207.815255,48.5168864 208.540305,48.2711864 C209.266714,48.0268642 210.001728,47.8596963 210.750328,47.7696829 C211.892928,47.6364997 212.717158,47.2576165 213.223471,46.6325741 C213.728425,46.0089094 214.025057,45.3622821 214.11382,44.6936107 C214.245606,43.8903784 214.201678,43.021473 213.982034,42.0845982" id="Fill-14" fill="#037F49"></path>
                <path d="M182.283647,61.7479922 C182.107479,62.6407787 181.777787,63.5101434 181.294571,64.3570047 C181.073569,64.8029387 180.809997,65.2162658 180.502948,65.5937712 C180.194541,65.9731137 179.820468,66.2964273 179.381633,66.5641714 C178.458224,67.2323836 177.380385,67.5901411 176.149928,67.6337701 C175.973307,67.6792361 175.709734,67.700821 175.358305,67.700821 C174.214346,67.700821 173.302259,67.5451344 172.621137,67.2323836 C171.939109,66.9214697 171.42238,66.5421273 171.071403,66.095734 C170.675139,65.6507185 170.411567,65.1703406 170.27978,64.6582742 C170.147994,64.1457486 170.081875,63.6658299 170.081875,63.2198959 C170.081875,62.952611 170.103613,62.7514585 170.147994,62.6178161 C170.19147,62.2168888 170.27978,61.8485684 170.411567,61.514692 C170.543353,61.179897 170.718615,60.8786275 170.939617,60.6108834 C171.510238,59.8535763 172.34579,59.2969624 173.44582,58.9392049 C173.928583,58.7614742 174.456633,58.6383946 175.028613,58.5713438 C175.599686,58.5042929 176.192951,58.4712267 176.809311,58.4712267 C177.557006,58.4712267 178.293378,58.5162335 179.018882,58.6044099 C179.744838,58.6944234 180.3929,58.7839776 180.964426,58.872154 C181.271475,58.9626267 181.5355,59.0292183 181.756049,59.0728473 C181.975693,59.117854 182.173599,59.1624015 182.349767,59.206949 C182.39279,59.206949 182.425849,59.2184303 182.448493,59.2400152 C182.470231,59.263437 182.503291,59.2735406 182.54722,59.2735406 C182.54722,60.0322254 182.458909,60.8570426 182.283647,61.7479922 M189.788668,70.1431249 C189.765571,69.3183077 189.756061,68.2367684 189.756061,66.8994256 L189.756061,61.1362681 C189.707603,59.0361071 189.663675,55.9862124 189.663675,53.706943 C189.663675,51.9158589 188.983006,49.8956079 188.742983,49.337157 C188.118923,47.8836234 187.28473,46.5811838 186.240856,45.4289196 C185.009493,44.1361243 183.558486,43.1216359 181.887836,42.3859137 C180.216279,41.6497322 178.369461,41.2823303 176.347833,41.2823303 L175.787176,41.2823303 C175.632293,41.2823303 175.445709,41.3048337 175.226518,41.3489219 C173.116128,41.4830236 171.17013,41.9845271 169.388978,42.8538918 C167.608732,43.7237157 166.058546,44.8713873 164.739778,46.2987436 L164.607539,46.4994368 L164.739778,46.7667217 C165.135137,47.4803998 165.596615,47.9938439 166.124666,48.305217 C166.695739,48.5725019 167.289456,48.7061443 167.905364,48.7061443 C168.476891,48.7061443 169.070155,48.6285307 169.686063,48.4719256 C170.301518,48.3166983 170.916974,48.1274864 171.533334,47.9038305 C172.148337,47.6810931 172.763339,47.4918811 173.380153,47.3348168 C173.994702,47.1791303 174.610157,47.0790133 175.226518,47.0340066 L175.952022,47.0340066 C176.611859,47.0340066 177.193801,47.0904946 177.699661,47.2016337 C178.204615,47.313232 178.677415,47.4803998 179.118061,47.7031372 C180.260661,48.3281796 181.118403,49.3311867 181.68993,50.7121585 C182.129217,51.783135 182.415433,53.009798 182.54722,54.3916882 C180.480305,53.7225576 178.303794,53.3882219 176.017689,53.3882219 C174.390061,53.3882219 172.829459,53.5778931 171.334976,53.956317 C169.839587,54.3361187 168.498629,54.9042139 167.311647,55.6619802 C166.035902,56.50976 165.091208,57.5127671 164.475753,58.6714608 C163.771987,59.8315322 163.420557,61.280014 163.420557,63.0192026 L163.420557,63.4205892 C163.464033,65.292961 163.903774,66.876463 164.739778,68.1692583 C165.310399,69.1952281 166.014164,70.0315266 166.850169,70.6772353 C167.685268,71.3252404 168.608224,71.8478696 169.619944,72.2492561 C170.587282,72.6956494 171.576357,72.9955411 172.588077,73.1521462 C173.599344,73.308292 174.566682,73.3859056 175.490544,73.3859056 L176.347833,73.3859056 C176.611859,73.3859056 176.875431,73.362943 177.139003,73.319314 C179.118061,73.0961174 180.908723,72.5404221 182.514613,71.6476355 C182.790413,71.4942453 183.057155,71.3293737 183.319369,71.1603688 C183.475157,71.3234034 183.641815,71.4749567 183.819794,71.6145694 C185.270801,72.7512189 187.33681,73.3202325 190.019633,73.3202325 C189.975252,73.0529477 189.930417,72.6515611 189.887847,72.1156137 C189.843466,71.6260507 189.810406,70.9688606 189.788668,70.1431249" id="Fill-16" fill="#037F49"></path>
                <path d="M234.085363,66.5132863 C234.085363,67.9406425 234.096232,69.1066842 234.120687,70.0095743 C234.143784,70.9138421 234.178655,71.6275203 234.226207,72.1501494 C234.271947,72.7214593 234.319499,73.1494825 234.366598,73.4346782 C231.50489,73.4346782 229.300301,72.8280059 227.751926,71.6151205 C226.204457,70.402235 225.430497,68.3686657 225.430497,65.5139532 L225.359848,36.4717539 C225.359848,33.1894775 225.875671,30.6452195 226.90777,28.8362246 C227.42314,27.8855722 228.034067,27.1241319 228.737379,26.5532812 C229.441145,25.9824306 230.238202,25.5071044 231.12991,25.1263842 C231.739025,24.8884915 232.372143,24.6868797 233.029715,24.5197119 C233.685929,24.3534625 234.390147,24.2230349 235.141011,24.1270511 C236.125559,24.0324451 237.157205,23.9608018 238.236855,23.9125803 C239.315147,23.8661958 240.441444,23.8418554 241.614386,23.8418554 L247.806526,23.8418554 C250.808172,23.8418554 252.966115,23.7945524 254.280354,23.6990279 C255.593234,23.604422 256.437391,23.5327786 256.813276,23.4845571 L256.95412,23.4845571 L257.376198,23.4845571 L257.376198,23.9125803 C257.376198,25.5309855 257.094963,26.7916332 256.532041,27.6949825 C256.062411,28.6470126 255.336002,29.3841126 254.350549,29.907201 C253.458841,30.3834457 252.474294,30.6686414 251.395549,30.7632474 C250.315899,30.8592311 249.237154,30.9060749 248.158409,30.9060749 L236.196207,30.9060749 C235.72703,30.9538371 235.327595,31.0732427 235.000168,31.2629139 C234.718933,31.4057414 234.507441,31.5963311 234.366598,31.8337646 C234.085363,32.3577715 233.94452,33.1426337 233.94452,34.1883513 L234.014715,42.8939386 L251.465745,42.8939386 C251.465745,45.0345137 250.878368,46.7470657 249.706784,48.0315945 C248.533841,49.3165825 246.86772,49.958158 244.710683,49.958158 L234.014715,49.958158 L234.085363,66.5132863 Z" id="Fill-18" fill="#8BC440"></path>
                <path d="M353.9869,55.4530204 C353.9869,53.4552727 353.787635,51.8497266 353.38956,50.6359226 C352.989672,49.4230372 352.462527,48.4723849 351.805861,47.7821286 C351.148288,47.0932501 350.421426,46.628946 349.624822,46.390594 C348.825953,46.1531606 348.029348,46.033755 347.232291,46.033755 C346.433874,46.033755 345.648592,46.1531606 344.874631,46.390594 C344.10067,46.628946 343.39781,47.0932501 342.763787,47.7821286 C342.13067,48.4723849 341.613488,49.4230372 341.215865,50.6359226 C340.816884,51.8497266 340.617166,53.4552727 340.617166,55.4530204 L340.617166,66.5131944 C340.617166,67.9405507 340.641169,69.1065924 340.688268,70.0094824 C340.734914,70.9137503 340.781107,71.6278877 340.828658,72.1505168 C340.874851,72.7213675 340.922403,73.1493907 340.969955,73.4350456 C338.060242,73.4350456 335.832557,72.816892 334.284635,71.5796662 C332.736261,70.3428996 331.9623,68.3217301 331.9623,65.5138613 L332.033401,55.4530204 C332.033401,53.4552727 331.832778,51.8497266 331.435155,50.6359226 C331.036173,49.4230372 330.508123,48.4723849 329.851456,47.7821286 C329.194789,47.0932501 328.467022,46.628946 327.670417,46.390594 C326.872454,46.1531606 326.074943,46.033755 325.277886,46.033755 C324.480376,46.033755 323.694187,46.1531606 322.920226,46.390594 C322.147171,46.628946 321.442953,47.0932501 320.809383,47.7821286 C320.176265,48.4723849 319.671764,49.4230372 319.296785,50.6359226 C318.920447,51.8497266 318.733863,53.4552727 318.733863,55.4530204 L318.733863,66.5131944 C318.733863,67.9405507 318.744732,69.1065924 318.76964,70.0094824 C318.792284,70.9137503 318.827608,71.6278877 318.87516,72.1505168 C318.920447,72.7213675 318.967999,73.1493907 319.015097,73.4350456 C316.106743,73.4350456 313.878153,72.816892 312.331137,71.5796662 C310.782762,70.3428996 310.008801,68.3217301 310.008801,65.5138613 L310.078996,55.4530204 C310.078996,52.2667277 310.535946,49.6618484 311.451203,47.6393011 C312.365555,45.6176724 313.550272,44.0360073 315.004902,42.8938467 C316.458173,41.7526047 318.088065,40.979683 319.895031,40.5750817 C321.699732,40.1713989 323.494923,39.9684094 325.277886,39.9684094 C327.247886,39.9684094 329.194789,40.2072206 331.118143,40.6820875 C333.041497,41.1583322 334.75336,42.0626 336.255088,43.3935133 C337.755911,42.0626 339.468226,41.1583322 341.39158,40.6820875 C343.314934,40.2072206 345.261838,39.9684094 347.232291,39.9684094 C349.014801,39.9684094 350.820408,40.1713989 352.650017,40.5750817 C354.479626,40.979683 356.13352,41.7526047 357.611247,42.8938467 C359.08852,44.0360073 360.285012,45.6176724 361.20027,47.6393011 C362.114622,49.6618484 362.571571,52.2667277 362.571571,55.4530204 L362.571571,66.5131944 C362.571571,67.9405507 362.58244,69.1065924 362.607348,70.0094824 C362.629992,70.9137503 362.665769,71.6278877 362.712868,72.1505168 C362.759514,72.7213675 362.805707,73.1493907 362.853258,73.4350456 C359.944451,73.4350456 357.728088,72.816892 356.203263,71.5796662 C354.678891,70.3428996 353.916704,68.3217301 353.916704,65.5138613 L353.9869,55.4530204 Z" id="Fill-20" fill="#8BC440"></path>
                <path d="M384.877723,65.0859759 C384.971467,64.2781511 384.748201,63.5998354 384.209281,63.0524066 C383.669003,62.5063556 382.895948,61.9823486 381.886946,61.4826821 C380.877943,60.9830156 379.694132,60.4475273 378.3337,59.8771359 C376.973267,59.3062853 375.54264,58.5457634 374.041817,57.5937333 C372.915973,56.9278174 371.988941,56.1310146 371.262532,55.2033249 C370.534764,54.2756352 370.00626,53.2763021 369.678833,52.2057849 C369.350047,51.135727 369.209656,50.0417879 369.257208,48.9239677 C369.302495,47.8066068 369.561086,46.7007271 370.031169,45.6058696 C370.498987,44.560152 371.10946,43.6788468 371.860778,42.9656279 C372.609831,42.2514905 373.443571,41.6696178 374.358828,41.2172542 C375.272727,40.7658092 376.198854,40.4443326 377.138113,40.2537428 C378.076014,40.0645309 378.942814,39.9680879 379.741683,39.9680879 L380.58584,39.9680879 C383.072116,40.1109154 385.3469,40.7295283 387.411097,41.8234673 C389.474842,42.9183249 391.234256,44.369103 392.688433,46.176261 L392.899925,46.3907318 L392.688433,46.6759275 C392.219709,47.3427619 391.703433,47.8419692 391.140511,48.1744679 C390.624235,48.5078851 390.037764,48.6741344 389.381097,48.6741344 C388.724431,48.6741344 388.090408,48.5432475 387.481293,48.2814737 C386.871272,48.0206184 386.214605,47.7464447 385.511746,47.461249 C384.620037,47.0805288 383.787656,46.7595114 383.013695,46.4972784 C382.239734,46.236423 381.453546,46.1046176 380.656035,46.1046176 C379.623936,46.1046176 378.849975,46.3314883 378.3337,46.7829333 C377.817424,47.2357561 377.512187,47.7707851 377.419348,48.3889387 C377.324697,49.2927473 377.605932,50.0417879 378.263504,50.6360604 C378.920171,51.2317107 379.881621,51.7906208 381.148762,52.3132499 C382.602033,52.9318628 384.149955,53.6097193 385.79298,54.3468193 C387.434194,55.0848378 388.889277,55.9881871 390.155058,57.0582451 C391.421746,58.1287623 392.382743,59.4132911 393.039863,60.9118314 C393.696529,62.4099126 393.766725,64.2299296 393.251355,66.3705047 C393.016313,67.2265511 392.61869,68.1188784 392.055769,69.0465681 C391.492847,69.9742578 390.706205,70.8192821 389.698109,71.579804 C388.688654,72.3412443 387.469518,72.9713385 386.03889,73.4705458 C384.607357,73.9702124 382.930819,74.2200456 381.008371,74.2200456 C380.632033,74.2200456 380.327249,74.195246 380.093113,74.1484023 C377.840973,74.0524185 375.62461,73.4586053 373.443571,72.3646662 C371.262532,71.2707271 369.443791,69.8204083 367.990067,68.0114133 L367.779028,67.797861 L367.990067,67.512206 C368.224203,67.1319451 368.482794,66.8233275 368.764481,66.5845163 C369.045716,66.3470828 369.302495,66.132612 369.538442,65.9424815 C370.101364,65.6568266 370.663833,65.5139991 371.226755,65.5139991 C371.883421,65.5139991 372.516086,65.6458045 373.126559,65.9066599 C373.735674,66.1688929 374.393247,66.4416888 375.097012,66.7273438 C375.753679,67.0603017 376.492316,67.3464159 377.313828,67.5833901 C378.133982,67.8222013 379.037465,67.9879914 380.022918,68.0830567 C381.711231,68.0830567 382.919044,67.7510172 383.646359,67.0841828 C384.373221,66.4187262 384.783978,65.7528103 384.877723,65.0859759" id="Fill-22" fill="#8BC440"></path>
                <path d="M308.509925,40.7306764 L305.074879,40.7306764 C303.298256,40.7306764 301.510764,40.9341252 299.711498,41.337808 C298.430318,41.6262184 296.713928,42.1024631 295.610275,42.7651642 C294.940022,42.0987891 294.135718,41.5688119 293.19827,41.1747734 C292.124054,40.7228691 290.862348,40.5681011 289.4127,40.7104693 C287.917764,40.8069123 286.819093,41.2459575 286.118045,42.0321975 C285.416997,42.8170598 284.950537,43.6382029 284.715948,44.495627 C284.436072,45.4949601 284.34278,46.6127803 284.43562,47.8518431 C284.669755,47.5179667 285.066472,47.2442523 285.62713,47.0302407 C286.187787,46.8157699 286.748898,46.7556078 287.309555,46.8515915 C287.870666,46.9466568 288.36158,47.2442523 288.7823,47.7443781 C289.202567,48.2440446 289.4127,49.0651878 289.4127,50.2073484 L289.4127,55.7578721 C289.410436,55.9126401 289.408171,56.0678674 289.408171,56.2258502 L289.408171,65.5082584 C289.408171,68.3643487 290.179415,70.3997551 291.721902,71.613559 C293.263937,72.8278222 295.460374,73.4344945 298.311666,73.4344945 C298.264114,73.1488396 298.217015,72.7212756 298.171275,72.1490472 C298.124176,71.6259588 298.088852,70.9242213 298.066208,70.042916 C298.041753,69.1625293 298.030884,68.0075097 298.030884,66.5796941 L298.030884,56.2258502 C298.030884,54.2267248 298.356047,52.6680224 298.626866,51.4418186 C299.156728,49.0468177 301.955033,47.5978766 302.725824,47.3356435 C303.497974,47.0747882 304.279633,46.8965983 305.074879,46.8001553 C306.289486,46.657787 307.165344,46.253645 307.70381,45.5863513 C308.240013,44.9204355 308.556118,44.2297199 308.649863,43.5160418 C308.790254,42.6586177 308.743155,41.730928 308.509925,40.7306764" id="Fill-24" fill="#8BC440"></path>
                <path d="M275.796105,61.7780273 C275.606804,62.7309759 275.252657,63.6595841 274.734117,64.5643112 C274.496811,65.0405559 274.214218,65.4818974 273.884526,65.8851209 C273.553023,66.2901815 273.151777,66.6355392 272.680335,66.9211942 C271.689448,67.6348723 270.532356,68.0169703 269.210871,68.063814 C269.022023,68.1120355 268.738977,68.1354574 268.36128,68.1354574 C267.13354,68.1354574 266.154427,67.969208 265.422583,67.6348723 C264.69074,67.3028329 264.13597,66.8977723 263.759179,66.4210684 C263.333931,65.9457422 263.050885,65.4327574 262.909588,64.8857878 C262.767839,64.338359 262.69719,63.8262927 262.69719,63.350048 C262.69719,63.0643931 262.720287,62.849463 262.767839,62.7070947 C262.814485,62.2786123 262.909588,61.8854923 263.050885,61.5286533 C263.192634,61.1713549 263.380577,60.849419 263.617429,60.5637641 C264.230167,59.7550207 265.12731,59.1607482 266.307951,58.778191 C266.826944,58.5885198 267.393489,58.4571736 268.007133,58.3855303 C268.620777,58.3138869 269.257517,58.2789837 269.919165,58.2789837 C270.721657,58.2789837 271.512374,58.326746 272.291317,58.4208927 C273.070259,58.5173357 273.765873,58.6124009 274.37997,58.7070069 C274.709662,58.8034499 274.992708,58.874634 275.22956,58.9214777 C275.465508,58.96924 275.677905,59.0170022 275.867206,59.0643052 C275.9134,59.0643052 275.948271,59.076705 275.973179,59.0996676 C275.996275,59.1244673 276.0316,59.1354893 276.079151,59.1354893 C276.079151,59.9460697 275.984048,60.8264564 275.796105,61.7780273 M283.852726,70.7435514 C283.828271,69.8627054 283.817855,68.7076858 283.817855,67.279411 L283.817855,61.1249704 C283.766227,58.8815228 283.718675,55.6245052 283.718675,53.1909271 C283.718675,51.2776819 282.98819,49.1205736 282.730505,48.5240048 C282.060252,46.9717319 281.164921,45.5811159 280.044512,44.3503196 C278.722121,42.9698071 277.164689,41.8864308 275.37131,41.1006501 C273.577025,40.3144101 271.594344,39.9222086 269.423721,39.9222086 L268.821852,39.9222086 C268.655648,39.9222086 268.455478,39.946549 268.219983,39.9933927 C265.954257,40.1362202 263.865151,40.6721676 261.953119,41.6007759 C260.041993,42.5293841 258.377682,43.7551286 256.962,45.2789278 L256.819797,45.4933987 L256.962,45.7790536 C257.386342,46.5414125 257.881786,47.0897598 258.448783,47.4222585 C259.061521,47.7074542 259.699167,47.8502817 260.360363,47.8502817 C260.973554,47.8502817 261.610747,47.767157 262.272395,47.5999891 C262.932685,47.434199 263.593427,47.232128 264.255075,46.9933168 C264.915365,46.7554241 265.575655,46.5533531 266.237303,46.385726 C266.897593,46.2194766 267.558335,46.1124708 268.219983,46.0647086 L268.998473,46.0647086 C269.70722,46.0647086 270.331733,46.1248706 270.874728,46.2433577 C271.417271,46.3623041 271.924489,46.5414125 272.397742,46.778846 C273.624124,47.4465989 274.544816,48.5175753 275.158459,49.9926938 C275.629901,51.1362321 275.937402,52.4460198 276.079151,53.9215976 C273.860071,53.2074602 271.523696,52.8501619 269.069121,52.8501619 C267.322388,52.8501619 265.646756,53.0531514 264.042225,53.4568342 C262.436788,53.862354 260.997556,54.4694856 259.72317,55.278229 C258.353227,56.1838746 257.339243,57.2553103 256.678501,58.4925361 C255.922655,59.7315989 255.545864,61.2783607 255.545864,63.1355772 L255.545864,63.5640596 C255.592057,65.5636443 256.064404,67.2550706 256.962,68.6355832 C257.574285,69.7309 258.330131,70.6241458 259.227726,71.3139428 C260.123963,72.0055768 261.11485,72.5640276 262.201294,72.9929693 C263.23928,73.469214 264.301269,73.7893129 265.387712,73.9564807 C266.47325,74.1236486 267.511236,74.2067733 268.503029,74.2067733 L269.423721,74.2067733 C269.70722,74.2067733 269.989813,74.1819736 270.272859,74.1351299 C272.397742,73.8967779 274.32019,73.3034239 276.043827,72.3500161 C276.340006,72.1865222 276.626675,72.0101693 276.90791,71.8296832 C277.07502,72.0037398 277.253905,72.1653966 277.445471,72.3146536 C279.002903,73.5289168 281.221078,74.1365076 284.100901,74.1365076 C284.052896,73.8508527 284.005344,73.4223703 283.959151,72.8501419 C283.9116,72.3265942 283.876275,71.6248566 283.852726,70.7435514" id="Fill-26" fill="#8BC440"></path>
                <path d="M207.991241,84.7879471 C208.176467,83.8515316 208.260248,83.2209781 208.310517,82.7957104 C208.361239,82.2850219 208.814113,81.8078587 209.486177,81.824851 L209.855722,81.824851 C210.443552,81.8078587 210.896878,82.2850219 210.779584,82.7272819 C210.64508,83.1874527 210.476611,83.9879295 210.275536,85.0093067 C209.939956,86.9000486 209.553202,89.0456755 209.217623,90.9359581 C209.049154,91.8213966 208.965825,92.4175061 208.915103,92.8436923 C208.864834,93.3713733 208.310517,93.7805671 207.621697,93.7805671 L207.31963,93.7805671 C206.714591,93.7975594 206.261717,93.3543809 206.379464,92.8946693 C206.480002,92.5713557 206.563784,92.2135981 206.697834,91.6344809 C206.714591,91.5320676 206.748556,91.4301136 206.765313,91.3277004 L206.815582,91.1237923 C206.832338,91.0553637 206.832338,91.0043867 206.849547,90.9359581 L207.991241,84.7879471 Z" id="Fill-28" fill="#037F49"></path>
                <path d="M214.439436,84.3110595 C214.523218,84.3110595 214.607,84.2940671 214.691234,84.2940671 C214.909519,84.2940671 215.110595,84.2940671 215.279064,84.2770748 C215.782659,84.226557 216.185717,84.566863 216.118691,84.907169 C216.017701,85.2819189 215.530862,85.5202709 214.976544,85.5202709 C214.657721,85.5032785 214.388714,85.5032785 214.153673,85.5032785 C214.136917,85.5886995 214.12016,85.6396765 214.103404,85.7416305 C214.01917,86.1508243 213.918632,86.6615129 213.818094,87.1722015 C213.733859,87.6323724 213.633321,88.143061 213.549087,88.6032318 C213.482062,88.9945148 213.39828,89.3522724 213.348011,89.6076167 C213.162786,90.4930552 213.028735,91.2600066 213.028735,91.7537028 C213.028735,92.383797 213.297289,92.6391413 213.666381,92.6391413 C213.767372,92.6391413 213.885119,92.622149 214.01917,92.5881643 C214.472949,92.5197357 214.909519,92.8099832 214.858797,93.0993122 C214.758259,93.5245798 214.321689,93.899789 213.717556,93.9842914 C213.599809,94.0012838 213.39828,94.0012838 213.280533,94.0012838 C212.155595,94.0012838 211.433262,93.6784294 211.181011,93.3206718 C210.929213,92.9459219 210.79471,92.6391413 210.79471,92.2983761 C210.79471,91.9750624 210.862188,91.6007718 210.946423,91.1236086 L212.003882,85.4692939 C211.668756,85.4008653 211.399296,85.1625133 211.450018,84.8901767 C211.500287,84.5494114 211.819563,84.2770748 212.25568,84.2770748 C212.339914,83.8518071 212.373427,83.4940496 212.407393,83.1532843 C212.457662,82.6081518 212.961257,82.1309886 213.683137,81.9610653 C214.270967,81.8416596 214.892763,82.1654325 214.775469,82.6081518 C214.607,83.1702767 214.506462,83.5790112 214.388714,84.3110595 L214.439436,84.3110595 Z" id="Fill-30" fill="#037F49"></path>
                <path d="M218.368069,84.1071055 C218.149784,84.3624498 217.746274,84.4988477 217.2934,84.4988477 C216.974124,84.4988477 216.671605,84.2600365 216.806108,84.0726616 C217.343216,83.3401541 217.696005,82.6081059 217.863568,81.842073 C217.897986,81.705675 218.182844,81.6886827 218.418338,81.7226674 L218.485816,81.7226674 C218.518876,81.7226674 218.535632,81.7396597 218.603111,81.7396597 L218.737614,81.7396597 C218.838152,81.7396597 219.022924,81.7396597 219.173731,81.7226674 C219.577242,81.7396597 220.013359,82.0634326 219.879308,82.3187769 C219.593998,82.8124732 219.123462,83.3231618 218.368069,84.1071055" id="Fill-32" fill="#037F49"></path>
                <path d="M221.037442,89.505433 C220.516637,89.1991117 219.52575,88.5860098 219.52575,87.496204 C219.52575,86.5763216 220.147092,85.7248678 220.969964,85.0607889 C221.826348,84.4132431 223.136511,84.2942967 223.824879,84.2942967 C224.328474,84.2942967 224.681263,84.3287407 224.983782,84.4132431 L224.967479,84.4132431 C225.52089,84.5326487 225.807106,85.026345 225.638637,85.4185465 C225.52089,85.6908831 225.185311,85.827281 224.815766,85.827281 C224.597934,85.827281 224.395952,85.7932964 224.245145,85.7078754 L224.261902,85.7078754 C224.010104,85.5884698 223.724341,85.5035081 223.43903,85.5035081 C222.364361,85.5035081 221.792835,86.3209773 221.792835,86.9680639 C221.792835,87.7685407 222.330849,88.074862 222.88426,88.3986349 L223.724341,88.9267751 C224.261902,89.2500887 225.084773,89.7607773 225.084773,90.7660807 C225.084773,91.4981289 224.715228,92.4689883 223.657315,93.2520136 C222.665975,93.984521 221.423743,94.0359573 220.651141,94.0359573 C220.197814,94.0359573 219.727279,93.984521 219.408003,93.9165517 C218.820173,93.7631614 218.417568,93.3204422 218.518559,92.9461515 C218.736391,92.3835674 219.408003,92.1792001 219.928807,92.4345444 L219.912051,92.4345444 C220.231327,92.5883939 220.617175,92.7073403 221.205005,92.7073403 C222.313187,92.7073403 222.901017,91.9922844 222.901017,91.3107539 C222.901017,90.6466751 222.498412,90.3738792 222.078145,90.1185349 L221.037442,89.505433 Z" id="Fill-34" fill="#037F49"></path>
                <path d="M235.9815,85.6739367 C235.67898,85.5715234 235.309435,85.4525771 234.906831,85.4525771 C232.354435,85.4525771 231.682371,89.0967444 231.682371,90.4928715 C231.682371,91.6515651 232.001647,92.4860266 232.841274,92.4860266 C233.328113,92.4860266 233.949456,92.21369 234.520529,91.3622361 C234.974309,90.7316827 235.259166,89.7438309 235.544477,88.0409232 L235.9815,85.6739367 Z M237.25815,84.5671386 C237.862736,84.3793044 238.399844,84.8564675 238.316063,85.3161791 C238.198769,85.8778447 238.013543,86.7467501 237.728233,88.3132599 L237.425713,89.9821829 C237.190672,91.3792285 237.056169,92.5535367 237.056169,93.0481515 C237.056169,93.4738784 236.501851,93.7806589 235.931231,93.7976513 C235.343401,93.8141844 234.839352,93.456886 234.873318,93.0306999 C234.890074,92.7413709 234.93989,92.3496287 235.007369,91.9923303 C234.319001,92.9457382 233.429104,93.984567 232.118941,93.984567 C230.724996,93.984567 229.347355,93.0651438 229.347355,91.1238842 C229.347355,90.3399404 229.801134,87.2409057 232.253444,85.2647429 C232.656049,84.9584216 233.63018,84.3108758 235.192141,84.3108758 C235.9815,84.3108758 236.501851,84.4817176 236.98869,84.6686333 L237.25815,84.5671386 Z" id="Fill-36" fill="#037F49"></path>
                <path d="M240.883448,93.8821537 C239.002211,93.8651614 238.817892,92.7073862 238.868161,91.8389401 C238.884917,91.5151672 238.934733,91.1238842 238.985908,90.8336367 C238.985908,90.8166444 239.002211,90.8001113 239.002211,90.7831189 C239.035724,90.5952847 239.05248,90.4253614 239.05248,90.3569328 C239.06969,90.2545195 239.086446,90.1700171 239.103202,90.1015885 C239.119959,90.0336191 239.136715,89.9481982 239.136715,89.8976804 C239.153471,89.7952672 239.187437,89.6928539 239.204193,89.5569152 C239.270766,89.1821653 239.388513,88.4501171 239.758057,86.2525946 C240.060577,84.4817176 240.22814,83.2725062 240.211384,82.7273737 C240.194628,82.3356315 240.446425,81.8419352 241.034255,81.7909582 C241.185515,81.7735066 241.337228,81.7395219 241.55506,81.6885449 C242.126133,81.5351546 242.680451,81.9443485 242.646938,82.4040601 C242.562703,82.8293277 242.461713,83.3404756 242.344418,84.0555315 C242.327662,84.1749371 242.310906,84.3108758 242.27694,84.447733 C242.226671,84.7030773 242.160099,84.9924062 242.109377,85.2991868 C241.99163,86.0316943 241.857579,86.8317118 241.723076,87.5807524 C241.589025,88.3477038 241.471278,89.1137367 241.337228,89.8632365 C241.319566,89.9316651 241.319566,89.9991752 241.302809,90.0676038 C241.286053,90.2375272 241.252993,90.4763384 241.21948,90.6122771 C241.21948,90.646721 241.202271,90.7146903 241.202271,90.7491343 C241.101733,91.3107999 241.017499,91.8899171 241.135246,92.2476746 C241.135246,92.2476746 241.252993,92.6903939 241.454522,92.7073862 C241.70632,92.7073862 241.840823,92.6729423 242.075864,92.5884399 C242.092621,92.5884399 242.193611,92.5535367 242.243428,92.5370036 C242.680451,92.3836133 243.083055,92.7243786 242.949005,93.0821361 C242.797745,93.4738784 242.310906,93.746215 241.739832,93.8311767 C241.488034,93.8651614 241.168759,93.8821537 240.883448,93.8821537" id="Fill-38" fill="#037F49"></path>
                <path d="M245.685131,93.8821537 C243.803894,93.8651614 243.619574,92.7073862 243.669843,91.8389401 C243.6866,91.5151672 243.736416,91.1238842 243.787138,90.8336367 C243.787138,90.8166444 243.803894,90.8001113 243.803894,90.7831189 C243.837407,90.5952847 243.854163,90.4253614 243.854163,90.3569328 C243.871372,90.2545195 243.888129,90.1700171 243.904885,90.1015885 C243.921641,90.0336191 243.938397,89.9481982 243.938397,89.8976804 C243.955154,89.7952672 243.989119,89.6928539 244.005876,89.5569152 C244.072448,89.1821653 244.190195,88.4501171 244.55974,86.2525946 C244.86226,84.4817176 245.029823,83.2725062 245.013066,82.7273737 C244.99631,82.3356315 245.248108,81.8419352 245.835938,81.7909582 C245.987197,81.7735066 246.138457,81.7395219 246.356289,81.6885449 C246.927816,81.5351546 247.482133,81.9443485 247.44862,82.4040601 C247.364386,82.8293277 247.263395,83.3404756 247.146101,84.0555315 C247.129345,84.1749371 247.112588,84.3108758 247.078623,84.447733 C247.028354,84.7030773 246.961781,84.9924062 246.91106,85.2991868 C246.793312,86.0316943 246.659262,86.8317118 246.524758,87.5807524 C246.390708,88.3477038 246.272961,89.1137367 246.138457,89.8632365 C246.121248,89.9316651 246.121248,89.9991752 246.104492,90.0676038 C246.088188,90.2375272 246.054676,90.4763384 246.021163,90.6122771 C246.021163,90.646721 246.003954,90.7146903 246.003954,90.7491343 C245.903416,91.3107999 245.819181,91.8899171 245.936929,92.2476746 C245.936929,92.2476746 246.054676,92.6903939 246.256204,92.7073862 C246.508002,92.7073862 246.642506,92.6729423 246.877547,92.5884399 C246.894303,92.5884399 246.995294,92.5535367 247.04511,92.5370036 C247.482133,92.3836133 247.884738,92.7243786 247.750687,93.0821361 C247.599427,93.4738784 247.112588,93.746215 246.541515,93.8311767 C246.289717,93.8651614 245.970441,93.8821537 245.685131,93.8821537" id="Fill-40" fill="#037F49"></path>
                <path d="M258.530301,85.6739367 C258.227781,85.5715234 257.858236,85.4525771 257.455632,85.4525771 C254.903236,85.4525771 254.231172,89.0967444 254.231172,90.4928715 C254.231172,91.6515651 254.550448,92.4860266 255.390075,92.4860266 C255.876914,92.4860266 256.498257,92.21369 257.069331,91.3622361 C257.52311,90.7316827 257.807967,89.7438309 258.093278,88.0409232 L258.530301,85.6739367 Z M259.806951,84.5671386 C260.411537,84.3793044 260.948646,84.8564675 260.864864,85.3161791 C260.74757,85.8778447 260.562344,86.7467501 260.277034,88.3132599 L259.974514,89.9821829 C259.739473,91.3792285 259.60497,92.5535367 259.60497,93.0481515 C259.60497,93.4738784 259.050652,93.7806589 258.480032,93.7976513 C257.892202,93.8141844 257.388154,93.456886 257.422119,93.0306999 C257.438875,92.7413709 257.488691,92.3496287 257.55617,91.9923303 C256.867802,92.9457382 255.977905,93.984567 254.667742,93.984567 C253.273797,93.984567 251.896609,93.0651438 251.896609,91.1238842 C251.896609,90.3399404 252.349935,87.2409057 254.802246,85.2647429 C255.20485,84.9584216 256.178981,84.3108758 257.740942,84.3108758 C258.530301,84.3108758 259.050652,84.4817176 259.537491,84.6686333 L259.806951,84.5671386 Z" id="Fill-42" fill="#037F49"></path>
                <path d="M264.758897,87.1385383 C263.952782,88.4836884 263.650716,91.1239301 263.448734,92.8773555 C263.717288,92.9287918 263.91927,92.9627764 264.171067,92.9627764 C267.24472,92.9627764 267.613812,88.8244536 267.613812,87.8540535 C267.613812,86.7807807 267.311293,85.843906 266.454909,85.843906 C265.850323,85.843906 265.22898,86.3715869 264.758897,87.1385383 L264.758897,87.1385383 Z M262.15578,87.325454 C262.475056,85.5031407 262.726854,84.0215927 262.726854,83.0681849 C262.726854,82.9317869 262.710097,82.7958482 262.693341,82.693435 C262.659375,82.2847004 262.945139,81.8589735 263.549725,81.7735525 C263.717288,81.7565602 263.885757,81.7225755 264.086833,81.6720578 C264.674663,81.5526521 265.363483,81.8249888 265.262493,82.318685 C265.22898,82.455083 265.19592,82.608014 265.161502,82.8128406 C265.128442,82.9317869 265.094929,83.1531465 265.078173,83.3065368 C265.027451,83.5788735 264.960426,83.936631 264.876644,84.3623579 C264.825923,84.6856716 264.775654,85.0778731 264.708175,85.4186383 C264.674663,85.5715693 264.64115,85.7249596 264.624394,85.8778907 C265.212677,85.1288501 266.052304,84.3288325 267.143729,84.3288325 C268.571187,84.3288325 269.931166,85.2308041 269.931166,87.274477 C269.931166,87.8875789 269.830175,88.5176731 269.679369,89.1137826 C268.907219,92.0089093 266.875175,94.0695746 263.61675,94.0695746 C262.860904,94.0695746 262.323796,94.0016052 261.903982,93.8821996 L261.920739,93.8821996 C261.215162,93.7122763 260.996877,93.0651897 261.131833,92.5370495 C261.249127,92.0943303 261.366874,91.5491978 261.56795,90.5443536 L262.15578,87.325454 Z" id="Fill-44" fill="#037F49"></path>
                <path d="M276.529217,85.8947911 C276.328141,85.7078754 275.992109,85.4525311 275.50527,85.4525311 C273.103681,85.4525311 272.515851,89.3860274 272.515851,90.7146444 C272.515851,92.3151388 273.18701,92.8777229 273.960065,92.8777229 C276.613451,92.8777229 276.982996,88.2792293 276.982996,87.4617601 C276.982996,87.0360332 276.96624,86.303985 276.529217,85.8947911 M278.443514,85.1801945 C279.31756,86.065633 279.351072,87.0530255 279.351072,87.5301887 C279.351072,90.1869635 277.654608,94.018965 273.809258,94.018965 C272.834674,94.018965 271.8773,93.7461691 271.222445,93.1500596 C270.818934,92.7583173 270.181288,92.0092767 270.181288,90.5107364 C270.181288,87.7685407 271.978291,84.2942967 275.757068,84.2942967 C276.949484,84.2942967 277.890102,84.584085 278.443514,85.1801945" id="Fill-46" fill="#037F49"></path>
                <path d="M282.304261,89.7438768 C282.119035,90.612323 282.052463,91.0045245 282.052463,91.3792744 C282.052463,92.0089093 282.270295,92.5370495 282.925603,92.5370495 C283.210914,92.5370495 284.084507,92.4006516 284.789178,91.2598688 L284.772422,91.2598688 C285.12521,90.6297746 285.52872,89.045354 285.763762,87.7346479 C285.948081,86.7467961 286.032316,86.0822579 286.049072,85.656531 C286.065829,85.1623755 286.469339,84.7031232 287.090681,84.5841768 C287.106985,84.5841768 287.17401,84.5841768 287.207976,84.5671845 L287.17401,84.6011692 C287.258245,84.5492736 287.409051,84.5157482 287.493286,84.5157482 C288.013638,84.4477789 288.584711,84.8225288 288.518139,85.1972787 C288.282645,86.0487325 288.030847,87.1555307 287.76184,88.7224996 C287.342479,91.0724938 287.191219,92.2137359 287.191219,92.8438301 L287.191219,92.9797688 C287.207976,93.4399396 286.670415,93.8142303 286.065829,93.8142303 C285.42773,93.8142303 284.873412,93.3885034 284.906925,92.8943479 L284.906925,92.6559959 C284.705849,92.9457841 284.487111,93.1845953 284.184592,93.4050364 C283.429199,93.9166436 282.387589,94.0016052 282.119035,94.0016052 C280.842838,94.0016052 279.701143,93.3885034 279.701143,92.1453073 C279.701143,91.9069553 279.734656,91.6686034 279.835194,91.0385092 L280.674822,86.5254364 C280.7423,86.2016636 280.775812,85.9293269 280.792569,85.7249596 C280.826081,85.2817811 281.077879,84.7710925 281.733187,84.6516869 L281.699674,84.6516869 C281.733187,84.6346946 281.79976,84.6346946 281.867238,84.6346946 C281.883994,84.6346946 281.934716,84.6177022 281.951472,84.6177022 L281.917507,84.6177022 C281.968229,84.6011692 282.052463,84.5841768 282.135792,84.5841768 C282.706865,84.5157482 283.295148,84.9240236 283.210914,85.3672021 C283.042897,86.0487325 282.959116,86.3715869 282.841369,86.9507041 C282.824612,87.036125 282.7911,87.1555307 282.774343,87.2579439 L282.304261,89.7438768 Z" id="Fill-48" fill="#037F49"></path>
                <path d="M292.613656,84.3110595 C292.696984,84.3110595 292.781219,84.2940671 292.865453,84.2940671 C293.083738,84.2940671 293.284814,84.2940671 293.453283,84.2770748 C293.956879,84.226557 294.359936,84.566863 294.292911,84.907169 C294.19192,85.2819189 293.705081,85.5202709 293.150764,85.5202709 C292.831941,85.5032785 292.562934,85.5032785 292.327892,85.5032785 C292.311136,85.5886995 292.29438,85.6396765 292.277623,85.7416305 C292.193389,86.1508243 292.092398,86.6615129 291.992313,87.1722015 C291.908079,87.6323724 291.807541,88.143061 291.723306,88.6032318 C291.656281,88.9945148 291.572046,89.3522724 291.52223,89.6076167 C291.337005,90.4930552 291.202954,91.2600066 291.202954,91.7537028 C291.202954,92.383797 291.471509,92.6391413 291.8406,92.6391413 C291.941591,92.6391413 292.059338,92.622149 292.193389,92.5881643 C292.647168,92.5197357 293.083738,92.8099832 293.033017,93.0993122 C292.932479,93.5245798 292.495909,93.899789 291.891775,93.9842914 C291.774028,94.0012838 291.572046,94.0012838 291.454752,94.0012838 C290.329814,94.0012838 289.607481,93.6784294 289.35523,93.3206718 C289.103433,92.9459219 288.968929,92.6391413 288.968929,92.2983761 C288.968929,91.9750624 289.036407,91.6007718 289.120189,91.1236086 L290.178102,85.4692939 C289.842975,85.4008653 289.573515,85.1625133 289.624237,84.8901767 C289.674506,84.5494114 289.993782,84.2770748 290.429899,84.2770748 C290.514134,83.8518071 290.547646,83.4940496 290.581612,83.1532843 C290.631881,82.6081518 291.135476,82.1309886 291.857357,81.9610653 C292.445187,81.8416596 293.066982,82.1654325 292.949688,82.6081518 C292.781219,83.1702767 292.680681,83.5790112 292.562934,84.3110595 L292.613656,84.3110595 Z" id="Fill-50" fill="#037F49"></path>
                <path d="M298.287844,84.7541002 C298.338113,84.4817636 298.724867,84.3109217 299.110716,84.2773963 C299.429991,82.455083 299.933587,81.5696445 300.874205,80.8201447 C301.646808,80.2750121 302.502739,80.1220811 303.275794,80.0880964 C303.796146,80.0706449 304.199656,80.4793794 304.047943,80.8711217 C303.863624,81.2458716 303.29255,81.3818103 302.788955,81.3988026 C301.966083,81.4502389 301.579782,82.7788559 301.277263,84.2939293 L301.797614,84.2939293 C301.865093,84.2939293 301.932571,84.2773963 301.982387,84.2773963 L302.402201,84.2773963 C302.872283,84.2773963 303.29255,84.5671845 303.225072,84.8900389 C303.174803,85.2308041 302.687964,85.4186383 302.201125,85.4186383 C301.982387,85.4011867 301.478791,85.4011867 301.294019,85.4011867 L301.075281,85.4011867 C300.924474,86.2870845 300.773214,87.1555307 300.639164,88.0924054 C300.487451,89.0283617 300.336644,89.9482441 300.185837,90.8336826 C300.169081,90.9700806 300.152325,91.1069378 300.118359,91.2428764 C300.084847,91.3792744 300.06809,91.5322054 300.034578,91.6686034 C299.983856,91.9239477 299.933587,92.2307282 299.882865,92.4860725 C299.598008,94.1205516 298.690449,97.5947955 295.265366,97.7996221 C294.760865,97.7826297 294.442042,97.3394512 294.543033,96.9991452 C294.69384,96.6243953 295.214191,96.4540127 295.701483,96.4374796 C296.188323,96.369051 296.55832,95.9428649 296.70958,95.7389568 C297.213175,95.125855 297.565511,93.3545187 297.9183,91.2768611 C298.086316,90.322994 298.237575,89.3016168 298.405591,88.3133058 C298.573155,87.3084617 298.724867,86.3380615 298.842162,85.3841944 C298.47307,85.316225 298.237575,85.0264368 298.287844,84.7541002" id="Fill-52" fill="#037F49"></path>
                <path d="M303.022683,87.4792576 C303.190246,86.5593752 303.240515,85.9972503 303.223759,85.6055081 C303.190246,85.1802404 303.475556,84.7540543 304.063386,84.6686333 C304.231855,84.651641 304.382662,84.6346487 304.500409,84.6176563 L304.483653,84.6176563 C305.088239,84.49871 305.659313,84.8394752 305.625347,85.2477505 C305.608591,85.2991868 305.608591,85.4695694 305.575078,85.5885158 C305.558322,85.6739367 305.525262,85.7249137 305.5076,85.8098754 C305.77706,85.4525771 306.09543,85.1118118 306.482184,84.8394752 C306.767494,84.651641 307.120283,84.49871 307.456315,84.3793044 C308.077657,84.1919294 308.581253,84.6686333 308.429993,85.1457965 C308.279186,85.5885158 307.640634,85.8948371 307.002536,86.0486866 L307.019292,86.0486866 C306.381646,86.21861 305.525262,86.9341251 305.071483,88.6200404 C304.819685,89.5054789 304.432931,91.7365268 304.349602,92.8437842 C304.298428,93.3544728 303.745016,93.7627481 303.089708,93.746215 L303.005474,93.746215 C302.417644,93.746215 301.880536,93.3544728 301.99783,92.8943019 C302.082064,92.604973 302.165846,92.2981924 302.199811,92.077292 L303.022683,87.4792576 Z" id="Fill-54" fill="#037F49"></path>
                <path d="M310.15843,89.6415554 C311.082292,89.5056167 312.055971,88.8925148 312.896051,88.0924973 C313.282352,87.7002958 313.584419,87.1041862 313.584419,86.4061227 C313.584419,85.6740745 313.23163,85.3333092 312.812269,85.3333092 C312.560472,85.3333092 311.989398,85.4522556 311.267065,86.3041687 C310.74626,86.9338036 310.293387,88.228436 310.15843,89.6415554 M311.754357,92.860455 C312.358943,92.860455 312.862538,92.6905317 313.266049,92.5196898 C313.68541,92.3327741 314.189005,92.5881184 314.088014,92.9628683 C313.97072,93.3376182 313.617931,93.7119089 313.013345,93.8822915 C312.593984,93.9672532 312.073633,94.0526741 311.368056,94.0526741 C308.445663,93.9672532 307.723329,92.3837511 307.690269,90.2546573 C307.690269,88.432344 308.596469,86.9002782 309.167543,86.2017554 C310.326899,84.7371997 311.972642,84.2600365 313.181814,84.2600365 C314.978817,84.2600365 315.885017,85.1624674 315.885017,86.3376941 C315.885017,86.8148573 315.649975,87.4793954 315.28043,88.0575941 C314.877826,88.670696 314.139189,89.1648515 313.550906,89.4546397 C312.492994,89.999313 311.368056,90.0677416 310.091405,90.1182593 C310.074649,90.1866879 310.058345,90.4085068 310.058345,90.7313612 C310.058345,91.5492896 310.293387,92.8774474 311.754357,92.860455" id="Fill-56" fill="#037F49"></path>
                <path d="M317.479177,89.505433 C316.957919,89.1991117 315.967485,88.5860098 315.967485,87.496204 C315.967485,86.5763216 316.588827,85.7248678 317.411699,85.0607889 C318.268083,84.4132431 319.578246,84.2942967 320.266614,84.2942967 C320.770209,84.2942967 321.122997,84.3287407 321.425517,84.4132431 L321.408761,84.4132431 C321.962625,84.5326487 322.248841,85.026345 322.080372,85.4185465 C321.962625,85.6908831 321.627046,85.827281 321.257501,85.827281 C321.039669,85.827281 320.837687,85.7932964 320.68688,85.7078754 L320.703637,85.7078754 C320.451839,85.5884698 320.166076,85.5035081 319.880765,85.5035081 C318.805643,85.5035081 318.23457,86.3209773 318.23457,86.9680639 C318.23457,87.7685407 318.772584,88.074862 319.325995,88.3986349 L320.166076,88.9267751 C320.703637,89.2500887 321.526508,89.7607773 321.526508,90.7660807 C321.526508,91.4981289 321.157416,92.4689883 320.09905,93.2520136 C319.10771,93.984521 317.865025,94.0359573 317.092876,94.0359573 C316.639549,94.0359573 316.169014,93.984521 315.849738,93.9165517 C315.261908,93.7631614 314.859303,93.3204422 314.960294,92.9461515 C315.178126,92.3835674 315.849738,92.1792001 316.370542,92.4345444 L316.353786,92.4345444 C316.673062,92.5883939 317.05891,92.7073403 317.64674,92.7073403 C318.754922,92.7073403 319.342751,91.9922844 319.342751,91.3107539 C319.342751,90.6466751 318.940147,90.3738792 318.51988,90.1185349 L317.479177,89.505433 Z" id="Fill-58" fill="#037F49"></path>
                <path d="M323.338908,85.8947911 C323.67494,84.0903887 323.808991,83.1870394 323.792687,82.6763508 C323.775931,82.2850678 323.96025,81.8418893 324.564837,81.7734607 C324.732853,81.7564683 324.917625,81.739476 325.085641,81.7054913 C325.690227,81.6205296 326.328326,81.9612949 326.227335,82.4210065 C326.126345,82.9147027 326.043016,83.3404296 325.874547,84.1748911 C325.791218,84.6515951 325.690227,85.1457506 325.605993,85.6394468 C325.589237,85.6908831 325.589237,85.6908831 325.605993,85.6564392 C325.841034,85.3331255 326.110041,85.0607889 326.496342,84.8224369 C327.218676,84.345733 327.957312,84.2603121 328.49442,84.2603121 C329.737558,84.2603121 330.929974,84.787993 330.929974,86.1510539 C330.929974,86.5083523 330.862496,86.9510715 330.728446,87.8195177 L330.073138,91.6175345 C330.006112,92.0428022 329.955391,92.55395 329.921878,92.8607306 C329.888818,93.3714192 329.317745,93.7631614 328.612168,93.7631614 C328.024338,93.7631614 327.503986,93.3374345 327.604524,92.894256 C327.688758,92.5714016 327.789296,92.0942384 327.889834,91.5151212 C328.091816,90.2723844 328.310101,88.9093235 328.528386,87.6661274 C328.578655,87.3767984 328.628924,87.0360332 328.628924,86.7806889 C328.628924,86.1510539 328.427848,85.6738908 327.739027,85.6738908 C327.167954,85.6738908 326.546611,85.9972044 326.043016,86.5423369 C325.791218,86.8146736 325.320683,87.7175637 324.951591,89.2500887 C324.8506,89.6932672 324.464299,91.7369401 324.313039,92.8097536 C324.229257,93.3714192 323.641427,93.780613 322.901885,93.780613 C322.331717,93.780613 321.877938,93.3544268 322.012441,92.9291592 C322.096223,92.6053863 322.264239,91.8214425 322.482524,90.6296827 L323.338908,85.8947911 Z" id="Fill-60" fill="#037F49"></path>
                <g id="Group-64" transform="translate(334.220690, 83.905402)" fill="#037F49">
                    <path d="M4.07839816,4.9869752 C3.79308782,5.9408423 3.54129011,7.42239034 3.40723954,8.15443856 C3.35606483,8.25685183 3.33930851,8.34227277 3.33930851,8.49520379 L3.28949241,8.49520379 C3.6083154,8.66604566 3.99416368,8.85296136 4.51542115,8.85296136 C5.55657747,8.85296136 6.12719816,8.25685183 6.4297177,7.88210193 C7.33637057,6.77530379 7.62213379,4.74862323 7.62213379,3.72678679 C7.62213379,2.7563866 7.30285793,1.92146585 6.51395218,1.92146585 C5.62360276,1.92146585 4.66622805,3.06224865 4.07839816,4.9869752 M9.99020966,3.23309052 C9.99020966,4.96998286 9.20039816,7.2184823 7.87393149,8.54664006 C6.96682575,9.46606323 5.72414069,10.0451804 4.31343954,10.0451804 C3.99416368,10.0451804 3.59155908,10.0451804 3.0875108,9.94276716 C3.03678897,10.2835324 2.97021655,10.5728614 2.90273839,10.9136266 C2.8357131,11.2713842 2.76823494,11.6121494 2.70166253,11.9529146 C2.60067172,12.514121 2.54994989,12.9912842 2.51643724,13.2980647 C2.46662115,13.842738 1.9793292,14.2689242 1.25744874,14.2349395 L1.13970161,14.2349395 C0.585384368,14.2349395 0.0478234483,13.8597303 0.131605057,13.4509958 C0.266108506,12.9403072 0.40015908,12.275769 0.534662529,11.6291417 C0.568628046,11.4417668 0.618897011,11.2543918 0.635653333,11.0665576 C0.635653333,11.0495653 0.652409655,10.9820552 0.686375172,10.8966343 C0.703131494,10.8456573 0.703131494,10.7772287 0.719434943,10.7267109 L0.703131494,10.7437032 L1.76104414,5.20833482 C1.82806943,4.8510365 1.86203494,4.5447152 1.91185103,4.25446772 C1.94536368,4.01611576 1.99608552,3.77776379 2.04635448,3.47144249 C2.09707632,3.36948847 2.09707632,3.2670752 2.09707632,3.21609819 C2.2311269,2.51757538 2.24788322,1.95545052 2.2311269,1.59769295 C2.24788322,1.27483856 2.44986483,0.831660056 2.97021655,0.763231458 C3.18850161,0.746239121 3.38957747,0.712254449 3.55804644,0.678729028 C4.14587632,0.576315757 4.69974069,0.934073327 4.66622805,1.37633333 C4.61595908,1.61468529 4.56523724,1.83650417 4.51542115,2.05786379 C4.7835223,1.66612155 5.10325103,1.27483856 5.48909931,0.985050336 C5.69108092,0.831660056 6.31197057,0.405473888 7.45366483,0.405473888 C8.99886943,0.405473888 9.99020966,1.39378492 9.99020966,3.23309052" id="Fill-62"></path>
                </g>
                <path d="M345.418079,87.4792576 C345.585642,86.5593752 345.635911,85.9972503 345.619155,85.6055081 C345.585642,85.1802404 345.870953,84.7540543 346.458783,84.6686333 C346.627251,84.651641 346.778058,84.6346487 346.895806,84.6176563 L346.879049,84.6176563 C347.483635,84.49871 348.054709,84.8394752 348.020743,85.2477505 C348.003987,85.2991868 348.003987,85.4695694 347.970474,85.5885158 C347.953718,85.6739367 347.920206,85.7249137 347.902996,85.8098754 C348.172456,85.4525771 348.490826,85.1118118 348.87758,84.8394752 C349.162891,84.651641 349.515679,84.49871 349.851711,84.3793044 C350.473054,84.1919294 350.976649,84.6686333 350.825389,85.1457965 C350.674583,85.5885158 350.036031,85.8948371 349.397932,86.0486866 L349.414688,86.0486866 C348.777042,86.21861 347.920206,86.9341251 347.466879,88.6200404 C347.215081,89.5054789 346.828327,91.7365268 346.744999,92.8437842 C346.693824,93.3544728 346.140412,93.7627481 345.485104,93.746215 L345.40087,93.746215 C344.813493,93.746215 344.275932,93.3544728 344.393226,92.8943019 C344.477461,92.604973 344.561242,92.2981924 344.595208,92.077292 L345.418079,87.4792576 Z" id="Fill-65" fill="#037F49"></path>
                <path d="M356.348771,85.8947911 C356.147695,85.7078754 355.811663,85.4525311 355.324824,85.4525311 C352.923236,85.4525311 352.335406,89.3860274 352.335406,90.7146444 C352.335406,92.3151388 353.006564,92.8777229 353.77962,92.8777229 C356.433006,92.8777229 356.802098,88.2792293 356.802098,87.4617601 C356.802098,87.0360332 356.785794,86.303985 356.348771,85.8947911 M358.263068,85.1801945 C359.137114,86.065633 359.170174,87.0530255 359.170174,87.5301887 C359.170174,90.1869635 357.474162,94.018965 353.628813,94.018965 C352.654229,94.018965 351.696854,93.7461691 351.041999,93.1500596 C350.638941,92.7583173 350.000843,92.0092767 350.000843,90.5107364 C350.000843,87.7685407 351.797845,84.2942967 355.576622,84.2942967 C356.769038,84.2942967 357.709656,84.584085 358.263068,85.1801945" id="Fill-67" fill="#037F49"></path>
                <path d="M361.704228,90.5106445 C361.704228,91.685412 362.107285,92.5368658 362.829618,92.5368658 C363.299248,92.5368658 364.004825,92.1621159 364.592655,90.9698969 C365.029678,90.1014507 365.231207,89.0630812 365.886062,85.6223627 C365.566786,85.5378602 365.298232,85.4694316 364.996166,85.4694316 C362.342326,85.4694316 361.704228,89.4378311 361.704228,90.5106445 L361.704228,90.5106445 Z M367.364241,89.7267008 C367.347032,89.8800911 367.330276,90.0160298 367.296763,90.1698793 C367.145956,91.0723101 366.960731,92.1621159 366.960731,92.8946234 C366.943975,93.354335 366.523708,93.7805212 365.886062,93.7975135 C365.247963,93.7975135 364.660133,93.3883197 364.726706,92.8776311 C364.744368,92.7077077 364.726706,92.7582255 364.81094,92.2815215 C364.190051,93.1499677 363.434205,93.9844292 362.191067,93.9844292 C360.68028,93.9844292 359.370117,93.0135698 359.370117,91.0723101 C359.370117,90.6121393 359.605159,88.245612 361.116398,86.3038931 C362.057016,85.1456587 363.551952,84.3456412 365.163729,84.3456412 C365.55003,84.3456412 365.852549,84.3961589 366.104347,84.4480544 C366.255154,83.6471184 366.322632,83.1704144 366.288667,82.8126569 C366.27191,82.3694784 366.607943,81.910226 367.212529,81.8248051 C367.263251,81.8078127 367.380998,81.7908204 367.44757,81.7733688 C368.102878,81.6544225 368.77449,81.9442107 368.673499,82.4209146 C368.606474,82.6078303 368.59017,82.8466415 368.538995,83.1364298 C368.505936,83.3063531 368.472423,83.4941873 368.438457,83.7150877 C368.421701,83.8340341 368.388189,83.9708913 368.371432,84.1072892 C368.33792,84.2602202 368.303954,84.4301436 368.270894,84.6179778 L367.364241,89.7267008 Z" id="Fill-69" fill="#037F49"></path>
                <path d="M371.224717,89.7438768 C371.039491,90.612323 370.972919,91.0045245 370.972919,91.3792744 C370.972919,92.0089093 371.190751,92.5370495 371.846059,92.5370495 C372.13137,92.5370495 373.004963,92.4006516 373.709634,91.2598688 L373.692878,91.2598688 C374.045666,90.6297746 374.449177,89.045354 374.684218,87.7346479 C374.868537,86.7467961 374.952772,86.0822579 374.969528,85.656531 C374.986285,85.1623755 375.389795,84.7031232 376.011137,84.5841768 C376.027894,84.5841768 376.094466,84.5841768 376.128432,84.5671845 L376.094466,84.6011692 C376.178701,84.5492736 376.329508,84.5157482 376.413742,84.5157482 C376.934094,84.4477789 377.505167,84.8225288 377.438595,85.1972787 C377.203554,86.0487325 376.951303,87.1555307 376.682296,88.7224996 C376.262935,91.0724938 376.111675,92.2137359 376.111675,92.8438301 L376.111675,92.9797688 C376.128432,93.4399396 375.590871,93.8142303 374.986285,93.8142303 C374.348186,93.8142303 373.793869,93.3885034 373.827381,92.8943479 L373.827381,92.6559959 C373.626305,92.9457841 373.407567,93.1845953 373.105048,93.4050364 C372.349655,93.9166436 371.308498,94.0016052 371.039491,94.0016052 C369.763294,94.0016052 368.6216,93.3885034 368.6216,92.1453073 C368.6216,91.9069553 368.655112,91.6686034 368.75565,91.0385092 L369.595278,86.5254364 C369.662756,86.2016636 369.696269,85.9293269 369.713025,85.7249596 C369.746537,85.2817811 369.998335,84.7710925 370.653643,84.6516869 L370.620131,84.6516869 C370.653643,84.6346946 370.720216,84.6346946 370.787694,84.6346946 C370.80445,84.6346946 370.855172,84.6177022 370.871928,84.6177022 L370.837963,84.6177022 C370.888685,84.6011692 370.972919,84.5841768 371.056248,84.5841768 C371.627774,84.5157482 372.215604,84.9240236 372.13137,85.3672021 C371.963354,86.0487325 371.879572,86.3715869 371.761825,86.9507041 C371.745069,87.036125 371.711556,87.1555307 371.6948,87.2579439 L371.224717,89.7438768 Z" id="Fill-71" fill="#037F49"></path>
                <path d="M384.825416,84.4302354 C385.34622,84.549641 385.514236,85.0433373 385.379733,85.3841025 C385.278742,85.6564392 384.977128,85.7588524 384.607131,85.7588524 C384.389298,85.7588524 384.204073,85.7248678 384.070023,85.6564392 L384.086779,85.6564392 C383.884797,85.5884698 383.666965,85.5379521 383.415167,85.5379521 C381.365914,85.5379521 380.156742,87.8195177 380.156742,90.1355272 C380.156742,90.9699887 380.290793,91.9922844 381.047091,92.4689883 C381.483209,92.7583173 381.903475,92.8607306 382.306533,92.8607306 C382.675625,92.8607306 382.994901,92.792302 383.314177,92.6728964 C383.801469,92.5369577 384.154257,92.8777229 384.03651,93.2184881 C383.884797,93.6097711 383.381202,93.8995594 382.827337,93.984521 C382.575087,94.018965 382.256264,94.0359573 381.953744,94.0359573 C379.300358,94.0359573 377.688581,92.5714016 377.688581,90.2544736 C377.688581,87.5986173 379.602878,84.3108298 383.666965,84.3108298 C384.17056,84.3108298 384.540105,84.3627253 384.825416,84.4302354" id="Fill-73" fill="#037F49"></path>
                <path d="M387.192178,89.6415554 C388.115587,89.5056167 389.089266,88.8925148 389.928893,88.0924973 C390.315647,87.7002958 390.617714,87.1041862 390.617714,86.4061227 C390.617714,85.6740745 390.264925,85.3333092 389.845564,85.3333092 C389.593767,85.3333092 389.022693,85.4522556 388.30036,86.3041687 C387.779555,86.9338036 387.326682,88.228436 387.192178,89.6415554 M388.787199,92.860455 C389.391785,92.860455 389.89538,92.6905317 390.298891,92.5196898 C390.718705,92.3327741 391.2223,92.5881184 391.121309,92.9628683 C391.004015,93.3376182 390.651226,93.7119089 390.04664,93.8822915 C389.627279,93.9672532 389.106475,94.0526741 388.401351,94.0526741 C385.478957,93.9672532 384.756624,92.3837511 384.723111,90.2546573 C384.723111,88.432344 385.629764,86.9002782 386.200838,86.2017554 C387.359741,84.7371997 389.005937,84.2600365 390.214656,84.2600365 C392.011659,84.2600365 392.918311,85.1624674 392.918311,86.3376941 C392.918311,86.8148573 392.68327,87.4793954 392.313725,88.0575941 C391.911121,88.670696 391.172031,89.1648515 390.584201,89.4546397 C389.526289,89.999313 388.401351,90.0677416 387.1247,90.1182593 C387.107944,90.1866879 387.091187,90.4085068 387.091187,90.7313612 C387.091187,91.5492896 387.326682,92.8774474 388.787199,92.860455" id="Fill-75" fill="#037F49"></path>
            </g>
        </g>
    </g>
</svg>