<?xml version="1.0" encoding="UTF-8" standalone="no"?>
<svg width="22px" height="18px" viewBox="0 0 22 18" version="1.1" xmlns="http://www.w3.org/2000/svg" xmlns:xlink="http://www.w3.org/1999/xlink">
    <!-- Generator: Sketch 46 (44423) - http://www.bohemiancoding.com/sketch -->
    <title>Twitter white</title>
    <desc>Created with Sketch.</desc>
    <defs></defs>
    <g id="1-Inicio" stroke="none" stroke-width="1" fill="none" fill-rule="evenodd">
        <g id="1.4-Menu" transform="translate(-344.000000, -726.000000)" fill="#FFFFFF">
            <path d="M366,728.116583 C365.190583,728.475917 364.320667,728.717917 363.407667,728.827 C364.339917,728.26875 365.055833,727.384167 365.39225,726.33 C364.5205,726.847 363.554333,727.222833 362.525833,727.425417 C361.703583,726.548167 360.529333,726 359.231333,726 C356.31725,726 354.175917,728.718833 354.834083,731.54125 C351.084,731.353333 347.758333,729.556667 345.53175,726.825917 C344.34925,728.8545 344.9185,731.50825 346.927833,732.852083 C346.189,732.82825 345.492333,732.625667 344.884583,732.287417 C344.835083,734.378333 346.333833,736.3345 348.5045,736.769917 C347.86925,736.94225 347.1735,736.982583 346.465833,736.846917 C347.039667,738.639917 348.706167,739.944333 350.6825,739.981 C348.785,741.46875 346.394333,742.133333 344,741.851 C345.997417,743.131583 348.370667,743.878667 350.919,743.878667 C359.299167,743.878667 364.03375,736.801083 363.74775,730.453167 C364.629583,729.816083 365.395,729.021333 366,728.116583 L366,728.116583 Z" id="Twitter-white"></path>
        </g>
    </g>
</svg>