<?xml version="1.0" encoding="UTF-8" standalone="no"?>
<svg width="1280px" height="740px" viewBox="0 0 1280 740" version="1.1" xmlns="http://www.w3.org/2000/svg" xmlns:xlink="http://www.w3.org/1999/xlink">
    <!-- Generator: Sketch 46 (44423) - http://www.bohemiancoding.com/sketch -->
    <title>WE PLANT</title>
    <desc>Created with Sketch.</desc>
    <defs></defs>
    <g id="3-We-plant" stroke="none" stroke-width="1" fill="none" fill-rule="evenodd">
        <g transform="translate(0.000000, -30.000000)" id="WE-PLANT" fill="#D48D4D">
            <g transform="translate(0.000000, 30.000000)">
                <path d="M0,0 L1280,0 L1280,740 L0,740 L0,0 Z M143.18,292.34 L169.36,363.4 L150,413.34 L105.56,291.9 L73,291.9 L136.14,448.1 L161.66,448.1 L188.72,382.54 L215.78,448.1 L241.3,448.1 L304.88,291.9 L271.88,291.9 L227.66,413.34 L207.86,363.4 L234.48,292.34 L206.32,292.34 L188.72,344.04 L171.12,292.34 L143.18,292.34 Z M429.4,421.48 L351.3,421.48 L351.3,380.78 L417.08,380.78 L417.08,356.14 L351.3,356.14 L351.3,318.52 L427.42,318.52 L427.42,291.9 L320.94,291.9 L320.94,448.1 L429.4,448.1 L429.4,421.48 Z M505.96,448.1 L536.32,448.1 L536.32,395.74 L573.28,395.74 C580.466703,395.74 587.066637,394.273348 593.08,391.34 C599.093363,388.406652 604.226645,384.520024 608.48,379.68 C612.733355,374.839976 616.033322,369.303364 618.38,363.07 C620.726678,356.836635 621.9,350.420033 621.9,343.82 C621.9,337.513302 620.653346,331.243364 618.16,325.01 C615.666654,318.776635 612.220022,313.203358 607.82,308.29 C603.419978,303.376642 598.176697,299.416682 592.09,296.41 C586.003303,293.403318 579.366703,291.9 572.18,291.9 L505.96,291.9 L505.96,448.1 Z M643.02,448.1 L753.02,448.1 L753.02,421.48 L673.38,421.48 L673.38,291.9 L643.02,291.9 L643.02,448.1 Z M815.94,291.9 L756.32,448.1 L787.56,448.1 L801.86,409.16 L856.42,409.16 L870.94,448.1 L902.18,448.1 L842.78,291.9 L815.94,291.9 Z M949.7,348 L1030,448.1 L1054.64,448.1 L1054.64,292.12 L1024.28,292.12 L1024.28,394.42 L942.88,291.9 L919.34,291.9 L919.34,448.1 L949.7,448.1 L949.7,348 Z M1204.02,318.52 L1204.02,291.9 L1074,291.9 L1074,318.52 L1123.94,318.52 L1123.94,448.1 L1154.08,448.1 L1154.08,318.52 L1204.02,318.52 Z" id="Combined-Shape"></path>
                <path d="M536.32,369.12 L571.52,369.12 C577.093361,369.12 581.749981,366.846689 585.49,362.3 C589.230019,357.753311 591.1,351.593372 591.1,343.82 C591.1,339.85998 590.513339,336.303349 589.34,333.15 C588.166661,329.996651 586.626676,327.320011 584.72,325.12 C582.813324,322.919989 580.576679,321.270006 578.01,320.17 C575.44332,319.069995 572.840013,318.52 570.2,318.52 L536.32,318.52 L536.32,369.12 Z"></path>
                <polygon points="850.92 387.82 829.36 326.44 806.92 387.82"></polygon>
            </g>
        </g>
    </g>
</svg>