<svg width="120" height="120" viewBox="0 0 120 120" xmlns="http://www.w3.org/2000/svg" xmlns:xlink="http://www.w3.org/1999/xlink"><title>Respeto</title><defs><path id="a" d="M0 119.76V.21h119.789v119.55z"/></defs><g fill="none" fill-rule="evenodd"><g transform="translate(0 .03)"><mask id="b" fill="#fff"><use xlink:href="#a"/></mask><path d="M97.592 96.683V69.991c0-6.808-4.785-12.328-10.689-12.328-.443 0-.88.034-1.308.097-3.509 0-6.333 1.851-8.706 4.307-2.374 2.453-4.294 5.512-6 7.924-1.622 2.296-4.152 3.996-6.362 5.146 1.807 1.322 2.998 3.559 2.998 6.091 0 .806-.12 1.58-.345 2.306 5.468-2.912 9.036-8.118 9.036-8.118v34.556a52.558 52.558 0 0 1-16.321 2.573 52.605 52.605 0 0 1-15.312-2.255V75.416s1.134 1.654 3.103 3.621c.152.152.309.303.47.457.161.157.328.313.499.467.084.077.17.156.258.233l.267.236c.09.077.178.156.27.233.094.08.186.159.282.236a24.415 24.415 0 0 0 .58.466c.1.077.198.154.3.231.1.077.202.152.305.229a23.211 23.211 0 0 0 1.62 1.089 15.868 15.868 0 0 0 .687.404c.137.077.277.154.416.228l.294.152c.116.06.232.118.35.173l.212.101a21.758 21.758 0 0 0 .98.426c.097.036.193.074.29.108.082.034.166.062.25.091.092.034.183.068.277.097.128.043.256.084.384.122.118.039.236.072.354.106.766.214 1.554.37 2.366.455h.015c.21.045.426.07.648.07.108 0 .217-.003.325-.006h.012c.113.003.227.005.34.005.058 0 .113-.002.168-.005.032-.002.063-.002.094-.007.017 0 .032-.003.048-.004l.036-.004.042-.004a1.44 1.44 0 0 0 .147-.021l.127-.024.03-.008c.045-.01.09-.02.137-.033.032-.008.065-.019.097-.029.035-.01.07-.021.103-.033.034-.011.068-.022.1-.035.02-.006.038-.016.056-.023.062-.025.122-.05.182-.078.018-.009.037-.015.054-.024.028-.013.054-.028.082-.042l.102-.055c.055-.03.108-.064.161-.098a2.95 2.95 0 0 0 .193-.132c.022-.014.041-.032.063-.048.037-.029.075-.056.112-.087.035-.028.068-.057.102-.088l.025-.026a3.83 3.83 0 0 0 .255-.254l.044-.046c.09-.103.176-.21.258-.324l.01-.014a3.12 3.12 0 0 0 .1-.147l.007-.01.03-.05.05-.081c0-.003.003-.005.004-.008l.022-.04a4.262 4.262 0 0 0 .257-.517c.018-.042.033-.087.05-.13.023-.062.047-.124.068-.187.017-.051.03-.104.046-.156.013-.044.027-.087.039-.131.006-.02.01-.041.015-.062l.014-.059.01-.038a5.85 5.85 0 0 0 .04-.207c.004-.017.006-.035.009-.052l.012-.075c0-.008.002-.016.004-.024a2.14 2.14 0 0 0 .016-.123l.015-.147.001-.016.005-.073.004-.05c.007-.09.009-.185.009-.278v-.01c0-2.331-1.636-4.219-3.655-4.219 0 0-.12-.036-.338-.108h-.002a28.505 28.505 0 0 1-.757-.267l-.219-.082a34.538 34.538 0 0 1-1.4-.572 27.18 27.18 0 0 1-3.682-1.958 25.044 25.044 0 0 1-.855-.577l-.222-.158c-.301-.22-.6-.45-.891-.693-.121-.099-.239-.202-.357-.305a6.652 6.652 0 0 1-.178-.157 22.472 22.472 0 0 1-.282-.262 12.196 12.196 0 0 1-.398-.392l-.08-.082a8.412 8.412 0 0 1-.3-.324c-.09-.099-.179-.2-.263-.303-.01-.01-.017-.02-.024-.03a9.909 9.909 0 0 1-.581-.75c-3.412-4.824-7.687-12.23-14.706-12.23a9.059 9.059 0 0 0-1.309-.097c-5.903 0-10.689 5.52-10.689 12.328v27.695c-.183-.177-.368-.354-.55-.536a52.387 52.387 0 0 1-11.29-16.708C8.62 73.966 7.23 67.084 7.23 59.985s1.39-13.981 4.135-20.455a52.387 52.387 0 0 1 11.29-16.71 52.5 52.5 0 0 1 16.742-11.266c6.488-2.74 13.385-4.128 20.498-4.128 7.112 0 14.009 1.389 20.497 4.128A52.5 52.5 0 0 1 97.135 22.82a52.386 52.386 0 0 1 11.29 16.709c2.744 6.475 4.135 13.357 4.135 20.456s-1.391 13.981-4.136 20.457a52.36 52.36 0 0 1-10.832 16.241M59.895.211C26.815.21 0 26.973 0 59.985c0 33.013 26.816 59.775 59.895 59.775 33.078 0 59.894-26.762 59.894-59.775C119.79 26.973 92.973.211 59.895.211" fill="#FFF" mask="url(#b)"/></g><path d="M33.964 33.72c-5.942 0-10.76 4.807-10.76 10.738 0 5.93 4.818 10.738 10.76 10.738 5.943 0 10.76-4.808 10.76-10.738S39.907 33.72 33.964 33.72m52.868 0c-5.942 0-10.76 4.807-10.76 10.738 0 5.93 4.818 10.738 10.76 10.738 5.943 0 10.76-4.808 10.76-10.738S92.775 33.72 86.832 33.72" fill="#FFF"/></g></svg>