<svg width="120" height="120" viewBox="0 0 120 120" xmlns="http://www.w3.org/2000/svg"><title>Transparencia</title><path d="M97.306 97.306a52.59 52.59 0 0 1-16.772 11.31 52.244 52.244 0 0 1-10.03 3.101l-.317-16.195c0-.3.187-.569.469-.672.03-.012 3.192-1.203 6.3-4.08 4.133-3.823 6.229-8.664 6.229-14.39V52.53c-1.32-.091-4.418-.136-6.018 1.263-.655.572-.973 1.324-.973 2.297v13.016c0 .347-.25.645-.59.705-.036.006-3.527.635-6.958 2.033-3.018 1.23-6.617 3.317-6.617 6.276a.716.716 0 1 1-1.432 0c0-3.018 2.533-5.579 7.53-7.61 2.751-1.12 5.468-1.75 6.635-1.993V56.09c0-1.384.487-2.515 1.448-3.361V31.794a2.424 2.424 0 0 0-.61-1.79c-.623-.679-1.689-1.023-3.167-1.023-1.54 0-2.652.342-3.217.989a1.79 1.79 0 0 0-.434 1.327.638.638 0 0 1 .007.105v32.026a.716.716 0 0 1-1.431 0V48.632a.705.705 0 0 1-.022-.173V24.972c0-.025 0-.05.003-.075.004-.039.088-1.094-.695-1.949-.702-.768-1.898-1.157-3.553-1.157-1.738 0-2.991.393-3.625 1.137a2.052 2.052 0 0 0-.482 1.498.711.711 0 0 1 .01.113v38.447a.716.716 0 1 1-1.433 0v-9.743a.716.716 0 0 1-.022-.176V31.794a2.424 2.424 0 0 0-.61-1.79c-.623-.679-1.689-1.023-3.167-1.023-1.54 0-2.652.342-3.217.989a1.79 1.79 0 0 0-.434 1.327.639.639 0 0 1 .007.105v32.026a.716.716 0 0 1-1.432 0v-.225a.732.732 0 0 1-.018-.16V44.735l.001-.051c.001-.011.08-1.473-.86-2.474-.629-.668-1.596-1.007-2.876-1.007-1.225 0-2.15.345-2.748 1.026-1.069 1.216-.848 3.187-.846 3.207.005.03.006.061.006.092v22.778c0 20.885 5.94 26.635 6 26.69a.72.72 0 0 1 .228.526l.31 15.84a52.587 52.587 0 0 1-25.188-14.056 52.59 52.59 0 0 1-11.31-16.772C8.635 74.034 7.242 67.125 7.242 60c0-7.126 1.394-14.034 4.143-20.534a52.594 52.594 0 0 1 11.31-16.772 52.587 52.587 0 0 1 16.771-11.31C45.966 8.637 52.874 7.243 60 7.243c7.126 0 14.034 1.394 20.534 4.143a52.59 52.59 0 0 1 16.772 11.31 52.598 52.598 0 0 1 11.31 16.771c2.749 6.5 4.142 13.408 4.142 20.534 0 7.125-1.393 14.034-4.143 20.534a52.594 52.594 0 0 1-11.31 16.772M60 0C26.863 0 0 26.863 0 60s26.863 60 60 60 60-26.863 60-60S93.137 0 60 0" fill="#FFF" fill-rule="evenodd"/></svg>