<svg width="120" height="120" viewBox="0 0 120 120" xmlns="http://www.w3.org/2000/svg" xmlns:xlink="http://www.w3.org/1999/xlink"><title>Competitividad</title><defs><path id="a" d="M0 119.79h119.788V0H0z"/></defs><g fill="none" fill-rule="evenodd"><mask id="b" fill="#fff"><use xlink:href="#a"/></mask><path d="M51.617 61.335l-1.872-.036a1.63 1.63 0 0 0-.229-.009l-.089.003-.07-.001a1.773 1.773 0 0 0-.234.012l-6.292.226 5.11-12.053 5.418 4.5c.018.015.038.024.055.038a1.2 1.2 0 0 0 .362.243l8.805 3.731c.12.052.243.076.366.086l-9.676 11.177.115-6.08a1.803 1.803 0 0 0-1.77-1.837zM39.742 77.878c.022-.11.032-.221.034-.33a1.86 1.86 0 0 0 .047-.384l.183-9.661 7.434-.267-.169 8.946-9.352 10.803 1.823-9.107zm-13.569 22.473C14.134 90.305 7.23 75.559 7.23 59.894c0-7.113 1.391-14.009 4.136-20.497a52.497 52.497 0 0 1 11.289-16.742 52.495 52.495 0 0 1 16.742-11.29c6.488-2.745 13.385-4.136 20.498-4.136 8.913 0 17.717 2.265 25.46 6.551a53.09 53.09 0 0 1 18.67 17.36c.283.433.557.87.825 1.309-8.733 8.783-18.08 18.15-18.716 18.626-.793.59-1.793 1.021-2.776 1.021-1.711 0-3.637-1.147-4.022-2.908-.043-.2-.133-.39-.222-.574a4.325 4.325 0 0 0-7.243-.845l-7.156 8.265.022-.052a1.201 1.201 0 0 0-.637-1.574l-8.441-3.579-7.565-6.282a2.817 2.817 0 0 0-.204-.189l.645-1.522a5.58 5.58 0 1 0-3.306-1.401l-.645 1.522a2.886 2.886 0 0 0-2.96 1.743l-7.037 16.601a1.846 1.846 0 0 0-.351 1.05l-.274 14.516-2.678 13.38a1.803 1.803 0 0 0 1.413 2.121l.48.096-6.9 7.97-.103-.083zm83.904-73.163C99.388 10.819 80.904 0 59.894 0 26.814 0 0 26.817 0 59.894c0 18.489 8.376 35.021 21.542 46.007a59.64 59.64 0 0 0 38.352 13.89c33.08 0 59.894-26.817 59.894-59.897 0-12.068-3.569-23.301-9.71-32.706z" fill="#FFF" mask="url(#b)"/></g></svg>