<svg width="120" height="120" viewBox="0 0 120 120" xmlns="http://www.w3.org/2000/svg" xmlns:xlink="http://www.w3.org/1999/xlink"><title>Remuneracion</title><defs><path id="a" d="M119.788.21v119.55H0V.21h119.788z"/></defs><g fill="none" fill-rule="evenodd"><path d="M93.569 54.736a1.392 1.392 0 0 1-.287.447c-.65.69-2.188 1.31-4.354 1.813h-.003a41.19 41.19 0 0 1-3.677.65c-1.361.18-2.846.324-4.421.425-.788.05-1.598.09-2.427.116-.277.01-.557.016-.836.024h-.053a86.874 86.874 0 0 0-3.897 0h-.03a81.087 81.087 0 0 1-3.263-.14c-3.152-.202-5.938-.577-8.1-1.075h-.002c-.11-.026-.219-.05-.325-.08v3.92c0 .38-.092.753-.275 1.112.882.226 1.885.43 2.988.608l.234.036c.472.072.961.142 1.47.207.542.068 1.101.13 1.68.185 1.73.171 3.609.282 5.585.327a77.2 77.2 0 0 0 1.998.024c.674 0 1.342-.007 1.997-.024a77.683 77.683 0 0 0 3.807-.175 63.08 63.08 0 0 0 1.779-.152 58.911 58.911 0 0 0 1.68-.185c.508-.065.997-.135 1.469-.207.068-.012.137-.021.205-.033 2.8-.448 4.959-1.063 6.13-1.775a.314.314 0 0 0 .036-.024c.386-.238.66-.486.812-.743a.91.91 0 0 0 .138-.472v-5.071a.963.963 0 0 1-.058.262" fill="#FFF"/><path d="M89.015 49.484c-2.726.637-6.468 1.077-10.692 1.214a93.146 93.146 0 0 0-2.75-.043c-.934 0-1.852.017-2.749.043-4.224-.137-7.966-.577-10.691-1.214a8.98 8.98 0 0 0-.239-.056v3.875c0 .387-.09.76-.27 1.113 2.916.745 7.16 1.253 11.971 1.366h.02a104.755 104.755 0 0 0 3.918 0h.019c7.029-.164 12.848-1.171 15.087-2.532.036.024.072.045.108.065l-.07-.087c.617-.382.95-.789.95-1.214v-5.06c0 .971-1.745 1.859-4.612 2.53m4.513 12.892c-.085.166-.222.33-.405.49-.012.01-.02.02-.031.03-.69.577-2.015 1.103-3.808 1.543-.12.029-.238.06-.363.089-.314.072-.641.14-.981.207-1.217.24-2.593.447-4.094.608a62.82 62.82 0 0 1-2.236.205 80.078 80.078 0 0 1-4.039.195c-.32-.008-.643-.013-.969-.017-.342-.005-.684-.005-1.028-.005-.338 0-.673 0-1.005.005-.335.002-.665.01-.993.017a80.856 80.856 0 0 1-4.802-.255c-.251-.022-.5-.046-.745-.07a49.333 49.333 0 0 1-4.875-.693 37.773 37.773 0 0 1-1.127-.245l-.133-.031v3.92a2.4 2.4 0 0 1-.275 1.113c1.338.344 2.955.633 4.779.861a64.911 64.911 0 0 0 3.313.32c1.236.089 2.53.151 3.867.183h.036a104.756 104.756 0 0 0 3.919 0h.036a82.958 82.958 0 0 0 1.942-.068 84.234 84.234 0 0 0 1.865-.11 63.49 63.49 0 0 0 3.458-.337 50.273 50.273 0 0 0 2.067-.303c.65-.11 1.268-.231 1.841-.358.142-.032.285-.065.422-.099 1.518-.363 2.708-.789 3.477-1.255l.036-.022c.154-.096.292-.192.41-.291a1.94 1.94 0 0 0 .161-.15 1.45 1.45 0 0 0 .27-.362.889.889 0 0 0 .109-.411v-5.06a.667.667 0 0 1-.027.151.943.943 0 0 1-.072.205m-.436 8.051c-.225.19-.52.373-.873.548-.802.402-1.92.77-3.291 1.085h-.003c-2.197.505-5.04.885-8.258 1.082.417.075.813.152 1.203.233 4.226.89 6.344 2.129 6.607 3.884.345-.074.677-.151.993-.23l.2-.051a19.58 19.58 0 0 0 1.014-.293c.808-.258 1.468-.54 1.957-.835l.036-.024c.617-.38.95-.789.95-1.214v-5.06c-.017.3-.2.594-.535.875" fill="#FFF"/><path d="M75.574 40.692c-5.47 0-10.37.51-13.68 1.317v3.762c0 .317-.063.704-.275 1.116.167.043.338.084.514.124 2.725.638 6.467 1.078 10.691 1.215l.774.022h.017a88.844 88.844 0 0 0 3.918 0h.016l.774-.022c4.224-.137 7.966-.577 10.692-1.215 1.59-.372 2.836-.812 3.628-1.293.639-.387.984-.806.984-1.236 0-2.092-8.082-3.79-18.053-3.79" fill="#FFF"/><g transform="translate(0 .031)"><mask id="b" fill="#fff"><use xlink:href="#a"/></mask><path d="M97.135 97.15a52.496 52.496 0 0 1-16.745 11.266c-6.486 2.739-13.383 4.13-20.496 4.13-7.113 0-14.01-1.391-20.499-4.13A52.486 52.486 0 0 1 22.653 97.15a52.41 52.41 0 0 1-11.289-16.708c-2.745-6.476-4.135-13.359-4.135-20.458 0-7.099 1.39-13.981 4.135-20.455a52.406 52.406 0 0 1 11.29-16.709 52.496 52.496 0 0 1 16.74-11.27c6.49-2.736 13.386-4.126 20.5-4.126a52.507 52.507 0 0 1 37.241 15.395 52.406 52.406 0 0 1 11.288 16.709c2.745 6.474 4.135 13.356 4.135 20.455 0 7.099-1.39 13.982-4.135 20.458a52.41 52.41 0 0 1-11.289 16.708M59.895.21C26.814.21 0 26.972 0 59.983c0 33.013 26.815 59.777 59.894 59.777 33.08 0 59.894-26.764 59.894-59.777 0-33.01-26.814-59.774-59.894-59.774" fill="#FFF" mask="url(#b)"/></g><path d="M25.171 54.52l.036.021c1.169.71 3.316 1.325 6.101 1.772l.234.036c.472.075.962.145 1.47.207.542.068 1.101.13 1.68.188 1.73.168 3.61.281 5.585.327a89.415 89.415 0 0 0 3.995 0 80.702 80.702 0 0 0 3.808-.178 73.935 73.935 0 0 0 1.778-.15c.578-.057 1.137-.12 1.68-.187.508-.062.997-.132 1.47-.207l.204-.031c1.699-.271 3.161-.606 4.308-.986a9.78 9.78 0 0 0 .367-.127c.583-.21 1.072-.43 1.455-.664l.036-.022c.297-.183.528-.373.687-.567.048-.06.09-.118.125-.178a.909.909 0 0 0 .138-.472v-5.069c-.003.04-.012.082-.02.125l-.007.027a.548.548 0 0 1-.031.108c-.024.065-.056.13-.094.192a1.692 1.692 0 0 1-.193.258 3.076 3.076 0 0 1-.638.495c-.463.281-1.078.548-1.825.796-.559.183-1.192.358-1.891.52h-.002a41.515 41.515 0 0 1-3.678.649c-1.361.18-2.845.324-4.421.425a78.83 78.83 0 0 1-2.427.118c-.277.007-.556.017-.836.022h-.053a84.067 84.067 0 0 0-3.896 0h-.032a90.327 90.327 0 0 1-1.657-.053 84.71 84.71 0 0 1-1.605-.087c-3.152-.202-5.938-.577-8.1-1.074h-.002c-.46-.107-.886-.22-1.286-.335-1.33-.39-2.326-.83-2.887-1.306-.328-.279-.508-.57-.525-.868v5.057c0 .214.082.424.243.626.162.204.398.401.706.591" fill="#FFF"/><path d="M25.171 46.985l.039.024c2.238 1.359 8.057 2.366 15.086 2.53h.02c.643.012 1.296.022 1.959.022.662 0 1.315-.01 1.959-.022h.019c5.578-.13 10.398-.791 13.267-1.739.116-.038.227-.077.338-.115a8.449 8.449 0 0 0 1.395-.625l.002-.003.094-.043.032-.024c.019-.014.038-.03.058-.043a3.652 3.652 0 0 0 .256-.178 2.169 2.169 0 0 0 .368-.349c.176-.212.265-.428.265-.65v-5.057c0 .972-1.745 1.857-4.612 2.528-2.726.637-6.468 1.08-10.692 1.216a86.258 86.258 0 0 0-5.499 0c-4.224-.136-7.966-.579-10.691-1.216-2.868-.671-4.612-1.556-4.612-2.528v5.058c0 .425.332.834.95 1.214m35.158 1.217l-.005-.005c.005.02.005.035.005.055v-.05zM25.171 62.051c.005.005.012.007.017.012l.02.012c1.409.854 4.235 1.57 7.89 2.025.516.063 1.049.123 1.596.176.212.021.429.04.646.06a77.26 77.26 0 0 0 4.94.266h.036a87.385 87.385 0 0 0 3.918 0h.036a82.971 82.971 0 0 0 1.942-.067 72.841 72.841 0 0 0 5.323-.445 49.482 49.482 0 0 0 2.067-.302 37.068 37.068 0 0 0 1.841-.359l.422-.098a20.265 20.265 0 0 0 2.024-.592c.58-.212 1.07-.43 1.453-.664l.036-.024c.155-.094.292-.192.41-.29a1.94 1.94 0 0 0 .275-.275c.062-.08.115-.159.156-.238a.888.888 0 0 0 .109-.411v-5.06a1.04 1.04 0 0 1-.099.358 1.318 1.318 0 0 1-.164.246c-.067.081-.15.163-.24.243-.013.01-.02.019-.032.028-.475.4-1.25.772-2.273 1.111-.462.155-.975.299-1.534.436a31.306 31.306 0 0 1-1.345.296c-1.217.24-2.593.445-4.094.608a69.51 69.51 0 0 1-2.236.202 77.743 77.743 0 0 1-4.039.195c-.32-.008-.643-.012-.97-.017-.34-.002-.683-.005-1.027-.005-.338 0-.673.003-1.008.005-.332.005-.662.01-.99.017a78.263 78.263 0 0 1-5.547-.323 50.01 50.01 0 0 1-4.875-.695c-.32-.062-.63-.13-.927-.197l-.2-.048c-1.877-.447-3.263-.988-3.971-1.585-.335-.281-.518-.574-.535-.875v5.06c0 .211.082.42.243.625.162.202.398.4.706.59" fill="#FFF"/><path d="M24.762 69.294c.118.1.255.195.41.291l.035.022c.535.325 1.277.63 2.19.91.218.064.446.129.683.191.13.037.262.07.395.104 2.908.724 7.082 1.214 11.805 1.325h.036c.32.005.64.012.966.014a104.755 104.755 0 0 0 2.952-.014h.036c4.776-.11 8.99-.613 11.901-1.35.068-.016.133-.033.198-.052a18.856 18.856 0 0 0 1.152-.337c.125-.04.248-.081.366-.127a7.936 7.936 0 0 0 1.455-.664l.036-.022c.297-.185.526-.372.685-.567.176-.21.265-.426.265-.65V63.31c-.012.207-.101.409-.265.606a1.9 1.9 0 0 1-.27.27 4.47 4.47 0 0 1-.875.55c-.395.195-.86.385-1.397.563-.56.185-1.193.358-1.892.52h-.002c-2.882.663-6.873 1.11-11.36 1.216h-.033l-.386-.007a84.9 84.9 0 0 0-1.573-.017c-.53 0-1.05.007-1.566.017-.13.002-.263.002-.393.007h-.034c-4.487-.106-8.477-.553-11.359-1.217h-.002a21.461 21.461 0 0 1-1.497-.394 23.872 23.872 0 0 1-.443-.14 11.038 11.038 0 0 1-1.352-.548 4.518 4.518 0 0 1-.872-.55 2.043 2.043 0 0 1-.183-.17 1.508 1.508 0 0 1-.145-.172.982.982 0 0 1-.207-.534v5.06c0 .32.188.63.54.925" fill="#FFF"/><path d="M44.267 74.566h-.033a87.386 87.386 0 0 0-3.918 0h-.034c-4.487-.104-8.477-.553-11.36-1.215h-.002a24.535 24.535 0 0 1-1.496-.394c-.152-.048-.301-.094-.443-.142-.714-.238-1.306-.495-1.754-.765a5.773 5.773 0 0 1-.254-.165 2.77 2.77 0 0 1-.318-.26c-.267-.253-.419-.512-.433-.782V75.9c0 .267.13.525.378.775.15.151.34.298.571.44l.039.024c.21.127.45.252.723.373.99.442 2.38.839 4.067 1.168a49.032 49.032 0 0 0 1.53.267c2.499.39 5.494.647 8.75.722h.036a87.371 87.371 0 0 0 3.918 0h.036a76.938 76.938 0 0 0 4.465-.226c.075-.142.169-.272.28-.385a2.53 2.53 0 0 1-.454-1.421c0-.657.239-1.248.73-1.777.789-.854 2.23-1.55 4.364-2.119-2.619.447-5.85.743-9.388.825m4.295 10.749v-3.431c-1.362.108-2.798.18-4.292.216h-.036a87.248 87.248 0 0 0-1.96-.024c-.662 0-1.315.01-1.958.024h-.036c-4.482-.106-8.47-.553-11.352-1.217-.45-.106-.875-.214-1.268-.327a16.7 16.7 0 0 1-.412-.125c-.096-.031-.19-.06-.28-.091a10.69 10.69 0 0 1-.394-.14 8.159 8.159 0 0 1-1.311-.598 5.48 5.48 0 0 1-.287-.186l-.007-.002c-.05-.039-.099-.072-.142-.108-.041-.034-.08-.065-.114-.096-.214-.186-.359-.378-.433-.575a.78.78 0 0 1-.058-.26v5.06c0 .423.332.832.95 1.214 2.411 1.496 9.158 2.573 17.103 2.573 2.31 0 4.52-.091 6.552-.257a1.47 1.47 0 0 1 .188-.228 2.477 2.477 0 0 1-.449-1.323c-.004-.034-.004-.067-.004-.099M25.205 39.477c.793.481 2.038.919 3.629 1.292 2.725.637 6.467 1.077 10.691 1.214l.774.022h.017a88.845 88.845 0 0 0 3.918 0h.017l.773-.022c4.224-.137 7.966-.577 10.692-1.214 1.59-.373 2.836-.81 3.629-1.292.638-.39.983-.805.983-1.238 0-2.092-8.082-3.788-18.053-3.788s-18.053 1.696-18.053 3.788c0 .433.344.849.983 1.238m60.157 42.247c-.787.372-1.847.714-3.126 1.013-1.72.402-3.837.727-6.222.95a77.384 77.384 0 0 1-4.68.289l-.031-.001a89.019 89.019 0 0 0-5.54 0h-.033a81.18 81.18 0 0 1-3.858-.215c-.487-.04-.96-.084-1.425-.131l-.139-.014a67.133 67.133 0 0 1-1.867-.228c-.002.002-.002.002-.002 0a53.854 53.854 0 0 1-1.45-.22 38.785 38.785 0 0 1-1.336-.25 31.419 31.419 0 0 1-.824-.18l-.21-.05a21.011 21.011 0 0 1-1.693-.482 10.205 10.205 0 0 1-1.478-.607h-.002c-.453-.239-.798-.486-1.017-.743h-.003a1.622 1.622 0 0 1-.127-.168 1.208 1.208 0 0 1-.093-.17.872.872 0 0 1-.078-.345v5.143c0 .272.132.536.385.79l.016.015a3.892 3.892 0 0 0 .567.434l.013.008.026.016c.072.043.147.087.224.13.28.151.605.299.97.441.122.047.249.094.38.14.523.185 1.117.36 1.775.522 2.969.736 7.222 1.236 12.032 1.347h.019a132.868 132.868 0 0 0 1.998.02 106.688 106.688 0 0 0 1.997-.02h.02a80.469 80.469 0 0 0 4.5-.227c.61-.049 1.205-.104 1.783-.165 4.234-.45 7.528-1.234 9.097-2.188a3.182 3.182 0 0 0 .621-.472c.254-.255.386-.519.386-.79V80.16c0 .557-.562 1.086-1.575 1.564" fill="#FFF"/><path d="M86.918 87.953c-.01.046-.022.092-.038.14a1.47 1.47 0 0 1-.294.455c-.663.702-2.232 1.336-4.439 1.849h-.002a40.524 40.524 0 0 1-3.75.661c-1.388.185-2.9.33-4.506.433a78.3 78.3 0 0 1-2.474.12c-.282.01-.567.017-.853.024h-.053a75.194 75.194 0 0 0-1.976-.024c-.675 0-1.343.01-1.998.024h-.031a94.642 94.642 0 0 1-1.692-.055 83.164 83.164 0 0 1-1.636-.09c-3.212-.204-6.053-.586-8.255-1.093h-.003a24.95 24.95 0 0 1-1.31-.342c-1.357-.397-2.372-.846-2.945-1.332a1.98 1.98 0 0 1-.314-.33 1.029 1.029 0 0 1-.221-.555v5.158c0 .217.084.428.248.635.164.207.405.41.72.604l.037.021c1.19.724 3.38 1.352 6.221 1.807.077.014.157.026.236.038a53.228 53.228 0 0 0 3.21.401c1.766.171 3.682.287 5.696.333.668.016 1.35.023 2.037.023.686 0 1.368-.007 2.036-.023a77.879 77.879 0 0 0 5.696-.333 53.228 53.228 0 0 0 3.417-.435c2.855-.457 5.055-1.084 6.25-1.81l.037-.022c.395-.243.674-.498.829-.76a.943.943 0 0 0 .14-.479v-5.158c-.005.034-.01.065-.017.099l-.003.016M68.533 73.775c-2.34 0-4.579.091-6.639.257a86.86 86.86 0 0 0-1.566.147c-.538.055-1.06.117-1.567.185a50.23 50.23 0 0 0-1.843.277l-.01.002a32.2 32.2 0 0 0-2.913.625h-.005c-2.421.654-3.862 1.477-3.862 2.369 0 .036.002.072.007.106.05.401.398.79.995 1.156.14.084.292.169.458.25h.002c.441.217.974.424 1.588.621h.003c.499.156 1.05.305 1.648.445l.01.002c.585.137 1.214.265 1.886.385 1.1.192 2.306.358 3.603.493a77.027 77.027 0 0 0 5.402.36l.788.022h.017a90.883 90.883 0 0 0 3.995 0h.017l.788-.021c4.306-.14 8.123-.59 10.901-1.241 1.622-.378 2.892-.825 3.699-1.316.65-.397 1.002-.822 1.002-1.262a.868.868 0 0 0-.004-.082c-.21-2.097-8.367-3.78-18.4-3.78" fill="#FFF"/></g></svg>