<svg width="120" height="120" viewBox="0 0 120 120" xmlns="http://www.w3.org/2000/svg"><title>Identidad</title><g fill="#FFF" fill-rule="evenodd"><path d="M97.135 97.18a52.486 52.486 0 0 1-16.742 11.267c-6.49 2.74-13.386 4.13-20.499 4.13-7.113 0-14.01-1.39-20.496-4.13a52.486 52.486 0 0 1-16.743-11.266 52.377 52.377 0 0 1-11.291-16.709c-2.745-6.476-4.135-13.359-4.135-20.458 0-7.099 1.39-13.981 4.135-20.455A52.374 52.374 0 0 1 22.655 22.85a52.496 52.496 0 0 1 16.743-11.269c6.486-2.736 13.383-4.126 20.496-4.126A52.496 52.496 0 0 1 97.135 22.85a52.367 52.367 0 0 1 11.29 16.71c2.744 6.473 4.134 13.355 4.134 20.454 0 7.1-1.39 13.982-4.135 20.458a52.37 52.37 0 0 1-11.29 16.709M59.895.24C26.817.24 0 27.003 0 60.014c0 33.014 26.817 59.777 59.894 59.777 33.08 0 59.894-26.763 59.894-59.777 0-33.01-26.815-59.773-59.894-59.773"/><path d="M81.896 89.435H37.894v-.46c0-8.671 7.043-15.703 15.735-15.703H66.16c8.69 0 15.735 7.032 15.735 15.703v.46zM59.894 48.943c5.98 0 10.831 4.838 10.831 10.807s-4.85 10.81-10.831 10.81c-5.98 0-10.829-4.841-10.829-10.81s4.848-10.807 10.829-10.807zm-3.882-20.446c0-.262.214-.476.48-.476h6.807c.262 0 .477.214.477.476v12.075a.478.478 0 0 1-.477.478H56.49a.479.479 0 0 1-.479-.478V28.497zm27.487 6.038h-16.59v-6.038a3.61 3.61 0 0 0-3.61-3.603H56.49a3.61 3.61 0 0 0-3.612 3.603v6.038H36.291c-5.334 0-9.66 4.315-9.66 9.639v39.759c0 5.324 4.326 9.64 9.66 9.64H83.5c5.335 0 9.66-4.316 9.66-9.64v-39.76c0-5.323-4.325-9.638-9.66-9.638z"/></g></svg>