<svg width="120" height="120" viewBox="0 0 120 120" xmlns="http://www.w3.org/2000/svg" xmlns:xlink="http://www.w3.org/1999/xlink"><title>Crecimiento</title><defs><path id="a" d="M0 59.914v59.704h119.789V.21H0v59.704z"/></defs><g fill="none" fill-rule="evenodd"><path d="M27.502 76.583c0-.29.219-.53.508-.559 3.088-.31 6.281-.776 9.303-1.418.163-.034.326-.07.488-.105a.68.68 0 0 1 .826.663v16.39a.68.68 0 0 1-.68.679h-9.765a.68.68 0 0 1-.68-.678V76.583m16.558-3.708a82.597 82.597 0 0 0 9.681-3.6.68.68 0 0 1 .956.618v21.662a.68.68 0 0 1-.68.678h-9.764a.68.68 0 0 1-.68-.678v-18.03a.68.68 0 0 1 .483-.649l.005-.001m16.406-6.97a83.17 83.17 0 0 0 9.213-5.983.68.68 0 0 1 1.088.542v31.09a.68.68 0 0 1-.68.679h-9.764a.68.68 0 0 1-.68-.678V66.76a.68.68 0 0 1 .352-.594c.157-.087.315-.174.471-.262" fill="#FFF"/><g transform="translate(0 .03)"><mask id="b" fill="#fff"><use xlink:href="#a"/></mask><path d="M59.894.21C26.816.21 0 26.94 0 59.914c0 32.974 26.816 59.704 59.894 59.704 33.08 0 59.895-26.73 59.895-59.704C119.789 26.941 92.973.21 59.894.21m0 7.206c7.113 0 14.01 1.387 20.498 4.123a52.503 52.503 0 0 1 16.742 11.254 52.318 52.318 0 0 1 11.29 16.689c2.745 6.467 4.136 13.342 4.136 20.432 0 7.09-1.392 13.965-4.136 20.433a52.316 52.316 0 0 1-11.29 16.689 52.507 52.507 0 0 1-16.742 11.254c-6.488 2.735-13.385 4.122-20.498 4.122-7.113 0-14.009-1.387-20.497-4.122a52.507 52.507 0 0 1-16.743-11.254 52.316 52.316 0 0 1-11.29-16.69C8.62 73.88 7.23 67.006 7.23 59.915c0-7.09 1.391-13.965 4.136-20.432a52.318 52.318 0 0 1 11.29-16.69 52.503 52.503 0 0 1 16.74-11.253c6.488-2.736 13.384-4.123 20.497-4.123" fill="#FFF" mask="url(#b)"/></g><path d="M82.11 48.488a83.316 83.316 0 0 1-6.175 6.263.68.68 0 0 0-.223.501v36.303a.68.68 0 0 0 .68.678h9.766a.68.68 0 0 0 .68-.678V52.262a6.159 6.159 0 0 1-4.727-3.774" fill="#FFF"/><path d="M92.285 31.94l-.006-.095a4.412 4.412 0 0 0-.062-.527l-.02-.106-.024-.111a4.236 4.236 0 0 0-.281-.827l-.031-.068a.747.747 0 0 0-.025-.05c-.018-.037-.036-.074-.056-.11a4.438 4.438 0 0 0-.381-.603c-.018-.024-.034-.047-.053-.07a4.63 4.63 0 0 0-.304-.35l-.063-.065a4.573 4.573 0 0 0-.648-.535.043.043 0 0 1-.013-.009c-.048-.03-.095-.062-.144-.091a3.927 3.927 0 0 0-.456-.248l-.06-.027a1.494 1.494 0 0 0-.106-.047l-.084-.035-.164-.06a2 2 0 0 0-.121-.04 2.635 2.635 0 0 0-.247-.072h-.006a1.59 1.59 0 0 0-.136-.034 2.236 2.236 0 0 0-.156-.031l-.083-.015a5.215 5.215 0 0 0-.305-.04l-.065-.006-.02-.001a4.88 4.88 0 0 0-.138-.01h-.025a4.515 4.515 0 0 0-.181-.003H73.67a4.46 4.46 0 0 0-4.465 4.452c0 2.46 2 4.452 4.465 4.452h4.487a69.1 69.1 0 0 1-.958 1.263l-.333.416-1.153 1.438a72.654 72.654 0 0 1-4.945 5.379 72.573 72.573 0 0 1-16.07 11.94 71.917 71.917 0 0 1-27.196 8.46v8.943a81.057 81.057 0 0 0 27.195-7.41 81.235 81.235 0 0 0 16.07-10.032 80.826 80.826 0 0 0 4.946-4.29 81.377 81.377 0 0 0 7.641-8.25v1.796a4.461 4.461 0 0 0 4.466 4.45c2.466 0 4.467-1.992 4.467-4.45V32.106l-.002-.166" fill="#FFF"/></g></svg>