<svg width="120" height="120" viewBox="0 0 120 120" xmlns="http://www.w3.org/2000/svg" xmlns:xlink="http://www.w3.org/1999/xlink"><title>Calidad de vida</title><defs><path id="a" d="M119.789.21v119.55H0V.21h119.789z"/></defs><g fill="none" fill-rule="evenodd"><path d="M93.997 72.665l-12.33-10.804-10.46-16.724a2.3 2.3 0 0 0-1.851-1.078 2.26 2.26 0 0 0-.498-.051l-6.033.02-.005-2.695c3.616-1.235 6.214-4.658 6.205-8.686-.011-5.058-4.129-9.15-9.197-9.138-5.069.01-9.169 4.12-9.157 9.179.008 4.027 2.621 7.439 6.243 8.658l.006 2.701-6.166.02h-.01a2.3 2.3 0 0 0-2.161 1.07L38.122 61.86l-12.33 10.804a2.142 2.142 0 0 0-.197 3.028l1.757 1.997c.783.89 2.142.979 3.034.197l12.86-11.27c.197-.173.353-.375.471-.593.027-.038.055-.075.08-.115l5.241-8.38.043 19.445-12.346-1.416a5.633 5.633 0 0 0-6.242 4.945 5.595 5.595 0 0 0 1.026 3.929c.094.14.199.272.315.396A5.615 5.615 0 0 0 35.22 86.7l19.817 9.503a3.23 3.23 0 0 0 4.306-1.508l.552-1.146.552 1.146a3.23 3.23 0 0 0 4.305 1.508L84.57 86.7a5.616 5.616 0 0 0 3.386-1.872c.116-.124.221-.257.315-.397a5.594 5.594 0 0 0 1.026-3.928 5.632 5.632 0 0 0-6.242-4.945l-12.243 1.404-.042-19.403 5.223 8.35c.025.04.053.077.08.114.118.219.274.421.472.595l12.86 11.269c.892.782 2.25.694 3.033-.197l1.757-1.997a2.142 2.142 0 0 0-.197-3.028" fill="#FFF"/><g transform="translate(0 .03)"><mask id="b" fill="#fff"><use xlink:href="#a"/></mask><path d="M97.135 97.15a52.503 52.503 0 0 1-16.743 11.268c-6.488 2.738-13.385 4.127-20.498 4.127-7.113 0-14.009-1.389-20.497-4.127A52.498 52.498 0 0 1 22.654 97.15a52.386 52.386 0 0 1-11.29-16.71C8.622 73.967 7.23 67.085 7.23 59.986s1.391-13.981 4.136-20.457a52.39 52.39 0 0 1 11.29-16.708 52.498 52.498 0 0 1 16.742-11.267c6.488-2.74 13.384-4.128 20.497-4.128 7.113 0 14.01 1.389 20.498 4.128A52.503 52.503 0 0 1 97.136 22.82a52.394 52.394 0 0 1 11.29 16.71c2.743 6.475 4.135 13.357 4.135 20.456s-1.392 13.981-4.136 20.457a52.39 52.39 0 0 1-11.29 16.709M59.895.21C26.816.21 0 26.972 0 59.985c0 33.012 26.816 59.775 59.894 59.775 33.08 0 59.895-26.763 59.895-59.775C119.789 26.972 92.973.21 59.894.21" fill="#FFF" mask="url(#b)"/></g></g></svg>