<svg width="449" height="334" viewBox="0 0 449 334" xmlns="http://www.w3.org/2000/svg" xmlns:xlink="http://www.w3.org/1999/xlink"><title>Responsabilidad social grafico</title><defs><path id="a" d="M.134 11.557V.024h31.711v11.533H.134z"/></defs><g fill="none" fill-rule="evenodd"><path fill="#F2AE75" d="M364 123.187l-4.986-2.303V105h-32.006v15.884L322 123.048l1.333 45.045h3.675V175h32.006v-6.907h3.653z"/><path fill="#E0935A" d="M328 105v11.472L360 119v-14z"/><path stroke="#895306" stroke-width="3" stroke-linejoin="round" d="M364 123.187l-4.986-2.303V105h-32.006v15.884L322 123.048l1.333 45.045h3.675V175h32.006v-6.907h3.653z"/><path d="M418.484 199.809c-1.756 1.422-11.758.782-19.154.205.088-12.167.173-20.119.173-20.119.01.014.167-.089.424-.299 5.107 3.906 8.879 6.413 16.499 14.85 3.564 3.946 2.146 5.29 2.058 5.363m-151.124 0c-.088-.072-1.506-1.417 2.06-5.364 7.457-8.255 11.408-10.983 16.484-14.86.266.217.427.324.438.31 0 0 .086 7.952.174 20.119-7.397.577-17.398 1.217-19.156-.206m174.5-15.846c-8.843-17.913-23.266-34.144-36.768-46.825-6.801-6.97-21.066-8.735-40.815-16.118l-1.738 7.002c-2.378 5.842-7.738 13.936-19.221 13.936-12.416 0-18.054-9.464-20.353-15.31l-1.397-5.628c-19.748 7.382-34.012 9.148-40.814 16.117-13.502 12.68-27.925 28.913-36.769 46.826-10.644 21.56-.535 34.33 4.304 38.25 6.89 5.58 29.933 4.361 38.107 4.361.098 0 .18-.128.267-.128.026 6.817.043 14.34.046 21.075h112.429c.002-6.736.018-14.258.044-21.075.087 0 .17.064.268.064 8.173 0 31.216 1.251 38.106-4.328 4.84-3.922 14.948-16.658 4.303-38.22" fill="#FFF"/><path d="M418.484 199.809c-1.756 1.422-11.758.782-19.154.205.088-12.167.173-20.119.173-20.119.01.014.167-.089.424-.299 5.107 3.906 8.879 6.413 16.499 14.85 3.564 3.946 2.146 5.29 2.058 5.363zm-151.124 0c-.088-.072-1.506-1.417 2.06-5.364 7.457-8.255 11.408-10.983 16.484-14.86.266.217.427.324.438.31 0 0 .086 7.952.174 20.119-7.397.577-17.398 1.217-19.156-.206zm174.5-15.847c-8.843-17.913-23.266-34.144-36.768-46.825-6.801-6.97-21.066-8.735-40.815-16.118l-1.738 7.002c-2.378 5.842-7.738 13.936-19.221 13.936-12.416 0-18.054-9.464-20.353-15.31l-1.397-5.628c-19.748 7.382-34.012 9.148-40.814 16.117-13.502 12.68-27.925 28.913-36.769 46.826-10.644 21.56-.535 34.33 4.304 38.25 6.89 5.58 29.933 4.361 38.107 4.361.098 0 .18-.128.267-.128.026 6.817.043 14.34.046 21.075h112.429c.002-6.736.018-14.258.044-21.075.087 0 .17.064.268.064 8.173 0 31.216 1.251 38.106-4.328 4.84-3.922 14.948-16.658 4.303-38.22z" stroke="#6B6B6B" stroke-width="3" stroke-linejoin="round"/><path d="M377.825 58.418l1.078-13.951c0-18.244-17.525-33.026-35.847-33.026-18.336 0-35.848 14.782-35.848 33.026l1.077 13.938a6.508 6.508 0 0 0-2.723 1.373 6.564 6.564 0 0 0-2.337 5.033v6.87c0 3.631 2.94 6.578 6.597 6.6 0 17.23 20.805 33.56 33.234 33.56 12.43 0 33.233-16.33 33.233-33.557 3.644-.026 6.592-2.968 6.592-6.6v-6.87c0-3.103-2.158-5.687-5.056-6.396" fill="#F2AE75"/><path d="M377.825 58.418l1.078-13.951c0-18.244-17.525-33.026-35.847-33.026-18.336 0-35.848 14.782-35.848 33.026l1.077 13.938a6.508 6.508 0 0 0-2.723 1.373 6.564 6.564 0 0 0-2.337 5.033v6.87c0 3.631 2.94 6.578 6.597 6.6 0 17.23 20.805 33.56 33.234 33.56 12.43 0 33.233-16.33 33.233-33.557 3.644-.026 6.592-2.968 6.592-6.6v-6.87c0-3.103-2.158-5.687-5.056-6.396z" stroke="#895306" stroke-width="3" stroke-linejoin="round"/><path d="M404.898 225.475c-1.32.01-2.339.186-3.987.196l-5.066-.115c-6.837-.254-15.038-.877-15.038-.877-5.268-.489-8.721-6.448-7.857-13.061.877-6.666 5.455-11.511 10.189-11.074 0 0 2.372.173 5.497.365-.548-.784-.85-1.892-.744-3.11.194-2.224 1.589-3.934 3.116-3.819 4.043.303 7.275 3.027 9.734 5.767.506.564.973 1.128 1.403 1.672.978-.007 1.821.185 2.635.18" fill="#F2AE75"/><path d="M404.898 225.475c-1.32.01-2.339.186-3.987.196l-5.066-.115c-6.837-.254-15.038-.877-15.038-.877-5.268-.489-8.721-6.448-7.857-13.061.877-6.666 5.455-11.511 10.189-11.074 0 0 2.372.173 5.497.365-.548-.784-.85-1.892-.744-3.11.194-2.224 1.589-3.934 3.116-3.819 4.043.303 7.275 3.027 9.734 5.767.506.564.973 1.128 1.403 1.672.978-.007 1.821.185 2.635.18" stroke="#895306" stroke-width="2.743" stroke-linejoin="round"/><path d="M404.898 200.231l.475 26.432" fill="#FFF"/><path d="M404.898 200.231l.475 26.432" stroke="#6B6B6B" stroke-width="3" stroke-linejoin="round"/><path d="M343.053 3.048c-50.773 0-42.537 53.445-38.966 64.817.65 2.08 3.446 5.347 3.458 5.347.041.077.074.45.104.45h4.328c-.065-.842.204-1.163.204-1.648V50.997s3.291 1.167 6.786.93c.884-.06 1.724-.137 2.58-.232.161-.017.3-.043.46-.061 26.226-3.09 39.14-21.657 39.396-21.985l.042.001-.001-.001c6.146-.057 10.8 3.61 12.466 9.446l.335 32.772c0 .29-.025.953-.049 2.637h4.576c.658-2.526 2.704-5.041 3.249-6.785 3.571-11.374 11.807-64.67-38.968-64.67m-24.146 48.878" fill="#3C2417"/><path d="M321.517 51.696c.16-.018.316-.043.476-.063-.16.02-.315.045-.476.063" fill="#3C2417"/><path d="M320.737 164.165c1.953 4.518 5.248 8.987 9.86 10.913.526.219 1.124.382 1.739.519 1.229-1.822 2.637-3.302 4.288-4.513a21.6 21.6 0 0 1 4.438-2.489c-.44-.306-.9-.583-1.382-.834-1.92-.999-4-1.877-6.022-2.822 1.903.513 4.086.704 5.906 1.365 1.135.414 2.183.987 3.159 1.67 2.912-.988 5.956-1.463 8.994-1.823-2.462-4.07-7.716-7.34-11.676-8.818-4.134-1.544-8.818-1.736-13.42-2.21-2.818-.29-5.884-1.337-8.127-2.56-.51-.278-1.054.185-.878.748 1.102 3.508 1.661 7.481 3.12 10.854m49.464 1.148c-5.187 2.806-11.137 3.15-16.967 3.815-2.847.327-5.665.731-8.348 1.538-.58.176-1.162.372-1.733.59a20.46 20.46 0 0 0-4.87 2.619c-1.448 1.06-2.632 2.314-3.63 3.695-1.59 2.204-2.698 4.742-3.609 7.377a41.882 41.882 0 0 0-2.276 14.93c.06 2.052.094 4.185.603 6.188.116.443.225 1.005.57 1.331.45.432 1.256-.01 1.075-.637-1.305-4.426-.493-9.6 1.31-13.828 2.074-4.863 6.078-7.754 10.97-9.517 1.3-.47 2.627-.878 3.976-1.266.028-.011.056-.011.083-.011.268 0 .383.393.104.518-1.591.715-3.17 1.436-4.673 2.215-7.36 3.821-10.573 12.715-7.815 12.715.225 0 .488-.06.79-.185 4.255-1.752 9.312-1.768 13.99-2.63 1.645-.3 3.247-.71 4.75-1.332 5.966-2.477 10.233-7.323 12.772-13.15 1.892-4.35 2.627-9.484 4.058-14.003.187-.578-.225-1.075-.728-1.075a.767.767 0 0 0-.401.103" fill="#007B41"/><path fill="#F2AE75" d="M126.04 122.038l-4.965-2.278v-15.704H89.211v15.704l-4.986 2.14 1.328 44.538h3.658v6.828h31.864v-6.828h3.638z"/><g transform="translate(90 105)"><mask id="b" fill="#fff"><use xlink:href="#a"/></mask><path fill="#E0935A" mask="url(#b)" d="M.133-2.376V9.33l31.712 2.227V-2.376z"/></g><path stroke="#895306" stroke-width="3" stroke-linejoin="round" d="M126.27 122.114l-4.937-2.278V104.12H89.645v15.715l-4.958 2.141 1.32 44.566h3.638v6.833h31.688v-6.833h3.618z"/><path d="M180.623 199.935c-1.747 1.424-11.693.784-19.049.206.088-12.175.172-20.132.172-20.132.011.014.167-.09.422-.299 5.079 3.908 8.83 6.417 16.407 14.859 3.545 3.949 2.135 5.294 2.048 5.366m-150.287 0c-.087-.072-1.497-1.417 2.048-5.366 7.415-8.262 11.345-10.991 16.393-14.87.264.217.425.324.436.31 0 0 .085 7.957.172 20.132-7.356.578-17.302 1.218-19.049-.206m173.532-15.857c-8.794-17.924-23.136-34.166-36.564-46.854-6.763-6.975-20.95-8.742-40.588-16.13 0 0-.653 2.65-1.73 7.007-2.363 5.846-7.694 13.946-19.113 13.946-12.347 0-17.954-9.47-20.24-15.32l-1.39-5.632c-19.638 7.386-33.823 9.154-40.587 16.128v-.001c-13.428 12.69-27.77 28.932-36.565 46.856-10.586 21.575-.534 34.352 4.28 38.275 6.852 5.584 29.766 4.364 37.895 4.364.098 0 .18.293.266.293.026 6.82.043 14.77.044 21.51h111.807c.002-6.74.019-14.69.044-21.51.087 0 .168-.146.266-.146 8.129 0 31.043 1.146 37.895-4.437 4.813-3.924 14.866-16.774 4.28-38.349" fill="#FFF"/><path d="M180.623 199.935c-1.747 1.424-11.693.784-19.049.206.088-12.175.172-20.132.172-20.132.011.014.167-.09.422-.299 5.079 3.908 8.83 6.417 16.407 14.859 3.545 3.949 2.135 5.294 2.048 5.366zm-150.287 0c-.087-.072-1.497-1.417 2.048-5.366 7.415-8.262 11.345-10.991 16.393-14.87.264.217.425.324.436.31 0 0 .085 7.957.172 20.132-7.356.578-17.302 1.218-19.049-.206zm173.532-15.857c-8.794-17.924-23.136-34.166-36.564-46.854-6.763-6.975-20.95-8.742-40.588-16.13 0 0-.653 2.65-1.73 7.007-2.363 5.846-7.694 13.946-19.113 13.946-12.347 0-17.954-9.47-20.24-15.32l-1.39-5.632c-19.638 7.386-33.823 9.154-40.587 16.128v-.001c-13.428 12.69-27.77 28.932-36.565 46.856-10.586 21.575-.534 34.352 4.28 38.275 6.852 5.584 29.766 4.364 37.895 4.364.098 0 .18.293.266.293.026 6.82.043 14.77.044 21.51h111.807c.002-6.74.019-14.69.044-21.51.087 0 .168-.146.266-.146 8.129 0 31.043 1.146 37.895-4.437 4.813-3.924 14.866-16.774 4.28-38.349z" stroke="#6B6B6B" stroke-width="3" stroke-linejoin="round"/><path d="M168.405 201.831l-3.475.016c-.787-.026-1.672-.053-2.617-.081a33.231 33.231 0 0 0-1.297-1.675c-2.277-2.753-5.3-5.517-9.195-5.958-1.472-.166-2.881 1.446-3.15 3.602-.146 1.18.106 2.268.608 3.05-3.014-.299-5.298-.553-5.298-.553-4.559-.594-9.158 3.952-10.245 10.4-1.074 6.398 2.047 12.316 7.12 12.981 0 0 7.901.901 14.498 1.393l4.892.295 4.354.133 4.354-.019-.55-23.584z" fill="#F2AE75"/><path d="M168.405 201.831l-3.475.016c-.787-.026-1.672-.053-2.617-.081a33.231 33.231 0 0 0-1.297-1.675c-2.277-2.753-5.3-5.517-9.195-5.958-1.472-.166-2.881 1.446-3.15 3.602-.146 1.18.106 2.268.608 3.05-3.014-.299-5.298-.553-5.298-.553-4.559-.594-9.158 3.952-10.245 10.4-1.074 6.398 2.047 12.316 7.12 12.981 0 0 7.901.901 14.498 1.393l4.892.295 4.354.133 4.354-.019-.55-23.584z" stroke="#895306" stroke-width="3" stroke-linejoin="round"/><path d="M46.505 225.618c1.311.01 2.326.186 3.964.196l5.04-.115c6.798-.254 14.954-.877 14.954-.877 5.239-.49 8.673-6.453 7.813-13.07-.872-6.67-5.424-11.518-10.133-11.081 0 0-2.357.173-5.467.365.547-.784.847-1.893.741-3.112-.193-2.225-1.581-3.936-3.099-3.821-4.02.303-7.234 3.029-9.68 5.77a35.01 35.01 0 0 0-1.395 1.673c-.973-.007-1.811.186-2.62.181" fill="#F2AE75"/><path d="M46.505 225.618c1.311.01 2.326.186 3.964.196l5.04-.115c6.798-.254 14.954-.877 14.954-.877 5.239-.49 8.673-6.453 7.813-13.07-.872-6.67-5.424-11.518-10.133-11.081 0 0-2.357.173-5.467.365.547-.784.847-1.893.741-3.112-.193-2.225-1.581-3.936-3.099-3.821-4.02.303-7.234 3.029-9.68 5.77a35.01 35.01 0 0 0-1.395 1.673c-.973-.007-1.811.186-2.62.181" stroke="#895306" stroke-width="2.743" stroke-linejoin="round"/><path d="M140.188 58.454l1.072-13.96c0-18.256-17.427-33.048-35.648-33.048-18.234 0-35.65 14.792-35.65 33.047l1.072 13.947a6.46 6.46 0 0 0-2.708 1.374 6.585 6.585 0 0 0-2.324 5.037v6.873a6.598 6.598 0 0 0 6.56 6.606c0 17.24 20.69 33.58 33.05 33.58 12.36 0 33.05-16.339 33.05-33.577a6.603 6.603 0 0 0 6.554-6.605v-6.875c0-3.104-2.146-5.69-5.028-6.4" fill="#F2AE75"/><path d="M140.188 58.454l1.072-13.96c0-18.256-17.427-33.048-35.648-33.048-18.234 0-35.65 14.792-35.65 33.047l1.072 13.947a6.46 6.46 0 0 0-2.708 1.374 6.585 6.585 0 0 0-2.324 5.037v6.873a6.598 6.598 0 0 0 6.56 6.606c0 17.24 20.69 33.58 33.05 33.58 12.36 0 33.05-16.339 33.05-33.577a6.603 6.603 0 0 0 6.554-6.605v-6.875c0-3.104-2.146-5.69-5.028-6.4z" stroke="#895306" stroke-width="3" stroke-linejoin="round"/><path d="M105.61 3.048c-50.492 0-42.302 53.48-38.75 64.86.645 2.08 3.425 5.35 3.438 5.35.041.076.074.45.103.45h4.304c-.063-.843.223-1.165.223-1.65v-21.03s3.264 1.167 6.738.931c.88-.06 1.71-.138 2.561-.232.161-.018.297-.043.456-.062 26.08-3.092 38.922-21.67 39.176-22 .015 0 .025.003.04.003v-.002c6.112-.057 10.74 3.612 12.396 9.452l.335 32.793c0 .29-.026.954-.05 2.639h4.55c.654-2.527 2.69-5.045 3.23-6.79 3.553-11.38 11.742-64.712-38.75-64.712M81.597 51.959" fill="#3C2417"/><path d="M84.193 51.727c.16-.018.314-.043.473-.062-.16.019-.313.044-.473.062" fill="#3C2417"/><path d="M83.417 165.111c1.941 4.52 5.22 8.992 9.805 10.92.525.219 1.119.382 1.73.519 1.221-1.823 2.623-3.303 4.264-4.516a21.444 21.444 0 0 1 4.413-2.49 12.487 12.487 0 0 0-1.374-.835c-1.91-.999-3.976-1.878-5.99-2.823 1.893.513 4.064.704 5.874 1.366 1.13.414 2.171.987 3.142 1.67 2.896-.988 5.923-1.463 8.944-1.824-2.448-4.073-7.673-7.343-11.611-8.824-4.112-1.545-8.769-1.736-13.345-2.211-2.804-.29-5.852-1.338-8.083-2.561-.507-.278-1.048.185-.873.748 1.097 3.51 1.653 7.486 3.104 10.861" fill="#007B41"/><path d="M132.607 165.418c-5.16 2.807-11.077 3.15-16.875 3.817-2.83.327-5.634.731-8.3 1.54-.578.174-1.157.37-1.724.59a20.305 20.305 0 0 0-4.843 2.62c-1.44 1.06-2.618 2.315-3.61 3.697-1.582 2.206-2.683 4.745-3.589 7.382a42.147 42.147 0 0 0-2.263 14.94c.06 2.053.092 4.187.6 6.192.114.443.223 1.005.567 1.332.447.432 1.248-.01 1.068-.638-1.297-4.429-.49-9.606 1.304-13.837 2.061-4.866 6.043-7.759 10.908-9.523a61.998 61.998 0 0 1 3.954-1.267c.028-.011.054-.011.082-.011.267 0 .381.393.104.519-1.582.715-3.153 1.436-4.647 2.216-7.32 3.824-10.515 12.723-7.772 12.723.223 0 .485-.06.785-.185 4.232-1.753 9.26-1.77 13.913-2.632 1.636-.3 3.229-.71 4.723-1.333 5.934-2.478 10.177-7.327 12.702-13.159 1.882-4.351 2.613-9.49 4.036-14.011.185-.579-.224-1.076-.725-1.076a.759.759 0 0 0-.398.104" fill="#007B41"/><path d="M46.505 200.358l-.47 26.45" fill="#FFF"/><path d="M46.505 200.358l-.47 26.45" stroke="#6B6B6B" stroke-width="3" stroke-linejoin="round"/><path fill="#F2AE75" d="M253 161.904l-6.649-3.029V138h-42.674v20.875L197 161.721l1.777 59.202h4.9V230h42.674v-9.077h4.87z"/><path fill="#E0935A" d="M204 141v8.141L247 158v-17z"/><path stroke="#895306" stroke-width="3" stroke-linejoin="round" d="M253 161.904l-6.649-3.029V138h-42.674v20.875L197 161.721l1.777 59.202h4.9V230h42.674v-9.077h4.87z"/><path d="M355.503 246.422c-11.622-23.564-28.088-43.72-45.79-60.523-.216-.215-.44-.422-.66-.631-.103-.096-.204-.196-.305-.29l-.001.002c-10.697-9.86-29.615-14.271-54.483-22.792-1.12-.39-2.257-.779-3.394-1.186-.018.053-.018.124-.036.177-2.071 11.662-7.95 26.76-26.177 28.53-18.226-1.77-24.106-16.868-26.177-28.53-.018-.053-.018-.124-.035-.177-1.138.407-2.275.797-3.394 1.186-27.194 9.318-47.272 13.72-57.265 25.71-16.446 16.308-31.771 36.458-42.654 58.524-14.246 28.88-2.94 45.982 3.538 51.235 9.22 7.473 49.21 6.74 52.51 6.476l-1.692-36.233c-9.99.8-22.772 1.794-25.295-.253-.118-.095-2.016-1.896 2.756-7.183 11.435-12.67 16.711-15.62 25.15-22.305.05.04.077.064.077.064s1.875 92.766 6.121 92.766l133.131.59c4.247 0 5.71-93.356 5.71-93.356s.258-.207.712-.595c8.993 7.25 13.868 9.575 25.835 22.836 4.773 5.287 2.875 7.088 2.756 7.183-2.523 2.047-14.369 1.752-24.361.952l-2.56 35.287c3.3.264 43.223 1.244 52.445-6.23 6.477-5.252 17.784-22.355 3.538-51.234" fill="#FFF"/><path d="M355.503 246.422c-11.622-23.564-28.088-43.72-45.79-60.523-.216-.215-.44-.422-.66-.631-.103-.096-.204-.196-.305-.29l-.001.002c-10.697-9.86-29.615-14.271-54.483-22.792-1.12-.39-2.257-.779-3.394-1.186-.018.053-.018.124-.036.177-2.071 11.662-7.95 26.76-26.177 28.53-18.226-1.77-24.106-16.868-26.177-28.53-.018-.053-.018-.124-.035-.177-1.138.407-2.275.797-3.394 1.186-27.194 9.318-47.272 13.72-57.265 25.71-16.446 16.308-31.771 36.458-42.654 58.524-14.246 28.88-2.94 45.982 3.538 51.235 9.22 7.473 49.21 6.74 52.51 6.476l-1.692-36.233c-9.99.8-22.772 1.794-25.295-.253-.118-.095-2.016-1.896 2.756-7.183 11.435-12.67 16.711-15.62 25.15-22.305.05.04.077.064.077.064s1.875 92.766 6.121 92.766l133.131.59c4.247 0 5.71-93.356 5.71-93.356s.258-.207.712-.595c8.993 7.25 13.868 9.575 25.835 22.836 4.773 5.287 2.875 7.088 2.756 7.183-2.523 2.047-14.369 1.752-24.361.952l-2.56 35.287c3.3.264 43.223 1.244 52.445-6.23 6.477-5.252 17.784-22.355 3.538-51.234z" stroke="#6B6B6B" stroke-width="3" stroke-linejoin="round"/><path d="M150.611 300.193c1.566.011 2.777.221 4.734.234l6.016-.138c8.116-.3 17.854-1.041 17.854-1.041 6.255-.582 10.355-7.664 9.328-15.522-1.04-7.92-6.477-13.677-12.098-13.16 0 0-2.815.207-6.527.436.652-.932 1.011-2.25.884-3.696-.23-2.643-1.887-4.675-3.7-4.539-4.8.361-8.636 3.597-11.555 6.854-.602.67-1.157 1.34-1.668 1.985-1.16-.008-3.848.092-4.814.086" fill="#F2AE75"/><path d="M150.611 300.193c1.566.011 2.777.221 4.734.234l6.016-.138c8.116-.3 17.854-1.041 17.854-1.041 6.255-.582 10.355-7.664 9.328-15.522-1.04-7.92-6.477-13.677-12.098-13.16 0 0-2.815.207-6.527.436.652-.932 1.011-2.25.884-3.696-.23-2.643-1.887-4.675-3.7-4.539-4.8.361-8.636 3.597-11.555 6.854-.602.67-1.157 1.34-1.668 1.985-1.16-.008-3.848.092-4.814.086" stroke="#895306" stroke-width="3" stroke-linejoin="round"/><path d="M149.065 269.164l1.692 33.705" fill="#FFF"/><path d="M149.065 269.164l1.692 33.705" stroke="#6B6B6B" stroke-width="3" stroke-linejoin="round"/><path d="M300.538 300.193c-1.565.011-2.776.221-4.733.234l-6.016-.138c-8.117-.3-17.854-1.041-17.854-1.041-6.255-.582-10.356-7.664-9.327-15.522 1.04-7.92 6.474-13.677 12.097-13.16 0 0 2.814.207 6.527.436-.653-.932-1.012-2.25-.885-3.696.23-2.643 1.887-4.675 3.7-4.539 4.8.361 8.637 3.597 11.556 6.854.601.67 1.157 1.34 1.667 1.985 1.162-.008 3.849.092 4.815.086" fill="#F2AE75"/><path d="M300.538 300.193c-1.565.011-2.776.221-4.733.234l-6.016-.138c-8.117-.3-17.854-1.041-17.854-1.041-6.255-.582-10.356-7.664-9.327-15.522 1.04-7.92 6.474-13.677 12.097-13.16 0 0 2.814.207 6.527.436-.653-.932-1.012-2.25-.885-3.696.23-2.643 1.887-4.675 3.7-4.539 4.8.361 8.637 3.597 11.556 6.854.601.67 1.157 1.34 1.667 1.985 1.162-.008 3.849.092 4.815.086" stroke="#895306" stroke-width="3" stroke-linejoin="round"/><path d="M302.219 269.164l-2.668 34.547" fill="#FFF"/><path d="M302.219 269.164l-2.668 34.547" stroke="#6B6B6B" stroke-width="3" stroke-linejoin="round"/><path d="M271.189 78.255l1.443-18.686c0-24.437-23.454-44.237-47.975-44.237-24.538 0-47.974 19.8-47.974 44.237l1.442 18.669a8.717 8.717 0 0 0-3.646 1.838 8.797 8.797 0 0 0-3.127 6.742v9.202c0 4.864 3.934 8.811 8.829 8.84 0 23.076 27.842 44.95 44.476 44.95 16.635 0 44.476-21.871 44.476-44.946 4.878-.034 8.822-3.976 8.822-8.842v-9.2c0-4.156-2.887-7.617-6.766-8.567" fill="#F2AE75"/><path d="M271.189 78.255l1.443-18.686c0-24.437-23.454-44.237-47.975-44.237-24.538 0-47.974 19.8-47.974 44.237l1.442 18.669a8.717 8.717 0 0 0-3.646 1.838 8.797 8.797 0 0 0-3.127 6.742v9.202c0 4.864 3.934 8.811 8.829 8.84 0 23.076 27.842 44.95 44.476 44.95 16.635 0 44.476-21.871 44.476-44.946 4.878-.034 8.822-3.976 8.822-8.842v-9.2c0-4.156-2.887-7.617-6.766-8.567z" stroke="#895306" stroke-width="3" stroke-linejoin="round"/><path d="M271.952 30.747c.498-5.91-1.406-14.321-6.078-26.331-1.101-2.834-4.824-3.327-6.727-.95-5.41 6.756-12.567 5.404-24.34.63-19.68-7.983-34.125-3.11-42.45 5.568-35.691 18.14-13.884 81.733-13.884 81.733s.748-33.115 13.01-48.318c6.717 1.535 25.616 4.112 33.174 4.112 7.56 0 27.354-2.472 34.225-4.112 9.077 9.654 11.972 48.318 11.972 48.318s14.05-35.253 1.098-60.65" fill="#4F3C30"/><path d="M255.406 232.032a.584.584 0 0 0-.793-.211l-.388.23-14.108 8.756a.57.57 0 0 0-.182.796c1.612 2.5 8.866 13.797 10.708 17.309.127.242.4.362.667.29 4.157-1.11 9.453-2.088 11.89-5.89 1.23-1.914 1.963-4.84.727-6.929l-8.521-14.35z" fill="#007B41"/><path d="M259.697 260.867c-7.363 2.91-19.198 1.932-21.768 1.671a.578.578 0 0 1-.521-.548l-.236-5.552c-.024-.58-.795-.766-1.085-.266l-8.671 14.798a.575.575 0 0 0 .01.597l9.382 14.834c.321.506 1.11.26 1.079-.332l-.242-4.816a.572.572 0 0 1 .557-.603c1.733-.067 6.89-.278 9.653-.525 3.358-.302 4.57-3.295 4.57-3.295l7.999-15.16c.248-.47-.224-1.001-.727-.803m-14.707-26.662l8.95-15.1c.303-.512-.28-1.091-.794-.79l-4.2 2.425a.572.572 0 0 1-.794-.21c-.86-1.49-3.424-5.938-4.92-8.267-1.812-2.819-5.048-2.506-5.048-2.506l-17.235-.072c-.546 0-.794.664-.388 1.014 5.993 5.148 10.568 16.03 11.52 18.406.11.272 0 .574-.254.72l-4.855 2.763c-.503.283-.321 1.05.262 1.08l17.227.82a.574.574 0 0 0 .528-.283" fill="#007B41"/><path d="M212.228 211.085c-2.278-.205-5.235.501-6.539 2.546 0 .007-7.339 11.594-8.939 14.129a.568.568 0 0 0 .176.79l.382.242 14.333 8.395a.58.58 0 0 0 .8-.206c1.49-2.565 8.278-14.17 10.574-17.41a.562.562 0 0 0-.05-.719c-2.907-3.15-6.222-7.368-10.737-7.767m8.932 52.251c-3.035-.08-16.888-.44-20.882-.912a.572.572 0 0 0-.619.38c-1.417 4.037-3.593 8.932-1.811 13.072.902 2.082 2.92 4.339 5.357 4.502l17.198 1.044a.586.586 0 0 0 .618-.537l.03-.446.673-16.506a.573.573 0 0 0-.563-.597" fill="#007B41"/><path d="M205.635 249.763l4.75 2.939c.492.308 1.085-.218.831-.736l-7.411-15.456a.606.606 0 0 0-.504-.332l-17.64-.676c-.6-.023-.836.755-.328 1.069l4.14 2.516c.279.17.363.525.193.796-.92 1.461-3.653 5.813-5.011 8.214-1.643 2.921.17 5.6.17 5.6l8.09 15.112c.249.47.958.38 1.079-.144 1.727-7.677 9.224-16.825 10.889-18.787a.585.585 0 0 1 .752-.115" fill="#007B41"/></g></svg>