<svg width="1280" height="740" viewBox="0 0 1280 740" xmlns="http://www.w3.org/2000/svg"><title>WE CARE</title><g fill="#F15733" fill-rule="evenodd"><path d="M0 0h1280v740H0V0zm218.18 286.32l26.18 71.06L225 407.32l-44.44-121.44H148l63.14 156.2h25.52l27.06-65.56 27.06 65.56h25.52l63.58-156.2h-33l-44.22 121.44-19.8-49.94 26.62-71.06h-28.16l-17.6 51.7-17.6-51.7h-27.94zM504.4 415.46h-78.1v-40.7h65.78v-24.64H426.3V312.5h76.12v-26.62H395.94v156.2H504.4v-26.62zm67.1-52.58c0 9.973 1.87 19.763 5.61 29.37s8.947 18.187 15.62 25.74c6.673 7.553 14.63 13.677 23.87 18.37 9.24 4.693 19.433 7.04 30.58 7.04 6.307 0 12.76-.807 19.36-2.42s12.797-3.96 18.59-7.04c5.793-3.08 11-6.857 15.62-11.33 4.62-4.473 8.177-9.643 10.67-15.51l-24.86-14.3c-1.76 4.253-4.107 7.883-7.04 10.89-2.933 3.007-6.123 5.463-9.57 7.37a41.819 41.819 0 0 1-10.89 4.18c-3.813.88-7.48 1.32-11 1.32-6.747 0-12.943-1.467-18.59-4.4-5.647-2.933-10.487-6.82-14.52-11.66-4.033-4.84-7.15-10.45-9.35-16.83-2.2-6.38-3.3-13.017-3.3-19.91 0-6.16.953-12.357 2.86-18.59 1.907-6.233 4.73-11.807 8.47-16.72 3.74-4.913 8.433-8.91 14.08-11.99s12.283-4.62 19.91-4.62c3.52 0 7.113.403 10.78 1.21a42.461 42.461 0 0 1 10.56 3.85c3.373 1.76 6.527 4.143 9.46 7.15 2.933 3.007 5.427 6.71 7.48 11.11l23.32-16.06c-5.133-10.12-12.943-18.333-23.43-24.64-10.487-6.307-22.917-9.46-37.29-9.46-12.173 0-23.027 2.273-32.56 6.82-9.533 4.547-17.6 10.487-24.2 17.82-6.6 7.333-11.623 15.657-15.07 24.97-3.447 9.313-5.17 18.737-5.17 28.27zm202.62-77l-59.62 156.2h31.24l14.3-38.94h54.56l14.52 38.94h31.24l-59.4-156.2h-26.84zm103.4 156.2h30.36v-52.36h29.92l31.9 52.36h34.1l-35.64-58.74c8.653-3.667 15.51-9.643 20.57-17.93 5.06-8.287 7.59-17.49 7.59-27.61 0-6.307-1.247-12.577-3.74-18.81-2.493-6.233-5.94-11.807-10.34-16.72-4.4-4.913-9.643-8.873-15.73-11.88-6.087-3.007-12.723-4.51-19.91-4.51h-69.08v156.2zm254.76-26.62h-78.1v-40.7h65.78v-24.64h-65.78V312.5h76.12v-26.62h-106.48v156.2h108.46v-26.62z"/><path d="M809.1 381.8l-21.56-61.38-22.44 61.38zm98.78-18.7h38.06c2.787 0 5.39-.66 7.81-1.98 2.42-1.32 4.51-3.117 6.27-5.39 1.76-2.273 3.153-4.95 4.18-8.03 1.027-3.08 1.54-6.38 1.54-9.9 0-3.667-.587-7.04-1.76-10.12-1.173-3.08-2.75-5.757-4.73-8.03-1.98-2.273-4.253-4.033-6.82-5.28-2.567-1.247-5.17-1.87-7.81-1.87h-36.74v50.6z"/></g></svg>