<svg width="206" height="135" viewBox="0 0 206 135" xmlns="http://www.w3.org/2000/svg" xmlns:xlink="http://www.w3.org/1999/xlink"><title>Caja 5 kilos</title><defs><path id="a" d="M170.074 78.82V.157H.16V78.82z"/></defs><g fill="none" fill-rule="evenodd"><path fill="#CCBA15" d="M43.73 129.437l5.25 4.088 145.183-29.642v-7.627z"/><path fill="#EAE406" d="M.88 18.244l2.214 38.442 37.615 73.842-4.544-47.416z"/><path fill="#F9F44E" d="M137.524 1.177L.88 18.244l35.286 64.868 168.133-29.46z"/><path fill="#E2D100" d="M204.298 53.651l-4.253 45.323L40.71 130.528l-4.544-47.416z"/><path fill="#CCBA15" d="M5.63 26.976l5.676-1.577 5.614 10.418-5.646 1.537zm26.003-5.306s0-2.427 6.441-2.96c6.441-.532 8.214 1.658 7.978 2.428-.237.77-2.66 2.308-6.618 2.367-3.96.06-7.505-.65-7.8-1.835m79.79-10.179s-.52-2.435 5.99-2.783c6.512-.348 7.423 2.174 7.38 2.783-.044.61-2.344 2.261-6.685 2.174-4.34-.087-6.468-1.304-6.685-2.174"/><path fill="#93820A" d="M142.852 8.36l3.64-.135 10.412 8.182-3.852.346zm29.618 24.293l4.576-.417 13.4 10.53-4.719.448z"/><path d="M149.98 47.289c0-1.174 2.353-2.678 8.01-2.67 4.273 0 8.054 1.941 8.054 3.749 0 1.263-1.539 3.594-7.829 3.095-6.29-.498-8.25-2.538-8.235-4.174M60.757 78.803l.65 13.287s.08 3.638 3.388 3.086C68.104 94.623 118.84 84.6 118.84 84.6s1.891-.395 1.97-3c.079-2.604-.579-13.22-.579-13.22L60.757 78.804zm-46.662-17.39s-1.442-2.927-1.418-.689c-.043 1.937-.3 5.336 2.578 11.705 2.878 6.369 5.54 11.232 5.54 11.232s.947 1.592 1.076.129c.129-1.463.129-6.972-2.406-12.007-2.534-5.034-5.37-10.37-5.37-10.37m45.285 2.31s-1.238-3.221 5.653-4.403c6.892-1.182 10.144 1.533 10.454 3.472.31 1.94-4.878 4.111-7.511 4.189-2.633.077-7.744-.543-8.596-3.258m-37.57-7.002l5.788-1.131 7.02 12.792-5.777 1.267z" fill="#CCBA15"/><path d="M3.984 56.417l35.402 69.5-4.079-42.568L2.009 22.135l1.975 34.282zm36.736 74.974a.891.891 0 0 1-.793-.487L2.312 57.061a.892.892 0 0 1-.096-.354L.002 18.266a.892.892 0 0 1 1.671-.479l35.286 64.869a.887.887 0 0 1 .104.341l4.544 47.416a.892.892 0 0 1-.887.978z" fill="#93820A"/><path d="M2.299 18.938l34.354 63.155 165.533-29.006L137.278 2.08 2.298 18.938zm33.877 65.037a.891.891 0 0 1-.782-.465L.109 18.64a.894.894 0 0 1 .671-1.31L137.425.262a.888.888 0 0 1 .66.184l66.774 52.473a.894.894 0 0 1-.396 1.581L36.33 83.962a.899.899 0 0 1-.154.013z" fill="#93820A"/><g transform="translate(35.126 52.571)"><mask id="b" fill="#fff"><use xlink:href="#a"/></mask><path d="M2.016 31.248L6.387 76.86l157.72-31.234 4.08-43.496L2.017 31.248zM5.595 78.82a.89.89 0 0 1-.887-.808L.164 30.596a.892.892 0 0 1 .733-.964L169.03.171a.893.893 0 0 1 1.04.963l-4.252 45.322a.892.892 0 0 1-.714.792L5.767 78.802a.88.88 0 0 1-.172.018z" fill="#93820A" mask="url(#b)"/></g><path d="M6.96 27.506l4.772 8.773 3.882-1.057-4.743-8.802-3.911 1.086zm4.326 10.711a.89.89 0 0 1-.782-.465L4.859 27.373a.894.894 0 0 1 .544-1.287l5.677-1.576a.89.89 0 0 1 1.022.436l5.613 10.418a.895.895 0 0 1-.55 1.285l-5.645 1.537a.89.89 0 0 1-.234.031zm21.32-16.711c.562.45 2.885 1.138 6.826 1.077 3.346-.05 5.27-1.207 5.714-1.673-.316-.462-2.052-1.748-6.987-1.34-3.887.322-5.24 1.371-5.553 1.936zm6.475 2.865c-1.915 0-7.721-.194-8.3-2.514a.884.884 0 0 1-.027-.216c0-.172.054-1.07 1.125-1.966 1.212-1.013 3.276-1.647 6.134-1.884 5.855-.483 7.878 1.198 8.476 1.944.427.531.582 1.127.426 1.635-.533 1.735-4.286 2.95-7.456 2.998-.099.001-.226.003-.378.003zm73.232-13.111c.255.405 1.972 1.406 5.825 1.483 3.52.07 5.302-1.033 5.737-1.438-.196-.458-1.25-2.01-6.401-1.735-3.686.197-4.732 1.068-5.011 1.433a1.433 1.433 0 0 0-.15.258zm6.139 3.271c-.115 0-.231 0-.35-.003-4.163-.083-7.119-1.202-7.53-2.85a.611.611 0 0 1-.007-.03c-.031-.143-.152-.9.482-1.73.948-1.24 3.078-1.957 6.332-2.13 4.47-.24 6.517.843 7.449 1.794.69.704.9 1.465.866 1.943-.076 1.06-1.613 1.826-2.27 2.106-.98.417-2.623.9-4.972.9zm26.793-5.396l8.103 6.667 1.249-.113-8.386-6.59-.966.036zm7.819 8.48a.89.89 0 0 1-.565-.202L142.298 9.02a.893.893 0 0 1 .532-1.58l3.641-.137a.897.897 0 0 1 .583.19l10.412 8.182a.893.893 0 0 1-.47 1.591l-3.853.346a.827.827 0 0 1-.079.003zm21.711 15.695l11.237 8.952 2.14-.204-11.366-8.931-2.011.183zm10.964 10.766a.891.891 0 0 1-.555-.194l-13.258-10.56a.893.893 0 0 1 .474-1.588l4.577-.417a.893.893 0 0 1 .63.187l13.4 10.53a.893.893 0 0 1-.466 1.59l-4.718.448a.926.926 0 0 1-.084.004zm-27.781 1.406c-5.318 0-7.057 1.384-7.075 1.778v.008c-.01.997 1.54 2.81 7.415 3.276 4.042.32 5.688-.597 6.31-1.173.516-.478.556-.911.556-1.033 0-.978-3.025-2.856-7.163-2.856h-.043zm1.905 6.912c-.528 0-1.095-.023-1.706-.07-3.006-.24-5.32-.84-6.875-1.789-1.91-1.164-2.187-2.553-2.18-3.28 0-.378.124-.949.708-1.532 1.311-1.313 4.22-2.032 8.192-2.026 4.764 0 8.944 2.169 8.944 4.641 0 .826-.411 1.68-1.129 2.344-.881.816-2.611 1.712-5.954 1.712zM61.697 79.516l.612 12.5c.012.387.178 1.449.803 1.963.371.305.878.399 1.548.287 3.235-.54 52.803-10.33 54.001-10.567.156-.042 1.217-.389 1.27-2.154.063-2.069-.357-9.445-.517-12.142L61.697 79.516zm2.465 16.578c-1.047 0-1.756-.383-2.192-.745-1.357-1.127-1.437-3.054-1.442-3.27l-.65-13.262a.892.892 0 0 1 .737-.923l59.474-10.421a.89.89 0 0 1 1.043.824c.027.435.66 10.687.58 13.302-.08 2.616-1.787 3.66-2.678 3.845-2.082.412-50.797 10.034-54.081 10.582a4.776 4.776 0 0 1-.79.068zM13.557 62.25c.026 1.997.369 5.018 2.521 9.781a191.419 191.419 0 0 0 4.948 10.12c-.04-2.124-.405-6.141-2.345-9.995a609.3 609.3 0 0 0-5.124-9.907m8.008 23.023c-.67 0-1.191-.625-1.524-1.184a186.046 186.046 0 0 1-5.586-11.32c-2.814-6.227-2.72-9.706-2.664-11.785l.007-.295c-.004-.385-.003-1.483.903-1.7.956-.23 1.648.873 2.199 1.988.151.286 2.92 5.504 5.372 10.376 2.422 4.811 2.693 10.271 2.498 12.486-.088 1-.569 1.317-.956 1.405-.085.02-.169.03-.25.03m46.678-25.381c-.89 0-1.9.081-3.047.278-3.353.575-4.43 1.614-4.773 2.183-.34.562-.197 1.02-.191 1.04.014.032 0 0 .01.032.615 1.956 4.885 2.716 7.72 2.634 1.888-.056 5.34-1.36 6.422-2.668.165-.2.253-.382.236-.488-.087-.544-.555-1.168-1.252-1.668-.784-.562-2.37-1.343-5.125-1.343m-.726 7.958c-3.091 0-7.989-.802-8.968-3.873-.08-.232-.375-1.273.3-2.463.862-1.519 2.896-2.563 6.047-3.104 5.332-.914 8.246.468 9.509 1.374 1.108.794 1.809 1.802 1.974 2.837.07.441.02 1.13-.623 1.908-1.447 1.752-5.418 3.245-7.741 3.314-.16.005-.326.007-.498.007M23.185 57.334l6.13 11.27 3.96-.868-6.133-11.175-3.957.773zm5.668 13.178a.89.89 0 0 1-.782-.466L21.039 57.12a.893.893 0 0 1 .611-1.303l5.789-1.132a.892.892 0 0 1 .951.446l7.02 12.792a.894.894 0 0 1-.59 1.302l-5.776 1.267a.902.902 0 0 1-.191.02zm20.127 63.905a.89.89 0 0 1-.888-.82l-.37-4.59a.892.892 0 1 1 1.776-.143l.29 3.586 143.484-29.296v-2.52a.892.892 0 1 1 1.781 0v3.249c0 .424-.298.79-.712.874L49.158 134.4a.894.894 0 0 1-.178.017" fill="#93820A"/><path d="M48.98 134.417a.886.886 0 0 1-.626-.257l-3.924-3.885a.893.893 0 0 1-.008-1.262.89.89 0 0 1 1.26-.008l3.925 3.885a.893.893 0 0 1-.627 1.527" fill="#93820A"/></g></svg>