<svg width="188" height="122" viewBox="0 0 188 122" xmlns="http://www.w3.org/2000/svg" xmlns:xlink="http://www.w3.org/1999/xlink"><title>Tomate 25</title><defs><path id="a" d="M.03 90.642H28.9V.024H.031v90.618z"/><path id="c" d="M77.113 31.077V.01H.142v31.068h76.97z"/><path id="e" d="M52.31 111.602V.174H.078v111.428H52.31z"/></defs><g fill="none" fill-rule="evenodd"><path fill="#CCBA15" d="M16.756 14.514l12.569-2.424L78.48 3.654l94.215 6.111-42.542 22.685L12.688 17.233z"/><path fill="#EAE406" d="M111.57 31.743l27.104 3.658-2.365 85.673-6.7-1.468-.312-1.568-11.926-4.112-1.004 1.343-5.275-1.26z"/><path d="M187.256 10.933l-8.152 4.105-.301-2.53-5.21 2.759.376 2.358-13.294 6.695-.442-2.718-6.88 3.442.361 2.782-15.04 7.575-27.103-3.658 9.657-8.164s9.515 1.952 15.252-.638l5.737-2.59 22.356-9.72s1.571-1.625-2.186-2.873l3.236-2.138 21.633 5.313zM26.665 90.546l-9.37-70.435 11.625-6.47-12.334-.192L.643 17.63l9.817 68.9 4.063 1.486-.035-1.18 7.764 1.495.402 1.233z" fill="#EAE406"/><path fill="#F9F44E" d="M17.58 22.252l93.975 12.181-.452 77.692L28.06 88.832l-1.396 1.714z"/><path fill="#EAE406" d="M27.05 14.681l92.537 10.285-8.016 6.777-.016 2.69L17.58 22.252l-.285-2.141z"/><path fill="#F9F44E" d="M25.455 13.587l-8.869-.138L73.452 2.33 87.545.827l.266 2.5-1.713.087z"/><path d="M164.573 10.632L77.13 4.918l8.968-1.504 78.28 5.376s.893.562.195 1.842" fill="#EAE406"/><path fill="#E2D100" d="M136.31 121.074l16.28-16.546-.351-3.308 5.255-5.869.34 3.195L171.967 84l-.304-2.853 3.703-4.202.292 2.738 8.457-8.287 3.14-60.463-8.151 4.106-.301-2.531-5.21 2.759.376 2.358-13.294 6.695-.442-2.718-6.88 3.442.361 2.782-15.04 7.575z"/><path d="M94.827 60.186s-.218-4.067-4.639-5.174c-4.42-1.108-4.157 3.385-4.17 4.607-.014 1.221.812 22.447.812 22.447s.423 3.973 4.082 4.66c3.659.686 4.719-2.154 4.719-2.154l-.804-24.386zM36.718 49.587l2.115 21.921s.405 3.804 3.883 3.982c3.479.179 2.98-2.955 2.98-2.955l-1.672-22.408s-.828-3.648-4.138-3.79c-3.31-.142-3.168 3.25-3.168 3.25m125.362-5.379s-2.345 3.413-1.856 7.157c.489 3.744 3.403.762 3.403.762l6.98-5.032s2.428-1.595 2.185-5.857c-.243-4.262-1.27-4.012-2.676-3.37-1.407.642-7.333 5.091-8.035 6.34" fill="#CCBA15"/><path fill="#F9F44E" d="M17.296 20.11L.643 17.632l15.943-4.182 12.334.192z"/><g transform="translate(110.418 31.075)"><mask id="b" fill="#fff"><use xlink:href="#a"/></mask><path d="M19.74 87.992l5.53 1.212 2.327-84.318L1.791 1.403 1.32 82.426l4.367 1.044.751-1.005a.643.643 0 0 1 .724-.223l11.926 4.113a.643.643 0 0 1 .421.482l.23 1.155zm6.151 2.65a.646.646 0 0 1-.138-.015l-6.7-1.468a.643.643 0 0 1-.493-.503l-.24-1.205-11.133-3.84-.723.968a.643.643 0 0 1-.665.24L.524 83.56a.643.643 0 0 1-.493-.63L.509.664A.644.644 0 0 1 1.24.03l27.103 3.658a.643.643 0 0 1 .557.656l-2.365 85.673a.644.644 0 0 1-.643.625z" fill="#93820A" mask="url(#b)"/></g><g transform="translate(110.786 4.967)"><mask id="d" fill="#fff"><use xlink:href="#c"/></mask><path d="M2.307 26.332l25.47 3.437 14.455-7.28-.303-2.33a.643.643 0 0 1 .35-.658l6.88-3.442a.643.643 0 0 1 .923.472l.301 1.853 12.09-6.09-.301-1.893a.643.643 0 0 1 .334-.67l5.21-2.76a.642.642 0 0 1 .94.493l.192 1.62 5.776-2.91-19.667-4.83-1.98 1.309c.989.49 1.557 1.076 1.73 1.775.23.939-.386 1.61-.457 1.684a.646.646 0 0 1-.206.143l-22.357 9.72-5.728 2.586c-5.34 2.41-13.61 1.06-15.337.74l-8.315 7.03zm25.582 4.745a.643.643 0 0 1-.086-.006L.699 27.413a.643.643 0 0 1-.329-1.129l9.657-8.164a.643.643 0 0 1 .544-.139c.093.02 9.38 1.88 14.859-.593l5.737-2.59L53.379 5.14a.542.542 0 0 0 .076-.414c-.056-.211-.37-.764-2.056-1.325a.643.643 0 0 1-.152-1.147L54.483.115a.642.642 0 0 1 .508-.088l21.632 5.314a.643.643 0 0 1 .136 1.2l-8.152 4.105a.643.643 0 0 1-.927-.499l-.19-1.6-3.976 2.106.304 1.903a.644.644 0 0 1-.346.676l-13.293 6.696a.643.643 0 0 1-.924-.472l-.302-1.854-5.69 2.846.303 2.328a.644.644 0 0 1-.349.658l-15.04 7.575a.642.642 0 0 1-.288.068z" fill="#93820A" mask="url(#d)"/></g><path d="M162.08 44.208h.003-.002zm.531.364c-.025.037-2.2 3.268-1.75 6.71.096.731.308 1.22.568 1.307.417.139 1.277-.44 1.738-.912a.655.655 0 0 1 .084-.072l6.98-5.032a.872.872 0 0 1 .023-.016c.082-.057 2.113-1.482 1.896-5.282-.142-2.492-.542-2.993-.708-3.093-.2-.12-.78.144-1.06.272-1.422.65-7.172 5.058-7.74 6.07a.686.686 0 0 1-.03.048zm-1.054 9.323a1.68 1.68 0 0 1-.535-.085c-.782-.262-1.265-1.056-1.436-2.362-.5-3.825 1.725-7.248 1.95-7.583.867-1.464 6.91-5.942 8.313-6.582.588-.269 1.477-.674 2.258-.203.804.485 1.188 1.68 1.327 4.121.254 4.45-2.216 6.255-2.46 6.421l-6.93 4.996c-.259.257-1.363 1.277-2.487 1.277zM87.472 82.016c.038.3.51 3.505 3.559 4.077 2.715.51 3.733-1.192 3.952-1.645l-.799-24.23c-.014-.218-.308-3.62-4.152-4.582-1.054-.264-1.856-.189-2.382.223-.992.776-.99 2.636-.989 3.529v.238c-.013 1.173.778 21.55.81 22.39m4.52 5.458a6.49 6.49 0 0 1-1.197-.116c-3.266-.612-4.44-3.685-4.603-5.224a.854.854 0 0 1-.003-.043c-.034-.868-.827-21.256-.813-22.48v-.221c-.001-1.098-.004-3.382 1.483-4.545.855-.669 2.028-.823 3.487-.458 4.825 1.21 5.122 5.72 5.124 5.765v.013l.804 24.386a.643.643 0 0 1-.04.246c-.376 1.01-1.711 2.677-4.242 2.677M37.36 49.55l2.113 21.896c.014.125.399 3.254 3.276 3.402.879.045 1.514-.143 1.888-.56.568-.631.426-1.642.424-1.652a.747.747 0 0 1-.006-.053l-1.668-22.354c-.1-.389-.9-3.137-3.528-3.249-.774-.033-1.372.157-1.783.564-.707.701-.717 1.864-.716 2.005m5.637 26.592a6.1 6.1 0 0 1-.314-.008c-3.185-.163-4.33-3.052-4.49-4.557L36.078 49.65a.751.751 0 0 1-.002-.035c-.004-.074-.063-1.827 1.086-2.975.676-.676 1.602-.993 2.752-.945 1.567.067 2.886.84 3.817 2.234a6.812 6.812 0 0 1 .92 2.057.61.61 0 0 1 .014.094l1.671 22.387c.032.24.174 1.662-.742 2.683-.592.659-1.465.992-2.597.992M23.154 89.025l2.75.672-9.246-69.501a.643.643 0 0 1 .325-.648l9.525-5.301-9.844-.153-15.303 4.014 9.681 67.95 2.81 1.028-.007-.232a.644.644 0 0 1 .765-.65l7.764 1.495c.23.045.417.21.49.433l.29.893zm3.51 2.165a.644.644 0 0 1-.152-.019l-4.011-.981a.644.644 0 0 1-.459-.426l-.284-.873-6.603-1.272.01.378a.643.643 0 0 1-.863.624l-4.063-1.487a.643.643 0 0 1-.416-.513L.007 17.722a.644.644 0 0 1 .473-.713l15.943-4.183a.657.657 0 0 1 .173-.02l12.334.191a.643.643 0 0 1 .302 1.206L17.991 20.46l9.311 70.001a.644.644 0 0 1-.637.729z" fill="#93820A"/><path d="M28.061 88.188a.64.64 0 0 1 .174.024l82.23 23.066.444-76.28-92.58-12 8.777 65.988.457-.561a.643.643 0 0 1 .498-.237m83.042 24.581a.644.644 0 0 1-.174-.024l-82.636-23.18-1.13 1.388a.643.643 0 0 1-1.136-.322l-9.084-68.294a.644.644 0 0 1 .72-.723l93.975 12.18a.643.643 0 0 1 .56.643l-.452 77.692a.644.644 0 0 1-.643.64" fill="#93820A"/><path d="M18.153 21.677l92.763 12.024.012-1.962a.644.644 0 0 1 .228-.488l6.873-5.81-90.845-10.098-9.193 5.117.162 1.217zm93.402 13.4a.623.623 0 0 1-.082-.006l-93.975-12.18a.643.643 0 0 1-.555-.554l-.285-2.141a.644.644 0 0 1 .325-.648l9.755-5.43a.641.641 0 0 1 .384-.077l92.536 10.286a.643.643 0 0 1 .344 1.13l-7.79 6.586-.014 2.394a.644.644 0 0 1-.643.64zM22.741 12.901l2.666.041L85.992 2.78a.655.655 0 0 1 .073-.008l1.034-.053-.126-1.183-13.425 1.432-50.807 9.934zm2.714 1.33h-.01l-8.869-.139a.643.643 0 0 1-.113-1.275L73.329 1.698a.686.686 0 0 1 .055-.008L87.477.188a.642.642 0 0 1 .707.571l.266 2.5a.644.644 0 0 1-.607.71l-1.675.085-60.606 10.167a.644.644 0 0 1-.107.01z" fill="#93820A"/><path d="M82.696 4.637L164.16 9.96c.075-.276.016-.446-.053-.543L86.13 4.06l-3.434.576zm81.877 6.638l-.042-.001L77.088 5.56a.644.644 0 0 1-.064-1.276l8.968-1.505c.05-.008.1-.01.15-.007l78.28 5.376c.105.007.207.04.297.097.487.306 1.2 1.262.419 2.695a.643.643 0 0 1-.565.335z" fill="#93820A"/><g transform="translate(135.589 10.115)"><mask id="f" fill="#fff"><use xlink:href="#e"/></mask><path d="M3.718 25.688l-2.31 83.655 14.923-15.165-.32-3.006a.644.644 0 0 1 .16-.497l5.256-5.869a.643.643 0 0 1 1.118.362l.195 1.83 12.967-13.346-.272-2.552a.644.644 0 0 1 .157-.493l3.704-4.203a.643.643 0 0 1 1.121.357l.151 1.417 7.33-7.181 3.07-59.107-7.164 3.608a.643.643 0 0 1-.927-.499l-.19-1.6-3.975 2.105.303 1.904a.644.644 0 0 1-.346.676L25.376 14.78a.643.643 0 0 1-.924-.472l-.302-1.854-5.69 2.846.303 2.328a.643.643 0 0 1-.348.658L3.718 25.688zM.72 111.602a.64.64 0 0 1-.643-.661l2.365-85.673a.643.643 0 0 1 .354-.557l14.632-7.37-.302-2.33a.644.644 0 0 1 .35-.658l6.88-3.442a.643.643 0 0 1 .922.472l.302 1.853 12.09-6.09-.302-1.893a.643.643 0 0 1 .334-.67l5.21-2.76a.643.643 0 0 1 .94.493l.192 1.62L51.378.243a.643.643 0 0 1 .931.608l-3.14 60.463a.643.643 0 0 1-.192.427l-8.458 8.286a.643.643 0 0 1-1.09-.391l-.136-1.284-2.55 2.894.275 2.57c.02.19-.046.38-.179.517L22.707 88.88a.642.642 0 0 1-1.1-.38l-.188-1.756-4.1 4.578.323 3.024a.643.643 0 0 1-.182.52L1.18 111.41a.642.642 0 0 1-.458.192z" fill="#93820A" mask="url(#f)"/></g></g></svg>