<svg width="197" height="120" viewBox="0 0 197 120" xmlns="http://www.w3.org/2000/svg" xmlns:xlink="http://www.w3.org/1999/xlink"><title>Caja exhibidora</title><defs><path id="a" d="M163.094 104.321V.194H.035V104.32z"/></defs><g fill="none" fill-rule="evenodd"><path fill="#EAE406" d="M37.883 51.397l-2.315.236 1.054-.107-3.116.318-4.425.45-.646-2.803-10.372.869-.123 3.07-.998.102L1.976 55.06l12.932-1.32L.537 55.206l9.852 63.434 15.546-1.339.165-2.313 10.394-.62.16 2.01 6.548-.563z"/><path fill="#446B18" d="M160.492 44.166l2.848-.306z"/><path d="M37.403 46.289l-13.105-3.842-.158-29.094 9.689-3.526.066-.814-6.338.522-.223-2.049-7.677.522-.115 2.186-12.63 1.04-.993 6.847s3.768-.403 3.299.745c-.47 1.148-3.673 1.832-3.673 1.832L2.88 39.043s4.65-.471 4.18.934c-.47 1.406-4.639 2.23-4.639 2.23L.537 55.205l14.371-1.465 3.031-.31.124-3.07 10.372-.869.645 2.804 6.488-.662 2.315-.236-.48-5.108zm134.665-6.758l9.036-.594.107 2.942 14.611-1.296-12.57-11.288s-3.114.347-4.191-.83c-1.077-1.175 1.46-1.623 1.46-1.623l-17.68-15.878s-3.462.298-3.959-.788c-.496-1.085 2.031-.943 2.031-.943l-7.183-6.451-10.824.518-.173-1.937-6.841.167-.424 2.125-5.664.271 13.034 3.802 24.837 25.477-6.148 5.833 1.852 4.42 8.266-.779.423-3.148z" fill="#F9F44E"/><path fill="#446B18" d="M163.34 43.86l-5.686 59.946 5.725-60.348z"/><path fill="#EAE406" d="M181.21 41.88l-.106-2.943-9.036.594-.423 3.148-8.266.779-5.725 60.348 5.725-.732.411-2.397 9.069-.995.151 2.16 12.569-1.607 10.243-59.652z"/><path d="M167.675 33.206L142.838 7.728l-13.034-3.802V5.15l-2.526.16-1.182-4.56-13.025.626-1.333 4.92L53.574 9.98l-1.778-5.226-13.887.66-.646 5.6-3.072.194-.362-1.381-9.69 3.525.159 29.096 13.105 3.84.613 6.714 3.29-.24 1.379-7.22 18.698-1.238 1.562 6.88 2.528 11.14s5.47-.492 6.257 3.603c.684 3.621-4.123 5.795-4.123 5.795l2.09 9.211 63.777-4.981 2.377-9.752s-3.456-.536-3.459-4.134c.05-3.91 5.713-5.11 5.713-5.11l2.793-11.459 1.672-6.858 17.314-1.172.608 6.601 2.848-.208.039-.402-1.852-4.42 6.148-5.832z" fill="#CCBA15"/><path d="M159.884 37.467l-17.314 1.172-1.672 6.858-2.793 11.46s-5.663 1.198-5.713 5.109c.003 3.598 3.46 4.134 3.46 4.134l-2.379 9.752-63.776 4.982-2.09-9.212s4.807-2.174 4.123-5.795c-.787-4.095-6.257-3.604-6.257-3.604l-2.528-11.14-1.562-6.879-18.699 1.239-1.378 7.22-3.29.24 5.04 61.051 3.649-.4 1.341-2.983 16.54-1.72 1.83 2.7 68.783-6.99 2.073-3.066 15.227-1.36 1.232 2.542 4.058-.394 5.551-58.523-2.848.208-.608-6.601z" fill="#E2D100"/><path d="M1.975 55.594a.536.536 0 0 1-.053-1.068l15.5-1.581.105-2.607c.01-.27.221-.49.491-.512l10.372-.869a.537.537 0 0 1 .568.414l.54 2.343 7.07-.721a.536.536 0 0 1 .109 1.066l-7.542.769a.538.538 0 0 1-.577-.413l-.541-2.351-9.437.79-.104 2.598a.536.536 0 0 1-.482.512L2.031 55.59a.531.531 0 0 1-.056.003" fill="#93820A"/><path d="M.537 55.741a.536.536 0 0 1-.532-.613L1.89 42.13a.536.536 0 0 1 .427-.449c1.556-.308 3.975-1.115 4.233-1.87-.302-.288-1.99-.4-3.616-.235a.538.538 0 0 1-.585-.61l2.666-18.385a.535.535 0 0 1 .418-.447c1.126-.241 2.872-.849 3.244-1.427-.382-.166-1.583-.213-2.7-.094a.538.538 0 0 1-.589-.61l.993-6.846a.536.536 0 0 1 .487-.457L33.85 8.479a.538.538 0 0 1 .58.577l-.067.814a.536.536 0 0 1-.351.46l-9.335 3.397.154 28.319 12.722 3.729c.21.061.362.245.383.464l.48 5.108a.536.536 0 0 1-1.068.1l-.446-4.747-12.756-3.738a.536.536 0 0 1-.386-.512l-.158-29.095a.536.536 0 0 1 .353-.506l8.81-3.206-25.384 2.09-.835 5.757c1.14-.07 2.59-.019 3.068.616.2.264.235.592.1.922-.473 1.155-2.708 1.826-3.691 2.069L3.507 38.454c1.297-.083 3.278-.067 3.901.71.223.278.28.626.16.982-.477 1.431-3.465 2.237-4.67 2.507l-1.83 12.629a.536.536 0 0 1-.53.46" fill="#93820A"/><path d="M10.389 119.175a.536.536 0 0 1-.53-.454L.007 55.287a.536.536 0 1 1 1.06-.164l9.776 62.94 14.59-1.257.132-1.858a.536.536 0 0 1 .504-.496l10.393-.62a.535.535 0 0 1 .567.492l.118 1.473 5.477-.471-5.275-63.885a.536.536 0 0 1 1.07-.088l5.318 64.417a.536.536 0 0 1-.489.577l-6.547.564a.535.535 0 0 1-.581-.491l-.12-1.487-9.399.56-.132 1.846a.536.536 0 0 1-.49.495l-15.545 1.339a.568.568 0 0 1-.046.002" fill="#93820A"/><path d="M43.054 114.562a.536.536 0 0 1-.054-1.07l3.342-.339 1.215-2.701a.537.537 0 0 1 .434-.314l16.54-1.72a.535.535 0 0 1 .5.233l1.65 2.435 68.214-6.933 1.932-2.858a.537.537 0 0 1 .397-.234l15.228-1.36c.222-.02.433.1.53.3l1.069 2.205 3.188-.324a.536.536 0 1 1 .108 1.066l-3.561.362a.54.54 0 0 1-.538-.3l-1.07-2.209-14.604 1.305-1.93 2.855a.537.537 0 0 1-.39.233l-68.783 6.99a.539.539 0 0 1-.499-.232l-1.65-2.435-15.912 1.655-1.216 2.702a.536.536 0 0 1-.435.314l-3.65.37a.53.53 0 0 1-.055.004M69.697 81.47a.536.536 0 0 1-.523-.418l-2.09-9.212a.536.536 0 0 1 .301-.606c.044-.02 4.415-2.047 3.818-5.208-.687-3.576-5.632-3.173-5.682-3.17a.535.535 0 0 1-.571-.414l-3.99-17.573-17.827 1.18-1.3 6.814a.536.536 0 0 1-.488.434l-3.291.24a.536.536 0 0 1-.078-1.069l2.88-.21 1.3-6.816a.536.536 0 0 1 .492-.434l18.698-1.239a.539.539 0 0 1 .56.417l3.99 17.577c2.153-.058 5.715.706 6.36 4.063.317 1.677-.366 3.32-1.975 4.756a10.997 10.997 0 0 1-2.06 1.43l1.896 8.351 62.926-4.915 2.158-8.85c-1.395-.427-3.344-1.731-3.346-4.532.022-1.809 1.112-3.36 3.15-4.49a12.125 12.125 0 0 1 2.654-1.062l4.389-18.002a.537.537 0 0 1 .485-.408l17.314-1.172c.29-.02.543.196.57.486l.56 6.078 2.361-.173a.536.536 0 1 1 .079 1.069l-2.887.21a.536.536 0 0 1-.573-.485l-.56-6.08-16.4 1.11-4.372 17.936a.536.536 0 0 1-.41.398c-.052.01-5.244 1.159-5.287 4.592.002 3.075 2.883 3.578 3.006 3.598a.54.54 0 0 1 .437.656l-2.377 9.752a.536.536 0 0 1-.48.407L69.74 81.468a.468.468 0 0 1-.042.001" fill="#93820A"/><g transform="translate(33.264 .02)"><mask id="b" fill="#fff"><use xlink:href="#a"/></mask><path d="M128.9 39.151l1.71 4.08c.033.08.047.17.038.257l-5.661 59.68 4.666-.596.344-2.006a.536.536 0 0 1 .47-.442l9.069-.995a.538.538 0 0 1 .594.495l.112 1.594 11.61-1.485 10.127-58.97-12.175-10.934c-.832.066-3.329.151-4.403-1.022-.468-.51-.45-.961-.352-1.25.163-.478.651-.789 1.13-.984l-16.79-15.079c-1.098.074-3.698.111-4.259-1.116-.225-.493-.064-.852.053-1.022.233-.34.68-.518 1.148-.607l-6.06-5.443-20.508.982 9.96 2.905a.54.54 0 0 1 .235.14l24.837 25.478a.536.536 0 0 1-.015.762l-5.88 5.578zm-4.51 65.17a.537.537 0 0 1-.535-.586l5.712-60.215-1.8-4.296a.535.535 0 0 1 .126-.595l5.754-5.459-24.36-24.988-12.21-3.562v.509c0 .283-.22.517-.503.535l-2.526.16a.537.537 0 0 1-.553-.4l-1.073-4.139-12.2.586-1.23 4.542a.536.536 0 0 1-.484.395l-58.164 3.686a.536.536 0 0 1-.542-.363l-1.648-4.844-13.029.62-.594 5.147a.536.536 0 0 1-.499.473l-3.071.195a.536.536 0 0 1-.556-.41L.05 9.842a.536.536 0 0 1 1.043-.251l.25 1.033 2.174-.138.595-5.154a.536.536 0 0 1 .507-.474l13.887-.66a.537.537 0 0 1 .534.363l1.646 4.837 57.37-3.635 1.233-4.549A.537.537 0 0 1 79.78.82L92.807.194a.536.536 0 0 1 .545.4l1.07 4.132 1.581-.1v-.719c0-.136.05-.26.135-.356V3.55l.002-.002h.001v-.002h.002v-.002l.002-.001v-.001h.001V3.54a.535.535 0 0 1 .368-.17l23.926-1.145c.14-.008.28.042.384.136l7.184 6.452a.535.535 0 0 1-.389.933c-.61-.034-1.302.055-1.513.186.178.387 1.81.614 3.425.476a.534.534 0 0 1 .404.135l17.681 15.879a.535.535 0 0 1-.265.926c-.626.112-1.229.397-1.285.552.002 0 .017.063.126.182.73.796 2.999.74 3.737.658a.535.535 0 0 1 .418.134l12.57 11.288a.535.535 0 0 1 .17.49l-10.244 59.652a.537.537 0 0 1-.46.44l-12.569 1.608a.54.54 0 0 1-.603-.494l-.113-1.604-8.112.89-.343 1.999a.536.536 0 0 1-.46.44l-5.725.733a.561.561 0 0 1-.068.004z" fill="#93820A" mask="url(#b)"/></g><path d="M135.469 4.191a.536.536 0 0 1-.527-.64l.424-2.126a.536.536 0 0 1 .513-.43l6.841-.168a.528.528 0 0 1 .548.488l.173 1.937a.536.536 0 0 1-1.069.095l-.128-1.436-5.91.144-.34 1.705a.536.536 0 0 1-.525.431M19.543 10.73h-.029a.536.536 0 0 1-.508-.564l.115-2.186a.536.536 0 0 1 .5-.506l7.676-.523a.536.536 0 0 1 .57.477l.224 2.048a.536.536 0 0 1-1.067.117l-.168-1.537-6.688.454-.09 1.712a.536.536 0 0 1-.535.508m145.312 33.124a.536.536 0 0 1-.025-1.07c.174-.011 3.98-.28 6.319-.444l.387-2.88a.536.536 0 0 1 .497-.463l9.035-.595a.54.54 0 0 1 .572.516l.096 2.672 12.493-.885a.537.537 0 0 1 .076 1.069l-13.047.925a.536.536 0 0 1-.574-.516l-.097-2.675-8.046.529-.387 2.878a.536.536 0 0 1-.494.463c-6.752.476-6.78.476-6.805.476" fill="#93820A"/></g></svg>