<svg width="174" height="125" viewBox="0 0 174 125" xmlns="http://www.w3.org/2000/svg" xmlns:xlink="http://www.w3.org/1999/xlink"><title>Europack</title><defs><path id="a" d="M.127 102.833h33.437V.008H.127v102.825z"/></defs><g fill="none" fill-rule="evenodd"><path fill="#CCBA15" d="M163.82 33.787l5.713.93 2.547-8.615-6.039-.98z"/><path d="M5.218 85.547L1.327 41.621 148.77 75.893l-7.702 48.482-21.939-6.27s.561-3.413-2.95-5.316l-28.983-8.164c-3.56.4-3.323 3.403-3.323 3.403l-31.27-8.937s.768-3.334-3.154-4.87l-25.017-6.67c-2.332-.16-2.609 2.742-2.609 2.742L5.218 85.547z" fill="#EAE406"/><path fill="#E2D100" d="M148.77 75.893l24.656-53.265-5.554 35.304-26.804 66.443z"/><path fill="#F9F44E" d="M1.327 41.621L.54 38.767l11.094-8.72 3.184 1.108 8.344-6.482-3.371-1.037L25.18 19.4l136.818 27.917-13.228 28.576zM51.241.693l-7.017 4.285 2.992.609-6.118 3.968-3.187-.722-2.986 1.824v1.854L165.99 38.69l2.044-4.417-3.584-.909 2.963-6.22 3.71.458 2.303-4.975-20.463-3.674s-.343 1.187-2.798.738c-2.456-.449-23.084-4.222-24.984-4.567-1.9-.345-1.651-1.455-1.651-1.455L94.725 8.5s-.686.999-3.452.507C88.508 8.515 70.382 5.27 69.04 4.98c-1.341-.29-1.153-1.298-1.153-1.298L51.24.693z"/><path d="M28.28 20.033s-.476-4.738.77-5.627c1.246-.889 4.54-3.467 4.54-3.467s1.343-1.334 1.334 1.572l-.008 2.905 3.845-2.139L162.178 37.93s1.207-2.956 2.377-2.994c1.17-.038 1.654 3.284 1.436 3.755l-3.993 8.626L28.28 20.033zm-9.203 25.714s1.09-3.982 4.184-3.359c3.094.623 27.704 6.964 27.704 6.964s2.111.125 1.464 4.148c-.646 4.022-3.355 3.562-4.787 3.256-1.431-.306-24.844-6.025-24.844-6.025s-4.63-1.287-3.72-4.984m67.035 15.582s.891-2.99 5.236-2.07c4.345.918 30.263 7.096 30.263 7.096s3.735.787 3.196 3.968c-.538 3.18-2.43 4.764-5.241 4.15-2.812-.612-29.956-7.403-29.956-7.403s-4.491-1.373-3.498-5.741M31.06 31.268l6.165-1.474s2.426-.49 4.033.36c1.606.852 2.36 2.031.492 2.752-1.87.72-7.444 1.67-7.444 1.67s-3.147.622-4.524-.753c-1.377-1.376-.164-2.162 1.278-2.555m29.182 6.747s-2.655.59-1.508 2.162c1.148 1.571 4.099 1.702 6.787 1.31 2.689-.393 6.624-1.643 6.624-1.643s2-1.109-.918-2.648c-2.919-1.54-9.892.566-10.985.819m31.215 6.615s-2.918.754-2.46 2.293c.46 1.54 3.05 2.325 5.247 2.063s7.443-1.277 8.066-1.8c.623-.525 1.607-2.031-.918-3.047-2.525-1.015-4.726-.49-6.197-.327-1.475.164-3.738.819-3.738.819m32.38 7.299c-.882.238-2.194.628-2.023 1.812v.007c.296 2.03 4.034 3.111 8.067 2.456 4.033-.655 7.541-1.277 6.525-3.406-.628-1.315-3.068-1.673-4.295-1.768-1.621-.126-3.081.24-4.695.328-.429.023-2.825.369-3.579.572m-63.899-39.82l4.568-.238s2.687-.269 2.09-1.402-3.463-1.253-4.807-1.193c-1.344.06-6.629-.06-6.688 1.074-.06 1.133 1.734 1.921 4.837 1.76m25.32 5.01s5.196-.298 6.3-.537c.986-.09 2.242-.653 1.107-1.488-1.134-.835-3.332-.958-5.556-.868-2.209.09-6.597.214-5.494 1.82.807 1.172 2.63 1.16 3.643 1.073m28.754 5.398c.777.013 4.849-.474 6.087-.638.525-.069 1.51-.422 1.273-1.152-.273-.839-1.738-1.042-2.472-1.176-2.529-.374-10.65-.154-9.462 1.576l.036.048c1.015 1.283 2.687 1.312 4.538 1.342m26.578 2.414c-.874.25-1.843.726-1.435 1.639.61 1.363 3.921 1.653 6.07 1.392 2.15-.26 5.373-1.015 5.373-1.015s1.86-.58.146-1.77c-1.346-.933-3.227-1.063-4.812-1.022-1.5.038-3 .31-4.472.58a9.01 9.01 0 0 0-.87.196" fill="#CCBA15"/><path d="M86.072 61.858a.542.542 0 0 1-.123-.014l-33.642-7.82a.539.539 0 1 1 .245-1.05l33.642 7.82a.539.539 0 0 1-.122 1.064" fill="#93820A"/><path d="M141.068 124.913c-.05 0-.1-.007-.148-.02l-21.939-6.27a.539.539 0 0 1-.384-.606c.02-.122.435-3.033-2.623-4.726l-28.82-8.118c-2.901.38-2.751 2.712-2.743 2.812a.539.539 0 0 1-.686.56l-31.27-8.937a.539.539 0 0 1-.378-.638c.026-.116.594-2.893-2.797-4.236l-24.934-6.649a1.845 1.845 0 0 0-.087-.002c-1.664 0-1.89 2.167-1.899 2.261a.54.54 0 0 1-.685.467L5.069 86.065a.54.54 0 0 1-.389-.47L.79 41.669a.538.538 0 0 1 .659-.572l17.75 4.125a.539.539 0 1 1-.244 1.05L1.929 42.315 5.722 85.13l15.675 4.48c.298-1.195 1.174-2.727 3.072-2.598a.532.532 0 0 1 .102.017l25.017 6.67a.55.55 0 0 1 .058.02c3.048 1.193 3.665 3.548 3.558 4.982l30.181 8.626c.172-1.06.886-2.916 3.75-3.239a.542.542 0 0 1 .207.017l28.984 8.165c.039.01.076.026.111.045 2.988 1.62 3.275 4.298 3.258 5.39l20.936 5.983 7.527-47.385-23.472-5.456a.539.539 0 1 1 .244-1.05l23.962 5.57c.275.064.455.33.41.61l-7.701 48.48a.539.539 0 0 1-.533.455" fill="#93820A"/><g transform="translate(140.402 22.081)"><mask id="b" fill="#fff"><use xlink:href="#a"/></mask><path d="M8.888 53.97L1.945 97.682l25.002-61.975L31.89 4.279 8.888 53.969zM.666 102.833a.542.542 0 0 1-.533-.624l7.702-48.482a.541.541 0 0 1 .043-.142L32.535.321a.54.54 0 0 1 1.022.31l-5.554 35.304a.539.539 0 0 1-.033.117L1.166 102.495a.54.54 0 0 1-.5.338z" fill="#93820A" mask="url(#b)"/></g><path d="M148.77 76.431a.537.537 0 0 1-.123-.014l-23.961-5.57a.539.539 0 1 1 .244-1.049l23.534 5.47 12.758-27.559L25.317 19.978l-4.384 3.446 2.387.734a.539.539 0 0 1 .173.94l-8.344 6.482a.54.54 0 0 1-.509.084l-2.905-1.011-10.58 8.316.606 2.2L19.2 45.223a.539.539 0 1 1-.244 1.049l-17.75-4.126a.54.54 0 0 1-.399-.382L.02 38.91a.539.539 0 0 1 .187-.567l11.094-8.72a.54.54 0 0 1 .511-.085l2.907 1.012 7.294-5.667-2.38-.732a.54.54 0 0 1-.175-.939l5.39-4.235a.54.54 0 0 1 .44-.105L162.106 46.79a.539.539 0 0 1 .382.754L149.26 76.119a.54.54 0 0 1-.49.312" fill="#93820A"/><path d="M86.113 61.868a.542.542 0 0 1-.122-.014l-33.684-7.83a.539.539 0 1 1 .245-1.05l33.683 7.83a.539.539 0 0 1-.122 1.064M165.99 39.23a.538.538 0 0 1-.49-.765l1.773-3.828-2.954-.75a.539.539 0 0 1-.355-.753l2.963-6.22a.54.54 0 0 1 .553-.304l3.319.41 1.845-3.985-19.417-3.486c-.37.448-1.234 1.025-3.159.673l-3.836-.702c-6.872-1.256-19.663-3.596-21.147-3.865-.886-.161-1.506-.5-1.843-1.01a1.552 1.552 0 0 1-.223-.52L94.898 9.079c-.45.35-1.513.85-3.72.458-2.899-.515-20.892-3.736-22.252-4.03-1.054-.228-1.44-.861-1.55-1.37L51.348 1.26l-5.673 3.465 1.648.335a.54.54 0 0 1 .186.98l-6.118 3.968a.54.54 0 0 1-.413.073l-2.973-.673-2.541 1.552v1.11l126.82 25.33a.539.539 0 1 1-.212 1.057L34.82 13.039a.54.54 0 0 1-.434-.528v-1.854a.54.54 0 0 1 .258-.46l2.987-1.824a.54.54 0 0 1 .4-.065l2.965.671 4.82-3.127-1.699-.346a.54.54 0 0 1-.174-.987L50.96.233a.54.54 0 0 1 .377-.07L67.982 3.15a.529.529 0 0 1 .359.222c.08.124.11.262.076.406-.014.108-.008.513.737.674 1.322.286 19.43 3.527 22.214 4.022 2.158.384 2.839-.212 2.919-.292.113-.193.31-.254.534-.214l28.805 5.171c.152.027.29.098.371.23.079.13.105.266.063.41-.023.222.208.631 1.218.815 1.485.27 14.276 2.609 21.148 3.865l3.837.702c1.476.27 2.069-.116 2.184-.368.06-.284.324-.422.612-.37l20.463 3.674a.539.539 0 0 1 .394.756l-2.303 4.976a.54.54 0 0 1-.556.308l-3.323-.41-2.513 5.276 2.947.748a.54.54 0 0 1 .357.748l-2.045 4.417a.54.54 0 0 1-.49.313z" fill="#93820A"/><path d="M165.501 38.465l-.002.004.002-.004M28.782 19.585l132.905 27.12 3.804-8.218c.077-.367-.157-2.165-.714-2.854-.078-.096-.157-.158-.203-.158h-.002c-.482.015-1.385 1.413-1.895 2.658a.54.54 0 0 1-.605.325L38.85 13.844l-3.67 2.043a.54.54 0 0 1-.802-.472l.008-2.906c.003-.936-.144-1.245-.2-1.329a.76.76 0 0 0-.218.144.561.561 0 0 1-.045.039c-.135.105-3.317 2.596-4.558 3.481-.574.41-.74 2.7-.582 4.741m133.216 28.271a.54.54 0 0 1-.109-.01L28.172 20.56a.539.539 0 0 1-.428-.474c-.085-.844-.435-5.1.993-6.12 1.171-.835 4.221-3.219 4.5-3.437.144-.134.732-.623 1.362-.36.78.326.867 1.493.865 2.342l-.006 1.986 3.04-1.692a.54.54 0 0 1 .368-.057l122.99 24.567c.457-1.01 1.467-2.88 2.681-2.918.323-.01.794.11 1.212.74.663 1 1.013 3.171.731 3.78l-3.993 8.626a.54.54 0 0 1-.49.312" fill="#93820A"/><path d="M160.31 46.423l1.377.281 3.758-8.118c-.059-.988-.278-2.444-.615-2.834-.17-.197-.333-.303-.444-.292-.172.018-.381.276-.456.41-.016.03-.954 1.65-2.334 4.325-1.07 2.07-1.254 5.111-1.285 6.228m1.686 1.433a.54.54 0 0 1-.108-.01l-2.232-.456a.539.539 0 0 1-.431-.521c-.002-.177-.038-4.361 1.411-7.168a114.49 114.49 0 0 1 2.349-4.35c.068-.126.51-.876 1.279-.962.337-.037.852.046 1.381.659.72.832.862 3.16.883 3.618a.536.536 0 0 1-.049.251l-3.993 8.627a.54.54 0 0 1-.49.312M22.935 50.21c.564.137 23.423 5.72 24.82 6.02.998.213 2.032.334 2.84-.218.66-.45 1.097-1.325 1.302-2.598.297-1.852-.028-2.724-.354-3.13-.284-.353-.607-.394-.61-.394a.54.54 0 0 1-.103-.016c-.246-.063-24.631-6.345-27.675-6.958-2.53-.51-3.495 2.752-3.556 2.968-.758 3.109 3.082 4.254 3.336 4.326m26.196 7.278c-.645 0-1.224-.124-1.602-.205-1.422-.305-23.903-5.795-24.859-6.029a.65.65 0 0 1-.016-.004c-1.777-.494-4.92-2.306-4.1-5.631a7.264 7.264 0 0 1 1.018-2.099c.995-1.386 2.308-1.96 3.796-1.66 3.041.612 26.255 6.59 27.695 6.961.207.027.816.16 1.322.789.672.837.866 2.174.577 3.975-.253 1.576-.845 2.692-1.758 3.316-.662.453-1.403.587-2.073.587m40.626 9.063c.763.191 27.18 6.798 29.925 7.397 1.118.243 2.067.11 2.82-.399.896-.605 1.51-1.751 1.774-3.316.445-2.626-2.645-3.322-2.777-3.35-.272-.065-25.973-6.19-30.262-7.098-3.703-.783-4.53 1.458-4.603 1.683-.84 3.753 2.838 4.993 3.123 5.083m30.944 8.59c-.4 0-.819-.047-1.25-.14-2.787-.608-28.863-7.13-29.971-7.408a.467.467 0 0 1-.027-.008c-1.72-.525-4.74-2.534-3.866-6.375a.432.432 0 0 1 .009-.035c.01-.034 1.088-3.454 5.865-2.444 4.302.91 30.017 7.038 30.276 7.1 1.453.306 4.097 1.662 3.603 4.582-.315 1.862-1.088 3.255-2.235 4.029-.686.464-1.503.699-2.404.699M31.194 31.79c-.988.27-1.406.614-1.468.845-.05.186.11.48.437.807.963.961 3.242.763 4.039.606.069-.012 5.556-.952 7.353-1.645.543-.209.745-.427.753-.56.014-.244-.387-.727-1.303-1.212-1.378-.73-3.52-.338-3.666-.31l-6.145 1.47zm1.528 3.465c-1.092 0-2.468-.198-3.322-1.051-.633-.632-.874-1.253-.716-1.846.19-.716.942-1.257 2.234-1.61a.282.282 0 0 1 .017-.004l6.164-1.474.018-.004c.107-.021 2.636-.518 4.393.413 1.255.665 1.92 1.456 1.875 2.227-.039.643-.524 1.149-1.441 1.502-1.898.732-7.317 1.66-7.547 1.7a9.428 9.428 0 0 1-1.675.147zm27.52 2.76h.002-.002zm.118.526c-.468.106-1.221.427-1.355.78-.051.137.004.318.165.538.83 1.138 3.176 1.547 6.273 1.094 2.434-.355 5.968-1.444 6.477-1.603.12-.08.358-.282.354-.492-.002-.119-.103-.554-1.3-1.185-2.419-1.277-8.165.23-10.053.724a23.75 23.75 0 0 1-.557.143h-.004zm2.742 3.672c-1.83 0-3.813-.362-4.804-1.719-.484-.663-.431-1.21-.302-1.553.39-1.034 1.936-1.409 2.126-1.451.114-.027.293-.074.525-.135 3.452-.905 8.33-1.955 10.831-.635 1.253.66 1.866 1.357 1.874 2.129.01.91-.848 1.412-.946 1.467a.54.54 0 0 1-.098.042c-.162.051-4.008 1.267-6.709 1.662a17.58 17.58 0 0 1-2.497.193zm28.355 2.417h.002-.002zm.136.522c-.62.161-1.717.621-2.026 1.169a.538.538 0 0 0-.052.448c.337 1.132 2.561 1.933 4.665 1.682 2.893-.345 7.32-1.34 7.787-1.682.288-.242.576-.675.517-1.044-.062-.39-.522-.776-1.293-1.086-2.034-.818-3.82-.575-5.255-.38a27.85 27.85 0 0 1-.681.088c-1.412.157-3.626.795-3.648.801l-.014.004zm1.807 4.422c-2.149 0-4.43-.858-4.92-2.497a1.62 1.62 0 0 1 .149-1.287c.627-1.11 2.442-1.615 2.685-1.679.169-.049 2.345-.67 3.821-.835.205-.022.423-.052.655-.084 1.479-.201 3.504-.477 5.803.448 1.17.47 1.828 1.114 1.956 1.914.135.84-.372 1.606-.891 2.043-.83.698-6.592 1.715-8.35 1.924-.296.036-.6.053-.908.053zm28.948 4.091v.006c.06.402.316.773.764 1.101 1.328.973 4.013 1.335 6.682.901 2.524-.41 5.666-.92 6.183-1.907.066-.125.131-.338-.058-.735-.362-.757-1.801-1.304-3.85-1.463-.97-.076-1.884.036-2.85.154-.571.07-1.161.142-1.774.175-.367.02-2.737.357-3.467.554-1.267.341-1.709.67-1.63 1.214m5.216 3.268c-2.08 0-3.948-.455-5.09-1.292-.68-.498-1.093-1.126-1.193-1.814l-.002-.016c-.244-1.683 1.621-2.186 2.418-2.4.807-.218 3.257-.567 3.69-.59a24.828 24.828 0 0 0 1.7-.169c.978-.119 1.988-.242 3.065-.159 1.455.113 4.005.533 4.74 2.074.295.617.308 1.188.04 1.7-.713 1.362-3.22 1.862-6.965 2.47-.813.132-1.623.196-2.403.196M55.64 10.438c.005.092.042.217.19.365.452.452 1.76.891 4.08.77l4.554-.238c.836-.086 1.597-.374 1.68-.557-.002-.001-.007-.02-.025-.056-.354-.67-2.468-.987-4.306-.906a31.1 31.1 0 0 1-.884.02c-.912.016-2.162.036-3.27.144-1.507.146-1.923.382-2.02.458zm4.298 1.673h.001-.001zm-.796.56c-1.922 0-3.353-.384-4.075-1.106-.355-.354-.53-.784-.505-1.242.065-1.234 2.19-1.495 6.35-1.564.35-.005.653-.01.853-.02 1.038-.045 4.489-.075 5.308 1.481.19.36.198.74.021 1.067-.458.852-2.056 1.074-2.534 1.122a.477.477 0 0 1-.026.002l-4.568.238c-.284.015-.559.023-.824.023zm22.836 2.91c.002 0 .007.053.082.162.596.867 2.044.937 3.152.842l.015-.001c1.434-.082 5.345-.337 6.217-.526a.548.548 0 0 1 .066-.01c.521-.047.913-.22 1.04-.33a1.035 1.035 0 0 0-.205-.187c-.844-.622-2.55-.872-5.214-.764l-.202.008c-.917.037-2.174.087-3.219.24-1.55.23-1.725.552-1.732.566m2.504 2.114c-1.586 0-2.698-.45-3.311-1.342-.376-.546-.293-.984-.157-1.255.552-1.1 2.986-1.285 5.872-1.4l.201-.007c2.959-.12 4.834.189 5.898.972.688.506.725 1 .634 1.323-.199.712-1.183 1.054-1.98 1.133-1.182.24-6.043.523-6.343.54a9.68 9.68 0 0 1-.814.036m25.394 3.12l.007.01.016.021c.857 1.083 2.37 1.107 4.122 1.135h.027c.765 0 4.566-.446 5.98-.633.353-.046.731-.214.827-.365.012-.02.021-.033.003-.087-.153-.474-1.372-.69-1.892-.783l-.153-.028c-.996-.145-3.097-.214-5.197-.064-2.633.189-3.556.609-3.74.794m4.163 2.244h-.035c-1.942-.031-3.777-.061-4.953-1.547a1.883 1.883 0 0 1-.051-.067c-.267-.389-.289-.81-.066-1.167 1.046-1.674 8.427-1.497 10.045-1.257l.019.003.157.028c.889.158 2.376.422 2.73 1.511.113.35.073.694-.117.995-.426.673-1.406.833-1.598.859-1.007.132-5.202.642-6.131.642m26.551 1.875h.002-.002zm5.855-.245c-.173 0-.34.003-.5.007-1.472.038-2.955.31-4.388.572-.221.04-.514.098-.819.184-.89.255-1.081.535-1.118.615-.016.032-.051.11.028.286.35.782 2.782 1.41 5.512 1.078 2.003-.244 5.004-.933 5.293-1 .228-.078.455-.236.478-.31-.002 0-.035-.178-.495-.498-1.14-.792-2.735-.934-3.99-.934zm-2.724 3.901c-2.047 0-4.45-.437-5.058-1.797-.232-.518-.14-.928-.021-1.181.247-.53.835-.92 1.8-1.196.349-.1.675-.164.92-.208 1.475-.27 3-.549 4.556-.589 1.459-.038 3.575.037 5.133 1.119.71.492 1.028 1.013.946 1.548-.122.792-1.052 1.12-1.238 1.178a.46.46 0 0 1-.038.01c-.132.032-3.277.765-5.43 1.026-.466.057-1.005.09-1.57.09z" fill="#93820A"/></g></svg>