<svg width="178" height="157" viewBox="0 0 178 157" xmlns="http://www.w3.org/2000/svg" xmlns:xlink="http://www.w3.org/1999/xlink"><title>Caja 40 libras</title><defs><path id="a" d="M148.514.223v124.003H.102V.223h148.412z"/><path id="c" d="M36.255 140.66H0V.207h36.255z"/><path id="e" d="M144.844.193H0v32.583h144.844V.193z"/></defs><g fill="none" fill-rule="evenodd"><path fill="#CCBA15" d="M106.165 25.27l-49.081 6.86-1.117-7.975 49.081-6.858z"/><path fill="#E2D100" d="M.46 17.052L29.361 55.86l42.084-16.369-15.867-15.113z"/><path d="M176.078 33.504l-9.856 90.038-28.553 7.023s-.07-3.979-5.104-3.4c-5.036.578-7.512 6.503-7.512 6.503l-38.744 9.53s-.899-3.716-6.126-3.174c-6.494.815-8.384 6.744-8.384 6.744l-36.777 9.047-5.661-99.955 146.717-22.356z" fill="#E2D100"/><path fill="#EAE406" d="M.46 17.052l8.871 88.108 25.69 50.655-5.66-99.955z"/><path d="M97.009 17.594c.175.058 14.697 11.65 14.697 11.65l64.372 4.26-52.53-32.416-26.54 16.506z" fill="#E2D100"/><path d="M.46 17.052l33.44-4.337s4.316 2.297 9.878 1.408c5.563-.889 4.09-3.22 4.09-3.22l35.95-4.662s4.4 2.661 9.668 1.255c4.921-1.134 3.081-2.91 3.081-2.91l26.98-3.499 20.064 11.615L12.789 31.979.46 17.052zm16.33 18.385l13.32 20.127 145.967-22.06-27.098-17.512z" fill="#F9F44E"/><path d="M11.988 55.86c-.35-.588-.706-.714-1.058-.541-.5.245-.78 2.483.277 4.997 1.057 2.515 6.114 11.292 6.114 11.292s.562.853.877-.022c.315-.876.922-4.019-.697-6.982-1.618-2.963-5.164-8.156-5.513-8.744m56.564-5.972s-1.857-3.031 5.29-4.018c7.146-.986 11.708 1.315 11.708 1.315s1.248 8.202-6.799 10.145c-8.047 1.944-10.114-4.41-10.199-7.442m59.428-9.055s-.354 6.364 4.666 6.884c5.02.52 10.726-2.672 10.913-9.258-4.236-2.495-8.9-2.258-12.263-1.809-3.362.45-5.541 2.43-3.315 4.183" fill="#CCBA15"/><g transform="translate(28.798 32.435)"><mask id="b" fill="#fff"><use xlink:href="#a"/></mask><path d="M6.61 124.226a.848.848 0 0 1-.845-.798L.104 23.473a.846.846 0 0 1 .717-.884l39.191-5.972a.845.845 0 1 1 .256 1.673l-38.43 5.856 5.56 98.17 35.353-8.697c.615-1.497 2.977-6.123 8.915-6.869 4.324-.449 6.09 1.775 6.732 3.02l37.644-9.26c.685-1.416 3.286-6.077 8.014-6.62 1.943-.224 3.478.145 4.563 1.094.758.663 1.13 1.477 1.31 2.11l27.104-6.667 9.672-88.355-31.43 4.789a.845.845 0 1 1-.255-1.673L147.539.233a.846.846 0 0 1 .97.928L138.653 91.2a.847.847 0 0 1-.64.73l-28.554 7.023a.846.846 0 0 1-1.049-.807c0-.005-.048-1.149-.922-1.901-.71-.613-1.8-.84-3.238-.674-4.472.514-6.805 5.936-6.828 5.99a.85.85 0 0 1-.578.495l-38.744 9.53a.85.85 0 0 1-1.026-.622c-.03-.115-.831-2.987-5.215-2.532-5.87.737-7.647 6.105-7.664 6.16a.846.846 0 0 1-.605.564l-36.777 9.046a.85.85 0 0 1-.203.025" fill="#93820A" mask="url(#b)"/></g><path d="M86.006 48.134a.847.847 0 0 1-.127-1.683l42.36-6.454a.846.846 0 0 1 .256 1.672l-42.36 6.455a.834.834 0 0 1-.129.01" fill="#93820A"/><g transform="translate(0 16)"><mask id="d" fill="#fff"><use xlink:href="#c"/></mask><path d="M10.544 88.918l23.79 46.907-5.418-95.664L1.996 4.013l8.548 84.905zm24.864 51.743a.847.847 0 0 1-.755-.464L8.962 89.542a.844.844 0 0 1-.087-.298L.005 1.137a.846.846 0 0 1 1.522-.59l28.9 38.808a.846.846 0 0 1 .166.457l5.66 99.955a.846.846 0 0 1-.845.894z" fill="#93820A" mask="url(#d)"/></g><g transform="translate(0 .049)"><mask id="f" fill="#fff"><use xlink:href="#e"/></mask><path d="M2.475 17.645l11.05 13.379L141.474 12.17 123.758 1.915l-25.62 3.323a1.8 1.8 0 0 1-.066.567c-.308 1.107-1.614 1.912-3.995 2.463-4.855 1.29-8.963-.626-10.042-1.201L49.28 11.574a2.213 2.213 0 0 1-.202.884c-.554 1.225-2.117 2.026-4.778 2.452-5.072.81-9.12-.88-10.158-1.372L2.475 17.645zm10.7 15.131a.847.847 0 0 1-.652-.307L.193 17.542a.845.845 0 0 1 .545-1.377l33.44-4.338a.847.847 0 0 1 .507.093c.04.02 4.152 2.15 9.346 1.32 2.835-.454 3.398-1.247 3.503-1.479a.557.557 0 0 0 .005-.455.844.844 0 0 1 .607-1.29l35.95-4.663a.848.848 0 0 1 .547.115c.04.024 4.173 2.453 9.01 1.161l.03-.007c2.517-.58 2.746-1.238 2.755-1.265.028-.093-.086-.224-.087-.225-.252-.218-.328-.542-.232-.86.097-.32.395-.53.725-.573l26.98-3.5a.848.848 0 0 1 .534.108l20.064 11.614a.845.845 0 0 1-.301 1.569L13.3 32.767a.824.824 0 0 1-.124.01z" fill="#93820A" mask="url(#f)"/></g><path d="M30.497 56.41a.848.848 0 0 1-.706-.38L16.469 35.903a.845.845 0 0 1 .584-1.303l132.19-19.444a.851.851 0 0 1 .584.126l27.098 17.512a.846.846 0 0 1-.333 1.546l-32.574 4.923a.846.846 0 0 1-.253-1.673l30.364-4.589-24.955-16.125L18.617 36.08l12.288 18.567 37.845-5.72a.847.847 0 1 1 .253 1.673l-38.379 5.8a.83.83 0 0 1-.127.01" fill="#93820A"/><path d="M85.936 48.031a.847.847 0 0 1-.126-1.682l42.368-6.403a.847.847 0 1 1 .253 1.673l-42.367 6.403a.844.844 0 0 1-.128.01m-74.194 8.414c-.082.718.001 2.04.633 3.543.842 2.005 4.371 8.232 5.624 10.424.204-1.26.236-3.406-.855-5.404-1.192-2.183-3.462-5.618-4.681-7.464-.367-.556-.593-.898-.721-1.1m6.463 16.382c-.654 0-1.083-.57-1.205-.754a.788.788 0 0 1-.026-.043c-.208-.36-5.097-8.852-6.161-11.386-1.098-2.612-1.036-5.512.13-6.085.298-.147 1.336-.517 2.16.87.078.13.385.596.774 1.184 1.233 1.867 3.528 5.341 4.754 7.586 1.674 3.065 1.223 6.359.75 7.673-.269.748-.767.915-1.04.947a1.136 1.136 0 0 1-.136.008" fill="#93820A"/><path d="M77.733 46.473c-1.046 0-2.18.069-3.389.236-3.608.497-4.47 1.494-4.673 1.899a.943.943 0 0 0-.001.854.784.784 0 0 1 .115.403c.05 1.759.787 4.333 2.704 5.797 1.588 1.212 3.758 1.497 6.45.846 6.256-1.51 6.328-7.096 6.208-8.744-.971-.39-3.622-1.291-7.414-1.291m-1.428 12.069c-1.883 0-3.505-.513-4.845-1.536-2.32-1.772-3.253-4.78-3.36-6.904a2.62 2.62 0 0 1 .03-2.197c.688-1.453 2.701-2.42 5.982-2.872 7.325-1.011 12.01 1.299 12.207 1.397a.846.846 0 0 1 .455.628c.014.09 1.264 8.993-7.437 11.095-1.075.26-2.087.389-3.032.389m52.908-17.662c-.013.24-.237 5.566 3.907 5.995 2.605.271 5.286-.553 7.171-2.203 1.647-1.44 2.603-3.415 2.782-5.733-3.939-2.117-8.299-1.849-11.278-1.45-2.02.27-3.294 1.086-3.467 1.717-.097.353.253.718.564.963.216.17.336.435.321.71m4.88 7.738c-.383 0-.766-.02-1.148-.059-4.357-.451-5.448-4.784-5.436-7.35-1.014-.976-.955-1.936-.815-2.449.397-1.448 2.311-2.604 4.876-2.947 3.34-.447 8.303-.733 12.806 1.918a.846.846 0 0 1 .417.753c-.086 3.02-1.257 5.6-3.385 7.462-1.955 1.71-4.623 2.672-7.315 2.672M60.498 29.91a.846.846 0 0 1-.585-.233l-3.69-3.515a.845.845 0 1 1 1.17-1.224l3.69 3.514a.845.845 0 0 1-.585 1.459m43.036-6.331a.844.844 0 0 1-.526-.183l-4.329-3.433a.847.847 0 0 1 1.053-1.325l4.33 3.433a.845.845 0 0 1-.528 1.508m44.412-6.59a.844.844 0 0 1-.444-.126l-5.156-3.181a.845.845 0 1 1 .89-1.44l5.156 3.182a.845.845 0 0 1-.446 1.566" fill="#93820A"/></g></svg>