<svg width="194" height="84" viewBox="0 0 194 84" xmlns="http://www.w3.org/2000/svg" xmlns:xlink="http://www.w3.org/1999/xlink"><title>Caja exhibidora 2</title><defs><path id="a" d="M192.918.162H0V35.61h192.918V.162z"/><path id="c" d="M0 .008V58.97h192.918V.009H0z"/><path id="e" d="M177.202.162H.139v33.03h177.063V.161z"/></defs><g fill="none" fill-rule="evenodd"><path d="M1.446 35.22l7.502 47.83 32.794-.079s.266-.911.893-1.048c.626-.137 16.758-.135 17.483-.022.725.114.993 1.024.993 1.024l71.952-.172s.405-.834 1.266-1.005l17.01-.025c.62.112 1.212.984 1.212.984l33.345-.08 7.289-48.277-38.206.174-1.014-6.334-17.659.23-1.516 6.195-75.967.345-1.19-7.867-17.494.623-2.085 7.339-36.608.166z" fill="#EAE406"/><path d="M25.181 56.579c-.468 0-.931.027-1.399.165-.155.046-.582.512-.625.673-.32 1.222-.646 2.439-.833 3.69-.816 3.121 1.799 8.233 2.917 8.185 1.6.036 2.685-.047 2.685-.047s.989-.146 1.346-1.658c.357-1.513 1.015-4.153.54-5.651-.464-1.47-.824-2.998-1.654-4.316-.512-.813-1.132-1.033-2.058-1.03-.31 0-.616-.011-.919-.011m141.006.761s.13-.88 1.078-.922c.948-.04 2.844-.05 2.844-.05s.996-.065 1.277.734c.282.8.942 5.176.942 5.176s.034.609-.173 1.27c-.207.662-1.411 4.12-1.411 4.12s-.25.931-1.332.974c-1.082.043-2.565.045-2.565.045s-1.188.191-1.498-.851c-.31-1.043-.776-4.033-.776-4.033s-.212-1.045.16-2.026c.372-.982 1.454-4.438 1.454-4.438" fill="#CCBA15"/><path fill="#F9F44E" d="M10.407 32.615L42.278 5.964l-3.281.057-37.55 29.2 36.607-.166 2.085-7.34-1.366 4.809zm48.037-.155l-.812-5.367 1.19 7.867 75.968-.345 1.516-6.196-.928 3.795zM159.097 3.925l-3.911.068 31.107 28.057-31.694.102-.634-3.962 1.014 6.334 38.205-.174z"/><path d="M54.54 27.203l-4.051.144c-.856-1.452-.743-2.204-.743-2.204s.303-2.807.614-3.746c.31-.94 1.247-.653 2.153-.669.906-.015 1.171.762 1.171.762s.987 3.188 1.224 3.764c.236.577-.368 1.949-.368 1.949zm131.753 4.848L155.186 3.993l-20.398.356-.112-2.934-11.412.321.033 2.814-50.318.878-.165-3.234-11.715.204.117 3.235-18.938.33-31.87 26.652 28.365-.091 1.366-4.808 17.493-.623.812 5.368 76.934-.247.928-3.795 6.167-.08s-.807-2.313-.424-3.268c.384-.954.794-2.419.794-2.419s.275-.915 1.037-1.001c.762-.087 2.178-.184 2.409.577.232.761.635 3.05.635 3.05s.148.693-.205 1.645c-.301.81-.467 1.367-.467 1.367l7.713-.1.634 3.962 31.694-.101z" fill="#CCBA15"/><path d="M142.473 28.34l3.78-.014-3.78.013z" fill="#93820A"/><g transform="rotate(-1 154.804 -14.799)"><mask id="b" fill="#fff"><use xlink:href="#a"/></mask><path d="M154.637 33.927l36.135.467-32.236-29.799h-24.079a.597.597 0 0 1-.596-.586l-.049-2.343-10.239.109L123.561 4a.597.597 0 0 1-.597.595H72.64a.597.597 0 0 1-.597-.578l-.09-2.659h-10.53l.048 2.628a.6.6 0 0 1-.596.61H38.85L2.36 31.96l34.401.444 2.083-6.871a.597.597 0 0 1 .56-.424l17.501-.318a.595.595 0 0 1 .603.52l.984 7.374 74.98.968 1.506-5.717a.6.6 0 0 1 .58-.446l17.66.08c.295.001.546.22.588.514l.83 5.842zm37.684 1.683h-.008l-38.202-.493a.597.597 0 0 1-.584-.514l-.83-5.838-16.683-.075-1.506 5.72a.597.597 0 0 1-.577.447h-.008l-75.962-.981a.597.597 0 0 1-.584-.52l-.982-7.358-16.536.3-2.086 6.885a.595.595 0 0 1-.579.425L.59 33.135a.597.597 0 0 1-.35-1.077l38.055-28.54a.596.596 0 0 1 .357-.12h21.615l-.05-2.627a.6.6 0 0 1 .597-.61H72.53c.322 0 .586.257.597.579l.09 2.659h49.155l.012-2.22a.598.598 0 0 1 .59-.594L134.39.463h.007c.324 0 .59.26.596.586l.049 2.35h23.727c.15 0 .295.056.405.158l33.551 31.015a.6.6 0 0 1-.404 1.038z" fill="#93820A" mask="url(#b)"/></g><g transform="rotate(-1 1574.791 -27.19)"><mask id="d" fill="#fff"><use xlink:href="#c"/></mask><path d="M151.156 57.275l32.532.49 7.928-46.948-37.505-.484a.597.597 0 0 1-.584-.514l-.83-5.838-16.683-.075-1.506 5.72a.605.605 0 0 1-.585.446l-75.962-.98a.597.597 0 0 1-.584-.52l-.982-7.358-16.536.3L37.773 8.4a.597.597 0 0 1-.57.425h-.009L1.284 8.36l6.499 46.754 31.88.48c.198-.38.572-.892 1.184-1.014.63-.127 16.84.13 17.7.28.637.112 1.05.6 1.276 1.038l71.224 1.074c.257-.34.748-.834 1.494-.969a.645.645 0 0 1 .116-.01l17.007.273c.036 0 .071.004.106.011.608.121 1.115.654 1.386.998m33.035 1.694h-.009l-33.342-.502a.596.596 0 0 1-.49-.27c-.176-.267-.533-.656-.774-.736l-16.873-.27c-.52.123-.807.654-.81.66a.603.603 0 0 1-.538.322L59.41 57.089a.597.597 0 0 1-.566-.439c-.041-.14-.224-.562-.502-.61-.926-.134-16.323-.387-17.272-.285-.168.045-.374.39-.45.625a.601.601 0 0 1-.569.417h-.009l-32.79-.494a.597.597 0 0 1-.582-.516L.006 7.835a.599.599 0 0 1 .598-.68l36.157.466L38.844.75a.597.597 0 0 1 .56-.424L56.905.008a.598.598 0 0 1 .603.519l.984 7.375 74.98.968 1.506-5.717a.597.597 0 0 1 .577-.446h.003l17.66.08c.295.001.546.22.588.513l.83 5.843 37.692.487a.596.596 0 0 1 .581.698l-8.13 48.143a.597.597 0 0 1-.588.498" fill="#93820A" mask="url(#d)"/></g><g transform="rotate(-1 150.37 -522.754)"><mask id="f" fill="#fff"><use xlink:href="#e"/></mask><path d="M145.433 31.55l29.633.423-29.31-27.378h-20.165a.597.597 0 0 1-.596-.586l-.049-2.343-10.238.109L114.696 4a.597.597 0 0 1-.597.595H63.773a.597.597 0 0 1-.597-.578l-.09-2.659h-10.53l.048 2.628a.6.6 0 0 1-.596.61h-18.73L2.398 29.512l26.26.374 1.319-4.353a.597.597 0 0 1 .56-.424l17.502-.318a.598.598 0 0 1 .602.519l.65 4.87 75.945 1.082.875-3.326a.597.597 0 0 1 .577-.446h.003l17.66.08c.296.001.546.22.588.514l.493 3.466zm31.172 1.641h-.008l-31.691-.451a.597.597 0 0 1-.582-.514l-.493-3.461-16.683-.075-.877 3.33a.6.6 0 0 1-.585.446L48.76 31.37a.597.597 0 0 1-.583-.519l-.648-4.853-16.535.3-1.324 4.368a.597.597 0 0 1-.57.424h-.01L.728 30.686a.6.6 0 0 1-.366-1.064L32.694 3.53a.595.595 0 0 1 .374-.132H51.4L51.35.77a.598.598 0 0 1 .597-.609h11.717c.321 0 .585.256.596.578l.09 2.659h49.155l.012-2.22a.597.597 0 0 1 .59-.594l11.417-.122h.007c.324 0 .59.26.596.586l.049 2.35h19.816a.6.6 0 0 1 .407.16l30.613 28.596a.6.6 0 0 1-.407 1.036z" fill="#93820A" mask="url(#f)"/></g><path d="M25.251 68.694h.004a30.737 30.737 0 0 0 2.585-.043c.105-.03.622-.23.851-1.202l.041-.172c.344-1.45.918-3.875.512-5.16-.087-.277-.171-.556-.255-.834-.362-1.204-.704-2.34-1.336-3.344-.36-.57-.737-.753-1.552-.752-.163 0-.325-.002-.487-.005-.145-.002-.289-.005-.432-.005-.372 0-.772.016-1.17.124a2.015 2.015 0 0 0-.29.318l-.029.107c-.297 1.133-.605 2.304-.779 3.47a.657.657 0 0 1-.013.063c-.73 2.794 1.56 7.146 2.35 7.435zm1.412 1.2c-.401.007-.881.008-1.42-.004h-.002c-.446.008-.903-.286-1.395-.898-1.29-1.604-2.777-5.37-2.107-8.005.184-1.219.497-2.412.8-3.566l.041-.156c.09-.338.659-.983 1.033-1.094.565-.168 1.11-.19 1.568-.19.15 0 .302.002.454.005.154.002.308.005.464.005.858-.002 1.834.153 2.563 1.31.719 1.14 1.1 2.41 1.47 3.636.082.274.164.547.25.818.506 1.601-.093 4.127-.489 5.798l-.04.172c-.356 1.506-1.324 2.036-1.84 2.112a.566.566 0 0 1-.042.004c-.03.003-.516.04-1.308.053zM166.187 57.34h.002-.002zm2.243-.354a49.1 49.1 0 0 0-1.14.03c-.442.02-.507.371-.513.411a.595.595 0 0 1-.02.091c-.045.142-1.093 3.484-1.467 4.471-.302.8-.133 1.687-.132 1.696l.005.025c.005.03.463 2.963.758 3.955.158.533.804.436.831.431a.632.632 0 0 1 .095-.007c.014 0 1.484-.002 2.541-.045.636-.025.778-.527.78-.532a.58.58 0 0 1 .013-.041c.012-.034 1.203-3.457 1.405-4.102.15-.478.15-.932.147-1.035-.263-1.739-.718-4.49-.91-5.033-.125-.356-.658-.336-.68-.335a150.91 150.91 0 0 0-1.713.02zM166.665 69.3c-.632.011-1.575-.241-1.888-1.295-.312-1.048-.756-3.872-.791-4.1-.03-.156-.218-1.27.189-2.342.34-.9 1.313-3.992 1.43-4.367.095-.485.538-1.329 1.634-1.376.913-.04 2.65-.05 2.85-.05.547-.03 1.523.175 1.86 1.132.292.83.9 4.832.969 5.285a.663.663 0 0 1 .005.056c.002.029.039.726-.198 1.484-.203.646-1.31 3.828-1.412 4.12a2.013 2.013 0 0 1-1.877 1.392 79.49 79.49 0 0 1-2.546.045 2.037 2.037 0 0 1-.225.016zM50.338 25.222c-.003.077.005.591.493 1.514l3.298-.117c.174-.488.279-.986.226-1.139-.236-.575-1.117-3.411-1.237-3.799-.033-.08-.18-.362-.595-.354a8.504 8.504 0 0 1-.584-.016c-.823-.04-.927.016-1.013.274-.238.72-.505 2.859-.587 3.622l-.001.015m.161 2.723a.596.596 0 0 1-.524-.294c-.89-1.509-.847-2.382-.822-2.58.036-.33.321-2.899.64-3.863.392-1.181 1.482-1.127 2.204-1.092.169.009.343.017.506.014a1.781 1.781 0 0 1 1.746 1.167l.005.016c.272.88 1.02 3.261 1.206 3.714.31.754-.209 2.04-.375 2.418a.596.596 0 0 1-.524.356l-4.051.144h-.01m92.406-.21l2.908-.037c.08-.245.197-.584.345-.984.281-.757.18-1.312.18-1.318-.007-.037-.403-2.276-.62-2.994-.002-.003-.177-.337-1.772-.157-.35.04-.53.574-.532.58-.014.05-.421 1.497-.812 2.47-.174.433.05 1.585.303 2.44m3.357 1.153h-.003l-3.779.05a.597.597 0 0 1-.571-.402c-.147-.421-.858-2.581-.414-3.688.367-.913.769-2.343.773-2.357.147-.491.634-1.332 1.544-1.435.657-.074 2.653-.3 3.047.998.235.772.62 2.944.65 3.113.027.138.154.923-.232 1.964-.29.779-.452 1.324-.454 1.33a.597.597 0 0 1-.561.427m8.347 3.862h-.023a.598.598 0 0 1-.584-.61l.586-28.16a.597.597 0 1 1 1.193.026l-.586 28.159a.597.597 0 0 1-.586.585M42.664 28.082a.597.597 0 0 1-.607-.588l-.376-21.52a.597.597 0 1 1 1.194-.02l.375 21.52a.597.597 0 0 1-.586.608" fill="#93820A"/></g></svg>