<svg width="232" height="88" viewBox="0 0 232 88" xmlns="http://www.w3.org/2000/svg" xmlns:xlink="http://www.w3.org/1999/xlink"><title>Caja carton 12</title><defs><path id="a" d="M58.83 56.133V.151H.04v55.982h58.79z"/><path id="c" d="M.168.055h24.853v38.91H.168V.055z"/></defs><g fill="none" fill-rule="evenodd"><path fill="#EAE406" d="M232 29.953L225.032 59h-17.905l7.377-29.08.236-.93-30.664-18.809L174 4l11.15 1.07.417.552.413.22.878.133 1.902 1.011.35.707.91.483 1.209.121 2.327 1.237.368.715 1.182.628 1.145.088 2.393 1.27.558.817 1.673.89 1.055.038 2.87 1.526.59.833 1.53.813 1.182.107 3.176 1.688.506.788 2.15 1.143 1.343.193 3.487 1.851.61.846 2.677 1.421 1.141.086z"/><path d="M61.883 57.885c0-2.617-2.146-4.975-4.792-5.263-2.645-.289-4.791 1.598-4.791 4.218 0 2.617 2.146 4.975 4.791 5.263 2.646.289 4.792-1.6 4.792-4.218zM187.216 55.8c2.244-.137 4.065-2.07 4.065-4.312 0-2.243-1.82-3.95-4.065-3.813-2.244.14-4.064 2.07-4.064 4.312 0 2.245 1.82 3.952 4.064 3.813zm-8.563-24.239l15.466-.667 19.8-.851-7.346 29.058h16.551l-3.843 17.076-85.324 4.772-.19-1.573a5.226 5.226 0 0 0-5.421-4.593l-7.951.354a5.224 5.224 0 0 0-4.994 5.18l-.013 1.67-98.345 5.5-4.378-17.192-.028-.227 19.035-2.429-10.464-32.122 23.559-.888 2.354-.088 17.363-.655 1.998-.076 3.02 2.198h.002l6.311 4.592h.002l5.187 3.774 84.46-2.666 4.136-3.553 7.61-6.533 1.443-.061z" fill="#EAE406"/><path fill="#CCBA15" d="M214.155 29.113l-.235.93-19.801.85-1.214-8.314-9.753.237.462-12.498z"/><path fill="#E2D100" d="M192.905 22.579l1.214 8.315-15.466.667.65-8.65 3.849-.095z"/><path d="M191.28 51.488c0 2.243-1.82 4.175-4.064 4.312-2.244.14-4.064-1.568-4.064-3.813 0-2.243 1.82-4.173 4.064-4.312 2.244-.137 4.065 1.57 4.065 3.813M157.542 23.44c1.875-.266 3.397-1.997 3.397-3.87 0-1.872-1.522-3.174-3.397-2.908-1.878.267-3.398 2-3.398 3.87 0 1.873 1.52 3.175 3.398 2.908zm26.072-13.122l-.462 12.498-3.85.094-.65 8.651-1.443.061-7.609 6.533-11.459.299-.102-3.14a1.47 1.47 0 0 0-1.468-1.42h-6.82l1.697-26.987.399-6.34h8.692l1.124 5.316 11.916-.298V4.142l10.035 6.176z" fill="#CCBA15"/><path fill="#CCBA15" d="M169.6 38.155l-4.136 3.553-84.46 2.666-5.187-3.774 33.234-.865 12.849-.336 36.242-.945z"/><path d="M158.04 35.314l.102 3.14-36.242.945-.408-1.539a3.367 3.367 0 0 0-3.331-2.5l-5.594.128a3.367 3.367 0 0 0-3.23 2.734l-.286 1.51v.003l-33.234.865h-.002l-6.31-4.592 10.821-.7L75.813 6.89h3.647l8.32 6.858 53.952-.6L148.7 6.89h2.473l.275.016-1.698 26.988h6.821a1.47 1.47 0 0 1 1.468 1.42m-24.273 44.062l.19 1.573-18.568 1.038.013-1.67a5.225 5.225 0 0 1 4.994-5.18l7.951-.354a5.226 5.226 0 0 1 5.42 4.593" fill="#CCBA15"/><path d="M75.156 22.577c0-2.139-1.716-4.01-3.831-4.18-2.115-.169-3.831 1.427-3.831 3.564 0 2.136 1.716 4.007 3.83 4.177 2.116.17 3.832-1.425 3.832-3.561zm.657-15.687l4.513 28.418-10.822.7h-.002l-3.02-2.198-1.998.076-1.514-7.038-15.419.362-.43 7.33-2.354.089s-4.634-18.996-4.511-19.123L50.359 4.89l1.001 2.56 13.124-.303 1.208-5.257 9.251-.483.87 5.484z" fill="#CCBA15"/><path fill="#E2D100" d="M62.97 26.848l1.514 7.038-17.363.655.43-7.33z"/><path d="M57.091 52.622c2.646.288 4.792 2.646 4.792 5.263 0 2.618-2.146 4.507-4.792 4.218-2.645-.288-4.791-2.646-4.791-5.264 0-2.619 2.146-4.506 4.791-4.217" fill="#CCBA15"/><path fill="#EAE406" d="M50.359 4.889L40.256 15.506l-19.048 20.01L31.672 67.64l-19.035 2.43-1.344.169L.513 38.423l7.596-6.482.985-.155 2.595-2.214.006-.688 2.83-2.415 1.148-.264 1.903-1.623-.023-.695 2.445-2.086 1.21-.256 1.575-1.342.039-.813 2.127-1.813 1.094-.18 1.19-1.017.264-.976 2.03-1.734 1.074-.151 1.419-1.212.09-.839 4.085-3.485.852-.022.704-.6-.258-.483.381-.327z"/><path d="M44.767 34.629l-23.559.888 19.048-20.01c-.123.126 4.51 19.122 4.51 19.122" fill="#CCBA15"/><path d="M1.109 38.587l10.535 31.09.928-.116 18.422-2.351-10.272-31.535a.511.511 0 0 1 .115-.51l19.048-20.011 9.102-9.566L38.155 7.03l.048.09a.511.511 0 0 1-.12.63l-.704.6a.513.513 0 0 1-.319.122l-.67.018-3.793 3.235-.068.637a.511.511 0 0 1-.177.334l-1.419 1.212a.51.51 0 0 1-.26.118l-.926.13-1.798 1.534-.222.823a.51.51 0 0 1-.162.256l-1.19 1.017a.511.511 0 0 1-.25.116l-.952.157-1.85 1.577-.029.591a.511.511 0 0 1-.179.365l-1.574 1.343a.516.516 0 0 1-.227.111l-1.083.229-2.158 1.841.014.45a.512.512 0 0 1-.179.405l-1.902 1.623a.51.51 0 0 1-.218.11l-1.026.236-2.557 2.182-.004.454a.512.512 0 0 1-.18.385l-2.594 2.214a.512.512 0 0 1-.253.116l-.842.133-7.223 6.163zm10.203 32.22a.512.512 0 0 1-.179-.032l-.216.028a.513.513 0 0 1-.299-.963L.028 38.587a.511.511 0 0 1 .152-.553l7.597-6.482a.51.51 0 0 1 .253-.116l.842-.133 2.307-1.969.004-.454a.512.512 0 0 1 .18-.385l2.83-2.415a.507.507 0 0 1 .217-.11l1.027-.235 1.619-1.382-.015-.45a.512.512 0 0 1 .18-.405l2.445-2.086a.513.513 0 0 1 .226-.112l1.083-.228 1.307-1.115.029-.591A.511.511 0 0 1 22.49 19l2.127-1.813c.071-.06.157-.1.249-.116l.953-.157.96-.821.224-.824a.512.512 0 0 1 .161-.255l2.032-1.734a.512.512 0 0 1 .26-.117l.926-.13 1.15-.983.069-.637a.511.511 0 0 1 .177-.335l4.085-3.485a.51.51 0 0 1 .318-.122l.672-.018.253-.216-.064-.12a.511.511 0 0 1 .118-.628l.38-.327a.513.513 0 0 1 .267-.12l12.483-1.66a.513.513 0 0 1 .439.86L40.626 15.858 21.79 35.649 32.159 67.48a.512.512 0 0 1-.422.665l-20.13 2.568a.511.511 0 0 1-.295.093z" fill="#93820A"/><path d="M17.043 88a.512.512 0 0 1-.496-.386L12.17 70.421a.512.512 0 0 1 .993-.252l4.274 16.785 97.924-5.478 18.568-1.037 84.938-4.751 3.759-16.7a.512.512 0 0 1 .998.225L219.78 76.29a.512.512 0 0 1-.47.399l-85.325 4.772-18.568 1.038-98.345 5.5-.029.002" fill="#93820A"/><g transform="translate(173.027 3.48)"><mask id="b" fill="#fff"><use xlink:href="#a"/></mask><path d="M34.203 55.11h16.772l6.753-28.248-8.328-4.438-1.03-.078a.511.511 0 0 1-.201-.059l-2.666-1.42a.514.514 0 0 1-.175-.152l-.539-.749-3.288-1.752-1.249-.18a.513.513 0 0 1-.168-.055l-2.142-1.142a.51.51 0 0 1-.19-.176l-.431-.674-2.954-1.575-1.075-.097a.512.512 0 0 1-.194-.058l-1.524-.813a.512.512 0 0 1-.177-.156l-.518-.734-2.647-1.412-.933-.034a.508.508 0 0 1-.221-.06l-1.667-.888a.509.509 0 0 1-.183-.164l-.484-.712-2.177-1.16-1.034-.08a.51.51 0 0 1-.201-.058l-1.178-.628a.512.512 0 0 1-.214-.218l-.293-.571-2.088-1.114-1.103-.11a.51.51 0 0 1-.19-.058l-.907-.483a.512.512 0 0 1-.219-.225l-.275-.559-1.671-.892-.788-.12a.513.513 0 0 1-.163-.054l-.412-.219a.514.514 0 0 1-.169-.144l-.28-.372-8.684-.836L41.396 25.2c.19.117.283.344.228.561l-.235.93-7.186 28.42zm17.176 1.023H33.545a.512.512 0 0 1-.496-.636l7.49-29.624L.283 1.098A.511.511 0 0 1 .6.154l11.105 1.068a.511.511 0 0 1 .36.202l.347.461.235.125.788.12a.512.512 0 0 1 .164.054l1.894 1.011c.094.05.17.13.218.226l.275.558.672.358 1.104.11a.51.51 0 0 1 .19.058l2.318 1.236c.092.05.167.125.214.218l.294.572.941.502 1.034.08c.07.005.138.025.201.058l2.383 1.27a.496.496 0 0 1 .183.163l.484.712 1.451.774.933.034a.511.511 0 0 1 .222.06l2.859 1.525c.07.037.13.09.177.156l.518.734 1.324.706 1.074.097a.512.512 0 0 1 .195.058l3.164 1.687a.51.51 0 0 1 .19.176l.432.675 1.944 1.036 1.248.18a.508.508 0 0 1 .168.055l3.473 1.85a.51.51 0 0 1 .175.153l.538.748 2.466 1.314 1.03.078c.07.005.14.025.202.058l8.772 4.675c.205.11.311.344.257.57l-6.94 29.026a.512.512 0 0 1-.497.392z" fill="#93820A" mask="url(#b)"/></g><path d="M81.004 44.886a.511.511 0 0 1-.301-.098l-5.187-3.774a.511.511 0 1 1 .603-.827l5.044 3.67 84.104-2.655 11.609-9.968a.514.514 0 0 1 .312-.123l36.71-1.58a.512.512 0 0 1 .044 1.022l-19.801.852-16.733.721-11.61 9.97a.514.514 0 0 1-.318.123l-84.46 2.667h-.016" fill="#93820A"/><path d="M75.815 41.112a.509.509 0 0 1-.3-.098l-6.312-4.592a.512.512 0 1 1 .603-.828l6.31 4.593a.511.511 0 0 1-.301.925" fill="#93820A"/><path d="M69.502 36.52a.51.51 0 0 1-.301-.098l-2.877-2.094-45.096 1.7a.511.511 0 1 1-.038-1.022l45.273-1.707a.505.505 0 0 1 .32.097l3.02 2.198a.511.511 0 0 1-.301.926m45.886 45.979h-.003a.512.512 0 0 1-.508-.516l.012-1.67a5.733 5.733 0 0 1 5.483-5.687l7.951-.354c2.98-.134 5.594 2.083 5.951 5.042l.19 1.574a.511.511 0 1 1-1.016.123l-.19-1.574c-.294-2.431-2.443-4.253-4.89-4.143l-7.95.354a4.71 4.71 0 0 0-4.505 4.673l-.013 1.67a.512.512 0 0 1-.512.508M56.557 53.074c-.972 0-1.867.33-2.56.95-.783.702-1.215 1.702-1.215 2.815 0 2.376 1.957 4.523 4.362 4.785 1.156.127 2.236-.202 3.04-.923.785-.703 1.217-1.703 1.217-2.816 0-2.376-1.957-4.522-4.362-4.784a4.417 4.417 0 0 0-.482-.027m1.071 9.54c-.194 0-.39-.01-.589-.032-2.879-.314-5.221-2.89-5.221-5.743 0-1.39.545-2.645 1.536-3.533 1.011-.907 2.357-1.32 3.79-1.164 2.879.314 5.221 2.89 5.221 5.743 0 1.39-.545 2.645-1.536 3.533-.872.782-1.992 1.196-3.2 1.196m129.84-14.464a4.15 4.15 0 0 0-.223.006c-1.992.124-3.612 1.842-3.612 3.831 0 .95.368 1.82 1.037 2.447.67.63 1.564.943 2.515.885 1.992-.122 3.613-1.84 3.613-3.831 0-.949-.368-1.817-1.036-2.445a3.314 3.314 0 0 0-2.294-.894m-.511 8.14a4.262 4.262 0 0 1-2.948-1.152c-.865-.812-1.34-1.93-1.34-3.15 0-2.488 2.026-4.638 4.516-4.793 1.222-.074 2.372.333 3.238 1.147.863.812 1.339 1.93 1.339 3.147 0 2.49-2.027 4.64-4.517 4.793a4.538 4.538 0 0 1-.288.009m-8.308-24.156l-.035-.001a.512.512 0 0 1-.477-.545l.004-.061.65-8.655a.512.512 0 0 1 .497-.473l13.603-.332a.504.504 0 0 1 .52.438l1.213 8.315a.513.513 0 0 1-1.015.131l-1.146-7.85-12.686.31-.618 8.246a.512.512 0 0 1-.51.477M5.94 38.159a.512.512 0 0 1-.067-1.02c1.778-.236 3.752-.464 5.661-.684 1.607-.186 3.125-.361 4.492-.537a.512.512 0 0 1 .13 1.015c-1.373.176-2.894.352-4.504.538-1.905.22-3.875.448-5.644.684a.55.55 0 0 1-.068.004" fill="#93820A"/><path d="M47.122 35.052a.512.512 0 0 1-.512-.542l.43-7.33a.511.511 0 0 1 .5-.481l15.418-.363a.51.51 0 0 1 .513.404l1.513 7.038a.512.512 0 0 1-1 .215l-1.425-6.624-14.524.341-.403 6.86a.512.512 0 0 1-.51.482" fill="#93820A"/><path d="M69.504 36.52a.513.513 0 0 1-.023-1.023l10.252-.663L74.509 1.94l-8.405.439-1.121 4.88a.512.512 0 0 1-.488.397l-13.123.303h-.012c-.21 0-.4-.128-.477-.325l-1.001-2.56a.511.511 0 1 1 .953-.372l.872 2.226 12.367-.285 1.119-4.87a.512.512 0 0 1 .472-.396l9.251-.483a.511.511 0 0 1 .533.43l5.383 33.903a.512.512 0 0 1-.473.59l-10.822.7a.585.585 0 0 1-.033.002m-24.738-1.378a.512.512 0 0 1-.497-.391c-.011-.048-1.172-4.805-2.302-9.516a935.87 935.87 0 0 1-1.557-6.571c-.758-3.269-.758-3.269-.522-3.513a.512.512 0 0 1 .88.373c.118.89 2.741 11.792 4.496 18.984a.512.512 0 0 1-.498.633m31.064 5.972l-.015-.512v-.511l46.072-1.201 47.7-1.245a.505.505 0 0 1 .525.498.512.512 0 0 1-.498.525L75.83 41.112z" fill="#93820A"/><path d="M71.017 18.897a2.98 2.98 0 0 0-2.043.784c-.625.576-.969 1.385-.969 2.28 0 1.873 1.508 3.518 3.36 3.667.875.07 1.696-.204 2.312-.773.624-.575.967-1.384.967-2.278 0-1.875-1.507-3.52-3.36-3.67a3.346 3.346 0 0 0-.267-.01m.619 7.765c-.117 0-.234-.005-.352-.014-2.372-.19-4.302-2.293-4.302-4.687 0-1.184.46-2.26 1.297-3.032.83-.765 1.925-1.133 3.087-1.041 2.372.19 4.302 2.294 4.302 4.689 0 1.183-.46 2.259-1.297 3.03a3.992 3.992 0 0 1-2.735 1.055M87.78 14.26a.513.513 0 0 1-.326-.117l-8.178-6.741h-3.46a.512.512 0 1 1 0-1.023h3.644c.12 0 .234.04.326.117l8.175 6.739 53.572-.596 6.825-6.13a.513.513 0 0 1 .342-.13h2.473a.512.512 0 1 1 0 1.023h-2.277l-6.822 6.127a.512.512 0 0 1-.337.131l-53.952.6h-.005z" fill="#93820A"/><g transform="translate(149.07)"><mask id="d" fill="#fff"><use xlink:href="#c"/></mask><path d="M9.071 38.965a.512.512 0 0 1-.51-.495l-.103-3.14a.954.954 0 0 0-.957-.924H.681a.512.512 0 0 1-.512-.544L2.266.534a.512.512 0 0 1 .511-.48h8.693c.242 0 .45.17.5.407l1.037 4.9 10.99-.276v-.943a.512.512 0 0 1 1.024 0v1.443a.512.512 0 0 1-.5.511l-11.914.299a.503.503 0 0 1-.514-.406l-1.038-4.91H3.258L1.226 33.381H7.5c1.074 0 1.944.841 1.98 1.915l.102 3.14a.512.512 0 0 1-.495.528H9.07" fill="#93820A" mask="url(#d)"/></g><path d="M158.025 17.14c-.135 0-.272.01-.411.029-1.631.23-2.958 1.74-2.958 3.363 0 .748.286 1.408.805 1.858.529.46 1.242.653 2.009.544 1.63-.231 2.957-1.74 2.957-3.363 0-.748-.286-1.408-.805-1.858a2.402 2.402 0 0 0-1.597-.574m-.972 6.848a3.41 3.41 0 0 1-2.263-.824c-.747-.647-1.158-1.582-1.158-2.63 0-2.114 1.722-4.077 3.838-4.377 1.064-.151 2.066.127 2.823.784.746.648 1.157 1.582 1.157 2.63 0 2.114-1.72 4.077-3.836 4.377a3.98 3.98 0 0 1-.56.04m-48.003 16.257a.513.513 0 0 1-.503-.607l.287-1.51a3.898 3.898 0 0 1 3.72-3.15l5.594-.13a3.861 3.861 0 0 1 3.838 2.882l.408 1.54a.512.512 0 1 1-.99.261l-.407-1.54a2.857 2.857 0 0 0-2.825-2.12l-5.594.13a2.87 2.87 0 0 0-2.739 2.318l-.286 1.51a.512.512 0 0 1-.503.416m117.933-9.066h-.032a8676.09 8676.09 0 0 0-8.82-.537.512.512 0 1 1 .061-1.021c2.404.145 7.158.434 8.822.536a.512.512 0 0 1-.03 1.022m-43.833-7.85h-.02a.512.512 0 0 1-.492-.53l.463-12.499a.512.512 0 1 1 1.023.038l-.463 12.498a.512.512 0 0 1-.511.493M1.108 38.587l10.536 31.09 19.35-2.467-10.272-31.534a.511.511 0 0 1 .115-.511l28.15-29.577L38.154 7.03l.048.09a.511.511 0 0 1-.12.63l-.703.6a.511.511 0 0 1-.319.122l-.67.018-3.793 3.235-.069.638a.511.511 0 0 1-.176.334l-1.42 1.21a.51.51 0 0 1-.26.118l-.924.13-1.799 1.535-.222.823a.512.512 0 0 1-.162.256l-1.19 1.016a.51.51 0 0 1-.25.116l-.952.158-1.85 1.578-.03.591a.511.511 0 0 1-.179.364l-1.573 1.342a.513.513 0 0 1-.227.112l-1.083.229-2.158 1.84.015.45a.512.512 0 0 1-.18.407l-1.902 1.623a.509.509 0 0 1-.217.11l-1.028.235-2.556 2.181-.004.456a.513.513 0 0 1-.18.384l-2.595 2.213a.51.51 0 0 1-.251.116l-.843.135-7.224 6.162zm10.204 32.22a.51.51 0 0 1-.178-.033l-.218.028a.513.513 0 0 1-.299-.963L.027 38.587a.511.511 0 0 1 .153-.553l7.596-6.48a.513.513 0 0 1 .252-.117l.843-.134 2.308-1.969.004-.455a.51.51 0 0 1 .18-.385l2.829-2.413a.512.512 0 0 1 .217-.11l1.028-.236 1.62-1.382-.016-.45a.511.511 0 0 1 .18-.406l2.444-2.085a.513.513 0 0 1 .226-.112l1.084-.228 1.307-1.115.029-.59a.512.512 0 0 1 .179-.365l2.126-1.814c.071-.06.157-.1.25-.116l.952-.157.962-.82.222-.824c.027-.1.083-.19.162-.256l2.032-1.734a.511.511 0 0 1 .26-.117l.925-.131 1.151-.982.069-.637a.511.511 0 0 1 .177-.335l4.086-3.485a.512.512 0 0 1 .319-.122l.67-.018.252-.215-.065-.121a.512.512 0 0 1 .12-.63l.382-.326a.514.514 0 0 1 .265-.118l12.484-1.662a.512.512 0 0 1 .438.86L21.79 35.649l10.37 31.832a.512.512 0 0 1-.422.665l-20.132 2.568a.51.51 0 0 1-.293.092z" fill="#93820A"/><path d="M17.044 88a.512.512 0 0 1-.496-.386L12.17 70.421a.512.512 0 0 1 .992-.252l4.274 16.785 201.429-11.267 3.76-16.698a.513.513 0 0 1 .998.225l-3.844 17.075a.512.512 0 0 1-.47.398L17.072 88l-.03.001" fill="#93820A"/><path d="M207.23 58.59H224l6.756-28.25-8.329-4.438-1.027-.076a.515.515 0 0 1-.203-.06l-2.667-1.42a.513.513 0 0 1-.175-.153l-.539-.748-3.288-1.753-1.247-.178a.509.509 0 0 1-.168-.055l-2.143-1.142a.511.511 0 0 1-.19-.176l-.433-.676-2.954-1.574-1.074-.098a.512.512 0 0 1-.194-.058l-1.523-.811a.51.51 0 0 1-.177-.157l-.518-.734-2.648-1.41-.934-.036a.51.51 0 0 1-.221-.06l-1.667-.888a.512.512 0 0 1-.182-.164l-.483-.712-2.177-1.16-1.035-.08a.513.513 0 0 1-.201-.058l-1.178-.627a.511.511 0 0 1-.215-.219l-.293-.572-2.087-1.113-1.104-.11a.511.511 0 0 1-.19-.058l-.906-.483a.51.51 0 0 1-.218-.226l-.275-.557-1.673-.892-.787-.12a.518.518 0 0 1-.164-.055l-.411-.219a.511.511 0 0 1-.17-.145l-.278-.372-8.684-.834 38.697 23.816c.19.117.282.344.228.56l-7.42 29.351zm17.175 1.023h-17.832a.512.512 0 0 1-.496-.637l7.489-29.623-40.255-24.775a.512.512 0 0 1 .317-.945L184.733 4.7a.512.512 0 0 1 .36.203l.347.462.234.124.787.12a.513.513 0 0 1 .164.055l1.895 1.01c.095.05.171.13.219.226l.274.557.672.358 1.104.111a.51.51 0 0 1 .19.058l2.317 1.235c.093.05.167.125.215.218l.293.573.942.502 1.035.08c.07.005.139.025.201.058l2.383 1.27c.073.04.136.095.183.164l.483.711 1.45.774.935.035a.512.512 0 0 1 .221.06l2.86 1.524a.51.51 0 0 1 .177.156l.517.734 1.324.706 1.074.097a.513.513 0 0 1 .195.058l3.163 1.686a.51.51 0 0 1 .19.176l.433.676 1.945 1.037 1.247.178a.509.509 0 0 1 .168.055l3.473 1.851a.51.51 0 0 1 .175.153l.539.748 2.466 1.314 1.028.077a.5.5 0 0 1 .203.059l8.772 4.674c.206.11.311.344.257.57l-6.94 29.028a.512.512 0 0 1-.498.392z" fill="#93820A"/><path d="M81.003 44.886a.511.511 0 0 1-.3-.098l-14.38-10.46-45.095 1.7a.51.51 0 1 1-.039-1.022l45.274-1.707a.526.526 0 0 1 .32.097l14.38 10.462 84.104-2.657 11.609-9.967a.514.514 0 0 1 .312-.123l36.71-1.579a.512.512 0 0 1 .044 1.022l-36.533 1.572-11.611 9.969a.513.513 0 0 1-.318.123l-84.46 2.668h-.017M115.388 82.5h-.003a.512.512 0 0 1-.508-.516l.012-1.67a5.735 5.735 0 0 1 5.483-5.688l7.95-.353c2.981-.133 5.595 2.082 5.953 5.042l.19 1.573a.512.512 0 0 1-1.016.122l-.19-1.573c-.294-2.431-2.444-4.248-4.89-4.142l-7.951.353a4.712 4.712 0 0 0-4.506 4.674l-.012 1.67a.512.512 0 0 1-.512.507M56.557 53.074c-.972 0-1.867.329-2.558.949-.784.703-1.216 1.703-1.216 2.816 0 2.376 1.956 4.523 4.36 4.785 1.156.127 2.236-.2 3.04-.922.785-.703 1.217-1.703 1.217-2.817 0-2.376-1.957-4.522-4.361-4.785a4.413 4.413 0 0 0-.482-.026m1.072 9.541c-.195 0-.391-.01-.59-.032-2.879-.315-5.22-2.891-5.22-5.744 0-1.39.545-2.646 1.536-3.534 1.011-.907 2.357-1.32 3.789-1.163 2.878.314 5.22 2.89 5.22 5.743 0 1.392-.545 2.647-1.536 3.535-.871.78-1.99 1.195-3.2 1.195M187.47 48.15c-.074 0-.15.003-.225.007-1.991.123-3.611 1.841-3.611 3.831 0 .95.368 1.818 1.036 2.446.67.63 1.564.943 2.516.885 1.991-.122 3.612-1.84 3.612-3.83 0-.95-.368-1.818-1.036-2.446a3.311 3.311 0 0 0-2.292-.893m-.51 8.14a4.265 4.265 0 0 1-2.951-1.154c-.864-.812-1.34-1.93-1.34-3.148 0-2.49 2.026-4.64 4.517-4.793a4.282 4.282 0 0 1 3.237 1.146c.864.811 1.34 1.93 1.34 3.147 0 2.49-2.027 4.64-4.518 4.793a4.462 4.462 0 0 1-.286.009" fill="#93820A"/><path d="M178.65 32.134a.512.512 0 0 1-.511-.55l.653-8.713a.512.512 0 0 1 .498-.473l13.601-.331a.504.504 0 0 1 .52.437l1.214 8.317a.512.512 0 0 1-1.013.148l-1.15-7.868-12.684.309-.618 8.25a.512.512 0 0 1-.51.474M47.122 35.052a.512.512 0 0 1-.512-.542l.43-7.33a.512.512 0 0 1 .5-.48l15.42-.363a.503.503 0 0 1 .512.404l1.512 7.037a.512.512 0 0 1-1 .215L62.56 27.37l-14.525.341-.402 6.859a.512.512 0 0 1-.51.482" fill="#93820A"/><path d="M69.502 36.52a.512.512 0 0 1-.032-1.023l10.262-.662L74.511 1.94l-8.406.44-1.122 4.88a.512.512 0 0 1-.487.398l-13.123.302a.501.501 0 0 1-.489-.325l-1.002-2.56a.512.512 0 1 1 .953-.372l.872 2.226 12.367-.285 1.12-4.87a.512.512 0 0 1 .471-.397l9.252-.483a.512.512 0 0 1 .532.43l5.382 33.905a.51.51 0 0 1-.472.59l-10.823.7a.62.62 0 0 1-.034 0M44.767 35.14a.512.512 0 0 1-.497-.39c-.012-.048-1.172-4.804-2.303-9.516a946.373 946.373 0 0 1-1.557-6.57c-.758-3.267-.758-3.267-.526-3.511a.512.512 0 0 1 .882.368c.119.89 2.743 11.793 4.498 18.987a.511.511 0 0 1-.497.632m31.047 5.971a.512.512 0 0 1-.013-1.023l93.786-2.444a.504.504 0 0 1 .525.498.512.512 0 0 1-.498.525L75.828 41.11h-.014" fill="#93820A"/><path d="M71.017 18.898a2.98 2.98 0 0 0-2.044.783c-.623.576-.967 1.385-.967 2.28 0 1.873 1.507 3.518 3.36 3.667.873.07 1.694-.204 2.31-.773.624-.575.968-1.384.968-2.279 0-1.874-1.507-3.519-3.36-3.667a3.35 3.35 0 0 0-.267-.011m.619 7.764c-.117 0-.234-.005-.352-.014-2.372-.19-4.302-2.293-4.302-4.687 0-1.184.46-2.26 1.297-3.032.829-.764 1.925-1.133 3.087-1.04 2.372.19 4.302 2.293 4.302 4.687 0 1.184-.46 2.26-1.297 3.031a3.992 3.992 0 0 1-2.735 1.055M87.779 14.26a.513.513 0 0 1-.326-.117L79.277 7.4h-3.462a.512.512 0 1 1 0-1.023h3.646a.51.51 0 0 1 .326.117l8.173 6.74 53.573-.596 6.825-6.13a.513.513 0 0 1 .343-.131h2.472a.512.512 0 1 1 0 1.023h-2.276l-6.823 6.128a.512.512 0 0 1-.337.131l-53.953.6h-.005z" fill="#93820A"/><path d="M158.142 38.965a.512.512 0 0 1-.512-.494l-.103-3.14a.953.953 0 0 0-.956-.925h-6.821a.511.511 0 0 1-.511-.544L151.337.535c.017-.27.24-.48.51-.48h8.693c.242 0 .451.17.501.406l1.036 4.901 10.99-.276v-.944a.512.512 0 0 1 1.024 0v1.443a.512.512 0 0 1-.499.511l-11.915.3a.508.508 0 0 1-.514-.406l-1.038-4.911h-7.797l-2.033 32.303h6.276c1.075 0 1.944.841 1.98 1.915l.103 3.14a.512.512 0 0 1-.495.528h-.017" fill="#93820A"/><path d="M158.024 17.14c-.135 0-.272.01-.411.03-1.63.23-2.957 1.739-2.957 3.362 0 .748.285 1.407.804 1.857.53.46 1.243.653 2.009.545 1.63-.231 2.957-1.74 2.957-3.363 0-.748-.286-1.407-.804-1.857a2.404 2.404 0 0 0-1.598-.574m-.97 6.847a3.412 3.412 0 0 1-2.265-.825c-.746-.648-1.157-1.582-1.157-2.63 0-2.113 1.721-4.076 3.837-4.376 1.064-.15 2.067.128 2.824.785.746.647 1.157 1.581 1.157 2.63 0 2.113-1.722 4.076-3.837 4.376-.189.027-.376.04-.56.04m-48.002 16.258a.512.512 0 0 1-.503-.607l.287-1.511a3.898 3.898 0 0 1 3.72-3.15l5.593-.13a3.857 3.857 0 0 1 3.84 2.882l.407 1.538a.512.512 0 1 1-.99.262l-.408-1.537a2.851 2.851 0 0 0-2.825-2.122l-5.593.13a2.869 2.869 0 0 0-2.738 2.318l-.288 1.511a.512.512 0 0 1-.502.416m117.934-9.067a.54.54 0 0 1-.032-.001l-8.822-.536a.512.512 0 1 1 .062-1.021l8.822.536a.511.511 0 0 1-.03 1.022" fill="#93820A"/></g></svg>