<svg width="864" height="611" viewBox="0 0 864 611" xmlns="http://www.w3.org/2000/svg" xmlns:xlink="http://www.w3.org/1999/xlink"><title>mapa coco</title><defs><path id="a" d="M0 .085h102.996v160.277H0z"/></defs><g fill="none" fill-rule="evenodd"><path d="M225.306 81.16c.949 5.526 2.429 10.972 3.137 16.522 1.23 9.639.35 19.276-.967 28.858-.13.938-.738 2.258-1.478 2.575-1.806.773-1.921 2.073-1.88 3.637.146 5.537.642 11.1.286 16.606-.26 4.055-.73 7.96.515 11.953.68 2.17-.348 3.314-2.632 3.355-2.845.05-5.699-.005-8.538-.191-2.535-.166-2.778-.147-2.574 2.452.553 7.075 4.388 12.763 7.992 18.55.634 1.016 1.304 2.249 1.297 3.38-.018 3.134-.464 6.264-.567 9.4-.035 1.022.164 2.307.773 3.048 3.301 4.026 7.106 7.16 12.875 5.878.215-.047.451.012.673-.014 1.45-.176 2.22.497 2.566 1.881.87 3.487 1.89 6.94 2.668 10.446.745 3.358 1.284 6.763 1.867 10.156.355 2.066 1.372 3.395 3.545 3.76 1.993.334 3.96.81 5.948 1.178 1.665.307 2.536 1.248 3.023 2.893.456 1.546 1.192 3.052 2.041 4.432 1.403 2.278 2.939 4.483 4.548 6.621.444.59 1.303 1.06 2.045 1.2 1.761.33 3.563.564 5.353.597 4.3.078 6.764-2.361 7.059-6.537.135-1.916.069-4.273 1.13-5.602 1.959-2.452 2.079-4.79 1.331-7.518-.453-1.65.273-2.584 1.935-2.852.666-.107 1.325-.34 1.989-.344 2.318-.019 3.088-1.135 3.01-3.414-.117-3.33.836-6.23 4.312-7.642a2.63 2.63 0 0 0 1.183-.992c1.3-2.122 2.758-1.59 4.292-.342 1.507 1.226 2.833 2.876 4.552 3.598 3.422 1.443 6.16 3.51 8.53 6.351 1.87 2.245 3.455 2.229 5.83.592 1.262-.868 2.7-1.483 3.913-.339 1.538 1.45 3.02 1.167 4.763.671 3.414-.975 6.207.029 7.879 2.647 1.413 2.212 1.784 2.302 3.563.258 2.062-2.371 3.927-4.914 5.961-7.31 2.227-2.625 5.08-3.581 8.479-2.902 1.761.353 3.536.64 5.305.959 2.529.458 3.095-.062 2.89-2.684-.036-.446-.13-.888-.206-1.33-1.494-8.857-2.957-17.718-4.499-26.566-.59-3.386-.15-6.336 1.937-9.29 4.408-6.24 8.496-12.707 12.657-19.119 1.753-2.7 3.385-5.48 5.02-8.253.809-1.375.425-2.183-1.119-2.93-3.745-1.813-7.37-3.875-11.026-5.869-.45-.244-.762-.727-1.198-1.01-1.357-.88-2.77-1.679-4.11-2.582-2.145-1.447-4.374-2.807-6.337-4.475-2.023-1.718-3.49-4.207-5.687-5.576-6.071-3.789-7.255-9.84-8.372-16.088-.429-2.4-1.116-4.766-1.86-7.093-.522-1.63-1.413-3.14-2.01-4.753-2.12-5.746-5.83-10.004-11.443-12.588-.846-.39-1.636-1.04-2.265-1.737-4.312-4.781-8.568-9.612-12.864-14.405-.494-.553-1.15-.956-1.696-1.469-1.94-1.824-4.162-3.446-5.726-5.554-2.082-2.806-3.587-6.033-5.475-8.993-.488-.765-1.454-1.672-2.251-1.724-8.743-.572-17.498-.95-26.244-1.457a1599.445 1599.445 0 0 1-25.105-1.635c-1.575-.117-2.272.345-2.325 1.866-.114 3.214-.287 6.427-.326 9.641-.057 4.534-.015 4.534-4.419 4.105-.373-.036-.748-.052-1.123-.076-2.755-.104-3.572.548-3.417 3.379.18 3.28.51 6.574 1.067 9.81" fill="#FFFC88"/><path d="M193.406 212.748c-1.434 2.03-.394 3.08 1.117 3.708 2.6 1.084 2.85 2.875 2.394 5.277-.242 1.277-.043 2.637-.043 3.96l.661.115c.519-1.12.953-2.29 1.594-3.335.297-.484.973-.918 1.524-.986.267-.033.762.795.94 1.307.23.663.249 1.4.4 2.368.821-.327 1.395-.46 1.864-.76 2.466-1.569 5.151-2.908 7.298-4.837 3.429-3.083 6.619-6.46 9.653-9.934 1.301-1.491 1.707-3.676.04-5.313-2.506-2.46-3.163-5.424-2.56-8.644.593-3.158.317-6.12-1.06-8.972-1.172-2.428-2.615-4.733-3.661-7.21-1.651-3.907-3.319-7.841-4.508-11.902-.941-3.215.55-4.826 3.898-4.914 2.622-.068 5.249-.036 7.872.022 1.659.037 2.156-.637 2.124-2.31a1913.227 1913.227 0 0 1-.342-30.1c-.002-.716.728-1.467 1.198-2.145.625-.905 1.806-1.698 1.919-2.638.587-4.897 1.074-9.819 1.276-14.745.172-4.18.296-8.429-.248-12.557-.88-6.664-2.329-13.252-3.531-19.875-.507-2.79-1.51-5.614-1.335-8.362.143-2.245-.641-2.602-2.305-2.774-.819-.085-1.647-.088-2.469-.162-14.838-1.327-29.68-2.635-44.516-4.006-4.68-.433-9.414-.54-13.765-2.821-14.004-7.342-28.078-14.552-42.085-21.889-17.262-9.042-34.483-18.165-51.737-27.223-.545-.285-1.34-.497-1.876-.318-1.685.562-3.389 4.055-2.894 5.783.994 3.468 1.002 6.894.127 10.414-.228.916.367 2.187.91 3.103.63 1.067 1.808 1.815 2.418 2.891 1.713 3.015 3.87 5.239 7.608 5.338.368.01.749.402 1.084.665 1.05.826 2.176 1.583 3.087 2.542.774.814 1.795 1.86 1.817 2.825.051 2.127 1.208 2.666 2.888 3.359 4.04 1.67 8.872.477 12.652 3.828l-.36-3.16c4.203 2.838 4.518 4.455 1.773 7.099.769 2.234 1.48 4.161 2.094 6.12.818 2.606 1.355 5.321 2.381 7.838 1.718 4.216 3.707 8.322 5.63 12.451.464.997.894 2.328 1.73 2.772 2.322 1.231 2.719 3.254 2.847 5.465.2 3.437.166 6.894.517 10.313.14 1.358.782 2.848 1.645 3.915 3.054 3.781 6.02 7.51 5.591 12.809-.118 1.45.506 2.471 2.048 3.085.95.378 1.946 1.317 2.352 2.252.821 1.89 1.592 3.918 1.784 5.948.484 5.147 2.685 8.734 7.876 10.152.42.113.737.598 1.29 1.072-2.809 1.456-1.868 3.108-.618 4.824.748 1.027 1.763 2.039 2.03 3.202.692 2.991 2.873 4.236 5.36 5.242 2.04.826 3.26 2.297 3.808 4.403a151.292 151.292 0 0 0 1.565 5.626c.347 1.154 1.078 1.874 2.356 1.31 1.339-.59 1.745.036 2.302 1.176.709 1.446 1.827 2.691 2.768 4.023l.65-.307 1.4-4.332.776.06c.693 2.087.751 4.594 3.101 5.397.673-.3 1.252-.811 1.726-.726 1.86.331 3.257 2.647 2.96 4.619-.577 3.837-2.711 7.7.182 11.492.118.154.066.436.094.66.745 5.754 5.984 10.25 11.868 10.4 1.516.038 3.079.503 4.502 1.07 1.342.535 2.606 1.388 1.42 3.243-.222.347-.096 1.057.097 1.501 1.07 2.47 2.14 4.943 3.375 7.33.323.624 1.169 1.124 1.88 1.367 1.21.413 2.502.576 3.792.853l-1.182-2.017 3.972-.74c.39 1.032 1.62 2.81 1.19 3.42m159.447-29.412c-.51.902-.867 2.149-.697 3.137 1.692 9.81 3.52 19.597 5.288 29.394.71 3.93 2.15 7.415 5.218 10.19 1.54 1.39 2.748 3.163 4.023 4.826 1.773 2.313 2.433 4.889 1.89 7.822-.434 2.35-.453 4.778-.937 7.113-.815 3.932-1.408 8.002-2.939 11.661-1.183 2.829-2.537 5.034.667 7.194.116.078.185.234.265.36.754 1.199.544 1.978-.958 2.19-.781.11-1.562.217-2.43.337.078.549.034.881.169 1.109 2.407 4.057 4.732 8.17 7.335 12.098.648.977 2.148 1.54 3.372 1.954 2.044.692 4.236.961 6.26 1.699 1.3.473 1.954.257 2.47-.932.896-2.062 1.839-4.1 2.73-6.163 1.064-2.46 2.698-3.92 5.568-4.158 8.15-.673 15.5 1.968 22.721 5.182 1.251.557 2.305 1.58 3.395 2.457.766.618 1.726 1.229 2.087 2.064.554 1.282 1.316 1.842 2.581 1.51 4.228-1.106 7.149-.117 8.78 4.369.779 2.144 2.717 3.727 5.391 3.803 1.088.032 2.17.293 3.43.476-.029.085.11-.178.145-.455.4-3.235.816-6.47 1.141-9.713.044-.437-.345-.956-.62-1.381-1.69-2.635-1.47-5.028.75-7.804 2.216-2.767 4.145-3.317 7.198-2.268 2.567.884 5.148.836 7.694-.301-.633-.565-1.278-.924-1.97-1.12-3.893-1.103-7.21-2.846-8.634-7.027-.245-.715-.941-1.414-1.612-1.824-4.048-2.477-5.545-6.319-5.939-10.774-.321-3.654-1.67-6.769-4.442-9.282-1.155-1.046-2.044-2.386-3.056-3.589-1.214-1.445-1.21-2.818.196-4.15 3.762-3.562 7.553-7.022 12.701-8.599 3.897-1.194 5.99-7.907 3.635-11.211-.688-.964-1.38-1.489-2.822-.973-1.27.455-3.591.714-4.047.07-.732-1.035-.39-2.889-.335-4.391.02-.534.498-1.074.826-1.57 1.983-2.996 4.867-4.626 8.332-5.214 2.884-.49 4.548-2.046 5.03-4.939.207-1.25.465-2.516.89-3.707 1.32-3.693 4.788-4.616 7.733-2.116.4.34.823.663 1.162 1.058.83.97 1.578.805 2.488.056 3.079-2.531 3.886-7.154 1.43-10.3-1.864-2.391-4.13-4.47-6.218-6.69-.969-1.031-2.209-1.918-2.856-3.123-2.283-4.263-4.68-8.51-6.443-12.995-2.29-5.826-4.208-11.728-7.838-16.99-1.849-2.678-3.908-4.776-6.833-5.84-2.501-.909-5.046-2.193-7.912-1.237-.355.117-1.117-.202-1.284-.527-.18-.346-.034-1.076.246-1.4.767-.892 1.678-1.66 2.389-2.34-.645-1.075-1.46-1.935-1.694-2.931-.43-1.835-1.494-2.961-3.178-3.432-1.79-.5-3.634-.914-5.48-1.082a1224.82 1224.82 0 0 0-21.259-1.728c-1.16-.086-2.629-.24-3.469.34-3.774 2.608-7.275 5.547-8.526 10.292-1.022 3.874-3.22 7.027-5.923 9.926-1.728 1.852-3.434 3.79-4.782 5.922-6.393 10.109-12.647 20.305-18.982 30.45-1.11 1.778-2.482 3.399-3.51 5.217" fill="#FFFC88"/><path d="M338.683 354.394c.425-6.27.76-12.548 1.397-18.797.377-3.688.777-7.467 3.395-10.505 2.736-3.179 5.84-6.15 5.417-10.974-.12-1.353.37-2.837.885-4.14.385-.976 1.171-1.85 1.934-2.613 3.157-3.16 6.529-6.124 9.492-9.454 1.225-1.375 2.311-2.254 4.107-2.126 2.986.215 5.965.578 8.953.671 4.996.158 9.998.165 14.997.204 1.17.009 2.225-.4 1.965-1.817-.9-4.91-1.856-9.81-2.902-14.69-.183-.847-.907-1.579-1.55-2.644-.542.854-.933 1.31-1.15 1.836-.886 2.144-1.717 4.312-2.573 6.47-.674 1.694-1.453 2.351-3.357 1.121-1.438-.927-3.307-1.476-5.029-1.605-2.528-.19-4.602-1.083-5.97-3.078-2.45-3.577-4.728-7.277-6.942-11.006-.587-.987-1.295-2.61-.883-3.352 1.385-2.493.537-5.1 1-7.57.388-2.073 1.818-3.928 2.504-5.974.604-1.803 1.315-3.8 1.096-5.603-.412-3.391-.257-6.57 1.265-9.627.937-1.883.79-3.713-.462-5.282-2.792-3.504-5.586-7.026-8.67-10.265-1.08-1.137-2.97-1.583-4.564-2.134-1.327-.457-2.793-.505-4.143-.912-3.663-1.103-7.071-.134-9.472 2.863-1.078 1.345-1.998 2.82-3.129 4.114-1.224 1.4-2.523 2.767-3.956 3.944-1.206.99-2.465.867-3.452-.573-2.601-3.803-3.803-4.124-8.297-2.99-1.16.293-2.601.032-3.763-.389-1.29-.467-2.476-.958-3.488.215-1.373 1.588-2.898 1.485-4.407.49-1.484-.98-2.833-2.173-4.201-3.318-1.203-1.004-2.238-2.254-3.547-3.077-3.068-1.93-6.257-3.67-9.407-5.493-.756.718-1.514 1.806-2.558 2.358-2.723 1.448-3.754 3.016-3.197 6.172.377 2.137-.53 3.288-2.346 3.987-.695.268-1.434.55-2.161.576-1.864.067-2.337.823-2.183 2.719.145 1.767.087 3.962-.841 5.309-1.46 2.115-2.106 4.205-2.13 6.67-.047 4.923-1.222 6.457-6.067 7.296-2.637.455-5.36.461-8.047.549-1.389.045-2.037.51-2.083 1.969-.122 3.888-.58 7.78-.467 11.658.138 4.63 1.41 8.841 4.994 12.289 3.643 3.5 6.375 7.786 7.883 12.664 1.046 3.379 1.656 3.947 5.188 3.393.738-.116 1.485-.259 2.186-.508 1.946-.691 3.473-.07 4.9 1.285 3.348 3.177 5.025 7.151 5.968 11.587 1.16 5.459 2.513 10.877 3.821 16.305.135.56.497 1.08.81 1.584.907 1.463 2.266 2.797 2.683 4.382 1.082 4.113 5.803 4.487 7.566 7.804.102.191.698.09 1.049.18 3.16.819 6.339 1.573 9.455 2.531.76.234 1.732 1.06 1.889 1.77.913 4.162 2.741 8.467-1.042 12.26-.27.271-.346.735-.79 1.74 1.593-.742 2.627-1.24 3.673-1.71 4.094-1.838 6.616-.778 8.365 3.266.501 1.163 1.35 2.566 2.405 3.028 4.064 1.784 7.687-.639 7.984-5.033M641.54 557.101c2.737 1.326 5.43 2.74 8.535 4.326-.139-1.098-.1-1.976-.379-2.738-.539-1.472-1.157-2.935-1.93-4.297-.85-1.496-.893-2.887-.3-4.488 2.029-5.479 3.967-10.991 5.921-16.496 1.047-2.948.752-3.407-2.346-3.516-5.616-.199-11.232-.341-16.846-.536-2.846-.097-5.696-.156-8.523-.446-.787-.08-1.961-.778-2.153-1.429-.53-1.799-1.91-2.451-3.226-3.465-2.692-2.074-5.217-4.406-7.548-6.88-.804-.853-.83-2.44-1.295-3.97-2.14 1.293-4.58 2.602-6.837 4.173-2.964 2.059-6.03 2.125-9.175.778-3.227-1.383-5.14-7.066-3.29-9.829 1.686-2.519 1.723-5.128.533-7.676-1.159-2.48-3.757-1.874-5.919-2.282-2.288-.43-5.01-.745-6.599-2.165-2.055-1.84-3.363-4.627-4.648-7.182-1.262-2.508-2.538-4.827-5.622-5.145-.597-.061-1.727.583-1.852 1.088-1.151 4.697-3.681 8.642-6.438 12.502-1.954 2.734-4.622 3.96-7.88 4.035a215.08 215.08 0 0 1-7.87.023c-1.815-.022-3.372.296-4.46 1.998-.678 1.06-1.834 1.634-2.724.279a56.787 56.787 0 0 1-3.514-6.197c-.759-1.555-1.51-1.823-2.826-.626-1.816 1.654-2.117 3.632-1.29 6.063.375 1.097.7 3.02.167 3.432-.843.652-2.45.552-3.69.402-1.922-.233-3.792-.909-5.713-1.158-3.4-.44-5.351.8-5.648 4.182-.34 3.846-.102 7.75-.013 11.627.102 4.451 2 8.117 5.345 10.98 3.298 2.822 5.088 6.317 5.728 10.604.283 1.905-.19 3.028-1.568 4.265-3.901 3.501-7.67 7.148-11.455 10.777-.65.623-1.11 1.439-2.044 2.674 7.532-.545 13.104 2.244 18.101 6.77 1.281 1.16 3.348 1.7 5.142 1.991 3.39.55 6.848.687 10.273 1.043 4.346.452 8.42 1.498 12.358 3.688 5.313 2.96 11.245 4.57 17.354 4.748 4.96.146 9.518-1.6 13.846-4.065 2.318-1.32 4.927-2.134 7.412-3.16 5.62-2.322 11.672-3.74 15.99-8.628 1.049-1.187 3.086-1.785 4.766-2.065 2.911-.484 5.896-.508 8.85-.724l-.024-.518h-4.093l-.07-.372c.616-.307 1.23-.616 1.436-.719l-2.1-1.755c1.176-1.257 2.137-3.054 3.585-3.633 1.735-.694 2.235 1.14 2.472 2.628.043.268.247.511.421.855 1.477-.635 2.86-1.678 4.267-1.715 1.42-.036 2.985.805 3.139 2.797l-3.393.627.01.685c2.82.52 5.688.868 8.447 1.61 2.76.743 5.413 1.879 8.113 2.84-2.086-1.39-4.366-2.299-6.585-3.343a5.504 5.504 0 0 1-2.01-1.634c-.263-.353-.168-1.265.128-1.635.208-.262 1.114-.219 1.558-.003M343.43 458.217c2.882-.398 5.823-.426 8.743-.498 4.448-.11 6.373 1.79 6.509 6.344.025.817-.082 1.644-.2 2.455a195.79 195.79 0 0 1-.979 6.21c-.299 1.675.384 2.217 1.977 1.939 1.618-.286 3.293-.9 4.856-.699 2.822.362 4.857-.85 7.028-2.302 3.216-2.151 6.653-3.972 9.881-6.107 1.533-1.014 2.87-2.36 4.15-3.696.441-.463.441-1.348.643-2.039-.685-.192-1.37-.544-2.055-.543-1.287.002-2.472-.082-2.89-1.535-.865-3.013-1.994-6.026-.854-9.218.53-1.485-.072-2.332-1.432-2.733-2.653-.78-5.297-1.621-7.995-2.204-2.532-.546-3.04-1.384-2.284-3.913 1.18-3.95 4.394-4.683 7.805-5.372 2.701-.546 5.673-.836 7.94-2.206 3.528-2.132 7.242-3.11 11.176-3.757 1.321-.218 2.681-.493 3.892-1.035 2.517-1.127 4.503-4.463 3.449-5.992-2.307-3.345-1.061-5.98 1.057-8.744 1.998-2.606 3.7-5.438 5.665-8.07.997-1.336 2.103-2.775 3.499-3.58 1.684-.974 2.383-2.064 2.216-3.936-.26-2.922.425-5.598 2.006-8.129.857-1.371 1.347-2.998 1.823-4.565.154-.507-.063-1.462-.45-1.747-2.384-1.748-4.864-3.362-7.582-5.205-2.282 2.028-4.931 4.121-7.27 6.517-4.156 4.259-8.679 5.593-14.183 2.713-1.214-.634-2.736-1.047-4.077-.961-1.118.068-2.179 1.017-3.265 1.577.458.876.774 1.875 1.402 2.606 1.923 2.236 2.364 4.31.706 6.512-2.623 3.488-5.854 6.312-10.444 6.743-7 .659-14.014 1.169-21.027 1.69-.629.047-1.37-.155-1.916-.481a53.988 53.988 0 0 1-4.467-2.958c-.943-.695-1.616-1.52-.698-2.83a71.803 71.803 0 0 0 3.507-5.529c1.037-1.808 1.96-3.687 2.858-5.572.559-1.171 1.209-2.375 1.407-3.629.477-3.016 2.064-4.563 5.06-4.797 1.125-.089 2.219-.557 3.264-.836l-1.751-2.57c.933-.351 1.86-.715 2.802-1.044.2-.07.497.069.662-.03.947-.575 2.31-.983 2.713-1.834 1.144-2.427 1.97-5.016 2.749-7.594.2-.662-.066-2.084-.405-2.183-1.741-.513-3.604-1.058-5.37-.915-1.702.139-2.128 1.868-2.284 3.445-.455 4.635-2.407 5.908-6.975 4.66-1.305-.357-1.916-.946-1.615-2.388.641-3.07 1.252-6.149 1.726-9.247.117-.77-.336-1.629-.528-2.445-.272.029-.544.058-.817.09-.436 1.01-.822 2.046-1.32 3.028-.845 1.662-1.675 3.343-2.69 4.9-.332.51-1.219.659-1.853.972-.18-.67-.636-1.403-.498-2 .99-4.315 1.25-8.917 4.601-12.296-.161-.235-.24-.46-.331-.465-1.405-.067-3.063-.598-4.162-.039-1.676.854.01 1.988.455 2.952 1.295 2.798-.065 5.205-3.117 5.474-3.687.324-4.926 1.349-5.933 5.004-.457 1.66-.698 3.39-1.271 5.006-.989 2.78-.498 4.93 1.863 6.868 2.872 2.36 4.287 5.255 2.508 9.073-.947 2.03-.169 3.724 1.63 5.083 1.734 1.312 2.331 3.06 1.377 5.167-.931 2.062-3.11 3.344-5.227 3.159-.75-.064-1.526.134-2.29.212.244.804.314 1.727.765 2.391 1.38 2.03 1.594 3.946.075 6.01-.565.768-.93 1.71-1.257 2.622-.651 1.814-1.213 3.663-1.956 5.941-2.7-2.3-4.887-4.485-7.405-6.175-1.43-.96-3.787-2.01-5.063-1.465-4.668 1.992-10.026 3.068-13.194 7.619-3.077 4.421-6.952 7.535-12.402 8.411-.355.057-.687.293-1.015.473-2.193 1.205-2.478 2.097-1.314 4.356 2.393 4.645 3.29 10.024 6.986 14.046.556.606.491 1.741.955 2.48 1.13 1.799 2.303 3.59 3.643 5.234 1.539 1.89 3.316 3.584 4.915 5.427 1.125 1.295 1.92 2.961 3.232 3.988 1.906 1.493 4.089 2.673 6.266 3.76 1.2.6 2.687 1.17 3.944 1 4.077-.553 8.13-1.354 12.141-2.275 1.314-.303 2.468-1.286 3.71-1.927 1.277-.662 2.522-1.66 3.874-1.847zm128.174-255.766c1.932 3.775 2.985 7.81 2.37 12.141-.155 1.091-.353 2.384 1.238 2.685 1.889.36 1.865 1.495 1.5 3.016-.93 3.872-.902 3.959 3.04 4.793 1.987.42 2.75 1.47 2.747 3.432-.004 1.485.16 2.991.44 4.451.407 2.127 1.485 3.766 3.824 4.169 1.428.245 2 1.12 2.046 2.512.078 2.418 1.495 3.317 3.759 3.959 3.045.862 5.935 2.09 9.183 1.088.451-.14 1.031.204 1.547.189 1.678-.05 2.12.828 2.198 2.373.192 3.883.504 7.762.852 11.636.152 1.696.614 3.172 2.713 3.604 1.843.38 2.338 1.703 1.01 3.127-4.477 4.799-9.695 8.672-15.59 11.6-.32.16-.727.16-1.096.217-3.173.491-3.97 1.515-4.72 4.737-.366 1.574-1.15 3.387-2.342 4.361-2.452 2.004-5.297 3.534-8 5.227-1.419.888-2.881 1.708-4.555 2.693 2.467 2.606 3.188 5.491 2.346 8.548-.913 3.304-.132 6.018 2.02 8.522.432.502.744 1.127 1.03 1.734 1.074 2.265.75 4.144-.914 6.005-1.201 1.342-2.612 1.781-4.422 1.598-5.41-.544-6.53.277-7.698 5.624-.364 1.669-.414 3.41-.572 5.121-.126 1.37-.737 2.063-2.196 1.785-1.83-.348-2.158.71-2.14 2.22.015 1.282.505 1.976 1.542 2.886 1.603 1.405 2.826 3.385 3.795 5.329.766 1.537-.521 2.704-1.559 3.872-1.173 1.319-.43 3.625 1.338 4.234 3.673 1.264 7.397 2.381 11.095 3.558.817-2.299 1.82-2.726 4.017-1.654 2.556 1.252 4.216 3.352 5.12 5.997.727 2.124 2.213 3.149 4.328 3.344 8.692.806 17.294.209 25.843-1.564 1.139-.236 2.579.037 3.635.564 1.518.757 2.82 1.954 4.2 2.982 1.042.777 2.061 1.581 3.092 2.372.178-.095.356-.19.532-.286-.18-2.116-.36-4.233-.52-6.08-.881-.57-2.096-1.114-2.04-1.36.47-2 1.072-3.987 1.845-5.89.465-1.144 1.584-2.048 1.934-3.204 1.125-3.721 1.04-7.495.252-11.317-1.859-9.019-1.671-18.169-1.503-27.307.01-.507.193-1.012.295-1.52l.958.362c.511-2.594 1.169-5.22 1.493-7.887.136-1.123-.431-2.33-.678-3.499l-.661.141-.742 1.554-.75-.044-1.101-11.166 2.342.64c.695-2.935-1.025-6.078 1.473-8.537.147-.145-.117-.681-.152-1.04a296.95 296.95 0 0 1-.417-4.58c-.037-.44.181-1.065-.042-1.304-1.385-1.492-.76-2.407 1.16-3.054-2.04-1.235-2.655-3.028-1.29-4.328 2.455-2.335 3.032 1.528 5.1 1.962l.854-5.777c2.967 1.041 3.53 2.068 2.62 4.696-1.666 4.81-3.618 9.54-4.971 14.435-.21.754-1.725 5.259-1.156 5.541.944.47 1.162-2.591 1.279-3.09a76.07 76.07 0 0 1 1.345-4.987 75.683 75.683 0 0 1 3.591-9.406c3.175-6.902 6.084-13.854 7.173-21.427.115-.805-.216-1.674-.338-2.514-.91.174-1.863.236-2.713.566-.501.194-.95.75-1.232 1.25-1.066 1.91-2.602 1.91-4.194.948-1.137-.685-2.008-1.808-3.137-2.514-1.476-.923-3.012-2.022-4.66-2.339-2.999-.574-6.127-.443-9.143-.956-2.296-.39-4.551-1.19-6.73-2.045-2.106-.83-3.996-2.315-6.148-2.88-2.935-.77-5.6-1.71-8.115-3.556-1.84-1.35-4.3-2.031-6.59-2.534-1.707-.376-2.6-1.058-3.162-2.665-.483-1.385-1.367-2.627-2.01-3.962-.691-1.434-1.305-2.905-1.958-4.359-.057-.127-.15-.238-.234-.369-.398.24-.8.48-1.06.635-.84-2.44-1.64-4.756-2.44-7.072-.488-1.413-1.189-2.79-1.43-4.242-.767-4.619-1.395-9.26-2.018-13.9-.415-3.073-3.16-4.771-5.89-3.409-1.791.895-3.434 2.09-5.113 3.131 1.51 2.008 3.066 3.58 4.028 5.458" fill="#FFFC88"/><path d="M761.988 546.642c-2.621-1.012-4.652-2.447-5.807-5.21-1.221-2.92-3.506-4.977-6.504-6.209-2.302-.948-4.815-1.677-6.766-3.13-4.618-3.436-8.958-7.243-13.404-10.906-.287-.236-.629-.485-.775-.805-.96-2.14-2.913-2.874-4.91-3.583a11.032 11.032 0 0 1-1.835-.843c-1.553-.904-2.572-1.898-1.555-3.982.756-1.55-.025-2.866-1.582-3.692-1.518-.805-3.138-1.514-4.453-2.586-2.653-2.167-5.254-3.045-8.242-.714-.336.262-.83.417-1.262.444-2.286.145-3.925 1.419-5.283 3.078-1.465 1.792-2.784 3.705-4.215 5.528a172.287 172.287 0 0 1-4.534 5.556c-1.351 1.581-2.764 1.383-4.294.11-1.014-.846-2.155-1.92-3.354-2.09-3.124-.445-4.261-2.453-4.856-5.107-.326-1.46-.408-2.997-.91-4.39-.594-1.65-1.235-3.439-2.37-4.708-1.866-2.087-3.757-1.82-5.045.637-.842 1.605-1.601 3.535-1.512 5.274.12 2.29-.732 3.799-2.057 5.43-.95 1.174-1.877 2.634-2.097 4.074-.532 3.486-2.025 6.155-4.94 8.18-1.112.772-2.21 1.94-2.696 3.17-2.036 5.151-3.728 10.437-5.758 15.59-1.648 4.183-2.059 8.212.117 12.33.55 1.04.631 2.32 1.107 3.41.306.703.83 1.645 1.446 1.819 2.088.59 3.146 1.39 1.298 3.527l12.323 8.46c.05-1.015.069-1.429.118-2.458 1.277.968 3.09 1.784 3.023 2.395-.217 2.004 1.263 2.497 2.25 3.472 1.436 1.42 2.95 2.77 4.303 4.266 3.254 3.597 6.63 6.886 11.704 7.866 1.534.296 2.914 1.414 4.346 2.19.128.071.119.399.2.712l-1.705.793c1.887 1.863 3.595 3.639 5.398 5.31 3.626 3.363 7.256 6.722 10.977 9.976 2.145 1.876 3.687 1.295 4.208-1.508.23-1.239.084-2.542.2-3.807.213-2.377-.016-4.959.862-7.072 1.252-3.02.89-5.259-1.267-7.55-1.922-2.046-2.064-4.384-.703-6.832 3.498-6.282 7.157-12.482 10.41-18.889 1.292-2.545 3.019-3.374 5.598-3.504 11.07-.557 22.133-1.23 33.205-1.73 2.017-.09 2.793-.616 2.684-2.73-.098-1.908-.083-3.962.522-5.734.946-2.764 1.199-2.747-1.608-3.828" fill="#FFFC88"/><g transform="translate(0 .132)"><mask id="b" fill="#fff"><use xlink:href="#a"/></mask><path d="M40.7 106.988c.59.544 1.424.815 2.087 1.292 1.857 1.332 4.09 2.39 5.435 4.128 2.503 3.236 4.475 6.88 6.682 10.345.558.877.982 2.034 1.793 2.52 2.549 1.53 3.717 3.99 5.072 6.42 1.124 2.014 2.234 4.248 3.94 5.685 3.323 2.799 3.116 6.013.976 10.156-.966 1.866-1.01 2.822 1.41 3.178-.47 1.314-.867 2.43-1.268 3.543-.828 2.291-.688 2.593 1.668 2.918 3.04.42 6.084.832 9.14 1.121 7.6.718 15.21 1.355 22.815 2.046 1.828.166 2.824-.59 2.478-2.428-.577-3.051-1.406-6.057-1.993-9.108-.385-1.996-1.366-3.123-3.398-3.641-3.112-.794-4.25-2.373-4.547-5.629-.102-1.116-.106-2.264-.4-3.331-.17-.622-.75-1.487-1.273-1.59-1.722-.336-2.047-1.542-2.287-2.922-.281-1.613-.85-2.23-2.318-.843-.376.355-1.723.383-1.744.308-.4-1.379-1.236-2.979-.851-4.172 1.255-3.906.508-7.506-1.8-10.469-4.222-5.425-8.883-10.512-13.412-15.696-.51-.584-1.298-1.05-2.047-1.277-1.759-.533-2.916-1.31-2.806-3.437.04-.777-.656-1.606-1.063-2.387-1.222-2.342-3.337-4.602-3.53-7.02-.467-5.875-.01-11.819.005-17.736.006-2.76.033-5.544-.312-8.272-.165-1.302-1.548-2.44-1.745-3.748-.954-6.34-.372-12.56 2.381-18.426 1.237-2.636 1.143-4.12-.808-6.311-1.167-1.31-2.267-2.68-3.502-4.151 3.248-.9 3.716-1.47 3.765-4.663.023-1.489.254-3.181-.34-4.435-1.87-3.944-.25-6.693 2.516-9.276 1.038-.972 2-2.03 2.934-3.104.56-.643.998-1.391 1.69-2.373-1.083-.264-1.776-.536-2.485-.587-10.904-.788-21.806-1.593-32.715-2.295A989.152 989.152 0 0 0 7.735.104C5.32.004 2.89.329 0 .484c.658 1.617 1.115 2.69 1.532 3.778 1.15 3.003 2.535 5.944 3.363 9.034 1.074 4.01 2.734 7.484 6.036 10.158.559.454.358 1.846.509 2.804-.774-.05-1.549-.083-2.32-.16-.384-.039-.759-.162-1.223-.267.426 1.71.742 3.226 1.19 4.702.485 1.6.831 3.329 1.698 4.715 2.96 4.736 5.878 9.397 5.61 15.346-.054 1.182.886 2.425 1.426 3.615.523 1.15 1.388 2.213 1.63 3.41.59 2.918.946 5.886 1.318 8.846.248 1.966.362 3.95.584 6.464l1.761-3.004c.773 1.725 1.445 3.004 1.927 4.353.61 1.711 1.378 3.456 1.502 5.228.13 1.822-.54 3.688-.648 5.548-.06 1.043.197 2.145.513 3.16.424 1.364 1.062 2.662 1.569 4.002.543 1.436.656 3.264 1.63 4.27 3.54 3.653 7.346 7.051 11.093 10.502" fill="#FFFC88" mask="url(#b)"/></g><path d="M182.186 315.225c-2.233-1.463-3.453-3.469-3.932-6.01-.455-2.427-.918-4.853-1.323-7.288-.218-1.313-.705-2.092-2.204-2.376-.93-.175-1.844-1.032-2.532-1.794-2.403-2.657-4.673-5.433-7.075-8.091-.382-.423-1.43-.822-1.73-.61-.485.343-.792 1.19-.835 1.846-.072 1.108.267 2.25.147 3.347-.066.596-.643 1.506-1.125 1.602-.677.135-2.116-.327-2.126-.579-.078-1.935-1.565-1.775-2.756-2.227-.875-.331-1.893-.855-2.362-1.6-3.258-5.184-4.027-10.79-2.645-16.757.32-1.381.511-2.972.14-4.29-.52-1.844-1.49-3.603-2.502-5.256-2.611-4.259-3.882-8.872-4.22-13.822-.07-1.052-.553-2.15-1.093-3.086-2.118-3.666-4.545-7.172-6.408-10.959-.738-1.5-.387-3.577-.375-5.39.01-1.388.565-2.822.352-4.151-.483-3.004-1.344-5.947-1.95-8.934-.486-2.391.165-5.14-2.457-6.803-.409-.259-.386-1.12-.698-1.619a384.344 384.344 0 0 0-5.437-8.449c-.281-.423-.88-.634-1.4-.989-.85 2.921-.341 4.882 1.863 9.106.374.718-.009 1.828-.04 2.757-.855-.362-1.725-.692-2.551-1.108-.23-.117-.41-.47-.471-.746-1.03-4.702-2.262-9.377-2.934-14.129-.242-1.717-.408-3.062-1.955-3.885-2.595-1.382-3.812-3.594-4.424-6.401-.874-4.006-2.393-7.851-5.576-10.566-3.729-3.18-6.02-7.168-7.843-11.586-.324-.785-1.36-1.675-2.173-1.795-4.217-.63-8.468-1.042-12.711-1.497-6.402-.687-12.806-1.34-19.208-2.025-2.07-.221-3.99-.735-4.74-3.466l-2.033 2.684 1.57 2.847 3.154.299.013.694c-.577.424-1.493.742-1.663 1.293-.45 1.451-1.284 2.11-2.631 1.528-1.042-.45-2.007-1.226-2.801-2.053-.513-.535-.655-1.422-.992-2.217-.553.179-.961.21-1.233.417-3.34 2.544-6.848 2.073-10.454.694-1.817-.695-3.657-1.365-5.54-1.838-.982-.247-2.078-.044-3.122-.044-.155.28-.31.56-.464.842 1.257 1.39 2.504 2.788 3.77 4.17.98 1.068 1.947 2.152 2.984 3.163 1.13 1.101 2.173 2.49 3.546 3.11 2.797 1.26 4.14 3.225 4.411 6.2.133 1.467.27 3.128 1.034 4.286.816 1.237 2.466 2.884 3.59 2.768 2.9-.299 4.367 1.195 5.69 3.162 1.293 1.922 2.64 3.592 5.166 3.932.736.099 1.549.679 2.052 1.27 1.913 2.25 3.739 4.578 5.548 6.915.755.975 2.062.971 2.762-.18.34-.563.374-1.309.71-1.875.352-.597.898-1.08 1.36-1.611.45.476.838 1.039 1.362 1.409 1.038.73 2.086 1.622 3.26 1.906.558.135 1.586-.854 2.1-1.554.743-1.015 1.132-2.284 1.836-3.336.311-.464 1.024-.658 1.555-.975.206.601.694 1.27.567 1.789-.375 1.538-.993 3.017-1.517 4.518l2.69-.16c-2.556 2.427-.912 4.303-.177 6.27.132.351.349.713.34 1.065-.087 3.637 2.119 5.144 5.273 5.932.543.135 1.402 1.18 1.301 1.367-.838 1.555.308 1.925 1.258 2.536 1.258.808 2.401 1.807 3.692 2.553.93.536 2.048 1.156 3.04 1.092 1.646-.105 2.28.715 2.877 1.945.55 1.133 1.191 2.225 1.832 3.312.81 1.37 2.037 2.62 2.419 4.094.815 3.142 1.202 6.396 1.779 9.688l.687-1.765.577.09c.616 8.64-2.992 16.463-5.13 24.523.566.342 1.026.617 1.76 1.058-1.014.868-1.818 1.557-2.522 2.158l2.693 4.445c.304-.175.75-.432 1.282-.742.163.607.272 1.013.39 1.459.336-.67.645-1.283 1.124-2.24l3.726 8.943c3.554-.654 3.48-.61 5.395 2.678.7 1.201 1.852 2.138 2.79 3.202.39.445.765.905 1.464 1.734-1.912-.32-3.238-.54-4.564-.761l-.161.604c1.51.538 3.067.975 4.52 1.637 1.952.888 4.141 1.605 5.669 3.005 4.017 3.689 8.06 7.441 11.471 11.67 3.17 3.932 6.08 7.901 10.71 10.305 1.243.646 2.241 1.99 3.047 3.214 2.978 4.521 4.247 9.675 5.497 14.873.5 2.08 1.846 3.99 2.977 5.875.778 1.3 1.938 1.286 3.31.603 2.744-1.364 5.567-2.566 8.371-3.803 5.647-2.49 8.697-12.86 2.312-17.046m234.58 64.445c1.27 1.383 2.227 1.017 3.24-.35 3.324-4.49 3.913-9.312 1.718-14.403-.687-1.597-.993-2.697.554-4.107 2.144-1.954 1.17-5.795-1.647-7.32-1.245 3.618-3.55 6-7.546 6.374-.283.026-.568.182-.824.325-2.128 1.195-2.761.85-4.04-1.379-.9-1.57-2.097-3.033-3.406-4.292-1.173-1.127-2.718-1.856-4.027-2.854-3.359-2.558-5.297-5.756-5-10.207.089-1.325-.59-2.851-1.314-4.046-1.225-2.017-1.321-3.237.83-4.217 3.163-1.445 6.561-2.373 9.835-3.589 2.21-.82 4.83-1.253 6.478-2.737 4.325-3.893 8.243-8.24 12.27-12.457 1.572-1.646 2.205-3.527 1.748-5.948-.569-3.012.598-4.182 3.6-4.639.717-.108 1.783-.581 1.961-1.124.863-2.644 2.469-4.554 4.822-5.972.368-.221.399-1.004.585-1.528-.465-.153-.938-.284-1.393-.463-1.4-.551-3.047-.824-4.128-1.752-1.625-1.392-2.761-3.337-4.284-4.87-.75-.755-1.848-1.342-2.886-1.584-1.136-.264-2.424.146-3.573-.087-1.105-.225-2.325-.675-3.132-1.419-1.835-1.69-3.434-3.633-5.164-5.442-.296-.31-.725-.581-1.139-.681-5.807-1.39-11.241-4.136-17.36-4.435-4.785-.233-5.537.452-3.618 4.913 2.389 5.55 2.982 11.22 2.156 17.148-.18 1.294-.71 1.957-1.912 2.009-3.357.147-6.735.482-10.072.261-4.624-.307-9.223-1.021-13.823-1.63-1.618-.213-2.482.452-3.532 1.69-2.78 3.283-5.678 6.527-8.913 9.345-1.925 1.678-3.127 3.392-3.17 5.843-.034 1.94.146 3.883.277 5.823.118 1.776-.177 3.134-2.396 3.23-.601.025-1.43.385-1.727.858-1.458 2.317-3.3 4.57-4.037 7.125-2.176 7.548-2.353 15.365-1.97 23.164.04.835 1.274 1.834 2.185 2.324.613.33 1.636-.102 2.475-.195-.132-1.022-.337-2.042-.379-3.068-.066-1.648-.378-3.426.144-4.89.211-.592 2.334-.621 3.598-.68.87-.037 1.777.253 2.635.508 2.336.695 2.425 1.454 1.225 3.544-1.867 3.253-3.452 6.666-5.156 10.012l.878.41c.828-2.141 1.648-4.286 2.484-6.423 1.059-2.709 2.528-3.068 4.394-.828.644.774.907 2.211.738 3.246-.395 2.43-1.245 4.781-1.735 7.198-.274 1.35-.618 2.961 1.57 3.263 1.968.27 3.13-.547 3.502-2.562.192-1.03.237-2.1.536-3.093.749-2.493 3.001-3.658 5.922-3.171 3.808.634 4.74 1.505 4.543 4.787-.325 5.449-2.423 10.166-6.402 13.945-.9.857-2.109 2.024-3.142 1.992-3.634-.116-4.533 2.275-5.346 4.972-.148.495-.445.948-.692 1.41-2.24 4.2-4.487 8.396-6.845 12.806 2.517.724 3.462 3.362 6.311 3.099 5.425-.5 10.881-.654 16.326-.94 3.885-.205 7.284-1.512 10.13-4.235 3.39-3.242 3.177-6.59-.68-9.32-.365-.257-.863-.355-1.166-.659-.723-.726-1.854-1.472-1.955-2.312-.389-3.222-.644-6.496-.497-9.73.051-1.11 1.265-2.344 2.23-3.204 2.27-2.023 4.69-3.883 7.097-5.745.57-.44 1.345-.61 2.012-.935 2.6-1.262 5.17-2.587 7.804-3.774.709-.32 1.936-.629 2.355-.272 3.087 2.626 6.1 5.41 7.127 9.544.567 2.287 1.855 4.086 4.052 4.27 3.295.272 5.606 1.871 7.68 4.13m127.305 6.38c-3.709-2.378-6.21-5.806-8.577-9.385-.84-1.268-1.74-2.497-2.765-3.959 1.499 3.487 2.866 6.684 4.263 9.869.098.226.393.392.631.526 5.913 3.29 8.952 11.417 6.754 18.758-.512-1.024-.905-1.792-1.283-2.566-1.149-2.351-2.28-4.713-3.44-7.059-1.95-3.945-3.983-7.853-5.855-11.836-1.24-2.64-2.22-5.402-3.404-8.07-.356-.8-.865-1.656-1.542-2.167-2.926-2.212-5.92-4.335-8.94-6.414-.566-.389-1.433-.71-2.056-.576-2.126.459-4.204 1.134-6.339 1.737 1.212.953 2.71 1.931 3.93 3.18.531.544.86 2.28.66 2.396-2.342 1.344-2.3 3.957-3.264 5.971-.707 1.475-1.09 3.288-.998 4.913.117 2.103-.263 3.875-1.66 5.386-1.205 1.303-1.09 2.487-.364 4.06.957 2.074 1.785 4.305 2.108 6.549.41 2.847 1.55 4.062 4.495 3.983.663-.016 1.364.493 2 .845.482.268.84.779 1.334.997 1.812.804 2.38 2.073 1.858 3.99-.549 2.013-.964 4.06-1.402 6.103-.337 1.58-1.237 2.295-2.74 1.55-1.696-.84-2.785-.364-3.788 1.1-.477.7-1.265 1.187-2.097 1.935 2.653.568 2.176 1.86 1.1 3.425-.632.917-1.395 1.97-1.453 2.998-.077 1.372.472 2.783.753 4.176 1.148-.254 2.398-.307 3.412-.823.883-.45 1.492-1.431 2.238-2.16 1.604-1.566 3.156-3.195 4.849-4.662 1.453-1.256 3.093-2.206 5.152-.778.892-2.694 2.391-4.655 4.999-5.554 2.308-.797 3.329-.34 3.617 2.067.287 2.4 1.462 3.937 3.43 5.192 3.264 2.082 3.37 3.982-.058 5.739-2.95 1.51-3.202 3.814-3.205 6.477 0 1.556 2.432 4.295 3.944 4.288.572-.003 1.4-.54 1.671-1.062 1.45-2.771 2.692-3.13 5.429-1.501 1.34.798 2.726 1.566 4.177 2.125 2.66 1.024 2.838 1.732 1.083 4.004-3.556 4.6-5.748 9.821-6.391 15.596-.334 2.995.789 4.402 3.684 5.338 1.637.529 3.36.825 4.956 1.45 2.26.88 2.47 2.671.438 4.003-1.233.806-2.81 1.09-4.049 1.893-.904.587-1.772 1.523-2.196 2.502-.94 2.163-1.416 4.533-2.404 6.67-1.29 2.798-1.097 3.617 1.881 4.636 1.553.532 2.78 1.189 3.3 2.984 1.029 3.547 1.404 3.653 4.937 2.403.354-.126.72-.222 1.059-.375 1.538-.695 2.75-.305 3.726 1.038.383.526.85.993 1.365 1.584 1.899-2.507 3.363-4.951 2.965-8.125-.13-1.03-.16-2.526 1.364-2.22 3.563.714 7.01 1.921 9.05 5.258 1.544 2.524 2.864 5.186 4.312 7.771.17.305.481.62.8.74 2.4.9 4.585 2.271 7.472 1.597 3-.702 4.578.514 5.62 3.48.991 2.824 1.444 5.502-.403 8.349-1.691 2.608-1.074 5.445.959 7.384 1.984 1.894 4.45 2.253 6.805.865 2.945-1.735 5.794-3.637 8.785-5.283.772-.425 2.326-.57 2.797-.108.584.575.844 2.117.48 2.876-.623 1.307-.4 2.205.536 2.974 2.416 1.988 4.912 3.882 7.367 5.821.81.64 2.061 1.174 2.304 1.994.688 2.313 2.353 2.454 4.212 2.455 7.874.01 15.757.197 23.618-.106 2.482-.096 4.985-1.356 7.323-2.425.701-.32 1.382-1.905 1.202-2.716-.74-3.31-2.018-6.426-4.645-8.802-2.278-2.06-4.648-4.05-6.69-6.328-1.196-1.333-2.012-3.1-2.666-4.798-.668-1.728-1-3.6-1.348-5.435-.332-1.75-1.287-2.044-2.916-1.817a76.276 76.276 0 0 1-8.053.685c-2.868.088-5.389-2.413-6.376-5.043-.976-2.597-2.263-5.097-5.224-6.392-2.694-1.179-5.22-2.83-7.63-4.542-1.799-1.279-3.491-1.873-5.78-1.803-3.55.108-7.12-.414-10.678-.69-.517-.04-1.026-.191-1.538-.291 1.24.87 2.916 1.111 3.139 2.9-2.15-.32-4.164-.284-5.875-.985-1.263-.517-2.13-1.998-3.171-3.05l1.774-.827c-1.315-1.403-2.86-3.067-4.43-4.71-.612-.64-1.28-1.228-1.92-1.845-1.065-1.029-2.164-2.026-3.182-3.1-1.542-1.626-2.882-3.472-4.574-4.91-1.764-1.501-3.094-3.19-3.15-5.467-.125-5.183-2.433-9.401-5.121-13.652-3.655-5.776-7.298-11.489-12.045-16.476-3.78-3.97-7.823-7.648-9.602-13.304-2.097-6.67-4.796-13.076-2.833-20.278.558-2.054-.179-3.943-1.997-5.11m-83.662-193.655c-2.612-1.938-4.654-1.28-5.614 1.83a8.9 8.9 0 0 0-.368 1.756c-.406 4.225-2.642 6.562-6.882 7.335-3.208.585-5.802 2.455-7.48 5.308-.42.718-.28 1.767-.397 2.665.834-.064 1.814.131 2.472-.24 2.1-1.186 3.709-.528 4.803 1.258.712 1.164 1.108 2.619 1.284 3.99.52 4-1.233 7.314-3.65 10.286-.397.489-1.497.437-2.284.572-1.042.179-2.313-.025-3.098.506-2.163 1.464-4.141 3.205-6.161 4.873-3.51 2.901-3.549 2.96-.44 6.22 3.848 4.036 6.354 8.561 6.236 14.345-.021 1.033.79 2.216 1.497 3.109 2.206 2.788 4.543 5.473 6.843 8.188.185.218.45.394.712.52 2.572 1.228 5.182 2.384 7.71 3.692.78.404 1.968 1.311 1.885 1.81-.159.97-.927 2.02-1.742 2.645-.62.474-1.705.452-2.585.463-2.999.039-6.001-.099-8.996.01-2.66.096-5.336 3.272-4.164 5.163 2.015 3.25 1.266 6.435.78 9.762-.466 3.186-.387 6.383 2.06 8.861 2.907 2.942 3.672 6.449 3.04 10.341-.45 2.77.2 5.2 1.811 7.411 1.797 2.467 2.482 5.215 2.418 8.244-.084 4.044-.064 8.092-.027 12.137.017 1.872.999 2.617 2.5 2.027 1.982-.781 3.96-1.577 6.193-2.468.37-3.057.442-3.07 3.912-3.959.522-.132 1.07-.963 1.226-1.568.43-1.661.553-3.4.982-5.06.967-3.72 2.386-4.856 6.242-5.362 1.628-.215 3.3-.36 4.85-.852 2.278-.722 2.75-2.074 1.624-4.167a28.265 28.265 0 0 0-2.184-3.401c-1.41-1.915-2.008-3.9-1.41-6.317.76-3.075 1.262-6.066-1.686-8.653-1.54-1.35-.804-2.693 1.08-3.59 2.006-.955 3.891-2.166 5.79-3.328 1.462-.894 2.749-2.232 4.32-2.757 2.443-.819 3.455-2.356 3.744-4.744.385-3.207 2.275-5.03 5.458-5.686 1.293-.265 2.702-.576 3.752-1.306 3.563-2.476 7.005-5.129 10.454-7.767.675-.515 1.172-1.261 1.77-1.92-3.87-2.806-3.87-2.806-3.948-7.822-.03-2.024.029-4.052-.112-6.068-.295-4.278-1.83-5.158-5.874-3.483a1.72 1.72 0 0 0-.397.212c-1.429 1.091-2.325.421-3.414-.71-.734-.76-1.993-1.393-3.03-1.413-3.569-.071-3.702-.187-4.505-3.757-.259-1.15-1.087-2.799-1.994-3.063-3.047-.89-4.2-2.855-4.41-5.75a18.504 18.504 0 0 0-.387-2.663c-.661-2.984-1.383-3.716-4.461-4.137-1.505-.207-2.208-.986-2.11-2.36.11-1.51.468-3 .733-4.601-1.859-.436-3.39-1.312-2.667-3.674 1.373-4.475-.24-8.405-2.21-12.24-.492-.955-1.289-1.924-2.196-2.464-1.977-1.174-2.158-2.79-1.021-4.35 1.285-1.761 3.014-3.199 4.741-4.972-1.327-2.193-1.734-2.196-3.837.216-3.038 3.482-3.626 3.557-7.181.917" fill="#FFFC88"/><path d="M527.027 467.44c-.705-.146-1.766.036-2.259.5-2.11 1.982-4.384 1.496-6.424.307-1.724-1.006-3.103-2.6-4.634-3.933.224-.298.448-.597.674-.894.657.339 1.379.596 1.96 1.039.829.632 1.51 1.457 2.336 2.093 1.47 1.13 2.977 1.326 4.441-.078 1.217-1.167 2.538-1.803 4.262-.979.383.184 1.062.073 1.463-.155 1.832-1.04 3.613-2.168 5.61-3.385-.534-1.41-2.11-1.955-3.647-2.692-1.075-.515-1.975-1.454-2.83-2.324-.213-.214-.118-1.05.136-1.312.259-.267 1.05-.404 1.324-.206 1.953 1.42 3.943 2.824 5.688 4.481.812.769 1.099 2.089 1.624 3.16-1.076.518-2.155 1.033-3.227 1.556-.765.373-1.783.568-2.23 1.177-1.127 1.537-2.414 2.03-4.267 1.645m-3.327-15.286c1.227.612 2.407 1.325 3.567 2.059.044.027-.356.87-.37.863-1.39-.527-2.764-1.101-4.505-1.826.723-.62 1.168-1.165 1.308-1.096m10.228 41.967c2.285-.856 3.082-.238 3.09 2.25.008 2.882 1.79 4.265 4.667 3.683.728-.147 1.49-.147 2.239-.151 2.774-.014 5.55-.006 8.324.005 3.598.013 6.658-1.257 8.747-4.199.529-.744.565-2.346.108-3.141-.466-.81-1.776-1.426-2.788-1.553-1.131-.14-2.335.45-3.521.565-1.662.161-3.055-.473-3.53-2.141-.71-2.488-2.277-3.875-4.695-4.653-1.944-.625-2.596-2.191-2.03-4.141.33-1.146.857-2.233 1.256-3.361.524-1.478 1.3-2.943 1.45-4.463.352-3.595.56-3.985 4.095-4.842 1.179-.285 2.334-.67 3.501-1.01l.021-.808c-1.86-.656-3.724-1.309-5.583-1.968-4.453-1.579-5.929-3.745-4.573-8.214 1.513-4.983 3.662-9.773 5.511-14.655.219-.58.555-1.64.373-1.758-1.63-1.048-3.297-2.142-5.112-2.736-.516-.169-1.591 1.22-2.344 1.962-1.116 1.102-2.043 2.452-3.993 1.572-4.262-1.924-6.563-9.004-4.037-12.906.422-.652 1.44-.92 2.185-1.36.797-.47 1.598-.933 2.396-1.398-.593-.73-1.2-1.448-1.776-2.19-1.017-1.308-2.065-2.596-3.003-3.96-.471-.683-.66-2.102-1.093-2.151-.805-.091-1.962.358-2.486.985-.766.915-1.524 2.182-1.54 3.308-.042 2.849-1.281 5.013-3.058 7.035-1.711 1.949-3.384 3.934-5.096 5.933 2.542 2.856 2.632 3.2 1.183 7.56-.447 1.345-1.171 2.608-1.552 3.969-.315 1.124-.636 2.41-.39 3.495.867 3.804.96 3.793-3.073 3.99-.4.018-.81-.167-1.214-.258.147-.448.252-.917.45-1.342.61-1.305 1.316-2.57 1.869-3.896.626-1.503.957-3.146 1.717-4.569 1.906-3.57 1.724-5.362-1.152-8.228-1.568-1.562-1.213-2.344.566-3.587 2.359-1.65 4.521-3.633 6.51-5.722.501-.527.017-1.992-.014-3.027-1 .073-2.227-.195-2.949.29-1.474.989-2.643 2.418-3.995 3.6-1.572 1.379-3.091 2.867-4.84 3.984-2.665 1.703-4.647.92-5.025-2.155-.251-2.053.26-4.236.67-6.314.209-1.046.784-1.754-.546-2.603-1.2-.765-.9-1.888.371-2.658.822-.496 1.839-.938 2.307-1.691 1.365-2.184 3.02-2.722 5.288-1.528.135.071.4-.103.264-.063.616-1.992 1.198-3.74 1.682-5.513.161-.59.332-1.625.062-1.808-1.217-.817-2.523-1.726-3.918-2.006-4.097-.819-5.401-2.285-5.463-6.623-.005-.46-.52-.914-.798-1.37-.36.396-.986.768-1.028 1.198-.126 1.257.12 2.56-.07 3.802-.085.55-.949 1.471-1.322 1.408-3.383-.564-6.807-1.084-10.07-2.095-1.677-.522-2.436-.487-3.397 1.038-2.517 3.992-4.387 4.772-8.262 3.928-1.69 3.685-3.953 7.209-4.915 11.057-1.415 5.668-6.46 6.203-10.273 8.55-.043.026-.219-.162-.429-.327.119-.304.153-.778.397-.943 1.477-.999 2.95-2.028 4.527-2.85 1.824-.952 2.758-2.246 3.517-4.273 1.538-4.11 3.662-8.02 5.813-11.866.452-.806 2.434-1.652 3.069-1.306 2.662 1.452 3.186-1.171 4.533-2.064 1.326-.88.37-1.964-.106-2.957-1.163-2.423-2.399-4.819-3.4-7.308-.669-1.665-1.634-1.816-2.625-.648-.937 1.104-1.764 2.474-2.118 3.862-.493 1.919-1.463 2.334-3.094 1.66-1.658-.688-3.305-1.426-4.883-2.282-2.957-1.604-4.244-1.037-4.336 2.307-.026.911.833 2 1.56 2.742 1.203 1.225 1.201 2.152.06 3.437-1.662 1.873-3.487 2.392-5.833 1.513-.675-.252-2.01-.366-2.182-.06-1.12 1.99-2.176 4.055-2.9 6.213-.498 1.482-1.243 1.858-2.636 1.703-.868-.097-1.785-.149-2.627.031-1.736.373-3.413 1.04-5.156 1.36-2.492.46-3.42 1.16-3.11 3.712.283 2.328 1.291 4.56 1.824 6.869.693 3 2.541 5.147 4.642 7.257 2.301 2.311 4.319 4.901 6.533 7.302.404.436 1.573.895 1.697.75 1.249-1.452 2.568-2.916 3.445-4.597 1.274-2.441 2.199-5.065 3.29-7.604.033-.074.266-.063.945-.205-.1 1.45.076 2.873-.349 4.086-.61 1.742-.127 2.824 1.416 3.421 2.349.911 4.715 1.872 7.162 2.402 2.165.47 3.509 1.48 4.163 3.552.471 1.496.864 3.048 1.572 4.43 1.134 2.214 2.598 2.276 4.04.24 1.388-1.96 3.219-3.108 5.572-3.413 1.61-.21 3.163.387 3.225 2.025.112 2.984 1.885 3.094 4.067 3.016 3.695-.136 6.433 1.031 7.119 5.15.326 1.956 1.925 2.014 3.503 1.962.948-.03 1.9-.006 2.85-.006.044.22.085.436.128.656-.562.254-1.105.668-1.688.73-1.41.153-2.868-.003-4.253.253-.81.15-1.518.854-2.272 1.308.659.657 1.251 1.404 1.998 1.937.517.37 1.316.334 1.855.688.345.226.443.828.652 1.262-.433.198-.978.67-1.284.548-1.785-.716-2.117.362-2.255 1.696a52.248 52.248 0 0 0-.25 3.578c-.162 4.486-.211 8.979-.49 13.458-.106 1.68-.84 3.306.224 4.955.216.334 0 1.007-.13 1.493-.475 1.778-.879 3.59-1.561 5.29-.289.715-1.358 1.781-1.807 1.664-3.453-.9-5.57 1.434-8.295 2.863 2.777 2.385 5.287 4.603 7.873 6.728.9.739 1.94 1.352 3 1.843 1.759.812 3.645 1.364 5.365 2.245 1.383.712 2.4.51 3.74-.21 1.587-.855 3.437-1.65 5.186-1.676 2.253-.033 4.515.751 6.783 1.127.676.113 1.382.034 2.075.043-.128-.627-.227-1.261-.387-1.879-.272-1.05-1.03-2.202-.795-3.11.746-2.889 2.578-5.058 5.453-6.135" fill="#FFFC88"/><path d="M513.56 556.333c1.161-2.503 3.341-3.752 5.33-5.308 1.415-1.107 2.882-2.2 4.068-3.53.854-.959 1.805-2.296 1.804-3.463 0-3.484-.591-6.958-3.63-9.279-2.748-2.098-5.365-4.215-6.032-7.885-.37-2.028-1.026-4.027-1.172-6.065-.148-2.075.227-4.179.275-6.273.102-4.6-1.797-6.929-6.285-8.166-1.342-.369-2.75-.973-3.793-1.864-4.648-3.973-9.792-7.431-13.375-12.553-.286-.41-1.125-.762-1.6-.658-3.696.816-4.27.383-6.246-2.84-.99-1.615-2.607-3.081-4.282-3.987-2.553-1.38-3.848-.597-5.478 1.808-.667.983-2.083 2.124-3.11 2.08-3.667-.155-6.323 1.252-8.527 4.041-1.29 1.632-3.235 1.963-4.819.757-.966-.737-1.502-2.28-1.83-3.563-.663-2.591-1.139-5.212-3.609-7.634-.503 1.323-1.009 2.205-1.15 3.14-.175 1.172-.015 2.391-.069 3.588-.168 3.732-1.158 4.507-4.73 3.744-.732-.156-1.459-.344-2.189-.511-6.622-1.516-13.326-2.15-20.09-1.443-3.047.317-5.832.594-8.46-1.64-1.899-1.614-4.692-1.31-6.528-.028-2.15 1.5-1.656 3.37-1.004 5.41.795 2.49.21 3.881-2.001 5.366-.809.542-1.66 1.021-2.49 1.531-1.785 1.097-2.192 2.8-1.859 4.685.088.495.773 1.226 1.23 1.263 4.788.388 7.872 3.395 10.667 6.816 1.797 2.197 3.827 3.87 6.63 4.758 1.719.544 3.8 1.464 4.662 2.866 1.68 2.733 4.253 4.128 6.638 5.885.717.528 1.608 1.083 1.929 1.834.736 1.729 2.155 2.355 3.71 2.948 1.049.4 2.048.931 3.094 1.341 3.275 1.285 6.48 3.21 9.866 3.616 3.333.4 6.2 3.726 9.894 1.643.172-.096.58.116.824.27 4.251 2.654 8.488 5.331 12.745 7.977.776.482 1.63.84 2.448 1.254l.431-.586-2.496-1.272.653-1.057c.944.174 1.89.335 2.83.526 1.36.278 2.722.832 4.073.806 1.922-.036 3.494.335 4.871 1.757 1.13 1.169 2.422 1.938 4.216.937.484-.27 1.632.125 2.177.575 1.969 1.632 4.203 2.21 6.685 2.165 2.467-.045 4.464.885 6.16 2.72 1.307 1.419 2.825 2.657 4.333 3.87.358.289 1.212.408 1.56.18 1.116-.73 2.544-1.455 3.052-2.552" fill="#249100"/><path d="M405.11 493.17c-.641-1.775-.41-3.565 1.021-5.007 2.052-2.069 7.182-2.523 9.7-1.028.978.58 2.178 1.008 3.305 1.082 5.753.38 11.528.471 17.269.966 3.62.313 7.195 1.156 11.034 1.802.193-2.155.213-4.396.657-6.551.247-1.195.946-2.813 1.893-3.242 2.092-.95 3.284-2.54 3.812-4.456 1.521-5.534 2.99-11.101 4.061-16.734.889-4.678 1.241-9.373 3.655-13.726.823-1.485.353-4.183-.434-5.916-.763-1.679-2.943-1.422-4.668-.863-.85.276-1.785.515-2.462 1.047-4.223 3.314-8.993 2.796-13.776 2.025-.908-.146-1.878-.647-2.566-1.266-2.052-1.85-4.384-2.163-6.92-1.533-1.23.306-2.408.82-3.62 1.205-3.204 1.017-5.509-.298-6.213-3.542-.127-.584-.166-1.187-.268-1.776-.428-2.474-1.964-3.774-4.414-3.352-1.183.203-2.341.915-3.363 1.61-2.73 1.862-4.24 2.092-6.245-.447-2.539-3.214-5.432-4.109-9.197-3.052-.422.119-.911-.014-1.342.087-2.897.68-6.025.913-8.622 2.207-3.759 1.871-7.539 3.169-11.685 3.726-1.525.205-3.172 1.016-4.332 2.038-1.607 1.417-1.136 2.4.922 3.088 2.834.947 5.672 1.918 8.405 3.117.752.33 1.773 1.756 1.578 2.252-1.105 2.818-.889 5.404.177 8.19.496 1.298.797 2.048 2.309 2.115 2.774.12 3.707 1.623 2.66 4.166-.396.958-.838 2.052-1.596 2.673-1.746 1.434-3.684 2.64-5.57 3.896-2.984 1.987-6.037 3.874-8.968 5.933-1.861 1.308-3.723 1.725-6.05 1.736-2.913.014-5.83.943-8.726 1.567-.431.093-.807.639-1.118 1.045-.913 1.188-1.73 2.452-2.676 3.61-1.343 1.641-1.314 3.307-.15 4.95 1.168 1.647 2.804 3.048 3.627 4.838 1.764 3.836 5.248 5.125 8.689 6.565 1.377.578 2.868.884 4.257 1.439 3.743 1.494 7.453 3.07 11.188 4.584 1.591.645 3.182 1.334 4.831 1.79 2.662.738 5.37 1.316 8.063 1.928 1.02.231 2.057.393 3.092.55 1.856.28 2.866-.36 2.733-2.415-.216-3.34.956-5.963 4.005-7.665 2.061-1.15 2.924-2.807 2.039-5.256zm34.052-197.173c-1.934 1.997-4.297 3.608-5.457 5.845-1.353 2.612-2.06 5.28-5.983 4.285 0 .971-.132 1.653.023 2.26.732 2.848-.23 5.164-2.146 7.19-3.191 3.376-6.325 6.813-9.64 10.065-3.772 3.7-8.04 6.272-13.647 6.532-2.344.109-4.618 1.724-6.279 2.393.88 3.438 1.719 6.178 2.259 8.973.642 3.323 1.857 6.27 5.012 7.826 2.999 1.48 5.41 3.459 6.725 6.132 1.483 0 2.47.038 3.452-.013.701-.037 1.657.06 2.048-.343 1.27-1.303 2.561-2.686 3.415-4.27.957-1.774 1.588-2.134 3.187-.91 3.028 2.317 3.85 5.868 2.324 9.438-.448 1.05-1.05 2.435-.719 3.354 1.905 5.283.755 10.157-1.563 14.934-.64 1.317-.482 2.194 1.123 1.851 1.773-.376 2.985.244 4.267 1.334.688.587 1.742.997 2.646 1.029 4.28.143 7.86 1.626 10.637 4.957.47.563 1.146.965 1.754 1.4 2.626 1.87 4.051 1.793 6.249-.562 1.365-1.46 2.89-2.264 4.922-2.267 2.315-.004 4.098.313 6.149 2.081 2.291 1.974 5.83 2.529 8.87 3.574.37.127 1.24-.405 1.49-.85 1.447-2.584 2.34-2.868 4.923-1.361 1.229.716 2.421 1.507 3.7 2.122 1.502.72 2.498.49 3.317-1.32.734-1.623 2.129-3.008 3.43-4.3.95-.939 2.094-.757 2.798.513 1.017 1.832 1.936 3.721 2.992 5.53.672 1.152 1.293 2.79 2.329 3.188 3.5 1.344 6.736 3.639 10.835 3.19 1.808-.199 2.573-.548 2.203-2.57-.161-.877.316-2.418.985-2.793 1.556-.867 1.314-1.596.604-2.837-1.644-2.874-1.333-4.024.921-6.577.618-.701.882-1.951.84-2.93-.047-1.078-.533-2.18-1.008-3.186-.582-1.222-.628-1.983.835-2.644.771-.35 1.428-1.283 1.805-2.104.7-1.52 1.156-3.152 1.867-5.173-2.994-3.458-7.253-4.491-12.297-4.102-3.847.296-7.758-.099-11.633-.329-2.412-.143-3.863-1.564-4.74-3.853-.545-1.424-1.49-2.765-2.517-3.908-.468-.518-1.862-.908-2.332-.598-1.691 1.12-3.32.721-4.968.236-3.02-.888-6.034-1.805-9.006-2.838-4.286-1.49-4.917-3.498-2.326-7.222 1.016-1.461 1.462-3.179.001-4.241-2.297-1.67-4.919-2.903-7.461-4.207-.42-.216-1.198.025-1.71.267-4.507 2.133-6.485 1.013-6.613-3.916-.099-3.82.08-7.65-.101-11.464-.09-1.908-.209-4.104-1.174-5.626-2.305-3.638-2.824-7.562-2.707-11.62.115-4.034-2.108-6.67-4.91-9.565M295.89 354.126c1.044 2.616 1.854 3.035 4.3 2.075-.145-3.064-.768-6.09-.29-8.93.524-3.103 1.97-6.074 3.209-9.023.721-1.718.22-2.55-1.276-3.432-1.408-.83-3.063-1.798-3.774-3.145-2.058-3.903-5.533-7.195-5.555-12.048-.002-.414-.367-.816-.487-1.246-.943-3.37-2.476-6.715-2.648-10.127-.233-4.643-2.448-8.053-5.043-11.466-1.174-1.546-2.744-1.99-4.596-1.557-.803.187-1.604.385-2.404.587-2.083.526-3.713-.103-4.778-1.972-.852-1.496-1.532-3.092-2.434-4.556-2.037-3.307-3.647-7.098-6.374-9.71-3.977-3.809-5.273-8.535-5.96-13.426-.486-3.462.255-7.123.645-10.674.44-4.003.323-7.697-2.777-10.859-1.32-1.347-2.567-3.171-2.922-4.962-.58-2.927-2.277-3.61-4.816-3.963-7.119-.992-7.452-1.613-8.775-8.736-1.038-5.585-2.56-11.08-3.901-16.605-.304-1.25-.88-2.442-2.478-1.696-2.408 1.123-4.636.752-6.878-.414-1.226-.637-1.951-.224-2.688 1.013-1.179 1.975-2.4 4.091-4.114 5.55-4.549 3.872-9.298 7.522-14.12 11.053-1.859 1.364-2.899 2.68-2.211 5.034.167.576-.104 1.28-.172 1.923l-.714.137-1.812-3.585-.794-.648-1.787 3.143-.37-.358v-1.993c-.206-.072-.409-.146-.613-.218-1.335 2.552-2.854 5.031-3.906 7.695-.377.956.405 2.35.59 3.554.065.42.091.996-.136 1.287-1.31 1.664-.353 2.718.87 3.769.505.434.945.943 1.796 1.804-1.297-.118-1.915-.175-2.532-.23l-.223.422 4.635 3.924c-.118-1.073-.17-1.541-.216-1.947 1.535.177 2.953.372 4.377.491.747.062 1.506-.012 2.259-.025-.387.756-.582 1.806-1.2 2.207-1.65 1.071-1.333 1.98-.058 2.94.524.396 1.3.955 1.783.816 1.268-.362 2.577-.886 3.614-1.68 1.334-1.02 2.053-1.018 2.6.66 1.67 5.113 5.907 8.036 9.843 11.114 2.68 2.095 5.767 3.661 8.558 5.623.801.562 1.21 1.68 2.089 2.966l-4.841-.215 2.98 5.488 1.19-3.655.985.08c.044 1.134.212 2.282.098 3.402-.112 1.103-.64 2.163-.753 3.266-.2 1.949 1.297 3.665 3.187 3.954 2.629.402 5.254.84 7.872 1.31.502.09 1.02.314 1.434.611 1.025.736 1.922 1.642 1.072 2.994-.828 1.32-1.939.761-2.946.18-.99-.572-1.946-1.201-2.918-1.805 2.698 5.461 6.966 9.127 12.451 11.15 2.019.747 3.339 1.909 4.384 3.555.285.447.044 1.226.044 1.852-.288.138-.575.277-.864.414 4.628 2.463 7.469 6.434 9.847 10.834 1.733 3.206 3.409 6.469 5.452 9.473 2.731 4.018 5.786 7.814 8.718 11.695.623.824 1.313 1.599 1.973 2.396l.258-.244-2.11-4.305.574-.365c5.653 3.573 6.586 11.128 12.383 14.926l-.81-2.537c2.951.588 4.105 2.733 5.004 4.99m563.454 24.801c-.387-2.039-.864-3.658-3.155-4.35-1.399-.42-2.708-1.3-3.91-2.173-1.773-1.29-3.664-1.554-5.754-1.24-5.091.76-10.19 1.482-15.285 2.218l-.001.456c3.406 0 6.813.013 10.22-.01.819-.006 1.679-.312 2.44-.139.698.16 1.286.782 1.924 1.202-.47.613-.812 1.49-1.434 1.786-1.131.536-2.41.905-3.657 1.017-1.851.169-2.392.824-2.028 2.738 1.23 6.454.063 12.696-2.41 18.658-.765 1.85-2.15 3.629-3.683 4.937-3.585 3.06-7.396 5.863-11.179 8.687a7296.775 7296.775 0 0 1-33.39 24.793c-1.526 1.126-2.151 2.226-1.914 4.288 1.51 13.15 2.822 26.322 4.194 39.49.558 5.353 1.13 10.708 1.637 16.067.196 2.067 1.516 2.263 3.166 2.256 1.633-.006 2.672-.465 2.983-2.287.683-3.99 2.394-4.68 5.666-2.432 2.274 1.565 3.655 1.33 4.904-1.085 2.3-4.45 4.635-8.894 6.65-13.474 1.069-2.43 2.453-4.204 4.954-5.123 3.113-1.145 5.02-3.675 5.392-6.685.347-2.814.406-5.376 3.106-7.045.748-.46 1.316-1.208 1.966-1.825.295.934.879 1.888.82 2.8-.104 1.626-.587 3.23-.93 4.839-.248 1.168-.591 2.322-.774 3.5-.217 1.402.152 2.317 1.767 2.843 1.072.35 2.124 1.41 2.72 2.424 1.135 1.923 1.936 4.04 3.057 6.466.357-1.276.679-2.115.824-2.982 1.058-6.27 2.06-12.549 3.118-18.818.792-4.695-.224-9.872 3.624-13.773.054-.054-.053-.269-.23-1.068l-5.155 2.647c-1.52-2.146-1.087-4.922 1.1-5.552 3.637-1.046 4.318-4.022 5.033-7.02.124-.51-.225-1.132-.352-1.687-2.066 1.163-3.756 2.306-5.61 3.045-.593.239-1.867-.389-2.367-.998-.453-.555-.277-1.625-.38-2.467h2.221c1.42-1.752.49-5.417 3.874-5.806.146-3.161-.038-6.417.552-9.527.435-2.303 2.15-4.337 2.808-6.632.966-3.365 2.73-6.19 5.122-8.589 6.796-6.82 9.574-14.82 7.756-24.37m-72.05 86.816c-.823-8.186-1.843-16.354-2.884-24.517-.132-1.04-.712-2.17-1.415-2.969-5.592-6.353-11.258-12.643-16.917-18.939-1.558-1.733-3.182-2.918-5.85-2.046-1.563.51-3.42.178-5.14.127-2.355-.069-2.156-2.112-2.649-3.678a9.97 9.97 0 0 0-.42 2.696c-.047 4.195.07 8.398-.143 12.585-.095 1.88-.238 4.299-1.384 5.479-2.49 2.562-3.304 5.55-3.407 8.76-.257 7.937-4.569 13.2-10.825 17.302-3.066 2.011-6.179 3.95-9.237 5.971-.807.535-1.492 1.25-2.234 1.881l.392.37c.966-.625 1.93-1.249 2.73-1.764.852 1.228 1.348 2.141 2.029 2.886 1.752 1.913 2.019 4.344.24 6.237-1.035 1.102-2.557 1.733-3.8 2.656-.73.54-1.926 1.257-1.907 1.863.073 2.282-1.04 2.1-2.548 1.613-.71-.23-1.458-.344-2.17-.574-1.542-.496-2.655-.332-3.466 1.364-.513 1.073-1.6 1.872-2.432 2.794a73.16 73.16 0 0 0-.529-.262c-.015-.285-.11-.592-.032-.846.736-2.381-.173-3.791-2.561-4.223-2.774-.503-5.57-.886-8.346-1.383-.492-.089-.93-.484-1.394-.738.441-.308.878-.869 1.324-.877 1.643-.031 3.286.147 4.931.199 1.19.037 2.392.077 3.57-.046.422-.044 1.13-.586 1.111-.864-.032-.501-.4-1.203-.826-1.409-.86-.412-1.844-.725-2.789-.761a242.976 242.976 0 0 0-10.1-.144c-1.519.006-3.31.082-3.234 2.196.093 2.63.813 4.2 3.097 4.06.957-.06 1.932.208 2.9.305 2.069.21 3.294 1.352 3.633 3.373.16.955.01 1.969.224 2.904.426 1.85.438 4.288 1.631 5.376 3.536 3.226 7.818 5.232 12.833 5.082 1.347-.042 1.94-.485 1.558-1.931-.444-1.683.404-2.978 1.928-3.278 1.583-.312 3.374-.336 4.918.085 3.595.983 7.05 2.49 10.65 3.449 3.577.951 3.87.958 4.17 4.664.123 1.524.652 1.772 2.126 1.645 7.086-.614 14.183-1.093 21.279-1.575 7.246-.49 14.495-.94 21.745-1.384 1.41-.086 2.018-.79 1.97-2.16-.075-2.17-.045-4.35-.218-6.512-.668-8.351-1.296-16.708-2.132-25.042" fill="#FFFC88"/><path d="M754.227 408.456c.11 1.865.085 3.743.047 5.614-.029 1.346.59 2.024 1.888 1.854 1.901-.249 3.776-.73 5.681-.927.93-.095 2.048-.02 2.821.424 1.008.579 1.815 1.553 2.613 2.443 5.292 5.916 10.638 11.787 15.78 17.833 1.401 1.645 2.3 1.505 3.815.378 15.2-11.32 30.44-22.593 45.657-33.892.468-.348 1.035-.782 1.195-1.291 1.514-4.763 2.949-9.549 4.406-14.328l-.404-.154c-.268-1.622-.563-3.24-.799-4.868-.453-3.105-2.236-4.988-5.242-5.724-2.69-.656-5.367-1.41-8.094-1.843-8.567-1.365-16.842-.99-24.434 4.012-3.85 2.535-8.201 3.845-12.814 4.528-7.6 1.127-14.992 3.212-21.694 7.024-3.47 1.975-6.72 4.49-9.649 7.212-2.206 2.051-3.683 4.74-1.436 7.998.652.945.59 2.447.663 3.707m-350.77 17.549c-.145.668.099 1.607.519 2.169.822 1.103 2.007 1.938 2.823 3.044 1.363 1.85 3.057 2.317 5.049 1.143.32-.19.6-.451.916-.65 4.23-2.653 8.344-.984 9.462 3.817.169.725.411 1.446.727 2.117.826 1.763 1.907 2.082 3.969 1.525 3.042-.823 6.293-.928 9.468-1.178.61-.048 1.513.485 1.875 1.022 1.118 1.664 2.774 1.765 4.5 2.056 5.75.975 10.28-2.5 16.12-4.13-2.215-2.24-4.015-4.1-5.857-5.916-4.243-4.176-5.564-9.65-6.474-15.188-.487-2.965 1.212-4.802 4.015-5.24 2.864-.45 5.738-.825 8.602-1.27.327-.048.755-.265.902-.535.993-1.816 2.057-3.614 2.839-5.524.906-2.21 1.614-2.694 3.884-2.024.716.212 1.417.568 2.143.622 1.58.121 2.785-1.302 2.157-2.52-1.388-2.694-3.035-4.972-6.333-5.805-2.342-.593-4.733-1.633-6.645-3.08-1.602-1.21-2.997-1.676-4.694-.94-1.346.584-2.663 1.36-3.794 2.292-2.425 2-3.564 2.376-6.284.843-2.135-1.205-3.975-2.919-6.041-4.261-1.354-.882-2.818-1.678-4.338-2.205-2.514-.872-5.141-1.415-7.673-2.243-2.649-.867-4.023-.227-4.933 2.477-.334.99-.624 2.048-1.204 2.889-1.56 2.261-2.242 4.664-1.928 7.414.264 2.312-.778 4.009-2.773 5.228-1.007.615-2.079 1.321-2.747 2.254-2.478 3.46-4.815 7.022-7.176 10.563-1.163 1.747-1.285 3.519.218 5.145 1.267 1.37 1.049 2.67.025 4.031-.495.656-1.158 1.31-1.319 2.058M335.982 364.1c.2-.89.344-1.792.56-2.942-1.193.177-1.994.322-2.802.41-3.588.397-6.533-1.476-7.412-4.693-.764-2.796-2.335-3.59-5.02-2.474-.966.402-1.854.99-2.823 1.381-1.442.583-3.047.978-4.082-.54-1.055-1.546.347-2.562 1.198-3.682.742-.976 1.85-2.084 1.845-3.128-.008-2.209-.517-4.447-1.079-6.605-.19-.736-1.072-1.68-1.782-1.823a70.418 70.418 0 0 0-8.577-1.217c-1.335-.103-1.995.83-2.147 2.325-.146 1.425-.537 3.004-1.344 4.147-1.595 2.26-1.758 4.516-.959 7.018.32.996.73 2.025.734 3.04.002.736-.397 1.846-.96 2.147-3.326 1.78-6.014.516-6.894-3.06-.02-.077-.237-.105-.882-.371l5.086 23.117c1.925-1.781 2.623-.454 3.313.616 1.101 1.711-.102 2.57-2.062 3.48 1.883 2.298 3.338 4.583 5.286 6.314 2.205 1.955 3.58 3.82 2.81 6.957-.49 2.005-.25 4.179-.614 6.228-.275 1.55-.672 3.255-1.576 4.475-1.592 2.153-3.663 3.945-5.413 5.992-.402.47-.557 1.907-.42 1.966 1.772.769 3.582 1.636 5.46 1.881.747.097 1.861-1.139 2.51-1.994 3.199-4.215 8.45-4.84 12.662-7.26.983-.565 2.788-.399 3.9.112 2.137.981 4.087 2.395 6.036 3.742.945.653 1.714 1.556 2.812 2.577.412-1.603.423-3.02 1.088-3.982 2.112-3.048 2.744-5.881.405-9.196-.628-.891-.014-2.658.03-4.022 1.115.24 2.233.478 3.349.722.145.032.304.172.42.14 1.21-.357 2.727-.409 3.538-1.19 1.145-1.103.5-2.676-.614-3.553-2.664-2.094-2.734-4.762-2.149-7.707.544-2.745.091-5.141-2.267-7.04-2.4-1.932-2.995-4.552-2.296-7.5.378-1.603.772-3.201 1.132-4.807M484.808 476.98c3.49-3.552 1.637-7.167 1.175-10.795-.147-1.156.573-2.557 1.224-3.653 1.172-1.973 2.676-3.748 3.878-5.708.873-1.42 1.714-.829 2.231.01 2.424 3.934 5.225 7.74 5.342 12.644.036 1.48.235 2.681 1.667 3.646.747.506.926 1.852 1.423 2.951-.746.103-.988.189-1.025.134-2.266-3.335-6.025-2.696-9.247-3.452-1.472-.346-2.502.086-3.16 1.667-.481 1.155-.928 2.761-3.508 2.556m-1.746 8.584c.849.783 1.624 1.814 2.016 2.883.51 1.403 1.218 1.616 2.555 1.32 1.684-.372 3.58-.72 4.678 1.09 1.794 2.957 2.73 2.952 6.024.642 1.755-1.23 3.17-3.173 5.599-1.551.576-2.313 1.308-4.23 1.468-6.191.148-1.811-.316-3.672-.552-5.909-.055-.039-.565-.412-1.33-.975 3.134-1.818 2.563-4.732 2.612-7.429.04-2.244.072-4.5-.101-6.736-.15-1.926-.221-4.006-1.017-5.692-.774-1.64-.602-2.418.628-3.606.712-.692 1.32-2.229 1.025-3.039-.382-1.047-1.583-2.155-2.668-2.502-1.44-.463-3.107-.25-4.677-.268-3.218-.04-3.218-.024-3.17-3.18.03-2.023-.826-2.807-2.584-1.934-1.393.691-2.73 1.8-3.66 3.043-1.344 1.8-3.058 1.67-4.843 1.524-1.643-.135-2.16-1.374-2.457-2.788a65.83 65.83 0 0 0-.973-3.92c-.549-1.978-1.95-2.743-3.92-3.147-2.23-.457-4.376-1.346-6.537-2.108-.736-.26-1.407-.707-1.721-.87-1.135 1.059-1.963 1.804-2.757 2.585a6.188 6.188 0 0 0-.957 1.17c-1.514 2.484-2.334 5.151-2.218 8.099.03.717-.057 1.68-.5 2.132-2.462 2.518-2.683 5.792-3.096 8.941-.993 7.57-1.665 15.18-5.438 22.09-.511.935-.139 2.477.118 3.676.466 2.188 1.097 4.346 1.775 6.481.312.986.724 2.468 1.404 2.67.755.223 2.282-.5 2.752-1.259 1.867-3.012 4.658-3.822 7.871-3.785 2.027.022 3.219-.915 3.887-2.74.67-1.832 1.918-2.54 3.882-2.039 2.076.53 3.831-.068 5.237-1.723.63-.74 1.286-1.493 2.063-2.058.413-.3 1.111-.21 1.68-.295-.675 1.628-1.405 2.676-2.27 3.595-1.293 1.374-1.238 2.502.172 3.803m172.405 25.055c1.893 1.413 3.265 3.574 4.706 5.517.73.988 1.09 2.253 1.606 3.37.96-1.885 1.542-3.756 2.708-5.135 1.704-2.02 2.442-4.074 2.357-6.733-.049-1.542.566-3.331 1.46-4.605.739-1.053 2.27-1.989 3.55-2.144 3.438-.418 5.924 1.348 7.078 4.912.732 2.26 1.087 4.656 1.44 7.016.285 1.885 1.082 2.95 3.088 3.197 1.061.129 2.17.618 3.064 1.227 2.14 1.46 2.859 1.516 4.468-.524 2.131-2.705 4.078-5.554 6.192-8.272 1.913-2.46 3.637-5.263 7.424-5.024.399.025.852-.279 1.227-.514 3.29-2.062 6.277-1.258 9.153.898 1.256.942 2.435 2.144 3.856 2.67 2.511.925 3.604 2.795 3.705 5.115.106 2.393 1.306 3.413 3.312 4.191 1.928.745 3.923 1.495 4.416 4.027.104.537 1.334 1.162 2.083 1.213 2.612.178 5.243.089 7.865.167 1.541.048 2.19-.579 2.07-2.14-.484-6.264-.929-12.532-1.39-18.797-.117-1.594-1.07-2.273-2.564-2.647-3.244-.81-6.443-1.798-9.671-2.67a23.081 23.081 0 0 0-3.296-.643c-1.677-.197-2.757.325-2.672 2.315.095 2.217-1.223 3.277-3.297 3.472-2.79.26-5.52.357-7.806-1.826-.842-.803-1.994-1.367-3.1-1.787-3.717-1.409-5.176-4.09-5.27-7.98-.118-4.982-.981-5.786-5.866-6.356-2.234-.262-3.657-1.132-3.704-3.608-.015-.759-.355-1.51-.549-2.276-.505.11-.738.121-.931.214-.473.227-.998.412-1.377.755-4.504 4.079-9.934 6.581-15.35 9.132-2.034.958-2.685.791-3.186-1.59-4.178.726-8.368 1.45-12.656 2.194.56.509.93.849 1.305 1.19-.361.347-.669.795-1.094 1.024-2.015 1.086-4.033 2.178-6.116 3.125-.644.293-1.797.477-2.189.125-1.216-1.094-2.205-.498-2.936.294-.783.848-1.806 2.078-1.709 3.04.627 6.19 3.537 11.09 8.596 14.87M405.638 375.86c-.872-.832-1.9-1.89-2.09-2.977-.633-3.64-2.824-6.217-5.366-8.552-.481-.442-1.797-.37-2.533-.065-2.069.854-4.025 1.98-6.048 2.946-1.067.51-2.306.74-3.253 1.403-2.06 1.437-3.894 3.204-5.985 4.588-2.226 1.472-3.317 3.364-3.298 6.024.249 1.317.398 2.665.767 3.948.667 2.321 1.973 3.066 3.985 1.851 3.05-1.843 5.89-1.77 8.867-.05.577.333 1.237.534 1.877.74 3.099.993 5.828.637 8.211-1.865 1.325-1.39 2.91-2.57 4.514-3.645 2.203-1.477 2.292-2.5.352-4.346" fill="#FFFC88"/><path d="M353.497 477.924c2.974-4.937 2.845-10.279 2.65-15.659-.096-2.602-1.292-3.284-3.903-2.951-2.954.374-5.936.523-8.899.836-.771.08-1.907.174-2.204.666-1.288 2.139-3.365 2.533-5.504 3.041-3.75.888-7.469 1.901-11.2 2.862l.014.757c2.383.772 4.775 1.521 7.145 2.329.604.206 1.588.538 1.641.919.49 3.503 3.583 3.298 5.82 4.534.467-.753.81-1.306 1.184-1.906 1.227.83 2.423 1.452 3.377 2.336 1.019.945 1.77 2.17 2.705 3.213 2.794 3.115 4.999 2.634 7.174-.977" fill="#249100"/><path d="M116.618 138.552c1.332.542 2.464.185 2.962-1.131.858-2.264 1.525-4.6 2.273-6.905-.148-.055-.297-.11-.445-.163-.064-.893.007-1.821-.22-2.67-.397-1.467-.565-3.347-2.637-3.39-1.939-.04-3.1 1.29-3.818 2.967-.229.536-.209 1.175-.388 1.737-.382 1.202-.556 2.586-1.283 3.541-2.642 3.47-1.007 3.632 1.517 5.094.642.372 1.348.64 2.039.92m-28.535-28.36c-.45-.382-1.326-.704-1.78-.515-.425.18-.838 1.113-.76 1.642.29 1.967.326 4.182 1.3 5.795 1.674 2.771 3.914 5.218 6.046 7.688 1.218 1.41 2.693 2.598 4.064 3.895-.3-2.86-.625-5.398-.812-7.947-.097-1.336-.742-1.888-1.983-1.868-2.08.032-3.023-1.02-2.948-3.04.093-2.515-1.394-4.177-3.127-5.65m-58.799 39.914l.215.897 4.535 2.011c.613-1.552 1.514-3.058 1.766-4.667.332-2.12.168-4.322-1.332-6.659-1.599 3.26-.123 7.728-5.184 8.418m827.938 261.288c3.338-2.655 4.389-6.505 6.23-10.18-5.555 1.092-8.572 5.98-6.23 10.18m-591.008-33.286c-1.024 1.482 1.654 5.404 4.177 5.45.178-.187 1.157-.922 1.052-1.137-.782-1.63-1.652-3.261-2.793-4.645-.295-.358-2.102-.152-2.436.332M110.961 257.613l-.83-.08-4.994 11.668c2.907-.5 3.21.92 3.473 2.755.206 1.435 1.016 2.784 1.559 4.171l.644-.384c-2.677-5.976-3.916-11.988.148-18.13M67.073 44.202c1.364-.716 2.876-1.622 2.11-4.037-.339.687-.533 1.08-.805 1.627-.589-.47-1.011-.877-1.498-1.185-1.117-.703-2.263-1.358-3.398-2.034.265 1.39.386 2.829.838 4.155.406 1.19 1.389 2.19 2.753 1.474m90.441 227.106c-.92-5.063-2.658-7.212-5.534-6.844 1.177 3.942 3.123 6.35 5.534 6.844m116.062 115.928c-.675.641-1.156 1.573.297 1.958 1.615.429 4.009-1.003 4.809-2.94-2.022-.6-3.712-.34-5.106.982M143.818 230.569c-2.429 1.068-3.927 3.427-3.892 5.95 2.913-1.423 4.463-3.7 3.892-5.95m578.155 241.459l-6.857 3.503.289.575c2.741-.254 4.916-1.645 6.568-4.078m-544.284-176.3l-2.835-5.144c.048 2.174.197 4.293 2.018 5.566l.817-.422zm44.842-22.783l3.623 7.094.697-.366-3.834-7.087-.486.359m-59.128 12.679l-2.81-4.53-.714.4 2.562 4.677.962-.547zm-49.585-7.424l3.624 2.35.466-.758-3.718-2.199-.372.607m5.165 5.052l2.592 2.959.603-.52a6700.9 6700.9 0 0 0-2.555-2.992l-.64.553M489.045 470.63c.504.452 1.26.409 1.936.409a9.985 9.985 0 0 1 4.333.989c.238.114.477.24.738.27.262.03.557-.062.685-.291.099-.175.084-.388.065-.587l-.26-2.85c0-3.115-1.523-5.912-2.806-8.65-.216-.462-.482-.969-.965-1.132-.515-.176-1.093.13-1.406.573-.266.374-.289.8-.475 1.2-.125.265-.337.465-.508.703-.527.73-1.041 1.53-1.386 2.363-.677 1.63-.604 3.46-.52 5.223.03.64.094 1.352.57 1.78" fill="#FFFC88"/></g></svg>