<svg width="864" height="592" viewBox="0 0 864 592" xmlns="http://www.w3.org/2000/svg" xmlns:xlink="http://www.w3.org/1999/xlink"><title>Mapa limon persa</title><defs><path id="a" d="M0 .083h102.996v155.293H0z"/></defs><g fill="none" fill-rule="evenodd"><path d="M225.306 78.637c.949 5.353 2.429 10.63 3.137 16.008 1.23 9.339.35 18.676-.967 27.96-.13.909-.738 2.188-1.478 2.495-1.806.749-1.921 2.008-1.88 3.524.146 5.365.642 10.754.286 16.09-.26 3.928-.73 7.712.515 11.58.68 2.103-.348 3.212-2.632 3.251-2.845.048-5.699-.004-8.538-.185-2.535-.16-2.778-.142-2.574 2.376.553 6.855 4.388 12.366 7.992 17.972.634.985 1.304 2.18 1.297 3.277-.018 3.036-.464 6.068-.567 9.107-.035.99.164 2.235.773 2.954 3.301 3.9 7.106 6.936 12.875 5.695.215-.046.451.011.673-.014 1.45-.17 2.22.481 2.566 1.822.87 3.379 1.89 6.724 2.668 10.122.745 3.253 1.284 6.552 1.867 9.84.355 2.001 1.372 3.29 3.545 3.642 1.993.324 3.96.786 5.948 1.142 1.665.298 2.536 1.21 3.023 2.803.456 1.498 1.192 2.958 2.041 4.294 1.403 2.208 2.939 4.344 4.548 6.416.444.572 1.303 1.027 2.045 1.161 1.761.32 3.563.547 5.353.58 4.3.075 6.764-2.288 7.059-6.334.135-1.856.069-4.14 1.13-5.428 1.959-2.376 2.079-4.64 1.331-7.284-.453-1.6.273-2.504 1.935-2.763.666-.104 1.325-.33 1.989-.334 2.318-.018 3.088-1.1 3.01-3.308-.117-3.227.836-6.035 4.312-7.404.459-.18.926-.555 1.183-.961 1.3-2.056 2.758-1.54 4.292-.331 1.507 1.188 2.833 2.786 4.552 3.486 3.422 1.397 6.16 3.4 8.53 6.153 1.87 2.176 3.455 2.16 5.83.574 1.262-.841 2.7-1.438 3.913-.329 1.538 1.406 3.02 1.13 4.763.65 3.414-.944 6.207.028 7.879 2.565 1.413 2.144 1.784 2.23 3.563.25 2.062-2.297 3.927-4.761 5.961-7.083 2.227-2.543 5.08-3.47 8.479-2.811 1.761.341 3.536.62 5.305.928 2.529.444 3.095-.06 2.89-2.6-.036-.432-.13-.86-.206-1.29-1.494-8.58-2.957-17.166-4.499-25.738-.59-3.28-.15-6.14 1.937-9.002 4.408-6.046 8.496-12.312 12.657-18.524 1.753-2.615 3.385-5.309 5.02-7.996.809-1.332.425-2.116-1.119-2.84-3.745-1.756-7.37-3.754-11.026-5.686-.45-.236-.762-.704-1.198-.977-1.357-.854-2.77-1.628-4.11-2.503-2.145-1.402-4.374-2.72-6.337-4.336-2.023-1.665-3.49-4.076-5.687-5.403-6.071-3.67-7.255-9.534-8.372-15.587-.429-2.325-1.116-4.618-1.86-6.872-.522-1.58-1.413-3.043-2.01-4.606-2.12-5.567-5.83-9.692-11.443-12.196-.846-.378-1.636-1.008-2.265-1.684-4.312-4.632-8.568-9.312-12.864-13.957-.494-.535-1.15-.926-1.696-1.422-1.94-1.768-4.162-3.34-5.726-5.382-2.082-2.718-3.587-5.845-5.475-8.713-.488-.741-1.454-1.62-2.251-1.671-8.743-.554-17.498-.92-26.244-1.411-8.372-.47-16.742-.987-25.105-1.585-1.575-.112-2.272.335-2.325 1.809-.114 3.114-.287 6.227-.326 9.34-.057 4.394-.015 4.394-4.419 3.978-.373-.034-.748-.05-1.123-.074-2.755-.1-3.572.531-3.417 3.274.18 3.179.51 6.37 1.067 9.506" fill="#FFFC88"/><path d="M193.406 206.132c-1.434 1.967-.394 2.984 1.117 3.593 2.6 1.05 2.85 2.785 2.394 5.112-.242 1.238-.043 2.556-.043 3.838l.661.11c.519-1.084.953-2.218 1.594-3.23.297-.47.973-.89 1.524-.955.267-.033.762.77.94 1.266.23.642.249 1.356.4 2.295.821-.318 1.395-.447 1.864-.737 2.466-1.52 5.151-2.818 7.298-4.687 3.429-2.987 6.619-6.258 9.653-9.625 1.301-1.444 1.707-3.561.04-5.148-2.506-2.383-3.163-5.255-2.56-8.375.593-3.06.317-5.93-1.06-8.693-1.172-2.352-2.615-4.586-3.661-6.985-1.651-3.786-3.319-7.598-4.508-11.533-.941-3.115.55-4.675 3.898-4.76 2.622-.067 5.249-.036 7.872.02 1.659.036 2.156-.617 2.124-2.238a1794.53 1794.53 0 0 1-.342-29.163c-.002-.694.728-1.422 1.198-2.079.625-.877 1.806-1.645 1.919-2.556.587-4.744 1.074-9.513 1.276-14.286.172-4.05.296-8.167-.248-12.167-.88-6.457-2.329-12.84-3.531-19.257-.507-2.702-1.51-5.44-1.335-8.102.143-2.175-.641-2.521-2.305-2.688-.819-.081-1.647-.085-2.469-.156-14.838-1.286-29.68-2.553-44.516-3.882-4.68-.42-9.414-.524-13.765-2.734-14.004-7.112-28.078-14.1-42.085-21.207-17.262-8.761-34.483-17.6-51.737-26.377-.545-.276-1.34-.481-1.876-.308-1.685.545-3.389 3.929-2.894 5.603.994 3.36 1.002 6.68.127 10.09-.228.887.367 2.12.91 3.006.63 1.035 1.808 1.76 2.418 2.802 1.713 2.921 3.87 5.076 7.608 5.172.368.01.749.39 1.084.645 1.05.8 2.176 1.533 3.087 2.462.774.789 1.795 1.803 1.817 2.737.051 2.06 1.208 2.584 2.888 3.255 4.04 1.618 8.872.462 12.652 3.709l-.36-3.061c4.203 2.748 4.518 4.316 1.773 6.877.769 2.165 1.48 4.032 2.094 5.93.818 2.525 1.355 5.156 2.381 7.594 1.718 4.085 3.707 8.063 5.63 12.064.464.966.894 2.256 1.73 2.686 2.322 1.193 2.719 3.153 2.847 5.295.2 3.33.166 6.68.517 9.993.14 1.315.782 2.759 1.645 3.793 3.054 3.663 6.02 7.276 5.591 12.41-.118 1.404.506 2.395 2.048 2.989.95.367 1.946 1.277 2.352 2.182.821 1.832 1.592 3.797 1.784 5.763.484 4.987 2.685 8.463 7.876 9.836.42.11.737.58 1.29 1.039-2.809 1.411-1.868 3.012-.618 4.675.748.995 1.763 1.975 2.03 3.102.692 2.898 2.873 4.104 5.36 5.08 2.04.799 3.26 2.224 3.808 4.265a143.028 143.028 0 0 0 1.565 5.451c.347 1.118 1.078 1.816 2.356 1.27 1.339-.572 1.745.034 2.302 1.139.709 1.4 1.827 2.607 2.768 3.897l.65-.297 1.4-4.197.776.058c.693 2.022.751 4.451 3.101 5.23.673-.292 1.252-.787 1.726-.704 1.86.32 3.257 2.565 2.96 4.475-.577 3.718-2.711 7.46.182 11.134.118.15.066.423.094.64.745 5.575 5.984 9.932 11.868 10.076 1.516.038 3.079.488 4.502 1.037 1.342.519 2.606 1.345 1.42 3.142-.222.337-.096 1.025.097 1.455 1.07 2.392 2.14 4.79 3.375 7.102.323.605 1.169 1.089 1.88 1.324 1.21.4 2.502.559 3.792.826-.383-.632-.802-1.323-1.182-1.953l3.972-.718c.39 1 1.62 2.723 1.19 3.314m159.447-28.497c-.51.874-.867 2.082-.697 3.04 1.692 9.505 3.52 18.987 5.288 28.48.71 3.807 2.15 7.184 5.218 9.872 1.54 1.346 2.748 3.066 4.023 4.677 1.773 2.24 2.433 4.736 1.89 7.578-.434 2.276-.453 4.63-.937 6.892-.815 3.81-1.408 7.753-2.939 11.298-1.183 2.74-2.537 4.878.667 6.97.116.077.185.227.265.35.754 1.16.544 1.916-.958 2.121-.781.107-1.562.21-2.43.327.078.532.034.853.169 1.074 2.407 3.931 4.732 7.916 7.335 11.722.648.947 2.148 1.493 3.372 1.894 2.044.67 4.236.93 6.26 1.645 1.3.459 1.954.25 2.47-.903.896-1.997 1.839-3.972 2.73-5.97 1.064-2.385 2.698-3.8 5.568-4.03 8.15-.652 15.5 1.907 22.721 5.021 1.251.54 2.305 1.532 3.395 2.381.766.599 1.726 1.19 2.087 2 .554 1.242 1.316 1.784 2.581 1.462 4.228-1.07 7.149-.112 8.78 4.234.779 2.077 2.717 3.611 5.391 3.685 1.088.03 2.17.284 3.43.46-.029.083.11-.172.145-.44.4-3.134.816-6.268 1.141-9.41.044-.425-.345-.927-.62-1.34-1.69-2.552-1.47-4.87.75-7.56 2.216-2.681 4.145-3.215 7.198-2.198 2.567.856 5.148.81 7.694-.292-.633-.547-1.278-.895-1.97-1.084-3.893-1.069-7.21-2.758-8.634-6.809-.245-.693-.941-1.37-1.612-1.767-4.048-2.4-5.545-6.122-5.939-10.44-.321-3.54-1.67-6.558-4.442-8.993-1.155-1.013-2.044-2.312-3.056-3.477-1.214-1.4-1.21-2.73.196-4.02 3.762-3.452 7.553-6.804 12.701-8.333 3.897-1.157 5.99-7.66 3.635-10.862-.688-.934-1.38-1.442-2.822-.942-1.27.44-3.591.691-4.047.067-.732-1.003-.39-2.799-.335-4.255.02-.517.498-1.04.826-1.521 1.983-2.903 4.867-4.482 8.332-5.052 2.884-.474 4.548-1.982 5.03-4.784.207-1.213.465-2.439.89-3.593 1.32-3.578 4.788-4.472 7.733-2.05.4.329.823.643 1.162 1.025.83.94 1.578.78 2.488.054 3.079-2.452 3.886-6.931 1.43-9.978-1.864-2.318-4.13-4.333-6.218-6.483-.969-1-2.209-1.859-2.856-3.026-2.283-4.13-4.68-8.245-6.443-12.591-2.29-5.644-4.208-11.364-7.838-16.46-1.849-2.597-3.908-4.63-6.833-5.66-2.501-.88-5.046-2.125-7.912-1.199-.355.114-1.117-.195-1.284-.51-.18-.336-.034-1.042.246-1.357.767-.864 1.678-1.608 2.389-2.267-.645-1.041-1.46-1.874-1.694-2.84-.43-1.777-1.494-2.869-3.178-3.325-1.79-.484-3.634-.885-5.48-1.048a1258.86 1258.86 0 0 0-21.259-1.674c-1.16-.084-2.629-.234-3.469.33-3.774 2.526-7.275 5.374-8.526 9.971-1.022 3.753-3.22 6.809-5.923 9.617-1.728 1.795-3.434 3.673-4.782 5.738-6.393 9.795-12.647 19.673-18.982 29.503-1.11 1.722-2.482 3.293-3.51 5.055" fill="#FFFC88"/><path d="M338.683 343.374c.425-6.075.76-12.158 1.397-18.213.377-3.573.777-7.234 3.395-10.178 2.736-3.08 5.84-5.96 5.417-10.633-.12-1.311.37-2.749.885-4.012.385-.945 1.171-1.791 1.934-2.531 3.157-3.062 6.529-5.934 9.492-9.16 1.225-1.333 2.311-2.184 4.107-2.06 2.986.208 5.965.56 8.953.65 4.996.153 9.998.16 14.997.198 1.17.008 2.225-.388 1.965-1.76-.9-4.758-1.856-9.506-2.902-14.234-.183-.82-.907-1.53-1.55-2.562-.542.828-.933 1.269-1.15 1.78-.886 2.077-1.717 4.177-2.573 6.268-.674 1.642-1.453 2.278-3.357 1.087-1.438-.899-3.307-1.431-5.029-1.556-2.528-.184-4.602-1.05-5.97-2.982-2.45-3.466-4.728-7.051-6.942-10.664-.587-.956-1.295-2.53-.883-3.247 1.385-2.416.537-4.943 1-7.335.388-2.009 1.818-3.806 2.504-5.788.604-1.748 1.315-3.682 1.096-5.43-.412-3.285-.257-6.364 1.265-9.327.937-1.825.79-3.598-.462-5.118-2.792-3.394-5.586-6.807-8.67-9.945-1.08-1.102-2.97-1.535-4.564-2.068-1.327-.443-2.793-.49-4.143-.883-3.663-1.07-7.071-.13-9.472 2.774-1.078 1.303-1.998 2.732-3.129 3.986-1.224 1.356-2.523 2.68-3.956 3.82-1.206.96-2.465.84-3.452-.554-2.601-3.686-3.803-3.996-8.297-2.897-1.16.283-2.601.03-3.763-.377-1.29-.453-2.476-.929-3.488.208-1.373 1.538-2.898 1.438-4.407.474-1.484-.949-2.833-2.105-4.201-3.214-1.203-.973-2.238-2.184-3.547-2.982-3.068-1.87-6.257-3.555-9.407-5.321-.756.695-1.514 1.749-2.558 2.284-2.723 1.403-3.754 2.922-3.197 5.98.377 2.07-.53 3.186-2.346 3.863-.695.26-1.434.533-2.161.558-1.864.065-2.337.797-2.183 2.635.145 1.712.087 3.839-.841 5.143-1.46 2.05-2.106 4.075-2.13 6.464-.047 4.769-1.222 6.256-6.067 7.068-2.637.441-5.36.447-8.047.532-1.389.044-2.037.494-2.083 1.908-.122 3.767-.58 7.538-.467 11.295.138 4.486 1.41 8.567 4.994 11.907 3.643 3.392 6.375 7.544 7.883 12.27 1.046 3.274 1.656 3.825 5.188 3.288.738-.113 1.485-.25 2.186-.492 1.946-.67 3.473-.068 4.9 1.245 3.348 3.078 5.025 6.929 5.968 11.226 1.16 5.29 2.513 10.539 3.821 15.798.135.544.497 1.047.81 1.535.907 1.417 2.266 2.71 2.683 4.246 1.082 3.986 5.803 4.348 7.566 7.562.102.185.698.086 1.049.173 3.16.794 6.339 1.525 9.455 2.453.76.227 1.732 1.027 1.889 1.715.913 4.032 2.741 8.203-1.042 11.878-.27.263-.346.713-.79 1.687 1.593-.72 2.627-1.202 3.673-1.657 4.094-1.781 6.616-.754 8.365 3.165.501 1.126 1.35 2.485 2.405 2.933 4.064 1.729 7.687-.619 7.984-4.876M641.54 539.777c2.737 1.285 5.43 2.655 8.535 4.191-.139-1.063-.1-1.914-.379-2.652-.539-1.426-1.157-2.844-1.93-4.163-.85-1.45-.893-2.798-.3-4.35 2.029-5.307 3.967-10.648 5.921-15.983 1.047-2.855.752-3.3-2.346-3.405-5.616-.194-11.232-.331-16.846-.52-2.846-.094-5.696-.152-8.523-.432-.787-.078-1.961-.754-2.153-1.385-.53-1.743-1.91-2.375-3.226-3.357-2.692-2.01-5.217-4.27-7.548-6.666-.804-.826-.83-2.365-1.295-3.847-2.14 1.253-4.58 2.522-6.837 4.043-2.964 1.995-6.03 2.06-9.175.754-3.227-1.34-5.14-6.846-3.29-9.523 1.686-2.44 1.723-4.968.533-7.438-1.159-2.402-3.757-1.815-5.919-2.21-2.288-.418-5.01-.722-6.599-2.098-2.055-1.782-3.363-4.484-4.648-6.959-1.262-2.43-2.538-4.677-5.622-4.985-.597-.06-1.727.565-1.852 1.054-1.151 4.552-3.681 8.374-6.438 12.114-1.954 2.649-4.622 3.836-7.88 3.91-2.622.06-5.248.055-7.87.021-1.815-.02-3.372.287-4.46 1.936-.678 1.027-1.834 1.584-2.724.27a54.586 54.586 0 0 1-3.514-6.004c-.759-1.506-1.51-1.766-2.826-.606-1.816 1.603-2.117 3.52-1.29 5.874.375 1.063.7 2.927.167 3.325-.843.632-2.45.536-3.69.39-1.922-.225-3.792-.88-5.713-1.122-3.4-.426-5.351.776-5.648 4.052-.34 3.727-.102 7.51-.013 11.266.102 4.313 2 7.864 5.345 10.637 3.298 2.735 5.088 6.122 5.728 10.276.283 1.845-.19 2.933-1.568 4.132-3.901 3.392-7.67 6.925-11.455 10.442-.65.603-1.11 1.394-2.044 2.59 7.532-.528 13.104 2.175 18.101 6.56 1.281 1.124 3.348 1.648 5.142 1.93 3.39.533 6.848.665 10.273 1.01 4.346.437 8.42 1.45 12.358 3.573 5.313 2.867 11.245 4.428 17.354 4.6 4.96.141 9.518-1.55 13.846-3.938 2.318-1.28 4.927-2.068 7.412-3.062 5.62-2.25 11.672-3.625 15.99-8.36 1.049-1.15 3.086-1.73 4.766-2 2.911-.47 5.896-.493 8.85-.702l-.024-.502h-4.093l-.07-.36 1.436-.697-2.1-1.7c1.176-1.219 2.137-2.96 3.585-3.52 1.735-.673 2.235 1.104 2.472 2.546.043.26.247.495.421.829 1.477-.616 2.86-1.626 4.267-1.662 1.42-.036 2.985.779 3.139 2.71l-3.393.607.01.663c2.82.505 5.688.842 8.447 1.56 2.76.72 5.413 1.821 8.113 2.753-2.086-1.347-4.366-2.228-6.585-3.24a5.473 5.473 0 0 1-2.01-1.583c-.263-.342-.168-1.226.128-1.584.208-.254 1.114-.212 1.558-.003" fill="#FFFC88"/><path d="M343.43 443.968c2.882-.386 5.823-.412 8.743-.483 4.448-.105 6.373 1.734 6.509 6.147.025.792-.082 1.593-.2 2.379a184.24 184.24 0 0 1-.979 6.017c-.299 1.623.384 2.148 1.977 1.878 1.618-.277 3.293-.872 4.856-.677 2.822.35 4.857-.822 7.028-2.23 3.216-2.085 6.653-3.848 9.881-5.917 1.533-.982 2.87-2.288 4.15-3.582.441-.448.441-1.305.643-1.975-.685-.186-1.37-.527-2.055-.526-1.287.002-2.472-.08-2.89-1.487-.865-2.92-1.994-5.839-.854-8.932.53-1.439-.072-2.26-1.432-2.648-2.653-.756-5.297-1.57-7.995-2.135-2.532-.53-3.04-1.34-2.284-3.792 1.18-3.827 4.394-4.536 7.805-5.204 2.701-.53 5.673-.81 7.94-2.137 3.528-2.066 7.242-3.015 11.176-3.64 1.321-.212 2.681-.479 3.892-1.004 2.517-1.092 4.503-4.324 3.449-5.805-2.307-3.242-1.061-5.795 1.057-8.473 1.998-2.524 3.7-5.268 5.665-7.82.997-1.293 2.103-2.687 3.499-3.467 1.684-.944 2.383-2 2.216-3.814-.26-2.831.425-5.424 2.006-7.876.857-1.328 1.347-2.905 1.823-4.423.154-.492-.063-1.417-.45-1.693-2.384-1.693-4.864-3.257-7.582-5.043-2.282 1.965-4.931 3.993-7.27 6.314-4.156 4.127-8.679 5.42-14.183 2.63-1.214-.615-2.736-1.015-4.077-.932-1.118.066-2.179.985-3.265 1.528.458.849.774 1.817 1.402 2.524 1.923 2.168 2.364 4.176.706 6.31-2.623 3.38-5.854 6.116-10.444 6.534-7 .638-14.014 1.132-21.027 1.636-.629.046-1.37-.15-1.916-.465a54.167 54.167 0 0 1-4.467-2.866c-.943-.673-1.616-1.472-.698-2.742a69.308 69.308 0 0 0 3.507-5.357c1.037-1.752 1.96-3.572 2.858-5.398.559-1.136 1.209-2.302 1.407-3.517.477-2.922 2.064-4.421 5.06-4.648 1.125-.086 2.219-.54 3.264-.81l-1.751-2.49c.933-.34 1.86-.693 2.802-1.011.2-.068.497.066.662-.03.947-.556 2.31-.952 2.713-1.777 1.144-2.35 1.97-4.86 2.749-7.357.2-.641-.066-2.02-.405-2.116-1.741-.496-3.604-1.025-5.37-.886-1.702.135-2.128 1.81-2.284 3.338-.455 4.491-2.407 5.724-6.975 4.515-1.305-.346-1.916-.917-1.615-2.314.641-2.974 1.252-5.957 1.726-8.96.117-.745-.336-1.577-.528-2.368-.272.028-.544.056-.817.086-.436.98-.822 1.984-1.32 2.935-.845 1.61-1.675 3.24-2.69 4.747-.332.494-1.219.639-1.853.942-.18-.649-.636-1.36-.498-1.938.99-4.18 1.25-8.64 4.601-11.913-.161-.228-.24-.446-.331-.45-1.405-.066-3.063-.58-4.162-.038-1.676.827.01 1.925.455 2.86 1.295 2.71-.065 5.043-3.117 5.304-3.687.314-4.926 1.307-5.933 4.848-.457 1.609-.698 3.285-1.271 4.85-.989 2.694-.498 4.777 1.863 6.655 2.872 2.285 4.287 5.092 2.508 8.79-.947 1.968-.169 3.609 1.63 4.926 1.734 1.27 2.331 2.964 1.377 5.006-.931 1.997-3.11 3.24-5.227 3.06-.75-.062-1.526.13-2.29.206.244.78.314 1.673.765 2.317 1.38 1.966 1.594 3.823.075 5.822-.565.745-.93 1.658-1.257 2.54-.651 1.759-1.213 3.55-1.956 5.758-2.7-2.228-4.887-4.346-7.405-5.984-1.43-.93-3.787-1.946-5.063-1.419-4.668 1.93-10.026 2.973-13.194 7.382-3.077 4.284-6.952 7.3-12.402 8.15-.355.055-.687.283-1.015.458-2.193 1.168-2.478 2.032-1.314 4.22 2.393 4.5 3.29 9.713 6.986 13.61.556.587.491 1.686.955 2.402 1.13 1.744 2.303 3.479 3.643 5.071 1.539 1.832 3.316 3.473 4.915 5.259 1.125 1.254 1.92 2.869 3.232 3.864 1.906 1.447 4.089 2.59 6.266 3.644 1.2.58 2.687 1.133 3.944.967 4.077-.535 8.13-1.31 12.141-2.204 1.314-.293 2.468-1.245 3.71-1.867 1.277-.641 2.522-1.607 3.874-1.789z" fill="#249100"/><path d="M471.604 196.156c1.932 3.657 2.985 7.567 2.37 11.763-.155 1.057-.353 2.31 1.238 2.602 1.889.348 1.865 1.448 1.5 2.922-.93 3.752-.902 3.836 3.04 4.643 1.987.407 2.75 1.425 2.747 3.326-.004 1.439.16 2.898.44 4.312.407 2.06 1.485 3.649 3.824 4.04 1.428.237 2 1.086 2.046 2.433.078 2.343 1.495 3.214 3.759 3.836 3.045.836 5.935 2.026 9.183 1.055.451-.136 1.031.198 1.547.183 1.678-.049 2.12.802 2.198 2.3.192 3.761.504 7.52.852 11.273.152 1.643.614 3.074 2.713 3.492 1.843.369 2.338 1.65 1.01 3.03-4.477 4.65-9.695 8.403-15.59 11.24-.32.155-.727.155-1.096.21-3.173.476-3.97 1.467-4.72 4.59-.366 1.524-1.15 3.281-2.342 4.225-2.452 1.942-5.297 3.424-8 5.064-1.419.86-2.881 1.655-4.555 2.61 2.467 2.524 3.188 5.32 2.346 8.281-.913 3.201-.132 5.832 2.02 8.258.432.486.744 1.091 1.03 1.68 1.074 2.194.75 4.014-.914 5.817-1.201 1.301-2.612 1.726-4.422 1.55-5.41-.528-6.53.267-7.698 5.448-.364 1.617-.414 3.304-.572 4.962-.126 1.328-.737 1.999-2.196 1.73-1.83-.338-2.158.688-2.14 2.15.015 1.243.505 1.915 1.542 2.797 1.603 1.361 2.826 3.28 3.795 5.163.766 1.489-.521 2.62-1.559 3.751-1.173 1.278-.43 3.513 1.338 4.103 3.673 1.225 7.397 2.307 11.095 3.447.817-2.227 1.82-2.64 4.017-1.602 2.556 1.212 4.216 3.248 5.12 5.81.727 2.058 2.213 3.05 4.328 3.24 8.692.78 17.294.203 25.843-1.515 1.139-.229 2.579.035 3.635.547 1.518.733 2.82 1.892 4.2 2.889 1.042.752 2.061 1.531 3.092 2.298.178-.092.356-.184.532-.277-.18-2.05-.36-4.101-.52-5.892-.881-.552-2.096-1.079-2.04-1.318.47-1.937 1.072-3.862 1.845-5.706.465-1.108 1.584-1.985 1.934-3.104 1.125-3.606 1.04-7.262.252-10.966-1.859-8.737-1.671-17.603-1.503-26.457.01-.491.193-.981.295-1.473l.958.35c.511-2.512 1.169-5.057 1.493-7.64.136-1.09-.431-2.259-.678-3.39-.22.044-.442.09-.661.136l-.742 1.505-.75-.042-1.101-10.819 2.342.62c.695-2.844-1.025-5.889 1.473-8.272.147-.14-.117-.66-.152-1.007-.15-1.478-.292-2.957-.417-4.437-.037-.428.181-1.032-.042-1.264-1.385-1.446-.76-2.332 1.16-2.96-2.04-1.196-2.655-2.933-1.29-4.192 2.455-2.263 3.032 1.48 5.1 1.9l.854-5.597c2.967 1.009 3.53 2.004 2.62 4.55-1.666 4.661-3.618 9.243-4.971 13.986-.21.731-1.725 5.095-1.156 5.369.944.455 1.162-2.511 1.279-2.995.392-1.625.84-3.236 1.345-4.83a71.94 71.94 0 0 1 3.591-9.114c3.175-6.688 6.084-13.424 7.173-20.761.115-.78-.216-1.623-.338-2.436-.91.169-1.863.228-2.713.548-.501.188-.95.727-1.232 1.212-1.066 1.85-2.602 1.85-4.194.918-1.137-.664-2.008-1.752-3.137-2.436-1.476-.894-3.012-1.959-4.66-2.266-2.999-.556-6.127-.43-9.143-.926-2.296-.378-4.551-1.152-6.73-1.982-2.106-.803-3.996-2.243-6.148-2.79-2.935-.746-5.6-1.657-8.115-3.445-1.84-1.308-4.3-1.969-6.59-2.456-1.707-.364-2.6-1.025-3.162-2.582-.483-1.342-1.367-2.545-2.01-3.839-.691-1.39-1.305-2.814-1.958-4.223-.057-.123-.15-.231-.234-.357-.398.232-.8.464-1.06.614-.84-2.363-1.64-4.608-2.44-6.852-.488-1.368-1.189-2.702-1.43-4.11-.767-4.475-1.395-8.972-2.018-13.468-.415-2.977-3.16-4.622-5.89-3.302-1.791.866-3.434 2.025-5.113 3.034 1.51 1.945 3.066 3.469 4.028 5.288m290.384 333.487c-2.621-.98-4.652-2.37-5.807-5.048-1.221-2.828-3.506-4.822-6.504-6.016-2.302-.918-4.815-1.624-6.766-3.032-4.618-3.329-8.958-7.018-13.404-10.567-.287-.229-.629-.47-.775-.78-.96-2.073-2.913-2.785-4.91-3.472-.632-.22-1.256-.49-1.835-.817-1.553-.876-2.572-1.839-1.555-3.857.756-1.502-.025-2.778-1.582-3.578-1.518-.78-3.138-1.467-4.453-2.506-2.653-2.1-5.254-2.95-8.242-.692-.336.254-.83.405-1.262.431-2.286.14-3.925 1.375-5.283 2.982-1.465 1.737-2.784 3.59-4.215 5.356a168.105 168.105 0 0 1-4.534 5.384c-1.351 1.532-2.764 1.34-4.294.105-1.014-.819-2.155-1.86-3.354-2.024-3.124-.431-4.261-2.377-4.856-4.948-.326-1.415-.408-2.904-.91-4.253-.594-1.6-1.235-3.333-2.37-4.562-1.866-2.022-3.757-1.764-5.045.617-.842 1.555-1.601 3.425-1.512 5.11.12 2.219-.732 3.68-2.057 5.262-.95 1.136-1.877 2.55-2.097 3.947-.532 3.377-2.025 5.963-4.94 7.925-1.112.748-2.21 1.88-2.696 3.072-2.036 4.99-3.728 10.112-5.758 15.105-1.648 4.053-2.059 7.956.117 11.947.55 1.008.631 2.247 1.107 3.304.306.68.83 1.594 1.446 1.761 2.088.572 3.146 1.348 1.298 3.418l12.323 8.198c.05-.984.069-1.385.118-2.383 1.277.938 3.09 1.729 3.023 2.32-.217 1.943 1.263 2.42 2.25 3.365 1.436 1.376 2.95 2.684 4.303 4.133 3.254 3.486 6.63 6.672 11.704 7.621 1.534.288 2.914 1.371 4.346 2.123.128.069.119.386.2.69l-1.705.768c1.887 1.805 3.595 3.525 5.398 5.146 3.626 3.257 7.256 6.512 10.977 9.665 2.145 1.818 3.687 1.255 4.208-1.462.23-1.2.084-2.462.2-3.689.213-2.302-.016-4.804.862-6.852 1.252-2.925.89-5.095-1.267-7.315-1.922-1.982-2.064-4.247-.703-6.619 3.498-6.087 7.157-12.094 10.41-18.302 1.292-2.465 3.019-3.269 5.598-3.395 11.07-.54 22.133-1.19 33.205-1.676 2.017-.087 2.793-.597 2.684-2.645-.098-1.849-.083-3.839.522-5.556.946-2.678 1.199-2.661-1.608-3.709" fill="#FFFC88"/><g transform="translate(0 .128)"><mask id="b" fill="#fff"><use xlink:href="#a"/></mask><path d="M40.7 103.661c.59.527 1.424.79 2.087 1.252 1.857 1.29 4.09 2.316 5.435 4 2.503 3.135 4.475 6.666 6.682 10.022.558.85.982 1.971 1.793 2.442 2.549 1.483 3.717 3.867 5.072 6.22 1.124 1.953 2.234 4.116 3.94 5.51 3.323 2.711 3.116 5.825.976 9.839-.966 1.809-1.01 2.735 1.41 3.08-.47 1.273-.867 2.354-1.268 3.432-.828 2.22-.688 2.513 1.668 2.828 3.04.407 6.084.805 9.14 1.086 7.6.695 15.21 1.312 22.815 1.982 1.828.16 2.824-.571 2.478-2.352-.577-2.957-1.406-5.869-1.993-8.825-.385-1.934-1.366-3.026-3.398-3.528-3.112-.769-4.25-2.3-4.547-5.454-.102-1.081-.106-2.193-.4-3.228-.17-.602-.75-1.44-1.273-1.54-1.722-.326-2.047-1.494-2.287-2.83-.281-1.564-.85-2.161-2.318-.818-.376.344-1.723.371-1.744.299-.4-1.336-1.236-2.887-.851-4.043 1.255-3.785.508-7.272-1.8-10.143-4.222-5.257-8.883-10.185-13.412-15.208-.51-.566-1.298-1.017-2.047-1.238-1.759-.516-2.916-1.268-2.806-3.33.04-.753-.656-1.556-1.063-2.312-1.222-2.27-3.337-4.46-3.53-6.801-.467-5.693-.01-11.452.005-17.185.006-2.675.033-5.372-.312-8.015-.165-1.262-1.548-2.365-1.745-3.631-.954-6.144-.372-12.17 2.381-17.854 1.237-2.553 1.143-3.991-.808-6.115-1.167-1.27-2.267-2.596-3.502-4.021 3.248-.873 3.716-1.424 3.765-4.519.023-1.442.254-3.082-.34-4.296-1.87-3.822-.25-6.486 2.516-8.988 1.038-.942 2-1.968 2.934-3.008.56-.622.998-1.348 1.69-2.299-1.083-.255-1.776-.52-2.485-.569C52.654 2.74 41.752 1.96 30.843 1.28A1024.58 1024.58 0 0 0 7.735.1C5.32.005 2.89.32 0 .47c.658 1.566 1.115 2.605 1.532 3.66 1.15 2.909 2.535 5.759 3.363 8.752 1.074 3.885 2.734 7.252 6.036 9.842.559.44.358 1.79.509 2.718-.774-.05-1.549-.08-2.32-.156-.384-.037-.759-.157-1.223-.258.426 1.656.742 3.126 1.19 4.555.485 1.552.831 3.226 1.698 4.57 2.96 4.587 5.878 9.103 5.61 14.867-.054 1.146.886 2.35 1.426 3.503.523 1.114 1.388 2.144 1.63 3.304.59 2.827.946 5.704 1.318 8.57.248 1.906.362 3.828.584 6.264l1.761-2.91c.773 1.67 1.445 2.91 1.927 4.217.61 1.658 1.378 3.348 1.502 5.065.13 1.766-.54 3.574-.648 5.376-.06 1.011.197 2.078.513 3.061.424 1.323 1.062 2.58 1.569 3.878.543 1.392.656 3.163 1.63 4.137 3.54 3.54 7.346 6.833 11.093 10.176" fill="#FFFC88" mask="url(#b)"/></g><path d="M182.186 305.423c-2.233-1.418-3.453-3.361-3.932-5.824-.455-2.351-.918-4.702-1.323-7.061-.218-1.272-.705-2.027-2.204-2.302-.93-.17-1.844-1-2.532-1.738-2.403-2.574-4.673-5.264-7.075-7.84-.382-.41-1.43-.796-1.73-.59-.485.332-.792 1.152-.835 1.788-.072 1.073.267 2.18.147 3.243-.066.578-.643 1.459-1.125 1.552-.677.131-2.116-.317-2.126-.56-.078-1.876-1.565-1.721-2.756-2.159-.875-.32-1.893-.828-2.362-1.55-3.258-5.023-4.027-10.455-2.645-16.236.32-1.338.511-2.88.14-4.157-.52-1.786-1.49-3.49-2.502-5.092-2.611-4.126-3.882-8.596-4.22-13.393-.07-1.019-.553-2.083-1.093-2.99-2.118-3.551-4.545-6.948-6.408-10.617-.738-1.454-.387-3.466-.375-5.223.01-1.344.565-2.734.352-4.022-.483-2.91-1.344-5.761-1.95-8.656-.486-2.317.165-4.98-2.457-6.591-.409-.25-.386-1.086-.698-1.569a371.2 371.2 0 0 0-5.437-8.186c-.281-.41-.88-.615-1.4-.958-.85 2.83-.341 4.73 1.863 8.822.374.696-.009 1.771-.04 2.672-.855-.352-1.725-.671-2.551-1.074-.23-.113-.41-.455-.471-.723-1.03-4.555-2.262-9.085-2.934-13.69-.242-1.663-.408-2.966-1.955-3.764-2.595-1.339-3.812-3.482-4.424-6.202-.874-3.881-2.393-7.607-5.576-10.237-3.729-3.082-6.02-6.945-7.843-11.226-.324-.76-1.36-1.622-2.173-1.74-4.217-.608-8.468-1.008-12.711-1.45-6.402-.665-12.806-1.297-19.208-1.961-2.07-.215-3.99-.713-4.74-3.359-.902 1.154-1.553 1.988-2.033 2.6l1.57 2.76c.917.083 2.035.186 3.154.29l.013.671c-.577.412-1.493.72-1.663 1.253-.45 1.406-1.284 2.045-2.631 1.481-1.042-.437-2.007-1.188-2.801-1.99-.513-.517-.655-1.377-.992-2.148-.553.174-.961.204-1.233.405-3.34 2.464-6.848 2.008-10.454.672-1.817-.674-3.657-1.323-5.54-1.781-.982-.24-2.078-.043-3.122-.043l-.464.816c1.257 1.347 2.504 2.702 3.77 4.04.98 1.036 1.947 2.086 2.984 3.065 1.13 1.068 2.173 2.413 3.546 3.013 2.797 1.221 4.14 3.126 4.411 6.009.133 1.42.27 3.03 1.034 4.151.816 1.199 2.466 2.795 3.59 2.682 2.9-.29 4.367 1.159 5.69 3.064 1.293 1.863 2.64 3.48 5.166 3.81.736.096 1.549.658 2.052 1.231 1.913 2.18 3.739 4.436 5.548 6.7.755.944 2.062.94 2.762-.175.34-.545.374-1.268.71-1.817.352-.578.898-1.046 1.36-1.56.45.46.838 1.006 1.362 1.365 1.038.707 2.086 1.571 3.26 1.846.558.131 1.586-.827 2.1-1.505.743-.984 1.132-2.213 1.836-3.233.311-.449 1.024-.637 1.555-.944.206.582.694 1.23.567 1.733-.375 1.49-.993 2.923-1.517 4.378l2.69-.155c-2.556 2.35-.912 4.169-.177 6.075.132.34.349.69.34 1.032-.087 3.523 2.119 4.983 5.273 5.746.543.131 1.402 1.144 1.301 1.325-.838 1.507.308 1.865 1.258 2.457 1.258.784 2.401 1.751 3.692 2.474.93.52 2.048 1.12 3.04 1.059 1.646-.103 2.28.692 2.877 1.884.55 1.097 1.191 2.156 1.832 3.208.81 1.328 2.037 2.539 2.419 3.967.815 3.045 1.202 6.197 1.779 9.387l.687-1.71.577.088c.616 8.37-2.992 15.95-5.13 23.76l1.76 1.025-2.522 2.091c.923 1.474 1.787 2.858 2.693 4.307.304-.17.75-.42 1.282-.72.163.589.272.982.39 1.414.336-.648.645-1.243 1.124-2.17l3.726 8.665c3.554-.633 3.48-.591 5.395 2.594.7 1.164 1.852 2.072 2.79 3.103.39.43.765.877 1.464 1.68l-4.564-.738-.161.586c1.51.52 3.067.945 4.52 1.586 1.952.86 4.141 1.555 5.669 2.912 4.017 3.574 8.06 7.21 11.471 11.307 3.17 3.81 6.08 7.655 10.71 9.985 1.243.625 2.241 1.928 3.047 3.114 2.978 4.38 4.247 9.373 5.497 14.41.5 2.015 1.846 3.865 2.977 5.692.778 1.26 1.938 1.246 3.31.584 2.744-1.322 5.567-2.486 8.371-3.684 5.647-2.413 8.697-12.461 2.312-16.516m234.58 62.441c1.27 1.34 2.227.985 3.24-.34 3.324-4.35 3.913-9.022 1.718-13.955-.687-1.547-.993-2.613.554-3.98 2.144-1.892 1.17-5.614-1.647-7.092-1.245 3.506-3.55 5.815-7.546 6.177-.283.025-.568.176-.824.315-2.128 1.157-2.761.824-4.04-1.337-.9-1.521-2.097-2.938-3.406-4.158-1.173-1.092-2.718-1.799-4.027-2.765-3.359-2.479-5.297-5.578-5-9.89.089-1.284-.59-2.763-1.314-3.92-1.225-1.955-1.321-3.137.83-4.086 3.163-1.4 6.561-2.3 9.835-3.477 2.21-.795 4.83-1.215 6.478-2.653 4.325-3.771 8.243-7.984 12.27-12.069 1.572-1.595 2.205-3.417 1.748-5.764-.569-2.917.598-4.051 3.6-4.494.717-.104 1.783-.563 1.961-1.09.863-2.56 2.469-4.412 4.822-5.785.368-.215.399-.973.585-1.481-.465-.148-.938-.275-1.393-.448-1.4-.534-3.047-.799-4.128-1.697-1.625-1.35-2.761-3.234-4.284-4.72-.75-.73-1.848-1.3-2.886-1.534-1.136-.256-2.424.142-3.573-.085-1.105-.217-2.325-.654-3.132-1.374-1.835-1.638-3.434-3.52-5.164-5.273-.296-.3-.725-.563-1.139-.66-5.807-1.347-11.241-4.007-17.36-4.297-4.785-.226-5.537.438-3.618 4.76 2.389 5.378 2.982 10.872 2.156 16.615-.18 1.254-.71 1.896-1.912 1.947-3.357.142-6.735.466-10.072.252-4.624-.297-9.223-.989-13.823-1.578-1.618-.207-2.482.437-3.532 1.637-2.78 3.18-5.678 6.324-8.913 9.054-1.925 1.626-3.127 3.286-3.17 5.661-.034 1.88.146 3.763.277 5.643.118 1.72-.177 3.035-2.396 3.129-.601.024-1.43.373-1.727.831-1.458 2.245-3.3 4.428-4.037 6.903-2.176 7.314-2.353 14.888-1.97 22.444.04.81 1.274 1.777 2.185 2.252.613.32 1.636-.1 2.475-.189-.132-.99-.337-1.979-.379-2.973-.066-1.597-.378-3.32.144-4.737.211-.574 2.334-.602 3.598-.659.87-.037 1.777.245 2.635.492 2.336.673 2.425 1.409 1.225 3.434-1.867 3.152-3.452 6.459-5.156 9.7l.878.397c.828-2.074 1.648-4.152 2.484-6.223 1.059-2.624 2.528-2.972 4.394-.802.644.75.907 2.142.738 3.145-.395 2.354-1.245 4.632-1.735 6.974-.274 1.31-.618 2.87 1.57 3.161 1.968.262 3.13-.53 3.502-2.482.192-.998.237-2.034.536-2.996.749-2.416 3.001-3.544 5.922-3.073 3.808.615 4.74 1.458 4.543 4.639-.325 5.279-2.423 9.849-6.402 13.51-.9.83-2.109 1.961-3.142 1.93-3.634-.111-4.533 2.205-5.346 4.818-.148.48-.445.919-.692 1.367-2.24 4.069-4.487 8.134-6.845 12.407 2.517.702 3.462 3.257 6.311 3.002 5.425-.485 10.881-.633 16.326-.91 3.885-.199 7.284-1.465 10.13-4.103 3.39-3.142 3.177-6.386-.68-9.03-.365-.25-.863-.345-1.166-.639-.723-.703-1.854-1.426-1.955-2.24-.389-3.122-.644-6.294-.497-9.428.051-1.075 1.265-2.27 2.23-3.104 2.27-1.96 4.69-3.762 7.097-5.566.57-.427 1.345-.592 2.012-.907 2.6-1.222 5.17-2.506 7.804-3.656.709-.31 1.936-.609 2.355-.263 3.087 2.544 6.1 5.241 7.127 9.247.567 2.215 1.855 3.958 4.052 4.137 3.295.264 5.606 1.813 7.68 4.002" fill="#FFFC88"/><path d="M544.07 374.046c-3.709-2.305-6.21-5.626-8.577-9.094-.84-1.228-1.74-2.419-2.765-3.836 1.499 3.379 2.866 6.477 4.263 9.562.098.22.393.38.631.51 5.913 3.188 8.952 11.061 6.754 18.174-.512-.991-.905-1.736-1.283-2.485-1.149-2.279-2.28-4.567-3.44-6.84-1.95-3.823-3.983-7.609-5.855-11.468-1.24-2.558-2.22-5.234-3.404-7.82-.356-.775-.865-1.604-1.542-2.099-2.926-2.143-5.92-4.2-8.94-6.214-.566-.377-1.433-.688-2.056-.559-2.126.445-4.204 1.099-6.339 1.684 1.212.923 2.71 1.87 3.93 3.08.531.528.86 2.21.66 2.322-2.342 1.303-2.3 3.834-3.264 5.786-.707 1.429-1.09 3.185-.998 4.76.117 2.038-.263 3.754-1.66 5.218-1.205 1.263-1.09 2.41-.364 3.934.957 2.01 1.785 4.171 2.108 6.345.41 2.76 1.55 3.936 4.495 3.86.663-.016 1.364.477 2 .818.482.26.84.755 1.334.966 1.812.78 2.38 2.01 1.858 3.866-.549 1.95-.964 3.935-1.402 5.913-.337 1.532-1.237 2.224-2.74 1.502-1.696-.813-2.785-.353-3.788 1.067-.477.676-1.265 1.149-2.097 1.874 2.653.55 2.176 1.803 1.1 3.318-.632.889-1.395 1.91-1.453 2.905-.077 1.33.472 2.696.753 4.046 1.148-.246 2.398-.297 3.412-.797.883-.436 1.492-1.387 2.238-2.093 1.604-1.518 3.156-3.095 4.849-4.517 1.453-1.217 3.093-2.137 5.152-.754.892-2.61 2.391-4.51 4.999-5.38 2.308-.773 3.329-.33 3.617 2.002.287 2.326 1.462 3.814 3.43 5.03 3.264 2.018 3.37 3.858-.058 5.56-2.95 1.463-3.202 3.696-3.205 6.277 0 1.507 2.432 4.16 3.944 4.154.572-.003 1.4-.523 1.671-1.029 1.45-2.685 2.692-3.033 5.429-1.455 1.34.774 2.726 1.518 4.177 2.06 2.66.991 2.838 1.677 1.083 3.879-3.556 4.456-5.748 9.516-6.391 15.11-.334 2.903.789 4.266 3.684 5.173 1.637.512 3.36.8 4.956 1.404 2.26.854 2.47 2.589.438 3.88-1.233.78-2.81 1.055-4.049 1.833-.904.57-1.772 1.476-2.196 2.425-.94 2.096-1.416 4.392-2.404 6.463-1.29 2.71-1.097 3.504 1.881 4.491 1.553.515 2.78 1.152 3.3 2.892 1.029 3.437 1.404 3.539 4.937 2.328.354-.122.72-.215 1.059-.363 1.538-.674 2.75-.296 3.726 1.005.383.51.85.962 1.365 1.535 1.899-2.429 3.363-4.797 2.965-7.872-.13-.999-.16-2.448 1.364-2.151 3.563.691 7.01 1.861 9.05 5.094 1.544 2.446 2.864 5.025 4.312 7.53.17.295.481.6.8.716 2.4.872 4.585 2.201 7.472 1.547 3-.68 4.578.5 5.62 3.372.991 2.737 1.444 5.332-.403 8.09-1.691 2.526-1.074 5.275.959 7.154 1.984 1.835 4.45 2.183 6.805.839 2.945-1.681 5.794-3.525 8.785-5.12.772-.41 2.326-.551 2.797-.104.584.557.844 2.051.48 2.786-.623 1.267-.4 2.137.536 2.882 2.416 1.926 4.912 3.761 7.367 5.64.81.62 2.061 1.138 2.304 1.932.688 2.24 2.353 2.377 4.212 2.379 7.874.009 15.757.19 23.618-.103 2.482-.093 4.985-1.314 7.323-2.35.701-.309 1.382-1.845 1.202-2.631-.74-3.207-2.018-6.226-4.645-8.529-2.278-1.996-4.648-3.924-6.69-6.13-1.196-1.292-2.012-3.004-2.666-4.65-.668-1.674-1-3.488-1.348-5.266-.332-1.695-1.287-1.98-2.916-1.76a78.669 78.669 0 0 1-8.053.664c-2.868.085-5.389-2.339-6.376-4.886-.976-2.517-2.263-4.939-5.224-6.194-2.694-1.142-5.22-2.742-7.63-4.4-1.799-1.24-3.491-1.815-5.78-1.748-3.55.105-7.12-.4-10.678-.668-.517-.038-1.026-.185-1.538-.282 1.24.844 2.916 1.077 3.139 2.81-2.15-.31-4.164-.275-5.875-.954-1.263-.501-2.13-1.936-3.171-2.956l1.774-.8c-1.315-1.36-2.86-2.972-4.43-4.564-.612-.621-1.28-1.19-1.92-1.788-1.065-.997-2.164-1.963-3.182-3.004-1.542-1.575-2.882-3.364-4.574-4.758-1.764-1.453-3.094-3.09-3.15-5.296-.125-5.022-2.433-9.109-5.121-13.227-3.655-5.596-7.298-11.132-12.045-15.964-3.78-3.846-7.823-7.41-9.602-12.89-2.097-6.463-4.796-12.67-2.833-19.648.558-1.99-.179-3.82-1.997-4.95" fill="#249100"/><path d="M460.408 186.412c-2.612-1.878-4.654-1.24-5.614 1.774a8.39 8.39 0 0 0-.368 1.7c-.406 4.094-2.642 6.359-6.882 7.108-3.208.567-5.802 2.379-7.48 5.142-.42.697-.28 1.712-.397 2.582.834-.062 1.814.128 2.472-.232 2.1-1.149 3.709-.511 4.803 1.22.712 1.127 1.108 2.537 1.284 3.865.52 3.876-1.233 7.086-3.65 9.966-.397.474-1.497.423-2.284.554-1.042.174-2.313-.024-3.098.49-2.163 1.419-4.141 3.106-6.161 4.722-3.51 2.811-3.549 2.867-.44 6.027 3.848 3.91 6.354 8.295 6.236 13.899-.021 1 .79 2.146 1.497 3.012 2.206 2.701 4.543 5.303 6.843 7.933.185.211.45.382.712.503 2.572 1.19 5.182 2.311 7.71 3.579.78.39 1.968 1.27 1.885 1.752-.159.94-.927 1.958-1.742 2.564-.62.46-1.705.438-2.585.448-2.999.038-6.001-.096-8.996.01-2.66.093-5.336 3.17-4.164 5.002 2.015 3.149 1.266 6.235.78 9.459-.466 3.087-.387 6.184 2.06 8.586 2.907 2.85 3.672 6.247 3.04 10.019-.45 2.684.2 5.037 1.811 7.18 1.797 2.39 2.482 5.053 2.418 7.988-.084 3.918-.064 7.84-.027 11.76.017 1.813.999 2.535 2.5 1.964 1.982-.758 3.96-1.529 6.193-2.392.37-2.962.442-2.975 3.912-3.835.522-.129 1.07-.933 1.226-1.52.43-1.61.553-3.294.982-4.903.967-3.603 2.386-4.704 6.242-5.195 1.628-.208 3.3-.35 4.85-.825 2.278-.7 2.75-2.01 1.624-4.038a27.297 27.297 0 0 0-2.184-3.295c-1.41-1.855-2.008-3.779-1.41-6.12.76-2.98 1.262-5.878-1.686-8.384-1.54-1.308-.804-2.61 1.08-3.479 2.006-.925 3.891-2.098 5.79-3.224 1.462-.867 2.749-2.163 4.32-2.672 2.443-.793 3.455-2.282 3.744-4.596.385-3.107 2.275-4.874 5.458-5.51 1.293-.256 2.702-.558 3.752-1.264 3.563-2.4 7.005-4.97 10.454-7.526.675-.5 1.172-1.222 1.77-1.861-3.87-2.718-3.87-2.718-3.948-7.579-.03-1.96.029-3.925-.112-5.878-.295-4.145-1.83-4.998-5.874-3.375a1.738 1.738 0 0 0-.397.205c-1.429 1.057-2.325.408-3.414-.687-.734-.738-1.993-1.35-3.03-1.37-3.569-.069-3.702-.181-4.505-3.64-.259-1.115-1.087-2.712-1.994-2.968-3.047-.862-4.2-2.766-4.41-5.57a17.407 17.407 0 0 0-.387-2.58c-.661-2.892-1.383-3.602-4.461-4.01-1.505-.2-2.208-.955-2.11-2.285.11-1.463.468-2.908.733-4.459-1.859-.423-3.39-1.27-2.667-3.56 1.373-4.336-.24-8.144-2.21-11.859-.492-.926-1.289-1.865-2.196-2.388-1.977-1.137-2.158-2.703-1.021-4.214 1.285-1.707 3.014-3.1 4.741-4.818-1.327-2.124-1.734-2.128-3.837.21-3.038 3.373-3.626 3.446-7.181.888m66.619 266.492c-.705-.14-1.766.035-2.259.484-2.11 1.921-4.384 1.45-6.424.298-1.724-.975-3.103-2.519-4.634-3.81.224-.29.448-.579.674-.867.657.329 1.379.578 1.96 1.007.829.612 1.51 1.412 2.336 2.028 1.47 1.095 2.977 1.284 4.441-.076 1.217-1.13 2.538-1.747 4.262-.948.383.178 1.062.07 1.463-.15 1.832-1.007 3.613-2.101 5.61-3.28-.534-1.366-2.11-1.894-3.647-2.609-1.075-.498-1.975-1.408-2.83-2.25-.213-.209-.118-1.019.136-1.273.259-.258 1.05-.39 1.324-.199 1.953 1.376 3.943 2.736 5.688 4.342.812.744 1.099 2.023 1.624 3.062-1.076.501-2.155 1-3.227 1.507-.765.361-1.783.55-2.23 1.14-1.127 1.49-2.414 1.967-4.267 1.594m-3.327-14.81c1.227.593 2.407 1.283 3.567 1.994.044.027-.356.843-.37.837-1.39-.511-2.764-1.068-4.505-1.77.723-.6 1.168-1.128 1.308-1.061m10.228 40.662c2.285-.83 3.082-.231 3.09 2.18.008 2.792 1.79 4.132 4.667 3.568.728-.143 1.49-.143 2.239-.146 2.774-.014 5.55-.006 8.324.004 3.598.013 6.658-1.218 8.747-4.068.529-.721.565-2.272.108-3.044-.466-.783-1.776-1.38-2.788-1.504-1.131-.136-2.335.436-3.521.547-1.662.157-3.055-.458-3.53-2.074-.71-2.41-2.277-3.754-4.695-4.508-1.944-.605-2.596-2.123-2.03-4.012.33-1.11.857-2.164 1.256-3.257.524-1.432 1.3-2.851 1.45-4.324.352-3.483.56-3.861 4.095-4.692 1.179-.276 2.334-.648 3.501-.978l.021-.783c-1.86-.636-3.724-1.268-5.583-1.907-4.453-1.53-5.929-3.629-4.573-7.959 1.513-4.827 3.662-9.468 5.511-14.199.219-.56.555-1.59.373-1.703-1.63-1.016-3.297-2.075-5.112-2.651-.516-.163-1.591 1.181-2.344 1.9-1.116 1.07-2.043 2.377-3.993 1.524-4.262-1.864-6.563-8.724-4.037-12.504.422-.632 1.44-.892 2.185-1.318.797-.455 1.598-.905 2.396-1.355-.593-.707-1.2-1.403-1.776-2.122-1.017-1.267-2.065-2.515-3.003-3.836-.471-.662-.66-2.038-1.093-2.085-.805-.088-1.962.347-2.486.955-.766.886-1.524 2.113-1.54 3.205-.042 2.76-1.281 4.857-3.058 6.817-1.711 1.888-3.384 3.811-5.096 5.747 2.542 2.767 2.632 3.102 1.183 7.325-.447 1.304-1.171 2.528-1.552 3.846-.315 1.09-.636 2.335-.39 3.386.867 3.687.96 3.675-3.073 3.866-.4.018-.81-.161-1.214-.25.147-.434.252-.888.45-1.3.61-1.264 1.316-2.49 1.869-3.775.626-1.456.957-3.047 1.717-4.426 1.906-3.46 1.724-5.196-1.152-7.973-1.568-1.513-1.213-2.27.566-3.475 2.359-1.598 4.521-3.52 6.51-5.544.501-.51.017-1.93-.014-2.933-1 .07-2.227-.19-2.949.28-1.474.959-2.643 2.344-3.995 3.49-1.572 1.335-3.091 2.777-4.84 3.86-2.665 1.65-4.647.89-5.025-2.089-.251-1.989.26-4.104.67-6.118.209-1.013.784-1.7-.546-2.522-1.2-.741-.9-1.83.371-2.575.822-.48 1.839-.909 2.307-1.639 1.365-2.115 3.02-2.637 5.288-1.48.135.07.4-.1.264-.06.616-1.931 1.198-3.625 1.682-5.343.161-.57.332-1.574.062-1.751-1.217-.792-2.523-1.673-3.918-1.944-4.097-.793-5.401-2.213-5.463-6.417-.005-.446-.52-.886-.798-1.328-.36.385-.986.744-1.028 1.161-.126 1.219.12 2.481-.07 3.684-.085.533-.949 1.425-1.322 1.364-3.383-.546-6.807-1.05-10.07-2.03-1.677-.506-2.436-.471-3.397 1.007-2.517 3.868-4.387 4.622-8.262 3.805-1.69 3.57-3.953 6.985-4.915 10.714-1.415 5.491-6.46 6.01-10.273 8.283-.043.026-.219-.157-.429-.317.119-.294.153-.753.397-.913 1.477-.968 2.95-1.965 4.527-2.762 1.824-.922 2.758-2.176 3.517-4.14 1.538-3.981 3.662-7.771 5.813-11.497.452-.78 2.434-1.6 3.069-1.265 2.662 1.407 3.186-1.135 4.533-2 1.326-.853.37-1.903-.106-2.865-1.163-2.348-2.399-4.669-3.4-7.08-.669-1.614-1.634-1.76-2.625-.628-.937 1.07-1.764 2.397-2.118 3.741-.493 1.86-1.463 2.262-3.094 1.608-1.658-.665-3.305-1.381-4.883-2.21-2.957-1.555-4.244-1.005-4.336 2.235-.026.883.833 1.939 1.56 2.657 1.203 1.187 1.201 2.084.06 3.33-1.662 1.814-3.487 2.318-5.833 1.466-.675-.245-2.01-.355-2.182-.058-1.12 1.928-2.176 3.928-2.9 6.02-.498 1.435-1.243 1.8-2.636 1.65-.868-.094-1.785-.145-2.627.03-1.736.36-3.413 1.008-5.156 1.318-2.492.445-3.42 1.124-3.11 3.595.283 2.256 1.291 4.419 1.824 6.656.693 2.906 2.541 4.987 4.642 7.031 2.301 2.24 4.319 4.75 6.533 7.075.404.423 1.573.868 1.697.728 1.249-1.408 2.568-2.826 3.445-4.455 1.274-2.365 2.199-4.907 3.29-7.367.033-.073.266-.061.945-.199-.1 1.405.076 2.783-.349 3.959-.61 1.688-.127 2.736 1.416 3.315 2.349.882 4.715 1.813 7.162 2.327 2.165.455 3.509 1.434 4.163 3.441.471 1.45.864 2.954 1.572 4.293 1.134 2.145 2.598 2.204 4.04.233 1.388-1.9 3.219-3.012 5.572-3.308 1.61-.203 3.163.375 3.225 1.962.112 2.891 1.885 2.998 4.067 2.922 3.695-.13 6.433 1 7.119 4.99.326 1.896 1.925 1.952 3.503 1.901.948-.03 1.9-.005 2.85-.005.044.212.085.422.128.635-.562.246-1.105.647-1.688.708-1.41.148-2.868-.004-4.253.245-.81.146-1.518.827-2.272 1.267.659.637 1.251 1.36 1.998 1.877.517.358 1.316.324 1.855.666.345.22.443.802.652 1.223-.433.192-.978.649-1.284.53-1.785-.692-2.117.352-2.255 1.644a49.074 49.074 0 0 0-.25 3.467c-.162 4.347-.211 8.7-.49 13.04-.106 1.628-.84 3.202.224 4.8.216.324 0 .976-.13 1.447-.475 1.723-.879 3.479-1.561 5.125-.289.693-1.358 1.726-1.807 1.613-3.453-.871-5.57 1.389-8.295 2.773 2.777 2.311 5.287 4.46 7.873 6.52.9.715 1.94 1.31 3 1.785 1.759.787 3.645 1.322 5.365 2.175 1.383.69 2.4.494 3.74-.203 1.587-.829 3.437-1.6 5.186-1.624 2.253-.032 4.515.728 6.783 1.092.676.11 1.382.033 2.075.041-.128-.606-.227-1.221-.387-1.82-.272-1.017-1.03-2.134-.795-3.013.746-2.8 2.578-4.9 5.453-5.944" fill="#FFFC88"/><path d="M513.56 539.033c1.161-2.425 3.341-3.635 5.33-5.143 1.415-1.072 2.882-2.132 4.068-3.42.854-.93 1.805-2.224 1.804-3.355 0-3.376-.591-6.742-3.63-8.99-2.748-2.033-5.365-4.085-6.032-7.641-.37-1.965-1.026-3.901-1.172-5.877-.148-2.01.227-4.048.275-6.077.102-4.458-1.797-6.713-6.285-7.912-1.342-.357-2.75-.943-3.793-1.806-4.648-3.85-9.792-7.2-13.375-12.162-.286-.398-1.125-.74-1.6-.638-3.696.79-4.27.371-6.246-2.752-.99-1.565-2.607-2.986-4.282-3.864-2.553-1.336-3.848-.578-5.478 1.753-.667.952-2.083 2.058-3.11 2.015-3.667-.15-6.323 1.213-8.527 3.915-1.29 1.582-3.235 1.902-4.819.734-.966-.714-1.502-2.21-1.83-3.452-.663-2.511-1.139-5.05-3.609-7.397-.503 1.282-1.009 2.136-1.15 3.041-.175 1.137-.015 2.318-.069 3.478-.168 3.616-1.158 4.366-4.73 3.627-.732-.151-1.459-.333-2.189-.495-6.622-1.468-13.326-2.083-20.09-1.398-3.047.308-5.832.575-8.46-1.59-1.899-1.562-4.692-1.268-6.528-.026-2.15 1.453-1.656 3.266-1.004 5.242.795 2.412.21 3.76-2.001 5.199-.809.525-1.66.99-2.49 1.483-1.785 1.063-2.192 2.713-1.859 4.54.088.48.773 1.187 1.23 1.223 4.788.376 7.872 3.29 10.667 6.604 1.797 2.13 3.827 3.75 6.63 4.61 1.719.528 3.8 1.42 4.662 2.778 1.68 2.647 4.253 3.998 6.638 5.701.717.512 1.608 1.05 1.929 1.777.736 1.675 2.155 2.282 3.71 2.857 1.049.388 2.048.902 3.094 1.3 3.275 1.244 6.48 3.11 9.866 3.503 3.333.387 6.2 3.61 9.894 1.591.172-.093.58.113.824.261 4.251 2.572 8.488 5.167 12.745 7.73.776.467 1.63.814 2.448 1.215l.431-.568-2.496-1.233c.219-.341.435-.682.653-1.024.944.17 1.89.326 2.83.51 1.36.27 2.722.806 4.073.78 1.922-.034 3.494.326 4.871 1.704 1.13 1.132 2.422 1.877 4.216.908.484-.262 1.632.12 2.177.557 1.969 1.581 4.203 2.14 6.685 2.097 2.467-.044 4.464.857 6.16 2.636 1.307 1.374 2.825 2.574 4.333 3.75.358.279 1.212.395 1.56.174 1.116-.708 2.544-1.41 3.052-2.473" fill="#FFFC88"/><path d="M403.072 482.927c2.061-1.115 2.924-2.72 2.039-5.093-.642-1.72-.411-3.454 1.02-4.851 2.052-2.004 7.182-2.445 9.7-.997.978.562 2.178.977 3.305 1.05 5.753.367 11.528.456 17.269.935 3.62.303 7.195 1.12 11.034 1.746.193-2.087.213-4.26.657-6.347.247-1.158.946-2.726 1.893-3.142 2.092-.92 3.284-2.461 3.812-4.317 1.521-5.362 2.99-10.756 4.061-16.214.889-4.532 1.241-9.081 3.655-13.298.823-1.44.353-4.053-.434-5.732-.763-1.627-2.943-1.378-4.668-.837-.85.268-1.785.499-2.462 1.015-4.223 3.21-8.993 2.708-13.776 1.961-.908-.14-1.878-.626-2.566-1.226-2.052-1.792-4.384-2.096-6.92-1.485-1.23.296-2.408.794-3.62 1.167-3.204.986-5.509-.288-6.213-3.431-.127-.567-.166-1.15-.268-1.722-.428-2.397-1.964-3.656-4.414-3.247-1.183.197-2.341.886-3.363 1.56-2.73 1.803-4.24 2.026-6.245-.434-2.539-3.114-5.432-3.98-9.197-2.956-.422.114-.911-.014-1.342.083-2.897.659-6.025.885-8.622 2.139-3.759 1.813-7.539 3.07-11.685 3.61-1.525.2-3.172.985-4.332 1.975-1.607 1.373-1.136 2.325.922 2.992 2.834.918 5.672 1.858 8.405 3.02.752.32 1.773 1.701 1.578 2.182-1.105 2.73-.889 5.236.177 7.936.496 1.257.797 1.984 2.309 2.048 2.774.118 3.707 1.574 2.66 4.037-.396.929-.838 1.988-1.596 2.59-1.746 1.39-3.684 2.557-5.57 3.775-2.984 1.925-6.037 3.753-8.968 5.748-1.861 1.267-3.723 1.672-6.05 1.682-2.913.014-5.83.914-8.726 1.518-.431.09-.807.62-1.118 1.013-.913 1.15-1.73 2.376-2.676 3.497-1.343 1.59-1.314 3.205-.15 4.797 1.168 1.596 2.804 2.953 3.627 4.687 1.764 3.717 5.248 4.966 8.689 6.361 1.377.56 2.868.856 4.257 1.394 3.743 1.448 7.453 2.975 11.188 4.442 1.591.625 3.182 1.292 4.831 1.735 2.662.714 5.37 1.274 8.063 1.867 1.02.224 2.057.382 3.092.533 1.856.271 2.866-.35 2.733-2.34-.216-3.236.956-5.777 4.005-7.426m36.09-196.134c-1.934 1.934-4.297 3.496-5.457 5.663-1.353 2.53-2.06 5.116-5.983 4.151 0 .942-.132 1.602.023 2.19.732 2.76-.23 5.004-2.146 6.967-3.191 3.271-6.325 6.601-9.64 9.752-3.772 3.584-8.04 6.076-13.647 6.328-2.344.106-4.618 1.67-6.279 2.319.88 3.331 1.719 5.986 2.259 8.694.642 3.22 1.857 6.074 5.012 7.583 2.999 1.434 5.41 3.35 6.725 5.941 1.483 0 2.47.037 3.452-.013.701-.035 1.657.058 2.048-.332 1.27-1.263 2.561-2.602 3.415-4.137.957-1.719 1.588-2.068 3.187-.88 3.028 2.243 3.85 5.684 2.324 9.143-.448 1.018-1.05 2.359-.719 3.25 1.905 5.118.755 9.84-1.563 14.469-.64 1.276-.482 2.126 1.123 1.793 1.773-.364 2.985.237 4.267 1.293.688.569 1.742.965 2.646.997 4.28.139 7.86 1.575 10.637 4.803.47.546 1.146.935 1.754 1.356 2.626 1.812 4.051 1.737 6.249-.544 1.365-1.416 2.89-2.193 4.922-2.197 2.315-.003 4.098.303 6.149 2.017 2.291 1.912 5.83 2.45 8.87 3.462.37.123 1.24-.392 1.49-.823 1.447-2.504 2.34-2.78 4.923-1.319 1.229.694 2.421 1.46 3.7 2.056 1.502.697 2.498.476 3.317-1.278.734-1.573 2.129-2.915 3.43-4.167.95-.91 2.094-.734 2.798.497 1.017 1.775 1.936 3.606 2.992 5.358.672 1.116 1.293 2.703 2.329 3.089 3.5 1.302 6.736 3.525 10.835 3.09 1.808-.192 2.573-.53 2.203-2.49-.161-.85.316-2.342.985-2.705 1.556-.84 1.314-1.547.604-2.749-1.644-2.785-1.333-3.899.921-6.373.618-.679.882-1.89.84-2.838-.047-1.045-.533-2.113-1.008-3.088-.582-1.183-.628-1.921.835-2.561.771-.34 1.428-1.244 1.805-2.039.7-1.473 1.156-3.054 1.867-5.012-2.994-3.35-7.253-4.352-12.297-3.975-3.847.287-7.758-.095-11.633-.318-2.412-.14-3.863-1.516-4.74-3.734-.545-1.38-1.49-2.678-2.517-3.786-.468-.502-1.862-.88-2.332-.579-1.691 1.085-3.32.699-4.968.229-3.02-.861-6.034-1.75-9.006-2.75-4.286-1.443-4.917-3.39-2.326-6.998 1.016-1.416 1.462-3.08.001-4.11-2.297-1.616-4.919-2.811-7.461-4.075-.42-.21-1.198.024-1.71.258-4.507 2.067-6.485.982-6.613-3.794-.099-3.701.08-7.412-.101-11.107-.09-1.85-.209-3.976-1.174-5.452-2.305-3.524-2.824-7.326-2.707-11.259.115-3.908-2.108-6.461-4.91-9.266M295.89 343.114c1.044 2.534 1.854 2.94 4.3 2.01-.145-2.968-.768-5.9-.29-8.653.524-3.006 1.97-5.884 3.209-8.74.721-1.666.22-2.471-1.276-3.326-1.408-.805-3.063-1.742-3.774-3.048-2.058-3.782-5.533-6.971-5.555-11.674-.002-.4-.367-.79-.487-1.206-.943-3.265-2.476-6.506-2.648-9.812-.233-4.5-2.448-7.803-5.043-11.11-1.174-1.498-2.744-1.928-4.596-1.509-.803.182-1.604.374-2.404.57-2.083.51-3.713-.1-4.778-1.912-.852-1.449-1.532-2.996-2.434-4.414-2.037-3.204-3.647-6.877-6.374-9.407-3.977-3.691-5.273-8.27-5.96-13.01-.486-3.354.255-6.9.645-10.341.44-3.878.323-7.458-2.777-10.521-1.32-1.306-2.567-3.073-2.922-4.808-.58-2.836-2.277-3.498-4.816-3.84-7.119-.961-7.452-1.563-8.775-8.465-1.038-5.411-2.56-10.735-3.901-16.089-.304-1.21-.88-2.366-2.478-1.643-2.408 1.088-4.636.729-6.878-.4-1.226-.618-1.951-.218-2.688.98-1.179 1.915-2.4 3.965-4.114 5.378-4.549 3.752-9.298 7.288-14.12 10.71-1.859 1.321-2.899 2.597-2.211 4.877.167.558-.104 1.24-.172 1.864-.239.043-.476.088-.714.132l-1.812-3.474-.794-.627-1.787 3.045-.37-.347v-1.93c-.206-.07-.409-.142-.613-.212-1.335 2.473-2.854 4.874-3.906 7.455-.377.926.405 2.277.59 3.444.065.407.091.965-.136 1.247-1.31 1.612-.353 2.634.87 3.652.505.42.945.913 1.796 1.747l-2.532-.222-.223.409 4.635 3.802c-.118-1.04-.17-1.494-.216-1.887 1.535.171 2.953.361 4.377.476.747.06 1.506-.012 2.259-.024-.387.732-.582 1.75-1.2 2.138-1.65 1.038-1.333 1.92-.058 2.849.524.384 1.3.925 1.783.79 1.268-.35 2.577-.858 3.614-1.627 1.334-.989 2.053-.987 2.6.638 1.67 4.955 5.907 7.788 9.843 10.77 2.68 2.029 5.767 3.547 8.558 5.447.801.545 1.21 1.629 2.089 2.874-1.93-.082-3.19-.136-4.841-.208l2.98 5.317 1.19-3.541.985.077c.044 1.1.212 2.212.098 3.297-.112 1.068-.64 2.095-.753 3.164-.2 1.888 1.297 3.55 3.187 3.831 2.629.39 5.254.814 7.872 1.269.502.087 1.02.304 1.434.593 1.025.712 1.922 1.59 1.072 2.9-.828 1.28-1.939.738-2.946.175-.99-.554-1.946-1.164-2.918-1.75 2.698 5.293 6.966 8.844 12.451 10.805 2.019.723 3.339 1.849 4.384 3.444.285.433.044 1.188.044 1.795l-.864.4c4.628 2.386 7.469 6.234 9.847 10.498 1.733 3.106 3.409 6.267 5.452 9.178 2.731 3.893 5.786 7.571 8.718 11.33.623.8 1.313 1.55 1.973 2.322l.258-.236-2.11-4.17.574-.355c5.653 3.463 6.586 10.782 12.383 14.462l-.81-2.458c2.951.57 4.105 2.649 5.004 4.835m563.454 24.029c-.387-1.975-.864-3.543-3.155-4.213-1.399-.408-2.708-1.26-3.91-2.107-1.773-1.25-3.664-1.505-5.754-1.202-5.091.738-10.19 1.437-15.285 2.15l-.001.442c3.406 0 6.813.012 10.22-.01.819-.005 1.679-.302 2.44-.134.698.154 1.286.757 1.924 1.164-.47.594-.812 1.444-1.434 1.73-1.131.52-2.41.877-3.657.986-1.851.164-2.392.798-2.028 2.653 1.23 6.253.063 12.3-2.41 18.077-.765 1.793-2.15 3.517-3.683 4.784-3.585 2.966-7.396 5.681-11.179 8.417a7286.38 7286.38 0 0 1-33.39 24.022c-1.526 1.09-2.151 2.157-1.914 4.154 1.51 12.743 2.822 25.505 4.194 38.262.558 5.187 1.13 10.375 1.637 15.568.196 2.003 1.516 2.193 3.166 2.186 1.633-.006 2.672-.45 2.983-2.216.683-3.867 2.394-4.535 5.666-2.357 2.274 1.517 3.655 1.289 4.904-1.051 2.3-4.311 4.635-8.617 6.65-13.055 1.069-2.353 2.453-4.072 4.954-4.963 3.113-1.11 5.02-3.561 5.392-6.478.347-2.726.406-5.208 3.106-6.825.748-.446 1.316-1.171 1.966-1.769.295.906.879 1.83.82 2.713-.104 1.576-.587 3.13-.93 4.689-.248 1.132-.591 2.25-.774 3.39-.217 1.359.152 2.246 1.767 2.755 1.072.34 2.124 1.366 2.72 2.349 1.135 1.864 1.936 3.915 3.057 6.265.357-1.237.679-2.049.824-2.889 1.058-6.075 2.06-12.159 3.118-18.233.792-4.55-.224-9.565 3.624-13.344.054-.053-.053-.261-.23-1.036l-5.155 2.565c-1.52-2.079-1.087-4.769 1.1-5.379 3.637-1.013 4.318-3.897 5.033-6.801.124-.495-.225-1.098-.352-1.636-2.066 1.128-3.756 2.235-5.61 2.951-.593.231-1.867-.377-2.367-.967-.453-.538-.277-1.575-.38-2.39h2.221c1.42-1.698.49-5.248 3.874-5.625.146-3.064-.038-6.218.552-9.231.435-2.232 2.15-4.202 2.808-6.426.966-3.261 2.73-5.997 5.122-8.322 6.796-6.608 9.574-14.359 7.756-23.613m-72.05 84.117c-.823-7.932-1.843-15.846-2.884-23.755-.132-1.008-.712-2.103-1.415-2.876-5.592-6.156-11.258-12.25-16.917-18.35-1.558-1.68-3.182-2.827-5.85-1.983-1.563.495-3.42.173-5.14.123-2.355-.066-2.156-2.046-2.649-3.563a9.414 9.414 0 0 0-.42 2.612c-.047 4.064.07 8.137-.143 12.193-.095 1.823-.238 4.166-1.384 5.309-2.49 2.482-3.304 5.378-3.407 8.488-.257 7.69-4.569 12.789-10.825 16.764-3.066 1.948-6.179 3.827-9.237 5.785-.807.519-1.492 1.211-2.234 1.823.13.12.261.238.392.357l2.73-1.709c.852 1.19 1.348 2.076 2.029 2.797 1.752 1.854 2.019 4.21.24 6.043-1.035 1.068-2.557 1.68-3.8 2.573-.73.524-1.926 1.218-1.907 1.806.073 2.21-1.04 2.035-2.548 1.562-.71-.223-1.458-.333-2.17-.556-1.542-.48-2.655-.322-3.466 1.322-.513 1.04-1.6 1.814-2.432 2.707l-.529-.254c-.015-.276-.11-.573-.032-.82.736-2.307-.173-3.673-2.561-4.091-2.774-.487-5.57-.859-8.346-1.34-.492-.086-.93-.469-1.394-.715.441-.299.878-.842 1.324-.85 1.643-.03 3.286.142 4.931.193 1.19.035 2.392.075 3.57-.045.422-.042 1.13-.568 1.111-.837-.032-.486-.4-1.166-.826-1.365-.86-.4-1.844-.703-2.789-.737a250.766 250.766 0 0 0-10.1-.14c-1.519.006-3.31.08-3.234 2.128.093 2.548.813 4.069 3.097 3.933.957-.057 1.932.202 2.9.296 2.069.203 3.294 1.31 3.633 3.268.16.926.01 1.908.224 2.813.426 1.794.438 4.156 1.631 5.21 3.536 3.125 7.818 5.07 12.833 4.923 1.347-.04 1.94-.47 1.558-1.87-.444-1.631.404-2.886 1.928-3.177 1.583-.302 3.374-.325 4.918.083 3.595.953 7.05 2.412 10.65 3.342 3.577.921 3.87.928 4.17 4.52.123 1.476.652 1.716 2.126 1.593 7.086-.595 14.183-1.06 21.279-1.526 7.246-.476 14.495-.911 21.745-1.341 1.41-.084 2.018-.765 1.97-2.094-.075-2.103-.045-4.213-.218-6.308-.668-8.092-1.296-16.189-2.132-24.264" fill="#FFFC88"/><path d="M754.227 395.754c.11 1.808.085 3.627.047 5.44-.029 1.304.59 1.96 1.888 1.796 1.901-.241 3.776-.708 5.681-.898.93-.092 2.048-.02 2.821.411 1.008.56 1.815 1.504 2.613 2.367 5.292 5.732 10.638 11.42 15.78 17.278 1.401 1.594 2.3 1.458 3.815.367 15.2-10.969 30.44-21.89 45.657-32.838.468-.338 1.035-.759 1.195-1.252 1.514-4.614 2.949-9.251 4.406-13.882l-.404-.15c-.268-1.57-.563-3.139-.799-4.715-.453-3.009-2.236-4.833-5.242-5.547-2.69-.635-5.367-1.366-8.094-1.786-8.567-1.322-16.842-.96-24.434 3.888-3.85 2.456-8.201 3.725-12.814 4.387-7.6 1.092-14.992 3.112-21.694 6.806-3.47 1.913-6.72 4.35-9.649 6.988-2.206 1.987-3.683 4.592-1.436 7.748.652.916.59 2.372.663 3.592m-350.77 17.004c-.145.646.099 1.557.519 2.101.822 1.069 2.007 1.878 2.823 2.95 1.363 1.791 3.057 2.244 5.049 1.107.32-.183.6-.437.916-.629 4.23-2.572 8.344-.954 9.462 3.698.169.702.411 1.4.727 2.051.826 1.708 1.907 2.017 3.969 1.478 3.042-.798 6.293-.9 9.468-1.142.61-.046 1.513.47 1.875.99 1.118 1.612 2.774 1.71 4.5 1.993 5.75.944 10.28-2.424 16.12-4.003-2.215-2.17-4.015-3.971-5.857-5.731-4.243-4.046-5.564-9.35-6.474-14.716-.487-2.873 1.212-4.653 4.015-5.078 2.864-.435 5.738-.798 8.602-1.23.327-.046.755-.257.902-.518.993-1.76 2.057-3.502 2.839-5.352.906-2.142 1.614-2.61 3.884-1.962.716.206 1.417.55 2.143.604 1.58.117 2.785-1.262 2.157-2.442-1.388-2.611-3.035-4.817-6.333-5.625-2.342-.575-4.733-1.582-6.645-2.983-1.602-1.173-2.997-1.625-4.694-.913-1.346.567-2.663 1.318-3.794 2.222-2.425 1.937-3.564 2.303-6.284.817-2.135-1.168-3.975-2.828-6.041-4.129-1.354-.854-2.818-1.626-4.338-2.136-2.514-.845-5.141-1.371-7.673-2.173-2.649-.84-4.023-.22-4.933 2.4-.334.959-.624 1.984-1.204 2.798-1.56 2.192-2.242 4.52-1.928 7.185.264 2.24-.778 3.884-2.773 5.065-1.007.595-2.079 1.28-2.747 2.183-2.478 3.352-4.815 6.804-7.176 10.235-1.163 1.693-1.285 3.41.218 4.985 1.267 1.327 1.049 2.587.025 3.906-.495.635-1.158 1.27-1.319 1.994m-67.475-59.979c.2-.863.344-1.738.56-2.851-1.193.17-1.994.311-2.802.397-3.588.384-6.533-1.43-7.412-4.548-.764-2.708-2.335-3.477-5.02-2.397-.966.39-1.854.96-2.823 1.339-1.442.564-3.047.947-4.082-.524-1.055-1.498.347-2.482 1.198-3.567.742-.946 1.85-2.02 1.845-3.031-.008-2.14-.517-4.308-1.079-6.4-.19-.712-1.072-1.627-1.782-1.766a72.543 72.543 0 0 0-8.577-1.179c-1.335-.1-1.995.804-2.147 2.252-.146 1.381-.537 2.91-1.344 4.019-1.595 2.19-1.758 4.375-.959 6.799.32.965.73 1.963.734 2.946.002.713-.397 1.788-.96 2.08-3.326 1.725-6.014.5-6.894-2.965-.02-.074-.237-.102-.882-.36l5.086 22.4c1.925-1.727 2.623-.441 3.313.595 1.101 1.659-.102 2.49-2.062 3.373 1.883 2.226 3.338 4.44 5.286 6.117 2.205 1.895 3.58 3.702 2.81 6.74-.49 1.944-.25 4.05-.614 6.036-.275 1.5-.672 3.153-1.576 4.335-1.592 2.086-3.663 3.822-5.413 5.805-.402.455-.557 1.848-.42 1.906 1.772.744 3.582 1.584 5.46 1.822.747.094 1.861-1.103 2.51-1.932 3.199-4.083 8.45-4.689 12.662-7.034.983-.547 2.788-.386 3.9.109 2.137.95 4.087 2.32 6.036 3.625.945.632 1.714 1.508 2.812 2.497.412-1.553.423-2.925 1.088-3.858 2.112-2.954 2.744-5.699.405-8.91-.628-.864-.014-2.576.03-3.897 1.115.232 2.233.463 3.349.7.145.03.304.166.42.134 1.21-.345 2.727-.395 3.538-1.151 1.145-1.07.5-2.594-.614-3.443-2.664-2.03-2.734-4.615-2.149-7.468.544-2.66.091-4.982-2.267-6.821-2.4-1.872-2.995-4.41-2.296-7.267.378-1.553.772-3.102 1.132-4.657m148.826 109.369c3.49-3.442 1.637-6.944 1.175-10.46-.147-1.12.573-2.477 1.224-3.539 1.172-1.912 2.676-3.632 3.878-5.53.873-1.377 1.714-.804 2.231.009 2.424 3.811 5.225 7.5 5.342 12.25.036 1.435.235 2.599 1.667 3.534.747.49.926 1.794 1.423 2.859-.746.1-.988.183-1.025.13-2.266-3.232-6.025-2.612-9.247-3.345-1.472-.336-2.502.084-3.16 1.615-.481 1.12-.928 2.675-3.508 2.477m-1.746 8.317c.849.758 1.624 1.757 2.016 2.793.51 1.36 1.218 1.565 2.555 1.278 1.684-.36 3.58-.696 4.678 1.057 1.794 2.865 2.73 2.86 6.024.622 1.755-1.192 3.17-3.074 5.599-1.503.576-2.24 1.308-4.098 1.468-5.998.148-1.755-.316-3.558-.552-5.725-.055-.038-.565-.4-1.33-.945 3.134-1.761 2.563-4.585 2.612-7.198.04-2.174.072-4.36-.101-6.527-.15-1.866-.221-3.881-1.017-5.514-.774-1.59-.602-2.343.628-3.495.712-.67 1.32-2.159 1.025-2.944-.382-1.014-1.583-2.088-2.668-2.424-1.44-.448-3.107-.242-4.677-.26-3.218-.038-3.218-.023-3.17-3.082.03-1.96-.826-2.719-2.584-1.873-1.393.67-2.73 1.743-3.66 2.949-1.344 1.744-3.058 1.618-4.843 1.476-1.643-.13-2.16-1.331-2.457-2.701a62.152 62.152 0 0 0-.973-3.798c-.549-1.917-1.95-2.658-3.92-3.05-2.23-.442-4.376-1.304-6.537-2.042-.736-.253-1.407-.685-1.721-.842-1.135 1.025-1.963 1.747-2.757 2.504-.359.341-.697.72-.957 1.134-1.514 2.406-2.334 4.99-2.218 7.846.03.695-.057 1.628-.5 2.066-2.462 2.44-2.683 5.612-3.096 8.663-.993 7.335-1.665 14.708-5.438 21.404-.511.905-.139 2.399.118 3.56.466 2.12 1.097 4.212 1.775 6.28.312.955.724 2.392 1.404 2.587.755.216 2.282-.485 2.752-1.219 1.867-2.919 4.658-3.704 7.871-3.668 2.027.022 3.219-.886 3.887-2.654.67-1.776 1.918-2.462 3.882-1.976 2.076.514 3.831-.066 5.237-1.67.63-.716 1.286-1.446 2.063-1.993.413-.29 1.111-.203 1.68-.286-.675 1.578-1.405 2.592-2.27 3.483-1.293 1.332-1.238 2.424.172 3.685m172.405 24.275c1.893 1.37 3.265 3.463 4.706 5.346.73.957 1.09 2.183 1.606 3.264.96-1.826 1.542-3.638 2.708-4.974 1.704-1.958 2.442-3.947 2.357-6.524-.049-1.493.566-3.227 1.46-4.462.739-1.02 2.27-1.927 3.55-2.077 3.438-.405 5.924 1.306 7.078 4.76.732 2.19 1.087 4.51 1.44 6.798.285 1.825 1.082 2.857 3.088 3.096 1.061.126 2.17.6 3.064 1.19 2.14 1.414 2.859 1.468 4.468-.508 2.131-2.621 4.078-5.381 6.192-8.015 1.913-2.383 3.637-5.099 7.424-4.868.399.024.852-.27 1.227-.497 3.29-1.999 6.277-1.22 9.153.87 1.256.912 2.435 2.077 3.856 2.586 2.511.896 3.604 2.709 3.705 4.956.106 2.32 1.306 3.307 3.312 4.061 1.928.722 3.923 1.448 4.416 3.901.104.52 1.334 1.126 2.083 1.176 2.612.172 5.243.086 7.865.162 1.541.046 2.19-.56 2.07-2.073-.484-6.07-.929-12.143-1.39-18.213-.117-1.545-1.07-2.202-2.564-2.565-3.244-.785-6.443-1.742-9.671-2.587a23.74 23.74 0 0 0-3.296-.623c-1.677-.19-2.757.315-2.672 2.243.095 2.148-1.223 3.175-3.297 3.364-2.79.253-5.52.346-7.806-1.769-.842-.778-1.994-1.325-3.1-1.731-3.717-1.365-5.176-3.962-5.27-7.733-.118-4.826-.981-5.605-5.866-6.158-2.234-.254-3.657-1.096-3.704-3.495-.015-.736-.355-1.464-.549-2.205-.505.106-.738.117-.931.206-.473.221-.998.4-1.377.732-4.504 3.952-9.934 6.377-15.35 8.849-2.034.928-2.685.766-3.186-1.541-4.178.703-8.368 1.405-12.656 2.125.56.493.93.823 1.305 1.153-.361.337-.669.771-1.094.993-2.015 1.052-4.033 2.11-6.116 3.028-.644.284-1.797.462-2.189.12-1.216-1.06-2.205-.482-2.936.285-.783.822-1.806 2.014-1.709 2.945.627 5.998 3.537 10.746 8.596 14.41M405.638 364.172c-.872-.806-1.9-1.83-2.09-2.884-.633-3.527-2.824-6.024-5.366-8.287-.481-.428-1.797-.358-2.533-.063-2.069.828-4.025 1.918-6.048 2.855-1.067.495-2.306.718-3.253 1.359-2.06 1.393-3.894 3.105-5.985 4.446-2.226 1.426-3.317 3.259-3.298 5.836.249 1.277.398 2.582.767 3.826.667 2.248 1.973 2.97 3.985 1.793 3.05-1.785 5.89-1.715 8.867-.05.577.324 1.237.52 1.877.718 3.099.963 5.828.618 8.211-1.806 1.325-1.347 2.91-2.49 4.514-3.532 2.203-1.431 2.292-2.423.352-4.211" fill="#FFFC88"/><path d="M353.497 463.062c2.974-4.783 2.845-9.959 2.65-15.171-.096-2.522-1.292-3.182-3.903-2.86-2.954.363-5.936.506-8.899.81-.771.078-1.907.169-2.204.645-1.288 2.072-3.365 2.455-5.504 2.947-3.75.86-7.469 1.842-11.2 2.773l.014.733c2.383.748 4.775 1.474 7.145 2.256.604.2 1.588.522 1.641.891.49 3.394 3.583 3.196 5.82 4.393l1.184-1.847c1.227.805 2.423 1.407 3.377 2.264 1.019.915 1.77 2.102 2.705 3.113 2.794 3.018 4.999 2.552 7.174-.947" fill="#249100"/><path d="M116.618 134.244c1.332.525 2.464.179 2.962-1.097.858-2.193 1.525-4.457 2.273-6.69l-.445-.157c-.064-.865.007-1.765-.22-2.587-.397-1.422-.565-3.244-2.637-3.285-1.939-.038-3.1 1.25-3.818 2.875-.229.52-.209 1.138-.388 1.682-.382 1.166-.556 2.507-1.283 3.432-2.642 3.362-1.007 3.518 1.517 4.935.642.36 1.348.62 2.039.892m-28.535-27.478c-.45-.37-1.326-.683-1.78-.5-.425.174-.838 1.079-.76 1.591.29 1.907.326 4.052 1.3 5.615 1.674 2.685 3.914 5.056 6.046 7.45 1.218 1.366 2.693 2.516 4.064 3.773-.3-2.77-.625-5.23-.812-7.7-.097-1.294-.742-1.83-1.983-1.81-2.08.031-3.023-.988-2.948-2.945.093-2.437-1.394-4.047-3.127-5.474m-58.799 38.672l.215.87c1.512.648 3.024 1.298 4.535 1.948.613-1.504 1.514-2.963 1.766-4.522.332-2.054.168-4.188-1.332-6.452-1.599 3.158-.123 7.488-5.184 8.156m827.938 253.163c3.338-2.573 4.389-6.303 6.23-9.863-5.555 1.058-8.572 5.793-6.23 9.863M266.214 366.35c-1.024 1.436 1.654 5.236 4.177 5.28.178-.18 1.157-.893 1.052-1.1-.782-1.58-1.652-3.16-2.793-4.502-.295-.347-2.102-.147-2.436.322M110.961 249.602l-.83-.078-4.994 11.306c2.907-.485 3.21.89 3.473 2.67.206 1.39 1.016 2.696 1.559 4.04l.644-.372c-2.677-5.79-3.916-11.615.148-17.566M67.073 42.828c1.364-.695 2.876-1.572 2.11-3.912l-.805 1.577c-.589-.457-1.011-.85-1.498-1.148-1.117-.682-2.263-1.316-3.398-1.971.265 1.347.386 2.74.838 4.025.406 1.153 1.389 2.121 2.753 1.429m90.441 220.044c-.92-4.906-2.658-6.988-5.534-6.632 1.177 3.82 3.123 6.152 5.534 6.632m116.062 112.322c-.675.622-1.156 1.525.297 1.897 1.615.416 4.009-.97 4.809-2.849-2.022-.58-3.712-.33-5.106.952M143.818 223.399c-2.429 1.035-3.927 3.32-3.892 5.766 2.913-1.38 4.463-3.585 3.892-5.766M721.973 457.35c-2.286 1.13-4.572 2.263-6.857 3.394l.289.557c2.741-.246 4.916-1.594 6.568-3.952M177.689 286.532l-2.835-4.984c.048 2.106.197 4.16 2.018 5.393l.817-.41zm44.842-22.075l3.623 6.874.697-.355-3.834-6.867-.486.348m-59.128 12.285l-2.81-4.388-.714.387 2.562 4.531.962-.53zm-49.585-7.192l3.624 2.276.466-.735-3.718-2.13-.372.588m5.165 4.895l2.592 2.867.603-.504a6552.61 6552.61 0 0 0-2.555-2.899l-.64.536m370.062 181.551c.504.438 1.26.396 1.936.396a10.252 10.252 0 0 1 4.333.959c.238.11.477.233.738.26.262.03.557-.06.685-.281.099-.169.084-.376.065-.569l-.26-2.761c0-3.018-1.523-5.728-2.806-8.38-.216-.449-.482-.94-.965-1.098-.515-.17-1.093.126-1.406.555-.266.363-.289.776-.475 1.163-.125.257-.337.45-.508.681-.527.707-1.041 1.483-1.386 2.29-.677 1.58-.604 3.352-.52 5.06.03.62.094 1.31.57 1.725" fill="#FFFC88"/></g></svg>