<svg width="226" height="122" viewBox="0 0 226 122" xmlns="http://www.w3.org/2000/svg" xmlns:xlink="http://www.w3.org/1999/xlink"><title>RPC</title><defs><path id="a" d="M225.927 72.203V.07H0v72.133h225.927z"/><path id="c" d="M.015 100.097h157.023V.127H.015v99.97z"/></defs><g fill="none" fill-rule="evenodd"><path d="M58.224 23.03c-1.78.4-15.954 4.964-15.954 4.964s-1.951.514-2.296-1.027c-.344-1.54-1.538-6.236 1.894-7.188l15.208-4.222s1.55-.4 1.779.684l.23 1.084.344 3.652s.574 1.654-1.205 2.054zM84.519 2.412L6.505 22.292l140.228 45.53 30.553-17.333 1.362 26.262 23.124-12.862 13.965-35.215L84.519 2.41z" fill="#CCBA15"/><path d="M199.213 51.97c-.322 1.923-2.577 8.265-2.582 8.28-.508 1.427-2.482 2.072-3.66 2.743-2.648 1.508-5.064 3.365-7.564 5.094l-2.798 1.934c-.655.453-1.563 1.307-2.446 1.095-.153-.034-1.029-.083-.642-1.944.387-1.86 1.74-7.304 1.744-7.318.356-1.435 1.008-1.749 2.297-2.4 3.05-1.542 5.79-3.555 8.687-5.347l5.737-3.55s1.55-.513 1.227 1.412m24.556-21.716c-.687.502-1.476.274-2.229.03-.753-.246-.813-.097-.813-.097l-66.505 38.25 2.304.859-1.422 45.902L216.91 66.31l8.327-37.232s-.78.673-1.468 1.175" fill="#E2D100"/><path d="M2.244 23.201S.76 23.058.66 22.493l6.578 33.788 134.925 64.307s3.328 1.99 7.135-.66c3.808-2.65 5.806-4.731 5.806-4.731l1.422-45.902s-3.661 2.4-5.308 2.413c-1.647.013-5.315.028-6.831-.49C142.87 70.698 2.244 23.2 2.244 23.2" fill="#EAE406"/><path d="M146.733 67.822L6.505 22.292l78.014-19.88 131.218 26.262-69.004 39.148zm75.445-40.172S88.082 1.455 85.8.946c-2.281-.508-4.78.085-4.78.085s-.877.146-1.011.407c-.043.084.358.338.102.404-9.541 2.49-57.73 14.484-73.607 18.465-.44.11-1.281-.25-1.67-.152-2.219.554-3.544 1.295-3.906 1.626-1.285 1.175 1.233 1.42 1.233 1.42s139.962 47.24 142.143 48.016c1.438.513 4.938.532 6.83.491 1.894-.04 5.309-2.413 5.309-2.413l-2.304-.86 66.505-38.248s-.1-.25 1.258.25 2.189-.46 3.253-1.36c1.063-.898-2.978-1.427-2.978-1.427z" fill="#F9F44E"/><path d="M53.369 38.079a.575.575 0 0 1-.168-1.126l30.755-9.303V2.411c0-.318.259-.575.578-.575.32 0 .579.257.579.575v25.666a.576.576 0 0 1-.41.55l-31.165 9.427a.578.578 0 0 1-.169.025m143.195 22.746a.589.589 0 0 1-.16-.023l-9.63-2.765a.575.575 0 1 1 .322-1.105l9.629 2.765a.575.575 0 0 1-.16 1.128" fill="#93820A"/><path d="M172.352 53.872a.589.589 0 0 1-.16-.023l-87.818-25.22a.575.575 0 1 1 .32-1.105l87.819 25.22a.575.575 0 0 1-.16 1.128" fill="#93820A"/><g transform="translate(0 .095)"><mask id="b" fill="#fff"><use xlink:href="#a"/></mask><path d="M221.198 29.878zm.001.004zm-220-7.627c.185.114.644.24 1.034.279a.582.582 0 0 1 .13.028c1.4.472 139.992 47.25 142.153 48.02.994.354 3.469.525 6.622.457 1.064-.024 2.845-.967 4.046-1.7l-1.232-.46a.575.575 0 0 1-.087-1.037l66.379-38.175a.38.38 0 0 1 .011-.012c.297-.303.733-.27 1.864.148.831.306 1.357-.107 2.291-.925l.187-.163c-.463-.21-1.482-.459-2.48-.59a.445.445 0 0 1-.036-.005C216.606 27.05 87.952 1.917 85.69 1.413c-2.126-.474-4.494.078-4.518.083a3.468 3.468 0 0 0-.384.086.625.625 0 0 1-.025.282.67.67 0 0 1-.487.44C73.39 4.1 45.965 10.95 25.939 15.952c-7.913 1.976-14.85 3.708-19.278 4.819-.355.089-.755.007-1.14-.072-.18-.037-.45-.092-.538-.08-2.096.525-3.363 1.23-3.647 1.49a1.18 1.18 0 0 0-.137.146zM149.87 72.203c-1.841 0-4.479-.087-5.746-.539C141.99 70.904 5.631 24.88 2.051 23.672c-.563-.063-1.737-.286-2.001-1.07-.103-.308-.1-.789.502-1.34.523-.478 2.046-1.233 4.155-1.76.317-.079.67-.007 1.045.07.195.04.522.107.625.083 4.427-1.11 11.366-2.843 19.279-4.82C45.192 9.958 71.77 3.32 79.442 1.332a.593.593 0 0 1 .068-.249c.175-.341.65-.58 1.412-.71.267-.06 2.72-.595 5.02-.082 2.241.5 134.131 26.265 136.344 26.697 2.192.289 3.405.78 3.607 1.463.049.163.111.583-.348.971-.126.107-.25.215-.37.32-.91.797-1.94 1.7-3.458 1.14a6.339 6.339 0 0 0-.824-.259L155.504 68.23l1.158.431a.574.574 0 1 1 .128 1.01c-.363.254-3.616 2.474-5.626 2.518-.34.007-.787.014-1.293.014z" fill="#93820A" mask="url(#b)"/></g><path d="M8.589 22.359l138.095 44.837 67.44-38.261L84.55 3 8.589 22.36zm138.16 46.038a.58.58 0 0 1-.18-.028L6.339 22.84a.576.576 0 0 1 .037-1.104L84.391 1.854a.581.581 0 0 1 .258-.007L215.866 28.11a.574.574 0 1 1 .173 1.063l-69.004 39.149a.58.58 0 0 1-.286.075z" fill="#93820A"/><path d="M41.883 19.779l.156.554c-2.468.685-2.11 3.747-1.523 6.338l.038.172c.054.24.16.4.332.504.387.234 1.024.148 1.238.095.785-.253 14.218-4.575 15.988-4.972.368-.083.616-.235.737-.451.2-.358.05-.85.048-.855a.569.569 0 0 1-.029-.134l-.341-3.618-.223-1.052c-.027-.126-.079-.173-.13-.205-.243-.15-.746-.091-.938-.042l-15.197 4.22-.156-.554zm-.303 8.874c-.4 0-.877-.07-1.296-.323-.44-.267-.738-.695-.86-1.238l-.037-.168c-.372-1.64-1.503-6.632 2.34-7.7l15.209-4.222c.122-.031 1.123-.27 1.847.175.34.21.567.537.653.946l.23 1.084a.572.572 0 0 1 .01.065l.339 3.592c.072.25.239 1.013-.155 1.715-.198.354-.618.816-1.494 1.013-1.733.389-15.761 4.904-15.903 4.95a3.566 3.566 0 0 1-.883.111zM198.154 51.09l-5.666 3.505c-.934.578-1.87 1.19-2.774 1.783-1.902 1.245-3.867 2.532-5.956 3.588l-.046.023c-1.21.612-1.663.841-1.952 2.003-.014.054-1.357 5.462-1.739 7.296-.173.835-.039 1.118.007 1.185.032.048.063.057.141.07a1.251 1.251 0 0 1 .064.014c.47.113 1.102-.36 1.61-.74.13-.096.254-.188.37-.268l2.797-1.935c.664-.459 1.334-.936 1.982-1.397 1.798-1.28 3.657-2.603 5.625-3.723.27-.154.57-.302.887-.458 1.03-.506 2.195-1.08 2.514-1.978.023-.064 2.247-6.33 2.558-8.183.083-.496.006-.712-.053-.762-.069-.059-.26-.046-.369-.023m-17.771 20.635a1.81 1.81 0 0 1-.41-.047 1.32 1.32 0 0 1-.904-.561c-.314-.462-.373-1.137-.18-2.062.386-1.859 1.735-7.288 1.748-7.34.415-1.672 1.264-2.101 2.55-2.751l.046-.023c2.031-1.027 3.97-2.297 5.844-3.524a129.76 129.76 0 0 1 2.8-1.799l5.737-3.55a.58.58 0 0 1 .123-.057c.093-.03.932-.288 1.538.227.435.37.584.984.442 1.826-.334 1.994-2.585 8.316-2.608 8.379-.475 1.336-1.926 2.05-3.091 2.624-.301.148-.586.288-.826.426-1.916 1.09-3.751 2.396-5.526 3.66-.651.463-1.325.942-1.995 1.406l-2.798 1.934c-.105.073-.217.157-.334.245-.571.426-1.324.987-2.156.987" fill="#93820A"/><g transform="translate(0 21.79)"><mask id="d" fill="#fff"><use xlink:href="#c"/></mask><path d="M7.684 34.097l134.663 64.181a.517.517 0 0 1 .048.026c.122.072 3.07 1.753 6.505-.638 3.127-2.176 5.035-3.98 5.566-4.504l1.381-44.598c-1.248.746-3.414 1.92-4.691 1.929-2.503.02-5.562-.023-7.024-.522C142.646 49.463 5.65 3.19 2.052 1.976a5.159 5.159 0 0 1-.643-.11l6.275 32.23zm137.396 66c-1.788 0-3.043-.67-3.255-.792L6.921 35.01a.576.576 0 0 1-.318-.41L.03.83.024.802A.579.579 0 1 1 1.148.538c.142.115.649.257 1.086.3a.583.583 0 0 1 .13.028c1.405.475 140.644 47.504 142.144 48.017 1.463.5 5.359.47 6.639.46 1.075-.009 3.633-1.427 4.994-2.32a.581.581 0 0 1 .6-.021.574.574 0 0 1 .297.52l-1.422 45.902a.573.573 0 0 1-.16.38c-.083.086-2.082 2.153-5.892 4.805-1.643 1.143-3.2 1.488-4.484 1.488z" fill="#93820A" mask="url(#d)"/></g><path d="M221.198 30.4zm0 .001zm-65.694 37.923l1.158.432c.232.086.383.31.376.556l-1.384 44.662 60.67-47.987 7.92-35.418-.199.148c-.953.696-2.035.345-2.751.112a2.621 2.621 0 0 0-.41-.106l-65.38 37.601zm-.467 47.448a.58.58 0 0 1-.578-.593l1.41-45.49-1.917-.715a.576.576 0 0 1-.087-1.036l66.418-38.199c.367-.33 1.076-.1 1.37-.004.722.235 1.267.376 1.707.055a26.933 26.933 0 0 0 1.431-1.147.581.581 0 0 1 .676-.06.574.574 0 0 1 .268.62l-8.327 37.232a.575.575 0 0 1-.204.325l-61.806 48.887a.58.58 0 0 1-.36.125zM8.082 46.728l131.888 58.168V77.511L4.49 28.964l3.592 17.764zm132.467 59.628a.581.581 0 0 1-.234-.05L7.339 47.66a.576.576 0 0 1-.333-.413L3.152 28.19a.574.574 0 0 1 .19-.55.581.581 0 0 1 .574-.105l136.83 49.031a.576.576 0 0 1 .382.541v28.674a.575.575 0 0 1-.579.575z" fill="#93820A"/><path d="M156.26 76.312a.573.573 0 0 1-.3-1.067l63.293-38.233a.58.58 0 0 1 .795.193.573.573 0 0 1-.194.79L156.56 76.228a.578.578 0 0 1-.3.084" fill="#93820A"/><path d="M213.275 69.708a.575.575 0 0 1-.57-.682l7.387-38.946a.578.578 0 0 1 1.137.213l-7.386 38.946a.578.578 0 0 1-.568.47" fill="#93820A"/><path d="M155.915 87.472a.573.573 0 0 1-.313-1.06l61.421-39.177a.58.58 0 0 1 .8.174.573.573 0 0 1-.175.795L156.227 87.38a.578.578 0 0 1-.312.091m-.75 24.203a.573.573 0 0 1-.357-1.029l58.82-45.707a.581.581 0 0 1 .812.099.573.573 0 0 1-.1.808l-58.82 45.707a.578.578 0 0 1-.355.122m0-7.55a.579.579 0 0 1-.468-.237.573.573 0 0 1 .127-.803l59.795-43.3a.58.58 0 0 1 .808.127.573.573 0 0 1-.127.803l-59.795 43.3a.578.578 0 0 1-.34.11" fill="#93820A"/><path d="M201.773 78.806a.576.576 0 0 1-.574-.656l4.668-32.806a.58.58 0 0 1 1.146.16l-4.667 32.807a.578.578 0 0 1-.573.495m-29.867 23.624h-.024a.577.577 0 0 1-.555-.598l1.48-36.464a.577.577 0 0 1 .602-.551c.32.012.568.28.555.598l-1.48 36.463a.577.577 0 0 1-.578.552m-44.84-2.02a.577.577 0 0 1-.578-.576V72.276c0-.318.259-.575.578-.575.32 0 .579.257.579.575v27.558c0 .318-.26.576-.579.576m3.28 1.446h-.011a.577.577 0 0 1-.568-.586l.521-27.643a.578.578 0 0 1 1.157.021l-.52 27.644a.577.577 0 0 1-.58.564m-48.55-21.413a.577.577 0 0 1-.577-.539l-1.557-24.372a.577.577 0 0 1 .54-.61c.321-.02.595.22.615.537l1.557 24.372a.577.577 0 0 1-.578.612m5.735 2.53a.577.577 0 0 1-.578-.555l-.91-24.614a.577.577 0 0 1 .558-.596.572.572 0 0 1 .6.554l.909 24.614a.577.577 0 0 1-.579.597M39.945 61.986a.577.577 0 0 1-.577-.547L38.32 40.711a.576.576 0 0 1 .55-.603.58.58 0 0 1 .606.545l1.048 20.729a.576.576 0 0 1-.579.604m-5.591-2.466c-.3 0-.553-.23-.576-.532l-1.575-20.454a.576.576 0 0 1 .533-.618.577.577 0 0 1 .622.53l1.574 20.455a.576.576 0 0 1-.578.619M11.165 49.293a.578.578 0 0 1-.57-.486L7.567 29.75a.578.578 0 1 1 1.143-.18l3.026 19.058a.576.576 0 0 1-.572.665m1.888.832a.578.578 0 0 1-.572-.498L9.866 30.562a.58.58 0 0 1 1.147-.155l2.613 19.065a.576.576 0 0 1-.574.653" fill="#93820A"/></g></svg>