<svg width="199" height="127" viewBox="0 0 199 127" xmlns="http://www.w3.org/2000/svg" xmlns:xlink="http://www.w3.org/1999/xlink"><title>Caja plastica 10</title><defs><path id="a" d="M198.955 62.98v63.87H0V.014h198.955v62.967H0V.014h198.955v62.967z"/><path id="c" d="M0 .113v106.47h126.096V.114H0z"/><path id="e" d="M38.244 104.332h38.1V.012H.144v104.32z"/></defs><g fill="none" fill-rule="evenodd"><path d="M132.216 23.455c-.172.852-.591 1.594-.982 2.357-.513 1.003-1.542.71-1.542.71l-14.63-3.556c-1.153-.352-1.787-1.617-2.257-2.63-.513-1.108-1.501-2.614-.778-3.825.394-.659 1.184-.546 1.66-.42.746.199 1.507.344 2.26.509 1.707.374 3.414.746 5.12 1.124 1.9.42 3.799.845 5.693 1.289.79.185 1.578.373 2.364.571.314.08.627.16.94.244.352.095.811.155 1.108.36.08.056.148.127.213.199.77.853 1.06 1.945.831 3.068zm-83.549-2.062c-1.034.41-12.211 3.864-12.211 3.864s-1.288.565-1.834.117c-.546-.45-1.6-2.44-1.6-2.44s-1.15-2.829 1.503-3.902c2.653-1.073 14.63-4.43 14.63-4.43s1.931-.604 2.614.898c.682 1.503-2.068 5.483-3.102 5.893zm113.922-2.764s.018-1.713-1.271-1.976c-1.29-.263-13.202-2.22-13.202-2.22s-.597-.12-1.265 1.098c-3.104-.55-47.975-8.865-47.975-8.865s-.172-1.03-.73-1.266c-.556-.236-8.854-1.823-8.854-1.823s-.493-.064-1.265.9L72.375 1.755 6.11 20.724l12.367 3.858s.704-.873 1.531-.705c.793.26 9.275 2.818 9.275 2.818s.643.275.827 1.561c.721.227 15.484 33.316 20.264 34.854C63.648 67.379 75.42 42.837 75.42 42.837s.925-1.39 2.75-.954c1.827.437 13.22 4.064 13.22 4.064s1.68.49 1.627 2.594c2.144.688 31.785 10.822 31.785 10.822l28.078-14.72s-1.676 30.066 12.91 25.146c14.585-4.92 8.19-36.207 8.19-36.207l17.13-8.98-28.52-5.973z" fill="#CCBA15"/><path d="M160.856 62.802a.526.526 0 0 1-.148-.021L74.555 37.554 42.833 51.308a.525.525 0 0 1-.418-.964l31.897-13.83a.526.526 0 0 1 .356-.022l86.335 25.28a.525.525 0 0 1-.147 1.03" fill="#93820A"/><path d="M74.52 37.521a.525.525 0 0 1-.524-.493l-2.16-35.242a.525.525 0 1 1 1.05-.064l2.159 35.242a.525.525 0 0 1-.525.557" fill="#93820A"/><path d="M124.788 59.363S95.148 49.23 93.003 48.541c.053-2.104-1.627-2.594-1.627-2.594s-11.393-3.627-13.22-4.064c-1.825-.436-2.75.954-2.75.954s-42.585-13.723-45.31-14.58c-.183-1.287-.826-1.562-.826-1.562s-8.482-2.557-9.275-2.818c-.826-.168-1.53.705-1.53.705L6.096 20.724 72.36 1.754l15.652 2.724c.772-.965 1.265-.9 1.265-.9s8.298 1.586 8.855 1.822c.557.236.729 1.265.729 1.265s44.871 8.317 47.975 8.866c.668-1.218 1.265-1.099 1.265-1.099s11.913 1.958 13.202 2.221c1.29.263 1.271 1.976 1.271 1.976l28.522 5.973-66.31 34.761zm39.302-42.429c-.362-1.186-2.041-1.58-2.041-1.58s-12.38-2.01-13.039-2.01c-.658 0-1.613 1.054-1.613 1.054L100.54 5.812l-.533-1.219-10.014-1.828-1.143.914L72.173.676.525 21.04l17.51 5.226c-.122-1.654.43-1.531.43-1.531s6.948 2.113 8.356 2.633c1.409.52 1.24 2.059 1.24 2.059S72.83 44.062 75.02 44.665c.275-1.7 1.425-1.81 1.425-1.81s11.179 3.838 12.877 4.221c1.7.384 1.206 3.234 1.206 3.234l35.042 12.281 72.86-39.4s-33.979-5.071-34.341-6.257z" fill="#F9F44E"/><path d="M61.218 52.619c-.804 3.512-1.735 4.74-3.427 4.147-3.58-1.253-7.098-2.714-10.633-4.09-1.326-.516-2.697-.958-4.011-1.495a1.393 1.393 0 0 1-.523-.355c-.255-.282-.357-.65-.505-1.073-.205-.586-.46-1.16-.688-1.738-.469-1.188-.936-2.378-1.41-3.564 0-.002-.761-1.905.677-2.37.83-.423 2.539.465 2.539.465l15.865 5.84s2.92.72 2.116 4.233zm61.806 9.08L90.53 50.31s.493-2.85-1.206-3.234c-1.698-.383-12.877-4.22-12.877-4.22s-1.15.11-1.424 1.809C72.83 44.062 28.06 29.427 28.06 29.427s.169-1.538-1.24-2.059c-1.408-.52-8.357-2.633-8.357-2.633s-.55-.123-.428 1.53A285721.146 285721.146 0 0 0 .526 21.04L8.53 64.53l114.751 61.93 2.29-63.869-2.547-.892z" fill="#EAE406"/><path d="M172.797 48.602a338.846 338.846 0 0 1-1.595 6.888l-1.36.834-10.116 6.205-.417.256-.157.093s-.814.678-1.565-.287c-.752-.965-4.1-5.114.094-8.362.104-.08.212-.162.324-.245 4.39-3.256 14.48-8.168 14.48-8.168s.025-.01.067-.013c.212-.016.822.149.245 2.8zm-47.226 13.99l-2.29 63.868 66.139-51.027 9.01-52.242-72.86 39.4z" fill="#E2D100"/><g transform="translate(0 .136)"><mask id="b" fill="#fff"><use xlink:href="#a"/></mask><path d="M91.105 49.82l34.42 12.063 71.273-38.542c-2.846-.432-9.185-1.406-15.488-2.451-4.964-.823-8.935-1.53-11.804-2.099-5.702-1.131-5.802-1.46-5.919-1.84-.22-.718-1.244-1.118-1.643-1.218-4.915-.798-12.4-1.986-12.936-2-.247 0-.843.465-1.222.882a.526.526 0 0 1-.484.164l-46.856-8.586a.525.525 0 0 1-.387-.306l-.42-.963-9.505-1.735-.956.765a.525.525 0 0 1-.421.107L72.199 1.078 2.404 20.917 17.5 25.422c.032-.558.173-.932.43-1.154a.749.749 0 0 1 .687-.172c.284.087 6.98 2.124 8.387 2.644 1.156.427 1.526 1.444 1.583 2.17 4.075 1.332 40.882 13.358 46.052 14.956.49-1.53 1.7-1.664 1.757-1.67a.522.522 0 0 1 .22.027c.112.038 11.171 3.832 12.823 4.205 1.534.346 1.78 2.128 1.666 3.391m34.466 13.162a.527.527 0 0 1-.174-.03l-35.042-12.28a.525.525 0 0 1-.344-.586c.004-.023.369-2.367-.803-2.632-1.624-.367-11.452-3.729-12.795-4.19-.206.068-.71.334-.873 1.35a.526.526 0 0 1-.658.422c-2.179-.599-45.156-14.647-46.984-15.245a.525.525 0 0 1-.36-.556c.012-.113.081-1.147-.899-1.509-1.219-.45-6.748-2.142-8.052-2.54-.032.145-.063.418-.027.906a.525.525 0 0 1-.674.543L.376 21.408a.525.525 0 0 1 .006-1.009L72.029.034a.525.525 0 0 1 .237-.011l16.442 2.961.956-.765a.526.526 0 0 1 .423-.107l10.015 1.829a.525.525 0 0 1 .386.306l.422.963 46.305 8.485c.373-.368 1.122-1.012 1.795-1.012.667 0 11.048 1.679 13.123 2.016a.497.497 0 0 1 .036.007c.078.018 1.853.45 2.374 1.796 1.794.97 21.666 4.198 33.965 6.034a.525.525 0 0 1 .172.982l-72.86 39.4a.526.526 0 0 1-.25.063" fill="#93820A" mask="url(#b)"/></g><path d="M93.52 48.158c3.767 1.25 28.646 9.754 31.224 10.635l64.812-33.976-27.088-5.674a.525.525 0 0 1-.418-.52c0-.01-.006-1.283-.851-1.455-1.232-.251-12.462-2.099-13.15-2.212-.103.02-.405.195-.752.828a.525.525 0 0 1-.552.264c-3.07-.543-47.53-8.783-47.979-8.866a.525.525 0 0 1-.422-.43c-.06-.352-.251-.798-.416-.868-.446-.17-5.53-1.175-8.68-1.778-.081.023-.377.14-.825.7a.525.525 0 0 1-.5.19L72.389 2.291 7.931 20.745l10.382 3.24c.347-.317 1.008-.781 1.787-.622.02.004.04.009.059.015.777.256 9.178 2.788 9.263 2.813a.54.54 0 0 1 .055.02c.087.038.799.379 1.08 1.64 4.408 1.402 40.78 13.122 44.675 14.378.449-.466 1.466-1.235 3.047-.857 1.824.437 12.79 3.926 13.256 4.074.655.19 1.861 1 1.985 2.712m31.268 11.73a.524.524 0 0 1-.17-.028c-.297-.101-29.66-10.14-31.775-10.819a.525.525 0 0 1-.365-.513c.041-1.627-1.121-2.037-1.254-2.078-.121-.039-11.403-3.628-13.19-4.056-1.452-.347-2.183.723-2.19.734a.525.525 0 0 1-.6.209c-.425-.137-42.613-13.733-45.305-14.58a.525.525 0 0 1-.362-.427c-.116-.812-.434-1.09-.516-1.15-.799-.24-8.26-2.49-9.195-2.792-.42-.065-.889.394-.993.524a.525.525 0 0 1-.565.171L5.941 21.225a.525.525 0 0 1 .012-1.007l66.263-18.97a.528.528 0 0 1 .235-.012L87.807 3.91c.785-.87 1.369-.875 1.539-.853l.03.005c1.395.267 8.382 1.61 8.962 1.855.56.237.833.872.957 1.295 4.019.745 42.347 7.847 47.278 8.739.726-1.104 1.437-1.066 1.616-1.036.516.085 11.937 1.963 13.22 2.224 1.231.251 1.567 1.409 1.658 2.057l28.137 5.893a.525.525 0 0 1 .137.98l-66.31 34.76a.525.525 0 0 1-.243.06" fill="#93820A"/><g transform="translate(0 20.402)"><mask id="d" fill="#fff"><use xlink:href="#c"/></mask><path d="M9 43.786l113.786 61.409 2.246-62.638-34.677-12.153a.525.525 0 0 1-.344-.585c.004-.023.369-2.367-.803-2.632-1.624-.367-11.452-3.729-12.795-4.19-.206.068-.71.334-.873 1.35a.526.526 0 0 1-.658.422c-2.179-.599-45.156-14.647-46.984-15.244a.526.526 0 0 1-.36-.557c.012-.113.081-1.147-.899-1.509-1.219-.45-6.748-2.142-8.052-2.54-.032.145-.063.419-.027.906a.525.525 0 0 1-.674.543L1.197 1.388l7.804 42.398zm114.281 62.798a.524.524 0 0 1-.25-.063L8.282 44.59a.526.526 0 0 1-.268-.368L.009.733A.526.526 0 0 1 .675.136L17.5 5.155c.032-.557.174-.93.43-1.153a.749.749 0 0 1 .687-.172c.284.087 6.98 2.124 8.386 2.644 1.157.427 1.527 1.444 1.584 2.17C32.662 9.976 69.469 22.002 74.639 23.6c.49-1.53 1.7-1.664 1.757-1.67a.526.526 0 0 1 .22.027c.112.038 11.171 3.832 12.823 4.205 1.534.347 1.78 2.128 1.666 3.391l34.64 12.14a.526.526 0 0 1 .35.515l-2.289 63.87a.526.526 0 0 1-.525.506z" fill="#93820A" mask="url(#d)"/></g><path d="M33.502 22.717c.42.789 1.137 1.99 1.454 2.25.15.125.777.031 1.29-.192a.572.572 0 0 1 .055-.02c3.86-1.193 11.37-3.532 12.173-3.85.447-.178 1.872-1.848 2.569-3.575.416-1.032.312-1.471.247-1.612-.196-.432-.553-.663-1.093-.704-.467-.035-.883.09-.887.09-.133.038-11.993 3.365-14.588 4.415-.628.254-1.037.624-1.252 1.132-.372.88-.024 1.912.032 2.066m1.728 3.354c-.339 0-.677-.074-.941-.291-.598-.491-1.546-2.252-1.73-2.6a.511.511 0 0 1-.023-.047c-.025-.062-.609-1.53-.034-2.89.325-.768.939-1.34 1.826-1.698 2.638-1.067 14.092-4.282 14.678-4.446.824-.255 2.551-.334 3.24 1.184.266.583.189 1.404-.229 2.44-.704 1.746-2.268 3.806-3.156 4.159-1.026.406-11.474 3.637-12.223 3.868-.206.088-.808.321-1.408.321m79.973-3.611l14.613 3.552.02.005a.8.8 0 0 0 .93-.444l.139-.269c.339-.654.659-1.273.797-1.953a2.939 2.939 0 0 0-.707-2.612.842.842 0 0 0-.123-.119c-.14-.097-.411-.159-.651-.213a7.896 7.896 0 0 1-.294-.071 58.86 58.86 0 0 0-.931-.242c-.861-.217-1.711-.419-2.356-.57-1.956-.458-3.889-.89-5.686-1.287-1.2-.266-2.4-.529-3.602-.791l-1.518-.333c-.208-.046-.417-.09-.625-.134a32.915 32.915 0 0 1-1.656-.38c-.834-.221-1.015.082-1.075.182-.467.782.069 1.853.542 2.798.093.186.183.366.262.536.457.986 1.02 2.06 1.92 2.345m14.823 4.63c-.18 0-.34-.025-.466-.059l-14.62-3.554-.03-.008c-1.434-.438-2.151-1.987-2.58-2.912-.075-.161-.16-.33-.248-.507-.535-1.068-1.268-2.532-.504-3.808.241-.405.854-1.028 2.246-.658.524.14 1.072.255 1.603.367l.633.136 1.518.332c1.202.263 2.403.526 3.604.792 1.8.398 3.737.83 5.699 1.29.648.152 1.504.355 2.372.574.317.08.633.161.948.246.08.021.166.04.254.061.333.076.71.162 1.018.375.125.088.223.19.303.278.88.975 1.22 2.227.956 3.525-.167.824-.536 1.537-.893 2.228l-.136.263c-.419.819-1.133 1.038-1.677 1.038m41.177 28.401h.001-.001zm1.28-9.087c-1.535.756-10.231 5.086-14.164 8.003a21 21 0 0 0-.316.24c-1.085.84-1.704 1.81-1.838 2.884-.258 2.054 1.29 4.037 1.798 4.688l.04.05c.335.432.631.348.82.201a.413.413 0 0 1 .061-.042l.568-.346 11.291-6.926c.201-.83.956-3.97 1.542-6.664.282-1.297.247-1.862.197-2.088zm-13.988 17.232c-.051 0-.103-.003-.156-.008-.304-.033-.753-.183-1.166-.713l-.038-.049c-.575-.737-2.324-2.978-2.013-5.466.17-1.361.924-2.567 2.238-3.585.108-.083.218-.167.333-.252 4.379-3.248 14.149-8.017 14.562-8.218a.77.77 0 0 1 .259-.065c.27-.02.531.09.716.302.417.48.443 1.475.082 3.133a340.519 340.519 0 0 1-1.599 6.9.525.525 0 0 1-.236.324l-12.029 7.376c-.122.09-.48.321-.953.321z" fill="#93820A"/><g transform="translate(122.612 22.654)"><mask id="f" fill="#fff"><use xlink:href="#e"/></mask><path d="M3.473 40.257l-2.238 62.45 65.09-50.219 8.792-50.974L3.473 40.257zM.67 104.332a.525.525 0 0 1-.525-.544l2.29-63.87a.525.525 0 0 1 .274-.442L75.57.076a.524.524 0 0 1 .767.551l-9.01 52.241a.526.526 0 0 1-.197.327L.99 104.223a.525.525 0 0 1-.32.11z" fill="#93820A" mask="url(#f)"/></g><path d="M41.253 42.49a.709.709 0 0 0-.317.059.504.504 0 0 1-.076.032c-.213.068-.348.178-.427.345-.2.423-.013 1.104.076 1.331.358.895.712 1.794 1.067 2.692l.344.873c.077.195.156.389.236.583.157.381.32.775.459 1.174l.056.163c.108.316.193.566.343.732a.874.874 0 0 0 .332.22c.728.298 1.492.573 2.232.839.582.209 1.184.425 1.77.654 1.003.39 2.02.793 3.005 1.184 2.485.985 5.055 2.004 7.611 2.899.573.2.875.093 1.052-.005.647-.357 1.184-1.553 1.69-3.764.68-2.974-1.63-3.58-1.73-3.604a.529.529 0 0 1-.055-.017l-15.866-5.84a.534.534 0 0 1-.06-.028c-.474-.244-1.245-.523-1.742-.523m17.292 14.944c-.292 0-.602-.057-.928-.171-2.576-.902-5.156-1.925-7.651-2.915-.983-.39-1.999-.792-2.998-1.181a71.845 71.845 0 0 0-1.746-.644c-.75-.27-1.525-.548-2.274-.855a1.907 1.907 0 0 1-.713-.489c-.295-.326-.43-.718-.558-1.097l-.054-.155c-.13-.373-.287-.753-.438-1.12a44.371 44.371 0 0 1-.242-.598l-.345-.873a556.13 556.13 0 0 0-1.065-2.69c-.05-.125-.479-1.254-.052-2.163.197-.42.549-.727 1.018-.889.994-.465 2.566.276 2.95.471l15.818 5.823c.38.113 3.318 1.113 2.463 4.849-.594 2.592-1.253 3.923-2.206 4.45a1.993 1.993 0 0 1-.979.247m-45.794.521l19.407 9.078-3.019-29.578-21.05-7.708 4.662 28.208zm20.023 10.472a.524.524 0 0 1-.222-.05L12.055 58.79a.525.525 0 0 1-.295-.39L6.906 29.03a.526.526 0 0 1 .7-.58l22.203 8.132c.189.069.321.24.342.44l3.146 30.826a.525.525 0 0 1-.523.58zm43.474 20.143l34.887 17.684.588-38.588-36.65-12.85 1.175 33.754zm35.4 19.058a.525.525 0 0 1-.238-.056L75.496 89.366a.526.526 0 0 1-.287-.45l-1.213-34.833a.526.526 0 0 1 .698-.514l37.734 13.23a.525.525 0 0 1 .352.503l-.607 39.808a.525.525 0 0 1-.525.517z" fill="#93820A"/><path d="M38.368 69.984l30.238 15.007-1.88-33.1-31.748-11.604 3.39 29.697zm30.814 16.404a.525.525 0 0 1-.233-.054L37.645 70.799a.525.525 0 0 1-.288-.411L33.838 39.56a.526.526 0 0 1 .702-.553l32.871 12.015a.525.525 0 0 1 .344.464l1.951 34.346a.525.525 0 0 1-.524.555zm65.663-18.777l-1.967 34.79 24.416-17.293 1.908-22.623a.525.525 0 0 1 .249-.404l10.116-6.205a.525.525 0 0 1 .797.495l-1.857 20.796 17.276-12.237 4.622-28.563-55.56 31.244zm-2.553 36.375a.525.525 0 0 1-.524-.555l2.044-36.167a.525.525 0 0 1 .267-.428l56.76-31.92a.525.525 0 0 1 .777.543l-4.831 29.856a.526.526 0 0 1-.215.345l-18.384 13.022a.525.525 0 0 1-.827-.476l1.866-20.887-8.998 5.52-1.907 22.601a.526.526 0 0 1-.22.385l-25.505 18.065a.525.525 0 0 1-.303.096zM15.808 60.48a.526.526 0 0 1-.507-.39l-2.006-7.514a.497.497 0 0 1-.014-.071l-1.594-12.916a.525.525 0 0 1 0-.119l.886-8.508a.526.526 0 0 1 1.045.109l-.88 8.449 1.582 12.82 1.996 7.478a.526.526 0 0 1-.508.661m3.13 1.464a.526.526 0 0 1-.506-.384l-2.04-7.33a.515.515 0 0 1-.016-.078l-1.59-13.305a.53.53 0 0 1 0-.122l.972-8.6a.525.525 0 1 1 1.044.117l-.966 8.54 1.579 13.205 2.03 7.29a.526.526 0 0 1-.507.667m2.752 1.287a.525.525 0 0 1-.508-.394l-1.985-7.718a.54.54 0 0 1-.014-.08l-1.25-13.002a.525.525 0 0 1 .004-.128l1.283-8.537a.525.525 0 0 1 1.04.156L18.984 42l1.24 12.896 1.975 7.678a.525.525 0 0 1-.51.657m2.743 1.282a.525.525 0 0 1-.514-.416l-1.562-7.375a.543.543 0 0 1-.01-.064l-1.148-13.385a.54.54 0 0 1 .002-.115l1.15-8.632a.526.526 0 0 1 1.04.139l-1.14 8.575 1.14 13.296 1.556 7.343a.525.525 0 0 1-.514.634m2.818 1.318a.526.526 0 0 1-.516-.427l-1.393-7.353a.534.534 0 0 1-.007-.057l-1.036-13.547a.522.522 0 0 1 .003-.111l1.188-8.662a.526.526 0 0 1 1.041.143l-1.18 8.606 1.029 13.461 1.387 7.324a.525.525 0 0 1-.516.623M83.529 93.36a.526.526 0 0 1-.516-.428l-1.571-8.33a.53.53 0 0 1-.009-.098V67.167c0-.036.004-.071.01-.106l2.012-9.791a.525.525 0 1 1 1.029.211l-2 9.74v17.234l1.562 8.282a.525.525 0 0 1-.517.623m4.276 2.168a.525.525 0 0 1-.522-.464l-1.074-9.116a.496.496 0 0 1-.003-.062V68.591c0-.045.005-.09.016-.132l2.433-9.394a.525.525 0 1 1 1.017.263l-2.416 9.33v17.197l1.07 9.086a.525.525 0 0 1-.521.587m5.178 2.625a.526.526 0 0 1-.52-.459l-1.145-8.85a.522.522 0 0 1-.004-.053l-.503-18.092a.524.524 0 0 1 .017-.148l2.579-9.822a.525.525 0 1 1 1.016.267l-2.56 9.75.5 17.989 1.141 8.825a.525.525 0 0 1-.521.593m5.109 2.589a.525.525 0 0 1-.522-.471l-.979-9.515a.538.538 0 0 1-.002-.054V72.527c0-.043.005-.086.015-.128l2.437-9.69a.525.525 0 1 1 1.019.257l-2.42 9.626v18.083l.975 9.488a.525.525 0 0 1-.523.58m5.568 2.822a.525.525 0 0 1-.517-.438l-1.523-9.071a.53.53 0 0 1-.007-.101l.502-18.864a.53.53 0 0 1 .015-.112l2.545-10.292a.526.526 0 0 1 1.02.252l-2.531 10.237-.5 18.756 1.515 9.02a.525.525 0 0 1-.519.613" fill="#93820A"/><path d="M137.562 100.33a.525.525 0 0 1-.524-.573l2.164-23.993-2.92-9.63a.525.525 0 0 1 1.006-.305l2.948 9.728c.02.065.027.133.02.2l-2.172 24.094a.525.525 0 0 1-.522.478m4.417-3.129c-.017 0-.034 0-.052-.002a.525.525 0 0 1-.472-.574l2.267-23.371-3.02-9.598a.525.525 0 0 1 1.002-.316l3.052 9.7a.524.524 0 0 1 .022.209l-2.277 23.478a.525.525 0 0 1-.522.475m4.115-2.915c-.015 0-.029 0-.043-.002a.526.526 0 0 1-.482-.566l1.84-22.824-2.363-9.721a.526.526 0 0 1 1.02-.248l2.384 9.803c.013.054.018.11.013.166l-1.846 22.909a.526.526 0 0 1-.523.483m4.272-3.026l-.043-.002a.525.525 0 0 1-.48-.567l1.835-22.21-2.817-9.13a.526.526 0 0 1 1.004-.31l2.847 9.227c.02.064.027.132.021.198l-1.844 22.311a.525.525 0 0 1-.523.483" fill="#93820A"/><path d="M153.973 88.705l-.032-.001a.525.525 0 0 1-.493-.556l1.33-22.105-2.644-8.826a.525.525 0 1 1 1.007-.301l2.67 8.914c.018.06.025.121.021.183l-1.335 22.198a.525.525 0 0 1-.524.494m17.352-12.289l-.047-.002a.525.525 0 0 1-.477-.57l1.846-21.289-1.13-1.507a.526.526 0 0 1 .84-.63l1.25 1.667a.525.525 0 0 1 .104.36l-1.864 21.49a.525.525 0 0 1-.522.48m3.077-2.18a.525.525 0 0 1-.523-.575l1.991-21.087-1.977-7.614a.526.526 0 0 1 1.017-.264l2 7.703c.016.06.02.121.015.182l-2 21.18a.525.525 0 0 1-.523.475" fill="#93820A"/><path d="M177.512 72.033a.525.525 0 0 1-.524-.569l1.69-20.515-2.094-7.492a.525.525 0 1 1 1.011-.283l2.12 7.582a.55.55 0 0 1 .017.185l-1.697 20.61a.525.525 0 0 1-.523.482" fill="#93820A"/><path d="M180.678 69.79l-.042-.001a.525.525 0 0 1-.483-.565l1.563-20.039-2.16-7.392a.526.526 0 0 1 1.008-.295l2.187 7.485c.018.06.025.125.02.188l-1.57 20.135a.525.525 0 0 1-.523.484m3.362-2.382c-.014 0-.03 0-.045-.002a.525.525 0 0 1-.478-.568l1.678-19.664-2.525-7.098a.525.525 0 1 1 .99-.353l2.563 7.206c.025.07.035.146.029.221l-1.689 19.778a.525.525 0 0 1-.522.48M30.674 47.16a.527.527 0 0 1-.186-.035L8.872 38.902a.526.526 0 0 1 .373-.982l21.616 8.223a.525.525 0 0 1-.187 1.016m81.465 33.034a.525.525 0 0 1-.2-.04L74.754 64.881a.525.525 0 0 1 .399-.972l37.187 15.272a.526.526 0 0 1-.2 1.012m-10.003 14.301a.52.52 0 0 1-.222-.05l-20.18-9.464a.525.525 0 0 1 .446-.951l20.18 9.464a.526.526 0 0 1-.224 1.001m.268-10.042a.523.523 0 0 1-.213-.045l-20.447-9.078a.526.526 0 0 1 .426-.96l20.447 9.077a.526.526 0 0 1-.213 1.006M25.857 58.48a.524.524 0 0 1-.218-.049l-12.055-5.513a.526.526 0 0 1 .437-.956l12.055 5.514a.526.526 0 0 1-.219 1.003m-.567-7.428a.522.522 0 0 1-.19-.036L12.786 46.24a.525.525 0 0 1 .38-.98l12.312 4.777a.525.525 0 0 1-.19 1.015m108.424 29.141a.525.525 0 0 1-.289-.965l26.088-17.115a.525.525 0 1 1 .576.879L134 80.106a.523.523 0 0 1-.288.087" fill="#93820A"/><path d="M171.275 56.039a.525.525 0 0 1-.264-.98l18.37-10.686a.525.525 0 0 1 .528.908l-18.37 10.686a.522.522 0 0 1-.264.072m-38.262 36.517a.524.524 0 0 1-.304-.954l25.845-18.32a.525.525 0 1 1 .607.857l-25.845 18.32a.522.522 0 0 1-.303.097m35.895-24.416a.525.525 0 0 1-.29-.964l19.102-12.69a.525.525 0 1 1 .581.875l-19.103 12.69a.522.522 0 0 1-.29.089M67.892 61.92a.525.525 0 0 1-.194-.038L35.284 48.91a.525.525 0 0 1 .39-.975l32.414 12.973a.525.525 0 0 1-.196 1.013" fill="#93820A"/><path d="M47.558 75.607a.525.525 0 0 1-.523-.477L44.94 52.465a.525.525 0 1 1 1.046-.096l2.096 22.664a.525.525 0 0 1-.523.574m10.406 5.165a.525.525 0 0 1-.523-.486l-1.76-23.53a.525.525 0 1 1 1.048-.078l1.76 23.53a.525.525 0 0 1-.525.564m3.493 1.733a.525.525 0 0 1-.524-.49l-1.563-23.787a.525.525 0 0 1 1.049-.069l1.562 23.786a.525.525 0 0 1-.524.56m3.875 1.924a.525.525 0 0 1-.524-.502L63.71 59.954a.525.525 0 1 1 1.05-.048l1.098 23.973a.525.525 0 0 1-.525.55M44.327 74.004a.525.525 0 0 1-.523-.484L42.04 51.298a.526.526 0 0 1 1.047-.083l1.765 22.222a.525.525 0 0 1-.524.567m-3.148-1.562a.525.525 0 0 1-.523-.485l-1.69-21.89a.525.525 0 1 1 1.047-.08l1.69 21.89a.525.525 0 0 1-.524.565" fill="#93820A"/><path d="M46.086 59.699a.525.525 0 0 1-.217-.048l-6.105-2.785a.525.525 0 0 1 .435-.956l6.106 2.785a.526.526 0 0 1-.219 1.004m.699 7.553a.522.522 0 0 1-.213-.045l-6.219-2.762a.526.526 0 0 1 .427-.96l6.219 2.762a.526.526 0 0 1-.214 1.005m17.783.481a.522.522 0 0 1-.2-.04l-7.82-3.243a.525.525 0 0 1 .401-.971l7.82 3.243a.525.525 0 0 1-.2 1.011m.375 8.192a.522.522 0 0 1-.219-.048l-7.601-3.483a.526.526 0 0 1 .438-.955l7.6 3.483a.525.525 0 0 1-.218 1.003" fill="#93820A"/></g></svg>