<svg width="199" height="146" viewBox="0 0 199 146" xmlns="http://www.w3.org/2000/svg" xmlns:xlink="http://www.w3.org/1999/xlink"><title>Caja plastica 20</title><defs><path id="a" d="M0 .054h198.935v58.864H0z"/></defs><g fill="none" fill-rule="evenodd"><path d="M20.05 63c.62-.206 169.356-18.548 169.356-18.548l-10.96 75.015-151.365 22.876S20.05 69.595 20.05 66.297V63z" fill="#CCBA15"/><path d="M179.934 80.07l-11.451 1.518 1.348-14.475 11.775-1.408-1.672 14.364zm-2.296 19.72l-10.99 1.497 1.449-15.557 11.35-1.477.407-3.5-2.216 19.037zm-2.153 18.492l-10.565 1.551 1.426-15.31 10.918-1.519-1.779 15.278zM138.22 105.16l.906-15.66 26.114-3.398-1.53 15.586-25.49 3.472zm23.666 15.12l-24.751 3.634.894-15.448 25.363-3.53-1.506 15.344zm5.185-52.835l-1.425 14.52-26.286 3.487.855-14.794 26.856-3.213zm-57.436.383l.194-12.15-1.495.162 60.518-6.54-1.113 11.34-27.138 3.357.678-11.717-3.375.365-.81 11.786-27.459 3.397zm25.982 18.12l-26.327 3.493.241-15.112 27.107-3.243-1.021 14.863zm-1.357 19.751l-25.284 3.444.251-15.755 26.112-3.396-1.079 15.707zm-1.293 18.827l-24.293 3.567.248-15.577 25.11-3.494-1.065 15.504zm-27.082-56.234l-29.12 3.603-.388-12.603 29.873-3.227-.365 12.227zm-.646 21.686l-27.803 3.688-.475-15.44 28.73-3.438-.452 15.19zm-.589 19.754l-26.608 3.624-.488-15.848 27.568-3.586-.472 15.81zm-.567 19.035l-25.45 3.737-.485-15.705 26.401-3.674-.466 15.642zm-57.216 8.4l-1.025-15.872 28.006-3.898.151 15.787-27.132 3.984zm-2.283-35.37l29.079-3.783.152 15.918-28.2 3.841-1.031-15.977zm-.242-3.741l-1.02-15.806 30.155-3.608.149 15.53-29.284 3.884zm-11.605 41.187l-1.402-15.93 11.637-1.619 1.042 15.893-11.277 1.656zm-3.125-35.5l12.08-1.57 1.049 15.992-11.585 1.578.179 3.57-1.723-19.57zm-1.73-19.646l12.527-1.499 1.039 15.842-12.161 1.613-1.405-15.956zm-1.707-19.38l12.97-1.402.86 13.127-12.66 1.567-1.17-13.292zm47.12-5.092l.121 12.684-30.492 3.773-.845-13.084 31.216-3.373zM184.872 37.65l-2.465 21.174-11.941 1.478 1.052-11.29 12.184-1.317 1.17-10.045s-1.978.776-4.08 2.061c-2.104 1.285-7.232 4.767-10.82 5.163-3.59.397-126.223 13.612-126.223 13.612s-.726.138-1.953.14l-.003-.047s-.885.031-1.866-.05a19.665 19.665 0 0 1-3.738-.764c-7.81-2.133-8.4-3.328-10.903-3.132 0 0-14.304 1.127-14.856 1.092-.553-.035-2.145-.415-2.492-.76l9.79 88.534s.04 1.555 3.968 1.056c.881-.112 9.582-1.41 22.553-3.357l.116-.017 1.918-.288.816-.123c7.86-1.18 17.067-2.566 26.933-4.053l.158-.024 4.53-.682.02-.003c8.173-1.233 16.71-2.521 25.24-3.81l.091-.014 4.444-.671.103-.016c8.221-1.242 16.372-2.475 24.12-3.649l.051-.008 4.03-.61.124-.019c9.06-1.373 17.46-2.648 24.629-3.74l.069-.01c14.225-2.165 23.594-3.605 23.659-3.648.27-.18 1.258.18 1.708-4.12.449-4.3 10.278-80.107 10.278-80.107l-12.414 2.064z" fill="#E2D100"/><path d="M15.202 12.247L2.058 13.57S.43 14.082.816 15.66c.385 1.58 4.262 17.76 6.322 35.83 0 0-1.03 4.165 3.82 4.008 4.849-.158 14.653-1.681 16.13-.84 7.168 2.1 10.858 4.254 17.71 3.519 11.65-.946 125.42-13.543 125.42-13.543s2.28-.146 6.647-2.706c4.367-2.56 7.108-4.651 9.677-4.822 3.256-.458 14.814-.873 10.794-3.716-4.018-2.843-38.701-30.683-38.701-30.683s-.839-1.815-4.687-1.733c-3.847.081-9.635.856-9.635.856s-1.53-.039-5.14 3.066c-.796.699-110.983 9.553-114.635 9.774-3.652.22-5.349-2.61-9.336-2.423" fill="#F9F44E"/><path d="M4.395 16.64s6.99 21.867 6.359 34.142c0 0 3.534-.464 5.475.504 1.18.656.901 1.485.901 1.485l7.279-.38s1.594-.173 3.639.656c2.045.83 10.64 3.247 10.744 3.213.104-.035 1.56.208 3.847 0 2.288-.208 125.57-13.21 125.57-13.21s2.35-.422 4.671-1.645c4.635-2.443 8.976-5.734 11.586-5.814 1.891-.159 4.555-.477 4.555-.477s-2.717-2.257 2.264-2.761L156.372 3.808s-5.82.302-5.358-1.365l-5.371.33s-1.63.087-2.95.986c-1.32.9-1.981 1.997-3.104 2.063-1.122.065-115.782 9.83-115.782 9.83s-1.118.266-2.229-.166c-1.11-.432-4.227-2.43-6.233-2.35-1.99.17-6.775.81-6.775.81s2.164 2.335-4.175 2.694" fill="#F9F44E"/><path d="M7.112 26.273s2.613-.015 2.476-1.968c-.137-1.952-.665-9.574-.665-9.574M151.032 2.844l.46 7.685s-.116 2.848 4.421 1.237c.252-.09.459-7.958.459-7.958m30.452 31.553l-30.43-26.808m-5.008-.333L9.4 21.593" fill="#F9F44E"/><path d="M156.094 10.558c-.055.775-.117 1.304-.181 1.327-4.537 1.611-4.422-1.238-4.422-1.238l-.137-2.305-134.839 12.7-7.116.672.189 2.71c.136 1.952-2.475 1.968-2.477 1.968 1.887 7.403 4.002 17.513 3.643 24.509 0 0 3.534-.464 5.475.503 1.18.657.901 1.486.901 1.486l7.279-.38s1.594-.173 3.639.656 10.64 3.247 10.744 3.212c.104-.034 1.56.208 3.847 0 2.288-.207 125.57-13.21 125.57-13.21s2.35-.421 4.671-1.645c4.635-2.442 8.976-5.733 11.586-5.813.737-.062 1.59-.148 2.358-.23L156.207 8.557c0 .724-.052 1.428-.113 2.001" fill="#CCBA15"/><path d="M182.51 58.6h.003-.002zm-10.19-9.129l-.908 9.74 10.414-1.288 1.118-9.6-10.625 1.148zm-1.75 11.361a.759.759 0 0 1-.755-.825l1.052-11.29a.757.757 0 0 1 .673-.681l12.185-1.316a.753.753 0 0 1 .835.838l-1.296 11.129a.757.757 0 0 1-.66.662l-11.94 1.478a.756.756 0 0 1-.094.005zm-2.728-.417h.002-.002zm-25.74-7.679l-.59 10.175 25.635-3.171.963-9.814-26.009 2.81zm-31.423 3.396l-.17 10.614 25.975-3.213.705-10.266-26.51 2.865zm-.941 12.226a.758.758 0 0 1-.758-.767l.194-12.15a.756.756 0 0 1 .676-.74l28.068-3.032.008-.001 3.374-.365h.007l27.566-2.979a.759.759 0 0 1 .836.825l-1.113 11.34a.756.756 0 0 1-.66.675l-27.139 3.357a.756.756 0 0 1-.85-.792l.627-10.828-1.854.2-.766 11.156a.756.756 0 0 1-.663.698l-27.46 3.397a.755.755 0 0 1-.093.006zm-32.479-8.616l.342 11.076 27.65-3.421.319-10.713-28.31 3.058zm-.39 12.683a.76.76 0 0 1-.758-.733l-.388-12.602a.756.756 0 0 1 .676-.774l29.872-3.228a.757.757 0 0 1 .84.774l-.365 12.227a.756.756 0 0 1-.664.727l-29.12 3.603a.752.752 0 0 1-.094.006zm-33.884-8.98l.746 11.563 29.024-3.59-.107-11.177-29.663 3.205zm.042 13.166a.76.76 0 0 1-.757-.706l-.845-13.084a.756.756 0 0 1 .675-.8l31.216-3.372a.759.759 0 0 1 .84.744l.121 12.683a.756.756 0 0 1-.664.757L43.12 76.606a.755.755 0 0 1-.093.005zM27.098 65.162l1.037 11.775 11.17-1.382-.762-11.63-11.445 1.237zm.35 13.377a.758.758 0 0 1-.754-.69l-1.17-13.292a.756.756 0 0 1 .673-.817l12.97-1.401a.757.757 0 0 1 .838.702l.86 13.127a.756.756 0 0 1-.663.799l-12.66 1.566a.759.759 0 0 1-.094.006zm152.59 1.306h.002-.002zm-9.405-12.279L169.43 80.49l9.924-1.316 1.493-12.83-10.213 1.222zm-2.046 14.553a.76.76 0 0 1-.755-.825l1.348-14.475a.757.757 0 0 1 .665-.68l11.775-1.409a.76.76 0 0 1 .843.837l-1.673 14.365a.757.757 0 0 1-.652.662l-11.451 1.518a.779.779 0 0 1-.1.007zm-27.548-11.012l-.767 13.25 24.782-3.286 1.274-12.99-25.29 3.026zm-1.576 14.875a.759.759 0 0 1-.757-.799l.856-14.794a.756.756 0 0 1 .666-.707l26.856-3.213a.76.76 0 0 1 .62.21c.165.16.247.386.225.614l-1.425 14.52a.756.756 0 0 1-.655.676l-26.286 3.487a.744.744 0 0 1-.1.006zm-3.743-.259h.002-.002zm-25.34-10.948l-.216 13.576 24.84-3.295.917-13.337-25.54 3.056zm-.988 15.196a.76.76 0 0 1-.758-.767l.241-15.113a.756.756 0 0 1 .668-.738l27.107-3.243a.754.754 0 0 1 .846.802l-1.021 14.863a.756.756 0 0 1-.656.697l-26.327 3.492a.744.744 0 0 1-.1.007zm-31.55-11.303l.428 13.914 26.333-3.493.407-13.672-27.169 3.25zm-.304 15.528a.759.759 0 0 1-.758-.732l-.475-15.44a.756.756 0 0 1 .667-.774l28.732-3.437a.76.76 0 0 1 .847.772l-.452 15.19a.756.756 0 0 1-.658.726L77.64 94.19a.779.779 0 0 1-.1.006zM44.227 82.69l.922 14.286 27.815-3.69-.134-14.018-28.603 3.422zm.218 15.897a.76.76 0 0 1-.756-.707l-1.02-15.806a.756.756 0 0 1 .665-.799l30.156-3.607a.755.755 0 0 1 .848.743l.149 15.53a.756.756 0 0 1-.658.755L44.545 98.58a.779.779 0 0 1-.1.007zM28.804 84.534l1.271 14.44 10.673-1.415-.94-14.341-11.004 1.316zm.586 16.05a.76.76 0 0 1-.755-.69L27.23 83.938a.756.756 0 0 1 .664-.816l12.528-1.499a.76.76 0 0 1 .846.7l1.039 15.842a.756.756 0 0 1-.656.798l-12.161 1.613a.782.782 0 0 1-.1.007zm148.352-1.018h.002-.002zm-8.842-13.39l-1.306 14.01 9.463-1.29 1.629-13.993-9.786 1.273zm-2.149 15.642a.76.76 0 0 1-.754-.826l1.45-15.557a.757.757 0 0 1 .656-.679l11.35-1.476a.754.754 0 0 1 .851.836l-1.81 15.537a.756.756 0 0 1-.65.66l-10.99 1.498a.78.78 0 0 1-.103.007zM139.95 89.94l-.817 14.121 23.986-3.267 1.378-14.046-24.547 3.192zm-1.626 15.749a.76.76 0 0 1-.757-.799l.906-15.66a.756.756 0 0 1 .659-.706l26.114-3.397a.753.753 0 0 1 .852.822l-1.529 15.586a.757.757 0 0 1-.652.675l-25.49 3.472a.78.78 0 0 1-.103.007zm-28.246-11.863l-.226 14.223 23.798-3.241.974-14.175-24.546 3.193zm-.998 15.846a.758.758 0 0 1-.758-.767l.251-15.755a.757.757 0 0 1 .66-.737l26.112-3.397a.76.76 0 0 1 .854.8l-1.079 15.709a.757.757 0 0 1-.653.696l-25.285 3.444a.745.745 0 0 1-.102.007zm-30.643-11.73l.441 14.326 25.138-3.424.426-14.285-26.005 3.383zm-.29 15.943a.759.759 0 0 1-.758-.732L76.9 97.306a.756.756 0 0 1 .659-.773l27.567-3.585a.754.754 0 0 1 .856.771l-.471 15.81a.756.756 0 0 1-.655.726l-26.608 3.624a.783.783 0 0 1-.103.007zM45.49 102.227l.933 14.461 26.732-3.64-.138-14.401-27.527 3.58zm.229 16.075a.76.76 0 0 1-.756-.707L43.93 101.62a.756.756 0 0 1 .658-.797l29.08-3.782a.76.76 0 0 1 .856.741l.152 15.919a.756.756 0 0 1-.655.755l-28.2 3.841a.743.743 0 0 1-.103.007zm-15.18-14.13l1.4 14.49 10.103-1.377-.95-14.486-10.552 1.373zm.72 16.1a.76.76 0 0 1-.754-.683l-1.544-16a.756.756 0 0 1 .656-.82l12.081-1.572a.753.753 0 0 1 .854.7L43.6 117.89a.756.756 0 0 1-.654.798l-11.585 1.578a.748.748 0 0 1-.102.006zm135.891-15.308l-1.282 13.757 9.036-1.327 1.599-13.732-9.353 1.302zm-2.125 15.4a.76.76 0 0 1-.755-.826l1.426-15.31a.756.756 0 0 1 .65-.678l10.918-1.52a.76.76 0 0 1 .857.836l-1.778 15.278a.757.757 0 0 1-.642.66l-10.566 1.551a.763.763 0 0 1-.11.008zm-26.172-11.463l-.804 13.904 23.245-3.413 1.354-13.802-23.795 3.311zm-1.614 15.542a.76.76 0 0 1-.757-.799l.894-15.448a.756.756 0 0 1 .651-.705l25.364-3.53a.756.756 0 0 1 .86.822l-1.506 15.344a.756.756 0 0 1-.644.674l-24.752 3.634a.763.763 0 0 1-.11.008zm-27.465-11.495l-.224 14.042 22.806-3.349.96-13.969-23.542 3.276zm-.996 15.674a.76.76 0 0 1-.758-.767l.248-15.577a.756.756 0 0 1 .653-.736l25.11-3.495a.758.758 0 0 1 .861.8l-1.065 15.504a.756.756 0 0 1-.646.696l-24.293 3.567a.76.76 0 0 1-.11.008zM79.03 117.228l.437 14.18 23.98-3.521.42-14.116-24.837 3.457zm-.295 15.806a.76.76 0 0 1-.757-.732l-.484-15.705a.756.756 0 0 1 .652-.772l26.401-3.674a.76.76 0 0 1 .862.77l-.466 15.643a.756.756 0 0 1-.647.725l-25.45 3.737a.76.76 0 0 1-.111.008zM46.747 121.72l.927 14.356 25.664-3.769-.136-14.268-26.455 3.681zm.223 15.978a.76.76 0 0 1-.756-.707l-1.025-15.873a.756.756 0 0 1 .651-.797l28.006-3.897a.76.76 0 0 1 .863.74l.151 15.787a.756.756 0 0 1-.647.755L47.08 137.69a.76.76 0 0 1-.11.008zm-14.715-13.961l1.27 14.416 9.79-1.437-.943-14.387-10.117 1.408zm.585 16.035a.759.759 0 0 1-.755-.689l-1.402-15.929a.756.756 0 0 1 .65-.814l11.637-1.62a.759.759 0 0 1 .86.7l1.043 15.892a.756.756 0 0 1-.646.797l-11.277 1.656a.758.758 0 0 1-.11.007zM8.57 54.2l.006.006-.006-.006zm176.417 64.758zm-.001 0l-.003.002.003-.002zM18.589 143.24zm-.004-.052c.08.206.803.688 3.12.393.826-.105 8.62-1.265 22.535-3.354l2.85-.428c7.86-1.18 17.067-2.566 26.933-4.053l4.688-.707.02-.003c8.173-1.232 16.71-2.52 25.24-3.809l4.638-.701c8.22-1.242 16.37-2.475 24.119-3.649l4.206-.637c9.059-1.373 17.458-2.648 24.627-3.74l.07-.01c18.9-2.876 22.938-3.516 23.525-3.621a1.4 1.4 0 0 1 .18-.06c.435-.128.808-1.374 1.022-3.42.416-3.988 8.981-70.1 10.15-79.115l-11.326 1.883c-.366.15-2.092.874-3.89 1.974-.256.156-.556.344-.894.556-2.587 1.626-6.917 4.346-10.24 4.714-3.531.39-123.843 13.355-126.198 13.609-.166.028-.91.145-2.059.147H41.9a.756.756 0 0 1-.249-.042c-.349.003-.99 0-1.682-.058a20.48 20.48 0 0 1-3.888-.79c-3.614-.989-5.732-1.79-7.133-2.322-1.637-.62-2.314-.877-3.498-.784-3.368.265-14.394 1.131-14.964 1.093-.196-.012-.872-.118-1.55-.31l9.65 87.244zm1.807 1.995c-1.22 0-2.126-.246-2.7-.737-.505-.432-.598-.916-.614-1.097l-9.79-88.525a.76.76 0 1 1 1.274-.632c.271.194 1.53.523 2.02.554h.01c.645 0 9.15-.65 14.739-1.09 1.523-.12 2.458.234 4.155.877 1.459.552 3.456 1.31 7.007 2.28l.023.006c1.181.363 2.39.61 3.594.734.905.075 1.752.047 1.76.047a.752.752 0 0 1 .282.043c.975-.017 1.555-.122 1.561-.124a.762.762 0 0 1 .059-.008c1.226-.132 122.673-13.22 126.22-13.612 2.975-.329 7.284-3.036 9.598-4.49.343-.215.649-.407.909-.566a29.861 29.861 0 0 1 4.2-2.12c.048-.02.1-.034.152-.042l12.415-2.065a.76.76 0 0 1 .876.842c-.098.758-9.834 75.847-10.277 80.088-.366 3.508-1.106 4.42-2.104 4.712l-.038.011a.36.36 0 0 0 .067-.031c-.238.127-1.43.32-23.931 3.746l-.069.01a40019.17 40019.17 0 0 1-24.63 3.74l-4.205.637-24.119 3.649-4.639.7a89836.5 89836.5 0 0 1-25.24 3.81l-4.708.71c-9.866 1.487-19.073 2.872-26.933 4.053l-2.85.428c-9.712 1.458-21.51 3.224-22.57 3.358-.544.07-1.046.104-1.504.104z" fill="#93820A"/><g transform="translate(0 .161)"><mask id="b" fill="#fff"><use xlink:href="#a"/></mask><path d="M138.684 4.159l-.01.009a.2.2 0 0 1 .01-.009M27.37 53.791c1.668.49 3.117.973 4.52 1.44 4.498 1.497 7.75 2.579 12.828 2.034 11.525-.936 124.28-13.417 125.417-13.543a.68.68 0 0 1 .035-.003c.016-.001 2.204-.196 6.311-2.604.978-.573 1.86-1.114 2.71-1.636 2.962-1.817 5.105-3.132 7.272-3.286a65.02 65.02 0 0 1 2.364-.251c1.693-.162 3.8-.363 5.549-.676 2.299-.41 2.884-.83 3.018-.965-.047-.073-.173-.228-.496-.456-3.992-2.824-37.321-29.574-38.738-30.71a.608.608 0 0 1-.213-.273c-.001 0-.771-1.36-3.982-1.295-3.762.08-9.494.842-9.551.85-.055.007-.058.012-.104.008-.168.021-1.609.273-4.641 2.882-.283.248-.456.4-18.163 1.971-9.482.842-22.441 1.944-38.517 3.276-27.709 2.296-56.54 4.596-58.405 4.709-1.992.12-3.445-.572-4.85-1.241-1.364-.65-2.654-1.265-4.476-1.183L2.226 14.151c-.265.103-.856.424-.673 1.17.171.704 4.232 17.446 6.338 35.923a.75.75 0 0 1-.017.266c-.003.01-.314 1.368.401 2.24.487.593 1.381.872 2.657.831 1.734-.056 4.18-.296 6.546-.529 5.834-.573 8.777-.79 9.892-.26m14.787 5.126c-3.973 0-7.04-1.02-10.747-2.254a127.052 127.052 0 0 0-4.537-1.444.765.765 0 0 1-.162-.068c-.768-.413-5.773.079-9.085.404-2.39.235-4.861.477-6.644.535-1.786.057-3.09-.412-3.89-1.396-1.018-1.253-.813-2.9-.72-3.4C4.271 32.958.25 16.376.08 15.678c-.406-1.662.824-2.698 1.75-2.99a.78.78 0 0 1 .152-.031l13.144-1.323a.83.83 0 0 1 .04-.003c2.22-.105 3.813.657 5.221 1.328 1.344.64 2.505 1.192 4.105 1.096 1.809-.11 30.155-2.37 57.459-4.631 47.673-3.947 55.768-4.859 56.853-5.068 3.324-2.83 4.996-3.122 5.45-3.142.568-.075 5.96-.778 9.678-.857 3.66-.078 4.94 1.432 5.291 1.99 2.18 1.75 34.711 27.848 38.552 30.566.928.656 1.302 1.347 1.112 2.055-.428 1.598-3.538 2.169-9.916 2.778-.948.09-1.768.168-2.323.247a.81.81 0 0 1-.056.005c-1.802.12-3.817 1.356-6.605 3.067a151.51 151.51 0 0 1-2.738 1.652c-4.29 2.516-6.683 2.784-6.958 2.808-1.732.191-113.934 12.61-125.43 13.543-.954.103-1.85.15-2.704.15" fill="#93820A" mask="url(#b)"/></g><path d="M38.84 55.501c.086 0 .19.01.334.02.566.045 1.744.137 3.397-.013 2.243-.204 123.002-12.94 125.527-13.206.248-.048 2.367-.479 4.428-1.565 1.465-.772 2.894-1.626 4.277-2.453 3.03-1.81 5.65-3.376 7.619-3.447 1.032-.087 2.305-.223 3.234-.327a1.691 1.691 0 0 1-.064-1.133c.246-.801 1.042-1.237 1.934-1.485l-33.41-27.316c-1.574.062-4.668.029-5.582-1.106-.06-.074-.11-.15-.153-.231l-4.692.287c-.018.001-1.447.094-2.568.857-.425.29-.78.605-1.122.91-.707.63-1.375 1.225-2.365 1.283-1.165.07-112.865 9.581-115.716 9.824-.287.058-1.448.244-2.615-.21-.328-.128-.757-.348-1.3-.628-1.3-.67-3.25-1.673-4.533-1.673-.026 0-.052 0-.078.002-1.405.12-4.225.478-5.727.674.04.276.02.576-.104.88-.417 1.029-1.748 1.632-4.16 1.875 1.292 4.203 6.4 21.574 6.142 32.632 1.244-.079 3.516-.094 5.025.658l.03.016c.721.401 1.079.896 1.23 1.352l6.526-.34c.237-.022 1.903-.132 3.98.71 1.891.766 9.634 2.95 10.506 3.153m1.946 1.599c-.802 0-1.399-.047-1.731-.073-.104-.008-.18-.015-.224-.016l.05-.002c-.289.016-1.044-.17-4.946-1.307-1.788-.52-4.968-1.467-6.172-1.955-1.823-.739-3.261-.606-3.275-.605a.587.587 0 0 1-.04.003l-7.278.38c-.27.015-.543-.068-.691-.291-.144-.217-.183-.448-.078-.68.003-.076-.032-.321-.526-.6-1.426-.7-4.106-.543-5.022-.423a.76.76 0 0 1-.856-.788c.616-12-6.255-33.657-6.324-33.874a.754.754 0 0 1 .679-.983c3.378-.192 3.77-.923 3.804-1.006.065-.16-.14-.418-.142-.42a.753.753 0 0 1 .456-1.262c.196-.026 4.826-.644 6.81-.814a.898.898 0 0 1 .035-.002c1.685-.068 3.82 1.034 5.383 1.838.484.249.902.464 1.156.563.866.336 1.767.136 1.776.134a.786.786 0 0 1 .112-.018c4.682-.399 114.683-9.766 115.803-9.831.442-.026.817-.343 1.443-.9.362-.323.771-.688 1.278-1.032 1.478-1.007 3.26-1.114 3.336-1.118l5.365-.329a.753.753 0 0 1 .794.88c.443.36 2.552.59 4.572.485.19-.01.374.051.52.17l34.912 28.545a.754.754 0 0 1-.404 1.335c-2.109.214-2.318.71-2.319.714-.04.133.231.522.464.715a.754.754 0 0 1-.395 1.33 163.72 163.72 0 0 1-4.622.483c-1.577.048-4.166 1.596-6.907 3.234-1.4.836-2.846 1.701-4.347 2.492-2.399 1.264-4.792 1.703-4.892 1.721a.754.754 0 0 1-.055.008c-5.034.53-123.313 13.005-125.58 13.211a21.26 21.26 0 0 1-1.922.088" fill="#93820A"/><path d="M7.112 27.029a.757.757 0 0 1-.007-1.51c.277-.005 1.152-.109 1.535-.524.094-.102.217-.28.192-.637-.137-1.953-.665-9.575-.665-9.575l1.512-.104s.528 7.621.665 9.574c.048.689-.157 1.301-.594 1.771-.9.966-2.459 1.003-2.634 1.005h-.004zm146.424-14.016c-.742 0-1.354-.175-1.833-.526-.913-.67-.97-1.687-.97-1.941l-.457-7.658a.758.758 0 1 1 1.513-.09l.46 7.686a.728.728 0 0 1 0 .075c0 .008.001.462.364.72.28.198.99.432 2.657-.094.123-1.07.265-4.394.344-7.396a.763.763 0 0 1 .778-.736.757.757 0 0 1 .738.775c-.22 8.386-.363 8.437-.962 8.65-1.005.357-1.884.535-2.632.535" fill="#93820A"/><path d="M186.824 36.116a.757.757 0 0 1-.502-.189L155.892 9.12a.753.753 0 0 1-.066-1.066.76.76 0 0 1 1.07-.066l30.43 26.808a.754.754 0 0 1-.502 1.321M9.398 22.348a.756.756 0 0 1-.07-1.507L151.315 7.468a.756.756 0 0 1 .142 1.504L9.47 22.345a.736.736 0 0 1-.072.003" fill="#93820A"/></g></svg>