<svg width="208" height="134" viewBox="0 0 208 134" xmlns="http://www.w3.org/2000/svg"><title>caja plastica 15</title><g fill="none" fill-rule="evenodd"><path d="M59.243 45.075l-44.238 32.59L151.91 127.39l35.82-51.15-13.075-5.077L64.03 44.36s-1.76 1.946-4.788.715" fill="#CCBA15"/><path d="M57.1 3.06L7.7 28.554s2.52.73 1.134 1.795l-1.133.872 3.298 1.025s.979.36 2.37 2.257a48.906 48.906 0 0 0 2.885 3.538s-6.005 1.572-6.272 4.732c-.536 6.339 2.96 34.378 5.023 34.891.995.248 38.02-28.006 38.02-28.006l6.221-4.583L57.1 3.06z" fill="#CCBA15"/><path d="M8.783 31.027l2.367.736a.428.428 0 0 1 .024.009c.115.042 1.165.468 2.605 2.432a48.732 48.732 0 0 0 2.852 3.497.504.504 0 0 1-.247.83c-1.574.413-5.701 1.988-5.896 4.285-.244 2.886.362 10.723 1.473 19.058.545 4.09 1.134 7.69 1.704 10.407.738 3.523 1.238 4.534 1.434 4.815 2.538-1.303 23.652-17.183 37.617-27.84l6.009-4.426-2.092-40.959-47.745 24.64c.4.238.769.572.853 1.013.058.305.002.766-.596 1.225l-.362.278zm6.237 47.15a.533.533 0 0 1-.138-.022c-.502-.125-1.12-.637-2.104-5.16-.585-2.686-1.194-6.326-1.763-10.524-.981-7.25-1.826-16.36-1.54-19.74.127-1.496 1.308-2.828 3.51-3.959.894-.459 1.77-.786 2.369-.985a49.155 49.155 0 0 1-2.396-2.986c-1.185-1.616-2.036-2.035-2.134-2.079L7.55 31.704a.507.507 0 0 1-.16-.884l1.134-.871c.169-.13.216-.22.219-.24-.028-.152-.58-.493-1.184-.67a.507.507 0 0 1-.091-.934l49.4-25.494a.51.51 0 0 1 .74.423l2.147 42.016a.505.505 0 0 1-.205.432l-6.221 4.583c-.086.065-9.359 7.14-18.634 14.093-5.448 4.085-9.832 7.33-13.03 9.644-5.402 3.91-6.286 4.374-6.644 4.374z" fill="#93820A"/><path d="M197.23 38.262l-22.573 32.9 27.502-40.083s-4.06-.681-3.375-2.677l-4.941-1.169s-1.566-.633-3.327.487-4.354 2.58-4.354 2.58-1.32.487-3.424 0S72.276 8.587 72.276 8.587s-1.23-.102-1.985-1.184c-.756-1.083-2.69-3.489-2.69-3.489s-.242-.626-1.48-.944c-1.24-.319-3.838-.77-3.838-.77s.144 3.597.351 8.698l134.597 27.364z" fill="#E2D100"/><path d="M59.506 45.174c.56.19 1.938.544 3.293-.005.04-.016.078-.033.116-.05l.02-.01a3.86 3.86 0 0 0 .365-.188c.048-.029.096-.057.143-.088l.012-.007c.198-.13.392-.284.58-.466-.156-2.9-.936-21.988-1.4-33.462L62.283 2.2s-.134.28-.672.542c-.687.345-2.019.669-4.51.318l2.145 42.016c.088.035.174.067.26.098" fill="#CCBA15"/><path fill="#E2D100" d="M62.635 10.898l1.4 33.462 110.623 26.803 22.574-32.901z"/><path d="M171.826 75.285s-2.054-.633-4.451-.633-3.376 1.558-3.376 1.558-4.55-.876-6.75-1.46c-2.202-.585-3.376.194-3.376.194s-2.886 2.045-4.403 2.512c-1.516.468-2.504 0-2.504 0-11.981-3.55-123.46-36.584-126.386-37.312-3.092-.77-4.328-2.103-4.328-2.103s-1.495-1.64-2.886-3.538-2.37-2.257-2.37-2.257l-3.298-1.025 1.133-.872c1.386-1.065-1.133-1.795-1.133-1.795l49.4-25.494c4.396.619 5.182-.86 5.182-.86s2.6.451 3.838.77c1.24.318 1.481.944 1.481.944s1.934 2.406 2.69 3.489c.755 1.082 1.985 1.184 1.985 1.184S180.632 29.813 182.736 30.3c2.103.487 3.424 0 3.424 0s2.593-1.46 4.354-2.58c1.761-1.12 3.327-.487 3.327-.487l4.94 1.168c-.684 1.997 3.376 2.678 3.376 2.678l-30.33 44.206zm34.17-47.398c-2.162-.608-10.728-2.232-10.728-2.232s-2.302-.487-3.956 1.055c-3.837 2.837-4.201 3.004-6.486 2.476-2.284-.527-111.74-21.65-111.74-21.65s-.465 0-1.262-.957c-.796-.959-2.755-3.535-2.755-3.535s-.35-.661-1.793-1.075c-1.56-.38-5.668-1.278-6.507-1.41 0 0-2.357-.29-3.698.497C55.341 2.07 1.414 29.262 1.414 29.262s-1.416.556-.708 1.854c.708 1.299 6.523 2.337 6.523 2.337l1.677.408s.858.149 1.342.928c.605.829 4.473 5.675 4.473 5.675s0 .297 2.982 1.224l2.982.928L144.867 80.18s1.7.6 3.78-.415 4.813-2.1 4.813-2.1 1.101-.62 2.57-.295c1.468.324 12.318 4.221 15.948 3.45 3.63-.771 3.182-2.72 6.893-8.16 3.712-5.439 28.43-42.58 28.43-42.58s.857-1.584-1.305-2.193z" fill="#F9F44E"/><path d="M165.924 125.796l26.651-43.55s2.992-2.098 2.655-4.917c.808-3.824 11.596-46.536 11.596-46.536l-27.048 40.529s-2.588 3.67-3.667 5.936c-.73 1.254-.968 1.607-.968 1.607s.656.252.746 1.491c-.299 1.355-9.965 45.44-9.965 45.44" fill="#CCBA15"/><path d="M8.78 31.027l2.367.736a.524.524 0 0 1 .025.009c.114.042 1.164.468 2.605 2.432 1.36 1.855 2.837 3.481 2.851 3.497.007.007 1.197 1.236 4.076 1.952 2.93.729 113.778 33.576 126.407 37.319.026.007.05.016.074.028.03.013.849.37 2.135-.027 1.422-.438 4.23-2.421 4.258-2.441a.4.4 0 0 1 .013-.009c.056-.037 1.392-.898 3.788-.263 1.831.486 5.354 1.187 6.41 1.394.443-.51 1.57-1.508 3.586-1.508 1.875 0 3.528.37 4.237.554l29.702-43.29c-.895-.236-2.306-.744-2.869-1.684a1.702 1.702 0 0 1-.248-.943l-4.474-1.058a.51.51 0 0 1-.074-.023c-.051-.02-1.36-.51-2.861.444-1.753 1.114-4.351 2.58-4.377 2.595a.516.516 0 0 1-.074.034c-.06.022-1.49.533-3.717.018C180.56 30.316 74.252 9.49 72.198 9.088c-.23-.027-1.51-.225-2.327-1.397-.737-1.056-2.65-3.437-2.669-3.46-.04-.05-.057-.069-.074-.125-.037-.062-.288-.428-1.137-.647-.965-.248-2.803-.584-3.51-.71-.501.484-1.874 1.285-5.293.834L8.885 28.51c.4.238.769.572.853 1.013.058.305.002.766-.596 1.225l-.361.278zM148.153 78.17c-.726 0-1.212-.175-1.36-.236-12.761-3.782-123.429-36.575-126.335-37.298-3.202-.797-4.524-2.192-4.579-2.25a49.936 49.936 0 0 1-2.923-3.584c-1.185-1.617-2.037-2.035-2.134-2.079l-3.275-1.018a.507.507 0 0 1-.159-.884l1.134-.871c.168-.13.215-.22.218-.24-.027-.15-.59-.497-1.183-.67a.506.506 0 0 1-.092-.934l49.4-25.494a.51.51 0 0 1 .305-.052c3.692.52 4.587-.503 4.667-.606.094-.21.303-.291.532-.251.107.018 2.633.458 3.877.778 1.219.313 1.656.92 1.785 1.16.27.338 1.966 2.456 2.676 3.474.602.863 1.572.965 1.613.969a.553.553 0 0 1 .053.008c4.425.866 108.39 21.233 110.479 21.716 1.733.402 2.895.092 3.102.029.346-.196 2.682-1.521 4.287-2.542 1.816-1.155 3.459-.65 3.749-.546l4.91 1.161a.508.508 0 0 1 .363.656.718.718 0 0 0 .056.643c.425.711 2.02 1.22 2.924 1.372a.504.504 0 0 1 .335.784l-30.33 44.206a.51.51 0 0 1-.57.198c-.02-.006-2.016-.61-4.302-.61-2.064 0-2.912 1.269-2.947 1.323a.515.515 0 0 1-.525.226c-.187-.036-4.592-.887-6.786-1.469-1.864-.495-2.866.07-2.961.127-.232.163-2.993 2.1-4.535 2.575a4.97 4.97 0 0 1-1.47.23z" fill="#93820A"/><path d="M73.086 7.03h.003-.003zm.003 0h.002-.002zM15.223 40.385zm0 0zm.006.075zm0 .003v.002-.002zM155.172 76.77c.3 0 .626.03.969.106.33.073 1.051.298 2.05.61 3.553 1.11 10.945 3.42 13.682 2.84 2.235-.476 2.712-1.344 3.989-3.666.616-1.12 1.382-2.514 2.59-4.283 3.626-5.314 27.628-41.378 28.409-42.55.033-.073.183-.434.039-.763-.164-.374-.657-.581-1.042-.69-2.115-.596-10.598-2.206-10.684-2.222-.03-.006-2.08-.408-3.514.928a.51.51 0 0 1-.044.036c-3.86 2.855-4.37 3.149-6.904 2.563-2.237-.517-109.493-21.215-111.696-21.64-.232-.026-.799-.196-1.582-1.138-.795-.956-2.69-3.447-2.77-3.552-.021-.029-.027-.034-.04-.063-.042-.06-.388-.513-1.478-.828-1.587-.385-5.61-1.265-6.445-1.398-.141-.016-2.23-.238-3.37.431C55.606 2.503 3.846 28.602 1.644 29.713a.522.522 0 0 1-.043.02c-.119.048-.456.238-.555.516-.063.175-.028.38.107.626.365.67 3.485 1.601 6.166 2.08l.03.007 1.668.405c.163.034 1.095.258 1.653 1.138.624.851 4.41 5.597 4.45 5.645l.014.02c.115.08.645.39 2.72 1.035l2.983.928 124.177 37.563a.424.424 0 0 1 .022.007c.06.02 1.541.508 3.387-.393 1.965-.958 4.534-1.99 4.822-2.105.17-.088.905-.435 1.926-.435zm15.673 4.655c-3.445 0-9.51-1.895-12.958-2.973-.939-.293-1.68-.525-1.967-.589-1.245-.275-2.202.238-2.211.243a.554.554 0 0 1-.06.028c-.027.011-2.739 1.09-4.777 2.085-2.17 1.059-3.97.506-4.16.443L20.537 43.1l-2.986-.929c-1.264-.393-2.169-.727-2.689-.992-.224-.114-.458-.249-.574-.444-.414-.519-3.87-4.854-4.451-5.649a.447.447 0 0 1-.021-.031c-.355-.57-.99-.694-.997-.695a.536.536 0 0 1-.034-.007l-1.662-.405c-1.438-.257-6.102-1.192-6.864-2.59-.347-.636-.282-1.144-.167-1.459.256-.702.948-1.03 1.11-1.098C2.417 28.188 55.127 1.61 56.811.62c1.474-.865 3.916-.576 4.02-.564.006 0 .011.002.017.003.83.13 4.947 1.03 6.548 1.418l.02.006c1.438.412 1.95 1.08 2.073 1.276.19.25 1.983 2.604 2.726 3.497.544.654.87.764.916.777a.555.555 0 0 1 .05.007c4.47.863 109.492 21.13 111.76 21.654 2.075.48 2.305.391 6.044-2.373 1.825-1.679 4.284-1.183 4.388-1.161.34.064 8.602 1.633 10.76 2.24.875.247 1.449.676 1.704 1.276.342.805-.044 1.56-.09 1.643a.5.5 0 0 1-.023.04c-.247.371-24.762 37.206-28.433 42.586-1.18 1.73-1.934 3.1-2.54 4.2-1.316 2.396-1.977 3.598-4.668 4.17-.357.076-.774.11-1.24.11z" fill="#93820A"/><path d="M64.523 43.959l109.91 26.63 21.945-31.984L63.167 11.523l1.356 32.436zm110.132 27.71a.512.512 0 0 1-.12-.015L63.91 44.852a.506.506 0 0 1-.387-.47l-1.4-33.463a.505.505 0 0 1 .61-.517L197.33 37.766a.508.508 0 0 1 .318.781l-22.574 32.9a.51.51 0 0 1-.42.222zm1.158 7.084c.255.282.525.764.583 1.566a.505.505 0 0 1-.01.145c-.25 1.134-7.148 32.593-9.319 42.491l25.074-40.973a.505.505 0 0 1 .141-.15c.027-.02 2.74-1.963 2.443-4.443a.505.505 0 0 1 .008-.164c.678-3.21 8.45-34.064 10.88-43.699l-25.411 38.076c-.033.047-2.584 3.671-3.631 5.872a65.352 65.352 0 0 1-.758 1.279zm-9.89 47.55a.506.506 0 0 1-.496-.615c.096-.435 9.42-42.962 9.949-45.366-.07-.734-.367-.95-.428-.988a.462.462 0 0 1-.306-.3c-.056-.152-.013-.315.078-.45.002-.003.242-.364.941-1.562 1.09-2.28 3.595-5.84 3.701-5.99l27.04-40.519a.51.51 0 0 1 .917.403c-.107.425-10.657 42.2-11.575 46.44.277 2.786-2.263 4.845-2.787 5.238l-26.599 43.465a.51.51 0 0 1-.434.243z" fill="#93820A"/><path d="M59.737 44.72c.67.22 2.39.612 3.777-.572-.236-4.688-1.462-35.053-1.699-40.943a3.597 3.597 0 0 1-.251.11c-.943.367-2.262.472-3.926.314l2.1 41.09zm1.498 1.254a5.835 5.835 0 0 1-2.198-.437.506.506 0 0 1-.299-.436L56.592 3.085a.505.505 0 0 1 .572-.527c3.721.47 4.578-.477 4.666-.59.084-.22.302-.329.539-.294.241.036.413.263.422.506.016.38 1.53 38.014 1.75 42.154a.505.505 0 0 1-.153.39c-1.01.977-2.17 1.25-3.153 1.25z" fill="#93820A"/><path d="M10.996 32.752a.505.505 0 0 1-.236-.954L56.864 7.76a.51.51 0 0 1 .687.214.505.505 0 0 1-.215.682L11.232 32.694a.509.509 0 0 1-.236.058m162.612 58.276a.508.508 0 0 1-.427-.78l29.748-46.16a.51.51 0 0 1 .703-.153c.236.15.305.463.153.698l-29.748 46.162a.509.509 0 0 1-.429.233" fill="#93820A"/><path d="M158.063 96.673l-18.298-5.856 1.045-7.419 18.746 5.822-1.493 7.453zm-2.18 10.885l-17.639-5.953 1.224-8.685 18.186 5.796-1.77 8.842zm-3.973 19.832l-16.456-5.976 1.022-7.253 16.887 5.974-1.453 7.255zm-45.18-23.751l27.495 9.726-.997 7.24-26.846-9.752.348-7.214zm-29.114-10.3l25.837 9.14-.51 7.125-25.327-9.198v-7.067zm-49.82-11.03l-.805-6.878 21.485 7.6.31 6.904-20.99-7.625zm-12.79-4.645l-.983-6.82 10.407 3.681.795 6.85-10.22-3.71zm6.142-31.423l.798 6.872L10.965 49.6l-.983-6.826 11.166 3.468zm26.035 8.085l.313 6.964-23.022-7.368-.807-6.899 23.516 7.303zm27.755 8.618l-.082 7.1-24.444-7.821-.356-7.006 24.882 7.727zm30.145 16.774l-27.467-8.79v-7.152l27.986 8.69-.52 7.252zm30.867 21.113l-28.619-9.657.404-8.367 29.405 9.372-1.19 8.652zm-28.74-7.156l28.399 9.633-.995 7.23-27.75-9.666.347-7.197zM77.617 83.636l26.54 9.003-.508 7.113-26.032-9.067v-7.049zM25.898 66.094l22.153 7.515.31 6.886-21.66-7.544-.803-6.857zm-2.836-3.358l-10.727-3.62-1.014-7.038 10.907 3.476.834 7.182zm24.878 8.395l-22.334-7.537-.847-7.234 22.844 7.281.337 7.49zm26.8 9.044l-23.824-8.04-.385-7.56 24.3 7.744-.092 7.856zm29.594 9.987l-26.718-9.017v-7.938l27.31 8.704-.592 8.251zM12.695 61.616l10.657 3.615.792 6.829-10.47-3.647-.979-6.797zm38.698 19.936v-.001l-.352-6.928 23.67 8.029-.08 6.993-23.238-8.093zM74.52 99.28l-22.643-8.224-.353-6.947L74.6 92.273l-.08 7.008zm79.418 17.987l-17.063-5.943 1.02-7.242 17.495 5.934-1.452 7.25zM137.43 90.07l-29.59-9.47.354-7.328 30.254 9.394-1.018 7.404zm37.712-11.204c-.73 1.026-1.538 1.608-3.164 1.954-3.348.71-12.832-2.546-15.442-3.313l-.508-.138c-1.468-.324-2.57.295-2.57.295s-2.732 1.085-4.812 2.1c-2.08 1.015-3.78.416-3.78.416L20.685 42.616l-2.982-.928c-2.982-.927-2.982-1.224-2.982-1.224s-3.868-4.846-4.473-5.675c-.485-.78-1.342-.928-1.342-.928l-1.677-.408S1.414 32.415.705 31.116c.108 1.669-.176 3.15 1.461 4.126.97.322 1.438 4.75 1.468 5.873.03 1.123 1.221.805 1.5 2.226 0 0 4.369 27.777 4.369 29.057 0 1.278-1.933 4.121-1.806 4.761 0 .64-.55 1.209 5.234 3.163 5.785 1.955 141.915 52.187 141.915 52.187s5.06 2.258 7.329-.518c2.27-2.776 2.895-2.134 3.749-6.195.854-4.06 9.965-45.44 9.965-45.44s-.032-1.188-.746-1.49z" fill="#EAE406"/><path d="M11.423 49.214l9.927 3.177-.669-5.765-10.082-3.13.824 5.718zm10.523 4.405a.514.514 0 0 1-.156-.024l-10.981-3.514a.507.507 0 0 1-.348-.41l-.982-6.826a.51.51 0 0 1 .655-.555L21.3 45.758c.191.06.33.226.353.425l.798 6.872a.504.504 0 0 1-.505.564zm2.995-.08l22.015 7.046-.265-5.882-22.429-6.965.679 5.802zm22.555 8.256a.51.51 0 0 1-.155-.024l-23.023-7.367a.507.507 0 0 1-.35-.424l-.806-6.898a.51.51 0 0 1 .656-.541l23.517 7.302a.506.506 0 0 1 .356.46l.313 6.964a.505.505 0 0 1-.508.528zm-34.702-3.059L22.464 62l-.703-6.063-9.821-3.13.854 5.93zm10.268 4.506a.509.509 0 0 1-.163-.027l-10.728-3.62a.506.506 0 0 1-.34-.408l-1.013-7.037a.505.505 0 0 1 .175-.458.51.51 0 0 1 .483-.096l10.907 3.477c.19.06.327.226.35.423l.834 7.182a.505.505 0 0 1-.505.564zm27.84-1.394l23.454 7.505.069-6.039L50.6 55.916l.301 5.932zm23.954 8.703a.51.51 0 0 1-.156-.025l-24.444-7.822a.506.506 0 0 1-.352-.456l-.356-7.005a.51.51 0 0 1 .66-.509l24.881 7.726c.214.067.36.266.357.49l-.082 7.1a.505.505 0 0 1-.508.5zm-48.783-7.333L47.4 70.414l-.288-6.398-21.756-6.935.718 6.137zm21.867 8.419a.508.508 0 0 1-.163-.027l-22.335-7.537a.506.506 0 0 1-.341-.42l-.847-7.234a.505.505 0 0 1 .66-.54l22.844 7.28a.507.507 0 0 1 .353.46l.337 7.49a.505.505 0 0 1-.508.528zm-33.807-3.6l9.413 3.279-.662-5.71-9.568-3.245.817 5.676zm10.01 4.529a.51.51 0 0 1-.167-.028l-10.47-3.647a.506.506 0 0 1-.336-.406l-.978-6.797a.51.51 0 0 1 .667-.55l10.657 3.614a.506.506 0 0 1 .34.42l.793 6.83a.505.505 0 0 1-.505.564zm53.981-2.007l26.498 8.48.444-6.21-26.942-8.365v6.095zm26.959 9.665a.509.509 0 0 1-.156-.024L77.46 71.41a.506.506 0 0 1-.353-.482v-7.152a.505.505 0 0 1 .66-.483l27.986 8.69c.225.07.373.284.356.519l-.519 7.252a.505.505 0 0 1-.507.47zm-53.677-8.458l22.833 7.705.079-6.784-23.242-7.408.33 6.487zm23.333 8.915a.51.51 0 0 1-.163-.027l-23.824-8.04a.507.507 0 0 1-.344-.454l-.385-7.56a.505.505 0 0 1 .663-.508l24.3 7.745a.506.506 0 0 1 .353.488l-.091 7.855a.506.506 0 0 1-.509.5zm-47.57-8.103l20.65 7.193-.26-5.795-21.063-7.144.673 5.746zM48.36 81a.513.513 0 0 1-.167-.028l-21.661-7.545a.507.507 0 0 1-.337-.419l-.803-6.856a.51.51 0 0 1 .669-.537l22.153 7.514a.506.506 0 0 1 .344.456l.31 6.887a.506.506 0 0 1-.508.528zm-32.896-3.708l9.16 3.327-.664-5.724-9.315-3.295.82 5.692zm9.76 4.589a.511.511 0 0 1-.174-.03L14.83 78.14a.507.507 0 0 1-.329-.404l-.982-6.82a.51.51 0 0 1 .674-.549L24.6 74.048a.506.506 0 0 1 .335.42l.795 6.85a.505.505 0 0 1-.505.564zm26.659-.695l22.247 7.748.068-5.923-22.612-7.67.297 5.845zM74.63 90.15a.51.51 0 0 1-.168-.028l-23.237-8.094a.506.506 0 0 1-.34-.459l-.352-6.921a.505.505 0 0 1 .671-.505l23.67 8.029c.208.07.347.266.345.484l-.08 6.994a.506.506 0 0 1-.509.5zm-46.367-8.21l19.98 7.258-.26-5.805L27.59 76.18l.674 5.761zm20.523 8.5a.511.511 0 0 1-.175-.031l-20.99-7.625a.506.506 0 0 1-.331-.417l-.805-6.878a.51.51 0 0 1 .675-.535l21.486 7.6a.506.506 0 0 1 .337.454l.31 6.903a.505.505 0 0 1-.507.529zm59.581-10.204l28.642 9.167.877-6.382-29.215-9.073-.304 6.288zm29.063 10.34a.513.513 0 0 1-.156-.025l-29.589-9.47a.506.506 0 0 1-.352-.506l.354-7.329a.505.505 0 0 1 .659-.459l30.254 9.395a.506.506 0 0 1 .352.552l-1.018 7.404a.506.506 0 0 1-.504.437zm-59.307-9.794l25.75 8.69.516-7.202-26.266-8.37v6.882zm26.21 9.885a.511.511 0 0 1-.163-.027l-26.719-9.017a.506.506 0 0 1-.345-.479v-7.938a.505.505 0 0 1 .664-.482l27.31 8.704a.506.506 0 0 1 .352.517l-.591 8.252a.506.506 0 0 1-.508.47zm35.993-.202l17.349 5.552 1.292-6.45-17.738-5.509-.903 6.407zm17.736 6.713a.507.507 0 0 1-.156-.025l-18.298-5.856a.506.506 0 0 1-.348-.551l1.045-7.419a.506.506 0 0 1 .655-.413l18.747 5.822a.506.506 0 0 1 .347.582l-1.494 7.453a.506.506 0 0 1-.498.407zM52.368 90.696l21.652 7.865.068-5.933L52.07 84.84l.298 5.856zm22.152 9.09a.511.511 0 0 1-.175-.03l-22.642-8.224a.506.506 0 0 1-.334-.45l-.353-6.946a.51.51 0 0 1 .678-.502l23.077 8.162c.204.072.34.266.338.482l-.08 7.009a.505.505 0 0 1-.51.5zm3.604-9.46l25.064 8.73.434-6.063-25.498-8.65v5.983zm25.524 9.932a.509.509 0 0 1-.168-.029l-26.032-9.066a.506.506 0 0 1-.34-.478v-7.049c0-.163.078-.316.212-.411a.51.51 0 0 1 .46-.068l26.54 9.004c.22.074.36.285.344.514l-.509 7.113a.505.505 0 0 1-.507.47zm4.21-9.441l27.672 9.338 1.049-7.624-28.368-9.042-.354 7.328zm28.092 10.52a.51.51 0 0 1-.163-.026l-28.62-9.658a.506.506 0 0 1-.344-.504l.404-8.367a.505.505 0 0 1 .663-.457l29.405 9.372a.506.506 0 0 1 .349.55l-1.19 8.653a.506.506 0 0 1-.504.437zm2.856-.077l16.692 5.633 1.569-7.833-17.18-5.475-1.08 7.675zm17.077 6.804a.511.511 0 0 1-.163-.027l-17.639-5.953a.506.506 0 0 1-.34-.55l1.224-8.684a.506.506 0 0 1 .658-.412l18.186 5.796a.506.506 0 0 1 .344.58l-1.771 8.842a.506.506 0 0 1-.499.408zm-77.759-8.012l24.359 8.847.435-6.072-24.794-8.771v5.996zm24.818 10.058a.511.511 0 0 1-.174-.03l-25.327-9.2a.506.506 0 0 1-.334-.474v-7.067a.505.505 0 0 1 .679-.476l25.837 9.14a.506.506 0 0 1 .337.512l-.51 7.125a.505.505 0 0 1-.508.47zm4.447-9.59l26.806 9.336.853-6.204-27.362-9.281-.297 6.148zm27.225 10.524a.508.508 0 0 1-.168-.028l-27.75-9.667a.506.506 0 0 1-.34-.501l.347-7.198a.505.505 0 0 1 .672-.454l28.398 9.633c.23.078.373.307.34.547l-.995 7.23a.506.506 0 0 1-.504.438zm2.823-.06l16.117 5.614 1.25-6.245-16.49-5.594-.877 6.226zm16.5 6.79a.51.51 0 0 1-.167-.029l-17.063-5.942a.506.506 0 0 1-.335-.548l1.02-7.242a.506.506 0 0 1 .667-.409l17.495 5.934a.506.506 0 0 1 .335.578l-1.453 7.25a.506.506 0 0 1-.498.408zm-47.03-7.268l25.903 9.409.855-6.211-26.46-9.36-.298 6.162zm26.321 10.605a.51.51 0 0 1-.174-.03l-26.847-9.752a.506.506 0 0 1-.333-.5l.348-7.215a.505.505 0 0 1 .678-.452l27.495 9.726c.227.08.366.308.334.545l-.997 7.24a.506.506 0 0 1-.504.438zm2.787-.032l15.512 5.634 1.252-6.248-15.886-5.62-.878 6.234zm15.895 6.817a.514.514 0 0 1-.174-.03l-16.456-5.977a.506.506 0 0 1-.33-.546l1.023-7.252a.506.506 0 0 1 .673-.407l16.888 5.974c.238.084.377.33.328.576l-1.454 7.255a.506.506 0 0 1-.498.407zM2.005 35.722zm13.218 4.663zm.006.074v.002-.002zm0 .003v.002-.002zm-7.033 36.6zm.004.03zm0-.008c.004.025.006.05.006.075 0 .063-.004.125-.008.187-.015.214-.022.312.393.602.695.486 2.168 1.106 4.504 1.895 5.725 1.934 140.566 51.689 141.927 52.191l.032.013c.046.02 4.731 2.065 6.727-.376.66-.807 1.187-1.335 1.61-1.76 1.029-1.03 1.454-1.456 2.035-4.218.829-3.941 9.536-43.492 9.951-45.379a2.095 2.095 0 0 0-.177-.697c-.775.904-1.695 1.396-3.115 1.698-3.001.637-10.287-1.64-14.201-2.864-.602-.188-1.123-.351-1.49-.46l-.486-.13c-1.237-.27-2.189.239-2.198.244a.523.523 0 0 1-.062.03c-.027.01-2.739 1.089-4.777 2.084-2.173 1.06-3.975.505-4.16.443L20.536 43.1l-2.986-.929c-1.264-.393-2.169-.727-2.689-.992-.224-.114-.458-.249-.574-.445-.414-.518-3.87-4.853-4.451-5.648a.513.513 0 0 1-.022-.03c-.354-.57-.99-.695-.996-.696a.554.554 0 0 1-.033-.007l-1.663-.405c-1.122-.2-4.205-.814-5.87-1.737.036 1.124.134 1.957 1.137 2.574.415.169.931.707 1.362 3 .242 1.288.374 2.714.39 3.316.008.282.1.36.417.584.376.267.892.632 1.073 1.56a.27.27 0 0 1 .003.018c.448 2.847 4.376 27.853 4.376 29.135 0 .813-.572 1.972-1.125 3.093-.285.575-.672 1.361-.686 1.593zm150.603 56.801c-2.016 0-3.918-.806-4.15-.908-2.118-.781-136.19-50.251-141.885-52.176-5.312-1.794-5.654-2.529-5.585-3.525l.005-.086c-.046-.435.245-1.05.785-2.145.455-.922 1.022-2.07 1.022-2.647 0-.91-2.608-17.819-4.362-28.968-.105-.525-.352-.7-.664-.92-.346-.246-.822-.583-.843-1.382-.049-1.8-.614-5.077-1.131-5.41a.501.501 0 0 1-.09-.042C.3 34.72.265 33.31.229 31.945c-.007-.26-.014-.529-.031-.797a.51.51 0 0 1 .954-.274c.366.67 3.485 1.602 6.166 2.081l.032.006 1.666.406c.16.033 1.095.257 1.653 1.138.626.851 4.412 5.596 4.45 5.644l.015.02c.114.08.645.39 2.72 1.036l2.983.928 124.178 37.563a.556.556 0 0 1 .022.007c.06.02 1.54.508 3.387-.393 1.964-.958 4.533-1.99 4.821-2.105.219-.114 1.387-.663 2.895-.33a.539.539 0 0 1 .023.006l.508.137c.387.114.91.278 1.518.468 3.552 1.11 10.944 3.42 13.683 2.84 1.587-.338 2.249-.899 2.856-1.753a.51.51 0 0 1 .614-.173c.986.418 1.05 1.788 1.055 1.943a.502.502 0 0 1-.012.121c-.09.414-9.12 41.424-9.964 45.436-.642 3.056-1.2 3.614-2.308 4.725-.408.409-.916.917-1.544 1.685-.986 1.206-2.402 1.575-3.766 1.575z" fill="#93820A"/></g></svg>