<svg width="152" height="163" viewBox="0 0 152 163" xmlns="http://www.w3.org/2000/svg" xmlns:xlink="http://www.w3.org/1999/xlink"><title>Sorma</title><defs><path d="M9.673 1.957A55.23 55.23 0 0 0 9.016.295a.427.427 0 0 0-.511-.249C5.883.764 3.035 1.398.027 1.956h9.646z" id="a"/><path d="M82.493 6.88c-1.02-3.34-1.976-5.727-2.333-6.585a.427.427 0 0 0-.51-.249C53.892 7.102 6.28 6.003.474 5.84a.437.437 0 0 0-.436.548l.127.493h82.327z" id="c"/><path d="M83.836 11.802C82.431 5.942 80.675 1.532 80.16.295a.427.427 0 0 0-.51-.249C53.892 7.102 6.28 6.003.474 5.84a.437.437 0 0 0-.436.548c.236.91.729 2.86 1.306 5.415h82.491z" id="e"/><path d="M84.848 16.725c-1.4-8.226-4.037-14.867-4.688-16.43a.427.427 0 0 0-.51-.249C53.892 7.102 6.28 6.003.474 5.84a.437.437 0 0 0-.436.548A190.308 190.308 0 0 1 2.39 16.725h82.458z" id="g"/><path d="M85.499 21.648C84.541 11.255 80.937 2.16 80.159.295a.427.427 0 0 0-.51-.249C53.893 7.102 6.281 6.003.475 5.84a.437.437 0 0 0-.436.548c.49 1.893 2.093 8.283 3.252 15.26h82.208z" id="i"/><path d="M85.885 26.57c-.1-.735-.168-1.513-.206-2.337C85.152 12.8 81 2.313 80.159.295a.427.427 0 0 0-.51-.249C53.893 7.102 6.281 6.003.475 5.84a.437.437 0 0 0-.436.548c.605 2.334 2.9 11.504 3.97 20.183h81.876z" id="k"/><path d="M87.226 31.493c-.881-1.978-1.412-4.321-1.547-7.26C85.152 12.8 81 2.313 80.159.295a.427.427 0 0 0-.51-.249C53.893 7.102 6.281 6.003.475 5.84a.437.437 0 0 0-.436.548C.76 9.172 3.89 21.689 4.471 31.493h82.755z" id="m"/><path d="M90.726 36.415c-2.983-2.92-4.781-6.399-5.047-12.182C85.152 12.8 81 2.313 80.159.295a.427.427 0 0 0-.51-.249C53.893 7.102 6.281 6.003.475 5.84a.437.437 0 0 0-.436.548c.85 3.282 5.044 20.085 4.472 30.028h86.215z" id="o"/><path d="M97.142 41.338c-6.755-4.548-11.04-7.923-11.463-17.105C85.152 12.8 81 2.313 80.159.295a.427.427 0 0 0-.51-.249C53.893 7.102 6.281 6.003.475 5.84a.437.437 0 0 0-.436.548c1.018 3.929 6.826 27.23 3.517 34.951h93.586z" id="q"/><path d="M106.372 46.26c-10.79-7.91-18.059-9.923-18.616-22.027C87.229 12.8 83.078 2.313 82.237.295a.427.427 0 0 0-.51-.249C55.97 7.102 8.358 6.003 2.552 5.84a.437.437 0 0 0-.437.548c1.165 4.497 8.606 34.371 1.469 37.216a.412.412 0 0 0-.1.056 404.48 404.48 0 0 0-3.37 2.602h106.257z" id="s"/><path d="M118.358 51.183c-1.054-1.146-2.38-2.36-4.047-3.642-11.725-9.01-19.737-10.576-20.323-23.308C93.46 12.8 89.309 2.313 88.468.295a.427.427 0 0 0-.51-.249C62.202 7.102 14.59 6.003 8.784 5.84a.437.437 0 0 0-.436.548c1.165 4.497 8.605 34.371 1.469 37.216a.412.412 0 0 0-.1.056C6.35 46.232 3.114 48.774.22 51.183h118.14z" id="u"/><path d="M127.031 56.106c-.924-2.387-2.96-5.255-7.267-8.565-11.725-9.01-19.737-10.576-20.324-23.308C98.914 12.8 94.762 2.313 93.921.295a.427.427 0 0 0-.51-.249C67.654 7.102 20.043 6.003 14.237 5.84a.437.437 0 0 0-.436.548c1.164 4.497 8.605 34.371 1.468 37.216a.412.412 0 0 0-.099.056C9.394 48.07 4.008 52.395.063 56.106H127.03z" id="w"/><path d="M132.374 61.028c.222-2.852-.055-7.43-7.937-13.487-11.725-9.01-19.737-10.576-20.323-23.308-.527-11.433-4.678-21.92-5.519-23.938a.427.427 0 0 0-.51-.249C72.327 7.102 24.716 6.003 18.91 5.84a.437.437 0 0 0-.437.548c1.165 4.497 8.606 34.371 1.469 37.216a.412.412 0 0 0-.1.056C11.256 50.219 3.529 56.586.12 61.029h132.255z" id="y"/><path d="M136.049 65.951a13.113 13.113 0 0 0-1.714-2.01c-1.46-1.65 3.645-7.39-8.08-16.4-11.725-9.01-19.737-10.576-20.324-23.308-.526-11.433-4.678-21.92-5.518-23.938a.427.427 0 0 0-.511-.249C74.146 7.102 26.534 6.003 20.728 5.84a.437.437 0 0 0-.436.548c1.164 4.497 8.605 34.371 1.469 37.216a.412.412 0 0 0-.1.056C9.37 53.048-1.155 62.039.212 65.56c.047.12.091.25.134.39H136.05z" id="A"/><path d="M138.12 70.874a13.014 13.014 0 0 0-3.785-6.932c-1.46-1.652 3.645-7.39-8.08-16.4-11.725-9.01-19.737-10.577-20.324-23.309-.526-11.433-4.678-21.92-5.518-23.938a.427.427 0 0 0-.511-.249C74.146 7.102 26.534 6.003 20.728 5.84a.437.437 0 0 0-.436.548c1.164 4.497 8.605 34.371 1.469 37.216a.412.412 0 0 0-.1.056C9.37 53.048-1.155 62.039.212 65.56c.427 1.098.694 3.09.859 5.313h137.048z" id="C"/><path d="M139.262 75.796a13.11 13.11 0 0 0-.824-.788.438.438 0 0 1-.148-.373 12.998 12.998 0 0 0-3.955-10.693c-1.46-1.652 3.645-7.39-8.08-16.4-11.725-9.01-19.737-10.577-20.324-23.309-.526-11.433-4.678-21.92-5.518-23.938a.427.427 0 0 0-.511-.249C74.146 7.102 26.534 6.003 20.728 5.84a.437.437 0 0 0-.436.548c1.164 4.497 8.605 34.371 1.469 37.216a.412.412 0 0 0-.1.056C9.37 53.048-1.155 62.039.212 65.56c.735 1.891.995 6.431 1.079 10.235h137.97z" id="E"/><path d="M142.226 80.719a13.047 13.047 0 0 0-3.788-5.71.438.438 0 0 1-.148-.374 12.998 12.998 0 0 0-3.955-10.693c-1.46-1.652 3.645-7.39-8.08-16.4-11.725-9.01-19.737-10.577-20.324-23.309-.526-11.433-4.678-21.92-5.518-23.938a.427.427 0 0 0-.511-.249C74.146 7.102 26.534 6.003 20.728 5.84a.437.437 0 0 0-.436.548c1.164 4.497 8.605 34.371 1.469 37.216a.412.412 0 0 0-.1.056C9.37 53.048-1.155 62.039.212 65.56 1.336 68.454 1.35 77.546 1.32 80.72h140.907z" id="G"/><path d="M4.059.875a45.265 45.265 0 0 0-.236-.58.427.427 0 0 0-.511-.249C2.254.336 1.159.612.032.875h4.027z" id="I"/><path d="M142.858 85.642c.028-.523.024-.83.024-.83 0-3.91-1.721-7.416-4.444-9.804a.438.438 0 0 1-.148-.373 12.998 12.998 0 0 0-3.955-10.693c-1.46-1.652 3.645-7.39-8.08-16.4-11.725-9.01-19.737-10.577-20.324-23.309-.526-11.433-4.678-21.92-5.518-23.938a.427.427 0 0 0-.511-.249C74.146 7.102 26.534 6.003 20.728 5.84a.437.437 0 0 0-.436.548c1.164 4.497 8.605 34.371 1.469 37.216a.412.412 0 0 0-.1.056C9.37 53.048-1.155 62.039.212 65.56c1.37 3.526 1.091 16.264 1.091 16.264v.003a12.99 12.99 0 0 0-1.015 3.814h142.57z" id="K"/><path d="M54.372 5.798c-.888-2.772-1.677-4.74-1.995-5.503a.427.427 0 0 0-.51-.249C37.728 3.92 17.004 5.336.225 5.798h54.147z" id="M"/><path d="M142.054 90.564c.861-3.046.828-5.751.828-5.751 0-3.911-1.721-7.417-4.444-9.805a.438.438 0 0 1-.148-.373 12.998 12.998 0 0 0-3.955-10.693c-1.46-1.652 3.645-7.39-8.08-16.4-11.725-9.01-19.737-10.577-20.324-23.309-.526-11.433-4.678-21.92-5.518-23.938a.427.427 0 0 0-.511-.249C74.146 7.102 26.534 6.003 20.728 5.84a.437.437 0 0 0-.436.548c1.164 4.497 8.605 34.371 1.469 37.216a.412.412 0 0 0-.1.056C9.37 53.048-1.155 62.039.212 65.56c1.37 3.526 1.091 16.264 1.091 16.264v.003c-.7 1.6-1.09 3.367-1.09 5.226 0 1.216.166 2.394.478 3.51h141.363z" id="O"/><path d="M83.569 10.72c-1.353-5.317-2.926-9.266-3.41-10.425a.427.427 0 0 0-.51-.249C53.893 7.102 6.281 6.003.475 5.84a.437.437 0 0 0-.436.548c.201.777.59 2.311 1.058 4.333H83.57z" id="Q"/><path d="M140.165 95.487c.138-.61.358-1.21.66-1.784 2.117-4.027 2.057-8.89 2.057-8.89 0-3.911-1.721-7.417-4.444-9.805a.438.438 0 0 1-.148-.373 12.998 12.998 0 0 0-3.955-10.693c-1.46-1.652 3.645-7.39-8.08-16.4-11.725-9.01-19.737-10.577-20.324-23.309-.526-11.433-4.678-21.92-5.518-23.938a.427.427 0 0 0-.511-.249C74.146 7.102 26.534 6.003 20.728 5.84a.437.437 0 0 0-.436.548c1.164 4.497 8.605 34.371 1.469 37.216a.412.412 0 0 0-.1.056C9.37 53.048-1.155 62.039.212 65.56c1.37 3.526 1.091 16.264 1.091 16.264v.003c-.7 1.6-1.09 3.367-1.09 5.226 0 3.044 1.044 5.843 2.79 8.06.086.11.111.248.081.373h137.081z" id="S"/><path d="M84.655 15.643C83.218 7.92 80.782 1.789 80.16.295a.427.427 0 0 0-.51-.249C53.892 7.102 6.28 6.003.474 5.84a.437.437 0 0 0-.436.548c.344 1.326 1.233 4.86 2.133 9.256h82.483z" id="U"/><path d="M142.382 100.41c-1.104-2.045-1.129-4.56 0-6.707 2.118-4.027 2.058-8.89 2.058-8.89 0-3.911-1.721-7.417-4.444-9.805a.438.438 0 0 1-.148-.373 12.998 12.998 0 0 0-3.955-10.693c-1.46-1.652 3.645-7.39-8.08-16.4-11.725-9.01-19.737-10.577-20.324-23.309-.526-11.433-4.678-21.92-5.518-23.938a.427.427 0 0 0-.511-.249C75.703 7.102 28.092 6.003 22.286 5.84a.437.437 0 0 0-.436.548c1.164 4.497 8.605 34.371 1.468 37.216a.412.412 0 0 0-.099.056C10.927 53.048.402 62.039 1.77 65.56c1.37 3.526 1.091 16.264 1.091 16.264v.003c-.7 1.6-1.09 3.367-1.09 5.226 0 3.044 1.044 5.843 2.79 8.06.159.202.11.5-.107.637a13.084 13.084 0 0 0-4.42 4.658h142.348z" id="W"/><path d="M85.39 20.565c-1.097-9.935-4.48-18.47-5.23-20.27a.427.427 0 0 0-.51-.249C53.892 7.102 6.28 6.003.474 5.84a.437.437 0 0 0-.436.548c.465 1.795 1.93 7.631 3.068 14.178h82.282z" id="Y"/><path d="M147.717 105.332a14.917 14.917 0 0 0-2.525-3.264c-2.243-2.192-2.712-5.588-1.252-8.365 2.118-4.027 2.058-8.89 2.058-8.89 0-3.911-1.722-7.417-4.445-9.805a.438.438 0 0 1-.147-.373 12.998 12.998 0 0 0-3.955-10.693c-1.46-1.652 3.645-7.39-8.08-16.4-11.725-9.01-19.737-10.577-20.324-23.309-.526-11.433-4.678-21.92-5.519-23.938a.427.427 0 0 0-.51-.249C77.26 7.102 29.65 6.003 23.844 5.84a.437.437 0 0 0-.436.548c1.164 4.497 8.605 34.371 1.468 37.216a.412.412 0 0 0-.099.056C12.485 53.048 1.96 62.039 3.328 65.56c1.37 3.526 1.091 16.264 1.091 16.264v.003c-.7 1.6-1.09 3.367-1.09 5.226 0 3.044 1.044 5.843 2.79 8.06.159.202.109.5-.107.637a13.025 13.025 0 0 0-5.996 9.581h147.701z" id="aa"/><path d="M85.764 25.488a28.497 28.497 0 0 1-.085-1.255C85.152 12.8 81 2.313 80.159.295a.427.427 0 0 0-.51-.249C53.893 7.102 6.281 6.003.475 5.84a.437.437 0 0 0-.436.548c.58 2.237 2.712 10.755 3.83 19.101h81.895z" id="ac"/><path d="M149.728 110.255a14.825 14.825 0 0 0-4.276-8.187c-2.243-2.192-2.713-5.588-1.252-8.365 2.117-4.027 2.058-8.89 2.058-8.89 0-3.911-1.722-7.417-4.445-9.805a.438.438 0 0 1-.148-.373 12.998 12.998 0 0 0-3.955-10.693c-1.46-1.652 3.645-7.39-8.08-16.4-11.725-9.01-19.737-10.577-20.323-23.309-.527-11.433-4.678-21.92-5.519-23.938a.427.427 0 0 0-.51-.249C77.52 7.102 29.91 6.003 24.103 5.84a.437.437 0 0 0-.437.548c1.165 4.497 8.606 34.371 1.469 37.216a.412.412 0 0 0-.1.056C12.746 53.048 2.22 62.039 3.589 65.56c1.37 3.526 1.09 16.264 1.09 16.264l.001.003c-.7 1.6-1.091 3.367-1.091 5.226 0 3.044 1.044 5.843 2.79 8.06.16.202.11.5-.107.637a13.018 13.018 0 0 0-6.074 11.022c0 1.206.163 2.374.47 3.482h149.06z" id="ae"/><path d="M86.792 30.41c-.622-1.74-1.002-3.757-1.113-6.177C85.152 12.8 81 2.313 80.159.295a.427.427 0 0 0-.51-.249C53.893 7.102 6.281 6.003.475 5.84a.437.437 0 0 0-.436.548C.734 9.07 3.664 20.79 4.397 30.411h82.395z" id="ag"/><path d="M149.723 115.177a14.99 14.99 0 0 0 .205-2.476c0-4.17-1.715-7.936-4.476-10.633-2.243-2.192-2.713-5.588-1.252-8.365 2.117-4.027 2.058-8.89 2.058-8.89 0-3.911-1.722-7.417-4.445-9.805a.438.438 0 0 1-.148-.373 12.998 12.998 0 0 0-3.955-10.693c-1.46-1.652 3.645-7.39-8.08-16.4-11.725-9.01-19.737-10.577-20.323-23.309-.527-11.433-4.678-21.92-5.519-23.938a.427.427 0 0 0-.51-.249C77.52 7.102 29.91 6.003 24.103 5.84a.437.437 0 0 0-.437.548c1.165 4.497 8.606 34.371 1.469 37.216a.412.412 0 0 0-.1.056C12.746 53.048 2.22 62.039 3.589 65.56c1.37 3.526 1.09 16.264 1.09 16.264l.001.003c-.7 1.6-1.091 3.367-1.091 5.226 0 3.044 1.044 5.843 2.79 8.06.16.202.11.5-.107.637a13.018 13.018 0 0 0-6.074 11.022c0 3.204 1.156 6.136 3.07 8.404h146.456z" id="ai"/><path d="M89.7 35.333c-2.367-2.709-3.787-6.013-4.021-11.1C85.152 12.8 81 2.313 80.159.295a.427.427 0 0 0-.51-.249C53.893 7.102 6.281 6.003.475 5.84a.437.437 0 0 0-.436.548c.82 3.166 4.75 18.91 4.515 28.946h85.147z" id="ak"/><path d="M147.962 120.1a14.812 14.812 0 0 0 1.966-7.399c0-4.17-1.715-7.936-4.476-10.633-2.243-2.192-2.713-5.588-1.252-8.365 2.117-4.027 2.058-8.89 2.058-8.89 0-3.911-1.722-7.417-4.445-9.805a.438.438 0 0 1-.148-.373 12.998 12.998 0 0 0-3.955-10.693c-1.46-1.652 3.645-7.39-8.08-16.4-11.725-9.01-19.737-10.577-20.323-23.309-.527-11.433-4.678-21.92-5.519-23.938a.427.427 0 0 0-.51-.249C77.52 7.102 29.91 6.003 24.103 5.84a.437.437 0 0 0-.437.548c1.165 4.497 8.606 34.371 1.469 37.216a.412.412 0 0 0-.1.056C12.746 53.048 2.22 62.039 3.589 65.56c1.37 3.526 1.09 16.264 1.09 16.264l.001.003c-.7 1.6-1.091 3.367-1.091 5.226 0 3.044 1.044 5.843 2.79 8.06.16.202.11.5-.107.637a13.018 13.018 0 0 0-6.074 11.022 12.99 12.99 0 0 0 3.461 8.846c.092.1.132.234.11.367a13.074 13.074 0 0 0-.033 4.114h144.227z" id="am"/><path d="M81.563.116c1.546 4.473 3.742 12.105 4.116 20.214.388 8.44 4.041 11.974 9.876 16.022H3.935C6.373 27.742 1.012 6.242.038 2.483a.437.437 0 0 1 .436-.548c4.317.122 31.741.761 56.112-1.819h24.976z" id="ao"/><path d="M143.39 125.023a14.852 14.852 0 0 0 6.538-12.322c0-4.17-1.715-7.936-4.476-10.633-2.243-2.192-2.713-5.588-1.252-8.365 2.117-4.027 2.058-8.89 2.058-8.89 0-3.911-1.722-7.417-4.445-9.805a.438.438 0 0 1-.148-.373 12.998 12.998 0 0 0-3.955-10.693c-1.46-1.652 3.645-7.39-8.08-16.4-11.725-9.01-19.737-10.577-20.323-23.309-.527-11.433-4.678-21.92-5.519-23.938a.427.427 0 0 0-.51-.249C77.52 7.102 29.91 6.003 24.103 5.84a.437.437 0 0 0-.437.548c1.165 4.497 8.606 34.371 1.469 37.216a.412.412 0 0 0-.1.056C12.746 53.048 2.22 62.039 3.589 65.56c1.37 3.526 1.09 16.264 1.09 16.264l.001.003c-.7 1.6-1.091 3.367-1.091 5.226 0 3.044 1.044 5.843 2.79 8.06.16.202.11.5-.107.637a13.018 13.018 0 0 0-6.074 11.022 12.99 12.99 0 0 0 3.461 8.846c.092.1.132.234.11.367-.117.7-.18 1.416-.18 2.148 0 2.53.72 4.89 1.966 6.889H143.39z" id="aq"/><path d="M83.874.094c1.188 4.27 2.325 9.666 2.584 15.29.53 11.533 7.155 13.905 17.112 20.946H.21a432.11 432.11 0 0 1 1.978-1.52.412.412 0 0 1 .099-.055C8.584 32.245 3.532 8.69 1.456.094h82.418z" id="as"/><path d="M139.933 129.945c1.037-1.957.724-3.46.724-3.46l.001-.004c5.434-2.205 9.27-7.542 9.27-13.78 0-4.17-1.715-7.936-4.476-10.633-2.243-2.192-2.713-5.588-1.252-8.365 2.117-4.027 2.058-8.89 2.058-8.89 0-3.911-1.722-7.417-4.445-9.805a.438.438 0 0 1-.148-.373 12.998 12.998 0 0 0-3.955-10.693c-1.46-1.652 3.645-7.39-8.08-16.4-11.725-9.01-19.737-10.577-20.323-23.309-.527-11.433-4.678-21.92-5.519-23.938a.427.427 0 0 0-.51-.249C77.52 7.102 29.91 6.003 24.103 5.84a.437.437 0 0 0-.437.548c1.165 4.497 8.606 34.371 1.469 37.216a.412.412 0 0 0-.1.056C12.746 53.048 2.22 62.039 3.589 65.56c1.37 3.526 1.09 16.264 1.09 16.264l.001.003c-.7 1.6-1.091 3.367-1.091 5.226 0 3.044 1.044 5.843 2.79 8.06.16.202.11.5-.107.637a13.018 13.018 0 0 0-6.074 11.022 12.99 12.99 0 0 0 3.461 8.846c.092.1.132.234.11.367a13.016 13.016 0 0 0 5.558 12.95.455.455 0 0 1 .199.417c-.02.203-.04.4-.062.592h130.47z" id="au"/><path d="M91.312.072c.677 3.2 1.21 6.736 1.377 10.368.587 12.731 8.599 14.298 20.324 23.308a34.77 34.77 0 0 1 2.99 2.56H.233a317.444 317.444 0 0 1 8.186-6.442.412.412 0 0 1 .1-.056c5.324-2.122 2.534-19.289.29-29.738h82.503z" id="aw"/><path d="M134.216 134.868c.437-.212.8-.399 1.081-.557 6.254-3.526 5.36-7.826 5.36-7.826l.001-.004c5.434-2.205 9.27-7.542 9.27-13.78 0-4.17-1.715-7.936-4.476-10.633-2.243-2.192-2.713-5.588-1.252-8.365 2.117-4.027 2.058-8.89 2.058-8.89 0-3.911-1.722-7.417-4.445-9.805a.438.438 0 0 1-.148-.373 12.998 12.998 0 0 0-3.955-10.693c-1.46-1.652 3.645-7.39-8.08-16.4-11.725-9.01-19.737-10.577-20.323-23.309-.527-11.433-4.678-21.92-5.519-23.938a.427.427 0 0 0-.51-.249C77.52 7.102 29.91 6.003 24.103 5.84a.437.437 0 0 0-.437.548c1.165 4.497 8.606 34.371 1.469 37.216a.412.412 0 0 0-.1.056C12.746 53.048 2.22 62.039 3.589 65.56c1.37 3.526 1.09 16.264 1.09 16.264l.001.003c-.7 1.6-1.091 3.367-1.091 5.226 0 3.044 1.044 5.843 2.79 8.06.16.202.11.5-.107.637a13.018 13.018 0 0 0-6.074 11.022 12.99 12.99 0 0 0 3.461 8.846c.092.1.132.234.11.367a13.016 13.016 0 0 0 5.558 12.95.455.455 0 0 1 .199.417c-.25 2.634-.703 4.336-1.217 5.515h125.908z" id="ay"/><path d="M97.89.05a59.58 59.58 0 0 1 .512 5.445c.586 12.732 8.598 14.299 20.323 23.309 3.675 2.823 5.696 5.326 6.785 7.482H.196C4.004 32.829 8.908 28.91 14.13 24.92a.412.412 0 0 1 .1-.056c4.55-1.812 3.176-14.609 1.28-24.814h82.38z" id="aA"/><path d="M122.582 139.79c6.12-2.45 10.977-4.5 12.715-5.48 6.254-3.525 5.36-7.825 5.36-7.825l.001-.004c5.434-2.205 9.27-7.542 9.27-13.78 0-4.17-1.715-7.936-4.476-10.633-2.243-2.192-2.713-5.588-1.252-8.365 2.117-4.027 2.058-8.89 2.058-8.89 0-3.911-1.722-7.417-4.445-9.805a.438.438 0 0 1-.148-.373 12.998 12.998 0 0 0-3.955-10.693c-1.46-1.652 3.645-7.39-8.08-16.4-11.725-9.01-19.737-10.577-20.323-23.309-.527-11.433-4.678-21.92-5.519-23.938a.427.427 0 0 0-.51-.249C77.52 7.102 29.91 6.003 24.103 5.84a.437.437 0 0 0-.437.548c1.165 4.497 8.606 34.371 1.469 37.216a.412.412 0 0 0-.1.056C12.746 53.048 2.22 62.039 3.589 65.56c1.37 3.526 1.09 16.264 1.09 16.264l.001.003c-.7 1.6-1.091 3.367-1.091 5.226 0 3.044 1.044 5.843 2.79 8.06.16.202.11.5-.107.637a13.018 13.018 0 0 0-6.074 11.022 12.99 12.99 0 0 0 3.461 8.846c.092.1.132.234.11.367a13.016 13.016 0 0 0 5.558 12.95.455.455 0 0 1 .199.417c-.655 6.919-2.715 7.406-3.594 8.875a6.25 6.25 0 0 0-.68 1.562h117.331z" id="aC"/><path d="M103.308.028c.01.174.019.348.027.523.586 12.731 8.598 14.298 20.323 23.308 6.951 5.341 7.987 9.533 7.983 12.405H.222C3.97 31.902 11.151 26.02 19.065 19.976a.412.412 0 0 1 .099-.055c3.838-1.53 3.46-10.88 2.11-19.893h82.034z" id="aE"/><path d="M103.723.186a.435.435 0 0 1 .065.11c.84 2.018 4.992 12.504 5.519 23.937.586 12.732 8.598 14.299 20.323 23.308 11.725 9.01 6.62 14.75 8.08 16.4a12.998 12.998 0 0 1 3.955 10.694.437.437 0 0 0 .148.373 13.004 13.004 0 0 1 4.445 9.805s.06 4.863-2.058 8.89c-1.46 2.777-.991 6.173 1.252 8.365a14.818 14.818 0 0 1 4.476 10.633c0 6.238-3.836 11.575-9.27 13.78v.004s.893 4.3-5.36 7.826c-2.83 1.595-13.918 6.019-25.259 10.402H11.07c-.698-.32-1.379-.516-2.011-.53-3.908-.08-4.886-3.017-3.127-5.955.88-1.469 2.939-1.956 3.594-8.875a.455.455 0 0 0-.2-.418 13.016 13.016 0 0 1-5.557-12.949.433.433 0 0 0-.11-.367 12.989 12.989 0 0 1-3.461-8.846c0-4.643 2.425-8.716 6.074-11.022a.437.437 0 0 0 .108-.637 12.981 12.981 0 0 1-2.791-8.06c0-1.86.391-3.626 1.091-5.226v-.003s.278-12.738-1.091-16.264C2.22 62.04 12.745 53.048 25.037 43.66a.412.412 0 0 1 .099-.056c7.137-2.845-.304-32.72-1.469-37.216a.437.437 0 0 1 .437-.548c5.767.163 52.783 1.249 78.655-5.653h.964z" id="aG"/><path d="M106.519.005c2.122 8.859 9.52 11.059 19.736 18.91 11.725 9.009 6.62 14.748 8.08 16.4.308.294.6.603.878.927H.093c.022-3.91 10.014-12.385 21.568-21.21a.412.412 0 0 1 .1-.056c3.137-1.25 3.457-7.725 2.732-14.97h82.026z" id="aI"/><path d="M105.559.164c1.506 4.563 3.403 11.64 3.748 19.125.586 12.73 8.598 14.298 20.323 23.308s6.62 14.749 8.08 16.4a12.998 12.998 0 0 1 3.955 10.693.437.437 0 0 0 .148.373 13.004 13.004 0 0 1 4.445 9.805s.06 4.864-2.058 8.89c-1.46 2.777-.991 6.173 1.252 8.365a14.818 14.818 0 0 1 4.476 10.634c0 6.238-3.836 11.575-9.27 13.78v.003s.893 4.3-5.36 7.826c-3.929 2.215-23.783 9.884-38.123 15.325H17.21c-1.976-2.102-5.492-5.398-8.151-5.452-3.908-.08-4.886-3.018-3.127-5.956.88-1.468 2.939-1.956 3.594-8.875a.455.455 0 0 0-.2-.417 13.016 13.016 0 0 1-5.557-12.95.433.433 0 0 0-.11-.367 12.989 12.989 0 0 1-3.461-8.846c0-4.643 2.425-8.715 6.074-11.022a.437.437 0 0 0 .108-.637 12.981 12.981 0 0 1-2.791-8.06c0-1.859.391-3.626 1.091-5.225v-.004s.278-12.738-1.091-16.263c-1.368-3.522 9.157-12.514 21.449-21.903a.412.412 0 0 1 .099-.055c7.137-2.845-.304-32.72-1.469-37.217a.437.437 0 0 1 .437-.548c3.551.1 22.747.551 43.015-.73h38.44z" id="aK"/><path d="M108.601.243c3.36 5.147 9.64 7.828 17.654 13.987 11.725 9.01 6.62 14.748 8.08 16.4a13.034 13.034 0 0 1 3.527 5.85H.98c-.167-1.776-.412-3.314-.768-4.23-1.367-3.522 9.157-12.514 21.45-21.903a.412.412 0 0 1 .099-.055c2.4-.957 3.151-4.971 3.047-10.049H108.6z" id="aM"/><path d="M107.019.142c1.076 4.081 2.05 9.045 2.288 14.202.586 12.731 8.598 14.298 20.323 23.308s6.62 14.749 8.08 16.4a12.998 12.998 0 0 1 3.955 10.693.439.439 0 0 0 .148.374 13.004 13.004 0 0 1 4.445 9.804s.06 4.864-2.058 8.89c-1.46 2.777-.991 6.174 1.252 8.365a14.818 14.818 0 0 1 4.476 10.634c0 6.238-3.836 11.575-9.27 13.78v.004s.893 4.3-5.36 7.825c-5.476 3.087-41.901 16.776-51.194 20.248H21.722a13.095 13.095 0 0 1-3.004-3.221c-.24-.293-5.836-7.076-9.66-7.154-3.908-.08-4.886-3.017-3.127-5.956.88-1.468 2.939-1.956 3.594-8.875a.455.455 0 0 0-.2-.417 13.016 13.016 0 0 1-5.557-12.95.433.433 0 0 0-.11-.367 12.989 12.989 0 0 1-3.461-8.845c0-4.643 2.425-8.716 6.074-11.022a.437.437 0 0 0 .108-.637 12.981 12.981 0 0 1-2.791-8.06c0-1.86.391-3.626 1.091-5.226v-.004s.278-12.738-1.091-16.263C2.22 52.15 12.745 43.158 25.037 33.769a.412.412 0 0 1 .099-.055c6.048-2.411 1.627-24.232-.571-33.572h82.454z" id="aO"/><path d="M113.368.221c3.39 2.634 7.787 5.145 12.887 9.064 11.725 9.01 6.62 14.749 8.08 16.4a12.998 12.998 0 0 1 3.955 10.693.441.441 0 0 0 0 .08H1.262c-.109-3.547-.385-7.439-1.05-9.153C-1.156 23.783 9.368 14.79 21.66 5.402a.412.412 0 0 1 .1-.055c1.546-.617 2.408-2.503 2.798-5.126h88.81z" id="aQ"/><path d="M108.152.12c.57 2.905 1.006 6.055 1.155 9.28.586 12.73 8.598 14.297 20.323 23.307 11.725 9.01 6.62 14.75 8.08 16.4a12.998 12.998 0 0 1 3.955 10.693.439.439 0 0 0 .148.374 13.004 13.004 0 0 1 4.445 9.805s.06 4.863-2.058 8.89c-1.46 2.777-.991 6.173 1.252 8.365a14.818 14.818 0 0 1 4.476 10.633c0 6.238-3.836 11.575-9.27 13.78v.004s.893 4.3-5.36 7.825c-6.083 3.43-50.355 19.94-53.205 20.998-.076.027-4.587 3.034-7.03 3.451-2.302.393-6.819.492-8.977-.553l-.003-.002c-.691.486-1.425.913-2.196 1.277H52.056a17.882 17.882 0 0 1-2.808-1.751 12.635 12.635 0 0 0-12.48-1.597c-3.538 1.465-7.19 1.075-7.19 1.075-4.532 0-8.52-2.326-10.845-5.85a.242.242 0 0 0-.015-.021c-.24-.293-5.836-7.075-9.66-7.153-3.908-.08-4.886-3.018-3.127-5.956.88-1.469 2.939-1.956 3.594-8.876a.455.455 0 0 0-.2-.417 13.016 13.016 0 0 1-5.557-12.95.433.433 0 0 0-.11-.366 12.989 12.989 0 0 1-3.461-8.846c0-4.643 2.425-8.716 6.074-11.022a.437.437 0 0 0 .108-.637 12.981 12.981 0 0 1-2.791-8.06c0-1.86.391-3.626 1.091-5.226v-.004s.278-12.737-1.091-16.263c-1.368-3.521 9.157-12.513 21.449-21.902a.412.412 0 0 1 .099-.056c5.143-2.05 2.716-18.138.522-28.649h82.494z" id="aS"/><path d="M120.468.2c1.802 1.219 3.738 2.566 5.787 4.14 11.725 9.01 6.62 14.749 8.08 16.4a12.998 12.998 0 0 1 3.955 10.693c-.014.142.04.28.148.374a13.068 13.068 0 0 1 3.376 4.629H1.326c.01-3.8-.1-11.465-1.114-14.076C-1.155 18.839 9.37 9.847 21.662.458a.412.412 0 0 1 .099-.056c.142-.057.28-.124.41-.203h98.297z" id="aU"/><path d="M108.938.098a58.68 58.68 0 0 1 .369 4.356c.586 12.732 8.598 14.299 20.323 23.309 11.725 9.01 6.62 14.748 8.08 16.4a12.998 12.998 0 0 1 3.955 10.693.437.437 0 0 0 .148.373 13.004 13.004 0 0 1 4.445 9.805s.06 4.864-2.058 8.89c-1.46 2.777-.991 6.173 1.252 8.365a14.818 14.818 0 0 1 4.476 10.634c0 6.237-3.836 11.574-9.27 13.78v.003s.893 4.3-5.36 7.826c-6.083 3.43-50.355 19.94-53.205 20.997-.076.028-4.587 3.035-7.03 3.452-2.302.392-6.819.491-8.977-.553l-.003-.002a14.734 14.734 0 0 1-8.493 2.682c-2.974 0-5.899-1.31-8.342-3.157a12.635 12.635 0 0 0-12.48-1.597c-3.538 1.465-7.19 1.075-7.19 1.075-4.532 0-8.52-2.325-10.845-5.85a.242.242 0 0 0-.015-.02c-.24-.294-5.836-7.076-9.66-7.154-3.908-.08-4.886-3.018-3.127-5.956.88-1.469 2.939-1.956 3.594-8.875a.455.455 0 0 0-.2-.417 13.016 13.016 0 0 1-5.557-12.95.433.433 0 0 0-.11-.367 12.989 12.989 0 0 1-3.461-8.846c0-4.643 2.425-8.716 6.074-11.022a.437.437 0 0 0 .108-.637 12.981 12.981 0 0 1-2.791-8.06c0-1.86.391-3.626 1.091-5.225v-.004s.278-12.738-1.091-16.264C2.22 42.261 12.745 33.27 25.037 23.88a.412.412 0 0 1 .099-.056c4.389-1.75 3.265-13.72 1.478-23.726h82.324z" id="aW"/><path d="M127.24.177c10.447 8.56 5.677 14.016 7.095 15.619a12.998 12.998 0 0 1 3.955 10.693c-.014.141.04.28.148.373a13.003 13.003 0 0 1 4.442 9.551H.452c.185-.95.473-1.865.852-2.73v-.004S1.581 20.94.211 17.415C-.926 14.485 6.175 7.763 15.676.177h111.565z" id="aY"/><path d="M109.338.076c.797 12.214 8.743 13.867 20.292 22.742 11.725 9.01 6.62 14.749 8.08 16.4a12.998 12.998 0 0 1 3.955 10.693.436.436 0 0 0 .148.373 13.004 13.004 0 0 1 4.445 9.805s.06 4.864-2.058 8.89c-1.46 2.777-.991 6.174 1.252 8.365a14.818 14.818 0 0 1 4.476 10.634c0 6.238-3.836 11.575-9.27 13.78v.003s.893 4.3-5.36 7.826c-6.083 3.43-50.355 19.94-53.205 20.997-.076.028-4.587 3.035-7.03 3.452-2.302.393-6.819.491-8.977-.553l-.003-.002a14.734 14.734 0 0 1-8.493 2.682c-2.974 0-5.899-1.31-8.342-3.157a12.635 12.635 0 0 0-12.48-1.597c-3.538 1.466-7.19 1.076-7.19 1.076-4.532 0-8.52-2.326-10.845-5.85a.242.242 0 0 0-.015-.021c-.24-.293-5.836-7.076-9.66-7.154-3.908-.08-4.886-3.017-3.127-5.956.88-1.468 2.939-1.956 3.594-8.875a.455.455 0 0 0-.2-.417 13.016 13.016 0 0 1-5.557-12.95.433.433 0 0 0-.11-.367A12.989 12.989 0 0 1 .197 82.05c0-4.642 2.425-8.715 6.074-11.021a.437.437 0 0 0 .108-.638 12.981 12.981 0 0 1-2.791-8.06c0-1.859.391-3.625 1.091-5.225V57.1s.278-12.738-1.091-16.263c-1.368-3.522 9.157-12.514 21.449-21.903a.412.412 0 0 1 .099-.055C28.82 17.41 28.62 8.74 27.403.076h81.935z" id="ba"/><path d="M131.97.155c4.003 5.736 1.242 9.426 2.365 10.696a12.998 12.998 0 0 1 3.955 10.693c-.014.141.04.28.148.373a13.004 13.004 0 0 1 4.444 9.805s.026 2.093-.554 4.67H.438a13.1 13.1 0 0 1 .866-7.654v-.004S1.581 15.996.211 12.47C-.672 10.194 3.413 5.632 9.732.155H131.97z" id="bc"/><path d="M110.192.054c2.455 7.965 9.654 10.3 19.438 17.82 11.725 9.009 6.62 14.748 8.08 16.4a12.998 12.998 0 0 1 3.955 10.692.439.439 0 0 0 .148.374 13.004 13.004 0 0 1 4.445 9.805s.06 4.863-2.058 8.89c-1.46 2.777-.991 6.173 1.252 8.364a14.818 14.818 0 0 1 4.476 10.634c0 6.238-3.836 11.575-9.27 13.78v.004s.893 4.3-5.36 7.825c-6.083 3.43-50.355 19.94-53.205 20.997-.076.028-4.587 3.035-7.03 3.452-2.302.393-6.819.492-8.977-.553l-.003-.002a14.734 14.734 0 0 1-8.493 2.683c-2.974 0-5.899-1.31-8.342-3.157a12.635 12.635 0 0 0-12.48-1.598c-3.538 1.466-7.19 1.076-7.19 1.076-4.532 0-8.52-2.326-10.845-5.85a.242.242 0 0 0-.015-.021c-.24-.293-5.836-7.076-9.66-7.154-3.908-.08-4.886-3.017-3.127-5.955.88-1.469 2.939-1.956 3.594-8.876a.455.455 0 0 0-.2-.417 13.016 13.016 0 0 1-5.557-12.95.433.433 0 0 0-.11-.367 12.989 12.989 0 0 1-3.461-8.845c0-4.643 2.425-8.716 6.074-11.022a.437.437 0 0 0 .108-.637 12.981 12.981 0 0 1-2.791-8.06c0-1.86.391-3.626 1.091-5.226v-.004s.278-12.737-1.091-16.263C2.22 32.372 12.745 23.379 25.037 13.99a.412.412 0 0 1 .099-.055c2.98-1.188 3.418-7.086 2.834-13.881h82.222z" id="be"/><path d="M134.094.133c.497 2.952-.518 4.915.241 5.773A12.998 12.998 0 0 1 138.29 16.6c-.014.142.04.28.148.374a13.004 13.004 0 0 1 4.444 9.805s.06 4.863-2.058 8.89a7.35 7.35 0 0 0-.323.701H2.482a12.975 12.975 0 0 1-2.27-7.35c0-1.86.392-3.626 1.092-5.226v-.004S1.581 11.051.211 7.526C-.39 5.976 1.31 3.368 4.451.133h129.642z" id="bg"/><path d="M112.758.032c3.503 4.466 9.442 7.187 16.872 12.896 11.725 9.01 6.62 14.75 8.08 16.4a12.998 12.998 0 0 1 3.955 10.694.437.437 0 0 0 .148.373 13.004 13.004 0 0 1 4.445 9.805s.06 4.863-2.058 8.89c-1.46 2.777-.991 6.173 1.252 8.365a14.818 14.818 0 0 1 4.476 10.633c0 6.238-3.836 11.575-9.27 13.78v.004s.893 4.3-5.36 7.826c-6.083 3.429-50.355 19.94-53.205 20.997-.076.028-4.587 3.034-7.03 3.451-2.302.393-6.819.492-8.977-.553l-.003-.001a14.734 14.734 0 0 1-8.493 2.682c-2.974 0-5.899-1.31-8.342-3.157a12.635 12.635 0 0 0-12.48-1.597c-3.538 1.465-7.19 1.075-7.19 1.075-4.532 0-8.52-2.326-10.845-5.85a.242.242 0 0 0-.015-.02c-.24-.294-5.836-7.076-9.66-7.154-3.908-.08-4.886-3.018-3.127-5.956.88-1.469 2.939-1.956 3.594-8.875a.455.455 0 0 0-.2-.418 13.016 13.016 0 0 1-5.557-12.949.433.433 0 0 0-.11-.367A12.989 12.989 0 0 1 .197 72.16c0-4.643 2.425-8.716 6.074-11.022a.437.437 0 0 0 .108-.637 12.981 12.981 0 0 1-2.791-8.06c0-1.86.391-3.626 1.091-5.226v-.004s.278-12.737-1.091-16.263C2.22 27.427 12.745 18.435 25.037 9.046a.412.412 0 0 1 .099-.056c2.226-.887 3.034-4.403 3.056-8.958h84.566z" id="bi"/><path d="M135.086.11c.019.352.098.636.288.851a12.998 12.998 0 0 1 3.955 10.693c-.014.142.04.28.147.374a13.004 13.004 0 0 1 4.445 9.805s.06 4.863-2.058 8.89a7.172 7.172 0 0 0-.47 5.624H.193a13.088 13.088 0 0 1 3.741-3.576.437.437 0 0 0 .108-.637 12.981 12.981 0 0 1-2.791-8.06c0-1.86.391-3.626 1.091-5.226v-.004S2.62 6.107 1.25 2.581c-.252-.648-.1-1.482.391-2.47h133.444z" id="bk"/><path d="M118.206.01c3.156 2.265 7.03 4.597 11.424 7.974 11.725 9.01 6.62 14.748 8.08 16.4a12.998 12.998 0 0 1 3.955 10.693.437.437 0 0 0 .148.373 13.004 13.004 0 0 1 4.445 9.805s.06 4.864-2.058 8.89c-1.46 2.777-.991 6.173 1.252 8.365a14.818 14.818 0 0 1 4.476 10.634c0 6.238-3.836 11.574-9.27 13.78v.003s.893 4.3-5.36 7.826c-6.083 3.43-50.355 19.94-53.205 20.997-.076.028-4.587 3.035-7.03 3.452-2.302.392-6.819.491-8.977-.553l-.003-.002a14.734 14.734 0 0 1-8.493 2.682c-2.974 0-5.899-1.31-8.342-3.157a12.635 12.635 0 0 0-12.48-1.597c-3.538 1.465-7.19 1.076-7.19 1.076-4.532 0-8.52-2.326-10.845-5.85a.242.242 0 0 0-.015-.022c-.24-.292-5.836-7.075-9.66-7.153-3.908-.08-4.886-3.018-3.127-5.956.88-1.468 2.939-1.956 3.594-8.875a.455.455 0 0 0-.2-.417 13.016 13.016 0 0 1-5.557-12.95.433.433 0 0 0-.11-.367 12.989 12.989 0 0 1-3.461-8.846c0-4.643 2.425-8.716 6.074-11.022a.437.437 0 0 0 .108-.637 12.981 12.981 0 0 1-2.791-8.06c0-1.86.391-3.626 1.091-5.225v-.004s.278-12.738-1.091-16.263C2.22 22.482 12.745 13.49 25.037 4.1a.412.412 0 0 1 .099-.055c1.323-.528 2.145-1.985 2.6-4.036h90.47z" id="bm"/><path d="M140.33.089a12.984 12.984 0 0 1 1.076 6.62c-.014.142.04.28.147.374a13.004 13.004 0 0 1 4.445 9.805s.06 4.864-2.058 8.89c-1.46 2.777-.99 6.173 1.252 8.365a14.967 14.967 0 0 1 1.843 2.182H.181c.7-3.573 2.86-6.621 5.83-8.499a.437.437 0 0 0 .108-.637 12.981 12.981 0 0 1-2.79-8.06c0-1.86.39-3.626 1.09-5.225V13.9S4.612 5.082 3.888.089h136.441z" id="bo"/><path d="M125.436.248c1.336.926 2.736 1.93 4.194 3.051 11.725 9.01 6.62 14.749 8.08 16.4a12.998 12.998 0 0 1 3.955 10.693.439.439 0 0 0 .148.374 13.004 13.004 0 0 1 4.445 9.805s.06 4.863-2.058 8.89c-1.46 2.777-.991 6.173 1.252 8.364a14.818 14.818 0 0 1 4.476 10.634c0 6.238-3.836 11.575-9.27 13.78v.004s.893 4.3-5.36 7.825c-6.083 3.43-50.355 19.94-53.205 20.998-.076.027-4.587 3.034-7.03 3.451-2.302.393-6.819.492-8.977-.553l-.003-.002a14.734 14.734 0 0 1-8.493 2.683c-2.974 0-5.899-1.31-8.342-3.157a12.635 12.635 0 0 0-12.48-1.597c-3.538 1.465-7.19 1.075-7.19 1.075-4.532 0-8.52-2.326-10.845-5.85a.242.242 0 0 0-.015-.021c-.24-.293-5.836-7.075-9.66-7.154-3.908-.08-4.886-3.017-3.127-5.955.88-1.469 2.939-1.956 3.594-8.876a.455.455 0 0 0-.2-.417 13.016 13.016 0 0 1-5.557-12.95.433.433 0 0 0-.11-.366A12.989 12.989 0 0 1 .197 62.53c0-4.643 2.425-8.716 6.074-11.022a.437.437 0 0 0 .108-.637 12.981 12.981 0 0 1-2.791-8.06c0-1.86.391-3.626 1.091-5.226v-.004s.278-12.737-1.091-16.263C2.26 17.902 12.133 9.332 23.952.248h101.484z" id="bq"/><path d="M141.724.067a12.937 12.937 0 0 1-.059 1.698.436.436 0 0 0 .148.373 13.004 13.004 0 0 1 4.445 9.805s.06 4.864-2.058 8.89c-1.46 2.777-.991 6.174 1.252 8.365a14.84 14.84 0 0 1 4.055 7.105H.417c-.145-.778-.22-1.58-.22-2.4 0-4.642 2.425-8.715 6.074-11.021a.437.437 0 0 0 .108-.638 12.981 12.981 0 0 1-2.791-8.06c0-1.859.391-3.625 1.091-5.225v-.004s.098-4.498-.11-8.888h137.155z" id="bs"/><path d="M131.884.226c8.779 7.933 4.47 12.995 5.827 14.529a12.998 12.998 0 0 1 3.954 10.693.437.437 0 0 0 .148.373 13.004 13.004 0 0 1 4.445 9.805s.06 4.863-2.058 8.89c-1.46 2.777-.991 6.173 1.252 8.365a14.818 14.818 0 0 1 4.476 10.633c0 6.238-3.836 11.575-9.27 13.78v.004s.893 4.3-5.36 7.826c-6.083 3.429-50.355 19.94-53.205 20.997-.076.028-4.587 3.035-7.03 3.451-2.302.393-6.819.492-8.977-.553l-.003-.001a14.734 14.734 0 0 1-8.493 2.682c-2.974 0-5.899-1.31-8.342-3.157a12.635 12.635 0 0 0-12.48-1.597c-3.538 1.465-7.19 1.075-7.19 1.075-4.532 0-8.52-2.325-10.845-5.85a.242.242 0 0 0-.015-.02c-.24-.294-5.836-7.076-9.66-7.154-3.908-.08-4.886-3.018-3.127-5.956.88-1.469 2.939-1.956 3.594-8.875a.455.455 0 0 0-.2-.417 13.016 13.016 0 0 1-5.557-12.95.433.433 0 0 0-.11-.367 12.989 12.989 0 0 1-3.461-8.846c0-4.643 2.425-8.716 6.074-11.022a.437.437 0 0 0 .108-.637 12.981 12.981 0 0 1-2.791-8.06c0-1.86.391-3.626 1.091-5.226v-.003S4.957 19.9 3.588 16.374C2.504 13.584 8.886 7.36 17.697.226h114.187z" id="bu"/><path d="M144.25.045a12.976 12.976 0 0 1 2.008 6.954s.06 4.863-2.058 8.89c-1.46 2.777-.991 6.173 1.252 8.364a14.818 14.818 0 0 1 4.476 10.634c0 .47-.022.935-.065 1.394H2.446a12.973 12.973 0 0 1-2.25-7.322c0-4.643 2.426-8.716 6.075-11.022a.437.437 0 0 0 .108-.637 12.981 12.981 0 0 1-2.791-8.06c0-1.86.391-3.626 1.091-5.226V4.01s.036-1.668.018-3.965H144.25z" id="bw"/><path d="M136.042.204c2.965 5.114.618 8.418 1.669 9.606a12.998 12.998 0 0 1 3.954 10.693.437.437 0 0 0 .148.373 13.004 13.004 0 0 1 4.445 9.805s.06 4.864-2.058 8.89c-1.46 2.777-.991 6.173 1.252 8.365a14.818 14.818 0 0 1 4.476 10.634c0 6.238-3.836 11.575-9.27 13.78v.003s.893 4.3-5.36 7.826c-6.083 3.43-50.355 19.94-53.205 20.997-.076.028-4.587 3.035-7.03 3.452-2.302.392-6.819.491-8.977-.553l-.003-.002a14.734 14.734 0 0 1-8.493 2.682c-2.974 0-5.899-1.31-8.342-3.157a12.635 12.635 0 0 0-12.48-1.597c-3.538 1.466-7.19 1.076-7.19 1.076-4.532 0-8.52-2.326-10.845-5.85a.242.242 0 0 0-.015-.022c-.24-.292-5.836-7.075-9.66-7.153-3.908-.08-4.886-3.018-3.127-5.956.88-1.468 2.939-1.956 3.594-8.875a.455.455 0 0 0-.2-.417 13.016 13.016 0 0 1-5.557-12.95.433.433 0 0 0-.11-.367 12.989 12.989 0 0 1-3.461-8.846c0-4.643 2.425-8.715 6.074-11.022a.437.437 0 0 0 .108-.637 12.981 12.981 0 0 1-2.791-8.06c0-1.859.391-3.626 1.091-5.225v-.004s.278-12.738-1.091-16.263C2.763 9.306 6.263 5.193 11.867.204h124.175z" id="by"/><path d="M146.1.023c.104.662.158 1.34.158 2.03 0 0 .06 4.864-2.058 8.89-1.46 2.778-.991 6.174 1.252 8.366a14.818 14.818 0 0 1 4.476 10.633c0 2.26-.503 4.4-1.403 6.317H3.617a13.074 13.074 0 0 1 .15-3.032.433.433 0 0 0-.109-.367 12.989 12.989 0 0 1-3.461-8.846c0-4.643 2.425-8.716 6.074-11.022a.437.437 0 0 0 .108-.637 12.981 12.981 0 0 1-2.791-8.06c0-1.497.254-2.934.718-4.272H146.1z" id="bA"/><path d="M137.593.181c.142 2.35-.544 3.936.118 4.684a12.998 12.998 0 0 1 3.954 10.693.439.439 0 0 0 .148.374 13.004 13.004 0 0 1 4.445 9.805s.06 4.863-2.058 8.89c-1.46 2.776-.991 6.173 1.252 8.364a14.818 14.818 0 0 1 4.476 10.634c0 6.238-3.836 11.575-9.27 13.78v.004s.893 4.3-5.36 7.825c-6.083 3.43-50.355 19.94-53.205 20.997-.076.028-4.587 3.035-7.03 3.452-2.302.393-6.819.492-8.977-.553l-.003-.002a14.734 14.734 0 0 1-8.493 2.683c-2.974 0-5.899-1.31-8.342-3.158a12.635 12.635 0 0 0-12.48-1.597c-3.538 1.466-7.19 1.076-7.19 1.076-4.532 0-8.52-2.326-10.845-5.85a.242.242 0 0 0-.015-.021c-.24-.293-5.836-7.076-9.66-7.154-3.908-.08-4.886-3.017-3.127-5.956.88-1.468 2.939-1.956 3.594-8.875a.455.455 0 0 0-.2-.417 13.016 13.016 0 0 1-5.557-12.95.433.433 0 0 0-.11-.367 12.989 12.989 0 0 1-3.461-8.845c0-4.643 2.425-8.716 6.074-11.022a.437.437 0 0 0 .108-.637 12.981 12.981 0 0 1-2.791-8.06c0-1.86.391-3.626 1.091-5.226v-.004S4.957 10.01 3.588 6.485C3.055 5.114 4.326 2.912 6.803.18h130.79z" id="bC"/><path d="M146.029 0c-.247 1.726-.762 3.969-1.83 5.999-1.46 2.777-.99 6.173 1.253 8.365a14.818 14.818 0 0 1 4.476 10.634c0 4.49-1.988 8.514-5.13 11.239H4.949a12.981 12.981 0 0 1-1.36-5.806c0-.733.063-1.45.18-2.149a.433.433 0 0 0-.11-.367 12.989 12.989 0 0 1-3.461-8.846c0-4.643 2.425-8.716 6.074-11.022a.437.437 0 0 0 .108-.637A12.976 12.976 0 0 1 3.604 0h142.425z" id="bE"/><path d="M137.954.16a12.994 12.994 0 0 1 3.711 10.453.439.439 0 0 0 .148.374 13.004 13.004 0 0 1 4.445 9.805s.06 4.863-2.058 8.89c-1.46 2.777-.991 6.173 1.252 8.365a14.818 14.818 0 0 1 4.476 10.633c0 6.238-3.836 11.575-9.27 13.78v.004s.893 4.3-5.36 7.826c-6.083 3.429-50.355 19.94-53.205 20.997-.076.027-4.587 3.034-7.03 3.451-2.302.393-6.819.492-8.977-.553l-.003-.002a14.734 14.734 0 0 1-8.493 2.683c-2.974 0-5.899-1.31-8.342-3.157a12.635 12.635 0 0 0-12.48-1.597c-3.538 1.465-7.19 1.075-7.19 1.075-4.532 0-8.52-2.326-10.845-5.85a.242.242 0 0 0-.015-.021c-.24-.293-5.836-7.075-9.66-7.153-3.908-.08-4.886-3.018-3.127-5.956.88-1.469 2.939-1.956 3.594-8.875a.455.455 0 0 0-.2-.418 13.016 13.016 0 0 1-5.557-12.95.433.433 0 0 0-.11-.366 12.989 12.989 0 0 1-3.461-8.846c0-4.643 2.425-8.716 6.074-11.022a.437.437 0 0 0 .108-.637 12.981 12.981 0 0 1-2.791-8.06c0-1.86.391-3.626 1.091-5.226v-.004S4.957 5.066 3.588 1.54C3.435 1.146 3.43.683 3.56.16h134.393z" id="bG"/><path d="M144.709.239c-.154.362-.323.722-.51 1.076-1.46 2.777-.99 6.173 1.253 8.364a14.818 14.818 0 0 1 4.476 10.634c0 6.238-3.836 11.575-9.27 13.78v.004s.202.975-.261 2.378H9.219a13.015 13.015 0 0 1-5.451-12.877.433.433 0 0 0-.11-.367 12.989 12.989 0 0 1-3.461-8.846c0-4.643 2.425-8.716 6.074-11.022a.437.437 0 0 0 .108-.637A13.053 13.053 0 0 1 4.837.239h139.872z" id="bI"/><path d="M141.02.137a13.012 13.012 0 0 1 .645 5.532.437.437 0 0 0 .148.373 13.004 13.004 0 0 1 4.445 9.805s.06 4.864-2.058 8.89c-1.46 2.777-.991 6.173 1.252 8.365a14.818 14.818 0 0 1 4.476 10.634c0 6.237-3.836 11.574-9.27 13.78v.003s.893 4.3-5.36 7.826c-6.083 3.43-50.355 19.94-53.205 20.997-.076.028-4.587 3.035-7.03 3.452-2.302.392-6.819.491-8.977-.553l-.003-.002a14.734 14.734 0 0 1-8.493 2.682c-2.974 0-5.899-1.31-8.342-3.157a12.635 12.635 0 0 0-12.48-1.597c-3.538 1.465-7.19 1.075-7.19 1.075-4.532 0-8.52-2.325-10.845-5.85a.242.242 0 0 0-.015-.02c-.24-.293-5.836-7.076-9.66-7.154-3.908-.08-4.886-3.018-3.127-5.956.88-1.469 2.939-1.956 3.594-8.875a.455.455 0 0 0-.2-.417 13.016 13.016 0 0 1-5.557-12.95.433.433 0 0 0-.11-.367 12.989 12.989 0 0 1-3.461-8.846c0-4.643 2.425-8.716 6.074-11.022a.437.437 0 0 0 .108-.637 12.981 12.981 0 0 1-2.791-8.06c0-1.86.391-3.626 1.091-5.225v-.004S4.846 5.22 4.285.137h136.736z" id="bK"/><path d="M143.378.217a6.937 6.937 0 0 0 2.074 4.518 14.818 14.818 0 0 1 4.476 10.633c0 6.238-3.836 11.575-9.27 13.78v.004s.807 3.888-4.49 7.3H8.71c.343-1.087.633-2.512.815-4.432a.455.455 0 0 0-.2-.417 13.016 13.016 0 0 1-5.557-12.95.433.433 0 0 0-.11-.367A12.989 12.989 0 0 1 .197 9.44 12.99 12.99 0 0 1 4.02.217h139.357z" id="bM"/><path d="M141.712.115c-.01.204-.027.407-.047.609a.436.436 0 0 0 .148.373 13.004 13.004 0 0 1 4.445 9.805s.06 4.864-2.058 8.89c-1.46 2.777-.991 6.174 1.252 8.365a14.818 14.818 0 0 1 4.476 10.634c0 6.238-3.836 11.575-9.27 13.78v.003s.893 4.3-5.36 7.826c-6.083 3.43-50.355 19.94-53.205 20.997-.076.028-4.587 3.035-7.03 3.452-2.302.393-6.819.491-8.977-.553l-.003-.002a14.734 14.734 0 0 1-8.493 2.682c-2.974 0-5.899-1.31-8.342-3.157a12.635 12.635 0 0 0-12.48-1.597c-3.538 1.466-7.19 1.076-7.19 1.076-4.532 0-8.52-2.326-10.845-5.85a.242.242 0 0 0-.015-.021c-.24-.293-5.836-7.076-9.66-7.154-3.908-.08-4.886-3.017-3.127-5.956.88-1.468 2.939-1.956 3.594-8.875a.455.455 0 0 0-.2-.417 13.016 13.016 0 0 1-5.557-12.95.433.433 0 0 0-.11-.367 12.989 12.989 0 0 1-3.461-8.846c0-4.642 2.425-8.715 6.074-11.021a.437.437 0 0 0 .108-.638 12.981 12.981 0 0 1-2.791-8.06c0-1.859.391-3.625 1.091-5.225v-.004S4.76 4.129 4.615.115h137.097z" id="bO"/><path d="M145.85.195a14.812 14.812 0 0 1 4.078 10.229c0 6.238-3.836 11.575-9.27 13.78v.003s.893 4.3-5.36 7.826c-1.476.832-5.199 2.434-10.032 4.398H5.668c.08-.16.167-.32.263-.48.88-1.47 2.939-1.957 3.594-8.876a.455.455 0 0 0-.2-.417 13.016 13.016 0 0 1-5.557-12.95.433.433 0 0 0-.11-.367A12.989 12.989 0 0 1 .197 4.495c0-1.507.255-2.954.725-4.3H145.85z" id="bQ"/><path d="M144.856.07a12.983 12.983 0 0 1 1.402 5.888s.06 4.863-2.058 8.89c-1.46 2.777-.991 6.173 1.252 8.364a14.818 14.818 0 0 1 4.476 10.634c0 6.238-3.836 11.575-9.27 13.78v.004s.893 4.3-5.36 7.825c-6.083 3.43-50.355 19.94-53.205 20.997-.076.028-4.587 3.035-7.03 3.452-2.302.393-6.819.492-8.977-.553l-.003-.002a14.734 14.734 0 0 1-8.493 2.683c-2.974 0-5.899-1.31-8.342-3.157a12.635 12.635 0 0 0-12.48-1.598c-3.538 1.466-7.19 1.076-7.19 1.076-4.532 0-8.52-2.326-10.845-5.85a.242.242 0 0 0-.015-.021c-.24-.293-5.836-7.076-9.66-7.154-3.908-.08-4.886-3.017-3.127-5.955.88-1.469 2.939-1.956 3.594-8.876a.455.455 0 0 0-.2-.417 13.016 13.016 0 0 1-5.557-12.95.433.433 0 0 0-.11-.367 12.989 12.989 0 0 1-3.461-8.845c0-4.643 2.425-8.716 6.074-11.022a.437.437 0 0 0 .108-.637 12.981 12.981 0 0 1-2.791-8.06c0-1.86.391-3.626 1.091-5.226V2.97s.025-1.17.023-2.9h140.154z" id="bS"/><path d="M148.953.172a14.83 14.83 0 0 1 .975 5.307c0 6.238-3.836 11.575-9.27 13.78v.004s.893 4.3-5.36 7.825c-2.596 1.464-12.148 5.31-22.467 9.32H6.671c-1.84-.998-2.058-3.2-.74-5.403.88-1.468 2.939-1.956 3.594-8.875a.455.455 0 0 0-.2-.417 13.016 13.016 0 0 1-5.557-12.95.433.433 0 0 0-.11-.367A12.986 12.986 0 0 1 .211.172h148.742z" id="bU"/><path d="M146.224.071c.022.311.034.625.034.942 0 0 .06 4.863-2.058 8.89-1.46 2.777-.991 6.173 1.252 8.365a14.818 14.818 0 0 1 4.476 10.633c0 6.238-3.836 11.575-9.27 13.78v.004s.893 4.3-5.36 7.826c-6.083 3.429-50.355 19.94-53.205 20.997-.076.028-4.587 3.034-7.03 3.451-2.302.393-6.819.492-8.977-.553l-.003-.001a14.734 14.734 0 0 1-8.493 2.682c-2.974 0-5.899-1.31-8.342-3.157a12.635 12.635 0 0 0-12.48-1.597c-3.538 1.465-7.19 1.075-7.19 1.075-4.532 0-8.52-2.326-10.845-5.85a.242.242 0 0 0-.015-.02c-.24-.294-5.836-7.076-9.66-7.154-3.908-.08-4.886-3.018-3.127-5.956.88-1.469 2.939-1.956 3.594-8.875a.455.455 0 0 0-.2-.418 13.016 13.016 0 0 1-5.557-12.949.433.433 0 0 0-.11-.367 12.989 12.989 0 0 1-3.461-8.846c0-4.643 2.425-8.716 6.074-11.022a.437.437 0 0 0 .108-.637 12.981 12.981 0 0 1-2.791-8.06c0-1.099.136-2.165.393-3.183h142.243z" id="bW"/><path d="M148.625.15c.003.128.004.256.004.384 0 6.238-3.835 11.575-9.27 13.78v.004s.894 4.3-5.36 7.826c-3.674 2.07-21.279 8.914-35.274 14.242H14.854c-2.022-1.99-4.86-4.324-7.094-4.37-3.909-.08-4.886-3.017-3.127-5.955.88-1.469 2.938-1.956 3.593-8.875a.455.455 0 0 0-.2-.418A13.016 13.016 0 0 1 2.47 3.818a.433.433 0 0 0-.11-.366A13.065 13.065 0 0 1 .134.15h148.492z" id="bY"/><path d="M145.847.049c-.293 1.523-.793 3.284-1.647 4.909-1.46 2.777-.991 6.173 1.252 8.365a14.818 14.818 0 0 1 4.476 10.634c0 6.238-3.836 11.574-9.27 13.78v.003s.893 4.3-5.36 7.826c-6.083 3.43-50.355 19.94-53.205 20.997-.076.028-4.587 3.035-7.03 3.452-2.302.392-6.819.491-8.977-.553l-.003-.002a14.734 14.734 0 0 1-8.493 2.682c-2.974 0-5.899-1.31-8.342-3.157a12.635 12.635 0 0 0-12.48-1.597c-3.538 1.465-7.19 1.076-7.19 1.076-4.532 0-8.52-2.326-10.845-5.85a.242.242 0 0 0-.015-.022c-.24-.292-5.836-7.075-9.66-7.153-3.908-.08-4.886-3.018-3.127-5.956.88-1.468 2.939-1.956 3.594-8.875a.455.455 0 0 0-.2-.417 13.016 13.016 0 0 1-5.557-12.95.433.433 0 0 0-.11-.367 12.989 12.989 0 0 1-3.461-8.846c0-4.643 2.425-8.716 6.074-11.022a.437.437 0 0 0 .108-.637A12.978 12.978 0 0 1 3.703.05h142.144z" id="ca"/><path d="M145.848.128a14.893 14.893 0 0 1-8.565 9.241l-.001.004s.893 4.3-5.36 7.826c-5.015 2.827-35.985 14.545-48.303 19.165H17.1a13.095 13.095 0 0 1-1.757-2.139c-.24-.292-5.836-7.075-9.66-7.153-3.908-.08-4.885-3.018-3.126-5.956.879-1.469 2.938-1.956 3.593-8.875a.455.455 0 0 0-.2-.417A13.016 13.016 0 0 1 .245.128h145.604z" id="cc"/><path d="M144.193.027c-1.452 2.774-.98 6.163 1.259 8.351a14.818 14.818 0 0 1 4.476 10.634c0 6.238-3.836 11.575-9.27 13.78v.003s.893 4.3-5.36 7.826c-6.083 3.43-50.355 19.94-53.205 20.997-.076.028-4.587 3.035-7.03 3.452-2.302.393-6.819.492-8.977-.553l-.003-.002a14.734 14.734 0 0 1-8.493 2.682c-2.974 0-5.899-1.31-8.342-3.157a12.635 12.635 0 0 0-12.48-1.597c-3.538 1.466-7.19 1.076-7.19 1.076-4.532 0-8.52-2.326-10.845-5.85a.242.242 0 0 0-.015-.021c-.24-.293-5.836-7.076-9.66-7.154-3.908-.08-4.886-3.017-3.127-5.956.88-1.468 2.939-1.956 3.594-8.875a.455.455 0 0 0-.2-.417 13.016 13.016 0 0 1-5.557-12.95.433.433 0 0 0-.11-.367 12.989 12.989 0 0 1-3.461-8.846c0-4.642 2.425-8.715 6.074-11.021a.437.437 0 0 0 .108-.637C6.029.98 5.708.515 5.417.027h138.776z" id="ce"/><path d="M142.379.106a14.88 14.88 0 0 1-5.875 4.319l-.001.003s.893 4.3-5.36 7.826c-6.083 3.43-50.354 19.94-53.204 20.997-.064.024-3.294 2.173-5.768 3.091h-9.782a4.99 4.99 0 0 1-.457-.192l-.003-.002c-.094.066-.189.13-.284.194H46.036a19.04 19.04 0 0 1-.942-.669 12.635 12.635 0 0 0-12.48-1.597c-3.539 1.466-7.191 1.076-7.191 1.076-4.531 0-8.519-2.326-10.844-5.85a.242.242 0 0 0-.016-.021c-.24-.293-5.836-7.076-9.66-7.154-3.908-.08-4.885-3.017-3.126-5.956.879-1.468 2.938-1.956 3.593-8.875a.455.455 0 0 0-.2-.417A13.058 13.058 0 0 1 .069.106H142.38z" id="cg"/><path d="M143.536.005a6.91 6.91 0 0 0 1.916 3.428 14.818 14.818 0 0 1 4.476 10.634c0 6.238-3.836 11.575-9.27 13.78v.004s.893 4.3-5.36 7.825c-6.083 3.43-50.355 19.94-53.205 20.998-.076.027-4.587 3.034-7.03 3.451-2.302.393-6.819.492-8.977-.553l-.003-.002a14.734 14.734 0 0 1-8.493 2.683c-2.974 0-5.899-1.31-8.342-3.157a12.635 12.635 0 0 0-12.48-1.597c-3.538 1.465-7.19 1.075-7.19 1.075-4.532 0-8.52-2.326-10.845-5.85a.242.242 0 0 0-.015-.021c-.24-.293-5.836-7.075-9.66-7.154-3.908-.08-4.886-3.017-3.127-5.955.88-1.469 2.939-1.956 3.594-8.876a.455.455 0 0 0-.2-.417 13.016 13.016 0 0 1-5.557-12.95.433.433 0 0 0-.11-.366A12.989 12.989 0 0 1 .197 8.139c0-3.078 1.066-5.906 2.848-8.134h140.491z" id="ci"/><path d="M135.768.084c-.005 1.304-.564 4.496-5.404 7.225-6.082 3.43-50.354 19.94-53.204 20.997-.076.028-4.587 3.035-7.031 3.452-2.302.393-6.818.492-8.976-.553l-.003-.002a14.734 14.734 0 0 1-8.494 2.683c-2.973 0-5.898-1.31-8.341-3.157a12.635 12.635 0 0 0-12.48-1.598c-3.539 1.466-7.191 1.076-7.191 1.076-4.531 0-8.519-2.326-10.844-5.85a.242.242 0 0 0-.016-.021c-.24-.293-5.836-7.076-9.66-7.154-3.908-.08-4.885-3.017-3.126-5.955.879-1.469 2.938-1.956 3.593-8.876a.455.455 0 0 0-.2-.417A13.09 13.09 0 0 1 2.215.084h133.554z" id="ck"/><path d="M146.788.243a14.8 14.8 0 0 1 3.14 9.14c0 6.238-3.836 11.575-9.27 13.78v.003s.893 4.3-5.36 7.826c-6.083 3.43-50.355 19.94-53.205 20.997-.076.028-4.587 3.035-7.03 3.452-2.302.392-6.819.491-8.977-.553l-.003-.002a14.734 14.734 0 0 1-8.493 2.682c-2.974 0-5.899-1.31-8.342-3.157a12.635 12.635 0 0 0-12.48-1.597c-3.538 1.466-7.19 1.076-7.19 1.076-4.532 0-8.52-2.326-10.845-5.85a.242.242 0 0 0-.015-.022c-.24-.292-5.836-7.075-9.66-7.153-3.908-.08-4.886-3.018-3.127-5.956.88-1.468 2.939-1.956 3.594-8.875a.455.455 0 0 0-.2-.417 13.016 13.016 0 0 1-5.557-12.95.433.433 0 0 0-.11-.367A12.989 12.989 0 0 1 .197 3.454c0-1.108.138-2.184.398-3.211h146.193z" id="cm"/><path d="M133.458.062c-.76.77-1.766 1.554-3.094 2.303-6.082 3.429-50.354 19.94-53.204 20.997-.076.028-4.587 3.034-7.031 3.451-2.302.393-6.818.492-8.976-.553l-.003-.001a14.734 14.734 0 0 1-8.494 2.682c-2.973 0-5.898-1.31-8.341-3.157a12.635 12.635 0 0 0-12.48-1.597c-3.539 1.465-7.191 1.075-7.191 1.075-4.531 0-8.519-2.326-10.844-5.85a.242.242 0 0 0-.016-.02c-.24-.294-5.836-7.076-9.66-7.154C.217 12.158-.76 9.22.999 6.282 1.748 5.029 3.357 4.49 4.22.062h129.238z" id="co"/><path d="M149.062.22c.394 1.337.606 2.753.606 4.218 0 6.238-3.835 11.575-9.27 13.78v.004s.893 4.3-5.36 7.825c-6.083 3.43-50.354 19.94-53.204 20.997-.076.028-4.588 3.035-7.032 3.452-2.301.393-6.817.492-8.975-.553-.002 0-.002-.001-.003-.002a14.734 14.734 0 0 1-8.494 2.683c-2.973 0-5.899-1.31-8.341-3.158a12.635 12.635 0 0 0-12.48-1.597c-3.539 1.466-7.191 1.076-7.191 1.076-4.531 0-8.519-2.326-10.845-5.85a.242.242 0 0 0-.015-.021c-.24-.293-5.836-7.076-9.66-7.154-3.908-.08-4.885-3.017-3.126-5.955.879-1.47 2.938-1.957 3.593-8.876a.455.455 0 0 0-.2-.417 13.016 13.016 0 0 1-5.557-12.95.433.433 0 0 0-.11-.367A12.991 12.991 0 0 1 .048.221h149.014z" id="cq"/><path d="M124.634.04c-13.77 5.813-45.092 17.493-47.474 18.377-.076.028-4.587 3.035-7.031 3.452-2.302.392-6.818.491-8.976-.553l-.003-.002a14.734 14.734 0 0 1-8.494 2.682c-2.973 0-5.898-1.31-8.341-3.157a12.635 12.635 0 0 0-12.48-1.597c-3.539 1.465-7.191 1.076-7.191 1.076-4.531 0-8.519-2.326-10.844-5.85a.242.242 0 0 0-.016-.022c-.24-.292-5.836-7.075-9.66-7.153C.217 7.213-.76 4.275.999 1.337 1.27.884 1.653.524 2.073.04h122.561z" id="cs"/><path d="M148.094.199c-.277 5.932-4.025 10.953-9.253 13.074l-.001.004s.893 4.3-5.36 7.826c-6.083 3.429-50.354 19.94-53.204 20.997-.076.027-4.588 3.034-7.031 3.451-2.302.393-6.818.492-8.976-.553-.002 0-.002-.001-.003-.002a14.734 14.734 0 0 1-8.494 2.683c-2.973 0-5.899-1.31-8.341-3.157a12.635 12.635 0 0 0-12.48-1.597C31.412 44.39 27.76 44 27.76 44c-4.531 0-8.519-2.326-10.845-5.85a.242.242 0 0 0-.015-.021c-.24-.293-5.836-7.075-9.66-7.153-3.908-.08-4.885-3.018-3.126-5.956.879-1.469 2.938-1.956 3.593-8.875a.455.455 0 0 0-.2-.418A13.016 13.016 0 0 1 1.95 2.777a.433.433 0 0 0-.11-.366A13.09 13.09 0 0 1 .191.199h147.903z" id="cu"/><path d="M112.188.018C97.335 5.856 78.716 12.799 76.9 13.472c-.076.028-4.587 3.035-7.03 3.452-2.302.393-6.819.492-8.977-.553l-.003-.002a14.734 14.734 0 0 1-8.493 2.682c-2.974 0-5.899-1.31-8.342-3.157a12.635 12.635 0 0 0-12.48-1.597c-3.538 1.466-7.19 1.076-7.19 1.076-4.532 0-8.52-2.326-10.845-5.85a.242.242 0 0 0-.015-.021c-.24-.293-5.836-7.076-9.66-7.154C1.67 2.303.4 1.358.02.018h112.168z" id="cw"/><path d="M145.452.176a14.9 14.9 0 0 1-8.17 8.152v.004s.893 4.3-5.36 7.826c-6.083 3.43-50.354 19.94-53.204 20.997-.076.028-4.587 3.035-7.031 3.452-2.302.392-6.818.491-8.976-.553l-.003-.002a14.734 14.734 0 0 1-8.494 2.682c-2.973 0-5.898-1.31-8.341-3.157a12.635 12.635 0 0 0-12.48-1.597c-3.539 1.465-7.191 1.076-7.191 1.076-4.531 0-8.519-2.326-10.844-5.85a.242.242 0 0 0-.016-.022c-.24-.292-5.836-7.075-9.66-7.153-3.908-.08-4.885-3.018-3.126-5.956.879-1.469 2.938-1.956 3.593-8.875a.455.455 0 0 0-.2-.417A13.016 13.016 0 0 1 .215.176h145.238z" id="cy"/><path d="M90.657.256a2707.02 2707.02 0 0 1-22.585 8.532c-.076.028-4.587 3.035-7.031 3.451-2.302.393-6.818.492-8.976-.553l-.003-.001a14.734 14.734 0 0 1-8.493 2.682c-2.974 0-5.9-1.31-8.342-3.157a12.635 12.635 0 0 0-12.48-1.597c-3.538 1.465-7.19 1.075-7.19 1.075-4.532 0-8.52-2.325-10.845-5.85a.242.242 0 0 0-.015-.02C4.556 4.644 2.565 2.231.172.255h90.485z" id="cA"/><path d="M141.126.154a14.855 14.855 0 0 1-4.882 3.23v.003s.893 4.3-5.36 7.826c-6.083 3.43-50.355 19.94-53.205 20.997-.076.028-4.587 3.035-7.03 3.452-2.302.393-6.819.491-8.977-.553l-.003-.002a14.734 14.734 0 0 1-8.493 2.682c-2.974 0-5.9-1.31-8.342-3.157a12.635 12.635 0 0 0-12.48-1.597c-3.538 1.466-7.19 1.076-7.19 1.076-4.532 0-8.52-2.326-10.845-5.85a.242.242 0 0 0-.015-.021c-.24-.293-5.836-7.076-9.66-7.154-3.908-.08-4.886-3.017-3.127-5.956.88-1.468 2.939-1.956 3.593-8.875a.455.455 0 0 0-.199-.417A13.074 13.074 0 0 1 .216.154h140.91z" id="cC"/><path d="M72.767.234a2314.96 2314.96 0 0 1-9.628 3.61c-.076.027-4.588 3.034-7.031 3.45-2.302.393-6.818.492-8.976-.552-.002 0-.002-.002-.003-.002a14.734 14.734 0 0 1-8.494 2.682c-2.973 0-5.899-1.31-8.341-3.157a12.635 12.635 0 0 0-12.48-1.597c-3.539 1.466-7.191 1.076-7.191 1.076C6.239 5.744 2.364 3.567.01.234h72.756z" id="cE"/><path d="M135.649.132c-.33 1.576-1.493 3.999-5.285 6.136-6.082 3.43-50.354 19.94-53.204 20.997-.076.028-4.587 3.035-7.031 3.452-2.302.393-6.818.492-8.976-.553l-.003-.002a14.734 14.734 0 0 1-8.494 2.683c-2.973 0-5.898-1.31-8.341-3.157a12.635 12.635 0 0 0-12.48-1.598c-3.539 1.466-7.191 1.076-7.191 1.076-4.531 0-8.519-2.326-10.844-5.85a.242.242 0 0 0-.016-.021c-.24-.293-5.836-7.076-9.66-7.154-3.908-.08-4.885-3.017-3.126-5.955.879-1.469 2.938-1.956 3.593-8.876a.455.455 0 0 0-.2-.417c-.35-.237-.689-.491-1.014-.76h132.272z" id="cG"/><path d="M54.23.212c-1.52.875-3.515 1.906-4.873 2.138-2.302.393-6.818.492-8.976-.553l-.003-.002a14.734 14.734 0 0 1-8.494 2.683c-2.973 0-5.898-1.31-8.341-3.157A12.864 12.864 0 0 0 21.799.21h32.43zm-44.565 0c-3.04.88-5.793.587-5.793.587A12.98 12.98 0 0 1 .003.212h9.662z" id="cI"/><path d="M132.216.11a15.79 15.79 0 0 1-1.852 1.214C124.282 4.753 80.01 21.264 77.16 22.32c-.076.028-4.587 3.035-7.031 3.451-2.302.393-6.818.492-8.976-.553l-.003-.001a14.734 14.734 0 0 1-8.494 2.682c-2.973 0-5.898-1.31-8.341-3.157a12.635 12.635 0 0 0-12.48-1.597c-3.539 1.465-7.191 1.075-7.191 1.075-4.531 0-8.519-2.326-10.844-5.85a.242.242 0 0 0-.016-.02c-.24-.294-5.836-7.076-9.66-7.154C.217 11.117-.76 8.179.999 5.24c.683-1.142 2.08-1.69 2.976-5.13h128.242z" id="cK"/><path d="M122.017.088C107.26 6.156 79.4 16.545 77.16 17.376c-.076.028-4.587 3.035-7.031 3.452-2.302.392-6.818.491-8.976-.553l-.003-.002a14.734 14.734 0 0 1-8.494 2.682c-2.973 0-5.898-1.31-8.341-3.157a12.635 12.635 0 0 0-12.48-1.597c-3.539 1.465-7.191 1.076-7.191 1.076-4.531 0-8.519-2.326-10.844-5.85a.242.242 0 0 0-.016-.022c-.24-.292-5.836-7.075-9.66-7.153C.217 6.172-.76 3.234.999.296c.043-.071.088-.14.136-.208h120.883z" id="cM"/><path d="M108.887.066c-14.3 5.58-30.802 11.733-32.506 12.365-.076.028-4.587 3.035-7.031 3.452-2.302.393-6.818.492-8.976-.553l-.003-.002a14.734 14.734 0 0 1-8.494 2.683c-2.973 0-5.898-1.31-8.341-3.158a12.635 12.635 0 0 0-12.48-1.597c-3.538 1.466-7.191 1.076-7.191 1.076-4.531 0-8.519-2.326-10.844-5.85a.242.242 0 0 0-.016-.021c-.24-.293-5.836-7.076-9.66-7.154C1.813 1.276.73.805.088.066h108.8z" id="cO"/><path d="M86.51.044a2701.753 2701.753 0 0 1-19.736 7.443c-.076.027-4.587 3.034-7.031 3.451-2.302.393-6.818.492-8.976-.553l-.003-.002a14.734 14.734 0 0 1-8.494 2.683c-2.973 0-5.898-1.31-8.341-3.157a12.635 12.635 0 0 0-12.48-1.597c-3.539 1.465-7.191 1.075-7.191 1.075-4.531 0-8.519-2.326-10.844-5.85A38.737 38.737 0 0 0 .114.044H86.51z" id="cQ"/><path d="M69.095.022c-3.621 1.36-6.126 2.294-6.735 2.52-.076.028-4.587 3.035-7.031 3.452-2.302.392-6.818.491-8.976-.554l-.003-.001a14.734 14.734 0 0 1-8.494 2.682c-2.973 0-5.898-1.31-8.341-3.157a12.635 12.635 0 0 0-12.48-1.597c-3.539 1.465-7.191 1.075-7.191 1.075-3.886 0-7.372-1.71-9.753-4.42h69.004z" id="cS"/><path d="M28.83.26c-1.017.497-2.04.912-2.842 1.05-2.301.392-6.818.49-8.976-.554L17.01.754a14.734 14.734 0 0 1-8.493 2.683c-2.974 0-5.9-1.31-8.343-3.157A12.805 12.805 0 0 0 .148.26H28.83z" id="cU"/></defs><g fill="none" fill-rule="evenodd"><path d="M144.979 94.913c-1.46 2.777-.99 6.173 1.252 8.365a14.82 14.82 0 0 1 4.476 10.634c0 6.237-3.835 11.574-9.27 13.78l-.001.003s.894 4.3-5.36 7.826c-6.082 3.429-50.354 19.94-53.204 20.997-.076.028-4.587 3.035-7.03 3.452-2.303.392-6.819.491-8.977-.553a.02.02 0 0 1-.003-.002 14.733 14.733 0 0 1-8.493 2.682c-2.974 0-5.899-1.31-8.342-3.157a12.635 12.635 0 0 0-12.48-1.597c-3.538 1.466-7.19 1.076-7.19 1.076-4.532 0-8.52-2.326-10.845-5.85a.208.208 0 0 0-.015-.022c-.24-.293-5.836-7.075-9.66-7.153-3.908-.08-4.886-3.018-3.127-5.956.88-1.469 2.939-1.956 3.593-8.875a.455.455 0 0 0-.199-.417 13.016 13.016 0 0 1-5.557-12.95.434.434 0 0 0-.11-.367 12.989 12.989 0 0 1-3.461-8.846c0-4.643 2.425-8.716 6.074-11.022a.437.437 0 0 0 .108-.637 12.983 12.983 0 0 1-2.791-8.06c0-1.86.391-3.625 1.091-5.225v-.004s.278-12.738-1.091-16.264C2.999 63.25 13.524 54.258 25.816 44.87a.432.432 0 0 1 .099-.056c7.137-2.845-.304-32.719-1.469-37.216a.438.438 0 0 1 .437-.547c5.805.163 53.417 1.263 79.173-5.794a.428.428 0 0 1 .51.25c.842 2.018 4.993 12.504 5.52 23.937.586 12.732 8.598 14.299 20.323 23.309 11.725 9.01 6.62 14.748 8.08 16.4a12.998 12.998 0 0 1 3.955 10.693.436.436 0 0 0 .148.373 13.003 13.003 0 0 1 4.445 9.805s.06 4.864-2.058 8.89" fill="#EAE406"/><g transform="translate(95.551 1.21)"><mask id="b" fill="#fff"><use xlink:href="#a"/></mask><path d="M101.215 1.957c-.05 0-.1-.014-.144-.044l-214.942-144.006a.26.26 0 0 1 .288-.433L101.36 1.48a.26.26 0 0 1-.145.477" fill="#93820A" mask="url(#b)"/></g><g transform="translate(24.407 1.21)"><mask id="d" fill="#fff"><use xlink:href="#c"/></mask><path d="M172.36 6.88c-.05 0-.1-.015-.145-.044L-42.727-137.171a.26.26 0 0 1 .289-.432L172.504 6.403a.26.26 0 0 1-.145.477" fill="#93820A" mask="url(#d)"/></g><g transform="translate(24.407 1.21)"><mask id="f" fill="#fff"><use xlink:href="#e"/></mask><path d="M172.36 11.802a.26.26 0 0 1-.145-.044L-42.727-132.248a.26.26 0 0 1 .289-.433L172.504 11.325a.26.26 0 0 1-.145.477" fill="#93820A" mask="url(#f)"/></g><g transform="translate(24.407 1.21)"><mask id="h" fill="#fff"><use xlink:href="#g"/></mask><path d="M172.36 16.725a.26.26 0 0 1-.145-.044L-42.727-127.325a.26.26 0 0 1 .289-.433L172.504 16.248a.26.26 0 0 1-.145.477" fill="#93820A" mask="url(#h)"/></g><g transform="translate(24.407 1.21)"><mask id="j" fill="#fff"><use xlink:href="#i"/></mask><path d="M172.36 21.648a.26.26 0 0 1-.145-.044L-42.727-122.403a.26.26 0 0 1 .289-.432L172.504 21.17a.26.26 0 0 1-.145.477" fill="#93820A" mask="url(#j)"/></g><g transform="translate(24.407 1.21)"><mask id="l" fill="#fff"><use xlink:href="#k"/></mask><path d="M172.36 26.57a.26.26 0 0 1-.145-.044L-42.727-117.48a.26.26 0 0 1 .289-.433L172.504 26.093a.26.26 0 0 1-.145.477" fill="#93820A" mask="url(#l)"/></g><g transform="translate(24.407 1.21)"><mask id="n" fill="#fff"><use xlink:href="#m"/></mask><path d="M172.36 31.493a.26.26 0 0 1-.145-.044L-42.727-112.557a.26.26 0 0 1 .289-.433L172.504 31.016a.26.26 0 0 1-.145.477" fill="#93820A" mask="url(#n)"/></g><g transform="translate(24.407 1.21)"><mask id="p" fill="#fff"><use xlink:href="#o"/></mask><path d="M172.36 36.415a.26.26 0 0 1-.145-.043L-42.727-107.635a.26.26 0 0 1 .289-.433L172.504 35.94a.26.26 0 0 1-.145.476" fill="#93820A" mask="url(#p)"/></g><g transform="translate(24.407 1.21)"><mask id="r" fill="#fff"><use xlink:href="#q"/></mask><path d="M172.36 41.338a.26.26 0 0 1-.145-.044L-42.727-102.712a.26.26 0 0 1 .289-.433L172.504 40.861a.26.26 0 0 1-.145.477" fill="#93820A" mask="url(#r)"/></g><g transform="translate(22.33 1.21)"><mask id="t" fill="#fff"><use xlink:href="#s"/></mask><path d="M174.437 46.26a.26.26 0 0 1-.145-.043L-40.65-97.79a.26.26 0 0 1 .289-.432L174.58 45.784a.26.26 0 0 1-.144.477" fill="#93820A" mask="url(#t)"/></g><g transform="translate(16.098 1.21)"><mask id="v" fill="#fff"><use xlink:href="#u"/></mask><path d="M180.668 51.183a.26.26 0 0 1-.144-.044L-34.418-92.867a.26.26 0 0 1 .288-.433L180.813 50.706a.26.26 0 0 1-.145.477" fill="#93820A" mask="url(#v)"/></g><g transform="translate(10.646 1.21)"><mask id="x" fill="#fff"><use xlink:href="#w"/></mask><path d="M186.12 56.106a.26.26 0 0 1-.143-.044L-28.965-87.944a.26.26 0 0 1 .288-.433L186.265 55.629a.26.26 0 0 1-.144.477" fill="#93820A" mask="url(#x)"/></g><g transform="translate(5.972 1.21)"><mask id="z" fill="#fff"><use xlink:href="#y"/></mask><path d="M190.795 61.028a.26.26 0 0 1-.145-.043L-24.292-83.022a.26.26 0 0 1 .289-.433L190.939 60.552a.26.26 0 0 1-.144.476" fill="#93820A" mask="url(#z)"/></g><g transform="translate(4.154 1.21)"><mask id="B" fill="#fff"><use xlink:href="#A"/></mask><path d="M192.612 65.951a.26.26 0 0 1-.144-.044L-22.474-78.099a.26.26 0 0 1 .288-.433L192.757 65.474a.26.26 0 0 1-.145.477" fill="#93820A" mask="url(#B)"/></g><g transform="translate(4.154 1.21)"><mask id="D" fill="#fff"><use xlink:href="#C"/></mask><path d="M192.612 70.874a.26.26 0 0 1-.144-.044L-22.474-73.176a.26.26 0 0 1 .288-.433L192.757 70.397a.26.26 0 0 1-.145.477" fill="#93820A" mask="url(#D)"/></g><g transform="translate(4.154 1.21)"><mask id="F" fill="#fff"><use xlink:href="#E"/></mask><path d="M192.612 75.796a.26.26 0 0 1-.144-.043L-22.474-68.254a.26.26 0 0 1 .288-.433L192.757 75.32a.26.26 0 0 1-.145.476" fill="#93820A" mask="url(#F)"/></g><g transform="translate(4.154 1.21)"><mask id="H" fill="#fff"><use xlink:href="#G"/></mask><path d="M192.612 80.719a.26.26 0 0 1-.144-.044L-22.474-63.33a.26.26 0 0 1 .288-.433L192.757 80.242a.26.26 0 0 1-.145.477" fill="#93820A" mask="url(#H)"/></g><g transform="translate(100.744 1.21)"><mask id="J" fill="#fff"><use xlink:href="#I"/></mask><path d="M-118.92.875a.26.26 0 0 1-.05-.516L60.337-35.356a.26.26 0 0 1 .101.51L-118.868.87a.263.263 0 0 1-.051.005" fill="#93820A" mask="url(#J)"/></g><g transform="translate(4.154 1.21)"><mask id="L" fill="#fff"><use xlink:href="#K"/></mask><path d="M192.612 85.642a.26.26 0 0 1-.144-.044L-22.474-58.41a.26.26 0 0 1 .288-.432L192.757 85.165a.26.26 0 0 1-.145.477" fill="#93820A" mask="url(#L)"/></g><g transform="translate(52.19 1.21)"><mask id="N" fill="#fff"><use xlink:href="#M"/></mask><path d="M-70.366 5.798a.26.26 0 0 1-.05-.516l179.31-35.715a.26.26 0 0 1 .101.51L-70.316 5.793a.263.263 0 0 1-.05.005" fill="#93820A" mask="url(#N)"/></g><g transform="translate(4.154 1.21)"><mask id="P" fill="#fff"><use xlink:href="#O"/></mask><path d="M192.612 90.564a.26.26 0 0 1-.144-.043L-22.474-53.486a.26.26 0 0 1 .288-.433L192.757 90.087a.26.26 0 0 1-.145.477" fill="#93820A" mask="url(#P)"/></g><g transform="translate(24.407 1.21)"><mask id="R" fill="#fff"><use xlink:href="#Q"/></mask><path d="M-42.583 10.72a.26.26 0 0 1-.05-.516L136.676-25.51a.26.26 0 1 1 .101.51L-42.532 10.716a.263.263 0 0 1-.05.005" fill="#93820A" mask="url(#R)"/></g><g transform="translate(4.154 1.21)"><mask id="T" fill="#fff"><use xlink:href="#S"/></mask><path d="M192.612 95.487c-.05 0-.1-.014-.144-.044L-22.474-48.563a.26.26 0 0 1 .288-.433L192.757 95.01a.26.26 0 0 1-.145.477" fill="#93820A" mask="url(#T)"/></g><g transform="translate(24.407 1.21)"><mask id="V" fill="#fff"><use xlink:href="#U"/></mask><path d="M-42.583 15.643a.26.26 0 0 1-.05-.516l179.309-35.715a.26.26 0 0 1 .101.51L-42.532 15.638a.263.263 0 0 1-.05.005" fill="#93820A" mask="url(#V)"/></g><g transform="translate(2.597 1.21)"><mask id="X" fill="#fff"><use xlink:href="#W"/></mask><path d="M194.17 100.41c-.05 0-.1-.015-.144-.044L-20.916-43.641a.26.26 0 0 1 .288-.433L194.315 99.933a.26.26 0 0 1-.145.476" fill="#93820A" mask="url(#X)"/></g><g transform="translate(24.407 1.21)"><mask id="Z" fill="#fff"><use xlink:href="#Y"/></mask><path d="M-42.583 20.565a.26.26 0 0 1-.05-.516l179.309-35.715a.26.26 0 0 1 .101.51L-42.532 20.56a.263.263 0 0 1-.05.005" fill="#93820A" mask="url(#Z)"/></g><g transform="translate(1.039 1.21)"><mask id="ab" fill="#fff"><use xlink:href="#aa"/></mask><path d="M195.728 105.332c-.05 0-.1-.014-.144-.044L-19.358-38.718a.26.26 0 0 1 .288-.433l214.943 144.006a.26.26 0 0 1-.145.477" fill="#93820A" mask="url(#ab)"/></g><g transform="translate(24.407 1.21)"><mask id="ad" fill="#fff"><use xlink:href="#ac"/></mask><path d="M-42.583 25.488a.26.26 0 0 1-.05-.516l179.309-35.715a.26.26 0 0 1 .101.51L-42.532 25.484a.263.263 0 0 1-.05.005" fill="#93820A" mask="url(#ad)"/></g><g transform="translate(.779 1.21)"><mask id="af" fill="#fff"><use xlink:href="#ae"/></mask><path d="M195.988 110.255c-.05 0-.1-.015-.145-.044L-19.099-33.796a.26.26 0 0 1 .289-.432l214.942 144.006a.26.26 0 0 1-.144.477" fill="#93820A" mask="url(#af)"/></g><g transform="translate(24.407 1.21)"><mask id="ah" fill="#fff"><use xlink:href="#ag"/></mask><path d="M-42.583 30.41a.26.26 0 0 1-.05-.516L136.676-5.819a.26.26 0 0 1 .101.51L-42.532 30.406a.263.263 0 0 1-.05.005" fill="#93820A" mask="url(#ah)"/></g><g transform="translate(.779 1.21)"><mask id="aj" fill="#fff"><use xlink:href="#ai"/></mask><path d="M195.988 115.177c-.05 0-.1-.014-.145-.043L-19.099-28.873a.26.26 0 0 1 .289-.433l214.942 144.007a.26.26 0 0 1-.144.476" fill="#93820A" mask="url(#aj)"/></g><g transform="translate(24.407 1.21)"><mask id="al" fill="#fff"><use xlink:href="#ak"/></mask><path d="M-42.583 35.333a.26.26 0 0 1-.05-.516L136.676-.897a.26.26 0 1 1 .101.51L-42.532 35.329a.263.263 0 0 1-.05.005" fill="#93820A" mask="url(#al)"/></g><g transform="translate(.779 1.21)"><mask id="an" fill="#fff"><use xlink:href="#am"/></mask><path d="M195.988 120.1a.26.26 0 0 1-.145-.044L-19.099-23.95a.26.26 0 0 1 .289-.433l214.942 144.006a.26.26 0 0 1-.144.477" fill="#93820A" mask="url(#an)"/></g><g transform="translate(24.407 5.114)"><mask id="ap" fill="#fff"><use xlink:href="#ao"/></mask><path d="M-42.583 36.352a.26.26 0 0 1-.05-.516L136.676.122a.26.26 0 0 1 .101.51L-42.532 36.348a.263.263 0 0 1-.05.005" fill="#93820A" mask="url(#ap)"/></g><g transform="translate(.779 1.21)"><mask id="ar" fill="#fff"><use xlink:href="#aq"/></mask><path d="M195.988 125.023a.26.26 0 0 1-.145-.044L-19.099-19.028a.26.26 0 0 1 .289-.432l214.942 144.006a.26.26 0 0 1-.144.477" fill="#93820A" mask="url(#ar)"/></g><g transform="translate(23.628 10.059)"><mask id="at" fill="#fff"><use xlink:href="#as"/></mask><path d="M-41.804 36.33a.26.26 0 0 1-.05-.516L137.455.1a.26.26 0 0 1 .101.51l-179.31 35.716a.263.263 0 0 1-.05.005" fill="#93820A" mask="url(#at)"/></g><g transform="translate(.779 1.21)"><mask id="av" fill="#fff"><use xlink:href="#au"/></mask><path d="M195.988 129.945a.26.26 0 0 1-.145-.043L-19.099-14.105a.26.26 0 0 1 .289-.433l214.942 144.006a.26.26 0 0 1-.144.477" fill="#93820A" mask="url(#av)"/></g><g transform="translate(17.397 15.003)"><mask id="ax" fill="#fff"><use xlink:href="#aw"/></mask><path d="M-35.572 36.308a.26.26 0 0 1-.05-.516L143.685.077a.26.26 0 0 1 .101.51L-35.52 36.304a.263.263 0 0 1-.051.005" fill="#93820A" mask="url(#ax)"/></g><g transform="translate(.779 1.21)"><mask id="az" fill="#fff"><use xlink:href="#ay"/></mask><path d="M195.988 134.868a.26.26 0 0 1-.145-.044L-19.099-9.182a.26.26 0 0 1 .289-.433L196.132 134.39a.26.26 0 0 1-.144.477" fill="#93820A" mask="url(#az)"/></g><g transform="translate(11.684 19.948)"><mask id="aB" fill="#fff"><use xlink:href="#aA"/></mask><path d="M-29.86 36.286a.26.26 0 0 1-.05-.516L149.399.055a.26.26 0 0 1 .101.51L-29.81 36.281a.263.263 0 0 1-.05.005" fill="#93820A" mask="url(#aB)"/></g><g transform="translate(.779 1.21)"><mask id="aD" fill="#fff"><use xlink:href="#aC"/></mask><path d="M195.988 139.79a.26.26 0 0 1-.145-.043L-19.099-4.26a.26.26 0 0 1 .289-.433l214.942 144.007a.26.26 0 0 1-.144.476" fill="#93820A" mask="url(#aD)"/></g><g transform="translate(6.75 24.893)"><mask id="aF" fill="#fff"><use xlink:href="#aE"/></mask><path d="M-24.927 36.264a.26.26 0 0 1-.05-.516L154.332.033a.26.26 0 0 1 .101.51L-24.876 36.26a.263.263 0 0 1-.05.005" fill="#93820A" mask="url(#aF)"/></g><g transform="translate(.779 1.21)"><mask id="aH" fill="#fff"><use xlink:href="#aG"/></mask><path d="M195.988 144.713a.26.26 0 0 1-.145-.044L-19.099.663A.26.26 0 0 1-18.81.23l214.942 144.006a.26.26 0 0 1-.144.477" fill="#93820A" mask="url(#aH)"/></g><g transform="translate(4.154 29.838)"><mask id="aJ" fill="#fff"><use xlink:href="#aI"/></mask><path d="M-22.33 36.242a.26.26 0 0 1-.05-.516L156.927.011a.26.26 0 0 1 .101.51L-22.278 36.237a.263.263 0 0 1-.051.005" fill="#93820A" mask="url(#aJ)"/></g><g transform="translate(.779 6.155)"><mask id="aL" fill="#fff"><use xlink:href="#aK"/></mask><path d="M195.988 144.691a.26.26 0 0 1-.145-.044L-19.099.641a.26.26 0 0 1 .289-.433l214.942 144.006a.26.26 0 0 1-.144.477" fill="#93820A" mask="url(#aL)"/></g><g transform="translate(4.154 34.522)"><mask id="aN" fill="#fff"><use xlink:href="#aM"/></mask><path d="M-22.33 36.48a.26.26 0 0 1-.05-.516L156.927.25a.26.26 0 0 1 .101.51L-22.278 36.475a.263.263 0 0 1-.051.005" fill="#93820A" mask="url(#aN)"/></g><g transform="translate(.779 11.1)"><mask id="aP" fill="#fff"><use xlink:href="#aO"/></mask><path d="M195.988 144.669a.26.26 0 0 1-.145-.044L-19.099.62a.26.26 0 0 1 .289-.433l214.942 144.006a.26.26 0 0 1-.144.477" fill="#93820A" mask="url(#aP)"/></g><g transform="translate(4.154 39.467)"><mask id="aR" fill="#fff"><use xlink:href="#aQ"/></mask><path d="M-22.33 36.458a.26.26 0 0 1-.05-.516L156.927.227a.26.26 0 0 1 .101.51L-22.278 36.453a.263.263 0 0 1-.051.005" fill="#93820A" mask="url(#aR)"/></g><g transform="translate(.779 16.044)"><mask id="aT" fill="#fff"><use xlink:href="#aS"/></mask><path d="M195.988 144.647a.26.26 0 0 1-.145-.044L-19.099.597a.26.26 0 0 1 .289-.433L196.132 144.17a.26.26 0 0 1-.144.477" fill="#93820A" mask="url(#aT)"/></g><g transform="translate(4.154 44.411)"><mask id="aV" fill="#fff"><use xlink:href="#aU"/></mask><path d="M-22.33 36.436a.26.26 0 0 1-.05-.516L156.927.205a.26.26 0 0 1 .101.51L-22.278 36.431a.263.263 0 0 1-.051.005" fill="#93820A" mask="url(#aV)"/></g><g transform="translate(.779 20.99)"><mask id="aX" fill="#fff"><use xlink:href="#aW"/></mask><path d="M195.988 144.625a.26.26 0 0 1-.145-.044L-19.099.574a.26.26 0 0 1 .289-.432l214.942 144.006a.26.26 0 0 1-.144.477" fill="#93820A" mask="url(#aX)"/></g><g transform="translate(4.154 49.356)"><mask id="aZ" fill="#fff"><use xlink:href="#aY"/></mask><path d="M-22.33 36.413a.26.26 0 0 1-.05-.516L156.927.183a.26.26 0 0 1 .101.51L-22.278 36.41a.263.263 0 0 1-.051.004" fill="#93820A" mask="url(#aZ)"/></g><g transform="translate(.779 25.934)"><mask id="bb" fill="#fff"><use xlink:href="#ba"/></mask><path d="M195.988 144.603a.26.26 0 0 1-.145-.044L-19.099.552A.26.26 0 0 1-18.81.12l214.942 144.006a.26.26 0 0 1-.144.477" fill="#93820A" mask="url(#bb)"/></g><g transform="translate(4.154 54.3)"><mask id="bd" fill="#fff"><use xlink:href="#bc"/></mask><path d="M-22.33 36.391a.26.26 0 0 1-.05-.516L156.927.16a.26.26 0 0 1 .101.51L-22.278 36.387a.263.263 0 0 1-.051.005" fill="#93820A" mask="url(#bd)"/></g><g transform="translate(.779 30.878)"><mask id="bf" fill="#fff"><use xlink:href="#be"/></mask><path d="M195.988 144.58a.26.26 0 0 1-.145-.043L-19.099.53a.26.26 0 0 1 .289-.432l214.942 144.006a.26.26 0 0 1-.144.477" fill="#93820A" mask="url(#bf)"/></g><g transform="translate(4.154 59.246)"><mask id="bh" fill="#fff"><use xlink:href="#bg"/></mask><path d="M-22.33 36.37a.26.26 0 0 1-.05-.516L156.927.138a.26.26 0 0 1 .101.51L-22.278 36.365a.263.263 0 0 1-.051.005" fill="#93820A" mask="url(#bh)"/></g><g transform="translate(.779 35.823)"><mask id="bj" fill="#fff"><use xlink:href="#bi"/></mask><path d="M195.988 144.558a.26.26 0 0 1-.145-.043L-19.099.508a.26.26 0 0 1 .289-.433l214.942 144.007a.26.26 0 0 1-.144.476" fill="#93820A" mask="url(#bj)"/></g><g transform="translate(3.116 64.19)"><mask id="bl" fill="#fff"><use xlink:href="#bk"/></mask><path d="M-21.292 36.347a.26.26 0 0 1-.05-.516L157.968.117a.26.26 0 0 1 .101.51l-179.31 35.716a.263.263 0 0 1-.05.005" fill="#93820A" mask="url(#bl)"/></g><g transform="translate(.779 40.768)"><mask id="bn" fill="#fff"><use xlink:href="#bm"/></mask><path d="M195.988 144.536a.26.26 0 0 1-.145-.043L-19.099.486a.26.26 0 0 1 .289-.433L196.132 144.06a.26.26 0 0 1-.144.476" fill="#93820A" mask="url(#bn)"/></g><g transform="translate(1.039 69.135)"><mask id="bp" fill="#fff"><use xlink:href="#bo"/></mask><path d="M-19.214 36.325a.26.26 0 0 1-.05-.516L160.043.095a.26.26 0 0 1 .101.51L-19.162 36.32a.263.263 0 0 1-.051.005" fill="#93820A" mask="url(#bp)"/></g><g transform="translate(.779 45.452)"><mask id="br" fill="#fff"><use xlink:href="#bq"/></mask><path d="M195.988 144.774a.26.26 0 0 1-.145-.043L-19.099.724a.26.26 0 0 1 .289-.433l214.942 144.007a.26.26 0 0 1-.144.476" fill="#93820A" mask="url(#br)"/></g><g transform="translate(.779 74.08)"><mask id="bt" fill="#fff"><use xlink:href="#bs"/></mask><path d="M-18.955 36.303a.26.26 0 0 1-.05-.516L160.304.072a.26.26 0 0 1 .101.51L-18.904 36.299a.263.263 0 0 1-.05.005" fill="#93820A" mask="url(#bt)"/></g><g transform="translate(.779 50.397)"><mask id="bv" fill="#fff"><use xlink:href="#bu"/></mask><path d="M195.988 144.752a.26.26 0 0 1-.145-.043L-19.099.702A.26.26 0 0 1-18.81.27l214.942 144.007a.26.26 0 0 1-.144.476" fill="#93820A" mask="url(#bv)"/></g><g transform="translate(.779 79.024)"><mask id="bx" fill="#fff"><use xlink:href="#bw"/></mask><path d="M-18.955 36.28a.26.26 0 0 1-.05-.516L160.304.051a.26.26 0 0 1 .101.51L-18.904 36.276a.263.263 0 0 1-.05.005" fill="#93820A" mask="url(#bx)"/></g><g transform="translate(.779 55.342)"><mask id="bz" fill="#fff"><use xlink:href="#by"/></mask><path d="M195.988 144.73c-.05 0-.1-.014-.145-.043L-19.099.68a.26.26 0 0 1 .289-.433l214.942 144.006a.26.26 0 0 1-.144.477" fill="#93820A" mask="url(#bz)"/></g><g transform="translate(.779 83.97)"><mask id="bB" fill="#fff"><use xlink:href="#bA"/></mask><path d="M-18.955 36.259a.26.26 0 0 1-.05-.516L160.304.028a.26.26 0 0 1 .101.51L-18.904 36.254a.263.263 0 0 1-.05.005" fill="#93820A" mask="url(#bB)"/></g><g transform="translate(.779 60.287)"><mask id="bD" fill="#fff"><use xlink:href="#bC"/></mask><path d="M195.988 144.708a.26.26 0 0 1-.145-.044L-19.099.658a.26.26 0 0 1 .289-.433l214.942 144.006a.26.26 0 0 1-.144.477" fill="#93820A" mask="url(#bD)"/></g><g transform="translate(.779 88.914)"><mask id="bF" fill="#fff"><use xlink:href="#bE"/></mask><path d="M-18.955 36.237a.26.26 0 0 1-.05-.516L160.304.006a.26.26 0 1 1 .101.51L-18.904 36.232a.263.263 0 0 1-.05.005" fill="#93820A" mask="url(#bF)"/></g><g transform="translate(.779 65.231)"><mask id="bH" fill="#fff"><use xlink:href="#bG"/></mask><path d="M195.988 144.686a.26.26 0 0 1-.145-.044L-19.099.636a.26.26 0 0 1 .289-.433l214.942 144.006a.26.26 0 0 1-.144.477" fill="#93820A" mask="url(#bH)"/></g><g transform="translate(.779 93.598)"><mask id="bJ" fill="#fff"><use xlink:href="#bI"/></mask><path d="M-18.955 36.475a.26.26 0 0 1-.05-.516L160.304.244a.26.26 0 0 1 .101.51L-18.904 36.47a.263.263 0 0 1-.05.005" fill="#93820A" mask="url(#bJ)"/></g><g transform="translate(.779 70.176)"><mask id="bL" fill="#fff"><use xlink:href="#bK"/></mask><path d="M195.988 144.664a.26.26 0 0 1-.145-.044L-19.099.614A.26.26 0 0 1-18.81.18l214.942 144.006a.26.26 0 0 1-.144.477" fill="#93820A" mask="url(#bL)"/></g><g transform="translate(.779 98.543)"><mask id="bN" fill="#fff"><use xlink:href="#bM"/></mask><path d="M-18.955 36.453a.26.26 0 0 1-.05-.516L160.304.222a.26.26 0 0 1 .101.51L-18.904 36.448a.263.263 0 0 1-.05.005" fill="#93820A" mask="url(#bN)"/></g><g transform="translate(.779 75.12)"><mask id="bP" fill="#fff"><use xlink:href="#bO"/></mask><path d="M195.988 144.642c-.05 0-.1-.015-.145-.044L-19.099.592a.26.26 0 0 1 .289-.433l214.942 144.006a.26.26 0 0 1-.144.477" fill="#93820A" mask="url(#bP)"/></g><g transform="translate(.779 103.488)"><mask id="bR" fill="#fff"><use xlink:href="#bQ"/></mask><path d="M-18.955 36.43a.26.26 0 0 1-.05-.516L160.304.201a.26.26 0 0 1 .101.51L-18.904 36.426a.263.263 0 0 1-.05.005" fill="#93820A" mask="url(#bR)"/></g><g transform="translate(.779 80.065)"><mask id="bT" fill="#fff"><use xlink:href="#bS"/></mask><path d="M195.973 144.642c-.05 0-.1-.014-.144-.044L-19.084.547a.26.26 0 0 1 .289-.433l214.912 144.052a.26.26 0 0 1-.144.476" fill="#93820A" mask="url(#bT)"/></g><g transform="translate(.779 108.433)"><mask id="bV" fill="#fff"><use xlink:href="#bU"/></mask><path d="M-18.955 36.408a.26.26 0 0 1-.05-.516L160.304.178a.26.26 0 0 1 .101.51L-18.904 36.405a.263.263 0 0 1-.05.004" fill="#93820A" mask="url(#bV)"/></g><g transform="translate(.779 85.01)"><mask id="bX" fill="#fff"><use xlink:href="#bW"/></mask><path d="M195.988 144.598a.26.26 0 0 1-.145-.044L-19.099.548a.26.26 0 0 1 .289-.433L196.132 144.12a.26.26 0 0 1-.144.477" fill="#93820A" mask="url(#bX)"/></g><g transform="translate(2.077 113.377)"><mask id="bZ" fill="#fff"><use xlink:href="#bY"/></mask><path d="M-20.253 36.386a.26.26 0 0 1-.05-.516L159.006.156a.26.26 0 1 1 .101.511l-179.31 35.715a.263.263 0 0 1-.05.005" fill="#93820A" mask="url(#bZ)"/></g><g transform="translate(.779 89.955)"><mask id="cb" fill="#fff"><use xlink:href="#ca"/></mask><path d="M195.988 144.576a.26.26 0 0 1-.145-.044L-19.099.525a.26.26 0 0 1 .289-.432l214.942 144.006a.26.26 0 0 1-.144.477" fill="#93820A" mask="url(#cb)"/></g><g transform="translate(4.154 118.322)"><mask id="cd" fill="#fff"><use xlink:href="#cc"/></mask><path d="M-22.33 36.364a.26.26 0 0 1-.05-.516L156.927.134a.26.26 0 0 1 .101.51L-22.278 36.36a.263.263 0 0 1-.051.005" fill="#93820A" mask="url(#cd)"/></g><g transform="translate(.779 94.9)"><mask id="cf" fill="#fff"><use xlink:href="#ce"/></mask><path d="M195.988 144.553a.26.26 0 0 1-.145-.043L-19.099.503A.26.26 0 0 1-18.81.07l214.942 144.007a.26.26 0 0 1-.144.476" fill="#93820A" mask="url(#cf)"/></g><g transform="translate(4.933 123.267)"><mask id="ch" fill="#fff"><use xlink:href="#cg"/></mask><path d="M-23.11 36.342a.26.26 0 0 1-.05-.516L156.15.112a.26.26 0 0 1 .101.51L-23.06 36.338a.263.263 0 0 1-.05.005" fill="#93820A" mask="url(#ch)"/></g><g transform="translate(.779 99.844)"><mask id="cj" fill="#fff"><use xlink:href="#ci"/></mask><path d="M195.988 144.531a.26.26 0 0 1-.145-.043L-19.099.48a.26.26 0 0 1 .289-.433l214.942 144.007a.26.26 0 0 1-.144.476" fill="#93820A" mask="url(#cj)"/></g><g transform="translate(5.712 128.211)"><mask id="cl" fill="#fff"><use xlink:href="#ck"/></mask><path d="M-23.888 36.32a.26.26 0 0 1-.05-.516L155.37.09a.26.26 0 0 1 .101.51l-179.31 35.716a.263.263 0 0 1-.05.005" fill="#93820A" mask="url(#cl)"/></g><g transform="translate(.779 104.529)"><mask id="cn" fill="#fff"><use xlink:href="#cm"/></mask><path d="M195.988 144.77a.26.26 0 0 1-.145-.044L-19.099.719a.26.26 0 0 1 .289-.432l214.942 144.006a.26.26 0 0 1-.144.477" fill="#93820A" mask="url(#cn)"/></g><g transform="translate(5.712 133.156)"><mask id="cp" fill="#fff"><use xlink:href="#co"/></mask><path d="M-23.888 36.298a.26.26 0 0 1-.05-.516L155.37.068a.26.26 0 0 1 .101.51l-179.31 35.716a.263.263 0 0 1-.05.005" fill="#93820A" mask="url(#cp)"/></g><g transform="translate(1.039 109.474)"><mask id="cr" fill="#fff"><use xlink:href="#cq"/></mask><path d="M195.728 144.747a.26.26 0 0 1-.144-.043L-19.358.697a.26.26 0 0 1 .288-.433l214.943 144.007a.26.26 0 0 1-.145.476" fill="#93820A" mask="url(#cr)"/></g><g transform="translate(5.712 138.1)"><mask id="ct" fill="#fff"><use xlink:href="#cs"/></mask><path d="M-23.888 36.276a.26.26 0 0 1-.05-.516L155.37.045a.26.26 0 0 1 .101.51l-179.31 35.716a.263.263 0 0 1-.05.005" fill="#93820A" mask="url(#ct)"/></g><g transform="translate(2.597 114.418)"><mask id="cv" fill="#fff"><use xlink:href="#cu"/></mask><path d="M194.17 144.725a.26.26 0 0 1-.144-.043L-20.916.675a.26.26 0 0 1 .288-.433L194.315 144.25a.26.26 0 0 1-.145.476" fill="#93820A" mask="url(#cv)"/></g><g transform="translate(5.972 143.046)"><mask id="cx" fill="#fff"><use xlink:href="#cw"/></mask><path d="M-24.148 36.254a.26.26 0 0 1-.05-.516L155.11.023a.26.26 0 0 1 .101.51L-24.097 36.25a.263.263 0 0 1-.05.005" fill="#93820A" mask="url(#cx)"/></g><g transform="translate(4.154 119.363)"><mask id="cz" fill="#fff"><use xlink:href="#cy"/></mask><path d="M192.612 144.703a.26.26 0 0 1-.144-.044L-22.474.653a.26.26 0 0 1 .288-.433l214.943 144.006a.26.26 0 0 1-.145.477" fill="#93820A" mask="url(#cz)"/></g><g transform="translate(14.8 147.73)"><mask id="cB" fill="#fff"><use xlink:href="#cA"/></mask><path d="M-32.976 36.492a.26.26 0 0 1-.05-.516L146.283.261a.26.26 0 0 1 .101.51L-32.925 36.488a.263.263 0 0 1-.05.005" fill="#93820A" mask="url(#cB)"/></g><g transform="translate(5.193 124.308)"><mask id="cD" fill="#fff"><use xlink:href="#cC"/></mask><path d="M191.574 144.681a.26.26 0 0 1-.145-.044L-23.513.631a.26.26 0 0 1 .289-.433l214.942 144.006a.26.26 0 0 1-.144.477" fill="#93820A" mask="url(#cD)"/></g><g transform="translate(19.733 152.675)"><mask id="cF" fill="#fff"><use xlink:href="#cE"/></mask><path d="M-37.91 36.47a.26.26 0 0 1-.05-.516L141.35.24a.26.26 0 0 1 .101.51L-37.86 36.465a.263.263 0 0 1-.05.005" fill="#93820A" mask="url(#cF)"/></g><g transform="translate(5.712 129.252)"><mask id="cH" fill="#fff"><use xlink:href="#cG"/></mask><path d="M191.054 144.659a.26.26 0 0 1-.144-.044L-24.032.61a.26.26 0 0 1 .288-.433L191.2 144.182a.26.26 0 0 1-.145.477" fill="#93820A" mask="url(#cH)"/></g><g transform="translate(26.484 157.62)"><mask id="cJ" fill="#fff"><use xlink:href="#cI"/></mask><path d="M-44.66 36.448a.26.26 0 0 1-.05-.516L134.599.217a.26.26 0 0 1 .101.51L-44.61 36.443a.263.263 0 0 1-.05.005" fill="#93820A" mask="url(#cJ)"/></g><g transform="translate(5.712 134.197)"><mask id="cL" fill="#fff"><use xlink:href="#cK"/></mask><path d="M191.054 144.637a.26.26 0 0 1-.144-.044L-24.032.587a.26.26 0 0 1 .288-.433L191.2 144.16a.26.26 0 0 1-.145.477" fill="#93820A" mask="url(#cL)"/></g><g transform="translate(5.712 139.142)"><mask id="cN" fill="#fff"><use xlink:href="#cM"/></mask><path d="M191.054 144.615a.26.26 0 0 1-.144-.044L-24.032.565a.26.26 0 0 1 .288-.433L191.2 144.138a.26.26 0 0 1-.145.477" fill="#93820A" mask="url(#cN)"/></g><g transform="translate(6.491 144.087)"><mask id="cP" fill="#fff"><use xlink:href="#cO"/></mask><path d="M190.275 144.593a.26.26 0 0 1-.144-.044L-24.81.543a.26.26 0 0 1 .288-.433L190.42 144.116a.26.26 0 0 1-.145.477" fill="#93820A" mask="url(#cP)"/></g><g transform="translate(16.098 149.031)"><mask id="cR" fill="#fff"><use xlink:href="#cQ"/></mask><path d="M180.668 144.57a.26.26 0 0 1-.144-.043L-34.418.52a.26.26 0 0 1 .288-.432l214.943 144.006a.26.26 0 0 1-.145.477" fill="#93820A" mask="url(#cR)"/></g><g transform="translate(20.512 153.976)"><mask id="cT" fill="#fff"><use xlink:href="#cS"/></mask><path d="M176.254 144.549a.26.26 0 0 1-.144-.044L-38.832.498a.26.26 0 0 1 .288-.432L176.4 144.072a.26.26 0 0 1-.145.477" fill="#93820A" mask="url(#cT)"/></g><g transform="translate(49.853 158.66)"><mask id="cV" fill="#fff"><use xlink:href="#cU"/></mask><path d="M146.914 144.787c-.05 0-.1-.015-.145-.044L-68.173.736a.26.26 0 0 1 .289-.432L147.058 144.31a.26.26 0 0 1-.144.477" fill="#93820A" mask="url(#cV)"/></g><path d="M26.253 45.659h-.002.002zm118.726 49.254h.003-.003zM18.754 153.07a.026.026 0 0 1 .003.004l-.003-.004zm48.108 6.344h.003-.003zm-24.484-3.94c2.916 0 5.81.933 8.197 2.738 1.793 1.356 4.601 2.973 7.794 2.973 2.868 0 5.625-.87 7.972-2.517a.907.907 0 0 1 .935-.065c1.89.903 6.168.85 8.413.468.738-.126 2.565-.71 6.499-3.2.235-.15.27-.172.37-.208 9.836-3.648 47.673-17.893 53.073-20.937 5.531-3.119 4.941-6.705 4.913-6.856a.917.917 0 0 1 .552-1.024 13.9 13.9 0 0 0 8.702-12.935 13.85 13.85 0 0 0-4.202-9.982c-2.523-2.466-3.094-6.26-1.421-9.442 1.98-3.764 1.953-8.408 1.953-8.455 0-3.502-1.507-6.826-4.134-9.129a1.354 1.354 0 0 1-.454-1.15c.04-.405.06-.806.06-1.188a12.02 12.02 0 0 0-3.738-8.756.856.856 0 0 1-.052-.054c-.65-.734-.552-1.712-.439-2.844.266-2.661.712-7.116-7.515-13.437-2.733-2.1-5.296-3.816-7.558-5.329-7.618-5.096-12.65-8.463-13.12-18.66-.492-10.677-4.198-20.544-5.29-23.24C93.02 5.162 77.256 7.02 57.022 7.77c-14.972.554-27.851.3-31.54.206.769 3.026 2.68 10.947 3.712 18.728 1.5 11.296.558 17.49-2.881 18.93-7.126 5.444-12.266 9.71-15.713 13.041-5.514 5.328-5.604 7.205-5.386 7.765 1.404 3.616 1.169 15.84 1.153 16.594a.92.92 0 0 1-.077.37 12.052 12.052 0 0 0-1.014 4.859c0 2.748.897 5.34 2.595 7.496a1.352 1.352 0 0 1-.336 1.971 12.067 12.067 0 0 0-5.65 10.252c0 3.06 1.143 5.98 3.219 8.227.285.308.408.723.339 1.137a12.115 12.115 0 0 0 5.17 12.044c.413.28.642.762.595 1.257-.538 5.687-2.016 7.307-3.095 8.49-.255.28-.475.521-.623.769-.745 1.244-.915 2.485-.455 3.32.43.782 1.433 1.228 2.82 1.256 4.169.085 9.725 6.73 10.344 7.487.027.033.05.062.073.099a12.059 12.059 0 0 0 10.084 5.439c.033 0 .065.001.097.005.033.003 3.477.342 6.748-1.012a13.531 13.531 0 0 1 5.177-1.026zm15.99 7.533c-3.695 0-6.873-1.817-8.888-3.34a11.797 11.797 0 0 0-11.585-1.483c-3.523 1.458-7.096 1.19-7.584 1.144a13.873 13.873 0 0 1-11.538-6.23c-1.558-1.897-6.136-6.737-8.955-6.794-2.063-.043-3.616-.823-4.374-2.197-.79-1.43-.611-3.304.487-5.139.242-.404.533-.723.84-1.06.89-.975 2.103-2.304 2.601-7.163a13.934 13.934 0 0 1-5.758-13.47 13.904 13.904 0 0 1-3.547-9.293c0-4.639 2.257-8.902 6.065-11.507a13.798 13.798 0 0 1-2.674-8.212c0-1.877.368-3.7 1.095-5.42.07-3.627.02-13.033-1.033-15.742-1.35-3.477 4.95-10.128 21.745-22.958.096-.073.202-.132.315-.177 1.444-.576 3.601-3.554 1.813-17.022-1.1-8.276-3.207-16.726-3.826-19.119a1.34 1.34 0 0 1 .25-1.179c.265-.335.665-.52 1.091-.508 5.372.151 53.225 1.275 78.909-5.761a1.342 1.342 0 0 1 1.589.777c.839 2.015 5.054 12.657 5.588 24.247.427 9.277 4.901 12.27 12.313 17.23 2.285 1.528 4.875 3.26 7.655 5.397 9.03 6.94 8.502 12.225 8.218 15.065-.051.508-.127 1.269-.02 1.44a13.828 13.828 0 0 1 4.258 10.032c0 .366-.016.744-.047 1.128a13.954 13.954 0 0 1 4.574 10.33c.003.196.037 5.13-2.162 9.314-1.295 2.461-.86 5.39 1.082 7.287a15.66 15.66 0 0 1 4.75 11.287c0 6.236-3.6 11.802-9.226 14.361.002 1.536-.625 5.086-5.867 8.042-6.22 3.506-51.048 20.207-53.254 21.027l-.11.07c-3.203 2.028-5.614 3.191-7.165 3.456-2.289.39-6.56.494-9.03-.422a15.608 15.608 0 0 1-8.594 2.562z" fill="#93820A"/><path d="M37.065 8.118c1.967 4.005 7.212 16.205 5.65 29.654-.537 4.615 2.83 7.035 9.54 11.856 4.518 3.246 10.142 7.286 16.826 13.617a.775.775 0 0 1 .026.026c8.447 8.663 13.44 27.027 14.839 54.581.868 17.105.005 32.616-.307 37.302l44.841-17.265c2.869-5.103 3.571-18.19 1.975-36.949-1.389-16.32-4.187-32.729-6.114-39.881-2.082-7.724-9.662-12.548-16.35-16.804-5.806-3.696-10.82-6.887-10.644-11.263.513-9.18-3.675-24.748-4.696-28.38-18.59 3.042-42.17 3.524-55.586 3.506m45.567 149.31a.911.911 0 0 1-.906-.984c.014-.18 1.436-18.221.404-38.519-.947-18.614-4.199-42.98-14.31-53.368-6.59-6.24-12.153-10.236-16.624-13.449-6.827-4.905-10.947-7.866-10.287-13.547 1.804-15.52-6.053-29.77-6.132-29.912a.912.912 0 0 1 .792-1.356h.004c13.22.05 38.293-.352 57.577-3.612a.908.908 0 0 1 1.023.64c.228.773 5.587 19.068 4.99 29.76-.134 3.312 4.471 6.242 9.803 9.636 6.622 4.215 14.864 9.46 17.13 17.867 1.948 7.229 4.772 23.775 6.17 40.2 1.172 13.777 1.71 31.606-2.388 38.317a.908.908 0 0 1-.45.374l-46.47 17.893a.907.907 0 0 1-.326.06" fill="#93820A"/><path d="M35.57 7.204c14.059.053 38.624-.395 57.732-3.624 0 0 5.549 18.793 4.953 29.449-.34 8.44 22.965 12.958 26.963 27.792 3.998 14.834 11.087 66.008 3.885 77.804l-46.471 17.893s5.808-72.115-14.175-92.61C51.57 47.913 40.825 46.15 41.812 37.666c1.858-15.993-6.243-30.463-6.243-30.463" fill="#F9F44E"/><path d="M37.065 8.118c1.967 4.005 7.212 16.205 5.65 29.654-.537 4.615 2.83 7.035 9.54 11.856 4.518 3.246 10.142 7.286 16.826 13.617a.775.775 0 0 1 .026.026c8.447 8.663 13.44 27.027 14.839 54.581.868 17.105.005 32.616-.307 37.302l44.841-17.265c2.869-5.103 3.571-18.19 1.975-36.949-1.389-16.32-4.187-32.729-6.114-39.881-2.082-7.724-9.662-12.548-16.35-16.804-5.806-3.696-10.82-6.887-10.644-11.263.513-9.18-3.675-24.748-4.696-28.38-18.59 3.042-42.17 3.524-55.586 3.506m45.567 149.31a.911.911 0 0 1-.906-.984c.014-.18 1.436-18.221.404-38.519-.947-18.614-4.199-42.98-14.31-53.368-6.59-6.24-12.153-10.236-16.624-13.449-6.827-4.905-10.947-7.866-10.287-13.547 1.804-15.52-6.053-29.77-6.132-29.912a.912.912 0 0 1 .792-1.356h.004c13.22.05 38.293-.352 57.577-3.612a.908.908 0 0 1 1.023.64c.228.773 5.587 19.068 4.99 29.76-.134 3.312 4.471 6.242 9.803 9.636 6.622 4.215 14.864 9.46 17.13 17.867 1.948 7.229 4.772 23.775 6.17 40.2 1.172 13.777 1.71 31.606-2.388 38.317a.908.908 0 0 1-.45.374l-46.47 17.893a.907.907 0 0 1-.326.06" fill="#93820A"/><path d="M63.674 70.888a.907.907 0 0 1-.295-.049c-.43-.147-10.618-3.69-18.833-10.827-8.187-7.112-12.163-13.483-12.328-13.75a.908.908 0 1 1 1.545-.958c.04.062 4.01 6.415 11.973 13.331 7.95 6.907 18.13 10.445 18.232 10.48a.911.911 0 0 1-.294 1.773" fill="#93820A"/><path d="M51.17 40.46s29.561-2.739 40.702-4.689" fill="#F9F44E"/><path d="M51.169 41.37a.91.91 0 0 1-.083-1.818c.296-.027 29.653-2.757 40.63-4.678a.91.91 0 1 1 .312 1.794C80.98 38.603 51.55 41.34 51.254 41.367a.93.93 0 0 1-.085.004M20.334 61.184a.912.912 0 0 1-.463-1.695c.37-.22 9.134-5.393 15.28-7.143a.911.911 0 0 1 .497 1.752c-5.922 1.687-14.763 6.906-14.852 6.959a.9.9 0 0 1-.462.127" fill="#93820A"/></g></svg>