<svg width="111" height="181" viewBox="0 0 111 181" xmlns="http://www.w3.org/2000/svg" xmlns:xlink="http://www.w3.org/1999/xlink"><title>Arpilla coco</title><defs><path d="M108.994 20.757a7.259 7.259 0 0 0-.377-1.97c-.598-1.74-1.677-3.266-2.568-4.876-1.14-2.061-1.985-4.292-2.442-6.604-.348-1.759.056-4.048-.904-5.613-.715-1.168-2.211-1.63-3.585-1.635-1.237-.005-2.59.234-3.86.403-.25.034-.497.066-.739.093-3.758.405-17.912 4.058-33.264 5.713a167.69 167.69 0 0 1-3.889.371c-2.169.18-4.343.313-6.504.382a79.454 79.454 0 0 1-9.587-.3 96.934 96.934 0 0 1-9.63-1.367c-10.047-1.925-17.16-4.8-17.16-4.8a20.007 20.007 0 0 0-2.915-.43A20.501 20.501 0 0 0 9.884.059C8.513.064 7.016.526 6.302 1.694c-.96 1.565-.556 3.854-.907 5.613-.457 2.312-1.3 4.543-2.44 6.604-.89 1.61-1.97 3.136-2.567 4.877a7.27 7.27 0 0 0-.378 1.969h108.984z" id="a"/><path d="M107.998 24.879c1.372-1.614 1.5-4.174.838-6.091-.598-1.741-1.678-3.267-2.568-4.877-1.14-2.061-1.985-4.292-2.443-6.604-.348-1.759.056-4.048-.903-5.613-.715-1.168-2.212-1.63-3.586-1.635-1.236-.005-2.589.234-3.859.403-.25.034-.497.066-.739.093C90.98.96 76.826 4.613 61.473 6.268a167.69 167.69 0 0 1-3.888.371c-2.17.18-4.343.313-6.504.382a79.454 79.454 0 0 1-9.587-.3 96.934 96.934 0 0 1-9.63-1.367c-10.047-1.925-17.16-4.8-17.16-4.8a20.007 20.007 0 0 0-2.916-.431 20.501 20.501 0 0 0-1.685-.064C8.732.064 7.235.526 6.52 1.694c-.96 1.565-.555 3.854-.906 5.613-.457 2.312-1.3 4.543-2.44 6.604-.89 1.61-1.97 3.136-2.568 4.877-.662 1.917-.536 4.477.835 6.09h106.557z" id="c"/><path d="M102.084 29a86.126 86.126 0 0 1-.024-2.02h-.007a72.063 72.063 0 0 0 2.224-.373c1.005-.185 2.036-.403 2.881-.975 2.143-1.449 2.456-4.59 1.678-6.844-.598-1.741-1.678-3.267-2.568-4.877-1.14-2.061-1.985-4.292-2.443-6.604-.348-1.759.056-4.048-.903-5.613-.715-1.168-2.212-1.63-3.586-1.635-1.236-.005-2.589.234-3.859.403-.25.034-.497.066-.739.093C90.98.96 76.826 4.613 61.473 6.268a167.69 167.69 0 0 1-3.888.371c-2.17.18-4.343.313-6.504.382a79.454 79.454 0 0 1-9.587-.3 96.934 96.934 0 0 1-9.63-1.367c-10.047-1.925-17.16-4.8-17.16-4.8a20.007 20.007 0 0 0-2.916-.431 20.501 20.501 0 0 0-1.685-.064C8.732.064 7.235.526 6.52 1.694c-.96 1.565-.555 3.854-.906 5.613-.457 2.312-1.3 4.543-2.44 6.604-.89 1.61-1.97 3.136-2.568 4.877-.778 2.254-.468 5.395 1.675 6.844.848.572 1.879.79 2.884.975.917.17 1.839.32 2.764.455L7.9 28.51V29h94.185z" id="e"/><path d="M102.259 33.121c-.127-2.153-.2-4.21-.2-6.14h-.006a72.063 72.063 0 0 0 2.224-.374c1.005-.185 2.036-.403 2.881-.975 2.143-1.449 2.456-4.59 1.678-6.844-.598-1.741-1.678-3.267-2.568-4.877-1.14-2.061-1.985-4.292-2.443-6.604-.348-1.759.056-4.048-.903-5.613-.715-1.168-2.212-1.63-3.586-1.635-1.236-.005-2.589.234-3.859.403-.25.034-.497.066-.739.093C90.98.96 76.826 4.613 61.473 6.268a167.69 167.69 0 0 1-3.888.371c-2.17.18-4.343.313-6.504.382a79.454 79.454 0 0 1-9.587-.3 96.934 96.934 0 0 1-9.63-1.367c-10.047-1.925-17.16-4.8-17.16-4.8a20.007 20.007 0 0 0-2.916-.431 20.501 20.501 0 0 0-1.685-.064C8.732.064 7.235.526 6.52 1.694c-.96 1.565-.555 3.854-.906 5.613-.457 2.312-1.3 4.543-2.44 6.604-.89 1.61-1.97 3.136-2.568 4.877-.778 2.254-.468 5.395 1.675 6.844.848.572 1.879.79 2.884.975.917.17 1.839.32 2.764.455L7.9 28.51c0 1.493-.046 3.032-.129 4.611h94.488z" id="g"/><path d="M102.554 37.243c-.304-3.669-.494-7.131-.494-10.262h-.007a72.063 72.063 0 0 0 2.224-.374c1.005-.185 2.036-.403 2.881-.975 2.143-1.449 2.456-4.59 1.678-6.844-.598-1.741-1.678-3.267-2.568-4.877-1.14-2.061-1.985-4.292-2.443-6.604-.348-1.759.056-4.048-.903-5.613-.715-1.168-2.212-1.63-3.586-1.635-1.236-.005-2.589.234-3.859.403-.25.034-.497.066-.739.093C90.98.96 76.826 4.613 61.473 6.268a167.69 167.69 0 0 1-3.888.371c-2.17.18-4.343.313-6.504.382a79.454 79.454 0 0 1-9.587-.3 96.934 96.934 0 0 1-9.63-1.367c-10.047-1.925-17.16-4.8-17.16-4.8a20.007 20.007 0 0 0-2.916-.431 20.501 20.501 0 0 0-1.685-.064C8.732.064 7.235.526 6.52 1.694c-.96 1.565-.555 3.854-.906 5.613-.457 2.312-1.3 4.543-2.44 6.604-.89 1.61-1.97 3.136-2.568 4.877-.778 2.254-.468 5.395 1.675 6.844.848.572 1.879.79 2.884.975.917.17 1.839.32 2.764.455L7.9 28.51c0 2.766-.158 5.695-.418 8.733h95.072z" id="i"/><path d="M102.932 41.364c-.517-5.2-.872-10.102-.872-14.383h-.007a72.063 72.063 0 0 0 2.224-.374c1.005-.185 2.036-.403 2.881-.975 2.143-1.449 2.456-4.59 1.678-6.844-.598-1.741-1.678-3.267-2.568-4.877-1.14-2.061-1.985-4.292-2.443-6.604-.348-1.759.056-4.048-.903-5.613-.715-1.168-2.212-1.63-3.586-1.635-1.236-.005-2.589.234-3.859.403-.25.034-.497.066-.739.093C90.98.96 76.826 4.613 61.473 6.268a167.69 167.69 0 0 1-3.888.371c-2.17.18-4.343.313-6.504.382a79.454 79.454 0 0 1-9.587-.3 96.934 96.934 0 0 1-9.63-1.367c-10.047-1.925-17.16-4.8-17.16-4.8a20.007 20.007 0 0 0-2.916-.431 20.501 20.501 0 0 0-1.685-.064C8.732.064 7.235.526 6.52 1.694c-.96 1.565-.555 3.854-.906 5.613-.457 2.312-1.3 4.543-2.44 6.604-.89 1.61-1.97 3.136-2.568 4.877-.778 2.254-.468 5.395 1.675 6.844.848.572 1.879.79 2.884.975.917.17 1.839.32 2.764.455L7.9 28.51c0 3.998-.33 8.336-.821 12.854h95.853z" id="k"/><path d="M103.366 45.486c-.741-6.725-1.306-13.108-1.306-18.505h-.007a72.063 72.063 0 0 0 2.224-.374c1.005-.185 2.036-.403 2.881-.975 2.143-1.449 2.456-4.59 1.678-6.844-.598-1.741-1.678-3.267-2.568-4.877-1.14-2.061-1.985-4.292-2.443-6.604-.348-1.759.056-4.048-.903-5.613-.715-1.168-2.212-1.63-3.586-1.635-1.236-.005-2.589.234-3.859.403-.25.034-.497.066-.739.093C90.98.96 76.826 4.613 61.473 6.268a167.69 167.69 0 0 1-3.888.371c-2.17.18-4.343.313-6.504.382a79.454 79.454 0 0 1-9.587-.3 96.934 96.934 0 0 1-9.63-1.367c-10.047-1.925-17.16-4.8-17.16-4.8a20.007 20.007 0 0 0-2.916-.431 20.501 20.501 0 0 0-1.685-.064C8.732.064 7.235.526 6.52 1.694c-.96 1.565-.555 3.854-.906 5.613-.457 2.312-1.3 4.543-2.44 6.604-.89 1.61-1.97 3.136-2.568 4.877-.778 2.254-.468 5.395 1.675 6.844.848.572 1.879.79 2.884.975.917.17 1.839.32 2.764.455L7.9 28.51c0 5.201-.558 10.976-1.304 16.976h96.77z" id="m"/><path d="M103.834 49.607c-.957-8.22-1.774-16.137-1.774-22.626h-.007a72.063 72.063 0 0 0 2.224-.374c1.005-.185 2.036-.403 2.881-.975 2.143-1.449 2.456-4.59 1.678-6.844-.598-1.741-1.678-3.267-2.568-4.877-1.14-2.061-1.985-4.292-2.443-6.604-.348-1.759.056-4.048-.903-5.613-.715-1.168-2.212-1.63-3.586-1.635-1.236-.005-2.589.234-3.859.403-.25.034-.497.066-.739.093C90.98.96 76.826 4.613 61.473 6.268a167.69 167.69 0 0 1-3.888.371c-2.17.18-4.343.313-6.504.382a79.454 79.454 0 0 1-9.587-.3 96.934 96.934 0 0 1-9.63-1.367c-10.047-1.925-17.16-4.8-17.16-4.8a20.007 20.007 0 0 0-2.916-.431 20.501 20.501 0 0 0-1.685-.064C8.732.064 7.235.526 6.52 1.694c-.96 1.565-.555 3.854-.906 5.613-.457 2.312-1.3 4.543-2.44 6.604-.89 1.61-1.97 3.136-2.568 4.877-.778 2.254-.468 5.395 1.675 6.844.848.572 1.879.79 2.884.975.917.17 1.839.32 2.764.455L7.9 28.51c0 6.383-.84 13.632-1.838 21.097h97.772z" id="o"/><path d="M104.32 53.728c-1.15-9.67-2.26-19.178-2.26-26.747h-.007a72.063 72.063 0 0 0 2.224-.374c1.005-.185 2.036-.403 2.881-.975 2.143-1.449 2.456-4.59 1.678-6.844-.598-1.741-1.678-3.267-2.568-4.877-1.14-2.061-1.985-4.292-2.443-6.604-.348-1.759.056-4.048-.903-5.613-.715-1.168-2.212-1.63-3.586-1.635-1.236-.005-2.589.234-3.859.403-.25.034-.497.066-.739.093C90.98.96 76.826 4.613 61.473 6.268a167.69 167.69 0 0 1-3.888.371c-2.17.18-4.343.313-6.504.382a79.454 79.454 0 0 1-9.587-.3 96.934 96.934 0 0 1-9.63-1.367c-10.047-1.925-17.16-4.8-17.16-4.8a20.007 20.007 0 0 0-2.916-.431 20.501 20.501 0 0 0-1.685-.064C8.732.064 7.235.526 6.52 1.694c-.96 1.565-.555 3.854-.906 5.613-.457 2.312-1.3 4.543-2.44 6.604-.89 1.61-1.97 3.136-2.568 4.877-.778 2.254-.468 5.395 1.675 6.844.848.572 1.879.79 2.884.975.917.17 1.839.32 2.764.455L7.9 28.51c0 7.553-1.177 16.317-2.398 25.218h98.819z" id="q"/><path d="M104.81 57.85c-1.301-11.054-2.75-22.226-2.75-30.87h-.007a72.063 72.063 0 0 0 2.224-.373c1.005-.185 2.036-.403 2.881-.975 2.143-1.449 2.456-4.59 1.678-6.844-.598-1.741-1.678-3.267-2.568-4.877-1.14-2.061-1.985-4.292-2.443-6.604-.348-1.759.056-4.048-.903-5.613-.715-1.168-2.212-1.63-3.586-1.635-1.236-.005-2.589.234-3.859.403-.25.034-.497.066-.739.093C90.98.96 76.826 4.613 61.473 6.268a167.69 167.69 0 0 1-3.888.371c-2.17.18-4.343.313-6.504.382a79.454 79.454 0 0 1-9.587-.3 96.934 96.934 0 0 1-9.63-1.367c-10.047-1.925-17.16-4.8-17.16-4.8a20.007 20.007 0 0 0-2.916-.431 20.501 20.501 0 0 0-1.685-.064C8.732.064 7.235.526 6.52 1.694c-.96 1.565-.555 3.854-.906 5.613-.457 2.312-1.3 4.543-2.44 6.604-.89 1.61-1.97 3.136-2.568 4.877-.778 2.254-.468 5.395 1.675 6.844.848.572 1.879.79 2.884.975.917.17 1.839.32 2.764.455L7.9 28.51c0 8.717-1.568 19.047-2.961 29.34h99.87z" id="s"/><path d="M105.286 61.971c-1.394-12.351-3.226-25.27-3.226-34.99h-.007a72.063 72.063 0 0 0 2.224-.374c1.005-.185 2.036-.403 2.881-.975 2.143-1.449 2.456-4.59 1.678-6.844-.598-1.741-1.678-3.267-2.568-4.877-1.14-2.061-1.985-4.292-2.443-6.604-.348-1.759.056-4.048-.903-5.613-.715-1.168-2.212-1.63-3.586-1.635-1.236-.005-2.589.234-3.859.403-.25.034-.497.066-.739.093C90.98.96 76.826 4.613 61.473 6.268a167.69 167.69 0 0 1-3.888.371c-2.17.18-4.343.313-6.504.382a79.454 79.454 0 0 1-9.587-.3 96.934 96.934 0 0 1-9.63-1.367c-10.047-1.925-17.16-4.8-17.16-4.8a20.007 20.007 0 0 0-2.916-.431 20.501 20.501 0 0 0-1.685-.064C8.732.064 7.235.526 6.52 1.694c-.96 1.565-.555 3.854-.906 5.613-.457 2.312-1.3 4.543-2.44 6.604-.89 1.61-1.97 3.136-2.568 4.877-.778 2.254-.468 5.395 1.675 6.844.848.572 1.879.79 2.884.975.917.17 1.839.32 2.764.455L7.9 28.51c0 9.882-2.015 21.837-3.506 33.461h100.892z" id="u"/><path d="M105.734 66.092c-1.409-13.54-3.674-28.303-3.674-39.111h-.007a72.063 72.063 0 0 0 2.224-.374c1.005-.185 2.036-.403 2.881-.975 2.143-1.449 2.456-4.59 1.678-6.844-.598-1.741-1.678-3.267-2.568-4.877-1.14-2.061-1.985-4.292-2.443-6.604-.348-1.759.056-4.048-.903-5.613-.715-1.168-2.212-1.63-3.586-1.635-1.236-.005-2.589.234-3.859.403-.25.034-.497.066-.739.093C90.98.96 76.826 4.613 61.473 6.268a167.69 167.69 0 0 1-3.888.371c-2.17.18-4.343.313-6.504.382a79.454 79.454 0 0 1-9.587-.3 96.934 96.934 0 0 1-9.63-1.367c-10.047-1.925-17.16-4.8-17.16-4.8a20.007 20.007 0 0 0-2.916-.431 20.501 20.501 0 0 0-1.685-.064C8.732.064 7.235.526 6.52 1.694c-.96 1.565-.555 3.854-.906 5.613-.457 2.312-1.3 4.543-2.44 6.604-.89 1.61-1.97 3.136-2.568 4.877-.778 2.254-.468 5.395 1.675 6.844.848.572 1.879.79 2.884.975.917.17 1.839.32 2.764.455L7.9 28.51c0 11.055-2.522 24.705-4.011 37.582h101.845z" id="w"/><path d="M106.138 70.214c-1.324-14.592-4.078-31.317-4.078-43.233h-.007a72.063 72.063 0 0 0 2.224-.374c1.005-.185 2.036-.403 2.881-.975 2.143-1.449 2.456-4.59 1.678-6.844-.598-1.741-1.678-3.267-2.568-4.877-1.14-2.061-1.985-4.292-2.443-6.604-.348-1.759.056-4.048-.903-5.613-.715-1.168-2.212-1.63-3.586-1.635-1.236-.005-2.589.234-3.859.403-.25.034-.497.066-.739.093C90.98.96 76.826 4.613 61.473 6.268a167.69 167.69 0 0 1-3.888.371c-2.17.18-4.343.313-6.504.382a79.454 79.454 0 0 1-9.587-.3 96.934 96.934 0 0 1-9.63-1.367c-10.047-1.925-17.16-4.8-17.16-4.8a20.007 20.007 0 0 0-2.916-.431 20.501 20.501 0 0 0-1.685-.064C8.732.064 7.235.526 6.52 1.694c-.96 1.565-.555 3.854-.906 5.613-.457 2.312-1.3 4.543-2.44 6.604-.89 1.61-1.97 3.136-2.568 4.877-.778 2.254-.468 5.395 1.675 6.844.848.572 1.879.79 2.884.975.917.17 1.839.32 2.764.455L7.9 28.51c0 12.243-3.093 27.669-4.451 41.704h102.689z" id="y"/><path d="M106.474 74.335c-1.108-15.47-4.414-34.299-4.414-47.354h-.007a72.063 72.063 0 0 0 2.224-.374c1.005-.185 2.036-.403 2.881-.975 2.143-1.449 2.456-4.59 1.678-6.844-.598-1.741-1.678-3.267-2.568-4.877-1.14-2.061-1.985-4.292-2.443-6.604-.348-1.759.056-4.048-.903-5.613-.715-1.168-2.212-1.63-3.586-1.635-1.236-.005-2.589.234-3.859.403-.25.034-.497.066-.739.093C90.98.96 76.826 4.613 61.473 6.268a167.69 167.69 0 0 1-3.888.371c-2.17.18-4.343.313-6.504.382a79.454 79.454 0 0 1-9.587-.3 96.934 96.934 0 0 1-9.63-1.367c-10.047-1.925-17.16-4.8-17.16-4.8a20.007 20.007 0 0 0-2.916-.431 20.501 20.501 0 0 0-1.685-.064C8.732.064 7.235.526 6.52 1.694c-.96 1.565-.555 3.854-.906 5.613-.457 2.312-1.3 4.543-2.44 6.604-.89 1.61-1.97 3.136-2.568 4.877-.778 2.254-.468 5.395 1.675 6.844.848.572 1.879.79 2.884.975.917.17 1.839.32 2.764.455L7.9 28.51c0 13.455-3.736 30.753-4.799 45.825h103.373z" id="A"/><path d="M98.396 7.487l-.036-.18c-.348-1.759.056-4.048-.904-5.613C96.741.526 95.245.064 93.87.059c-1.236-.005-2.589.234-3.859.403-.25.034-.497.066-.739.093C85.514.96 71.36 4.613 56.008 6.268a167.69 167.69 0 0 1-3.889.371c-2.169.18-4.343.313-6.504.382a79.454 79.454 0 0 1-9.587-.3 96.934 96.934 0 0 1-9.63-1.367C16.351 3.43 9.238.554 9.238.554a20.007 20.007 0 0 0-2.915-.43A20.501 20.501 0 0 0 4.637.059C3.266.064 1.77.526 1.054 1.694.094 3.259.5 5.548.148 7.307l-.036.18h98.284z" id="C"/><path d="M106.718 78.457c-.725-16.129-4.658-37.236-4.658-51.476h-.007a72.063 72.063 0 0 0 2.224-.374c1.005-.185 2.036-.403 2.881-.975 2.143-1.449 2.456-4.59 1.678-6.844-.598-1.741-1.678-3.267-2.568-4.877-1.14-2.061-1.985-4.292-2.443-6.604-.348-1.759.056-4.048-.903-5.613-.715-1.168-2.212-1.63-3.586-1.635-1.236-.005-2.589.234-3.859.403-.25.034-.497.066-.739.093C90.98.96 76.826 4.613 61.473 6.268a167.69 167.69 0 0 1-3.888.371c-2.17.18-4.343.313-6.504.382a79.454 79.454 0 0 1-9.587-.3 96.934 96.934 0 0 1-9.63-1.367c-10.047-1.925-17.16-4.8-17.16-4.8a20.007 20.007 0 0 0-2.916-.431 20.501 20.501 0 0 0-1.685-.064C8.732.064 7.235.526 6.52 1.694c-.96 1.565-.555 3.854-.906 5.613-.457 2.312-1.3 4.543-2.44 6.604-.89 1.61-1.97 3.136-2.568 4.877-.778 2.254-.468 5.395 1.675 6.844.848.572 1.879.79 2.884.975.917.17 1.839.32 2.764.455L7.9 28.51c0 14.7-4.459 33.986-5.02 49.947h103.838z" id="E"/><path d="M100.995 11.608a22.21 22.21 0 0 1-1.324-4.301c-.348-1.759.056-4.048-.903-5.613C98.053.526 96.556.064 95.182.059c-1.236-.005-2.589.234-3.859.403-.25.034-.497.066-.739.093C86.826.96 72.672 4.613 57.32 6.268a167.69 167.69 0 0 1-3.889.371c-2.17.18-4.343.313-6.504.382a79.454 79.454 0 0 1-9.587-.3 96.934 96.934 0 0 1-9.63-1.367C17.663 3.43 10.55.554 10.55.554a20.007 20.007 0 0 0-2.916-.43A20.501 20.501 0 0 0 5.95.059C4.578.064 3.081.526 2.366 1.694c-.96 1.565-.555 3.854-.906 5.613a22.236 22.236 0 0 1-1.322 4.301h100.857z" id="G"/><path d="M106.83 82.578c-.117-16.494-4.77-40.108-4.77-55.597h-.007a72.063 72.063 0 0 0 2.224-.374c1.005-.185 2.036-.403 2.881-.975 2.143-1.449 2.456-4.59 1.678-6.844-.598-1.741-1.678-3.267-2.568-4.877-1.14-2.061-1.985-4.292-2.443-6.604-.348-1.759.056-4.048-.903-5.613-.715-1.168-2.212-1.63-3.586-1.635-1.236-.005-2.589.234-3.859.403-.25.034-.497.066-.739.093C90.98.96 76.826 4.613 61.473 6.268a167.69 167.69 0 0 1-3.888.371c-2.17.18-4.343.313-6.504.382a79.454 79.454 0 0 1-9.587-.3 96.934 96.934 0 0 1-9.63-1.367c-10.047-1.925-17.16-4.8-17.16-4.8a20.007 20.007 0 0 0-2.916-.431 20.501 20.501 0 0 0-1.685-.064C8.732.064 7.235.526 6.52 1.694c-.96 1.565-.555 3.854-.906 5.613-.457 2.312-1.3 4.543-2.44 6.604-.89 1.61-1.97 3.136-2.568 4.877-.778 2.254-.468 5.395 1.675 6.844.848.572 1.879.79 2.884.975.917.17 1.839.32 2.764.455L7.9 28.51c0 15.686-5.078 36.596-5.078 53.113 0 .313.002.631.004.955H106.83z" id="I"/><path d="M105.362 15.73c-.356-.605-.723-1.206-1.062-1.82-1.14-2.06-1.985-4.29-2.442-6.603-.348-1.759.056-4.048-.904-5.613C100.24.526 98.743.064 97.37.059c-1.237-.005-2.59.234-3.86.403-.25.034-.497.066-.739.093-3.758.405-17.912 4.058-33.264 5.713a167.69 167.69 0 0 1-3.889.371c-2.169.18-4.343.313-6.504.382a79.454 79.454 0 0 1-9.587-.3 96.934 96.934 0 0 1-9.63-1.367C19.85 3.43 12.736.554 12.736.554a20.007 20.007 0 0 0-2.915-.43A20.501 20.501 0 0 0 8.135.059C6.764.064 5.267.526 4.553 1.694c-.96 1.565-.556 3.854-.907 5.613-.457 2.312-1.3 4.543-2.44 6.604-.339.613-.705 1.214-1.062 1.819h105.218z" id="K"/><path d="M106.785 86.7c.03-1.221.047-2.39.047-3.494 0-16.518-4.772-40.538-4.772-56.225h-.007a72.063 72.063 0 0 0 2.224-.374c1.005-.185 2.036-.403 2.881-.975 2.143-1.449 2.456-4.59 1.678-6.844-.598-1.741-1.678-3.267-2.568-4.877-1.14-2.061-1.985-4.292-2.443-6.604-.348-1.759.056-4.048-.903-5.613-.715-1.168-2.212-1.63-3.586-1.635-1.236-.005-2.589.234-3.859.403-.25.034-.497.066-.739.093C90.98.96 76.826 4.613 61.473 6.268a167.69 167.69 0 0 1-3.888.371c-2.17.18-4.343.313-6.504.382a79.454 79.454 0 0 1-9.587-.3 96.934 96.934 0 0 1-9.63-1.367c-10.047-1.925-17.16-4.8-17.16-4.8a20.007 20.007 0 0 0-2.916-.431 20.501 20.501 0 0 0-1.685-.064C8.732.064 7.235.526 6.52 1.694c-.96 1.565-.555 3.854-.906 5.613-.457 2.312-1.3 4.543-2.44 6.604-.89 1.61-1.97 3.136-2.568 4.877-.778 2.254-.468 5.395 1.675 6.844.848.572 1.879.79 2.884.975.917.17 1.839.32 2.764.455L7.9 28.51c0 15.686-5.078 36.596-5.078 53.113 0 1.562.031 3.268.087 5.077h103.876z" id="M"/><path d="M108.891 19.851a6.992 6.992 0 0 0-.274-1.063c-.598-1.741-1.677-3.267-2.568-4.877-1.14-2.061-1.985-4.292-2.442-6.604-.348-1.759.056-4.048-.904-5.613-.715-1.168-2.211-1.63-3.585-1.635-1.237-.005-2.59.234-3.86.403-.25.034-.497.066-.739.093-3.758.405-17.912 4.058-33.264 5.713a167.69 167.69 0 0 1-3.889.371c-2.169.18-4.343.313-6.504.382a79.454 79.454 0 0 1-9.587-.3 96.934 96.934 0 0 1-9.63-1.367c-10.047-1.925-17.16-4.8-17.16-4.8a20.007 20.007 0 0 0-2.915-.43A20.501 20.501 0 0 0 9.884.059C8.513.064 7.016.526 6.302 1.694c-.96 1.565-.556 3.854-.907 5.613-.457 2.312-1.3 4.543-2.44 6.604-.89 1.61-1.97 3.136-2.567 4.877a7.005 7.005 0 0 0-.274 1.063H108.89z" id="O"/><path d="M106.64 90.82c.122-2.737.192-5.317.192-7.614 0-16.518-4.772-40.538-4.772-56.225h-.007a72.063 72.063 0 0 0 2.224-.374c1.005-.185 2.036-.403 2.881-.975 2.143-1.449 2.456-4.59 1.678-6.844-.598-1.741-1.678-3.267-2.568-4.877-1.14-2.061-1.985-4.292-2.443-6.604-.348-1.759.056-4.048-.903-5.613-.715-1.168-2.212-1.63-3.586-1.635-1.236-.005-2.589.234-3.859.403-.25.034-.497.066-.739.093C90.98.96 76.826 4.613 61.473 6.268a167.69 167.69 0 0 1-3.888.371c-2.17.18-4.343.313-6.504.382a79.454 79.454 0 0 1-9.587-.3 96.934 96.934 0 0 1-9.63-1.367c-10.047-1.925-17.16-4.8-17.16-4.8a20.007 20.007 0 0 0-2.916-.431 20.501 20.501 0 0 0-1.685-.064C8.732.064 7.235.526 6.52 1.694c-.96 1.565-.555 3.854-.906 5.613-.457 2.312-1.3 4.543-2.44 6.604-.89 1.61-1.97 3.136-2.568 4.877-.778 2.254-.468 5.395 1.675 6.844.848.572 1.879.79 2.884.975.917.17 1.839.32 2.764.455L7.9 28.51c0 15.686-5.078 36.596-5.078 53.113 0 2.705.092 5.842.247 9.198h103.57z" id="Q"/><path d="M108.597 23.973c.794-1.567.788-3.597.239-5.185-.598-1.741-1.678-3.267-2.568-4.877-1.14-2.061-1.985-4.292-2.443-6.604-.348-1.759.056-4.048-.903-5.613-.715-1.168-2.212-1.63-3.586-1.635-1.236-.005-2.589.234-3.859.403-.25.034-.497.066-.739.093C90.98.96 76.826 4.613 61.473 6.268a167.69 167.69 0 0 1-3.888.371c-2.17.18-4.343.313-6.504.382a79.454 79.454 0 0 1-9.587-.3 96.934 96.934 0 0 1-9.63-1.367c-10.047-1.925-17.16-4.8-17.16-4.8a20.007 20.007 0 0 0-2.916-.431 20.501 20.501 0 0 0-1.685-.064C8.732.064 7.235.526 6.52 1.694c-.96 1.565-.555 3.854-.906 5.613-.457 2.312-1.3 4.543-2.44 6.604-.89 1.61-1.97 3.136-2.568 4.877-.549 1.588-.556 3.618.237 5.185h107.754z" id="S"/><path d="M106.427 94.942c.248-4.266.405-8.313.405-11.736 0-16.518-4.772-40.538-4.772-56.225h-.007a72.063 72.063 0 0 0 2.224-.374c1.005-.185 2.036-.403 2.881-.975 2.143-1.449 2.456-4.59 1.678-6.844-.598-1.741-1.678-3.267-2.568-4.877-1.14-2.061-1.985-4.292-2.443-6.604-.348-1.759.056-4.048-.903-5.613-.715-1.168-2.212-1.63-3.586-1.635-1.236-.005-2.589.234-3.859.403-.25.034-.497.066-.739.093C90.98.96 76.826 4.613 61.473 6.268a167.69 167.69 0 0 1-3.888.371c-2.17.18-4.343.313-6.504.382a79.454 79.454 0 0 1-9.587-.3 96.934 96.934 0 0 1-9.63-1.367c-10.047-1.925-17.16-4.8-17.16-4.8a20.007 20.007 0 0 0-2.916-.431 20.501 20.501 0 0 0-1.685-.064C8.732.064 7.235.526 6.52 1.694c-.96 1.565-.555 3.854-.906 5.613-.457 2.312-1.3 4.543-2.44 6.604-.89 1.61-1.97 3.136-2.568 4.877-.778 2.254-.468 5.395 1.675 6.844.848.572 1.879.79 2.884.975.917.17 1.839.32 2.764.455L7.9 28.51c0 15.686-5.078 36.596-5.078 53.113 0 3.788.181 8.424.46 13.32h103.145z" id="U"/><path d="M102.068 28.094a82.15 82.15 0 0 1-.008-1.113h-.007a72.063 72.063 0 0 0 2.224-.374c1.005-.185 2.036-.403 2.881-.975 2.143-1.449 2.456-4.59 1.678-6.844-.598-1.741-1.678-3.267-2.568-4.877-1.14-2.061-1.985-4.292-2.443-6.604-.348-1.759.056-4.048-.903-5.613-.715-1.168-2.212-1.63-3.586-1.635-1.236-.005-2.589.234-3.859.403-.25.034-.497.066-.739.093C90.98.96 76.826 4.613 61.473 6.268a167.69 167.69 0 0 1-3.888.371c-2.17.18-4.343.313-6.504.382a79.454 79.454 0 0 1-9.587-.3 96.934 96.934 0 0 1-9.63-1.367c-10.047-1.925-17.16-4.8-17.16-4.8a20.007 20.007 0 0 0-2.916-.431 20.501 20.501 0 0 0-1.685-.064C8.732.064 7.235.526 6.52 1.694c-.96 1.565-.555 3.854-.906 5.613-.457 2.312-1.3 4.543-2.44 6.604-.89 1.61-1.97 3.136-2.568 4.877-.778 2.254-.468 5.395 1.675 6.844.848.572 1.879.79 2.884.975.917.17 1.839.32 2.764.455l-.02 1.032h94.159z" id="W"/><path d="M106.164 99.064c.396-5.752.668-11.347.668-15.858 0-16.518-4.772-40.538-4.772-56.225h-.007a72.063 72.063 0 0 0 2.224-.374c1.005-.185 2.036-.403 2.881-.975 2.143-1.449 2.456-4.59 1.678-6.844-.598-1.741-1.678-3.267-2.568-4.877-1.14-2.061-1.985-4.292-2.443-6.604-.348-1.759.056-4.048-.903-5.613-.715-1.168-2.212-1.63-3.586-1.635-1.236-.005-2.589.234-3.859.403-.25.034-.497.066-.739.093C90.98.96 76.826 4.613 61.473 6.268a167.69 167.69 0 0 1-3.888.371c-2.17.18-4.343.313-6.504.382a79.454 79.454 0 0 1-9.587-.3 96.934 96.934 0 0 1-9.63-1.367c-10.047-1.925-17.16-4.8-17.16-4.8a20.007 20.007 0 0 0-2.916-.431 20.501 20.501 0 0 0-1.685-.064C8.732.064 7.235.526 6.52 1.694c-.96 1.565-.555 3.854-.906 5.613-.457 2.312-1.3 4.543-2.44 6.604-.89 1.61-1.97 3.136-2.568 4.877-.778 2.254-.468 5.395 1.675 6.844.848.572 1.879.79 2.884.975.917.17 1.839.32 2.764.455L7.9 28.51c0 15.686-5.078 36.596-5.078 53.113 0 4.839.295 11.06.712 17.44h102.63z" id="Y"/><path d="M18.416.134a109.833 109.833 0 0 0 13.448 3.477 96.934 96.934 0 0 0 9.63 1.367 79.31 79.31 0 0 0 9.587.3c2.16-.07 4.335-.202 6.504-.382 1.302-.108 2.6-.233 3.888-.37C71.633 3.43 81.268 1.458 87.713.133h15.314c.824 1.558.464 3.739.798 5.43.458 2.312 1.303 4.543 2.443 6.604.89 1.61 1.97 3.136 2.568 4.876.778 2.255.465 5.396-1.678 6.845-.845.572-1.876.79-2.88.975-.74.137-1.482.26-2.225.374h.007c0 1.658.053 3.409.149 5.234H7.815c.055-1.263.085-2.5.085-3.705l.029-1.448a72.723 72.723 0 0 1-2.764-.455c-1.005-.185-2.036-.403-2.884-.975C.138 22.44-.172 19.3.606 17.044c.598-1.74 1.677-3.266 2.568-4.876 1.14-2.061 1.983-4.292 2.44-6.604.337-1.691-.023-3.872.801-5.43h12.001z" id="aa"/><path d="M105.862 103.185c.553-7.147.97-14.394.97-19.98 0-16.517-4.772-40.537-4.772-56.224h-.007a72.063 72.063 0 0 0 2.224-.374c1.005-.185 2.036-.403 2.881-.975 2.143-1.449 2.456-4.59 1.678-6.844-.598-1.741-1.678-3.267-2.568-4.877-1.14-2.061-1.985-4.292-2.443-6.604-.348-1.759.056-4.048-.903-5.613-.715-1.168-2.212-1.63-3.586-1.635-1.236-.005-2.589.234-3.859.403-.25.034-.497.066-.739.093C90.98.96 76.826 4.613 61.473 6.268a167.69 167.69 0 0 1-3.888.371c-2.17.18-4.343.313-6.504.382a79.454 79.454 0 0 1-9.587-.3 96.934 96.934 0 0 1-9.63-1.367c-10.047-1.925-17.16-4.8-17.16-4.8a20.007 20.007 0 0 0-2.916-.431 20.501 20.501 0 0 0-1.685-.064C8.732.064 7.235.526 6.52 1.694c-.96 1.565-.555 3.854-.906 5.613-.457 2.312-1.3 4.543-2.44 6.604-.89 1.61-1.97 3.136-2.568 4.877-.778 2.254-.468 5.395 1.675 6.844.848.572 1.879.79 2.884.975.917.17 1.839.32 2.764.455L7.9 28.51c0 15.686-5.078 36.596-5.078 53.113 0 5.878.436 13.798.996 21.562h102.044z" id="ac"/><path d="M35.583.116c1.9.293 3.879.54 5.91.722 3.1.279 6.324.403 9.588.3 2.16-.069 4.335-.202 6.504-.382a167.69 167.69 0 0 0 6.238-.64h39.854a9.9 9.9 0 0 0 .148 1.308c.458 2.312 1.303 4.543 2.443 6.604.89 1.61 1.97 3.136 2.568 4.876.778 2.255.465 5.396-1.678 6.845-.845.572-1.876.79-2.88.975-.74.137-1.482.26-2.225.374h.007c0 2.872.16 6.023.421 9.356H7.557c.215-2.715.343-5.337.343-7.827l.029-1.448a72.723 72.723 0 0 1-2.764-.455c-1.005-.185-2.036-.403-2.884-.975C.138 18.3-.172 15.16.606 12.904c.598-1.74 1.677-3.266 2.568-4.876 1.14-2.061 1.983-4.292 2.44-6.604a9.73 9.73 0 0 0 .15-1.308h29.819z" id="ae"/><path d="M105.529 107.306c.709-8.404 1.303-17.436 1.303-24.1 0-16.518-4.772-40.538-4.772-56.225h-.007a72.063 72.063 0 0 0 2.224-.374c1.005-.185 2.036-.403 2.881-.975 2.143-1.449 2.456-4.59 1.678-6.844-.598-1.741-1.678-3.267-2.568-4.877-1.14-2.061-1.985-4.292-2.443-6.604-.348-1.759.056-4.048-.903-5.613-.715-1.168-2.212-1.63-3.586-1.635-1.236-.005-2.589.234-3.859.403-.25.034-.497.066-.739.093C90.98.96 76.826 4.613 61.473 6.268a167.69 167.69 0 0 1-3.888.371c-2.17.18-4.343.313-6.504.382a79.454 79.454 0 0 1-9.587-.3 96.934 96.934 0 0 1-9.63-1.367c-10.047-1.925-17.16-4.8-17.16-4.8a20.007 20.007 0 0 0-2.916-.431 20.501 20.501 0 0 0-1.685-.064C8.732.064 7.235.526 6.52 1.694c-.96 1.565-.555 3.854-.906 5.613-.457 2.312-1.3 4.543-2.44 6.604-.89 1.61-1.97 3.136-2.568 4.877-.778 2.254-.468 5.395 1.675 6.844.848.572 1.879.79 2.884.975.917.17 1.839.32 2.764.455L7.9 28.51c0 15.686-5.078 36.596-5.078 53.113 0 6.925.604 16.684 1.306 25.683h101.4z" id="ag"/><path d="M104.583.097a23.579 23.579 0 0 0 1.685 3.79c.89 1.611 1.97 3.137 2.568 4.878.778 2.254.465 5.395-1.678 6.844-.845.573-1.876.79-2.88.975-.74.137-1.482.26-2.225.374h.007c0 4.032.315 8.614.784 13.477H7.175c.438-4.192.725-8.218.725-11.948l.029-1.448a72.723 72.723 0 0 1-2.764-.455c-1.005-.185-2.036-.402-2.884-.975C.138 14.16-.172 11.02.606 8.765c.598-1.74 1.677-3.267 2.568-4.877A23.504 23.504 0 0 0 4.858.098h99.725z" id="ai"/><path d="M105.168 111.428c.856-9.46 1.664-20.45 1.664-28.222 0-16.518-4.772-40.538-4.772-56.225h-.007a72.063 72.063 0 0 0 2.224-.374c1.005-.185 2.036-.403 2.881-.975 2.143-1.449 2.456-4.59 1.678-6.844-.598-1.741-1.678-3.267-2.568-4.877-1.14-2.061-1.985-4.292-2.443-6.604-.348-1.759.056-4.048-.903-5.613-.715-1.168-2.212-1.63-3.586-1.635-1.236-.005-2.589.234-3.859.403-.25.034-.497.066-.739.093C90.98.96 76.826 4.613 61.473 6.268a167.69 167.69 0 0 1-3.888.371c-2.17.18-4.343.313-6.504.382a79.454 79.454 0 0 1-9.587-.3 96.934 96.934 0 0 1-9.63-1.367c-10.047-1.925-17.16-4.8-17.16-4.8a20.007 20.007 0 0 0-2.916-.431 20.501 20.501 0 0 0-1.685-.064C8.732.064 7.235.526 6.52 1.694c-.96 1.565-.555 3.854-.906 5.613-.457 2.312-1.3 4.543-2.44 6.604-.89 1.61-1.97 3.136-2.568 4.877-.778 2.254-.468 5.395 1.675 6.844.848.572 1.879.79 2.884.975.917.17 1.839.32 2.764.455L7.9 28.51c0 15.686-5.078 36.596-5.078 53.113 0 8 .806 19.781 1.638 29.805h100.708z" id="ak"/><path d="M106.454.079c.85 1.49 1.825 2.925 2.382 4.546.778 2.254.465 5.396-1.678 6.844-.845.573-1.876.79-2.88.975-.74.137-1.482.26-2.225.374h.007c0 5.154.515 11.207 1.207 17.599H6.707c.69-5.675 1.193-11.131 1.193-16.07l.03-1.447a72.723 72.723 0 0 1-2.764-.455c-1.005-.185-2.036-.402-2.884-.975C.138 10.021-.172 6.88.606 4.625 1.163 3.004 2.137 1.569 2.988.079h103.466z" id="am"/><path d="M104.784 115.55c.98-10.227 2.048-23.412 2.048-32.344 0-16.518-4.772-40.538-4.772-56.225h-.007a72.063 72.063 0 0 0 2.224-.374c1.005-.185 2.036-.403 2.881-.975 2.143-1.449 2.456-4.59 1.678-6.844-.598-1.741-1.678-3.267-2.568-4.877-1.14-2.061-1.985-4.292-2.443-6.604-.348-1.759.056-4.048-.903-5.613-.715-1.168-2.212-1.63-3.586-1.635-1.236-.005-2.589.234-3.859.403-.25.034-.497.066-.739.093C90.98.96 76.826 4.613 61.473 6.268a167.69 167.69 0 0 1-3.888.371c-2.17.18-4.343.313-6.504.382a79.454 79.454 0 0 1-9.587-.3 96.934 96.934 0 0 1-9.63-1.367c-10.047-1.925-17.16-4.8-17.16-4.8a20.007 20.007 0 0 0-2.916-.431 20.501 20.501 0 0 0-1.685-.064C8.732.064 7.235.526 6.52 1.694c-.96 1.565-.555 3.854-.906 5.613-.457 2.312-1.3 4.543-2.44 6.604-.89 1.61-1.97 3.136-2.568 4.877-.778 2.254-.468 5.395 1.675 6.844.848.572 1.879.79 2.884.975.917.17 1.839.32 2.764.455L7.9 28.51c0 15.686-5.078 36.596-5.078 53.113 0 9.128 1.05 23.18 1.99 33.926h99.972z" id="ao"/><path d="M108.679.06c.055.14.108.282.157.425.778 2.254.465 5.396-1.678 6.845-.845.572-1.876.789-2.88.974-.74.137-1.482.26-2.225.374h.007c0 6.25.758 13.825 1.67 21.72H6.181C7.126 23.253 7.9 16.332 7.9 10.208l.029-1.45a72.723 72.723 0 0 1-2.764-.454C4.16 8.12 3.129 7.902 2.28 7.33.138 5.88-.172 2.74.606.485.656.342.708.2.763.06h107.916z" id="aq"/><path d="M104.379 119.67c1.064-10.551 2.453-26.275 2.453-36.464 0-16.518-4.772-40.538-4.772-56.225h-.007a72.063 72.063 0 0 0 2.224-.374c1.005-.185 2.036-.403 2.881-.975 2.143-1.449 2.456-4.59 1.678-6.844-.598-1.741-1.678-3.267-2.568-4.877-1.14-2.061-1.985-4.292-2.443-6.604-.348-1.759.056-4.048-.903-5.613-.715-1.168-2.212-1.63-3.586-1.635-1.236-.005-2.589.234-3.859.403-.25.034-.497.066-.739.093C90.98.96 76.826 4.613 61.473 6.268a167.69 167.69 0 0 1-3.888.371c-2.17.18-4.343.313-6.504.382a79.454 79.454 0 0 1-9.587-.3 96.934 96.934 0 0 1-9.63-1.367c-10.047-1.925-17.16-4.8-17.16-4.8a20.007 20.007 0 0 0-2.916-.431 20.501 20.501 0 0 0-1.685-.064C8.732.064 7.235.526 6.52 1.694c-.96 1.565-.555 3.854-.906 5.613-.457 2.312-1.3 4.543-2.44 6.604-.89 1.61-1.97 3.136-2.568 4.877-.778 2.254-.468 5.395 1.675 6.844.848.572 1.879.79 2.884.975.917.17 1.839.32 2.764.455L7.9 28.51c0 15.686-5.078 36.596-5.078 53.113 0 10.351 1.35 27.034 2.358 38.048h99.199z" id="as"/><path d="M108.88.042c-.246 1.259-.861 2.418-1.94 3.148-.845.572-1.877.79-2.881.975-.74.136-1.481.26-2.225.373h.007c0 7.332 1.043 16.485 2.153 25.842H5.408c1.175-8.59 2.274-17.016 2.274-24.313L7.71 4.62a72.723 72.723 0 0 1-2.764-.454c-1.005-.186-2.036-.403-2.884-.975C.983 2.46.37 1.3.124.042H108.88z" id="au"/><path d="M21.335.175c2.836.84 6.44 1.78 10.529 2.565a96.934 96.934 0 0 0 9.63 1.367 79.72 79.72 0 0 0 9.587.3c2.16-.07 4.335-.202 6.504-.382 1.302-.109 2.6-.234 3.888-.371C69.487 2.79 77.174 1.38 83.227.174h20.145c.37 1.429.18 3.137.453 4.518.458 2.313 1.303 4.543 2.443 6.604.89 1.61 1.97 3.136 2.568 4.877.778 2.254.465 5.396-1.678 6.845-.845.572-1.876.789-2.88.974-.74.137-1.482.26-2.225.374h.007c0 15.687 4.772 39.707 4.772 56.225 0 11.625-1.808 30.453-2.88 40.586H5.566c-1.004-10.514-2.743-30.42-2.743-42.168C2.822 62.49 7.9 41.582 7.9 25.895l.029-1.448a72.723 72.723 0 0 1-2.764-.455c-1.005-.185-2.036-.402-2.884-.974-2.143-1.45-2.453-4.59-1.675-6.845.598-1.74 1.677-3.266 2.568-4.877 1.14-2.061 1.983-4.291 2.44-6.604.275-1.381.085-3.09.456-4.517h15.265z" id="aw"/><path d="M99.256.023l-.007.002c-.74.136-1.481.26-2.225.373h.007c0 8.407 1.371 19.207 2.643 29.963H.034C1.393 20.37 2.871 10.39 2.871 1.927L2.9.48A72.723 72.723 0 0 1 .13.023h99.127z" id="ay"/><path d="M44.008.156a77.18 77.18 0 0 0 7.073.11c.853-.027 1.709-.064 2.565-.11h50.114c.018.135.04.267.065.396.458 2.313 1.303 4.543 2.443 6.604.89 1.61 1.97 3.136 2.568 4.877.778 2.254.465 5.396-1.678 6.845-.845.572-1.876.79-2.88.975-.74.136-1.482.26-2.225.373h.007c0 15.687 4.772 39.707 4.772 56.225 0 13.48-2.43 36.644-3.325 44.708H5.967c-.83-8.32-3.145-32.735-3.145-46.29C2.822 58.35 7.9 37.442 7.9 21.755l.029-1.448a72.723 72.723 0 0 1-2.764-.454c-1.005-.186-2.036-.403-2.884-.975-2.143-1.45-2.453-4.59-1.675-6.845.598-1.74 1.677-3.266 2.568-4.877 1.14-2.06 1.983-4.291 2.44-6.604.026-.13.047-.261.066-.396h38.328z" id="aA"/><path d="M97.767.004c.357 8.906 1.839 19.795 3.043 30.339H.138C1.504 19.863 3.241 9.165 3.496.004h94.271z" id="aC"/><path d="M104.916.137c.385.99.839 1.951 1.352 2.88.89 1.61 1.97 3.136 2.568 4.876.778 2.254.465 5.396-1.678 6.845-.845.572-1.876.79-2.88.975-.74.136-1.482.26-2.225.373h.007c0 15.687 4.772 39.707 4.772 56.225 0 16.517-3.65 47.576-3.65 47.576s1.758.07 3.094 1.253H3.166c1.336-1.182 3.093-1.253 3.093-1.253s-3.437-32.64-3.437-49.158c0-16.517 5.078-37.427 5.078-53.114l.029-1.448a72.723 72.723 0 0 1-2.764-.454c-1.005-.186-2.036-.403-2.884-.975-2.143-1.45-2.453-4.59-1.675-6.845.598-1.74 1.677-3.266 2.568-4.877.513-.928.966-1.89 1.351-2.879h100.39z" id="aE"/><path d="M98.435.204c.65 9.271 2.182 20.118 3.269 30.338H.06C1.277 20.306 3.09 9.634 3.73.204h94.704z" id="aG"/><path d="M106.988.119c.698 1.175 1.405 2.345 1.848 3.634.778 2.254.465 5.396-1.678 6.845-.845.572-1.876.79-2.88.975-.74.136-1.482.26-2.225.373h.007c0 15.687 4.772 39.707 4.772 56.225s-3.65 47.576-3.65 47.576 4.862.197 4.561 5.375H1.698c-.3-5.178 4.561-5.375 4.561-5.375s-3.437-32.64-3.437-49.158c0-16.517 5.078-37.427 5.078-53.113l.029-1.449a72.723 72.723 0 0 1-2.764-.454c-1.005-.186-2.036-.403-2.884-.975C.138 9.149-.172 6.008.606 3.753 1.05 2.464 1.756 1.293 2.454.12h104.534z" id="aI"/><path d="M99.206.186c.87 9.593 2.416 20.42 3.35 30.338H.04C1.056 20.517 2.894 9.858 3.827.186h95.38z" id="aK"/><path d="M108.983.1c.578 2.2.167 5.01-1.825 6.358-.845.572-1.876.79-2.88.975-.74.136-1.482.26-2.225.374h.007c0 15.686 4.772 39.707 4.772 56.224 0 16.518-3.65 47.576-3.65 47.576s4.9.199 4.557 5.435c-.128 1.962-.691 3.24-1.518 4.061H49.8c-13.792-3.265-26.54-1.49-34.175 0H3.22c-.826-.82-1.39-2.099-1.518-4.06-.342-5.237 4.557-5.436 4.557-5.436s-3.437-32.64-3.437-49.158C2.822 45.932 7.9 25.022 7.9 9.336l.029-1.449a72.723 72.723 0 0 1-2.764-.454C4.16 7.247 3.129 7.03 2.28 6.458.289 5.111-.12 2.3.459.1h108.524z" id="aM"/><path d="M100.048.167c1.034 9.895 2.563 20.72 3.298 30.338H.107C.86 20.725 2.673 10.069 3.823.167h96.225z" id="aO"/><path d="M108.409.082c-.327.895-.876 1.687-1.688 2.236-.845.572-1.876.79-2.881.975-.739.137-1.481.26-2.225.374h.008c0 15.687 4.772 39.707 4.772 56.224 0 16.518-3.65 47.576-3.65 47.576s4.899.199 4.557 5.435c-.342 5.237-3.785 5.598-7.046 5.418 0 0-25.627 6.14-47.19-.361-21.562-6.501-41.493.18-44.755.36-3.262.181-6.704-.18-7.046-5.417-.342-5.236 4.557-5.435 4.557-5.435s-3.437-32.64-3.437-49.158c0-16.517 5.078-37.427 5.078-53.113l.028-1.449a72.723 72.723 0 0 1-2.764-.454c-1.004-.185-2.036-.403-2.884-.975C1.032 1.77.483.977.157.082h108.252z" id="aQ"/><path d="M100.717.149c1.155 10.196 2.635 21.04 3.115 30.338H.074c.418-9.545 2.154-20.21 3.46-30.338h97.183z" id="aS"/><path d="M100.531.063c.106 15.694 4.77 39.358 4.77 55.689 0 16.517-3.65 47.575-3.65 47.575s4.9.199 4.558 5.435c-.342 5.237-3.785 5.598-7.046 5.418 0 0-25.627 6.14-47.19-.361-21.562-6.501-41.494.18-44.755.36-3.262.181-6.704-.18-7.046-5.417-.342-5.236 4.557-5.435 4.557-5.435s-3.437-32.64-3.437-49.158c0-16.517 5.078-37.427 5.078-53.113l.02-.993h94.141z" id="aU"/><path d="M101.413.13c1.241 10.517 2.634 21.402 2.783 30.338H.199v-.049C.199 21.141 1.8 10.476 3.206.13h98.207z" id="aW"/><path d="M100.65.045c.739 15.503 4.652 36.61 4.652 51.567 0 16.517-3.65 47.575-3.65 47.575s4.899.199 4.557 5.435c-.342 5.237-3.785 5.599-7.046 5.418 0 0-25.627 6.14-47.19-.361-21.562-6.501-41.494.18-44.755.361-3.262.18-6.704-.18-7.046-5.418-.342-5.236 4.557-5.435 4.557-5.435S1.292 66.547 1.292 50.03c0-15.441 4.438-34.721 5.016-49.984h94.341z" id="aY"/><path d="M101.903.111c1.165 9.81 2.306 19.677 2.306 27.75 0 .829-.01 1.693-.027 2.589H.259A158.654 158.654 0 0 1 .2 26.28C.199 18.228 1.405 9.134 2.642.11h99.26z" id="ba"/><path d="M100.906.026c1.128 14.97 4.396 33.777 4.396 47.446 0 16.517-3.65 47.575-3.65 47.575s4.899.199 4.557 5.435c-.342 5.237-3.785 5.599-7.046 5.418 0 0-25.627 6.14-47.19-.361-21.562-6.5-41.494.18-44.755.361-3.262.18-6.704-.18-7.046-5.418-.342-5.236 4.557-5.435 4.557-5.435S1.292 62.407 1.292 45.89c0-14.08 3.69-31.355 4.779-45.863h94.835z" id="bc"/><path d="M102.388.093c.978 8.418 1.82 16.686 1.82 23.629 0 2.043-.055 4.308-.153 6.709H.405c-.13-3.014-.206-5.832-.206-8.291 0-6.826.867-14.4 1.884-22.047h100.305z" id="be"/><path d="M101.258.008c1.337 14.187 4.044 30.883 4.044 43.324 0 16.517-3.65 47.575-3.65 47.575s4.899.199 4.557 5.436c-.342 5.237-3.785 5.598-7.046 5.417 0 0-25.627 6.14-47.19-.36-21.562-6.502-41.494.18-44.755.36-3.262.18-6.704-.18-7.046-5.417-.342-5.237 4.557-5.436 4.557-5.436S1.292 58.267 1.292 41.75c0-12.77 3.035-28.165 4.412-41.742h95.554z" id="bg"/><path d="M102.855.074c.764 6.971 1.354 13.703 1.354 19.508 0 3.18-.136 6.898-.354 10.83H.607C.357 25.853.2 21.554.2 18 .199 12.404.78 6.304 1.552.074h101.303z" id="bi"/><path d="M101.674.207c1.412 13.211 3.628 27.949 3.628 39.203 0 16.517-3.65 47.575-3.65 47.575s4.899.199 4.557 5.436c-.342 5.237-3.785 5.598-7.046 5.417 0 0-25.627 6.14-47.19-.36-21.562-6.502-41.494.18-44.755.36-3.262.18-6.704-.18-7.046-5.417-.342-5.237 4.557-5.436 4.557-5.436s-3.437-32.64-3.437-49.157c0-11.494 2.458-25.114 3.954-37.62h96.428z" id="bk"/><path d="M103.286.056c.544 5.488.923 10.734.923 15.386 0 4.274-.245 9.521-.607 14.952H.852C.466 24.334.2 18.469.2 13.86c0-4.355.353-9.015.873-13.804h102.214z" id="bm"/><path d="M102.133.189c1.386 12.086 3.169 24.985 3.169 35.081 0 16.517-3.65 47.575-3.65 47.575s4.899.2 4.557 5.436c-.342 5.237-3.785 5.598-7.046 5.417 0 0-25.627 6.14-47.19-.36-21.562-6.502-41.494.18-44.755.36-3.262.18-6.704-.18-7.046-5.417-.342-5.237 4.557-5.436 4.557-5.436s-3.437-32.64-3.437-49.157c0-10.242 1.952-22.172 3.436-33.5h97.405z" id="bo"/><path d="M103.665.037c.333 3.989.544 7.793.544 11.265 0 5.35-.383 12.223-.9 19.074H1.13C.6 22.905.199 15.369.199 9.72c0-3.095.178-6.343.468-9.683h102.998z" id="bq"/><path d="M102.614.17c1.285 10.843 2.688 22.004 2.688 30.96 0 16.517-3.65 47.576-3.65 47.576s4.899.198 4.557 5.435c-.342 5.237-3.785 5.598-7.046 5.417 0 0-25.627 6.14-47.19-.36-21.562-6.502-41.494.18-44.755.36-3.262.181-6.704-.18-7.046-5.417-.342-5.237 4.557-5.435 4.557-5.435s-3.437-32.64-3.437-49.158c0-9.006 1.51-19.319 2.883-29.378h98.44z" id="bs"/><path d="M103.966.019c.154 2.494.243 4.888.243 7.143 0 6.426-.553 15.053-1.228 23.195H1.434C.764 21.614.2 12.273.2 5.58.2 3.774.26 1.916.368.019h103.6z" id="bu"/><path d="M103.104.152c1.127 9.507 2.198 19.014 2.198 26.838 0 16.517-3.65 47.576-3.65 47.576s4.899.198 4.557 5.435c-.342 5.237-3.785 5.598-7.046 5.417 0 0-25.627 6.14-47.19-.36-21.562-6.502-41.494.18-44.755.36-3.262.181-6.704-.18-7.046-5.417-.342-5.237 4.557-5.435 4.557-5.435s-3.437-32.64-3.437-49.158c0-7.78 1.126-16.533 2.318-25.256h99.494z" id="bw"/><path d="M104.16 0c.032 1.032.049 2.04.049 3.022 0 7.525-.758 18.068-1.583 27.317H1.762C.957 20.519.199 9.199.199 1.44.199.964.203.484.21 0h103.95z" id="by"/><path d="M103.587.133c.931 8.102 1.715 16.025 1.715 22.717 0 16.518-3.65 47.576-3.65 47.576s4.899.198 4.557 5.435c-.342 5.237-3.785 5.598-7.046 5.418 0 0-25.627 6.14-47.19-.361-21.562-6.501-41.494.18-44.755.36-3.262.181-6.704-.18-7.046-5.417-.342-5.237 4.557-5.435 4.557-5.435s-3.437-32.64-3.437-49.158c0-6.554.8-13.799 1.764-21.135h100.53z" id="bA"/><path d="M103.985.2c-.078 8.62-1.04 20.668-1.957 30.338H1.89C1.06 20.94.17 8.966.007.2h103.978z" id="bC"/><path d="M104.047.115c.716 6.645 1.255 13.044 1.255 18.595 0 16.518-3.65 47.576-3.65 47.576s4.899.199 4.557 5.435c-.342 5.237-3.785 5.598-7.046 5.418 0 0-25.627 6.14-47.19-.361-21.562-6.501-41.494.18-44.755.36-3.262.181-6.704-.18-7.046-5.417-.342-5.236 4.557-5.435 4.557-5.435s-3.437-32.64-3.437-49.158c0-5.322.527-11.1 1.242-17.013h101.513z" id="bE"/><path d="M103.892.181c-.323 9.495-1.385 21.527-2.265 30.338H2.255C1.461 21.755.49 9.781.125.181h103.767z" id="bG"/><path d="M104.469.096c.495 5.157.833 10.081.833 14.474 0 16.518-3.65 47.576-3.65 47.576s4.899.199 4.557 5.435c-.342 5.237-3.785 5.598-7.046 5.418 0 0-25.627 6.14-47.19-.361-21.562-6.501-41.494.18-44.755.36-3.262.181-6.704-.18-7.046-5.417-.342-5.236 4.557-5.435 4.557-5.435s-3.437-32.64-3.437-49.158c0-4.078.31-8.423.776-12.892h102.4z" id="bI"/><path d="M103.497.163c-.526 10.366-1.696 22.558-2.51 30.338H2.418C1.685 22.753.624 10.611.092.163h103.405z" id="bK"/><path d="M104.83.06c.291 3.662.472 7.158.472 10.37 0 16.518-3.65 47.576-3.65 47.576s4.899.199 4.557 5.435c-.342 5.237-3.785 5.599-7.046 5.418 0 0-25.627 6.14-47.19-.361-21.562-6.501-41.494.18-44.755.36-3.262.182-6.704-.18-7.046-5.417-.342-5.236 4.557-5.435 4.557-5.435S1.292 25.366 1.292 8.848c0-2.818.148-5.763.393-8.789H104.83z" id="bM"/><path d="M103.043.145c-.725 11.507-2.04 24.181-2.716 30.337H2.598C1.992 24.346.807 11.722.104.145h102.939z" id="bO"/><path d="M105.113.06c.12 2.166.189 4.252.189 6.23 0 16.518-3.65 47.576-3.65 47.576s4.899.199 4.557 5.435c-.342 5.237-3.785 5.599-7.046 5.418 0 0-25.627 6.14-47.19-.361-21.562-6.501-41.494.18-44.755.361-3.262.18-6.704-.18-7.046-5.418-.342-5.236 4.557-5.435 4.557-5.435S1.292 21.226 1.292 4.708c0-1.515.043-3.067.12-4.649h103.7z" id="bQ"/><path d="M102.544.126c-1.074 14.789-2.86 29.99-2.86 29.99s.702.029 1.556.348H1.206a5.572 5.572 0 0 1 1.555-.348S1.17 14.993.151.126h102.393z" id="bS"/><path d="M105.277.04c.016.716.025 1.42.025 2.11 0 16.518-3.65 47.576-3.65 47.576s4.899.199 4.557 5.436c-.342 5.236-3.785 5.598-7.046 5.417 0 0-25.627 6.14-47.19-.36-21.562-6.502-41.494.18-44.755.36-3.262.18-6.704-.18-7.046-5.417-.342-5.237 4.557-5.436 4.557-5.436S1.292 17.086 1.292.568c0-.175 0-.35.002-.527h103.983z" id="bU"/><path d="M104.196.107a802.49 802.49 0 0 1-2.544 25.87s4.278.173 4.56 4.468H.168c.282-4.295 4.56-4.469 4.56-4.469S3.418 13.523 2.415.107h101.78z" id="bW"/><path d="M105.285.022c-.264 16.899-3.633 45.564-3.633 45.564s4.899.2 4.557 5.436c-.342 5.237-3.785 5.598-7.046 5.417 0 0-25.627 6.14-47.19-.36-21.562-6.502-41.494.18-44.755.36-3.262.18-6.704-.18-7.046-5.417-.342-5.237 4.557-5.436 4.557-5.436S1.745 17.252 1.338.022h103.947z" id="bY"/><path d="M103.85.089c-1.018 11.703-2.198 21.747-2.198 21.747s4.899.2 4.557 5.436c-.088 1.351-.383 2.378-.828 3.155H43.734c-9.248-1.516-17.796-.947-24.339 0H1c-.445-.777-.74-1.804-.828-3.155-.342-5.237 4.557-5.436 4.557-5.436S3.675 11.827 2.734.09H103.85z" id="ca"/><path d="M105.17.004c-.651 17.047-3.518 41.442-3.518 41.442s4.899.2 4.557 5.436c-.342 5.237-3.785 5.598-7.046 5.417 0 0-25.627 6.14-47.19-.36-21.562-6.502-41.494.18-44.755.36-3.262.18-6.704-.18-7.046-5.417-.342-5.237 4.557-5.436 4.557-5.436S2.183 17.272 1.474.004H105.17z" id="cc"/><path d="M103.48.07c-.914 9.845-1.828 17.627-1.828 17.627s4.899.198 4.557 5.435c-.342 5.237-3.785 5.598-7.046 5.417 0 0-4.526 1.085-11.373 1.86H62.465c-3.52-.47-7.058-1.185-10.492-2.22-21.562-6.502-41.494.18-44.755.36-3.262.181-6.704-.18-7.046-5.417-.342-5.237 4.557-5.435 4.557-5.435S3.912 9.937 3.074.07H103.48z" id="ce"/><path d="M104.98.203c-.892 16.594-3.328 37.321-3.328 37.321s4.899.2 4.557 5.436c-.342 5.237-3.785 5.598-7.046 5.417 0 0-25.627 6.14-47.19-.36-21.562-6.502-41.494.18-44.755.36-3.262.18-6.704-.18-7.046-5.417-.342-5.237 4.557-5.436 4.557-5.436S2.562 16.95 1.669.204h103.31z" id="cg"/><path d="M103.086.052c-.765 7.81-1.434 13.505-1.434 13.505s4.899.198 4.557 5.435c-.342 5.237-3.785 5.598-7.046 5.417 0 0-25.627 6.14-47.19-.36-21.562-6.502-41.494.18-44.755.36-3.262.181-6.704-.18-7.046-5.417-.342-5.237 4.557-5.435 4.557-5.435S4.131 7.874 3.433.052h99.653z" id="ci"/><path d="M104.733.185c-1.026 15.71-3.081 33.2-3.081 33.2s4.899.198 4.557 5.435c-.342 5.237-3.785 5.598-7.046 5.417 0 0-25.627 6.14-47.19-.36-21.562-6.502-41.494.18-44.755.36-3.262.181-6.704-.18-7.046-5.417-.342-5.237 4.557-5.435 4.557-5.435S2.899 16 1.909.185h102.824z" id="ck"/><path d="M102.672.033c-.577 5.613-1.02 9.384-1.02 9.384s4.899.198 4.557 5.435c-.342 5.237-3.785 5.598-7.046 5.418 0 0-25.627 6.14-47.19-.361-21.562-6.501-41.494.18-44.755.36-3.262.181-6.704-.18-7.046-5.417-.342-5.237 4.557-5.435 4.557-5.435s-.396-3.765-.92-9.384h98.863z" id="cm"/><path d="M104.445.166c-1.08 14.495-2.793 29.079-2.793 29.079s4.899.198 4.557 5.435c-.342 5.237-3.785 5.598-7.046 5.418 0 0-25.627 6.14-47.19-.362-21.562-6.5-41.494.18-44.755.362-3.262.18-6.704-.181-7.046-5.418-.342-5.237 4.557-5.435 4.557-5.435S3.201 14.733 2.183.166h102.262z" id="co"/><path d="M102.238.015c-.351 3.259-.586 5.262-.586 5.262s4.899.199 4.557 5.435c-.342 5.237-3.785 5.598-7.046 5.418 0 0-25.627 6.14-47.19-.361-21.562-6.501-41.494.18-44.755.36-3.262.181-6.704-.18-7.046-5.417-.342-5.236 4.557-5.435 4.557-5.435s-.21-2-.528-5.262h98.037z" id="cq"/><path d="M104.122.148c-1.067 13.013-2.47 24.957-2.47 24.957s4.899.198 4.557 5.435c-.342 5.237-3.785 5.598-7.046 5.418 0 0-25.627 6.14-47.19-.361-21.562-6.501-41.494.18-44.755.36-3.262.181-6.704-.18-7.046-5.417-.342-5.237 4.557-5.435 4.557-5.435S3.476 13.21 2.484.148h101.638z" id="cs"/><path d="M101.783.214l-.131 1.14s4.899.2 4.557 5.436c-.342 5.237-3.785 5.598-7.046 5.418 0 0-25.627 6.14-47.19-.361-21.562-6.501-41.494.18-44.755.36-3.262.181-6.704-.18-7.046-5.417-.342-5.236 4.557-5.435 4.557-5.435L4.611.214h97.172z" id="cu"/><path d="M103.77.13c-.999 11.307-2.118 20.835-2.118 20.835s4.899.199 4.557 5.435c-.342 5.237-3.785 5.598-7.046 5.418 0 0-25.627 6.14-47.19-.361-21.562-6.501-41.494.18-44.755.36-3.262.181-6.704-.18-7.046-5.417-.342-5.236 4.557-5.435 4.557-5.435s-1-9.496-1.921-20.836H103.77z" id="cw"/><path d="M105.912.196c.24.66.361 1.468.297 2.454-.342 5.237-3.785 5.598-7.046 5.418 0 0-25.627 6.14-47.19-.361-21.562-6.501-41.494.18-44.755.36C3.956 8.249.514 7.888.172 2.65.107 1.664.229.857.468.196h105.444z" id="cy"/><path d="M103.395.11a803.925 803.925 0 0 1-1.743 16.715s4.899.199 4.557 5.435c-.342 5.237-3.785 5.598-7.046 5.418 0 0-25.627 6.14-47.19-.361-21.562-6.501-41.494.18-44.755.36-3.262.181-6.704-.18-7.046-5.417-.342-5.236 4.557-5.435 4.557-5.435S3.962 9.539 3.152.111h100.243z" id="cA"/><path d="M105.743.177c-.91 3.648-3.925 3.91-6.799 3.75 0 0-25.627 6.14-47.19-.36-21.562-6.501-41.493.18-44.755.36-2.874.16-5.889-.102-6.798-3.75h105.542z" id="cC"/><path d="M102.996.092c-.727 7.337-1.344 12.593-1.344 12.593s4.899.199 4.557 5.435c-.342 5.237-3.785 5.599-7.046 5.418 0 0-25.627 6.14-47.19-.361-21.562-6.501-41.494.18-44.755.36-3.262.182-6.704-.18-7.046-5.417-.342-5.236 4.557-5.435 4.557-5.435S4.177 7.441 3.515.092h99.481z" id="cE"/><path d="M42.997.159C37.192 1.325 17.762 4.588.184.159h42.813z" id="cG"/><path d="M102.588.197a706.36 706.36 0 0 1-.936 8.566s4.899.199 4.557 5.435c-.342 5.237-3.785 5.599-7.046 5.418 0 0-25.627 6.14-47.19-.361-21.562-6.501-41.494.18-44.755.36-3.262.182-6.704-.18-7.046-5.417-.342-5.236 4.557-5.435 4.557-5.435S4.371 5.361 3.885.197h98.703z" id="cI"/><path d="M102.14.055c-.296 2.717-.488 4.35-.488 4.35s4.899.199 4.557 5.436c-.342 5.237-3.785 5.598-7.046 5.417 0 0-25.627 6.14-47.19-.36-21.562-6.502-41.494.18-44.755.36-3.262.18-6.704-.18-7.046-5.417-.342-5.237 4.557-5.436 4.557-5.436S4.557 2.774 4.29.055h97.85z" id="cK"/><path d="M101.678.037l-.026.228s4.899.2 4.557 5.436c-.342 5.237-3.785 5.598-7.046 5.417 0 0-25.627 6.14-47.19-.36-21.562-6.502-41.494.18-44.755.36-3.262.18-6.704-.18-7.046-5.417C-.17.464 4.729.265 4.729.265L4.705.037h96.973z" id="cM"/><path d="M106.146.018c.075.458.1.97.063 1.543-.342 5.237-3.785 5.598-7.046 5.417 0 0-25.627 6.14-47.19-.36-21.562-6.502-41.494.18-44.755.36C3.956 7.16.514 6.798.172 1.561A6.824 6.824 0 0 1 .234.018h105.912z" id="cO"/><path d="M105.007.217c-1.157 2.78-3.887 2.984-6.5 2.84 0 0-25.627 6.14-47.19-.362C47 1.393 42.746.62 38.68.217h66.328zm-81.409 0c-8.876.816-15.305 2.743-17.036 2.84-2.613.144-5.343-.06-6.5-2.84h23.536z" id="cQ"/><path d="M33.373.199c-7.7 1.151-20.69 2.333-33.362 0h33.362z" id="cS"/></defs><g fill="none" fill-rule="evenodd"><path d="M96.236 35.995c-.789-9.565-8.617-17.141-18.31-17.575.114-.755.175-1.53.175-2.318 0-8.41-6.839-15.227-15.278-15.227a15.277 15.277 0 0 0-13.93 8.967A15.227 15.227 0 0 0 40.2 7.138c-8.439 0-15.278 6.818-15.278 15.226 0 .085 0 .17.003.252-6.488 1.186-11.541 6.458-12.378 13.04.991.077 2.001.22 2.915.432 0 0 6.946 2.805 16.803 4.73 1.332 7.42 7.835 13.053 15.663 13.053A15.908 15.908 0 0 0 63.414 41.67c14.892-1.71 28.422-5.187 32.083-5.582.242-.026.49-.058.74-.093" fill="#CCBA15"/><path d="M49.443 21.714c2.23.258 4.34.97 6.279 2.119a15.916 15.916 0 0 1 4.141 3.514c3.611-6.018 10.092-9.709 17.186-9.709l.206.001c.054-.513.08-1.028.08-1.537 0-7.975-6.51-14.464-14.512-14.464-5.697 0-10.892 3.343-13.233 8.518a14.294 14.294 0 0 0-1.28 5.946c0 1.953.381 3.839 1.133 5.612m10.523 7.775a.766.766 0 0 1-.622-.318 14.4 14.4 0 0 0-4.404-4.027 14.292 14.292 0 0 0-6.085-1.957.765.765 0 0 1-.629-.442 15.792 15.792 0 0 1-1.446-6.643 15.8 15.8 0 0 1 1.416-6.574C50.783 3.808 56.525.113 62.823.113c8.846 0 16.043 7.172 16.043 15.989 0 .806-.062 1.625-.184 2.431a.762.762 0 0 1-.792.648 18.28 18.28 0 0 0-.841-.017 18.46 18.46 0 0 0-16.405 9.915.765.765 0 0 1-.678.41m-35.04-6.874h.002-.002zm-11.499 12.36c.782.088 1.534.214 2.21.37.039.01.077.021.114.036.07.029 7.168 2.87 17.017 4.758a96.832 96.832 0 0 0 8.931 1.298 14.47 14.47 0 0 0 .517-3.844c0-.077 0-.153-.002-.228a14.463 14.463 0 0 0-5.086-10.774 14.544 14.544 0 0 0-9.424-3.465 14.532 14.532 0 0 0-2.64.24c-5.975 1.092-10.563 5.709-11.637 11.608zm28.827 8.043a.737.737 0 0 1-.07-.004 97.939 97.939 0 0 1-9.706-1.377c-9.526-1.827-16.534-4.54-17.243-4.819a19.392 19.392 0 0 0-2.746-.401.766.766 0 0 1-.7-.857c.881-6.93 6.104-12.433 12.997-13.694a16.05 16.05 0 0 1 2.918-.265c3.819 0 7.52 1.36 10.419 3.83a15.98 15.98 0 0 1 4.859 17.057.765.765 0 0 1-.728.53z" fill="#93820A"/><path d="M27.704 21.601c3.604 0 7.102 1.212 9.921 3.424a16.044 16.044 0 0 1 10.129-3.422 15.818 15.818 0 0 1-.974-5.501c0-2.073.39-4.08 1.159-5.976A14.448 14.448 0 0 0 40.2 7.9c-7.787 0-14.162 6.144-14.498 13.824a16.26 16.26 0 0 1 2-.123m9.923 5.173a.765.765 0 0 1-.498-.183 14.544 14.544 0 0 0-9.424-3.465c-.895 0-1.782.08-2.638.24a.767.767 0 0 1-.905-.726c-.003-.09-.003-.183-.003-.276 0-8.816 7.197-15.989 16.043-15.989 3.285 0 6.44.982 9.128 2.84a.76.76 0 0 1 .26.941 14.294 14.294 0 0 0-1.279 5.946c0 2.1.44 4.12 1.308 6.008a.763.763 0 0 1-.767 1.077 14.53 14.53 0 0 0-10.728 3.404.766.766 0 0 1-.497.183m39.424-7.611a18.457 18.457 0 0 0-17.314 11.952 18.262 18.262 0 0 0-1.178 6.478c0 1.27.13 2.532.386 3.763a165.88 165.88 0 0 0 3.208-.313c10.234-1.103 19.948-3.1 26.376-4.422 3.242-.667 5.588-1.15 6.872-1.29-1.086-8.858-8.489-15.745-17.508-16.15a18.297 18.297 0 0 0-.842-.018M58.344 42.935a.765.765 0 0 1-.743-.58 19.927 19.927 0 0 1-.575-4.762c0-2.412.43-4.77 1.275-7.01.275-.743.608-1.488.987-2.21 3.466-6.621 10.272-10.735 17.76-10.735.33 0 .628.007.913.02 10.03.449 18.215 8.306 19.038 18.275a.763.763 0 0 1-.658.818 27.25 27.25 0 0 1-.76.095c-1.21.13-3.652.633-6.745 1.269-6.456 1.327-16.214 3.333-26.52 4.445-1.323.141-2.637.267-3.908.373a.705.705 0 0 1-.064.002" fill="#93820A"/><path d="M107.814 61.166c2.143-1.45 2.456-4.59 1.678-6.845-.598-1.74-1.678-3.266-2.568-4.877-1.14-2.06-1.985-4.291-2.443-6.604-.348-1.759.056-4.047-.903-5.613-.715-1.168-2.212-1.63-3.586-1.634-1.236-.006-2.589.233-3.86.402-.25.035-.496.067-.738.093-3.759.405-17.912 4.058-33.265 5.714-1.289.138-2.586.262-3.888.37-2.17.18-4.343.313-6.504.382a79.46 79.46 0 0 1-9.588-.3 97.014 97.014 0 0 1-9.63-1.366c-10.046-1.926-17.159-4.8-17.159-4.8a20.006 20.006 0 0 0-2.916-.432 20.4 20.4 0 0 0-1.685-.063c-1.371.005-2.868.466-3.583 1.634-.96 1.566-.555 3.854-.906 5.613-.457 2.313-1.3 4.543-2.44 6.604-.89 1.61-1.97 3.136-2.568 4.877-.779 2.254-.467 5.396 1.675 6.845.848.572 1.879.79 2.884.975.917.17 1.839.32 2.764.454l-.029 1.448c0 15.687-5.078 36.596-5.078 53.114 0 16.517 3.438 49.157 3.438 49.157s-4.9.199-4.558 5.436c.342 5.237 3.785 5.598 7.046 5.417 3.262-.18 23.193-6.862 44.755-.36 21.563 6.5 47.19.36 47.19.36 3.262.181 6.704-.18 7.046-5.417.342-5.237-4.557-5.436-4.557-5.436s3.65-31.058 3.65-47.575c0-16.518-4.772-40.538-4.772-56.225h-.008a72.077 72.077 0 0 0 2.225-.373c1.005-.186 2.036-.403 2.881-.975" fill="#EAE406"/><path d="M76.87 180.548c-7.082 0-15.259-.699-22.932-3.012-17.542-5.289-34.079-1.74-41.14-.225-1.633.35-2.712.582-3.351.618-2.223.123-7.426.41-7.852-6.13-.12-1.822.326-3.305 1.323-4.41 1.003-1.11 2.325-1.551 3.16-1.725-.504-4.93-3.365-33.509-3.365-48.507 0-8.417 1.32-18.032 2.595-27.33 1.276-9.297 2.481-18.08 2.483-25.766l-.068-1.443a.765.765 0 0 1 1.529-.072l.068 1.461.001.036c0 7.794-1.212 16.633-2.496 25.99-1.27 9.248-2.582 18.81-2.582 27.124 0 16.289 3.399 48.752 3.434 49.078a.761.761 0 0 1-.73.842c-.015 0-1.788.1-2.9 1.343-.705.786-1.016 1.89-.925 3.28.273 4.191 2.591 4.907 6.24 4.706.52-.029 1.664-.275 3.114-.586 7.177-1.54 23.984-5.147 41.905.256 21.119 6.367 46.535.41 46.789.35a.775.775 0 0 1 .221-.02c3.65.202 5.967-.515 6.24-4.706.092-1.396-.222-2.503-.933-3.29-1.108-1.228-2.874-1.333-2.892-1.333a.766.766 0 0 1-.729-.851c.037-.31 3.646-31.204 3.646-47.487 0-8.32-1.234-18.692-2.427-28.722-1.206-10.139-2.345-19.716-2.345-27.503a.764.764 0 1 1 1.53 0c0 7.697 1.134 17.23 2.335 27.323 1.198 10.074 2.437 20.492 2.437 28.902 0 14.958-3.02 42.111-3.57 46.927.836.175 2.153.616 3.153 1.724.996 1.104 1.442 2.587 1.322 4.41-.42 6.434-5.463 6.259-7.742 6.135-.898.206-7.107 1.583-15.515 2.25a114.68 114.68 0 0 1-9.032.363" fill="#93820A"/><path d="M19.039 64.114c-4.454 0-8.933-.406-13.358-1.223-1.127-.209-2.217-.449-3.173-1.094-1.869-1.264-3.145-4.322-1.97-7.724.455-1.323 1.164-2.515 1.85-3.668.259-.435.526-.885.772-1.329 1.133-2.048 1.927-4.195 2.36-6.383.113-.573.14-1.227.169-1.92.056-1.361.115-2.77.834-3.943.762-1.245 2.345-1.993 4.233-2 .568-.002 1.155.02 1.748.066a20.78 20.78 0 0 1 3.03.45.768.768 0 0 1 .113.035c.071.029 7.169 2.87 17.017 4.758 3.226.62 6.44 1.077 9.554 1.356 3.264.293 6.46.393 9.495.297 2.044-.065 4.219-.193 6.464-.38 1.259-.104 2.561-.228 3.87-.368 10.234-1.104 19.948-3.101 26.377-4.423 3.255-.67 5.607-1.153 6.887-1.29a71.343 71.343 0 0 0 1.488-.198c1.06-.151 2.16-.304 3.196-.303 1.89.007 3.474.755 4.236 2 .72 1.175.777 2.585.833 3.949.028.69.055 1.343.168 1.914.431 2.182 1.226 4.33 2.362 6.383.246.444.513.894.772 1.33.686 1.152 1.395 2.344 1.85 3.668 1.174 3.4-.103 6.459-1.972 7.723-.953.645-2.045.885-3.172 1.094-10.784 1.99-21.903 1.545-32.154-1.29-1.015-.28-2.028-.553-3.04-.825-3.898-1.049-7.93-2.133-11.824-3.641a.762.762 0 1 1 .554-1.422c3.818 1.479 7.81 2.552 11.669 3.59 1.015.273 2.032.547 3.05.829 10.028 2.773 20.909 3.208 31.467 1.259.96-.178 1.882-.377 2.59-.856 1.814-1.227 2.067-3.99 1.384-5.966-.404-1.176-1.042-2.25-1.718-3.386-.265-.445-.54-.906-.796-1.371-1.212-2.19-2.061-4.487-2.524-6.824-.135-.686-.165-1.429-.195-2.147-.048-1.17-.097-2.379-.61-3.216-.484-.79-1.581-1.265-2.936-1.27-.94-.008-1.97.144-2.973.287a91.4 91.4 0 0 1-.782.11 30.64 30.64 0 0 1-.757.094c-1.209.13-3.652.633-6.744 1.269-6.457 1.327-16.214 3.334-26.521 4.445-1.323.141-2.637.267-3.907.373a129.6 129.6 0 0 1-6.544.383 80.366 80.366 0 0 1-9.68-.302 97.95 97.95 0 0 1-9.706-1.377c-9.527-1.826-16.535-4.54-17.244-4.819a19.347 19.347 0 0 0-2.746-.401 20.08 20.08 0 0 0-1.622-.062c-1.354.005-2.45.48-2.934 1.27-.513.836-.563 2.044-.61 3.212-.03.72-.061 1.464-.199 2.152-.462 2.341-1.31 4.637-2.52 6.823-.257.465-.53.925-.796 1.37-.676 1.137-1.314 2.21-1.718 3.386-.683 1.978-.432 4.741 1.38 5.967.711.48 1.633.678 2.594.856 10.557 1.95 21.438 1.514 31.466-1.26 1.023-.282 2.045-.557 3.064-.831 3.855-1.037 7.841-2.11 11.653-3.587 1.215-.47 2.43-.952 3.645-1.433 2.634-1.043 5.359-2.121 8.077-3.09 2.768-.983 5.213-1.744 7.477-2.328 3.874-1 8.226-1.755 12.937-2.245.552-.057 1.105-.12 1.66-.182 2.596-.294 5.28-.597 7.947-.34.396.037.781.085 1.145.143a.763.763 0 1 1-.242 1.506 16.064 16.064 0 0 0-1.049-.131c-2.507-.242-5.11.053-7.629.337-.56.063-1.118.126-1.674.184-4.634.482-8.911 1.224-12.712 2.205-2.22.572-4.622 1.32-7.345 2.287-2.693.96-5.405 2.033-8.027 3.072-1.22.482-2.437.964-3.656 1.437-3.888 1.506-7.914 2.59-11.808 3.637-1.016.273-2.034.547-3.053.83-6.046 1.671-12.395 2.512-18.797 2.512" fill="#93820A"/><path d="M49.448 43.352a82.64 82.64 0 0 1-7.367-.338 97.886 97.886 0 0 1-9.706-1.377.763.763 0 1 1 .29-1.498 96.163 96.163 0 0 0 9.553 1.356c3.264.293 6.458.393 9.494.297 2.045-.065 4.22-.193 6.465-.38 1.259-.104 2.561-.228 3.87-.368a.763.763 0 0 1 .163 1.516c-1.32.141-2.635.267-3.905.373a129.6 129.6 0 0 1-6.544.383c-.762.024-1.534.036-2.313.036" fill="#93820A"/><g transform="translate(.875 35.533)"><mask id="b" fill="#fff"><use xlink:href="#a"/></mask><path d="M159.996 20.757a.22.22 0 0 1-.121-.037L-21.11-99.847a.217.217 0 0 1-.06-.302.22.22 0 0 1 .303-.06L160.118 20.358a.218.218 0 0 1-.122.399" fill="#93820A" mask="url(#b)"/></g><g transform="translate(.656 35.533)"><mask id="d" fill="#fff"><use xlink:href="#c"/></mask><path d="M160.215 24.879a.219.219 0 0 1-.122-.037L-20.89-95.725a.217.217 0 0 1-.06-.302.22.22 0 0 1 .303-.06L160.336 24.478a.217.217 0 0 1-.121.4" fill="#93820A" mask="url(#d)"/></g><g transform="translate(.656 35.533)"><mask id="f" fill="#fff"><use xlink:href="#e"/></mask><path d="M160.215 29a.22.22 0 0 1-.122-.037L-20.89-91.604a.217.217 0 0 1-.06-.302.219.219 0 0 1 .303-.06L160.336 28.6a.218.218 0 0 1-.121.399" fill="#93820A" mask="url(#f)"/></g><g transform="translate(.656 35.533)"><mask id="h" fill="#fff"><use xlink:href="#g"/></mask><path d="M160.215 33.121a.22.22 0 0 1-.122-.036L-20.89-87.482a.217.217 0 0 1-.06-.303.22.22 0 0 1 .303-.06L160.336 32.722a.218.218 0 0 1-.121.4" fill="#93820A" mask="url(#h)"/></g><g transform="translate(.656 35.533)"><mask id="j" fill="#fff"><use xlink:href="#i"/></mask><path d="M160.215 37.243a.219.219 0 0 1-.122-.037L-20.89-83.361a.217.217 0 0 1-.06-.302.22.22 0 0 1 .303-.06L160.336 36.844a.217.217 0 0 1-.121.399" fill="#93820A" mask="url(#j)"/></g><g transform="translate(.656 35.533)"><mask id="l" fill="#fff"><use xlink:href="#k"/></mask><path d="M160.215 41.364a.22.22 0 0 1-.122-.036L-20.89-79.24a.217.217 0 0 1-.06-.302.22.22 0 0 1 .303-.06L160.336 40.965a.218.218 0 0 1-.121.4" fill="#93820A" mask="url(#l)"/></g><g transform="translate(.656 35.533)"><mask id="n" fill="#fff"><use xlink:href="#m"/></mask><path d="M160.215 45.486a.219.219 0 0 1-.122-.037L-20.89-75.118a.217.217 0 0 1-.06-.303.219.219 0 0 1 .303-.06L160.336 45.087a.217.217 0 0 1-.121.399" fill="#93820A" mask="url(#n)"/></g><g transform="translate(.656 35.533)"><mask id="p" fill="#fff"><use xlink:href="#o"/></mask><path d="M160.215 49.607a.22.22 0 0 1-.122-.037L-20.89-70.997a.217.217 0 0 1-.06-.302.219.219 0 0 1 .303-.06L160.336 49.208a.218.218 0 0 1-.121.399" fill="#93820A" mask="url(#p)"/></g><g transform="translate(.656 35.533)"><mask id="r" fill="#fff"><use xlink:href="#q"/></mask><path d="M160.215 53.728a.219.219 0 0 1-.122-.037L-20.89-66.876a.217.217 0 0 1-.06-.302.22.22 0 0 1 .303-.06L160.336 53.33a.217.217 0 0 1-.121.4" fill="#93820A" mask="url(#r)"/></g><g transform="translate(.656 35.533)"><mask id="t" fill="#fff"><use xlink:href="#s"/></mask><path d="M160.215 57.85a.22.22 0 0 1-.122-.037L-20.89-62.754a.217.217 0 0 1-.06-.302.22.22 0 0 1 .303-.06L160.336 57.45a.218.218 0 0 1-.121.399" fill="#93820A" mask="url(#t)"/></g><g transform="translate(.656 35.533)"><mask id="v" fill="#fff"><use xlink:href="#u"/></mask><path d="M160.215 61.971a.219.219 0 0 1-.122-.037L-20.89-58.633a.217.217 0 0 1-.06-.302.22.22 0 0 1 .303-.06L160.336 61.572a.217.217 0 0 1-.121.4" fill="#93820A" mask="url(#v)"/></g><g transform="translate(.656 35.533)"><mask id="x" fill="#fff"><use xlink:href="#w"/></mask><path d="M160.215 66.092a.22.22 0 0 1-.122-.036L-20.89-54.511a.217.217 0 0 1-.06-.303.22.22 0 0 1 .303-.06L160.336 65.693a.218.218 0 0 1-.121.4" fill="#93820A" mask="url(#x)"/></g><g transform="translate(.656 35.533)"><mask id="z" fill="#fff"><use xlink:href="#y"/></mask><path d="M160.215 70.214a.219.219 0 0 1-.122-.037L-20.89-50.39a.217.217 0 0 1-.06-.302.22.22 0 0 1 .303-.06L160.336 69.815a.217.217 0 0 1-.121.399" fill="#93820A" mask="url(#z)"/></g><g transform="translate(.656 35.533)"><mask id="B" fill="#fff"><use xlink:href="#A"/></mask><path d="M160.215 74.335a.22.22 0 0 1-.122-.036L-20.89-46.27a.217.217 0 0 1-.06-.302.22.22 0 0 1 .303-.06L160.336 73.936a.218.218 0 0 1-.121.4" fill="#93820A" mask="url(#B)"/></g><g transform="translate(6.122 35.533)"><mask id="D" fill="#fff"><use xlink:href="#C"/></mask><path d="M-26.236 7.487a.218.218 0 0 1-.042-.432l150.98-29.902a.218.218 0 0 1 .085.427L-26.192 7.483a.223.223 0 0 1-.043.004" fill="#93820A" mask="url(#D)"/></g><g transform="translate(.656 35.533)"><mask id="F" fill="#fff"><use xlink:href="#E"/></mask><path d="M160.215 78.457a.219.219 0 0 1-.122-.037L-20.89-42.147a.217.217 0 0 1-.06-.302.22.22 0 0 1 .303-.06L160.336 78.057a.217.217 0 0 1-.121.399" fill="#93820A" mask="url(#F)"/></g><g transform="translate(4.81 35.533)"><mask id="H" fill="#fff"><use xlink:href="#G"/></mask><path d="M-24.924 11.608a.218.218 0 0 1-.042-.431l150.98-29.903a.218.218 0 0 1 .085.428L-24.88 11.604a.223.223 0 0 1-.043.004" fill="#93820A" mask="url(#H)"/></g><g transform="translate(.656 35.533)"><mask id="J" fill="#fff"><use xlink:href="#I"/></mask><path d="M160.215 82.578a.22.22 0 0 1-.122-.037L-20.89-38.026a.217.217 0 0 1-.06-.302.22.22 0 0 1 .303-.06L160.336 82.179a.218.218 0 0 1-.121.399" fill="#93820A" mask="url(#J)"/></g><g transform="translate(2.624 35.533)"><mask id="L" fill="#fff"><use xlink:href="#K"/></mask><path d="M-22.738 15.73a.218.218 0 0 1-.042-.432L128.2-14.604a.218.218 0 1 1 .086.427l-150.98 29.902a.223.223 0 0 1-.044.005" fill="#93820A" mask="url(#L)"/></g><g transform="translate(.656 35.533)"><mask id="N" fill="#fff"><use xlink:href="#M"/></mask><path d="M160.215 86.7a.219.219 0 0 1-.122-.037L-20.89-33.905a.217.217 0 0 1-.06-.302.22.22 0 0 1 .303-.06L160.336 86.3a.217.217 0 0 1-.121.4" fill="#93820A" mask="url(#N)"/></g><g transform="translate(.875 35.533)"><mask id="P" fill="#fff"><use xlink:href="#O"/></mask><path d="M-20.989 19.851a.218.218 0 0 1-.042-.432l150.98-29.902a.218.218 0 1 1 .086.428l-150.98 29.902a.223.223 0 0 1-.044.004" fill="#93820A" mask="url(#P)"/></g><g transform="translate(.656 35.533)"><mask id="R" fill="#fff"><use xlink:href="#Q"/></mask><path d="M160.215 90.82a.22.22 0 0 1-.122-.036L-20.89-29.783a.217.217 0 0 1-.06-.302.219.219 0 0 1 .303-.06L160.336 90.422a.218.218 0 0 1-.121.399" fill="#93820A" mask="url(#R)"/></g><g transform="translate(.656 35.533)"><mask id="T" fill="#fff"><use xlink:href="#S"/></mask><path d="M-20.77 23.973a.218.218 0 0 1-.042-.431l150.98-29.903a.218.218 0 1 1 .086.427L-20.727 23.968a.207.207 0 0 1-.043.005" fill="#93820A" mask="url(#T)"/></g><g transform="translate(.656 35.533)"><mask id="V" fill="#fff"><use xlink:href="#U"/></mask><path d="M160.215 94.942a.219.219 0 0 1-.122-.036L-20.89-25.662a.217.217 0 0 1-.06-.302.22.22 0 0 1 .303-.06L160.336 94.543a.217.217 0 0 1-.121.4" fill="#93820A" mask="url(#V)"/></g><g transform="translate(.656 35.533)"><mask id="X" fill="#fff"><use xlink:href="#W"/></mask><path d="M-20.77 28.094a.218.218 0 0 1-.042-.432L130.168-2.24a.218.218 0 1 1 .086.428L-20.727 28.09a.223.223 0 0 1-.043.004" fill="#93820A" mask="url(#X)"/></g><g transform="translate(.656 35.533)"><mask id="Z" fill="#fff"><use xlink:href="#Y"/></mask><path d="M160.215 99.064a.22.22 0 0 1-.122-.037L-20.89-21.54a.217.217 0 0 1-.06-.302.22.22 0 0 1 .303-.06L160.336 98.665a.218.218 0 0 1-.121.399" fill="#93820A" mask="url(#Z)"/></g><g transform="translate(.656 37.276)"><mask id="ab" fill="#fff"><use xlink:href="#aa"/></mask><path d="M-20.77 30.472a.218.218 0 0 1-.042-.431L130.168.138a.218.218 0 0 1 .085.427l-150.98 29.903a.207.207 0 0 1-.043.004" fill="#93820A" mask="url(#ab)"/></g><g transform="translate(.656 35.533)"><mask id="ad" fill="#fff"><use xlink:href="#ac"/></mask><path d="M160.215 103.185a.219.219 0 0 1-.122-.037L-20.89-17.419a.217.217 0 0 1-.06-.302.22.22 0 0 1 .303-.06l180.984 120.567a.217.217 0 0 1-.121.4" fill="#93820A" mask="url(#ad)"/></g><g transform="translate(.656 41.416)"><mask id="af" fill="#fff"><use xlink:href="#ae"/></mask><path d="M-20.77 30.454a.218.218 0 0 1-.042-.432L130.168.12a.218.218 0 1 1 .086.427L-20.727 30.45a.223.223 0 0 1-.043.004" fill="#93820A" mask="url(#af)"/></g><g transform="translate(.656 35.533)"><mask id="ah" fill="#fff"><use xlink:href="#ag"/></mask><path d="M160.215 107.306a.22.22 0 0 1-.122-.036L-20.89-13.298a.217.217 0 0 1-.06-.302.22.22 0 0 1 .303-.06l180.984 120.567a.218.218 0 0 1-.121.4" fill="#93820A" mask="url(#ah)"/></g><g transform="translate(.656 45.556)"><mask id="aj" fill="#fff"><use xlink:href="#ai"/></mask><path d="M-20.77 30.435a.218.218 0 0 1-.042-.431L130.168.1a.218.218 0 1 1 .086.428L-20.727 30.43a.207.207 0 0 1-.043.004" fill="#93820A" mask="url(#aj)"/></g><g transform="translate(.656 35.533)"><mask id="al" fill="#fff"><use xlink:href="#ak"/></mask><path d="M160.215 111.428a.219.219 0 0 1-.122-.037L-20.89-9.176a.217.217 0 0 1-.06-.302.22.22 0 0 1 .303-.06l180.984 120.567a.217.217 0 0 1-.121.399" fill="#93820A" mask="url(#al)"/></g><g transform="translate(.656 49.696)"><mask id="an" fill="#fff"><use xlink:href="#am"/></mask><path d="M-20.77 30.417a.218.218 0 0 1-.042-.432L130.168.083a.218.218 0 1 1 .086.427L-20.727 30.413a.223.223 0 0 1-.043.004" fill="#93820A" mask="url(#an)"/></g><g transform="translate(.656 35.533)"><mask id="ap" fill="#fff"><use xlink:href="#ao"/></mask><path d="M160.215 115.55a.22.22 0 0 1-.122-.038L-20.89-5.055a.217.217 0 0 1-.06-.302.22.22 0 0 1 .303-.06L160.336 115.15a.218.218 0 0 1-.121.4" fill="#93820A" mask="url(#ap)"/></g><g transform="translate(.656 53.836)"><mask id="ar" fill="#fff"><use xlink:href="#aq"/></mask><path d="M-20.77 30.398a.218.218 0 0 1-.042-.431L130.168.064a.218.218 0 1 1 .086.428L-20.727 30.394a.207.207 0 0 1-.043.004" fill="#93820A" mask="url(#ar)"/></g><g transform="translate(.656 35.533)"><mask id="at" fill="#fff"><use xlink:href="#as"/></mask><path d="M160.215 119.67a.219.219 0 0 1-.122-.036L-20.89-.933a.217.217 0 0 1-.06-.302.22.22 0 0 1 .303-.06l180.984 120.567a.217.217 0 0 1-.121.399" fill="#93820A" mask="url(#at)"/></g><g transform="translate(.875 57.976)"><mask id="av" fill="#fff"><use xlink:href="#au"/></mask><path d="M-20.989 30.38a.218.218 0 0 1-.042-.432L129.949.046a.218.218 0 1 1 .086.427l-150.98 29.903a.223.223 0 0 1-.044.004" fill="#93820A" mask="url(#av)"/></g><g transform="translate(.656 38.148)"><mask id="ax" fill="#fff"><use xlink:href="#aw"/></mask><path d="M160.215 121.177a.219.219 0 0 1-.122-.036L-20.89.573a.217.217 0 0 1-.06-.302.22.22 0 0 1 .303-.06l180.984 120.567a.217.217 0 0 1-.121.4" fill="#93820A" mask="url(#ax)"/></g><g transform="translate(5.684 62.116)"><mask id="az" fill="#fff"><use xlink:href="#ay"/></mask><path d="M-25.798 30.361a.218.218 0 0 1-.042-.431L125.14.027a.218.218 0 1 1 .085.428l-150.98 29.902a.207.207 0 0 1-.043.004" fill="#93820A" mask="url(#az)"/></g><g transform="translate(.656 42.288)"><mask id="aB" fill="#fff"><use xlink:href="#aA"/></mask><path d="M160.215 121.159a.22.22 0 0 1-.122-.037L-20.89.555a.217.217 0 0 1-.06-.302.22.22 0 0 1 .303-.06L160.336 120.76a.218.218 0 0 1-.121.399" fill="#93820A" mask="url(#aB)"/></g><g transform="translate(5.028 66.256)"><mask id="aD" fill="#fff"><use xlink:href="#aC"/></mask><path d="M-25.143 30.343a.218.218 0 0 1-.042-.432L125.795.01a.218.218 0 1 1 .086.427L-25.099 30.34a.207.207 0 0 1-.044.004" fill="#93820A" mask="url(#aD)"/></g><g transform="translate(.656 46.428)"><mask id="aF" fill="#fff"><use xlink:href="#aE"/></mask><path d="M160.215 121.14a.219.219 0 0 1-.122-.036L-20.89.536a.217.217 0 0 1-.06-.302.22.22 0 0 1 .303-.06l180.984 120.567a.217.217 0 0 1-.121.4" fill="#93820A" mask="url(#aF)"/></g><g transform="translate(4.591 70.178)"><mask id="aH" fill="#fff"><use xlink:href="#aG"/></mask><path d="M-24.705 30.542a.218.218 0 0 1-.042-.431L126.232.208a.218.218 0 0 1 .085.427l-150.98 29.903a.223.223 0 0 1-.043.004" fill="#93820A" mask="url(#aH)"/></g><g transform="translate(.656 50.568)"><mask id="aJ" fill="#fff"><use xlink:href="#aI"/></mask><path d="M160.215 121.122a.22.22 0 0 1-.122-.037L-20.89.518a.217.217 0 0 1-.06-.302.22.22 0 0 1 .303-.06l180.984 120.567a.218.218 0 0 1-.121.399" fill="#93820A" mask="url(#aJ)"/></g><g transform="translate(4.154 74.318)"><mask id="aL" fill="#fff"><use xlink:href="#aK"/></mask><path d="M-24.268 30.524a.218.218 0 0 1-.042-.432L126.67.19a.218.218 0 1 1 .086.427L-24.225 30.52a.223.223 0 0 1-.043.005" fill="#93820A" mask="url(#aL)"/></g><g transform="translate(.656 54.708)"><mask id="aN" fill="#fff"><use xlink:href="#aM"/></mask><path d="M160.215 121.103a.219.219 0 0 1-.122-.036L-20.89.499a.217.217 0 0 1-.06-.302.22.22 0 0 1 .303-.06l180.984 120.567a.217.217 0 0 1-.121.4" fill="#93820A" mask="url(#aN)"/></g><g transform="translate(3.717 78.458)"><mask id="aP" fill="#fff"><use xlink:href="#aO"/></mask><path d="M-23.83 30.505a.218.218 0 0 1-.043-.431L127.107.17a.218.218 0 1 1 .086.428L-23.787 30.5a.223.223 0 0 1-.044.004" fill="#93820A" mask="url(#aP)"/></g><g transform="translate(1.093 58.848)"><mask id="aR" fill="#fff"><use xlink:href="#aQ"/></mask><path d="M159.777 121.085a.22.22 0 0 1-.121-.037L-21.328.481a.217.217 0 0 1-.06-.302.22.22 0 0 1 .302-.06L159.9 120.686a.218.218 0 0 1-.122.399" fill="#93820A" mask="url(#aR)"/></g><g transform="translate(3.498 82.597)"><mask id="aT" fill="#fff"><use xlink:href="#aS"/></mask><path d="M-23.612 30.487a.218.218 0 0 1-.042-.432L127.325.153a.218.218 0 1 1 .085.427L-23.57 30.482a.223.223 0 0 1-.043.005" fill="#93820A" mask="url(#aT)"/></g><g transform="translate(2.186 62.987)"><mask id="aV" fill="#fff"><use xlink:href="#aU"/></mask><path d="M158.684 121.066a.219.219 0 0 1-.121-.037L-22.422.462a.217.217 0 0 1-.06-.302.22.22 0 0 1 .303-.06l180.985 120.567a.217.217 0 0 1-.122.4" fill="#93820A" mask="url(#aV)"/></g><g transform="translate(3.28 86.737)"><mask id="aX" fill="#fff"><use xlink:href="#aW"/></mask><path d="M-23.394 30.468a.218.218 0 0 1-.042-.431L127.544.134a.218.218 0 1 1 .086.428L-23.35 30.464a.223.223 0 0 1-.044.004" fill="#93820A" mask="url(#aX)"/></g><g transform="translate(2.186 67.127)"><mask id="aZ" fill="#fff"><use xlink:href="#aY"/></mask><path d="M158.684 121.048a.22.22 0 0 1-.121-.037L-22.422.444a.217.217 0 0 1-.06-.302.22.22 0 0 1 .303-.06l180.985 120.567a.218.218 0 0 1-.122.399" fill="#93820A" mask="url(#aZ)"/></g><g transform="translate(3.28 90.877)"><mask id="bb" fill="#fff"><use xlink:href="#ba"/></mask><path d="M-23.394 30.45a.218.218 0 0 1-.042-.432L127.544.116a.218.218 0 0 1 .085.427L-23.35 30.445a.223.223 0 0 1-.043.005" fill="#93820A" mask="url(#bb)"/></g><g transform="translate(2.186 71.267)"><mask id="bd" fill="#fff"><use xlink:href="#bc"/></mask><path d="M158.684 121.03a.219.219 0 0 1-.121-.038L-22.422.425a.217.217 0 0 1-.06-.302.22.22 0 0 1 .303-.06L158.806 120.63a.217.217 0 0 1-.122.4" fill="#93820A" mask="url(#bd)"/></g><g transform="translate(3.28 95.017)"><mask id="bf" fill="#fff"><use xlink:href="#be"/></mask><path d="M-23.394 30.431a.218.218 0 0 1-.042-.431L127.544.097a.218.218 0 1 1 .086.428L-23.35 30.427a.223.223 0 0 1-.044.004" fill="#93820A" mask="url(#bf)"/></g><g transform="translate(2.186 75.407)"><mask id="bh" fill="#fff"><use xlink:href="#bg"/></mask><path d="M158.684 121.01a.22.22 0 0 1-.121-.036L-22.422.407a.217.217 0 0 1-.06-.302.22.22 0 0 1 .303-.06l180.985 120.567a.218.218 0 0 1-.122.399" fill="#93820A" mask="url(#bh)"/></g><g transform="translate(3.28 99.157)"><mask id="bj" fill="#fff"><use xlink:href="#bi"/></mask><path d="M-23.394 30.413a.218.218 0 0 1-.042-.432L127.544.079a.218.218 0 1 1 .086.427L-23.35 30.408a.223.223 0 0 1-.044.005" fill="#93820A" mask="url(#bj)"/></g><g transform="translate(2.186 79.33)"><mask id="bl" fill="#fff"><use xlink:href="#bk"/></mask><path d="M158.684 121.21a.219.219 0 0 1-.121-.037L-22.422.606a.217.217 0 0 1-.06-.302.22.22 0 0 1 .303-.06L158.806 120.81a.217.217 0 0 1-.122.4" fill="#93820A" mask="url(#bl)"/></g><g transform="translate(3.28 103.297)"><mask id="bn" fill="#fff"><use xlink:href="#bm"/></mask><path d="M-23.394 30.394a.218.218 0 0 1-.042-.431L127.544.06a.218.218 0 1 1 .086.428L-23.35 30.39a.223.223 0 0 1-.044.004" fill="#93820A" mask="url(#bn)"/></g><g transform="translate(2.186 83.469)"><mask id="bp" fill="#fff"><use xlink:href="#bo"/></mask><path d="M158.684 121.192a.22.22 0 0 1-.121-.037L-22.422.588a.217.217 0 0 1-.06-.302.22.22 0 0 1 .303-.06l180.985 120.567a.218.218 0 0 1-.122.399" fill="#93820A" mask="url(#bp)"/></g><g transform="translate(3.28 107.437)"><mask id="br" fill="#fff"><use xlink:href="#bq"/></mask><path d="M-23.394 30.376a.218.218 0 0 1-.042-.432L127.544.042a.218.218 0 0 1 .085.427L-23.35 30.371a.223.223 0 0 1-.043.005" fill="#93820A" mask="url(#br)"/></g><g transform="translate(2.186 87.609)"><mask id="bt" fill="#fff"><use xlink:href="#bs"/></mask><path d="M158.684 121.173a.219.219 0 0 1-.121-.036L-22.422.569a.217.217 0 0 1-.06-.302.22.22 0 0 1 .303-.06l180.985 120.567a.217.217 0 0 1-.122.4" fill="#93820A" mask="url(#bt)"/></g><g transform="translate(3.28 111.577)"><mask id="bv" fill="#fff"><use xlink:href="#bu"/></mask><path d="M-23.394 30.357a.218.218 0 0 1-.042-.432L127.544.024a.218.218 0 0 1 .085.428L-23.35 30.353a.223.223 0 0 1-.043.004" fill="#93820A" mask="url(#bv)"/></g><g transform="translate(2.186 91.749)"><mask id="bx" fill="#fff"><use xlink:href="#bw"/></mask><path d="M158.684 121.155a.22.22 0 0 1-.121-.037L-22.422.551a.217.217 0 0 1-.06-.302.219.219 0 0 1 .303-.06l180.985 120.567a.218.218 0 0 1-.122.399" fill="#93820A" mask="url(#bx)"/></g><g transform="translate(3.28 115.717)"><mask id="bz" fill="#fff"><use xlink:href="#by"/></mask><path d="M-23.394 30.339a.218.218 0 0 1-.042-.431L127.544.004a.218.218 0 1 1 .086.427L-23.35 30.334a.207.207 0 0 1-.044.005" fill="#93820A" mask="url(#bz)"/></g><g transform="translate(2.186 95.889)"><mask id="bB" fill="#fff"><use xlink:href="#bA"/></mask><path d="M158.684 121.136a.219.219 0 0 1-.121-.036L-22.422.532a.217.217 0 0 1-.06-.302.22.22 0 0 1 .303-.06l180.985 120.567a.217.217 0 0 1-.122.4" fill="#93820A" mask="url(#bB)"/></g><g transform="translate(3.498 119.639)"><mask id="bD" fill="#fff"><use xlink:href="#bC"/></mask><path d="M-23.612 30.538a.218.218 0 0 1-.042-.432L127.325.204a.218.218 0 1 1 .085.428L-23.57 30.534a.223.223 0 0 1-.043.004" fill="#93820A" mask="url(#bD)"/></g><g transform="translate(2.186 100.029)"><mask id="bF" fill="#fff"><use xlink:href="#bE"/></mask><path d="M158.684 121.118a.22.22 0 0 1-.121-.037L-22.422.514a.217.217 0 0 1-.06-.302.22.22 0 0 1 .303-.06l180.985 120.567a.218.218 0 0 1-.122.399" fill="#93820A" mask="url(#bF)"/></g><g transform="translate(3.498 123.779)"><mask id="bH" fill="#fff"><use xlink:href="#bG"/></mask><path d="M-23.612 30.52a.218.218 0 0 1-.042-.431L127.325.185a.218.218 0 1 1 .085.427L-23.57 30.514a.207.207 0 0 1-.043.004" fill="#93820A" mask="url(#bH)"/></g><g transform="translate(2.186 104.169)"><mask id="bJ" fill="#fff"><use xlink:href="#bI"/></mask><path d="M158.684 121.1a.219.219 0 0 1-.121-.038L-22.422.495a.217.217 0 0 1-.06-.302.22.22 0 0 1 .303-.06L158.806 120.7a.217.217 0 0 1-.122.4" fill="#93820A" mask="url(#bJ)"/></g><g transform="translate(3.717 127.918)"><mask id="bL" fill="#fff"><use xlink:href="#bK"/></mask><path d="M-23.83 30.501a.218.218 0 0 1-.042-.432L127.107.167a.218.218 0 1 1 .085.428l-150.98 29.902a.223.223 0 0 1-.044.004" fill="#93820A" mask="url(#bL)"/></g><g transform="translate(2.186 108.308)"><mask id="bN" fill="#fff"><use xlink:href="#bM"/></mask><path d="M158.672 121.1a.22.22 0 0 1-.122-.037L-22.41.458a.217.217 0 0 1-.06-.302.219.219 0 0 1 .304-.06L158.794 120.7a.217.217 0 0 1-.122.398" fill="#93820A" mask="url(#bN)"/></g><g transform="translate(3.935 132.058)"><mask id="bP" fill="#fff"><use xlink:href="#bO"/></mask><path d="M-24.05 30.482a.218.218 0 0 1-.042-.431L126.89.149a.218.218 0 0 1 .085.427l-150.98 29.902a.207.207 0 0 1-.043.004" fill="#93820A" mask="url(#bP)"/></g><g transform="translate(2.186 112.448)"><mask id="bR" fill="#fff"><use xlink:href="#bQ"/></mask><path d="M158.684 121.062a.219.219 0 0 1-.121-.037L-22.422.458a.217.217 0 0 1-.06-.302.22.22 0 0 1 .303-.06l180.985 120.567a.217.217 0 0 1-.122.4" fill="#93820A" mask="url(#bR)"/></g><g transform="translate(4.154 136.198)"><mask id="bT" fill="#fff"><use xlink:href="#bS"/></mask><path d="M-24.268 30.464a.218.218 0 0 1-.042-.432L126.67.13a.218.218 0 1 1 .086.428L-24.225 30.46a.223.223 0 0 1-.043.004" fill="#93820A" mask="url(#bT)"/></g><g transform="translate(2.186 116.588)"><mask id="bV" fill="#fff"><use xlink:href="#bU"/></mask><path d="M158.684 121.044a.22.22 0 0 1-.121-.037L-22.422.44a.217.217 0 0 1-.06-.302.22.22 0 0 1 .303-.06l180.985 120.567a.218.218 0 0 1-.122.399" fill="#93820A" mask="url(#bV)"/></g><g transform="translate(2.186 140.338)"><mask id="bX" fill="#fff"><use xlink:href="#bW"/></mask><path d="M-22.3 30.445a.218.218 0 0 1-.042-.431L128.637.112a.218.218 0 1 1 .085.427l-150.98 29.902a.207.207 0 0 1-.043.004" fill="#93820A" mask="url(#bX)"/></g><g transform="translate(2.186 120.728)"><mask id="bZ" fill="#fff"><use xlink:href="#bY"/></mask><path d="M158.684 121.025a.219.219 0 0 1-.121-.037L-22.422.421a.217.217 0 0 1-.06-.302.22.22 0 0 1 .303-.06l180.985 120.567a.217.217 0 0 1-.122.4" fill="#93820A" mask="url(#bZ)"/></g><g transform="translate(2.186 144.478)"><mask id="cb" fill="#fff"><use xlink:href="#ca"/></mask><path d="M-22.3 30.427a.218.218 0 0 1-.042-.432L128.637.093a.218.218 0 1 1 .085.428l-150.98 29.902a.223.223 0 0 1-.043.004" fill="#93820A" mask="url(#cb)"/></g><g transform="translate(2.186 124.868)"><mask id="cd" fill="#fff"><use xlink:href="#cc"/></mask><path d="M158.684 121.007a.22.22 0 0 1-.121-.037L-22.422.403a.217.217 0 0 1-.06-.302.22.22 0 0 1 .303-.06l180.985 120.567a.218.218 0 0 1-.122.399" fill="#93820A" mask="url(#cd)"/></g><g transform="translate(2.186 148.618)"><mask id="cf" fill="#fff"><use xlink:href="#ce"/></mask><path d="M-22.3 30.408a.218.218 0 0 1-.042-.431L128.637.075a.218.218 0 1 1 .085.427l-150.98 29.902a.207.207 0 0 1-.043.004" fill="#93820A" mask="url(#cf)"/></g><g transform="translate(2.186 128.79)"><mask id="ch" fill="#fff"><use xlink:href="#cg"/></mask><path d="M158.684 121.206a.22.22 0 0 1-.121-.036L-22.422.602a.217.217 0 0 1-.06-.302.22.22 0 0 1 .303-.06l180.985 120.567a.218.218 0 0 1-.122.4" fill="#93820A" mask="url(#ch)"/></g><g transform="translate(2.186 152.758)"><mask id="cj" fill="#fff"><use xlink:href="#ci"/></mask><path d="M-22.3 30.39a.218.218 0 0 1-.042-.432L128.637.056a.218.218 0 1 1 .085.428l-150.98 29.902a.223.223 0 0 1-.043.004" fill="#93820A" mask="url(#cj)"/></g><g transform="translate(2.186 132.93)"><mask id="cl" fill="#fff"><use xlink:href="#ck"/></mask><path d="M158.684 121.188a.219.219 0 0 1-.121-.037L-22.422.584a.217.217 0 0 1-.06-.302.22.22 0 0 1 .303-.06l180.985 120.567a.217.217 0 0 1-.122.399" fill="#93820A" mask="url(#cl)"/></g><g transform="translate(2.186 156.898)"><mask id="cn" fill="#fff"><use xlink:href="#cm"/></mask><path d="M-22.3 30.371a.218.218 0 0 1-.042-.431L128.637.038a.218.218 0 1 1 .085.427l-150.98 29.902a.223.223 0 0 1-.043.004" fill="#93820A" mask="url(#cn)"/></g><g transform="translate(2.186 137.07)"><mask id="cp" fill="#fff"><use xlink:href="#co"/></mask><path d="M158.684 121.17a.22.22 0 0 1-.121-.038L-22.422.565a.217.217 0 0 1-.06-.302.22.22 0 0 1 .303-.06L158.806 120.77a.218.218 0 0 1-.122.4" fill="#93820A" mask="url(#cp)"/></g><g transform="translate(2.186 161.038)"><mask id="cr" fill="#fff"><use xlink:href="#cq"/></mask><path d="M-22.3 30.353a.218.218 0 0 1-.042-.432L128.637.02a.218.218 0 1 1 .085.427L-22.257 30.35a.207.207 0 0 1-.043.004" fill="#93820A" mask="url(#cr)"/></g><g transform="translate(2.186 141.21)"><mask id="ct" fill="#fff"><use xlink:href="#cs"/></mask><path d="M158.684 121.15a.219.219 0 0 1-.121-.036L-22.422.546a.217.217 0 0 1-.06-.302.22.22 0 0 1 .303-.06l180.985 120.568a.217.217 0 0 1-.122.399" fill="#93820A" mask="url(#ct)"/></g><g transform="translate(2.186 164.96)"><mask id="cv" fill="#fff"><use xlink:href="#cu"/></mask><path d="M-22.3 30.552a.218.218 0 0 1-.043-.431L128.638.218a.218.218 0 0 1 .085.428l-150.98 29.902a.223.223 0 0 1-.043.004" fill="#93820A" mask="url(#cv)"/></g><g transform="translate(2.186 145.35)"><mask id="cx" fill="#fff"><use xlink:href="#cw"/></mask><path d="M158.684 121.132a.22.22 0 0 1-.121-.037L-22.422.528a.217.217 0 0 1-.06-.302.22.22 0 0 1 .303-.06l180.985 120.567a.218.218 0 0 1-.122.4" fill="#93820A" mask="url(#cx)"/></g><g transform="translate(2.186 169.1)"><mask id="cz" fill="#fff"><use xlink:href="#cy"/></mask><path d="M-22.3 30.534a.218.218 0 0 1-.042-.432L128.637.2a.218.218 0 1 1 .085.427L-22.257 30.53a.223.223 0 0 1-.043.004" fill="#93820A" mask="url(#cz)"/></g><g transform="translate(2.186 149.49)"><mask id="cB" fill="#fff"><use xlink:href="#cA"/></mask><path d="M158.684 121.114a.219.219 0 0 1-.121-.037L-22.422.51a.217.217 0 0 1-.06-.303.22.22 0 0 1 .303-.06l180.985 120.568a.217.217 0 0 1-.122.399" fill="#93820A" mask="url(#cB)"/></g><g transform="translate(2.405 173.24)"><mask id="cD" fill="#fff"><use xlink:href="#cC"/></mask><path d="M-22.519 30.515a.218.218 0 0 1-.042-.431L128.419.18a.218.218 0 1 1 .086.428L-22.476 30.511a.223.223 0 0 1-.043.004" fill="#93820A" mask="url(#cD)"/></g><g transform="translate(2.186 153.63)"><mask id="cF" fill="#fff"><use xlink:href="#cE"/></mask><path d="M158.684 121.095a.22.22 0 0 1-.121-.037L-22.422.491a.217.217 0 0 1-.06-.302.22.22 0 0 1 .303-.06l180.985 120.567a.218.218 0 0 1-.122.4" fill="#93820A" mask="url(#cF)"/></g><g transform="translate(56.625 177.38)"><mask id="cH" fill="#fff"><use xlink:href="#cG"/></mask><path d="M-76.74 30.497a.218.218 0 0 1-.042-.432L74.2.163a.218.218 0 1 1 .085.427l-150.98 29.903a.223.223 0 0 1-.043.004" fill="#93820A" mask="url(#cH)"/></g><g transform="translate(2.186 157.551)"><mask id="cJ" fill="#fff"><use xlink:href="#cI"/></mask><path d="M158.922 121.2a.22.22 0 0 1-.121-.037L-22.184.596a.217.217 0 0 1-.06-.302.22.22 0 0 1 .303-.06L159.044 120.8a.217.217 0 0 1-.122.399" fill="#93820A" mask="url(#cJ)"/></g><g transform="translate(2.186 161.91)"><mask id="cL" fill="#fff"><use xlink:href="#cK"/></mask><path d="M158.684 121.058a.22.22 0 0 1-.121-.037L-22.422.454a.217.217 0 0 1-.06-.302.22.22 0 0 1 .303-.06l180.985 120.567a.218.218 0 0 1-.122.399" fill="#93820A" mask="url(#cL)"/></g><g transform="translate(2.186 166.05)"><mask id="cN" fill="#fff"><use xlink:href="#cM"/></mask><path d="M158.684 121.04a.219.219 0 0 1-.121-.037L-22.422.436a.217.217 0 0 1-.06-.303.22.22 0 0 1 .303-.06l180.985 120.568a.217.217 0 0 1-.122.399" fill="#93820A" mask="url(#cN)"/></g><g transform="translate(2.186 170.189)"><mask id="cP" fill="#fff"><use xlink:href="#cO"/></mask><path d="M158.684 121.021a.22.22 0 0 1-.121-.037L-22.422.417a.217.217 0 0 1-.06-.302.22.22 0 0 1 .303-.06l180.985 120.567a.218.218 0 0 1-.122.399" fill="#93820A" mask="url(#cP)"/></g><g transform="translate(2.842 174.111)"><mask id="cR" fill="#fff"><use xlink:href="#cQ"/></mask><path d="M158.028 121.22a.219.219 0 0 1-.121-.036L-23.077.616a.217.217 0 0 1-.06-.302.22.22 0 0 1 .302-.06L158.15 120.821a.217.217 0 0 1-.122.4" fill="#93820A" mask="url(#cR)"/></g><g transform="translate(60.998 178.25)"><mask id="cT" fill="#fff"><use xlink:href="#cS"/></mask><path d="M99.873 121.202a.22.22 0 0 1-.122-.037L-81.233.598a.217.217 0 0 1-.06-.302.219.219 0 0 1 .303-.06L99.995 120.803a.218.218 0 0 1-.122.399" fill="#93820A" mask="url(#cT)"/></g><path d="M64.756 171.691c-4.587 0-10.247-.861-18.609-3.54-13.512-4.33-29.346.306-29.504.354a.762.762 0 1 1-.44-1.46c.664-.2 16.438-4.823 30.413-.346 15.018 4.811 20.792 3.675 28.101 2.236 3.854-.759 8.224-1.626 14.513-1.606a.763.763 0 1 1-.001 1.524h-.134c-6.067 0-10.14.802-14.081 1.578-3.303.65-6.4 1.26-10.258 1.26" fill="#93820A"/></g></svg>