<svg width="218" height="184" viewBox="0 0 218 184" xmlns="http://www.w3.org/2000/svg"><title>Slape</title><g fill="none" fill-rule="evenodd"><path d="M164.806 174.717a4.18 4.18 0 0 1-2.282-.946 4.183 4.183 0 0 1-1.445-3.987l-.014-.001a9.184 9.184 0 0 0 .488-2.727 4.193 4.193 0 0 1-.029-1.019 9.156 9.156 0 0 0-3.293-6.294 9.187 9.187 0 0 0-7.08-2.037c-.178.023-.356.05-.532.084a4.187 4.187 0 0 1-3.063-.948 4.173 4.173 0 0 1-1.48-2.668 9.158 9.158 0 0 0-3.324-7.254 9.185 9.185 0 0 0-6.971-2.049 4.186 4.186 0 0 1-3.692-.842 4.172 4.172 0 0 1-1.488-2.749l-.001.014a4.194 4.194 0 0 1-.013-.885 9.157 9.157 0 0 0-3.293-6.295 9.186 9.186 0 0 0-7.08-2.037c-.178.024-.356.05-.532.084a4.186 4.186 0 0 1-3.063-.947 4.174 4.174 0 0 1-1.48-2.669 9.158 9.158 0 0 0-3.323-7.254 9.186 9.186 0 0 0-6.972-2.049 4.186 4.186 0 0 1-3.692-.841 4.174 4.174 0 0 1-1.488-2.75v.014a4.21 4.21 0 0 1-.014-.885 9.157 9.157 0 0 0-3.293-6.295 9.188 9.188 0 0 0-7.08-2.037c-.178.024-.355.05-.532.084a4.187 4.187 0 0 1-3.063-.947 4.173 4.173 0 0 1-1.48-2.668 9.156 9.156 0 0 0-3.324-7.254 9.184 9.184 0 0 0-6.971-2.05 4.233 4.233 0 0 1-.71.112 4.185 4.185 0 0 1-4.455-3.59 9.157 9.157 0 0 0-3.322-7.28 9.188 9.188 0 0 0-7.612-1.951 4.19 4.19 0 0 1-3.063-.948 4.173 4.173 0 0 1-1.48-2.668 9.158 9.158 0 0 0-3.324-7.254 9.185 9.185 0 0 0-7.681-1.937 4.187 4.187 0 0 1-4.47-3.703c.002-.24-.005-.48-.021-.718a9.157 9.157 0 0 0-3.305-6.464 9.184 9.184 0 0 0-7.753-1.923 4.186 4.186 0 0 1-2.9-.959 4.177 4.177 0 0 1-1.498-2.83 9.16 9.16 0 0 0-3.327-7.11 9.215 9.215 0 0 0-10.398-.933 4.2 4.2 0 0 1-4.293-.643 4.17 4.17 0 0 1-1.414-2.308c-.485.25-.928.6-1.298 1.046a4.17 4.17 0 0 0-.897 1.912 4.178 4.178 0 0 1 2.283.946 4.182 4.182 0 0 1 1.444 3.987l-.018.107a9.183 9.183 0 0 0 2.837 10.033 9.19 9.19 0 0 0 7.187 2.023c.074-.01.148-.024.222-.037a4.19 4.19 0 0 1 4.744 3.66 9.157 9.157 0 0 0 3.326 7.177 9.187 9.187 0 0 0 7.055 2.039c.185-.024.369-.052.552-.086a4.187 4.187 0 0 1 3.046.948 4.174 4.174 0 0 1 1.497 2.815c0 .186.006.372.017.557a9.16 9.16 0 0 0 3.31 6.548 9.185 9.185 0 0 0 6.95 2.052c.243-.028.487-.065.728-.113a4.185 4.185 0 0 1 2.965.954 4.176 4.176 0 0 1 1.517 3.25 9.163 9.163 0 0 0 3.318 6.68 9.184 9.184 0 0 0 7.712 1.93 4.185 4.185 0 0 1 2.923.956 4.175 4.175 0 0 1 1.514 3.372 9.16 9.16 0 0 0 3.31 6.548 9.186 9.186 0 0 0 6.95 2.052c.244-.028.487-.066.728-.114a4.186 4.186 0 0 1 2.965.955 4.178 4.178 0 0 1 1.517 3.25 9.163 9.163 0 0 0 3.318 6.68 9.184 9.184 0 0 0 6.865 2.061 4.27 4.27 0 0 1 .74-.128l-.016.004a4.187 4.187 0 0 1 3.046.949 4.176 4.176 0 0 1 1.514 3.372 9.16 9.16 0 0 0 3.31 6.548 9.184 9.184 0 0 0 6.95 2.052c.243-.028.487-.066.728-.114a4.186 4.186 0 0 1 2.965.955 4.178 4.178 0 0 1 1.517 3.25 9.161 9.161 0 0 0 3.318 6.679 9.183 9.183 0 0 0 6.865 2.062c.243-.065.49-.107.74-.128l-.016.004a4.186 4.186 0 0 1 3.046.949 4.174 4.174 0 0 1 1.514 3.372 9.16 9.16 0 0 0 3.31 6.548 9.185 9.185 0 0 0 6.949 2.052 9.36 9.36 0 0 0 .73-.114 4.185 4.185 0 0 1 2.964.955 4.18 4.18 0 0 1 1.517 3.25 9.161 9.161 0 0 0 3.318 6.679 9.184 9.184 0 0 0 6.865 2.062c.29-.077.585-.124.883-.139a9.209 9.209 0 0 0 3.022-1.212 4.196 4.196 0 0 1 5.365 3.074c.485-.25.928-.6 1.298-1.046a4.17 4.17 0 0 0 .896-1.912" fill="#F9F44E"/><path d="M154.145 175.134a8.478 8.478 0 0 0 2.742-1.11.687.687 0 0 1 .16-.073 4.882 4.882 0 0 1 4.606.893 4.843 4.843 0 0 1 1.34 1.756 3.543 3.543 0 0 0 .942-1.324 4.89 4.89 0 0 1-3.555-5.46.684.684 0 0 1 .036-.245 8.475 8.475 0 0 0 .45-2.462 4.896 4.896 0 0 1-.031-1.058 8.43 8.43 0 0 0-3.038-5.76 8.543 8.543 0 0 0-7.037-1.804 4.865 4.865 0 0 1-3.639-1.096 4.872 4.872 0 0 1-1.725-3.111.74.74 0 0 1-.006-.106 8.616 8.616 0 0 0-.023-.809 8.42 8.42 0 0 0-3.048-5.896 8.437 8.437 0 0 0-6.404-1.899c-.255.06-.518.1-.784.12a4.875 4.875 0 0 1-3.476-1.112 4.86 4.86 0 0 1-1.736-3.19 4.921 4.921 0 0 1-.021-.965 8.428 8.428 0 0 0-3.038-5.76 8.544 8.544 0 0 0-7.037-1.805.795.795 0 0 1-.067.01 4.867 4.867 0 0 1-3.571-1.106 4.868 4.868 0 0 1-1.726-3.111.707.707 0 0 1-.006-.106 8.5 8.5 0 0 0-.023-.808 8.421 8.421 0 0 0-3.048-5.897 8.437 8.437 0 0 0-6.404-1.899c-.255.06-.518.101-.784.12a4.874 4.874 0 0 1-3.476-1.112 4.86 4.86 0 0 1-1.737-3.19 4.925 4.925 0 0 1-.02-.965 8.427 8.427 0 0 0-3.038-5.76 8.542 8.542 0 0 0-7.037-1.805.684.684 0 0 1-.067.01 4.867 4.867 0 0 1-3.572-1.106 4.87 4.87 0 0 1-1.725-3.111.671.671 0 0 1-.005-.106 8.612 8.612 0 0 0-.024-.808 8.42 8.42 0 0 0-3.048-5.896 8.438 8.438 0 0 0-6.404-1.9 4.9 4.9 0 0 1-.784.12 4.873 4.873 0 0 1-3.476-1.112 4.87 4.87 0 0 1-1.718-3.074.69.69 0 0 1-.007-.113 8.429 8.429 0 0 0-3.07-6.728A8.544 8.544 0 0 0 57.95 81.6a.684.684 0 0 1-.068.01 4.868 4.868 0 0 1-3.572-1.105 4.871 4.871 0 0 1-1.725-3.112.742.742 0 0 1-.006-.105 8.433 8.433 0 0 0-.023-.809 8.42 8.42 0 0 0-3.048-5.896 8.44 8.44 0 0 0-6.445-1.895c-.228.028-.45.063-.656.104a.7.7 0 0 1-.087.012 4.876 4.876 0 0 1-3.476-1.112 4.861 4.861 0 0 1-1.736-3.206.697.697 0 0 1-.005-.087 8.464 8.464 0 0 0-.02-.664 8.414 8.414 0 0 0-3.053-5.975 8.446 8.446 0 0 0-6.367-1.903c-.267.03-.536.072-.8.127a.697.697 0 0 1-.105.013 4.884 4.884 0 0 1-3.38-1.118 4.853 4.853 0 0 1-1.748-3.301.773.773 0 0 1-.003-.068 8.516 8.516 0 0 0-3.075-6.572 8.559 8.559 0 0 0-9.32-1.018c-.099.05-.195.102-.291.156a.686.686 0 0 1-.075.037 4.89 4.89 0 0 1-5.006-.75 4.843 4.843 0 0 1-1.339-1.756 3.545 3.545 0 0 0-.942 1.324 4.89 4.89 0 0 1 3.53 5.605l-.005.03a1.79 1.79 0 0 1-.017.096.704.704 0 0 1-.022.079 8.527 8.527 0 0 0 2.622 9.273 8.534 8.534 0 0 0 6.778 1.848l.072-.012a4.92 4.92 0 0 1 3.816 1.076 4.863 4.863 0 0 1 1.734 3.187c.004.03.005.06.005.09-.002.217.005.446.021.68a8.415 8.415 0 0 0 3.053 5.953 8.545 8.545 0 0 0 7.031 1.806.656.656 0 0 1 .07-.01 4.869 4.869 0 0 1 3.553 1.107 4.853 4.853 0 0 1 1.745 3.282.59.59 0 0 1 .003.07 8.52 8.52 0 0 0 3.076 6.567 8.44 8.44 0 0 0 6.423 1.897 8.28 8.28 0 0 0 .673-.105c.03-.006.06-.01.09-.012a4.879 4.879 0 0 1 3.456 1.114 4.897 4.897 0 0 1 1.77 3.771 8.508 8.508 0 0 0 3.066 6.158 8.448 8.448 0 0 0 6.345 1.906 8.65 8.65 0 0 0 .783-.123.691.691 0 0 1 .098-.012 4.88 4.88 0 0 1 3.409 1.116 4.854 4.854 0 0 1 1.766 3.897 8.52 8.52 0 0 0 3.058 6.022 8.44 8.44 0 0 0 6.422 1.897c.234-.027.46-.063.675-.105a.68.68 0 0 1 .088-.012 4.877 4.877 0 0 1 3.457 1.113 4.898 4.898 0 0 1 1.77 3.772 8.507 8.507 0 0 0 3.066 6.158 8.448 8.448 0 0 0 6.294 1.91 4.977 4.977 0 0 1 .869-.136 4.865 4.865 0 0 1 3.472 1.113 4.853 4.853 0 0 1 1.766 3.897 8.52 8.52 0 0 0 3.058 6.022 8.44 8.44 0 0 0 6.422 1.897c.235-.028.462-.063.674-.105.03-.006.06-.01.09-.012a4.877 4.877 0 0 1 3.456 1.113 4.897 4.897 0 0 1 1.769 3.772 8.51 8.51 0 0 0 3.067 6.157 8.447 8.447 0 0 0 6.294 1.911 4.982 4.982 0 0 1 .867-.137 4.868 4.868 0 0 1 3.474 1.113 4.853 4.853 0 0 1 1.766 3.898 8.52 8.52 0 0 0 3.058 6.022 8.44 8.44 0 0 0 6.422 1.896c.236-.027.463-.062.674-.104.03-.006.06-.01.089-.012a4.876 4.876 0 0 1 3.457 1.113 4.896 4.896 0 0 1 1.77 3.772 8.509 8.509 0 0 0 3.066 6.157 8.446 8.446 0 0 0 6.294 1.911c.302-.077.61-.125.918-.144m9.628 2.63a4.85 4.85 0 0 1-.83.542.697.697 0 0 1-1-.467 3.457 3.457 0 0 0-1.18-1.923 3.49 3.49 0 0 0-3.216-.663 9.861 9.861 0 0 1-3.17 1.255.69.69 0 0 1-.107.013 3.54 3.54 0 0 0-.738.116.681.681 0 0 1-.105.02 9.831 9.831 0 0 1-7.384-2.219 9.902 9.902 0 0 1-3.57-7.184v-.034a3.502 3.502 0 0 0-1.265-2.71 3.486 3.486 0 0 0-2.431-.8 9.746 9.746 0 0 1-.737.114 9.825 9.825 0 0 1-7.475-2.208 9.915 9.915 0 0 1-3.561-7.043.607.607 0 0 1-.001-.064 3.47 3.47 0 0 0-1.262-2.813 3.48 3.48 0 0 0-2.591-.788c-.19.019-.376.053-.555.1a.71.71 0 0 1-.105.02 9.832 9.832 0 0 1-7.384-2.218 9.902 9.902 0 0 1-3.57-7.218 3.503 3.503 0 0 0-1.265-2.712 3.488 3.488 0 0 0-2.431-.798 9.98 9.98 0 0 1-.738.113 9.824 9.824 0 0 1-7.474-2.207 9.916 9.916 0 0 1-3.561-7.044.612.612 0 0 1-.001-.064 3.472 3.472 0 0 0-1.262-2.812 3.48 3.48 0 0 0-2.54-.791 3.527 3.527 0 0 0-.605.103.717.717 0 0 1-.106.02 9.831 9.831 0 0 1-7.384-2.22 9.902 9.902 0 0 1-3.57-7.184v-.034a3.5 3.5 0 0 0-3.696-3.509 9.564 9.564 0 0 1-.737.113 9.824 9.824 0 0 1-7.475-2.207 9.916 9.916 0 0 1-3.561-7.044.809.809 0 0 1-.001-.064 3.471 3.471 0 0 0-1.262-2.813 3.489 3.489 0 0 0-2.391-.8 9.54 9.54 0 0 1-.86.132 9.832 9.832 0 0 1-7.384-2.218 9.903 9.903 0 0 1-3.57-7.185v-.034a3.502 3.502 0 0 0-1.265-2.71 3.487 3.487 0 0 0-2.431-.799 9.746 9.746 0 0 1-.737.114 9.826 9.826 0 0 1-7.475-2.208 9.918 9.918 0 0 1-3.58-7.605 3.47 3.47 0 0 0-1.244-2.315 3.48 3.48 0 0 0-2.508-.794 9.945 9.945 0 0 1-8.147-2.109 9.794 9.794 0 0 1-3.552-6.928 9.85 9.85 0 0 1-.025-.744 3.476 3.476 0 0 0-1.235-2.238 3.512 3.512 0 0 0-2.716-.771l-.045.008a9.932 9.932 0 0 1-7.905-2.149 9.924 9.924 0 0 1-3.264-10.083c.056-.216.121-.437.196-.66l.01-.06a3.496 3.496 0 0 0-3.107-4.113.698.698 0 0 1-.62-.819 4.883 4.883 0 0 1 2.56-3.45.698.698 0 0 1 1 .467 3.497 3.497 0 0 0 4.724 2.475 10.228 10.228 0 0 1 .618-.318 9.96 9.96 0 0 1 10.528 1.343 9.913 9.913 0 0 1 3.579 7.611 3.47 3.47 0 0 0 1.246 2.33 3.492 3.492 0 0 0 2.368.802 10 10 0 0 1 .875-.136 9.829 9.829 0 0 1 7.41 2.215 9.792 9.792 0 0 1 3.554 6.953c.017.248.025.492.023.726.112.884.55 1.683 1.237 2.253a3.487 3.487 0 0 0 2.445.797c.23-.044.47-.082.719-.111a9.82 9.82 0 0 1 7.5 2.204 9.802 9.802 0 0 1 3.548 6.863c.022.293.032.59.028.884a3.48 3.48 0 0 0 1.227 2.176c.71.587 1.604.869 2.522.792a9.942 9.942 0 0 1 8.153 2.108 9.81 9.81 0 0 1 3.575 7.77 3.484 3.484 0 0 0 1.22 2.145 3.487 3.487 0 0 0 3.08.702.667.667 0 0 1 .084-.016 9.82 9.82 0 0 1 7.5 2.205 9.8 9.8 0 0 1 3.548 6.863c.023.293.032.59.028.883.127.854.56 1.625 1.226 2.176.71.588 1.605.87 2.523.793a9.942 9.942 0 0 1 8.153 2.107 9.812 9.812 0 0 1 3.542 6.772.678.678 0 0 1 0 .124 3.464 3.464 0 0 0 .011.727 3.484 3.484 0 0 0 1.242 2.293c.697.578 1.58.86 2.486.795.202-.015.401-.046.593-.093a.677.677 0 0 1 .085-.016 9.823 9.823 0 0 1 7.5 2.205 9.801 9.801 0 0 1 3.548 6.862c.022.293.032.59.028.884.127.854.56 1.625 1.226 2.176a3.48 3.48 0 0 0 2.523.793 9.942 9.942 0 0 1 8.152 2.108 9.809 9.809 0 0 1 3.543 6.77.675.675 0 0 1 0 .124 3.506 3.506 0 0 0 .011.728c.103.9.544 1.715 1.242 2.293a3.52 3.52 0 0 0 3.079.701.681.681 0 0 1 .085-.015 9.821 9.821 0 0 1 7.5 2.205 9.8 9.8 0 0 1 3.548 6.862c.023.294.032.59.028.884.127.853.56 1.624 1.226 2.176a3.48 3.48 0 0 0 2.523.793 9.943 9.943 0 0 1 8.152 2.108 9.81 9.81 0 0 1 3.543 6.77.675.675 0 0 1 0 .124c-.027.283-.019.569.024.85.006.04.008.08.007.121a9.871 9.871 0 0 1-.479 2.796 3.498 3.498 0 0 0 3.1 4.155.696.696 0 0 1 .621.82 4.886 4.886 0 0 1-1.73 2.906" fill="#93820A"/><path d="M.824 42.822c.099.13 3.784-1.528 4.109-1.054.324.474-1.826 2.074-.576 2.546 1.25.471 5.977 2.44 11.451 10.921 5.475 8.48 7.98 9.172 7.98 9.172s1.345.295 3.92-.953c2.577-1.248 4.036.517 4.036.517l2.742-2.127s-2.112-1.596-1.272-3.41c.84-1.815 1.62-1.888-1.42-4.405a46.261 46.261 0 0 1-5.333-5.21c-3.2-3.653-6.739-7.636-11.239-9.7-.941-.43-1.94-.765-2.973-.848-1.547-.124-3.08.529-4.465 1.148-3.252 1.454-4.464-.879-6.96 3.403" fill="#E2D100"/><path d="M4.677 42.378l.002-.001-.002.001zM31.78 63.062l1.637-1.27c-.679-.747-1.551-2.105-.835-3.65.13-.28.255-.517.366-.725.5-.94.564-1.06-1.599-2.853a46.934 46.934 0 0 1-5.413-5.286c-2.92-3.335-6.555-7.486-11.005-9.526-1.01-.463-1.907-.721-2.737-.788-1.325-.105-2.652.431-4.125 1.09-1.3.581-2.322.616-3.144.644-.873.03-1.515.052-2.262.777 1.693-.584 2.442-.689 2.845-.1.4.584-.03 1.195-.411 1.735-.11.157-.293.415-.384.595 2.288.892 6.752 3.518 11.681 11.153 4.832 7.484 7.283 8.744 7.573 8.873.2.021 1.378.094 3.438-.903 1.952-.946 3.513-.407 4.375.234zm3.145-.678a.214.214 0 0 1-.011.01L32.17 64.52a.697.697 0 0 1-.965-.107c-.113-.13-1.201-1.298-3.193-.334-2.715 1.315-4.213 1.042-4.375 1.006l-.036-.009c-.283-.077-2.919-1.006-8.38-9.465-4.791-7.423-9.018-9.857-11.112-10.647-.517-.196-.717-.534-.794-.784-.174-.566.12-1.109.454-1.603a34.65 34.65 0 0 0-1.605.553c-1.19.434-1.55.565-1.895.112a.695.695 0 0 1-.048-.771c1.663-2.853 2.923-3.106 4.656-3.165.772-.026 1.571-.054 2.622-.523 1.273-.57 3.018-1.35 4.805-1.207.996.08 2.046.378 3.208.91 4.72 2.164 8.464 6.44 11.473 9.875a45.54 45.54 0 0 0 5.253 5.131c2.68 2.22 2.816 2.93 1.94 4.577-.107.202-.219.41-.332.656-.598 1.29 1.043 2.55 1.06 2.563a.696.696 0 0 1 .018 1.095z" fill="#93820A"/><path d="M211.124 137.157a4.18 4.18 0 0 1-2.283-.946 4.183 4.183 0 0 1-1.444-3.987l-.014-.002a9.18 9.18 0 0 0 .488-2.726 4.19 4.19 0 0 1-.03-1.018 9.158 9.158 0 0 0-3.292-6.295 9.187 9.187 0 0 0-7.08-2.037c-.179.023-.356.05-.533.084a4.186 4.186 0 0 1-3.062-.947 4.173 4.173 0 0 1-1.48-2.669 9.157 9.157 0 0 0-3.324-7.254 9.184 9.184 0 0 0-6.971-2.049 4.241 4.241 0 0 1-.71.112 4.185 4.185 0 0 1-2.982-.953 4.173 4.173 0 0 1-1.489-2.75v.014a4.189 4.189 0 0 1-.013-.885 9.157 9.157 0 0 0-3.293-6.295A9.188 9.188 0 0 0 166 94.601a4.187 4.187 0 0 1-3.063-.947 4.174 4.174 0 0 1-1.48-2.668 9.157 9.157 0 0 0-3.324-7.254 9.185 9.185 0 0 0-6.971-2.05 4.233 4.233 0 0 1-.71.112 4.185 4.185 0 0 1-2.982-.953 4.172 4.172 0 0 1-1.49-2.736 4.21 4.21 0 0 1-.012-.885 9.156 9.156 0 0 0-3.293-6.295 9.187 9.187 0 0 0-7.612-1.952 4.187 4.187 0 0 1-3.063-.948 4.172 4.172 0 0 1-1.48-2.668 9.156 9.156 0 0 0-3.324-7.254 9.183 9.183 0 0 0-6.971-2.05 4.186 4.186 0 0 1-5.165-3.478 9.156 9.156 0 0 0-3.322-7.279 9.188 9.188 0 0 0-7.08-2.036c-.178.023-.356.05-.532.084a4.187 4.187 0 0 1-3.063-.948 4.174 4.174 0 0 1-1.48-2.668 9.156 9.156 0 0 0-3.324-7.254 9.185 9.185 0 0 0-6.971-2.05 9.286 9.286 0 0 0-.71.113 4.185 4.185 0 0 1-2.982-.954 4.173 4.173 0 0 1-1.489-2.75 9.156 9.156 0 0 0-3.325-7.182 9.183 9.183 0 0 0-7.753-1.921 4.184 4.184 0 0 1-2.9-.96 4.176 4.176 0 0 1-1.498-2.83 9.16 9.16 0 0 0-3.327-7.11 9.215 9.215 0 0 0-10.399-.933 4.199 4.199 0 0 1-5.707-2.95 4.196 4.196 0 0 0-2.194 2.956 4.18 4.18 0 0 1 2.283.947 4.182 4.182 0 0 1 1.444 3.987c-.006.036-.011.071-.019.107a9.182 9.182 0 0 0 2.837 10.033A9.19 9.19 0 0 0 60.737 23c.075-.01.149-.024.223-.037a4.19 4.19 0 0 1 4.743 3.659c-.002.246.006.491.023.737a9.159 9.159 0 0 0 3.303 6.44 9.187 9.187 0 0 0 7.056 2.04c.184-.024.368-.052.552-.086a4.186 4.186 0 0 1 3.046.949 4.174 4.174 0 0 1 1.496 2.814c0 .186.007.372.018.557a9.16 9.16 0 0 0 3.31 6.548 9.185 9.185 0 0 0 6.949 2.053c.244-.03.487-.066.729-.114a4.186 4.186 0 0 1 2.964.954 4.178 4.178 0 0 1 1.517 3.25 9.163 9.163 0 0 0 3.32 6.68 9.184 9.184 0 0 0 7.711 1.93 4.185 4.185 0 0 1 2.923.956 4.177 4.177 0 0 1 1.513 3.372 9.161 9.161 0 0 0 3.31 6.548 9.184 9.184 0 0 0 6.95 2.052c.244-.028.487-.065.729-.113a4.184 4.184 0 0 1 2.965.954 4.177 4.177 0 0 1 1.516 3.25 9.162 9.162 0 0 0 3.319 6.68 9.183 9.183 0 0 0 6.864 2.061c.243-.065.492-.107.742-.127l-.018.003a4.187 4.187 0 0 1 3.047.95 4.174 4.174 0 0 1 1.513 3.371 9.159 9.159 0 0 0 3.31 6.548 9.184 9.184 0 0 0 6.95 2.052 9.51 9.51 0 0 0 .729-.113 4.185 4.185 0 0 1 2.965.954 4.177 4.177 0 0 1 1.516 3.25 9.161 9.161 0 0 0 3.319 6.68 9.183 9.183 0 0 0 6.864 2.061 4.25 4.25 0 0 1 .742-.128l-.018.004a4.186 4.186 0 0 1 3.047.949 4.174 4.174 0 0 1 1.514 3.372 9.159 9.159 0 0 0 3.31 6.548 9.184 9.184 0 0 0 6.949 2.052 9.23 9.23 0 0 0 .729-.114 4.185 4.185 0 0 1 2.964.955 4.178 4.178 0 0 1 1.517 3.25 9.163 9.163 0 0 0 3.319 6.679 9.185 9.185 0 0 0 6.864 2.062c.29-.077.586-.124.884-.139a9.21 9.21 0 0 0 3.021-1.212 4.195 4.195 0 0 1 5.365 3.074c.485-.25.928-.6 1.299-1.046a4.17 4.17 0 0 0 .896-1.912" fill="#F9F44E"/><path d="M200.463 137.574a8.476 8.476 0 0 0 2.742-1.11.705.705 0 0 1 .16-.074 4.881 4.881 0 0 1 4.606.894 4.84 4.84 0 0 1 1.34 1.756 3.5 3.5 0 0 0 .943-1.324 4.89 4.89 0 0 1-3.556-5.457.693.693 0 0 1 .036-.248 8.476 8.476 0 0 0 .449-2.463 4.895 4.895 0 0 1-.03-1.057 8.428 8.428 0 0 0-3.039-5.76 8.543 8.543 0 0 0-7.036-1.804.684.684 0 0 1-.067.01 4.867 4.867 0 0 1-3.572-1.106 4.869 4.869 0 0 1-1.725-3.111.7.7 0 0 1-.006-.106 8.717 8.717 0 0 0-.023-.809 8.422 8.422 0 0 0-3.049-5.896 8.436 8.436 0 0 0-6.404-1.899c-.255.06-.518.1-.783.12a4.876 4.876 0 0 1-3.476-1.112 4.861 4.861 0 0 1-1.737-3.19 4.942 4.942 0 0 1-.02-.965 8.426 8.426 0 0 0-3.039-5.76 8.543 8.543 0 0 0-7.036-1.805.78.78 0 0 1-.067.01 4.869 4.869 0 0 1-3.572-1.106 4.872 4.872 0 0 1-1.725-3.111.664.664 0 0 1-.006-.105 8.573 8.573 0 0 0-.023-.81 8.422 8.422 0 0 0-3.049-5.896 8.437 8.437 0 0 0-6.404-1.898c-.254.06-.518.1-.783.12a4.875 4.875 0 0 1-3.476-1.113 4.861 4.861 0 0 1-1.737-3.19 4.905 4.905 0 0 1-.02-.965 8.428 8.428 0 0 0-3.039-5.76 8.542 8.542 0 0 0-7.036-1.805.759.759 0 0 1-.067.01 4.867 4.867 0 0 1-3.572-1.106 4.87 4.87 0 0 1-1.725-3.111.706.706 0 0 1-.006-.106 8.618 8.618 0 0 0-.023-.808 8.421 8.421 0 0 0-3.049-5.896 8.437 8.437 0 0 0-6.404-1.9 4.9 4.9 0 0 1-.783.12 4.874 4.874 0 0 1-3.477-1.111 4.874 4.874 0 0 1-1.718-3.075.69.69 0 0 1-.006-.112 8.428 8.428 0 0 0-3.07-6.728 8.543 8.543 0 0 0-7.036-1.806.708.708 0 0 1-.068.01 4.867 4.867 0 0 1-3.572-1.105 4.872 4.872 0 0 1-1.725-3.112.741.741 0 0 1-.006-.105 8.428 8.428 0 0 0-.023-.809 8.42 8.42 0 0 0-3.049-5.896 8.439 8.439 0 0 0-6.444-1.895c-.229.028-.45.063-.657.104a.639.639 0 0 1-.086.012 4.874 4.874 0 0 1-3.476-1.112 4.86 4.86 0 0 1-1.737-3.206.755.755 0 0 1-.004-.087 8.46 8.46 0 0 0-.02-.664 8.413 8.413 0 0 0-3.054-5.975 8.446 8.446 0 0 0-6.366-1.903 8.59 8.59 0 0 0-.8.127.667.667 0 0 1-.105.013 4.883 4.883 0 0 1-3.38-1.118 4.853 4.853 0 0 1-1.748-3.3.797.797 0 0 1-.003-.069 8.517 8.517 0 0 0-3.075-6.572 8.558 8.558 0 0 0-9.687-.825 4.89 4.89 0 0 1-5.005-.75 4.84 4.84 0 0 1-1.34-1.756 3.517 3.517 0 0 0-.942 1.324 4.89 4.89 0 0 1 3.53 5.605l-.004.03a2.26 2.26 0 0 1-.017.096.77.77 0 0 1-.022.079c-.07.205-.132.41-.183.608a8.528 8.528 0 0 0 2.805 8.665 8.535 8.535 0 0 0 6.777 1.848l.072-.012a4.921 4.921 0 0 1 3.817 1.076 4.865 4.865 0 0 1 1.734 3.187c.003.03.005.06.005.09-.003.216.004.444.02.68a8.416 8.416 0 0 0 3.053 5.953 8.545 8.545 0 0 0 7.032 1.806.75.75 0 0 1 .07-.01 4.87 4.87 0 0 1 3.552 1.107 4.855 4.855 0 0 1 1.746 3.282.734.734 0 0 1 .003.07 8.52 8.52 0 0 0 3.075 6.567 8.44 8.44 0 0 0 6.423 1.897c.24-.028.46-.062.674-.105.03-.006.06-.01.089-.012a4.877 4.877 0 0 1 3.457 1.114 4.897 4.897 0 0 1 1.769 3.771 8.51 8.51 0 0 0 3.066 6.158 8.447 8.447 0 0 0 6.345 1.906c.256-.028.52-.069.784-.122a.68.68 0 0 1 .098-.013 4.88 4.88 0 0 1 3.408 1.115 4.854 4.854 0 0 1 1.767 3.898 8.519 8.519 0 0 0 3.057 6.022 8.441 8.441 0 0 0 6.423 1.897c.234-.027.461-.063.675-.105a.72.72 0 0 1 .088-.012 4.875 4.875 0 0 1 3.457 1.113 4.898 4.898 0 0 1 1.769 3.772 8.509 8.509 0 0 0 3.066 6.158 8.446 8.446 0 0 0 6.295 1.91 5.012 5.012 0 0 1 .868-.136 4.867 4.867 0 0 1 3.473 1.112 4.854 4.854 0 0 1 1.766 3.898 8.52 8.52 0 0 0 3.057 6.022 8.44 8.44 0 0 0 6.423 1.897 9.17 9.17 0 0 0 .674-.105.678.678 0 0 1 .089-.012 4.876 4.876 0 0 1 3.457 1.113 4.895 4.895 0 0 1 1.769 3.771 8.508 8.508 0 0 0 3.066 6.159 8.447 8.447 0 0 0 6.295 1.91 4.943 4.943 0 0 1 .867-.137 4.867 4.867 0 0 1 3.473 1.113 4.855 4.855 0 0 1 1.767 3.898 8.52 8.52 0 0 0 3.057 6.022 8.44 8.44 0 0 0 6.423 1.897c.24-.028.46-.063.674-.106.03-.005.059-.01.089-.011a4.878 4.878 0 0 1 3.457 1.113 4.897 4.897 0 0 1 1.769 3.772 8.51 8.51 0 0 0 3.066 6.157 8.448 8.448 0 0 0 6.295 1.911 4.93 4.93 0 0 1 .918-.144m9.628 2.63a4.935 4.935 0 0 1-.83.542.697.697 0 0 1-1-.467 3.462 3.462 0 0 0-1.18-1.924 3.49 3.49 0 0 0-3.216-.662 9.856 9.856 0 0 1-3.17 1.255.69.69 0 0 1-.107.013 3.54 3.54 0 0 0-.738.116.676.676 0 0 1-.106.02 9.832 9.832 0 0 1-7.384-2.219 9.903 9.903 0 0 1-3.57-7.184v-.034a3.502 3.502 0 0 0-1.265-2.71 3.486 3.486 0 0 0-2.43-.8 9.937 9.937 0 0 1-.738.114 9.823 9.823 0 0 1-7.475-2.208 9.916 9.916 0 0 1-3.56-7.043.545.545 0 0 1-.001-.064 3.472 3.472 0 0 0-1.262-2.812 3.482 3.482 0 0 0-2.592-.79c-.19.02-.376.054-.554.101a.71.71 0 0 1-.105.02 9.834 9.834 0 0 1-7.385-2.218 9.902 9.902 0 0 1-3.57-7.185v-.032a3.5 3.5 0 0 0-1.265-2.712 3.486 3.486 0 0 0-2.43-.799 9.666 9.666 0 0 1-.738.113 9.823 9.823 0 0 1-7.475-2.208 9.916 9.916 0 0 1-3.56-7.043.613.613 0 0 1-.001-.064 3.472 3.472 0 0 0-1.262-2.812 3.482 3.482 0 0 0-2.593-.789 3.53 3.53 0 0 0-.553.1.71.71 0 0 1-.105.02 9.832 9.832 0 0 1-7.385-2.218 9.903 9.903 0 0 1-3.57-7.184v-.035a3.51 3.51 0 0 0-1.265-2.71 3.49 3.49 0 0 0-2.43-.799c-.236.046-.484.084-.738.114a9.824 9.824 0 0 1-7.475-2.208 9.917 9.917 0 0 1-3.56-7.044.695.695 0 0 1-.001-.063 3.47 3.47 0 0 0-1.262-2.813 3.488 3.488 0 0 0-2.391-.8c-.29.057-.579.101-.86.132a9.831 9.831 0 0 1-7.385-2.219 9.901 9.901 0 0 1-3.57-7.219c0-.062 0-.124-.004-.187a3.502 3.502 0 0 0-1.26-2.523 3.488 3.488 0 0 0-2.431-.799 10.23 10.23 0 0 1-.738.114 9.824 9.824 0 0 1-7.475-2.208 9.917 9.917 0 0 1-3.58-7.605 3.47 3.47 0 0 0-1.243-2.315 3.481 3.481 0 0 0-2.508-.794 9.944 9.944 0 0 1-8.146-2.109 9.794 9.794 0 0 1-3.554-6.928 9.898 9.898 0 0 1-.024-.744 3.48 3.48 0 0 0-1.235-2.238 3.513 3.513 0 0 0-2.716-.771l-.045.008a9.93 9.93 0 0 1-7.905-2.149 9.924 9.924 0 0 1-3.265-10.083c.056-.216.122-.437.196-.66l.01-.059A3.498 3.498 0 0 0 46.95 6.61a.698.698 0 0 1-.62-.819 4.888 4.888 0 0 1 2.56-3.449.698.698 0 0 1 1 .466c.17.761.578 1.426 1.18 1.924a3.497 3.497 0 0 0 3.543.551 10.228 10.228 0 0 1 .62-.317A9.96 9.96 0 0 1 65.76 6.308a9.913 9.913 0 0 1 3.58 7.612 3.468 3.468 0 0 0 1.246 2.329 3.491 3.491 0 0 0 2.368.802 9.94 9.94 0 0 1 .875-.136 9.828 9.828 0 0 1 7.41 2.215 9.79 9.79 0 0 1 3.554 6.954c.017.247.025.491.023.725.111.885.55 1.684 1.237 2.253a3.486 3.486 0 0 0 2.445.797c.229-.044.47-.082.718-.111a9.821 9.821 0 0 1 7.5 2.205 9.801 9.801 0 0 1 3.549 6.862c.022.294.031.59.028.884a3.48 3.48 0 0 0 1.226 2.175 3.48 3.48 0 0 0 2.523.793 9.944 9.944 0 0 1 8.153 2.107 9.811 9.811 0 0 1 3.574 7.77 3.483 3.483 0 0 0 1.22 2.146 3.487 3.487 0 0 0 3.08.702.663.663 0 0 1 .084-.015 9.822 9.822 0 0 1 7.5 2.204 9.801 9.801 0 0 1 3.549 6.863c.022.293.031.59.028.884.126.853.56 1.624 1.226 2.175a3.48 3.48 0 0 0 2.523.793 9.944 9.944 0 0 1 8.153 2.107 9.81 9.81 0 0 1 3.542 6.772.657.657 0 0 1-.001.124 3.5 3.5 0 0 0 .012.727 3.475 3.475 0 0 0 1.242 2.293c.697.578 1.58.86 2.485.795.202-.014.402-.046.593-.093a.686.686 0 0 1 .085-.016 9.82 9.82 0 0 1 7.5 2.205 9.8 9.8 0 0 1 3.549 6.862 9.9 9.9 0 0 1 .028.884 3.48 3.48 0 0 0 1.226 2.176 3.48 3.48 0 0 0 2.523.793 9.943 9.943 0 0 1 8.152 2.108 9.809 9.809 0 0 1 3.542 6.77.675.675 0 0 1 0 .124 3.486 3.486 0 0 0 .012.728 3.48 3.48 0 0 0 1.241 2.293 3.486 3.486 0 0 0 3.08.701.685.685 0 0 1 .084-.015 9.82 9.82 0 0 1 7.5 2.205 9.8 9.8 0 0 1 3.549 6.862c.022.294.031.591.028.884a3.48 3.48 0 0 0 1.226 2.176 3.48 3.48 0 0 0 2.523.793 9.945 9.945 0 0 1 8.152 2.107 9.812 9.812 0 0 1 3.543 6.771.732.732 0 0 1 0 .124c-.027.282-.019.568.023.85a.68.68 0 0 1 .008.121 9.852 9.852 0 0 1-.48 2.796 3.498 3.498 0 0 0 3.101 4.155.697.697 0 0 1 .62.82 4.886 4.886 0 0 1-1.728 2.906" fill="#93820A"/><path d="M47.142 5.262c.099.13 3.784-1.528 4.108-1.054.325.474-1.825 2.074-.575 2.546s5.977 2.44 11.451 10.921c5.474 8.48 7.979 9.172 7.979 9.172s1.346.295 3.921-.953c2.577-1.248 4.035.517 4.035.517l2.743-2.127s-2.112-1.596-1.272-3.41c.84-1.815 1.62-1.887-1.42-4.405a46.219 46.219 0 0 1-5.334-5.21c-3.2-3.653-6.738-7.636-11.238-9.699-.941-.432-1.94-.766-2.973-.85-1.548-.123-3.08.53-4.465 1.149-3.252 1.454-4.464-.879-6.96 3.403" fill="#E2D100"/><path d="M50.994 4.819l.003-.002-.003.002zm27.103 20.683l1.638-1.27c-.679-.747-1.551-2.105-.835-3.651.13-.28.255-.516.366-.725.5-.939.564-1.06-1.6-2.852a46.957 46.957 0 0 1-5.412-5.286c-2.92-3.335-6.555-7.486-11.005-9.526-1.011-.463-1.907-.72-2.738-.787-1.324-.106-2.65.43-4.124 1.089-1.3.581-2.322.616-3.144.644-.874.03-1.516.054-2.262.777 1.693-.584 2.442-.688 2.845-.1.4.585-.031 1.196-.411 1.735a5.715 5.715 0 0 0-.384.595c2.288.893 6.753 3.518 11.68 11.153 4.832 7.484 7.284 8.744 7.574 8.873.2.022 1.378.095 3.437-.903 1.952-.945 3.514-.407 4.375.234zm3.146-.678l-.012.01-2.742 2.127a.697.697 0 0 1-.965-.106c-.113-.132-1.202-1.3-3.193-.335-2.715 1.315-4.214 1.042-4.375 1.007a.69.69 0 0 1-.037-.01c-.282-.077-2.918-1.006-8.379-9.465-4.791-7.423-9.018-9.857-11.112-10.647-.517-.196-.717-.534-.794-.784-.174-.566.119-1.11.454-1.603-.565.173-1.231.417-1.605.553-1.191.434-1.55.565-1.896.112a.695.695 0 0 1-.047-.771c1.663-2.853 2.923-3.106 4.655-3.165.773-.026 1.572-.053 2.622-.523 1.274-.57 3.019-1.35 4.806-1.207.996.08 2.045.378 3.208.91 4.72 2.165 8.464 6.44 11.472 9.875a45.543 45.543 0 0 0 5.254 5.131c2.679 2.22 2.816 2.93 1.94 4.577-.108.202-.219.41-.332.656-.598 1.29 1.043 2.55 1.06 2.563a.695.695 0 0 1 .018 1.095z" fill="#93820A"/><path d="M217.216 180.144a4.18 4.18 0 0 1-2.282-.947 4.183 4.183 0 0 1-1.445-3.987l-.014-.001a9.18 9.18 0 0 0 .488-2.727 4.204 4.204 0 0 1-.03-1.018 9.158 9.158 0 0 0-3.292-6.295 9.188 9.188 0 0 0-7.08-2.037c-.178.024-.356.05-.532.084a4.185 4.185 0 0 1-3.063-.947 4.173 4.173 0 0 1-1.48-2.668 9.157 9.157 0 0 0-3.324-7.254 9.186 9.186 0 0 0-6.971-2.05 4.234 4.234 0 0 1-.71.112 4.185 4.185 0 0 1-2.982-.953 4.175 4.175 0 0 1-1.489-2.75v.014a4.194 4.194 0 0 1-.013-.885 9.157 9.157 0 0 0-3.293-6.294 9.188 9.188 0 0 0-7.613-1.953 4.188 4.188 0 0 1-3.062-.948 4.173 4.173 0 0 1-1.48-2.668 9.158 9.158 0 0 0-3.324-7.254 9.185 9.185 0 0 0-6.971-2.05 4.213 4.213 0 0 1-.71.113 4.185 4.185 0 0 1-2.982-.954 4.173 4.173 0 0 1-1.489-2.749v.013a4.192 4.192 0 0 1-.013-.885 9.157 9.157 0 0 0-3.293-6.294 9.188 9.188 0 0 0-7.612-1.953 4.188 4.188 0 0 1-3.063-.948 4.175 4.175 0 0 1-1.48-2.668 9.157 9.157 0 0 0-3.324-7.254 9.183 9.183 0 0 0-6.971-2.049 4.233 4.233 0 0 1-.71.112 4.185 4.185 0 0 1-4.455-3.59 9.157 9.157 0 0 0-3.322-7.279 9.188 9.188 0 0 0-7.08-2.037c-.178.023-.356.05-.532.084a4.187 4.187 0 0 1-3.063-.947 4.173 4.173 0 0 1-1.48-2.669 9.155 9.155 0 0 0-3.324-7.254 9.185 9.185 0 0 0-6.971-2.049 9.308 9.308 0 0 0-.71.112 4.185 4.185 0 0 1-2.982-.953 4.173 4.173 0 0 1-1.488-2.75 9.046 9.046 0 0 0-.022-.718 9.157 9.157 0 0 0-3.304-6.464 9.182 9.182 0 0 0-7.753-1.922 4.184 4.184 0 0 1-2.9-.96 4.174 4.174 0 0 1-1.498-2.83 9.16 9.16 0 0 0-3.327-7.11 9.215 9.215 0 0 0-10.398-.933 4.2 4.2 0 0 1-5.708-2.95c-.484.25-.927.6-1.298 1.045a4.17 4.17 0 0 0-.896 1.912 4.18 4.18 0 0 1 2.283.947 4.183 4.183 0 0 1 1.444 3.986c-.006.036-.011.072-.019.108a9.183 9.183 0 0 0 2.838 10.033 9.19 9.19 0 0 0 7.186 2.023c.075-.011.149-.025.223-.037a4.19 4.19 0 0 1 4.743 3.658c-.002.246.006.492.023.737a9.158 9.158 0 0 0 3.303 6.44 9.187 9.187 0 0 0 7.056 2.04c.184-.024.369-.051.551-.086a4.187 4.187 0 0 1 3.047.949 4.175 4.175 0 0 1 1.497 2.815c-.001.186.006.371.017.557a9.16 9.16 0 0 0 3.31 6.548 9.185 9.185 0 0 0 6.949 2.052c.244-.029.487-.066.729-.114a4.186 4.186 0 0 1 2.965.955 4.178 4.178 0 0 1 1.516 3.25 9.163 9.163 0 0 0 3.319 6.679 9.184 9.184 0 0 0 7.712 1.93 4.186 4.186 0 0 1 2.923.957 4.177 4.177 0 0 1 1.514 3.372 9.16 9.16 0 0 0 3.31 6.547 9.184 9.184 0 0 0 6.949 2.053c.244-.029.488-.066.729-.114a4.186 4.186 0 0 1 2.965.955 4.176 4.176 0 0 1 1.516 3.25 9.162 9.162 0 0 0 3.319 6.679 9.184 9.184 0 0 0 6.864 2.062c.244-.065.492-.107.742-.128l-.018.004a4.186 4.186 0 0 1 3.047.949 4.174 4.174 0 0 1 1.514 3.372 9.159 9.159 0 0 0 3.31 6.547 9.185 9.185 0 0 0 6.949 2.052c.244-.028.487-.065.729-.113a4.184 4.184 0 0 1 2.964.954 4.177 4.177 0 0 1 1.518 3.25 9.161 9.161 0 0 0 3.318 6.68 9.183 9.183 0 0 0 6.865 2.062c.243-.065.49-.107.74-.128l-.016.003a4.186 4.186 0 0 1 3.046.95 4.174 4.174 0 0 1 1.514 3.371 9.159 9.159 0 0 0 3.31 6.548 9.184 9.184 0 0 0 6.949 2.052c.244-.028.487-.065.729-.113a4.186 4.186 0 0 1 2.965.954 4.178 4.178 0 0 1 1.516 3.25 9.162 9.162 0 0 0 3.319 6.68 9.184 9.184 0 0 0 6.865 2.061c.289-.077.585-.124.883-.138a9.213 9.213 0 0 0 3.021-1.213 4.195 4.195 0 0 1 5.366 3.074 4.186 4.186 0 0 0 2.194-2.957" fill="#F9F44E"/><path d="M206.554 180.56a8.484 8.484 0 0 0 2.743-1.11.69.69 0 0 1 .16-.073 4.882 4.882 0 0 1 4.606.894 4.847 4.847 0 0 1 1.34 1.755 3.5 3.5 0 0 0 .943-1.324 4.889 4.889 0 0 1-3.555-5.46.68.68 0 0 1 .035-.244 8.484 8.484 0 0 0 .45-2.463 4.895 4.895 0 0 1-.031-1.057 8.426 8.426 0 0 0-3.039-5.76 8.543 8.543 0 0 0-7.036-1.805.684.684 0 0 1-.067.01 4.866 4.866 0 0 1-3.572-1.106 4.871 4.871 0 0 1-1.725-3.111.744.744 0 0 1-.006-.105 8.703 8.703 0 0 0-.023-.81 8.42 8.42 0 0 0-3.049-5.895 8.437 8.437 0 0 0-6.404-1.9 4.869 4.869 0 0 1-.783.12 4.874 4.874 0 0 1-3.477-1.112 4.86 4.86 0 0 1-1.736-3.19 4.902 4.902 0 0 1-.02-.965 8.429 8.429 0 0 0-3.038-5.76 8.545 8.545 0 0 0-7.037-1.805.685.685 0 0 1-.067.01 4.867 4.867 0 0 1-3.572-1.106 4.869 4.869 0 0 1-1.725-3.11.666.666 0 0 1-.006-.106 8.712 8.712 0 0 0-.023-.809 8.423 8.423 0 0 0-3.048-5.896 8.437 8.437 0 0 0-6.405-1.9 4.744 4.744 0 0 1-.783.12 4.874 4.874 0 0 1-3.476-1.111 4.86 4.86 0 0 1-1.737-3.19 4.922 4.922 0 0 1-.02-.966 8.426 8.426 0 0 0-3.038-5.76 8.543 8.543 0 0 0-7.037-1.805.78.78 0 0 1-.067.01 4.867 4.867 0 0 1-3.572-1.105 4.87 4.87 0 0 1-1.725-3.111.67.67 0 0 1-.006-.106 8.602 8.602 0 0 0-.023-.809 8.42 8.42 0 0 0-3.049-5.896 8.436 8.436 0 0 0-6.403-1.899c-.255.06-.519.1-.784.12a4.873 4.873 0 0 1-3.476-1.112 4.872 4.872 0 0 1-1.719-3.075.694.694 0 0 1-.006-.112 8.428 8.428 0 0 0-3.07-6.728 8.543 8.543 0 0 0-7.037-1.805.69.69 0 0 1-.067.009 4.867 4.867 0 0 1-3.572-1.105 4.87 4.87 0 0 1-1.725-3.112.7.7 0 0 1-.006-.105 8.438 8.438 0 0 0-.023-.809 8.42 8.42 0 0 0-3.049-5.896 8.44 8.44 0 0 0-6.444-1.894c-.228.027-.45.062-.657.103a.635.635 0 0 1-.086.012 4.875 4.875 0 0 1-3.476-1.112 4.861 4.861 0 0 1-1.737-3.206.75.75 0 0 1-.004-.087 8.524 8.524 0 0 0-.02-.664 8.413 8.413 0 0 0-3.054-5.974 8.446 8.446 0 0 0-6.366-1.903 8.99 8.99 0 0 0-.8.126.667.667 0 0 1-.105.014 4.886 4.886 0 0 1-3.381-1.119 4.853 4.853 0 0 1-1.747-3.3.79.79 0 0 1-.003-.068 8.517 8.517 0 0 0-3.076-6.572 8.557 8.557 0 0 0-9.61-.862.686.686 0 0 1-.075.036 4.89 4.89 0 0 1-5.006-.75 4.844 4.844 0 0 1-1.339-1.756 3.538 3.538 0 0 0-.943 1.324 4.889 4.889 0 0 1 3.53 5.605l-.004.03c-.005.031-.01.063-.017.094a.707.707 0 0 1-.022.082c-.07.204-.131.408-.183.608a8.528 8.528 0 0 0 2.805 8.664 8.535 8.535 0 0 0 6.643 1.87c.046-.006.092-.014.138-.022l.067-.012a4.922 4.922 0 0 1 3.818 1.076 4.864 4.864 0 0 1 1.734 3.188c.003.03.005.059.005.089-.003.217.004.445.02.68a8.416 8.416 0 0 0 3.053 5.954 8.545 8.545 0 0 0 7.032 1.805.756.756 0 0 1 .07-.01 4.87 4.87 0 0 1 3.553 1.107 4.853 4.853 0 0 1 1.744 3.282.59.59 0 0 1 .004.07 8.518 8.518 0 0 0 3.076 6.567 8.44 8.44 0 0 0 6.422 1.898c.235-.028.462-.063.675-.105a.67.67 0 0 1 .088-.012 4.877 4.877 0 0 1 3.457 1.113 4.897 4.897 0 0 1 1.769 3.772 8.509 8.509 0 0 0 3.066 6.157 8.447 8.447 0 0 0 6.345 1.906c.255-.027.52-.069.784-.122a.686.686 0 0 1 .098-.013 4.882 4.882 0 0 1 3.409 1.116 4.857 4.857 0 0 1 1.766 3.898 8.521 8.521 0 0 0 3.057 6.022 8.44 8.44 0 0 0 6.423 1.896c.234-.027.46-.062.674-.105.03-.006.06-.01.089-.011a4.878 4.878 0 0 1 3.457 1.113 4.898 4.898 0 0 1 1.769 3.772 8.508 8.508 0 0 0 3.066 6.157 8.447 8.447 0 0 0 6.295 1.911 4.974 4.974 0 0 1 .867-.137 4.868 4.868 0 0 1 3.473 1.113 4.855 4.855 0 0 1 1.767 3.897 8.52 8.52 0 0 0 3.057 6.023 8.44 8.44 0 0 0 6.423 1.896c.24-.028.46-.062.674-.105a.678.678 0 0 1 .089-.012 4.877 4.877 0 0 1 3.457 1.114 4.897 4.897 0 0 1 1.769 3.771 8.51 8.51 0 0 0 3.066 6.158 8.447 8.447 0 0 0 6.295 1.911 4.952 4.952 0 0 1 .867-.137 4.867 4.867 0 0 1 3.473 1.113 4.853 4.853 0 0 1 1.767 3.897 8.52 8.52 0 0 0 3.057 6.022 8.44 8.44 0 0 0 6.423 1.897c.234-.027.46-.063.675-.105a.72.72 0 0 1 .088-.012 4.875 4.875 0 0 1 3.457 1.114 4.896 4.896 0 0 1 1.769 3.771 8.51 8.51 0 0 0 3.066 6.158 8.447 8.447 0 0 0 6.295 1.91c.302-.076.61-.125.917-.143m9.629 2.629a4.935 4.935 0 0 1-.83.542.699.699 0 0 1-1-.466 3.461 3.461 0 0 0-1.18-1.924 3.49 3.49 0 0 0-3.216-.663 9.869 9.869 0 0 1-3.17 1.255.69.69 0 0 1-.107.014c-.247.012-.495.05-.738.116a.688.688 0 0 1-.105.02 9.831 9.831 0 0 1-7.385-2.22 9.902 9.902 0 0 1-3.57-7.184v-.034a3.5 3.5 0 0 0-1.265-2.71 3.483 3.483 0 0 0-2.43-.799 9.59 9.59 0 0 1-.738.113 9.823 9.823 0 0 1-7.475-2.208 9.914 9.914 0 0 1-3.56-7.043.608.608 0 0 1-.001-.064 3.47 3.47 0 0 0-1.262-2.813 3.483 3.483 0 0 0-2.592-.788c-.19.02-.375.053-.554.1a.706.706 0 0 1-.105.02 9.832 9.832 0 0 1-7.385-2.218 9.902 9.902 0 0 1-3.57-7.218c0-.063 0-.125-.004-.188a3.502 3.502 0 0 0-1.26-2.523 3.486 3.486 0 0 0-2.432-.799c-.233.046-.481.083-.737.114a9.825 9.825 0 0 1-7.475-2.208 9.914 9.914 0 0 1-3.56-7.044.694.694 0 0 1-.001-.064 3.473 3.473 0 0 0-1.262-2.813 3.483 3.483 0 0 0-2.592-.788c-.19.02-.375.053-.554.101a.744.744 0 0 1-.105.02 9.833 9.833 0 0 1-7.384-2.219 9.902 9.902 0 0 1-3.571-7.218 3.503 3.503 0 0 0-1.265-2.712 3.489 3.489 0 0 0-2.43-.797c-.236.045-.484.083-.738.113a9.823 9.823 0 0 1-7.475-2.208 9.917 9.917 0 0 1-3.56-7.043.702.702 0 0 1-.001-.064 3.472 3.472 0 0 0-1.262-2.812 3.49 3.49 0 0 0-2.391-.8 9.96 9.96 0 0 1-.86.13 9.83 9.83 0 0 1-7.384-2.218 9.9 9.9 0 0 1-3.57-7.218 3.502 3.502 0 0 0-1.265-2.71 3.485 3.485 0 0 0-2.431-.8 9.988 9.988 0 0 1-.737.114 9.824 9.824 0 0 1-7.475-2.208 9.917 9.917 0 0 1-3.58-7.605 3.47 3.47 0 0 0-1.244-2.315 3.481 3.481 0 0 0-2.508-.794 9.945 9.945 0 0 1-8.146-2.109 9.794 9.794 0 0 1-3.554-6.927 10.03 10.03 0 0 1-.024-.745 3.477 3.477 0 0 0-1.235-2.238 3.514 3.514 0 0 0-2.716-.771l-.04.007-.18.03a9.932 9.932 0 0 1-7.73-2.178 9.925 9.925 0 0 1-3.264-10.083c.056-.217.121-.438.195-.658l.01-.06a3.498 3.498 0 0 0-3.107-4.114.697.697 0 0 1-.62-.82 4.885 4.885 0 0 1 2.56-3.449.699.699 0 0 1 1 .466c.17.761.578 1.427 1.18 1.924a3.498 3.498 0 0 0 3.544.552 9.548 9.548 0 0 1 .619-.318 9.959 9.959 0 0 1 10.527 1.342 9.914 9.914 0 0 1 3.58 7.612 3.47 3.47 0 0 0 1.246 2.33 3.492 3.492 0 0 0 2.368.801 10 10 0 0 1 .875-.136 9.828 9.828 0 0 1 7.41 2.216 9.792 9.792 0 0 1 3.554 6.953c.017.249.024.493.023.725a3.48 3.48 0 0 0 1.237 2.253c.687.57 1.554.852 2.445.798.23-.045.47-.082.719-.112a9.82 9.82 0 0 1 7.5 2.205 9.8 9.8 0 0 1 3.548 6.862c.022.294.032.591.028.884a3.48 3.48 0 0 0 1.226 2.176 3.48 3.48 0 0 0 2.523.793 9.944 9.944 0 0 1 8.153 2.107 9.811 9.811 0 0 1 3.574 7.77 3.483 3.483 0 0 0 1.22 2.146 3.486 3.486 0 0 0 3.08.701.672.672 0 0 1 .085-.015 9.822 9.822 0 0 1 7.5 2.205 9.8 9.8 0 0 1 3.548 6.862c.022.293.032.59.027.884a3.484 3.484 0 0 0 1.227 2.176c.71.588 1.605.869 2.523.793a9.942 9.942 0 0 1 8.152 2.107 9.808 9.808 0 0 1 3.542 6.771.675.675 0 0 1 0 .124 3.505 3.505 0 0 0 .012.728 3.48 3.48 0 0 0 1.242 2.293c.697.578 1.58.86 2.485.794.202-.014.402-.046.594-.093a.808.808 0 0 1 .084-.015 9.82 9.82 0 0 1 7.5 2.204 9.8 9.8 0 0 1 3.549 6.863c.022.293.031.59.028.884.126.853.56 1.624 1.226 2.175a3.48 3.48 0 0 0 2.523.793 9.944 9.944 0 0 1 8.152 2.108 9.81 9.81 0 0 1 3.542 6.771.68.68 0 0 1 0 .124 3.478 3.478 0 0 0 .012.728c.103.9.544 1.714 1.242 2.292a3.486 3.486 0 0 0 3.079.702.672.672 0 0 1 .084-.016 9.82 9.82 0 0 1 7.5 2.205 9.8 9.8 0 0 1 3.549 6.862c.022.293.031.59.028.884.126.854.56 1.625 1.226 2.176a3.48 3.48 0 0 0 2.523.793 9.943 9.943 0 0 1 8.152 2.108 9.81 9.81 0 0 1 3.543 6.77.735.735 0 0 1 0 .125 3.5 3.5 0 0 0 .024.85c.005.04.008.08.007.12a9.877 9.877 0 0 1-.479 2.796l-.006.041a3.497 3.497 0 0 0 3.107 4.115.697.697 0 0 1 .62.819 4.89 4.89 0 0 1-1.73 2.907" fill="#93820A"/><path d="M53.234 48.248c.099.13 3.784-1.528 4.109-1.054.324.474-1.826 2.074-.576 2.546s5.977 2.44 11.451 10.921c5.475 8.481 7.98 9.172 7.98 9.172s1.345.295 3.92-.952c2.577-1.248 4.035.517 4.035.517l2.743-2.128s-2.112-1.596-1.272-3.41c.84-1.815 1.62-1.887-1.42-4.405a46.261 46.261 0 0 1-5.333-5.209c-3.2-3.653-6.74-7.637-11.239-9.7-.941-.431-1.94-.766-2.973-.849-1.547-.123-3.08.529-4.465 1.148-3.252 1.455-4.464-.878-6.96 3.403" fill="#E2D100"/><path d="M57.087 47.805l.002-.002-.002.002zM84.19 68.488l1.637-1.27c-.679-.747-1.551-2.105-.835-3.65.13-.28.255-.516.366-.725.5-.94.564-1.06-1.6-2.852a46.936 46.936 0 0 1-5.412-5.287c-2.92-3.335-6.556-7.486-11.005-9.525-1.011-.464-1.907-.721-2.738-.788-1.324-.106-2.651.43-4.124 1.09-1.3.58-2.322.616-3.144.644-.873.03-1.515.052-2.262.776 1.693-.583 2.442-.688 2.845-.1.4.585-.03 1.196-.411 1.735a5.823 5.823 0 0 0-.384.595c2.288.893 6.752 3.518 11.68 11.154 4.832 7.483 7.284 8.744 7.574 8.873.2.021 1.378.094 3.438-.904 1.952-.945 3.513-.406 4.375.234zm3.145-.677a.214.214 0 0 1-.012.009l-2.742 2.127a.697.697 0 0 1-.965-.106c-.113-.131-1.202-1.299-3.193-.334-2.715 1.315-4.213 1.042-4.375 1.006a.766.766 0 0 1-.037-.009c-.282-.078-2.918-1.006-8.378-9.466-4.793-7.423-9.02-9.857-11.113-10.647-.517-.195-.717-.534-.794-.783-.174-.567.119-1.11.453-1.604-.564.174-1.23.417-1.605.554-1.19.434-1.549.565-1.894.112a.695.695 0 0 1-.048-.772c1.663-2.853 2.923-3.105 4.655-3.164.773-.027 1.572-.054 2.622-.524 1.274-.57 3.018-1.35 4.806-1.206.996.08 2.045.377 3.208.91 4.72 2.164 8.464 6.44 11.472 9.874a45.523 45.523 0 0 0 5.254 5.132c2.68 2.219 2.816 2.93 1.94 4.576a12.03 12.03 0 0 0-.332.656c-.598 1.29 1.043 2.55 1.06 2.563a.694.694 0 0 1 .018 1.096z" fill="#93820A"/></g></svg>