<svg width="167" height="158" viewBox="0 0 167 158" xmlns="http://www.w3.org/2000/svg" xmlns:xlink="http://www.w3.org/1999/xlink"><title>Malla 1 y 2 libras</title><defs><path d="M.128 5.045A27.21 27.21 0 0 1 15.818.092c5.833 0 11.242 1.83 15.689 4.953H.128z" id="a"/><path d="M.098 10.571C5.128 4.188 12.901.092 21.626.092c8.725 0 16.5 4.095 21.528 10.48H.098z" id="c"/><path d="M98.16 16.098a27.218 27.218 0 0 0-15.853-5.067c-3.852 0-7.518.8-10.845 2.24C66.632 5.366 57.956.093 48.055.093c-9.612 0-18.07 4.971-22.974 12.496a27.255 27.255 0 0 0-9.103-1.557A27.218 27.218 0 0 0 .125 16.098H98.16z" id="e"/><path d="M109.735 21.625c-5.026-6.45-12.841-10.594-21.62-10.594-3.851 0-7.517.8-10.844 2.24C72.44 5.366 63.765.093 53.864.093c-9.612 0-18.07 4.971-22.975 12.496a27.255 27.255 0 0 0-9.102-1.557c-8.778 0-16.593 4.144-21.62 10.594h109.568z" id="g"/><path d="M116.28 27.152c-4.336-9.513-13.886-16.12-24.97-16.12-3.851 0-7.517.799-10.844 2.24C75.636 5.365 66.96.092 57.059.092c-9.613 0-18.07 4.971-22.975 12.496a27.255 27.255 0 0 0-9.102-1.557c-11.084 0-20.634 6.608-24.97 16.12H116.28z" id="i"/><path d="M120.156 32.679C117.44 20.296 106.468 11.03 93.344 11.03c-3.852 0-7.518.8-10.845 2.24C77.669 5.366 68.993.093 59.092.093c-9.613 0-18.07 4.971-22.975 12.496a27.255 27.255 0 0 0-9.102-1.557C13.89 11.031 2.917 20.296.203 32.68h119.953z" id="k"/><path d="M121.377 38.205c-.238-15.048-12.438-27.174-27.452-27.174-3.852 0-7.518.8-10.846 2.24C78.25 5.366 69.574.093 59.673.093c-9.613 0-18.07 4.971-22.975 12.496a27.255 27.255 0 0 0-9.102-1.557C12.58 11.031.38 23.157.143 38.205h121.234z" id="m"/><path d="M125.273 43.732a27.91 27.91 0 0 0 .464-5.078c0-15.256-12.292-27.623-27.456-27.623-3.852 0-7.518.8-10.845 2.24C82.606 5.366 73.93.093 64.029.093c-9.612 0-18.07 4.971-22.974 12.496a27.255 27.255 0 0 0-9.103-1.557c-15.163 0-27.456 12.367-27.456 27.623 0 1.324.095 2.626.274 3.9a27.138 27.138 0 0 0-4.663 1.178h125.166z" id="o"/><path d="M142.085 49.26a27.186 27.186 0 0 0-8.066-3.153 27.808 27.808 0 0 0 1.012-7.453c0-15.256-12.292-27.623-27.456-27.623-3.852 0-7.518.8-10.845 2.24C91.9 5.366 83.224.093 73.323.093c-9.612 0-18.07 4.971-22.974 12.496a27.255 27.255 0 0 0-9.103-1.557c-15.164 0-27.456 12.367-27.456 27.623 0 1.324.095 2.626.274 3.9A27.294 27.294 0 0 0 .09 49.26h141.995z" id="q"/><path d="M153.424 54.786c-3.809-4.317-8.942-7.425-14.758-8.68a27.808 27.808 0 0 0 1.012-7.452c0-15.256-12.292-27.623-27.456-27.623-3.852 0-7.518.8-10.845 2.24C96.547 5.366 87.87.093 77.97.093c-9.612 0-18.07 4.971-22.974 12.496a27.255 27.255 0 0 0-9.103-1.557c-15.164 0-27.456 12.367-27.456 27.623 0 1.324.095 2.626.274 3.9C10.893 43.807 4.175 48.378.029 54.787h153.395z" id="s"/><path d="M160.122 60.313c-3.727-7.156-10.481-12.466-18.552-14.206a27.808 27.808 0 0 0 1.012-7.453c0-15.256-12.292-27.623-27.456-27.623-3.852 0-7.518.8-10.845 2.24C99.451 5.366 90.775.093 80.874.093c-9.612 0-18.07 4.971-22.974 12.496a27.255 27.255 0 0 0-9.103-1.557c-15.163 0-27.456 12.367-27.456 27.623 0 1.324.095 2.626.274 3.9C11.7 44.143 3.554 51.069.181 60.314h159.941z" id="u"/><path d="M163.733 65.84c-2.676-9.889-10.676-17.569-20.71-19.733a27.808 27.808 0 0 0 1.011-7.453c0-15.256-12.292-27.623-27.456-27.623-3.852 0-7.517.8-10.845 2.24C100.903 5.366 92.228.093 82.327.093c-9.613 0-18.07 4.971-22.975 12.496a27.255 27.255 0 0 0-9.102-1.557c-15.164 0-27.456 12.367-27.456 27.623 0 1.324.094 2.626.273 3.9C11.26 44.445 1.96 53.908.244 65.84h163.489z" id="w"/><path d="M164.931 71.366c-.774-12.476-9.78-22.706-21.618-25.26a27.808 27.808 0 0 0 1.012-7.452c0-15.256-12.292-27.623-27.456-27.623-3.852 0-7.518.8-10.845 2.24C101.194 5.366 92.518.093 82.617.093c-9.612 0-18.07 4.971-22.974 12.496a27.255 27.255 0 0 0-9.103-1.557c-15.164 0-27.456 12.367-27.456 27.623 0 1.324.095 2.626.274 3.9C10.26 44.652.249 56.065.249 69.832c0 .515.015 1.027.042 1.535h164.64z" id="y"/><path d="M164.73 76.893c.168-1.236.255-2.498.255-3.78 0-13.26-9.286-24.335-21.672-27.006a27.808 27.808 0 0 0 1.012-7.453c0-15.256-12.292-27.623-27.456-27.623-3.852 0-7.518.8-10.845 2.24C101.194 5.366 92.518.093 82.617.093c-9.612 0-18.07 4.971-22.974 12.496a27.255 27.255 0 0 0-9.103-1.557c-15.164 0-27.456 12.367-27.456 27.623 0 1.324.095 2.626.274 3.9C10.26 44.652.249 56.065.249 69.832c0 2.44.315 4.808.906 7.062H164.73z" id="A"/><path d="M163.387 82.42a27.715 27.715 0 0 0 1.598-9.308c0-13.258-9.286-24.334-21.672-27.005a27.808 27.808 0 0 0 1.012-7.453c0-15.256-12.292-27.623-27.456-27.623-3.852 0-7.518.8-10.845 2.24C101.194 5.366 92.518.093 82.617.093c-9.612 0-18.07 4.971-22.974 12.496a27.255 27.255 0 0 0-9.103-1.557c-15.164 0-27.456 12.367-27.456 27.623 0 1.324.095 2.626.274 3.9C10.26 44.652.249 56.065.249 69.832A27.65 27.65 0 0 0 3.26 82.421h160.127z" id="C"/><path d="M161.87 87.947a25.98 25.98 0 0 0-.56-1.024 27.618 27.618 0 0 0 3.675-13.81c0-13.26-9.286-24.335-21.672-27.006a27.808 27.808 0 0 0 1.012-7.453c0-15.256-12.292-27.623-27.456-27.623-3.852 0-7.518.8-10.845 2.24C101.194 5.366 92.518.093 82.617.093c-9.612 0-18.07 4.971-22.974 12.496a27.255 27.255 0 0 0-9.103-1.557c-15.164 0-27.456 12.367-27.456 27.623 0 1.324.095 2.626.274 3.9C10.26 44.652.249 56.065.249 69.832a27.61 27.61 0 0 0 4.695 15.452 27.643 27.643 0 0 0-1.581 2.664H161.87z" id="E"/><path d="M164.026 93.473a27.555 27.555 0 0 0-2.715-6.55 27.618 27.618 0 0 0 3.674-13.81c0-13.26-9.286-24.335-21.672-27.006a27.808 27.808 0 0 0 1.012-7.453c0-15.256-12.292-27.623-27.456-27.623-3.852 0-7.518.8-10.845 2.24C101.194 5.366 92.518.093 82.617.093c-9.612 0-18.07 4.971-22.974 12.496a27.255 27.255 0 0 0-9.103-1.557c-15.164 0-27.456 12.367-27.456 27.623 0 1.324.095 2.626.274 3.9C10.26 44.652.249 56.065.249 69.832a27.61 27.61 0 0 0 4.695 15.452 27.568 27.568 0 0 0-3.736 8.19h162.818z" id="G"/><path d="M.276 3.83A27.197 27.197 0 0 1 14.074.092a27.2 27.2 0 0 1 13.8 3.738H.275z" id="I"/><path d="M164.932 99a27.579 27.579 0 0 0-3.621-12.077 27.618 27.618 0 0 0 3.674-13.81c0-13.26-9.286-24.335-21.672-27.006a27.808 27.808 0 0 0 1.012-7.453c0-15.256-12.292-27.623-27.456-27.623-3.852 0-7.518.8-10.845 2.24C101.194 5.366 92.518.093 82.617.093c-9.612 0-18.07 4.971-22.974 12.496a27.255 27.255 0 0 0-9.103-1.557c-15.164 0-27.456 12.367-27.456 27.623 0 1.324.095 2.626.274 3.9C10.26 44.652.249 56.065.249 69.832a27.61 27.61 0 0 0 4.695 15.452A27.577 27.577 0 0 0 .303 99h164.629z" id="K"/><path d="M.242 9.356C5.27 3.673 12.596.092 20.754.092c8.159 0 15.486 3.58 20.514 9.264H.242z" id="M"/><path d="M164.728 104.527c.17-1.24.257-2.506.257-3.793a27.62 27.62 0 0 0-3.674-13.81 27.618 27.618 0 0 0 3.674-13.812c0-13.258-9.286-24.334-21.672-27.005a27.808 27.808 0 0 0 1.012-7.453c0-15.256-12.292-27.623-27.456-27.623-3.852 0-7.518.8-10.845 2.24C101.194 5.366 92.518.093 82.617.093c-9.612 0-18.07 4.971-22.974 12.496a27.255 27.255 0 0 0-9.103-1.557c-15.164 0-27.456 12.367-27.456 27.623 0 1.324.095 2.626.274 3.9C10.26 44.652.249 56.065.249 69.832a27.61 27.61 0 0 0 4.695 15.452 27.61 27.61 0 0 0-4.694 15.45c0 1.287.088 2.553.257 3.793h164.222z" id="O"/><path d="M94.558 14.883a27.204 27.204 0 0 0-13.993-3.852c-3.852 0-7.518.8-10.846 2.24C64.89 5.366 56.214.093 46.313.093c-9.613 0-18.07 4.971-22.975 12.496a27.255 27.255 0 0 0-9.102-1.557A27.206 27.206 0 0 0 .242 14.884h94.316z" id="Q"/><path d="M163.383 110.054a27.718 27.718 0 0 0 1.602-9.32 27.62 27.62 0 0 0-3.674-13.81 27.618 27.618 0 0 0 3.674-13.812c0-13.258-9.286-24.334-21.672-27.005a27.808 27.808 0 0 0 1.012-7.453c0-15.256-12.292-27.623-27.456-27.623-3.852 0-7.518.8-10.845 2.24C101.194 5.366 92.518.093 82.617.093c-9.612 0-18.07 4.971-22.974 12.496a27.255 27.255 0 0 0-9.103-1.557c-15.164 0-27.456 12.367-27.456 27.623 0 1.324.095 2.626.274 3.9C10.26 44.652.249 56.065.249 69.832a27.61 27.61 0 0 0 4.695 15.452 27.61 27.61 0 0 0-4.694 15.45c0 3.27.566 6.408 1.603 9.32h161.53z" id="S"/><path d="M107.57 20.41c-5.031-5.75-12.402-9.379-20.616-9.379-3.852 0-7.518.8-10.845 2.24C71.279 5.366 62.603.093 52.702.093c-9.612 0-18.07 4.971-22.974 12.496a27.255 27.255 0 0 0-9.103-1.557c-8.213 0-15.584 3.629-20.616 9.38H107.57z" id="U"/><path d="M160.685 115.58a27.609 27.609 0 0 0 4.3-14.846 27.62 27.62 0 0 0-3.674-13.81 27.618 27.618 0 0 0 3.674-13.812c0-13.258-9.286-24.334-21.672-27.005a27.808 27.808 0 0 0 1.012-7.453c0-15.256-12.292-27.623-27.456-27.623-3.852 0-7.518.8-10.845 2.24C101.194 5.366 92.518.093 82.617.093c-9.612 0-18.07 4.971-22.974 12.496a27.255 27.255 0 0 0-9.103-1.557c-15.164 0-27.456 12.367-27.456 27.623 0 1.324.095 2.626.274 3.9C10.26 44.652.249 56.065.249 69.832a27.61 27.61 0 0 0 4.695 15.452 27.61 27.61 0 0 0-4.694 15.45 27.61 27.61 0 0 0 4.3 14.847h156.136z" id="W"/><path d="M115.11 25.937c-4.574-8.856-13.775-14.906-24.38-14.906-3.852 0-7.518.8-10.845 2.24C75.055 5.366 66.379.093 56.478.093c-9.613 0-18.07 4.971-22.975 12.496a27.255 27.255 0 0 0-9.102-1.557c-10.606 0-19.807 6.05-24.38 14.906H115.11z" id="Y"/><path d="M156.067 121.108a27.62 27.62 0 0 0 8.918-20.374 27.62 27.62 0 0 0-3.674-13.81 27.618 27.618 0 0 0 3.674-13.812c0-13.258-9.286-24.334-21.672-27.005a27.808 27.808 0 0 0 1.012-7.453c0-15.256-12.292-27.623-27.456-27.623-3.852 0-7.518.8-10.845 2.24C101.194 5.366 92.518.093 82.617.093c-9.612 0-18.07 4.971-22.974 12.496a27.255 27.255 0 0 0-9.103-1.557c-15.164 0-27.456 12.367-27.456 27.623 0 1.324.095 2.626.274 3.9C10.26 44.652.249 56.065.249 69.832a27.61 27.61 0 0 0 4.695 15.452 27.61 27.61 0 0 0-4.694 15.45 27.621 27.621 0 0 0 8.918 20.374h146.9z" id="aa"/><path d="M119.57 31.464c-3.145-11.77-13.825-20.433-26.517-20.433-3.852 0-7.518.8-10.845 2.24C77.378 5.366 68.702.093 58.801.093c-9.612 0-18.07 4.971-22.974 12.496a27.255 27.255 0 0 0-9.103-1.557c-12.691 0-23.371 8.664-26.516 20.433H119.57z" id="ac"/><path d="M148.63 126.634c.011-.213.02-.428.028-.643a27.633 27.633 0 0 0 16.327-25.257 27.62 27.62 0 0 0-3.674-13.81 27.618 27.618 0 0 0 3.674-13.812c0-13.258-9.286-24.334-21.672-27.005a27.808 27.808 0 0 0 1.012-7.453c0-15.256-12.292-27.623-27.456-27.623-3.852 0-7.518.8-10.845 2.24C101.194 5.366 92.518.093 82.617.093c-9.612 0-18.07 4.971-22.974 12.496a27.255 27.255 0 0 0-9.103-1.557c-15.164 0-27.456 12.367-27.456 27.623 0 1.324.095 2.626.274 3.9C10.26 44.652.249 56.065.249 69.832a27.61 27.61 0 0 0 4.695 15.452 27.61 27.61 0 0 0-4.694 15.45 27.63 27.63 0 0 0 16.924 25.515l.085.385H148.63z" id="ae"/><path d="M121.332 36.99c-.855-14.48-12.799-25.959-27.407-25.959-3.852 0-7.518.8-10.846 2.24C78.25 5.366 69.574.093 59.673.093c-9.613 0-18.07 4.971-22.975 12.496a27.255 27.255 0 0 0-9.102-1.557c-14.609 0-26.553 11.479-27.407 25.96h121.143z" id="ag"/><path d="M147.76 132.161c.52-1.978.829-4.044.898-6.17a27.633 27.633 0 0 0 16.327-25.257 27.62 27.62 0 0 0-3.674-13.81 27.618 27.618 0 0 0 3.674-13.812c0-13.258-9.286-24.334-21.672-27.005a27.808 27.808 0 0 0 1.012-7.453c0-15.256-12.292-27.623-27.456-27.623-3.852 0-7.518.8-10.845 2.24C101.194 5.366 92.518.093 82.617.093c-9.612 0-18.07 4.971-22.974 12.496a27.255 27.255 0 0 0-9.103-1.557c-15.164 0-27.456 12.367-27.456 27.623 0 1.324.095 2.626.274 3.9C10.26 44.652.249 56.065.249 69.832a27.61 27.61 0 0 0 4.695 15.452 27.61 27.61 0 0 0-4.694 15.45 27.63 27.63 0 0 0 16.924 25.515 27.538 27.538 0 0 0 1.983 5.912H147.76z" id="ai"/><path d="M50.058.08c-5.51 2.074-10.181 5.878-13.36 10.755a27.255 27.255 0 0 0-9.102-1.557C12.432 9.278.14 21.645.14 36.9c0 1.312.093 2.602.268 3.864h120.705a27.98 27.98 0 0 0 .268-3.864c0-15.255-12.293-27.622-27.456-27.622-3.852 0-7.518.8-10.846 2.24C79.9 6.313 75.053 2.25 69.288.08h-19.23z" id="ak"/><path d="M145.65 137.688a27.611 27.611 0 0 0 3.008-11.697 27.633 27.633 0 0 0 16.327-25.257 27.62 27.62 0 0 0-3.674-13.81 27.618 27.618 0 0 0 3.674-13.812c0-13.258-9.286-24.334-21.672-27.005a27.808 27.808 0 0 0 1.012-7.453c0-15.256-12.292-27.623-27.456-27.623-3.852 0-7.518.8-10.845 2.24C101.194 5.366 92.518.093 82.617.093c-9.612 0-18.07 4.971-22.974 12.496a27.255 27.255 0 0 0-9.103-1.557c-15.164 0-27.456 12.367-27.456 27.623 0 1.324.095 2.626.274 3.9C10.26 44.652.249 56.065.249 69.832a27.61 27.61 0 0 0 4.695 15.452 27.61 27.61 0 0 0-4.694 15.45 27.63 27.63 0 0 0 16.924 25.515 27.59 27.59 0 0 0 5.41 11.439H145.65z" id="am"/><path d="M53.312.056a27.731 27.731 0 0 0-4.416 5.227 27.255 27.255 0 0 0-9.102-1.556c-15.164 0-27.456 12.367-27.456 27.622 0 1.324.095 2.626.274 3.9a27.249 27.249 0 0 0-12.53 5.49h138.242a27.142 27.142 0 0 0-5.757-1.937 27.808 27.808 0 0 0 1.012-7.453c0-15.255-12.293-27.622-27.456-27.622-3.852 0-7.518.799-10.845 2.24A27.722 27.722 0 0 0 90.43.056H53.31z" id="ao"/><path d="M141.923 143.215a27.602 27.602 0 0 0 6.735-17.224 27.633 27.633 0 0 0 16.327-25.257 27.62 27.62 0 0 0-3.674-13.81 27.618 27.618 0 0 0 3.674-13.812c0-13.258-9.286-24.334-21.672-27.005a27.808 27.808 0 0 0 1.012-7.453c0-15.256-12.292-27.623-27.456-27.623-3.852 0-7.518.8-10.845 2.24C101.194 5.366 92.518.093 82.617.093c-9.612 0-18.07 4.971-22.974 12.496a27.255 27.255 0 0 0-9.103-1.557c-15.164 0-27.456 12.367-27.456 27.623 0 1.324.095 2.626.274 3.9C10.26 44.652.249 56.065.249 69.832a27.61 27.61 0 0 0 4.695 15.452 27.61 27.61 0 0 0-4.694 15.45 27.63 27.63 0 0 0 16.924 25.515 27.654 27.654 0 0 0 11.325 16.966h31.035c.505-.349.998-.714 1.478-1.096.291.373.592.739.901 1.096h80.01z" id="aq"/><path d="M100.557.03l.239.385c.309-.134.62-.262.935-.384h19.824c10.264 4 17.542 14.028 17.542 25.766 0 2.583-.353 5.082-1.012 7.453a27.36 27.36 0 0 1 13.62 7.465H.28c4.183-5.77 10.535-9.846 17.85-11.017a28.006 28.006 0 0 1-.275-3.9c0-11.74 7.278-21.767 17.542-25.767h65.159z" id="as"/><path d="M135.382 148.742a27.638 27.638 0 0 0 13.276-22.75 27.633 27.633 0 0 0 16.327-25.258 27.62 27.62 0 0 0-3.674-13.81 27.618 27.618 0 0 0 3.674-13.812c0-13.258-9.286-24.334-21.672-27.005a27.808 27.808 0 0 0 1.012-7.453c0-15.256-12.292-27.623-27.456-27.623-3.852 0-7.518.8-10.845 2.24C101.194 5.366 92.518.093 82.617.093c-9.612 0-18.07 4.971-22.974 12.496a27.255 27.255 0 0 0-9.103-1.557c-15.164 0-27.456 12.367-27.456 27.623 0 1.324.095 2.626.274 3.9C10.26 44.652.249 56.065.249 69.832a27.61 27.61 0 0 0 4.695 15.452 27.61 27.61 0 0 0-4.694 15.45 27.63 27.63 0 0 0 16.924 25.515c2.658 12.458 13.665 21.798 26.843 21.798 6.417 0 12.32-2.216 16.995-5.928a27.65 27.65 0 0 0 7.442 6.623H96.78a27.598 27.598 0 0 0 5.139-4.024 27.6 27.6 0 0 0 5.138 4.024h28.326z" id="au"/><path d="M133.23.006a27.624 27.624 0 0 1 8.771 20.24 27.79 27.79 0 0 1-1.012 7.452c7.607 1.641 14.045 6.452 17.88 12.992H.076c3.622-8.633 11.483-15.027 20.958-16.543a28.006 28.006 0 0 1-.273-3.901A27.624 27.624 0 0 1 29.53.006h103.7z" id="aw"/><path d="M59.643 12.588C64.547 5.063 73.005.092 82.617.092c9.901 0 18.577 5.273 23.407 13.18a27.222 27.222 0 0 1 10.845-2.24c15.164 0 27.456 12.366 27.456 27.622 0 2.582-.354 5.081-1.012 7.453 12.386 2.671 21.672 13.747 21.672 27.005 0 5.032-1.338 9.748-3.674 13.811a27.62 27.62 0 0 1 3.674 13.811c0 11.27-6.71 20.961-16.327 25.257-.481 14.83-12.581 26.705-27.44 26.705-7.524 0-14.34-3.046-19.3-7.978-4.96 4.932-11.776 7.978-19.3 7.978-8.77 0-16.58-4.136-21.607-10.577a27.234 27.234 0 0 1-16.995 5.928c-13.178 0-24.185-9.34-26.843-21.798A27.63 27.63 0 0 1 .25 100.734a27.61 27.61 0 0 1 4.695-15.451A27.61 27.61 0 0 1 .25 69.83c0-13.767 10.011-25.18 23.109-27.276a28.006 28.006 0 0 1-.274-3.901c0-15.256 12.292-27.623 27.456-27.623 3.19 0 6.254.55 9.103 1.557z" id="ay"/><path d="M139.53.273a27.615 27.615 0 0 1 4.214 14.713c0 2.583-.353 5.082-1.012 7.453 9.62 2.075 17.37 9.22 20.351 18.518H.156c2.153-11.356 11.217-20.244 22.621-22.07a28.006 28.006 0 0 1-.274-3.9A27.615 27.615 0 0 1 26.718.272h112.811z" id="aA"/><path d="M59.643 12.588C64.547 5.063 73.005.092 82.617.092c9.901 0 18.577 5.273 23.407 13.18a27.222 27.222 0 0 1 10.845-2.24c15.164 0 27.456 12.366 27.456 27.622 0 2.582-.354 5.081-1.012 7.453 12.386 2.671 21.672 13.747 21.672 27.005 0 5.032-1.338 9.748-3.674 13.811a27.62 27.62 0 0 1 3.674 13.811c0 11.27-6.71 20.961-16.327 25.257-.481 14.83-12.581 26.705-27.44 26.705-7.524 0-14.34-3.046-19.3-7.978-4.96 4.932-11.776 7.978-19.3 7.978-8.77 0-16.58-4.136-21.607-10.577a27.234 27.234 0 0 1-16.995 5.928c-13.178 0-24.185-9.34-26.843-21.798A27.63 27.63 0 0 1 .25 100.734a27.61 27.61 0 0 1 4.695-15.451A27.61 27.61 0 0 1 .25 69.83c0-13.767 10.011-25.18 23.109-27.276a28.006 28.006 0 0 1-.274-3.901c0-15.256 12.292-27.623 27.456-27.623 3.19 0 6.254.55 9.103 1.557z" id="aC"/><path d="M142.77.249a27.729 27.729 0 0 1 1.555 9.186 27.83 27.83 0 0 1-1.012 7.452c11.451 2.47 20.253 12.124 21.516 24.045H.251a28.445 28.445 0 0 1-.002-.32c0-13.767 10.011-25.18 23.109-27.276a28.006 28.006 0 0 1-.274-3.901c0-3.22.548-6.313 1.555-9.186H142.77z" id="aE"/><path d="M70.232.134a27.644 27.644 0 0 0-10.59 9.532 27.255 27.255 0 0 0-9.102-1.557c-15.164 0-27.456 12.367-27.456 27.623 0 1.324.095 2.626.274 3.9C10.26 41.73.249 53.143.249 66.91a27.61 27.61 0 0 0 4.695 15.45A27.61 27.61 0 0 0 .25 97.812a27.63 27.63 0 0 0 16.924 25.515c2.658 12.458 13.665 21.798 26.843 21.798 6.417 0 12.32-2.215 16.995-5.927 5.027 6.44 12.836 10.576 21.606 10.576 7.525 0 14.341-3.046 19.3-7.978 4.96 4.932 11.777 7.978 19.301 7.978 14.859 0 26.959-11.874 27.44-26.705a27.633 27.633 0 0 0 16.327-25.257 27.62 27.62 0 0 0-3.674-13.81 27.618 27.618 0 0 0 3.674-13.812c0-13.258-9.286-24.334-21.672-27.005a27.808 27.808 0 0 0 1.012-7.453c0-15.256-12.292-27.623-27.456-27.623-3.852 0-7.518.8-10.845 2.24A27.647 27.647 0 0 0 95.004.135H70.231z" id="aG"/><path d="M144.086.224a28.045 28.045 0 0 1-.773 11.112c12.386 2.672 21.672 13.747 21.672 27.006 0 .865-.04 1.72-.117 2.566H.866a27.89 27.89 0 0 1-.617-5.848C.25 21.293 10.26 9.88 23.358 7.784a28.006 28.006 0 0 1-.035-7.56h120.763z" id="aI"/><path d="M62.815.11a27.73 27.73 0 0 0-3.172 4.004 27.255 27.255 0 0 0-9.103-1.556c-15.164 0-27.456 12.367-27.456 27.622 0 1.324.095 2.627.274 3.901C10.26 36.178.249 47.591.249 61.357A27.61 27.61 0 0 0 4.944 76.81 27.61 27.61 0 0 0 .25 92.261a27.63 27.63 0 0 0 16.924 25.515c2.658 12.458 13.665 21.798 26.843 21.798 6.417 0 12.32-2.216 16.995-5.928 5.027 6.44 12.836 10.577 21.606 10.577 7.525 0 14.341-3.046 19.3-7.979 4.96 4.933 11.777 7.979 19.301 7.979 14.859 0 26.959-11.875 27.44-26.705a27.633 27.633 0 0 0 16.327-25.257 27.62 27.62 0 0 0-3.674-13.811 27.618 27.618 0 0 0 3.674-13.811c0-13.259-9.286-24.334-21.672-27.006a27.808 27.808 0 0 0 1.012-7.453c0-15.255-12.292-27.622-27.456-27.622-3.852 0-7.518.8-10.845 2.24A27.72 27.72 0 0 0 102.42.11H62.815z" id="aK"/><path d="M144.263.2a27.731 27.731 0 0 1-.95 5.584c12.386 2.672 21.672 13.747 21.672 27.006 0 2.816-.42 5.533-1.198 8.093H2.678A27.662 27.662 0 0 1 .249 29.508c0-13.767 10.011-25.18 23.109-27.276A28.16 28.16 0 0 1 23.147.2h121.116z" id="aM"/><path d="M129.478.085a27.64 27.64 0 0 1 14.847 24.543c0 2.583-.354 5.082-1.012 7.453 12.386 2.672 21.672 13.748 21.672 27.006 0 5.032-1.338 9.748-3.674 13.811a27.62 27.62 0 0 1 3.674 13.811c0 11.27-6.71 20.96-16.327 25.257-.481 14.83-12.581 26.705-27.44 26.705-7.524 0-14.34-3.046-19.3-7.979-4.96 4.933-11.776 7.979-19.3 7.979-8.77 0-16.58-4.137-21.607-10.577a27.234 27.234 0 0 1-16.995 5.928c-13.178 0-24.185-9.34-26.843-21.798A27.63 27.63 0 0 1 .25 86.709a27.61 27.61 0 0 1 4.695-15.452A27.61 27.61 0 0 1 .25 55.805c0-13.765 10.01-25.179 23.108-27.275a28.006 28.006 0 0 1-.274-3.9A27.64 27.64 0 0 1 37.931.084h91.547z" id="aO"/><path d="M143.329.174l-.016.059c12.386 2.671 21.672 13.747 21.672 27.005 0 4.953-1.296 9.6-3.565 13.62H4.034c.289-.493.592-.977.91-1.45A27.61 27.61 0 0 1 .25 23.958 27.638 27.638 0 0 1 13.735.174h129.594z" id="aQ"/><path d="M136.782.06a27.617 27.617 0 0 1 7.543 19.017c0 2.582-.354 5.082-1.012 7.453 12.386 2.672 21.672 13.747 21.672 27.005a27.62 27.62 0 0 1-3.674 13.811 27.62 27.62 0 0 1 3.674 13.811c0 11.27-6.71 20.961-16.327 25.257-.481 14.83-12.581 26.705-27.44 26.705-7.524 0-14.34-3.046-19.3-7.978-4.96 4.932-11.776 7.978-19.3 7.978-8.77 0-16.58-4.136-21.607-10.576a27.234 27.234 0 0 1-16.995 5.927c-13.178 0-24.185-9.34-26.843-21.798A27.63 27.63 0 0 1 .25 81.157a27.61 27.61 0 0 1 4.695-15.451A27.61 27.61 0 0 1 .25 50.254c0-13.767 10.011-25.18 23.109-27.276a28.006 28.006 0 0 1-.274-3.901A27.617 27.617 0 0 1 30.627.06h106.155z" id="aS"/><path d="M154.72.15a27.629 27.629 0 0 1 10.265 21.537c0 5.031-1.338 9.748-3.674 13.81a27.567 27.567 0 0 1 2.357 5.336H1.566a27.58 27.58 0 0 1 3.378-6.976A27.61 27.61 0 0 1 .25 18.405 27.61 27.61 0 0 1 7.101.15H154.72z" id="aU"/><path d="M140.834.035a27.627 27.627 0 0 1 3.49 13.49c0 2.583-.353 5.082-1.011 7.453 12.386 2.672 21.672 13.747 21.672 27.006 0 5.031-1.338 9.748-3.674 13.81a27.62 27.62 0 0 1 3.674 13.812c0 11.27-6.71 20.96-16.327 25.257-.481 14.83-12.581 26.705-27.44 26.705-7.524 0-14.34-3.046-19.3-7.979-4.96 4.933-11.776 7.979-19.3 7.979-8.77 0-16.58-4.137-21.607-10.577a27.234 27.234 0 0 1-16.995 5.928c-13.178 0-24.185-9.34-26.843-21.798A27.63 27.63 0 0 1 .25 75.606a27.61 27.61 0 0 1 4.695-15.452A27.61 27.61 0 0 1 .25 44.702c0-13.767 10.011-25.18 23.109-27.276a28.006 28.006 0 0 1-.274-3.9c0-4.9 1.268-9.501 3.491-13.49h114.259z" id="aW"/><path d="M159.904.125a27.605 27.605 0 0 1 5.081 16.01c0 5.032-1.338 9.748-3.674 13.811a27.56 27.56 0 0 1 3.52 10.862H.403a27.564 27.564 0 0 1 4.54-12.503A27.61 27.61 0 0 1 .25 12.853c0-4.59 1.114-8.92 3.083-12.728h156.572z" id="aY"/><path d="M143.167.01a27.779 27.779 0 0 1 1.158 7.964 27.83 27.83 0 0 1-1.012 7.452c12.386 2.672 21.672 13.748 21.672 27.006 0 5.032-1.338 9.748-3.674 13.811a27.62 27.62 0 0 1 3.674 13.811c0 11.27-6.71 20.961-16.327 25.257-.481 14.83-12.581 26.705-27.44 26.705-7.524 0-14.34-3.046-19.3-7.978-4.96 4.932-11.776 7.978-19.3 7.978-8.77 0-16.58-4.136-21.607-10.577a27.234 27.234 0 0 1-16.995 5.928c-13.178 0-24.185-9.34-26.843-21.798A27.63 27.63 0 0 1 .25 70.054a27.61 27.61 0 0 1 4.695-15.451A27.61 27.61 0 0 1 .25 39.15c0-13.767 10.011-25.18 23.109-27.276a28.006 28.006 0 0 1-.274-3.901c0-2.769.405-5.442 1.158-7.963h118.925z" id="ba"/><path d="M162.938.1a27.682 27.682 0 0 1 2.047 10.483c0 5.032-1.338 9.748-3.674 13.811a27.62 27.62 0 0 1 3.674 13.811c0 .87-.04 1.73-.118 2.578H.367a28.134 28.134 0 0 1-.118-2.578 27.61 27.61 0 0 1 4.695-15.451A27.61 27.61 0 0 1 .25 7.302C.25 4.81.577 2.396 1.192.1h161.746z" id="bc"/><path d="M144.22.278a28.038 28.038 0 0 1-.907 9.889c12.386 2.672 21.672 13.747 21.672 27.006 0 5.031-1.338 9.748-3.674 13.81a27.62 27.62 0 0 1 3.674 13.812c0 11.27-6.71 20.96-16.327 25.257-.481 14.83-12.581 26.705-27.44 26.705-7.524 0-14.34-3.046-19.3-7.979-4.96 4.933-11.776 7.979-19.3 7.979-8.77 0-16.58-4.137-21.607-10.577a27.234 27.234 0 0 1-16.995 5.928c-13.178 0-24.185-9.34-26.843-21.798A27.63 27.63 0 0 1 .25 64.795a27.61 27.61 0 0 1 4.695-15.452A27.61 27.61 0 0 1 .25 33.891c0-13.767 10.011-25.18 23.109-27.276A28.006 28.006 0 0 1 23.19.278h121.03z" id="be"/><path d="M164.544.075c.29 1.608.441 3.265.441 4.957 0 5.031-1.338 9.748-3.674 13.81a27.62 27.62 0 0 1 3.674 13.812c0 2.82-.42 5.542-1.201 8.105H1.45a27.769 27.769 0 0 1-1.2-8.105 27.61 27.61 0 0 1 4.694-15.452A27.61 27.61 0 0 1 .25 1.75C.25 1.188.266.63.3.075h164.245z" id="bg"/><path d="M144.155.253a27.697 27.697 0 0 1-.842 4.362c12.386 2.672 21.672 13.748 21.672 27.006 0 5.032-1.338 9.748-3.674 13.811a27.62 27.62 0 0 1 3.674 13.811c0 11.27-6.71 20.961-16.327 25.257-.481 14.83-12.581 26.705-27.44 26.705-7.524 0-14.34-3.046-19.3-7.978-4.96 4.932-11.776 7.978-19.3 7.978-8.77 0-16.58-4.136-21.607-10.577a27.234 27.234 0 0 1-16.995 5.928c-13.178 0-24.185-9.34-26.843-21.798A27.63 27.63 0 0 1 .25 59.243a27.61 27.61 0 0 1 4.695-15.452A27.61 27.61 0 0 1 .25 28.34c0-13.767 10.01-25.18 23.108-27.276-.038-.27-.072-.54-.102-.81h120.899z" id="bi"/><path d="M164.98.05a27.602 27.602 0 0 1-3.67 13.241 27.62 27.62 0 0 1 3.675 13.811 27.62 27.62 0 0 1-3.572 13.632H3.821A27.62 27.62 0 0 1 .249 27.102a27.61 27.61 0 0 1 4.695-15.451A27.56 27.56 0 0 1 .514.05H164.98z" id="bk"/><path d="M147.243.228c10.369 3.947 17.742 14.028 17.742 25.842 0 5.031-1.338 9.748-3.674 13.81a27.62 27.62 0 0 1 3.674 13.811c0 11.27-6.71 20.961-16.327 25.257-.481 14.83-12.581 26.705-27.44 26.705-7.524 0-14.34-3.046-19.3-7.978-4.96 4.932-11.776 7.978-19.3 7.978-8.77 0-16.58-4.136-21.607-10.576a27.234 27.234 0 0 1-16.995 5.927c-13.178 0-24.185-9.34-26.843-21.798A27.63 27.63 0 0 1 .25 53.691 27.61 27.61 0 0 1 4.944 38.24 27.61 27.61 0 0 1 .25 22.788 27.635 27.635 0 0 1 11.861.228h135.382z" id="bm"/><path d="M164.314.026a27.545 27.545 0 0 1-3.003 7.714 27.62 27.62 0 0 1 3.674 13.81 27.61 27.61 0 0 1-7.68 19.159H7.929A27.613 27.613 0 0 1 .25 21.55 27.61 27.61 0 0 1 4.944 6.099 27.595 27.595 0 0 1 1.873.026h162.44z" id="bo"/><path d="M156.131.203a27.62 27.62 0 0 1 8.854 20.315c0 5.031-1.338 9.748-3.674 13.81a27.62 27.62 0 0 1 3.674 13.812c0 11.27-6.71 20.96-16.327 25.257-.481 14.83-12.581 26.705-27.44 26.705-7.524 0-14.34-3.046-19.3-7.979-4.96 4.933-11.776 7.979-19.3 7.979-8.77 0-16.58-4.137-21.607-10.577a27.234 27.234 0 0 1-16.995 5.928c-13.178 0-24.185-9.34-26.843-21.798A27.63 27.63 0 0 1 .25 48.14a27.61 27.61 0 0 1 4.695-15.452A27.61 27.61 0 0 1 .25 17.236C.25 10.81 2.431 4.896 6.09.203h150.041z" id="bq"/><path d="M162.442 0a27.609 27.609 0 0 1-1.131 2.188 27.62 27.62 0 0 1 3.674 13.81 27.637 27.637 0 0 1-15.127 24.686H15.376A27.636 27.636 0 0 1 .249 16 27.61 27.61 0 0 1 4.944.547c-.121-.18-.24-.363-.358-.546h157.856z" id="bs"/><path d="M160.722.179a27.61 27.61 0 0 1 4.263 14.787c0 5.032-1.338 9.748-3.674 13.811a27.62 27.62 0 0 1 3.674 13.811c0 11.27-6.71 20.961-16.327 25.257-.481 14.83-12.581 26.705-27.44 26.705-7.524 0-14.34-3.046-19.3-7.978-4.96 4.932-11.776 7.978-19.3 7.978-8.77 0-16.58-4.136-21.607-10.576A27.234 27.234 0 0 1 44.016 89.9c-13.178 0-24.185-9.34-26.843-21.798A27.63 27.63 0 0 1 .25 42.588a27.61 27.61 0 0 1 4.695-15.451A27.61 27.61 0 0 1 .25 11.685c0-4.107.89-8.005 2.488-11.506h157.984z" id="bu"/><path d="M162.943.268a27.679 27.679 0 0 1 2.042 10.471c0 11.27-6.71 20.961-16.327 25.257a27.828 27.828 0 0 1-.607 4.955H18.624a27.539 27.539 0 0 1-1.45-4.697A27.63 27.63 0 0 1 .248 10.74 27.707 27.707 0 0 1 2.291.27h160.652z" id="bw"/><path d="M163.404.154a27.721 27.721 0 0 1 1.581 9.26c0 5.032-1.338 9.749-3.674 13.812a27.62 27.62 0 0 1 3.674 13.81c0 11.27-6.71 20.961-16.327 25.258-.481 14.83-12.581 26.705-27.44 26.705-7.524 0-14.34-3.046-19.3-7.979-4.96 4.933-11.776 7.98-19.3 7.98-8.77 0-16.58-4.137-21.607-10.577a27.234 27.234 0 0 1-16.995 5.928c-13.178 0-24.185-9.34-26.843-21.798A27.63 27.63 0 0 1 .25 37.037a27.61 27.61 0 0 1 4.695-15.452A27.61 27.61 0 0 1 .25 6.133C.25 4.08.472 2.08.895.153h162.509z" id="by"/><path d="M164.546.243c.288 1.604.439 3.257.439 4.945 0 11.27-6.71 20.96-16.327 25.257a27.63 27.63 0 0 1-2.425 10.482H21.668a27.574 27.574 0 0 1-4.495-10.224A27.63 27.63 0 0 1 .25 5.188C.25 3.5.4 1.848.69.243h163.857z" id="bA"/><path d="M164.736.13a28.02 28.02 0 0 1 .249 3.733c0 5.032-1.338 9.748-3.674 13.811a27.62 27.62 0 0 1 3.674 13.811c0 11.27-6.71 20.96-16.327 25.257-.481 14.83-12.581 26.705-27.44 26.705-7.524 0-14.34-3.046-19.3-7.979-4.96 4.933-11.776 7.979-19.3 7.979-8.77 0-16.58-4.137-21.607-10.577a27.234 27.234 0 0 1-16.995 5.928c-13.178 0-24.185-9.34-26.843-21.798A27.63 27.63 0 0 1 .25 31.485a27.61 27.61 0 0 1 4.695-15.452A27.61 27.61 0 0 1 .254.13h164.482z" id="bC"/><path d="M164.979.218a27.632 27.632 0 0 1-16.321 24.675 27.596 27.596 0 0 1-5.742 16.009H26.871a27.646 27.646 0 0 1-9.698-15.75A27.627 27.627 0 0 1 .255.217H164.98z" id="bE"/><path d="M164.93.079a27.576 27.576 0 0 1-3.62 12.043 27.62 27.62 0 0 1 3.675 13.811c0 11.27-6.71 20.961-16.327 25.257-.481 14.83-12.581 26.705-27.44 26.705-7.524 0-14.34-3.046-19.3-7.978-4.96 4.932-11.776 7.978-19.3 7.978-8.77 0-16.58-4.136-21.607-10.576a27.234 27.234 0 0 1-16.995 5.927c-13.178 0-24.185-9.34-26.843-21.798A27.63 27.63 0 0 1 .25 25.933a27.61 27.61 0 0 1 4.695-15.451A27.559 27.559 0 0 1 .707.079H164.93z" id="bG"/><path d="M163.44.193a27.639 27.639 0 0 1-15.654 19.149 27.634 27.634 0 0 1-11.444 21.535h-31.989a27.653 27.653 0 0 1-3.307-2.809 27.65 27.65 0 0 1-3.306 2.81H65.75a27.688 27.688 0 0 1-5.61-5.408 27.267 27.267 0 0 1-11.665 5.407H37.813C27.08 38.752 18.593 30.333 16.303 19.6A27.632 27.632 0 0 1 .051.193H163.44z" id="bI"/><path d="M164.01.08a27.551 27.551 0 0 1-2.7 6.49 27.62 27.62 0 0 1 3.675 13.812c0 11.27-6.71 20.96-16.327 25.257-.481 14.83-12.581 26.705-27.44 26.705-7.524 0-14.34-3.046-19.3-7.979-4.96 4.933-11.776 7.979-19.3 7.979-8.77 0-16.58-4.137-21.607-10.577a27.234 27.234 0 0 1-16.995 5.928c-13.178 0-24.185-9.34-26.843-21.798A27.63 27.63 0 0 1 .25 20.382 27.61 27.61 0 0 1 4.944 4.93a27.613 27.613 0 0 1-2.6-4.85H164.01z" id="bK"/><path d="M159.823.169a27.644 27.644 0 0 1-13.78 13.62c-.48 14.831-12.58 26.706-27.438 26.706-7.525 0-14.342-3.046-19.301-7.979-4.96 4.933-11.776 7.979-19.3 7.979-8.77 0-16.58-4.137-21.607-10.577a27.234 27.234 0 0 1-16.995 5.928c-13.178 0-24.184-9.34-26.843-21.798C8.215 11.394 3.072 6.416.184.168h159.639z" id="bM"/><path d="M161.84.055c-.17.325-.347.647-.53.964a27.62 27.62 0 0 1 3.675 13.811c0 11.27-6.71 20.961-16.327 25.257-.481 14.83-12.581 26.705-27.44 26.705-7.524 0-14.34-3.046-19.3-7.978-4.96 4.932-11.776 7.978-19.3 7.978-8.77 0-16.58-4.136-21.607-10.577a27.234 27.234 0 0 1-16.995 5.928c-13.178 0-24.185-9.34-26.843-21.798A27.63 27.63 0 0 1 .25 14.83C.25 9.396 1.81 4.328 4.504.055H161.84z" id="bO"/><path d="M152.943.144a27.578 27.578 0 0 1-10.385 8.094c-.48 14.83-12.58 26.705-27.439 26.705-7.524 0-14.341-3.046-19.3-7.978-4.96 4.932-11.776 7.978-19.301 7.978-8.77 0-16.58-4.136-21.606-10.576a27.234 27.234 0 0 1-16.995 5.927c-13.178 0-24.185-9.34-26.843-21.798A27.558 27.558 0 0 1 .093.144h152.85z" id="bQ"/><path d="M163.407.03a27.717 27.717 0 0 1 1.578 9.249c0 11.269-6.71 20.96-16.327 25.256-.481 14.83-12.581 26.706-27.44 26.706-7.524 0-14.34-3.047-19.3-7.979-4.96 4.932-11.776 7.979-19.3 7.979-8.77 0-16.58-4.137-21.607-10.577a27.234 27.234 0 0 1-16.995 5.927c-13.178 0-24.185-9.34-26.843-21.798A27.63 27.63 0 0 1 .25 9.28c0-3.244.556-6.358 1.577-9.25h161.581z" id="bS"/><path d="M141.281.12a27.377 27.377 0 0 1-4.531 2.567c-.48 14.83-12.581 26.705-27.44 26.705-7.524 0-14.34-3.046-19.3-7.979-4.96 4.933-11.776 7.979-19.3 7.979-8.77 0-16.58-4.137-21.607-10.577a27.234 27.234 0 0 1-16.995 5.928c-13.177 0-24.184-9.34-26.842-21.798A27.354 27.354 0 0 1 .137.119h141.144z" id="bU"/><path d="M164.738.005c.163 1.217.247 2.46.247 3.722 0 11.27-6.71 20.96-16.327 25.257-.481 14.83-12.581 26.705-27.44 26.705-7.524 0-14.34-3.046-19.3-7.979-4.96 4.933-11.776 7.979-19.3 7.979-8.77 0-16.58-4.137-21.607-10.577a27.234 27.234 0 0 1-16.995 5.928c-13.178 0-24.185-9.34-26.843-21.798A27.63 27.63 0 0 1 .25 3.727c0-1.262.085-2.505.248-3.722h164.24z" id="bW"/><path d="M130.688.094c-1.873 13.42-13.33 23.746-27.186 23.746-7.525 0-14.341-3.046-19.3-7.978-4.96 4.932-11.777 7.978-19.301 7.978-8.77 0-16.58-4.136-21.606-10.577a27.234 27.234 0 0 1-16.996 5.928C14.093 19.191 3.75 11.177.18.094h130.509z" id="bY"/><path d="M164.637.272a27.63 27.63 0 0 1-16.27 23.452c-.48 14.83-12.58 26.705-27.439 26.705-7.525 0-14.341-3.046-19.3-7.978-4.96 4.932-11.777 7.978-19.301 7.978-8.77 0-16.58-4.136-21.606-10.576a27.234 27.234 0 0 1-16.996 5.927c-13.177 0-24.184-9.34-26.842-21.798A27.625 27.625 0 0 1 .017.272h164.62z" id="ca"/><path d="M126.71.07c-3.823 10.625-13.94 18.219-25.822 18.219-7.525 0-14.341-3.047-19.3-7.98-4.96 4.933-11.777 7.98-19.301 7.98-8.77 0-16.58-4.137-21.606-10.577a27.234 27.234 0 0 1-16.996 5.927C13.622 13.64 4.825 8.192.045.07H126.71z" id="cc"/><path d="M162.845.248a27.643 27.643 0 0 1-15.35 17.925c-.48 14.83-12.58 26.705-27.438 26.705-7.525 0-14.342-3.046-19.301-7.979-4.96 4.933-11.776 7.979-19.3 7.979-8.77 0-16.58-4.137-21.607-10.577a27.234 27.234 0 0 1-16.995 5.928c-13.177 0-24.184-9.34-26.842-21.798C8.268 15.192 2.316 8.49.066.248h162.78z" id="ce"/><path d="M119.924.045c-4.884 7.635-13.406 12.692-23.102 12.692-7.525 0-14.341-3.046-19.3-7.979-4.96 4.933-11.777 7.979-19.301 7.979-8.77 0-16.58-4.137-21.606-10.577a27.234 27.234 0 0 1-16.996 5.928C12.062 8.088 5.218 5.016.254.045h119.67z" id="cg"/><path d="M158.64.223a27.638 27.638 0 0 1-13.177 12.398c-.48 14.83-12.581 26.705-27.44 26.705-7.524 0-14.34-3.046-19.3-7.978-4.96 4.932-11.776 7.978-19.3 7.978-8.77 0-16.58-4.136-21.607-10.576a27.234 27.234 0 0 1-16.995 5.927c-13.177 0-24.184-9.34-26.842-21.798C8.053 10.401 3.177 5.895.205.223H158.64z" id="ci"/><path d="M107.138.02c-4.874 4.452-11.346 7.165-18.448 7.165S75.116 4.472 70.242.02h36.896zm-38.602 0C63.662 4.472 57.19 7.185 50.088 7.185S36.514 4.472 31.64.02h36.897zM22.95.02a27.21 27.21 0 0 1-11.464 2.516C7.393 2.536 3.51 1.636.021.02h22.93z" id="ck"/><path d="M151.048.198a27.547 27.547 0 0 1-9.36 6.872c-.482 14.83-12.582 26.705-27.44 26.705-7.525 0-14.341-3.046-19.3-7.979-4.96 4.933-11.777 7.979-19.301 7.979-8.77 0-16.58-4.137-21.606-10.577a27.234 27.234 0 0 1-16.996 5.928c-13.177 0-24.184-9.34-26.842-21.798A27.526 27.526 0 0 1 .245.198h150.803z" id="cm"/><path d="M57.366.287a27.255 27.255 0 0 1-9.337 1.639c-3.278 0-6.422-.578-9.336-1.639h18.673zm-38.602 0a27.25 27.25 0 0 1-9.336 1.639C6.149 1.926 3.005 1.348.09.287h18.674z" id="co"/><path d="M137.338.173a27.31 27.31 0 0 1-2.621 1.345c-.48 14.83-12.581 26.705-27.44 26.705-7.524 0-14.34-3.046-19.3-7.979-4.96 4.933-11.776 7.979-19.3 7.979-8.77 0-16.58-4.137-21.607-10.577a27.234 27.234 0 0 1-16.995 5.928c-13.178 0-24.184-9.34-26.842-21.798A27.288 27.288 0 0 1 .015.173h137.323z" id="cq"/><path d="M129.908.148c-2.377 12.82-13.555 22.523-26.987 22.523-7.525 0-14.341-3.046-19.3-7.978-4.96 4.932-11.777 7.978-19.301 7.978-8.77 0-16.58-4.136-21.606-10.576a27.234 27.234 0 0 1-16.996 5.927C13.966 18.022 3.94 10.593.023.148h129.885z" id="cs"/><path d="M125.656.124c-4.137 9.98-13.928 16.996-25.349 16.996-7.524 0-14.341-3.046-19.3-7.979-4.96 4.933-11.777 7.979-19.301 7.979-8.77 0-16.58-4.137-21.606-10.577a27.234 27.234 0 0 1-16.996 5.928C13.555 12.47 5.145 7.566.227.124h125.43z" id="cu"/><path d="M117.643.099c-4.986 6.947-13.104 11.47-22.273 11.47-7.525 0-14.342-3.047-19.301-7.98-4.96 4.933-11.776 7.98-19.3 7.98-8.77 0-16.58-4.137-21.607-10.578A27.234 27.234 0 0 1 18.167 6.92C11.25 6.92 4.931 4.346.104.1h117.539z" id="cw"/><path d="M102.8.074a27.232 27.232 0 0 1-17.015 5.942A27.232 27.232 0 0 1 68.772.074H102.8zm-38.603 0a27.232 27.232 0 0 1-17.013 5.942A27.235 27.235 0 0 1 30.169.074h34.028zm-47.287 0a27.283 27.283 0 0 1-8.327 1.293C5.679 1.367 2.882.914.255.074H16.91z" id="cy"/><path d="M48.154.05a27.587 27.587 0 0 1-9.543-.001h9.543zM9.552.05A27.584 27.584 0 0 1 .008.049h9.544z" id="cA"/></defs><g fill="none" fill-rule="evenodd"><path d="M165.856 77.226c0-13.258-9.286-24.334-21.672-27.005a27.808 27.808 0 0 0 1.012-7.454c0-15.255-12.292-27.622-27.456-27.622-3.852 0-7.518.8-10.845 2.24C102.065 9.48 93.39 4.207 83.488 4.207c-9.612 0-18.07 4.97-22.974 12.496a27.262 27.262 0 0 0-9.103-1.557c-15.163 0-27.456 12.367-27.456 27.622 0 1.325.095 2.627.274 3.901-13.097 2.097-23.108 13.51-23.108 27.277a27.61 27.61 0 0 0 4.694 15.451 27.61 27.61 0 0 0-4.694 15.452 27.63 27.63 0 0 0 16.924 25.515c2.658 12.458 13.665 21.798 26.842 21.798 6.418 0 12.32-2.216 16.995-5.927 5.027 6.44 12.836 10.576 21.606 10.576 7.525 0 14.342-3.046 19.301-7.979 4.96 4.933 11.776 7.98 19.3 7.98 14.86 0 26.96-11.875 27.44-26.706a27.634 27.634 0 0 0 16.327-25.257c0-5.031-1.338-9.748-3.674-13.81a27.622 27.622 0 0 0 3.674-13.812" fill="#EAE406"/><g transform="translate(67.671 4.114)"><mask id="b" fill="#fff"><use xlink:href="#a"/></mask><path d="M163.17 5.045a.29.29 0 0 1-.161-.05l-240.426-161.68a.294.294 0 0 1-.08-.406.29.29 0 0 1 .403-.08L163.332 4.508c.133.09.169.272.08.406a.29.29 0 0 1-.242.13" fill="#93820A" mask="url(#b)"/></g><g transform="translate(61.863 4.114)"><mask id="d" fill="#fff"><use xlink:href="#c"/></mask><path d="M168.979 10.571a.29.29 0 0 1-.162-.049L-71.608-151.159a.294.294 0 0 1-.08-.405.29.29 0 0 1 .402-.081L169.14 10.036c.134.09.17.272.08.406a.29.29 0 0 1-.241.13" fill="#93820A" mask="url(#d)"/></g><g transform="translate(35.433 4.114)"><mask id="f" fill="#fff"><use xlink:href="#e"/></mask><path d="M195.408 16.098a.29.29 0 0 1-.161-.049L-45.18-145.632a.294.294 0 0 1-.08-.406.29.29 0 0 1 .403-.08L195.57 15.562c.133.09.169.272.08.406a.29.29 0 0 1-.242.13" fill="#93820A" mask="url(#f)"/></g><g transform="translate(29.624 4.114)"><mask id="h" fill="#fff"><use xlink:href="#g"/></mask><path d="M201.217 21.625a.29.29 0 0 1-.161-.05L-39.37-140.104a.294.294 0 0 1-.08-.406.29.29 0 0 1 .403-.08L201.379 21.09c.133.09.169.272.08.406a.29.29 0 0 1-.242.13" fill="#93820A" mask="url(#h)"/></g><g transform="translate(26.43 4.114)"><mask id="j" fill="#fff"><use xlink:href="#i"/></mask><path d="M204.412 27.152a.29.29 0 0 1-.162-.05l-240.425-161.68a.294.294 0 0 1-.08-.406.29.29 0 0 1 .402-.08l240.426 161.68c.134.09.17.272.08.406a.29.29 0 0 1-.241.13" fill="#93820A" mask="url(#j)"/></g><g transform="translate(24.397 4.114)"><mask id="l" fill="#fff"><use xlink:href="#k"/></mask><path d="M206.445 32.679a.29.29 0 0 1-.162-.05L-34.142-129.05a.294.294 0 0 1-.08-.406.29.29 0 0 1 .402-.08l240.426 161.68c.134.09.17.272.08.406a.29.29 0 0 1-.241.13" fill="#93820A" mask="url(#l)"/></g><g transform="translate(23.816 4.114)"><mask id="n" fill="#fff"><use xlink:href="#m"/></mask><path d="M207.026 38.205a.29.29 0 0 1-.162-.049L-33.56-123.524a.294.294 0 0 1-.08-.406.29.29 0 0 1 .402-.08L207.187 37.67c.134.09.17.272.08.406a.29.29 0 0 1-.241.13" fill="#93820A" mask="url(#n)"/></g><g transform="translate(19.46 4.114)"><mask id="p" fill="#fff"><use xlink:href="#o"/></mask><path d="M211.382 43.732a.29.29 0 0 1-.161-.049L-29.205-117.998a.294.294 0 0 1-.08-.405.29.29 0 0 1 .403-.081L211.544 43.197c.133.09.169.271.08.406a.29.29 0 0 1-.242.13" fill="#93820A" mask="url(#p)"/></g><g transform="translate(10.165 4.114)"><mask id="r" fill="#fff"><use xlink:href="#q"/></mask><path d="M220.676 49.26a.29.29 0 0 1-.161-.05L-19.911-112.471a.294.294 0 0 1-.08-.406.29.29 0 0 1 .403-.08l240.426 161.68c.133.09.169.272.08.406a.29.29 0 0 1-.242.13" fill="#93820A" mask="url(#r)"/></g><g transform="translate(5.518 4.114)"><mask id="t" fill="#fff"><use xlink:href="#s"/></mask><path d="M225.323 54.786a.29.29 0 0 1-.161-.05l-240.426-161.68a.294.294 0 0 1-.08-.406.29.29 0 0 1 .403-.08L225.485 54.25c.133.09.169.272.08.406a.29.29 0 0 1-.242.13" fill="#93820A" mask="url(#t)"/></g><g transform="translate(2.614 4.114)"><mask id="v" fill="#fff"><use xlink:href="#u"/></mask><path d="M228.227 60.313a.29.29 0 0 1-.16-.05L-12.36-101.416a.294.294 0 0 1-.08-.406.29.29 0 0 1 .403-.08l240.426 161.68c.133.09.17.272.08.406a.29.29 0 0 1-.242.13" fill="#93820A" mask="url(#v)"/></g><g transform="translate(1.162 4.114)"><mask id="x" fill="#fff"><use xlink:href="#w"/></mask><path d="M229.68 65.84a.29.29 0 0 1-.162-.05L-10.907-95.89a.294.294 0 0 1-.08-.406.29.29 0 0 1 .402-.08l240.426 161.68c.134.09.17.272.08.406a.29.29 0 0 1-.242.13" fill="#93820A" mask="url(#x)"/></g><g transform="translate(.871 4.114)"><mask id="z" fill="#fff"><use xlink:href="#y"/></mask><path d="M229.97 71.366a.29.29 0 0 1-.161-.049L-10.617-90.364a.294.294 0 0 1-.08-.405.29.29 0 0 1 .403-.081L230.132 70.83c.133.09.169.271.08.406a.29.29 0 0 1-.242.13" fill="#93820A" mask="url(#z)"/></g><g transform="translate(.871 4.114)"><mask id="B" fill="#fff"><use xlink:href="#A"/></mask><path d="M229.97 76.893a.29.29 0 0 1-.161-.049L-10.617-84.837a.294.294 0 0 1-.08-.406.29.29 0 0 1 .403-.08l240.426 161.68c.133.09.169.272.08.406a.29.29 0 0 1-.242.13" fill="#93820A" mask="url(#B)"/></g><g transform="translate(.871 4.114)"><mask id="D" fill="#fff"><use xlink:href="#C"/></mask><path d="M229.97 82.42a.29.29 0 0 1-.161-.05L-10.617-79.31a.294.294 0 0 1-.08-.406.29.29 0 0 1 .403-.08l240.426 161.68c.133.09.169.272.08.406a.29.29 0 0 1-.242.13" fill="#93820A" mask="url(#D)"/></g><g transform="translate(.871 4.114)"><mask id="F" fill="#fff"><use xlink:href="#E"/></mask><path d="M229.97 87.947a.29.29 0 0 1-.161-.05L-10.617-73.782a.294.294 0 0 1-.08-.406.29.29 0 0 1 .403-.08L230.132 87.41c.133.09.169.272.08.406a.29.29 0 0 1-.242.13" fill="#93820A" mask="url(#F)"/></g><g transform="translate(.871 4.114)"><mask id="H" fill="#fff"><use xlink:href="#G"/></mask><path d="M229.97 93.473a.29.29 0 0 1-.161-.049L-10.617-68.256a.294.294 0 0 1-.08-.406.29.29 0 0 1 .403-.08l240.426 161.68c.133.09.169.272.08.406a.29.29 0 0 1-.242.13" fill="#93820A" mask="url(#H)"/></g><g transform="translate(69.414 4.114)"><mask id="J" fill="#fff"><use xlink:href="#I"/></mask><path d="M-78.999 3.83a.292.292 0 0 1-.056-.579l200.568-40.1a.292.292 0 1 1 .113.573l-200.568 40.1a.293.293 0 0 1-.057.006" fill="#93820A" mask="url(#J)"/></g><g transform="translate(.871 4.114)"><mask id="L" fill="#fff"><use xlink:href="#K"/></mask><path d="M229.97 99a.29.29 0 0 1-.161-.049L-10.617-62.73a.294.294 0 0 1-.08-.405.29.29 0 0 1 .403-.08l240.426 161.68c.133.09.169.272.08.406a.29.29 0 0 1-.242.13" fill="#93820A" mask="url(#L)"/></g><g transform="translate(62.734 4.114)"><mask id="N" fill="#fff"><use xlink:href="#M"/></mask><path d="M-72.319 9.356a.292.292 0 0 1-.056-.579l200.568-40.099a.292.292 0 1 1 .113.573l-200.568 40.1a.293.293 0 0 1-.057.005" fill="#93820A" mask="url(#N)"/></g><g transform="translate(.871 4.114)"><mask id="P" fill="#fff"><use xlink:href="#O"/></mask><path d="M229.97 104.527a.29.29 0 0 1-.161-.049L-10.617-57.203a.294.294 0 0 1-.08-.406.29.29 0 0 1 .403-.08l240.426 161.68c.133.09.169.272.08.406a.29.29 0 0 1-.242.13" fill="#93820A" mask="url(#P)"/></g><g transform="translate(37.176 4.114)"><mask id="R" fill="#fff"><use xlink:href="#Q"/></mask><path d="M-46.76 14.883a.292.292 0 0 1-.056-.579L153.75-25.795a.292.292 0 1 1 .113.573l-200.567 40.1a.293.293 0 0 1-.057.005" fill="#93820A" mask="url(#R)"/></g><g transform="translate(.871 4.114)"><mask id="T" fill="#fff"><use xlink:href="#S"/></mask><path d="M229.97 110.054a.29.29 0 0 1-.161-.05L-10.617-51.675a.294.294 0 0 1-.08-.406.29.29 0 0 1 .403-.08l240.426 161.68c.133.09.169.272.08.406a.29.29 0 0 1-.242.13" fill="#93820A" mask="url(#T)"/></g><g transform="translate(30.786 4.114)"><mask id="V" fill="#fff"><use xlink:href="#U"/></mask><path d="M-40.37 20.41a.292.292 0 0 1-.056-.579L160.14-20.268a.292.292 0 0 1 .113.573l-200.568 40.1a.293.293 0 0 1-.057.005" fill="#93820A" mask="url(#V)"/></g><g transform="translate(.871 4.114)"><mask id="X" fill="#fff"><use xlink:href="#W"/></mask><path d="M229.97 115.58a.29.29 0 0 1-.161-.048L-10.617-46.15a.294.294 0 0 1-.08-.405.29.29 0 0 1 .403-.08l240.426 161.68c.133.09.169.272.08.406a.29.29 0 0 1-.242.13" fill="#93820A" mask="url(#X)"/></g><g transform="translate(27.01 4.114)"><mask id="Z" fill="#fff"><use xlink:href="#Y"/></mask><path d="M-36.595 25.937a.292.292 0 0 1-.056-.579L163.916-14.74a.292.292 0 0 1 .113.573l-200.567 40.1a.291.291 0 0 1-.057.005" fill="#93820A" mask="url(#Z)"/></g><g transform="translate(.871 4.114)"><mask id="ab" fill="#fff"><use xlink:href="#aa"/></mask><path d="M229.97 121.108a.29.29 0 0 1-.161-.05L-10.617-40.622a.294.294 0 0 1-.08-.406.29.29 0 0 1 .403-.08l240.426 161.68c.133.09.169.272.08.406a.29.29 0 0 1-.242.13" fill="#93820A" mask="url(#ab)"/></g><g transform="translate(24.687 4.114)"><mask id="ad" fill="#fff"><use xlink:href="#ac"/></mask><path d="M-34.272 31.464a.292.292 0 0 1-.056-.579l200.568-40.1a.292.292 0 0 1 .113.573l-200.568 40.1a.291.291 0 0 1-.057.006" fill="#93820A" mask="url(#ad)"/></g><g transform="translate(.871 4.114)"><mask id="af" fill="#fff"><use xlink:href="#ae"/></mask><path d="M229.97 126.634a.29.29 0 0 1-.161-.049L-10.617-35.096a.294.294 0 0 1-.08-.405.29.29 0 0 1 .403-.08l240.426 161.68c.133.09.169.272.08.406a.29.29 0 0 1-.242.13" fill="#93820A" mask="url(#af)"/></g><g transform="translate(23.816 4.114)"><mask id="ah" fill="#fff"><use xlink:href="#ag"/></mask><path d="M-33.4 36.99a.292.292 0 0 1-.056-.579L167.11-3.686a.293.293 0 0 1 .113.573L-33.343 36.985a.291.291 0 0 1-.057.006" fill="#93820A" mask="url(#ah)"/></g><g transform="translate(.871 4.114)"><mask id="aj" fill="#fff"><use xlink:href="#ai"/></mask><path d="M229.97 132.161a.29.29 0 0 1-.161-.049L-10.617-29.569a.294.294 0 0 1-.08-.406.29.29 0 0 1 .403-.08l240.426 161.68c.133.09.169.272.08.406a.29.29 0 0 1-.242.13" fill="#93820A" mask="url(#aj)"/></g><g transform="translate(23.816 5.867)"><mask id="al" fill="#fff"><use xlink:href="#ak"/></mask><path d="M-33.4 40.764a.292.292 0 0 1-.056-.579L167.11.086a.293.293 0 0 1 .113.573l-200.567 40.1a.291.291 0 0 1-.057.005" fill="#93820A" mask="url(#al)"/></g><g transform="translate(.871 4.114)"><mask id="an" fill="#fff"><use xlink:href="#am"/></mask><path d="M229.97 137.688a.29.29 0 0 1-.161-.05L-10.617-24.041a.294.294 0 0 1-.08-.406.29.29 0 0 1 .403-.08l240.426 161.68c.133.09.169.272.08.406a.29.29 0 0 1-.242.13" fill="#93820A" mask="url(#an)"/></g><g transform="translate(11.617 11.419)"><mask id="ap" fill="#fff"><use xlink:href="#ao"/></mask><path d="M-21.202 40.74a.292.292 0 0 1-.056-.579L179.309.06a.293.293 0 0 1 .113.573l-200.567 40.1a.291.291 0 0 1-.057.005" fill="#93820A" mask="url(#ap)"/></g><g transform="translate(.871 4.114)"><mask id="ar" fill="#fff"><use xlink:href="#aq"/></mask><path d="M229.97 143.215a.29.29 0 0 1-.161-.05L-10.617-18.514a.294.294 0 0 1-.08-.406.29.29 0 0 1 .403-.08l240.426 161.68c.133.09.169.272.08.406a.29.29 0 0 1-.242.13" fill="#93820A" mask="url(#ar)"/></g><g transform="translate(6.1 16.97)"><mask id="at" fill="#fff"><use xlink:href="#as"/></mask><path d="M-15.684 40.715a.292.292 0 0 1-.056-.579L184.828.036a.293.293 0 0 1 .113.573l-200.568 40.1a.291.291 0 0 1-.057.006" fill="#93820A" mask="url(#at)"/></g><g transform="translate(.871 4.114)"><mask id="av" fill="#fff"><use xlink:href="#au"/></mask><path d="M229.97 148.742a.29.29 0 0 1-.161-.05L-10.617-12.988a.294.294 0 0 1-.08-.406.29.29 0 0 1 .403-.08l240.426 161.68c.133.09.169.272.08.406a.29.29 0 0 1-.242.13" fill="#93820A" mask="url(#av)"/></g><g transform="translate(3.195 22.522)"><mask id="ax" fill="#fff"><use xlink:href="#aw"/></mask><path d="M-12.78 40.69a.292.292 0 0 1-.056-.579L187.732.01a.292.292 0 0 1 .113.573l-200.568 40.1a.291.291 0 0 1-.056.006" fill="#93820A" mask="url(#ax)"/></g><g transform="translate(.871 4.114)"><mask id="az" fill="#fff"><use xlink:href="#ay"/></mask><path d="M229.97 154.268a.29.29 0 0 1-.161-.049L-10.617-7.462a.294.294 0 0 1-.08-.405.29.29 0 0 1 .403-.081l240.426 161.681c.133.09.169.272.08.406a.29.29 0 0 1-.242.13" fill="#93820A" mask="url(#az)"/></g><g transform="translate(1.452 27.781)"><mask id="aB" fill="#fff"><use xlink:href="#aA"/></mask><path d="M-11.037 40.957a.292.292 0 0 1-.056-.579L189.475.28a.292.292 0 0 1 .113.573l-200.568 40.1a.291.291 0 0 1-.057.005" fill="#93820A" mask="url(#aB)"/></g><g transform="translate(.871 4.114)"><mask id="aD" fill="#fff"><use xlink:href="#aC"/></mask><path d="M229.97 159.795a.29.29 0 0 1-.161-.049L-10.617-1.935a.294.294 0 0 1-.08-.405.29.29 0 0 1 .403-.081L230.132 159.26c.133.09.169.271.08.406a.29.29 0 0 1-.242.13" fill="#93820A" mask="url(#aD)"/></g><g transform="translate(.871 33.333)"><mask id="aF" fill="#fff"><use xlink:href="#aE"/></mask><path d="M-10.456 40.932a.292.292 0 0 1-.056-.579L190.056.254a.293.293 0 0 1 .113.573L-10.4 40.928a.291.291 0 0 1-.057.005" fill="#93820A" mask="url(#aF)"/></g><g transform="translate(.871 7.036)"><mask id="aH" fill="#fff"><use xlink:href="#aG"/></mask><path d="M229.97 162.4a.29.29 0 0 1-.161-.049L-10.617.67a.294.294 0 0 1-.08-.406.29.29 0 0 1 .403-.08l240.426 161.68c.133.09.169.272.08.406a.29.29 0 0 1-.242.13" fill="#93820A" mask="url(#aH)"/></g><g transform="translate(.871 38.885)"><mask id="aJ" fill="#fff"><use xlink:href="#aI"/></mask><path d="M-10.456 40.908a.292.292 0 0 1-.056-.579L190.056.229a.292.292 0 0 1 .113.573L-10.4 40.903a.293.293 0 0 1-.057.006" fill="#93820A" mask="url(#aJ)"/></g><g transform="translate(.871 12.588)"><mask id="aL" fill="#fff"><use xlink:href="#aK"/></mask><path d="M229.97 162.375a.29.29 0 0 1-.161-.049L-10.617.645a.294.294 0 0 1-.08-.405.29.29 0 0 1 .403-.081L230.132 161.84c.133.09.169.272.08.406a.29.29 0 0 1-.242.13" fill="#93820A" mask="url(#aL)"/></g><g transform="translate(.871 44.436)"><mask id="aN" fill="#fff"><use xlink:href="#aM"/></mask><path d="M-10.456 40.883a.292.292 0 0 1-.056-.579L190.056.204a.292.292 0 0 1 .113.573L-10.4 40.878a.293.293 0 0 1-.057.006" fill="#93820A" mask="url(#aN)"/></g><g transform="translate(.871 18.14)"><mask id="aP" fill="#fff"><use xlink:href="#aO"/></mask><path d="M229.97 162.35a.29.29 0 0 1-.161-.049L-10.617.621a.294.294 0 0 1-.08-.406.29.29 0 0 1 .403-.08l240.426 161.68c.133.09.169.272.08.406a.29.29 0 0 1-.242.13" fill="#93820A" mask="url(#aP)"/></g><g transform="translate(.871 49.988)"><mask id="aR" fill="#fff"><use xlink:href="#aQ"/></mask><path d="M-10.456 40.858a.292.292 0 0 1-.056-.579L190.056.18a.292.292 0 1 1 .113.573L-10.4 40.853a.293.293 0 0 1-.057.005" fill="#93820A" mask="url(#aR)"/></g><g transform="translate(.871 23.69)"><mask id="aT" fill="#fff"><use xlink:href="#aS"/></mask><path d="M229.97 162.326a.29.29 0 0 1-.161-.05L-10.617.597a.294.294 0 0 1-.08-.406.29.29 0 0 1 .403-.08l240.426 161.68c.133.09.169.272.08.406a.29.29 0 0 1-.242.13" fill="#93820A" mask="url(#aT)"/></g><g transform="translate(.871 55.54)"><mask id="aV" fill="#fff"><use xlink:href="#aU"/></mask><path d="M-10.456 40.833a.292.292 0 0 1-.056-.579L190.056.155a.292.292 0 1 1 .113.573L-10.4 40.828a.293.293 0 0 1-.057.005" fill="#93820A" mask="url(#aV)"/></g><g transform="translate(.871 29.242)"><mask id="aX" fill="#fff"><use xlink:href="#aW"/></mask><path d="M229.97 162.3a.29.29 0 0 1-.161-.048L-10.617.57a.294.294 0 0 1-.08-.405.29.29 0 0 1 .403-.08l240.426 161.68c.133.09.169.272.08.406a.29.29 0 0 1-.242.13" fill="#93820A" mask="url(#aX)"/></g><g transform="translate(.871 61.091)"><mask id="aZ" fill="#fff"><use xlink:href="#aY"/></mask><path d="M-10.456 40.808a.292.292 0 0 1-.056-.579L190.056.13a.292.292 0 1 1 .113.573L-10.4 40.804a.293.293 0 0 1-.057.005" fill="#93820A" mask="url(#aZ)"/></g><g transform="translate(.871 34.794)"><mask id="bb" fill="#fff"><use xlink:href="#ba"/></mask><path d="M229.97 162.276a.29.29 0 0 1-.161-.049L-10.617.546a.294.294 0 0 1-.08-.406.29.29 0 0 1 .403-.08l240.426 161.68c.133.09.169.272.08.406a.29.29 0 0 1-.242.13" fill="#93820A" mask="url(#bb)"/></g><g transform="translate(.871 66.643)"><mask id="bd" fill="#fff"><use xlink:href="#bc"/></mask><path d="M-10.456 40.783a.292.292 0 0 1-.056-.579L190.056.107a.292.292 0 1 1 .113.573L-10.4 40.778a.293.293 0 0 1-.057.005" fill="#93820A" mask="url(#bd)"/></g><g transform="translate(.871 40.053)"><mask id="bf" fill="#fff"><use xlink:href="#be"/></mask><path d="M229.97 162.543a.29.29 0 0 1-.161-.049L-10.617.813a.294.294 0 0 1-.08-.405.29.29 0 0 1 .403-.08l240.426 161.68c.133.09.169.272.08.406a.29.29 0 0 1-.242.13" fill="#93820A" mask="url(#bf)"/></g><g transform="translate(.871 72.194)"><mask id="bh" fill="#fff"><use xlink:href="#bg"/></mask><path d="M-10.456 40.759a.292.292 0 0 1-.056-.579L190.056.08a.292.292 0 1 1 .113.573L-10.4 40.754a.293.293 0 0 1-.057.006" fill="#93820A" mask="url(#bh)"/></g><g transform="translate(.871 45.605)"><mask id="bj" fill="#fff"><use xlink:href="#bi"/></mask><path d="M229.97 162.519a.29.29 0 0 1-.161-.05L-10.617.79a.294.294 0 0 1-.08-.406.29.29 0 0 1 .403-.08l240.426 161.68c.133.09.169.272.08.406a.29.29 0 0 1-.242.13" fill="#93820A" mask="url(#bj)"/></g><g transform="translate(.871 77.746)"><mask id="bl" fill="#fff"><use xlink:href="#bk"/></mask><path d="M-10.456 40.734a.292.292 0 0 1-.056-.579L190.056.055a.292.292 0 1 1 .113.573L-10.4 40.73a.293.293 0 0 1-.057.006" fill="#93820A" mask="url(#bl)"/></g><g transform="translate(.871 51.157)"><mask id="bn" fill="#fff"><use xlink:href="#bm"/></mask><path d="M229.97 162.494a.29.29 0 0 1-.161-.05L-10.617.765a.294.294 0 0 1-.08-.406.29.29 0 0 1 .403-.08l240.426 161.68c.133.09.169.272.08.406a.29.29 0 0 1-.242.13" fill="#93820A" mask="url(#bn)"/></g><g transform="translate(.871 83.298)"><mask id="bp" fill="#fff"><use xlink:href="#bo"/></mask><path d="M-10.456 40.709a.292.292 0 0 1-.056-.579L190.056.031a.292.292 0 1 1 .113.573L-10.4 40.704a.293.293 0 0 1-.057.005" fill="#93820A" mask="url(#bp)"/></g><g transform="translate(.871 56.708)"><mask id="br" fill="#fff"><use xlink:href="#bq"/></mask><path d="M229.97 162.469a.29.29 0 0 1-.161-.05L-10.617.74a.294.294 0 0 1-.08-.406.29.29 0 0 1 .403-.08l240.426 161.68c.133.09.169.272.08.406a.29.29 0 0 1-.242.13" fill="#93820A" mask="url(#br)"/></g><g transform="translate(.871 88.85)"><mask id="bt" fill="#fff"><use xlink:href="#bs"/></mask><path d="M-10.456 40.684a.292.292 0 0 1-.056-.579L190.056.006a.292.292 0 1 1 .113.573L-10.4 40.68a.293.293 0 0 1-.057.005" fill="#93820A" mask="url(#bt)"/></g><g transform="translate(.871 62.26)"><mask id="bv" fill="#fff"><use xlink:href="#bu"/></mask><path d="M229.97 162.444a.29.29 0 0 1-.161-.049L-10.617.714a.294.294 0 0 1-.08-.405.29.29 0 0 1 .403-.081l240.426 161.681c.133.09.169.271.08.406a.29.29 0 0 1-.242.13" fill="#93820A" mask="url(#bv)"/></g><g transform="translate(.871 94.109)"><mask id="bx" fill="#fff"><use xlink:href="#bw"/></mask><path d="M-10.456 40.951a.292.292 0 0 1-.056-.579L190.056.275a.292.292 0 1 1 .113.573L-10.4 40.946a.293.293 0 0 1-.057.005" fill="#93820A" mask="url(#bx)"/></g><g transform="translate(.871 67.812)"><mask id="bz" fill="#fff"><use xlink:href="#by"/></mask><path d="M229.97 162.42a.29.29 0 0 1-.161-.05L-10.617.69a.294.294 0 0 1-.08-.405.29.29 0 0 1 .403-.08l240.426 161.68c.133.09.169.272.08.406a.29.29 0 0 1-.242.13" fill="#93820A" mask="url(#bz)"/></g><g transform="translate(.871 99.66)"><mask id="bB" fill="#fff"><use xlink:href="#bA"/></mask><path d="M-10.456 40.927a.292.292 0 0 1-.056-.579L190.056.248a.292.292 0 0 1 .113.573L-10.4 40.922a.293.293 0 0 1-.057.006" fill="#93820A" mask="url(#bB)"/></g><g transform="translate(.871 73.363)"><mask id="bD" fill="#fff"><use xlink:href="#bC"/></mask><path d="M229.97 162.395a.29.29 0 0 1-.161-.05L-10.617.666a.294.294 0 0 1-.08-.406.29.29 0 0 1 .403-.08l240.426 161.68c.133.09.169.272.08.406a.29.29 0 0 1-.242.13" fill="#93820A" mask="url(#bD)"/></g><g transform="translate(.871 105.212)"><mask id="bF" fill="#fff"><use xlink:href="#bE"/></mask><path d="M-10.456 40.902a.292.292 0 0 1-.056-.579L190.056.224a.292.292 0 0 1 .113.573L-10.4 40.897a.293.293 0 0 1-.057.005" fill="#93820A" mask="url(#bF)"/></g><g transform="translate(.871 78.915)"><mask id="bH" fill="#fff"><use xlink:href="#bG"/></mask><path d="M229.953 162.395a.289.289 0 0 1-.161-.05L-10.6.615a.293.293 0 0 1-.08-.405.29.29 0 0 1 .403-.08l240.392 161.73a.293.293 0 0 1-.162.536" fill="#93820A" mask="url(#bH)"/></g><g transform="translate(1.743 110.764)"><mask id="bJ" fill="#fff"><use xlink:href="#bI"/></mask><path d="M-11.327 40.877a.292.292 0 0 1-.056-.579L189.183.2a.292.292 0 0 1 .113.573l-200.567 40.1a.291.291 0 0 1-.057.005" fill="#93820A" mask="url(#bJ)"/></g><g transform="translate(.871 84.466)"><mask id="bL" fill="#fff"><use xlink:href="#bK"/></mask><path d="M229.97 162.345a.29.29 0 0 1-.161-.05L-10.617.616a.294.294 0 0 1-.08-.406.29.29 0 0 1 .403-.08l240.426 161.68c.133.09.169.272.08.406a.29.29 0 0 1-.242.13" fill="#93820A" mask="url(#bL)"/></g><g transform="translate(3.485 116.315)"><mask id="bN" fill="#fff"><use xlink:href="#bM"/></mask><path d="M-13.07 40.852a.292.292 0 0 1-.056-.579L187.442.175a.293.293 0 0 1 .113.573l-200.568 40.1a.291.291 0 0 1-.057.005" fill="#93820A" mask="url(#bN)"/></g><g transform="translate(.871 90.018)"><mask id="bP" fill="#fff"><use xlink:href="#bO"/></mask><path d="M229.97 162.32a.29.29 0 0 1-.161-.049L-10.617.59a.294.294 0 0 1-.08-.406.29.29 0 0 1 .403-.08l240.426 161.68c.133.09.169.272.08.406a.29.29 0 0 1-.242.13" fill="#93820A" mask="url(#bP)"/></g><g transform="translate(6.97 121.867)"><mask id="bR" fill="#fff"><use xlink:href="#bQ"/></mask><path d="M-16.555 40.827a.292.292 0 0 1-.056-.579L183.956.15a.292.292 0 0 1 .113.573L-16.498 40.822a.291.291 0 0 1-.057.005" fill="#93820A" mask="url(#bR)"/></g><g transform="translate(.871 95.57)"><mask id="bT" fill="#fff"><use xlink:href="#bS"/></mask><path d="M229.97 162.295a.29.29 0 0 1-.161-.049L-10.617.565a.294.294 0 0 1-.08-.405.29.29 0 0 1 .403-.081L230.132 161.76c.133.09.169.271.08.406a.29.29 0 0 1-.242.13" fill="#93820A" mask="url(#bT)"/></g><g transform="translate(12.78 127.418)"><mask id="bV" fill="#fff"><use xlink:href="#bU"/></mask><path d="M-22.364 40.803a.292.292 0 0 1-.056-.579L178.148.124a.293.293 0 0 1 .113.573l-200.568 40.1a.291.291 0 0 1-.057.006" fill="#93820A" mask="url(#bV)"/></g><g transform="translate(.871 101.121)"><mask id="bX" fill="#fff"><use xlink:href="#bW"/></mask><path d="M229.97 162.27a.29.29 0 0 1-.161-.049L-10.617.541a.294.294 0 0 1-.08-.406.29.29 0 0 1 .403-.08l240.426 161.68c.133.09.169.272.08.406a.29.29 0 0 1-.242.13" fill="#93820A" mask="url(#bX)"/></g><g transform="translate(18.588 132.97)"><mask id="bZ" fill="#fff"><use xlink:href="#bY"/></mask><path d="M-28.172 40.778a.292.292 0 0 1-.056-.579L172.338.1a.293.293 0 0 1 .113.573l-200.568 40.1a.291.291 0 0 1-.056.005" fill="#93820A" mask="url(#bZ)"/></g><g transform="translate(1.162 106.38)"><mask id="cb" fill="#fff"><use xlink:href="#ca"/></mask><path d="M229.68 162.538a.29.29 0 0 1-.162-.05L-10.907.809a.294.294 0 0 1-.08-.406.29.29 0 0 1 .402-.08l240.426 161.68c.134.09.17.272.08.406a.29.29 0 0 1-.242.13" fill="#93820A" mask="url(#cb)"/></g><g transform="translate(21.202 138.522)"><mask id="cd" fill="#fff"><use xlink:href="#cc"/></mask><path d="M-30.786 40.753a.292.292 0 0 1-.056-.579L169.724.075a.293.293 0 0 1 .113.573l-200.567 40.1a.291.291 0 0 1-.057.005" fill="#93820A" mask="url(#cd)"/></g><g transform="translate(2.033 111.932)"><mask id="cf" fill="#fff"><use xlink:href="#ce"/></mask><path d="M228.808 162.513a.29.29 0 0 1-.161-.049L-11.78.783a.294.294 0 0 1-.08-.406.29.29 0 0 1 .403-.08l240.426 161.68c.133.09.169.272.08.406a.29.29 0 0 1-.242.13" fill="#93820A" mask="url(#cf)"/></g><g transform="translate(25.268 144.073)"><mask id="ch" fill="#fff"><use xlink:href="#cg"/></mask><path d="M-34.852 40.728a.292.292 0 0 1-.056-.579L165.658.05a.292.292 0 0 1 .113.574L-34.796 40.723a.291.291 0 0 1-.056.005" fill="#93820A" mask="url(#ch)"/></g><g transform="translate(4.066 117.484)"><mask id="cj" fill="#fff"><use xlink:href="#ci"/></mask><path d="M226.775 162.488a.29.29 0 0 1-.161-.049L-13.812.758a.294.294 0 0 1-.08-.405.29.29 0 0 1 .403-.081l240.426 161.681c.133.09.169.272.08.406a.29.29 0 0 1-.242.13" fill="#93820A" mask="url(#cj)"/></g><g transform="translate(33.4 149.625)"><mask id="cl" fill="#fff"><use xlink:href="#ck"/></mask><path d="M-42.985 40.703a.292.292 0 0 1-.056-.579L157.527.026a.293.293 0 0 1 .113.573l-200.568 40.1a.291.291 0 0 1-.057.005" fill="#93820A" mask="url(#cl)"/></g><g transform="translate(7.842 123.036)"><mask id="cn" fill="#fff"><use xlink:href="#cm"/></mask><path d="M223 162.464a.29.29 0 0 1-.162-.05L-17.587.734a.294.294 0 0 1-.08-.406.29.29 0 0 1 .402-.08l240.426 161.68c.134.09.17.272.08.406a.29.29 0 0 1-.242.13" fill="#93820A" mask="url(#cn)"/></g><g transform="translate(74.06 154.884)"><mask id="cp" fill="#fff"><use xlink:href="#co"/></mask><path d="M-83.646 40.97a.292.292 0 0 1-.056-.579L116.866.294a.292.292 0 0 1 .113.573l-200.568 40.1a.291.291 0 0 1-.057.005" fill="#93820A" mask="url(#cp)"/></g><g transform="translate(14.812 128.587)"><mask id="cr" fill="#fff"><use xlink:href="#cq"/></mask><path d="M216.029 162.439a.29.29 0 0 1-.161-.05L-24.558.71a.294.294 0 0 1-.08-.406.29.29 0 0 1 .403-.08l240.426 161.68c.133.09.169.272.08.406a.29.29 0 0 1-.242.13" fill="#93820A" mask="url(#cr)"/></g><g transform="translate(19.169 134.139)"><mask id="ct" fill="#fff"><use xlink:href="#cs"/></mask><path d="M211.672 162.414a.29.29 0 0 1-.16-.05L-28.915.685a.294.294 0 0 1-.08-.406.29.29 0 0 1 .402-.08l240.426 161.68c.134.09.17.272.08.406a.29.29 0 0 1-.242.13" fill="#93820A" mask="url(#ct)"/></g><g transform="translate(21.783 139.69)"><mask id="cv" fill="#fff"><use xlink:href="#cu"/></mask><path d="M209.059 162.39a.29.29 0 0 1-.162-.05L-31.528.659a.294.294 0 0 1-.08-.406.29.29 0 0 1 .402-.08l240.426 161.68c.134.09.17.272.08.406a.29.29 0 0 1-.241.13" fill="#93820A" mask="url(#cv)"/></g><g transform="translate(26.72 145.242)"><mask id="cx" fill="#fff"><use xlink:href="#cw"/></mask><path d="M204.121 162.364a.29.29 0 0 1-.161-.049L-36.466.634a.294.294 0 0 1-.08-.405.29.29 0 0 1 .403-.081l240.426 161.68c.133.09.169.272.08.407a.29.29 0 0 1-.242.13" fill="#93820A" mask="url(#cx)"/></g><g transform="translate(36.304 150.794)"><mask id="cz" fill="#fff"><use xlink:href="#cy"/></mask><path d="M194.537 162.34a.29.29 0 0 1-.161-.05L-46.05.61a.294.294 0 0 1-.08-.405.29.29 0 0 1 .403-.08l240.426 161.68c.133.09.169.272.08.406a.29.29 0 0 1-.242.13" fill="#93820A" mask="url(#cz)"/></g><g transform="translate(78.708 156.345)"><mask id="cB" fill="#fff"><use xlink:href="#cA"/></mask><path d="M152.133 162.315a.29.29 0 0 1-.16-.05L-88.455.586a.294.294 0 0 1-.08-.406.29.29 0 0 1 .403-.08l240.426 161.68c.133.09.17.272.08.406a.29.29 0 0 1-.242.13" fill="#93820A" mask="url(#cB)"/></g><path d="M102.79 147.809c.257 0 .516.098.714.295 4.981 4.955 11.582 7.684 18.586 7.684 6.91 0 13.445-2.665 18.403-7.503a26.529 26.529 0 0 0 8.02-18.213c.013-.392.247-.742.604-.902 9.55-4.266 15.723-13.813 15.723-24.322 0-4.675-1.224-9.274-3.538-13.299a1.028 1.028 0 0 1 0-1.024 26.743 26.743 0 0 0-2.424-30.124c-3.792-4.665-9.086-7.925-14.907-9.18a1.026 1.026 0 0 1-.766-1.275 26.82 26.82 0 0 0 .975-7.179c0-14.667-11.86-26.599-26.44-26.599a26.13 26.13 0 0 0-10.443 2.157c-.464.2-1.003.029-1.268-.404C101.174 9.974 92.748 5.23 83.49 5.23c-8.943 0-17.214 4.499-22.125 12.034-.256.393-.746.56-1.187.404a26.23 26.23 0 0 0-8.766-1.499c-14.578 0-26.44 11.932-26.44 26.6 0 1.247.09 2.512.265 3.757.077.553-.3 1.066-.847 1.154-6.143.983-11.774 4.15-15.855 8.919a26.685 26.685 0 0 0-6.397 17.347 26.576 26.576 0 0 0 4.52 14.879c.233.346.233.8 0 1.145a26.576 26.576 0 0 0-4.52 14.88c0 10.784 6.397 20.43 16.298 24.57.308.129.533.401.603.73a26.715 26.715 0 0 0 9.127 14.993 26.387 26.387 0 0 0 16.722 5.996c6.004 0 11.663-1.973 16.366-5.707a1.015 1.015 0 0 1 1.429.171c5.052 6.473 12.636 10.186 20.806 10.186 7.004 0 13.605-2.729 18.586-7.684a1.01 1.01 0 0 1 .715-.295m19.3 10.024c-7.211 0-14.026-2.687-19.3-7.587-5.274 4.9-12.088 7.587-19.3 7.587-8.465 0-16.344-3.7-21.774-10.186-4.902 3.626-10.698 5.537-16.828 5.537a28.418 28.418 0 0 1-18.01-6.459 28.778 28.778 0 0 1-9.71-15.626C6.784 126.529.104 116.284.104 104.849a28.628 28.628 0 0 1 4.494-15.453A28.628 28.628 0 0 1 .104 73.945a28.74 28.74 0 0 1 6.89-18.682c4.18-4.883 9.869-8.207 16.108-9.432a29.146 29.146 0 0 1-.163-3.064c0-15.794 12.772-28.644 28.472-28.644 2.969 0 5.89.458 8.693 1.362C65.44 7.767 74.121 3.183 83.488 3.183c9.682 0 18.517 4.817 23.808 12.93a28.135 28.135 0 0 1 10.444-1.99c15.7 0 28.473 12.85 28.473 28.644 0 2.264-.264 4.511-.784 6.697 5.862 1.501 11.165 4.897 15.023 9.642a28.802 28.802 0 0 1 2.897 31.931 28.78 28.78 0 0 1 3.524 13.811c0 11.105-6.399 21.211-16.356 25.927a28.557 28.557 0 0 1-8.608 18.978c-5.34 5.21-12.379 8.08-19.82 8.08" fill="#93820A"/><path d="M79.633 9.938c-.06.403-16.157 9.692-24.95 24.88-4.028 6.42-14.3 1-16.31 4.406-3.025 4.588-13.859 21.234-16.823 29.714-2.965 8.479-10.608 23-12.254 24.971-1.646 1.972-.844 3.776 1.432 9.19 2.275 5.413 1.663 7.499-3.797 13.033l7.189 6.245s5.977-8.68 9.284-8.448c6.068.424 7.798 3.9 11.85-.963 2.987-3.586 11.432-19.192 15.787-29.957 3.92-9.691 11.272-21.713 13.922-25.517 2.649-3.804-.088-5.707-1.14-6.988-1.051-1.282-5.533-7.569-2.229-10.734 3.304-3.166 12.166-13.943 17.259-18.174s3.976-9.792 3.841-10.18c-.135-.387 5.624-1.23 9.322-8.338 0 0-7.926-2.64-11.39-1.548 0 0-.123 2.587-.993 8.408" fill="#F9F44E"/><path d="M78.628 9.784zm1.005.154h.003-.003zm4.02 1.142zM8.414 116.069l5.528 4.801c1.841-2.527 6.337-8.184 9.533-7.961 2.092.146 3.708.639 5.005 1.034 2.614.797 3.695 1.127 5.996-1.634 2.94-3.53 11.361-19.146 15.624-29.686 3.802-9.397 11.014-21.387 14.031-25.718 1.821-2.615.614-3.904-.553-5.151a12.432 12.432 0 0 1-.538-.6c-.266-.324-6.466-7.986-2.146-12.125 1.212-1.16 3.208-3.39 5.52-5.974 3.81-4.257 8.553-9.556 11.793-12.247 4.729-3.93 3.535-9.027 3.521-9.076-.34-.974.662-1.393 1.26-1.644 1.503-.63 4.877-2.045 7.522-6.406-2.422-.706-6.543-1.673-8.922-1.322-.095 1.163-.34 3.657-.949 7.73-.076.507-.227.611-1.68 1.613-4 2.76-16.178 11.162-23.397 23.63l-.018.03c-2.651 4.226-7.488 3.951-11.375 3.731-2.257-.127-4.39-.248-4.921.652a1.07 1.07 0 0 1-.027.043c-4.099 6.218-13.932 21.539-16.711 29.488-2.916 8.34-10.641 23.142-12.434 25.29-1.177 1.41-.748 2.577 1.474 7.86l.115.273c2.333 5.55 1.792 8.092-3.25 13.369zm5.707 7.33c-.243 0-.479-.086-.664-.248l-7.19-6.245a1.024 1.024 0 0 1-.057-1.495c5.18-5.25 5.682-6.92 3.582-11.914l-.115-.274C7.43 97.881 6.5 95.669 8.518 93.252c1.487-1.782 9.13-16.234 12.073-24.654 2.851-8.157 12.774-23.626 16.922-29.92 1.17-1.943 3.89-1.788 6.77-1.626 3.523.2 7.516.426 9.531-2.766 7.45-12.855 19.902-21.446 23.995-24.27.326-.225.66-.455.875-.61.799-5.419.925-7.9.926-7.926.02-.428.305-.798.711-.926 3.672-1.157 11.171 1.273 12.014 1.554a1.028 1.028 0 0 1 .581 1.445c-3.018 5.801-7.38 7.681-9.089 8.398.097.757.145 1.92-.091 3.289-.335 1.932-1.34 4.74-4.236 7.145-3.124 2.595-7.81 7.832-11.577 12.04-2.34 2.613-4.36 4.87-5.628 6.085-2.447 2.345.934 7.664 2.312 9.342.12.146.28.318.45.5 1.227 1.31 3.509 3.748.738 7.727-2.275 3.265-9.774 15.332-13.812 25.315-4.406 10.892-12.858 26.517-15.95 30.229-3.163 3.796-5.36 3.126-8.143 2.278-1.263-.385-2.694-.822-4.556-.952-1.134-.083-4.48 2.354-8.379 8.01a1.015 1.015 0 0 1-.835.44z" fill="#93820A"/><path d="M84.422 10.821c0 .798-1.197 1.445-2.673 1.445s-2.673-.647-2.673-1.445 1.197-1.445 2.673-1.445 2.673.647 2.673 1.445" fill="#F9F44E"/><path d="M83.422 10.904h.003-.003zm-3.27-.083c.204.169.761.423 1.597.423s1.393-.254 1.597-.423c-.204-.168-.761-.423-1.597-.423s-1.393.255-1.597.423zm1.597 2.468c-2.103 0-3.69-1.06-3.69-2.468 0-1.407 1.587-2.468 3.69-2.468 2.103 0 3.69 1.061 3.69 2.468s-1.587 2.468-3.69 2.468z" fill="#93820A"/></g></svg>