<svg width="1280" height="740" viewBox="0 0 1280 740" xmlns="http://www.w3.org/2000/svg"><title>WE SHIP</title><g fill="#6FBDED" fill-rule="evenodd"><path d="M0 0h1280v740H0V0zm256.18 290.54l26.18 71.06L263 411.54 218.56 290.1H186l63.14 156.2h25.52l27.06-65.56 27.06 65.56h25.52l63.58-156.2h-33l-44.22 121.44-19.8-49.94 26.62-71.06h-28.16l-17.6 51.7-17.6-51.7h-27.94zM542.4 419.68h-78.1v-40.7h65.78v-24.64H464.3v-37.62h76.12V290.1H433.94v156.2H542.4v-26.62zm169.62-88.66l13.42-24.64c-6.893-4.693-14.96-8.763-24.2-12.21-9.24-3.447-19.36-5.17-30.36-5.17-7.92 0-15.327 1.063-22.22 3.19-6.893 2.127-12.943 5.243-18.15 9.35-5.207 4.107-9.277 9.24-12.21 15.4-2.933 6.16-4.4 13.2-4.4 21.12 0 6.013.917 11.183 2.75 15.51s4.583 8.14 8.25 11.44c3.667 3.3 8.25 6.16 13.75 8.58s11.99 4.657 19.47 6.71c6.16 1.76 11.733 3.373 16.72 4.84 4.987 1.467 9.24 3.08 12.76 4.84 3.52 1.76 6.233 3.813 8.14 6.16 1.907 2.347 2.86 5.207 2.86 8.58 0 10.707-8.36 16.06-25.08 16.06-6.013 0-11.88-.733-17.6-2.2-5.72-1.467-10.927-3.263-15.62-5.39s-8.763-4.253-12.21-6.38c-3.447-2.127-5.83-3.85-7.15-5.17l-13.42 26.18c9.093 6.453 19.36 11.44 30.8 14.96 11.44 3.52 23.027 5.28 34.76 5.28 7.627 0 14.923-.843 21.89-2.53 6.967-1.687 13.127-4.363 18.48-8.03 5.353-3.667 9.607-8.47 12.76-14.41 3.153-5.94 4.73-13.09 4.73-21.45 0-7.187-1.173-13.237-3.52-18.15-2.347-4.913-5.683-9.13-10.01-12.65-4.327-3.52-9.607-6.453-15.84-8.8-6.233-2.347-13.163-4.547-20.79-6.6-5.867-1.467-11.037-2.86-15.51-4.18-4.473-1.32-8.177-2.787-11.11-4.4-2.933-1.613-5.17-3.483-6.71-5.61-1.54-2.127-2.31-4.803-2.31-8.03 0-5.573 2.053-9.9 6.16-12.98s10.34-4.62 18.7-4.62c4.693 0 9.313.587 13.86 1.76 4.547 1.173 8.763 2.603 12.65 4.29 3.887 1.687 7.187 3.41 9.9 5.17 2.713 1.76 4.583 3.153 5.61 4.18zm173.14-40.92h-30.14v63.14h-70.84V290.1h-30.36v156.2h30.36v-66.66h70.84v66.66h30.14V290.1zm32.56 156.2h30.36V290.1h-30.36v156.2zm62.92 0H1011v-52.36h36.96c7.187 0 13.787-1.467 19.8-4.4 6.013-2.933 11.147-6.82 15.4-11.66s7.553-10.377 9.9-16.61c2.347-6.233 3.52-12.65 3.52-19.25 0-6.307-1.247-12.577-3.74-18.81-2.493-6.233-5.94-11.807-10.34-16.72-4.4-4.913-9.643-8.873-15.73-11.88-6.087-3.007-12.723-4.51-19.91-4.51h-66.22v156.2z"/><path d="M1011 367.32h35.2c5.573 0 10.23-2.273 13.97-6.82 3.74-4.547 5.61-10.707 5.61-18.48 0-3.96-.587-7.517-1.76-10.67-1.173-3.153-2.713-5.83-4.62-8.03-1.907-2.2-4.143-3.85-6.71-4.95s-5.17-1.65-7.81-1.65H1011v50.6z"/></g></svg>