<svg width="851" height="573" viewBox="0 0 851 573" xmlns="http://www.w3.org/2000/svg"><title>Mapa localizaciones</title><g fill="none" fill-rule="evenodd"><path d="M232.75 76.012c.92 5.193 2.354 10.311 3.04 15.527 1.193 9.058.338 18.115-.937 27.12-.126.882-.716 2.122-1.432 2.42-1.75.727-1.862 1.948-1.822 3.418.141 5.204.622 10.432.277 15.606-.253 3.811-.708 7.481.5 11.233.657 2.04-.339 3.115-2.552 3.153a102.42 102.42 0 0 1-8.275-.18c-2.457-.155-2.692-.137-2.494 2.306.536 6.648 4.252 11.994 7.745 17.432.614.955 1.264 2.114 1.257 3.177-.017 2.945-.45 5.886-.55 8.834-.033.96.16 2.168.75 2.865 3.2 3.783 6.887 6.727 12.478 5.524.208-.045.437.01.652-.014 1.405-.165 2.152.467 2.487 1.768.843 3.277 1.832 6.521 2.586 9.817.722 3.156 1.244 6.356 1.809 9.544.344 1.942 1.33 3.191 3.436 3.534 1.931.314 3.838.762 5.765 1.107 1.613.29 2.458 1.173 2.93 2.719.44 1.453 1.154 2.869 1.978 4.165a81.03 81.03 0 0 0 4.407 6.223c.43.555 1.263.996 1.982 1.127 1.707.31 3.453.53 5.188.561 4.167.074 6.556-2.219 6.841-6.143.131-1.8.067-4.016 1.096-5.264 1.898-2.305 2.014-4.502 1.29-7.066-.44-1.551.264-2.428 1.875-2.68.645-.1 1.284-.319 1.927-.323 2.247-.018 2.993-1.067 2.917-3.21-.112-3.129.811-5.853 4.18-7.18a2.54 2.54 0 0 0 1.146-.933c1.26-1.994 2.673-1.494 4.16-.321 1.461 1.152 2.746 2.702 4.411 3.381 3.318 1.356 5.971 3.298 8.267 5.969 1.814 2.11 3.35 2.094 5.651.556 1.223-.816 2.617-1.394 3.792-.319 1.491 1.363 2.928 1.097 4.616.631 3.31-.916 6.016.027 7.636 2.488 1.37 2.078 1.73 2.163 3.453.242 2-2.228 3.806-4.618 5.778-6.87 2.158-2.467 4.923-3.366 8.217-2.727 1.707.331 3.428.6 5.142.9 2.45.43 3-.057 2.8-2.522-.034-.419-.126-.834-.199-1.25-1.448-8.323-2.866-16.65-4.36-24.965-.572-3.183-.145-5.956 1.877-8.732 4.272-5.864 8.235-11.942 12.267-17.967 1.7-2.537 3.28-5.15 4.865-7.756.784-1.292.412-2.052-1.084-2.754-3.63-1.703-7.143-3.642-10.687-5.515-.436-.23-.738-.684-1.16-.949-1.316-.828-2.685-1.578-3.985-2.427-2.078-1.36-4.238-2.639-6.14-4.206-1.96-1.615-3.383-3.953-5.513-5.24-5.883-3.56-7.03-9.248-8.113-15.12-.415-2.254-1.081-4.478-1.803-6.665-.506-1.532-1.37-2.951-1.947-4.467-2.055-5.4-5.651-9.401-11.09-11.83-.82-.367-1.587-.977-2.196-1.633-4.179-4.493-8.304-9.032-12.467-13.537-.479-.52-1.115-.899-1.644-1.38-1.88-1.715-4.034-3.24-5.55-5.22-2.017-2.637-3.476-5.67-5.306-8.452-.473-.719-1.409-1.571-2.182-1.62-8.472-.537-16.958-.892-25.435-1.369-8.113-.456-16.225-.957-24.33-1.537-1.527-.11-2.202.324-2.254 1.754-.11 3.02-.278 6.04-.316 9.06-.055 4.262-.014 4.262-4.282 3.858-.361-.033-.725-.049-1.088-.071-2.671-.098-3.463.515-3.312 3.175.175 3.083.495 6.178 1.034 9.22" fill="#FFF"/><path d="M202.265 199.735c-1.391 1.907-.382 2.893 1.083 3.483 2.523 1.018 2.766 2.7 2.322 4.955-.234 1.2-.041 2.477-.041 3.72l.641.107c.503-1.051.925-2.15 1.547-3.132.287-.454.944-.862 1.478-.925.259-.032.739.746.912 1.227.223.623.241 1.314.388 2.224.796-.307 1.354-.433 1.808-.714 2.393-1.473 4.997-2.73 7.08-4.543 3.326-2.894 6.42-6.065 9.365-9.329 1.262-1.4 1.655-3.451.038-4.99-2.43-2.31-3.069-5.092-2.484-8.116.576-2.966.308-5.747-1.028-8.426-1.136-2.28-2.536-4.445-3.552-6.77-1.601-3.67-3.219-7.364-4.372-11.178-.913-3.02.534-4.532 3.78-4.614 2.545-.065 5.093-.035 7.637.02 1.61.034 2.092-.598 2.061-2.17-.191-9.42-.293-18.843-.331-28.266-.003-.672.705-1.377 1.161-2.015.607-.85 1.753-1.594 1.862-2.477.57-4.598 1.042-9.22 1.238-13.847.166-3.926.287-7.915-.241-11.792-.853-6.258-2.259-12.445-3.425-18.665-.492-2.62-1.465-5.272-1.295-7.853.139-2.108-.622-2.443-2.236-2.605-.795-.079-1.598-.082-2.395-.151-14.395-1.246-28.793-2.475-43.185-3.762-4.54-.407-9.132-.508-13.353-2.65-13.586-6.894-27.239-13.666-40.827-20.555-16.746-8.492-33.452-17.059-50.19-25.566-.528-.267-1.3-.466-1.82-.298-1.635.528-3.287 3.808-2.807 5.43.964 3.257.972 6.475.124 9.78-.221.86.355 2.054.882 2.914.612 1.002 1.754 1.705 2.346 2.715 1.661 2.832 3.753 4.92 7.38 5.013.357.01.726.378 1.052.625 1.018.775 2.11 1.486 2.995 2.387.75.764 1.74 1.747 1.762 2.653.05 1.997 1.172 2.504 2.802 3.154 3.919 1.568 8.607.448 12.274 3.595-.133-1.117-.232-1.962-.35-2.967 4.078 2.664 4.383 4.184 1.72 6.666.746 2.098 1.436 3.908 2.032 5.747.793 2.448 1.314 4.997 2.31 7.36 1.665 3.96 3.595 7.816 5.461 11.694.45.936.867 2.186 1.678 2.603 2.253 1.156 2.638 3.056 2.762 5.132.193 3.228.161 6.474.502 9.685.136 1.276.759 2.674 1.596 3.677 2.962 3.55 5.84 7.052 5.423 12.028-.115 1.361.49 2.321 1.986 2.897.923.356 1.889 1.238 2.282 2.115.797 1.776 1.545 3.68 1.73 5.586.47 4.833 2.606 8.203 7.642 9.534.407.106.715.562 1.252 1.006-2.726 1.368-1.813 2.92-.6 4.531.725.965 1.71 1.915 1.97 3.007.67 2.81 2.786 3.977 5.2 4.923 1.977.775 3.162 2.156 3.692 4.134.474 1.77.976 3.533 1.52 5.284.335 1.084 1.044 1.76 2.284 1.23 1.3-.554 1.693.034 2.234 1.104.687 1.358 1.772 2.527 2.685 3.778l.63-.288 1.358-4.068c.251.02.502.037.753.056.673 1.96.729 4.315 3.009 5.069.652-.282 1.214-.762 1.674-.682 1.804.31 3.16 2.486 2.872 4.337-.56 3.604-2.63 7.232.176 10.792.114.145.064.41.091.62.723 5.403 5.805 9.627 11.513 9.766 1.47.037 2.987.473 4.367 1.006 1.303.502 2.529 1.303 1.377 3.045-.214.326-.092.993.095 1.41 1.038 2.319 2.077 4.642 3.274 6.884.313.586 1.134 1.055 1.825 1.283 1.172.388 2.426.541 3.677.8l-1.146-1.893 3.853-.696c.379.97 1.572 2.64 1.155 3.212m154.452-27.463c-.494.846-.84 2.013-.676 2.938 1.638 9.186 3.407 18.35 5.118 27.524.687 3.68 2.08 6.943 5.05 9.54 1.49 1.302 2.659 2.963 3.892 4.52 1.716 2.166 2.354 4.578 1.83 7.324-.42 2.2-.44 4.475-.908 6.661-.788 3.682-1.362 7.493-2.843 10.919-1.145 2.648-2.456 4.714.645 6.736.113.074.18.22.256.338.73 1.122.527 1.851-.927 2.05-.755.103-1.511.203-2.35.315.074.514.032.825.163 1.039 2.329 3.799 4.579 7.65 7.097 11.328.627.915 2.079 1.443 3.264 1.83 1.978.648 4.1.9 6.057 1.59 1.259.444 1.892.241 2.391-.872.866-1.93 1.78-3.84 2.642-5.77 1.029-2.305 2.61-3.672 5.388-3.894 7.886-.63 15 1.842 21.987 4.852 1.21.522 2.23 1.48 3.285 2.3.742.58 1.671 1.151 2.02 1.933.536 1.2 1.274 1.725 2.498 1.414 4.091-1.035 6.917-.11 8.495 4.09.755 2.009 2.63 3.491 5.218 3.562 1.053.03 2.1.275 3.32.446-.028.08.106-.167.14-.426.387-3.03.79-6.058 1.104-9.095.043-.41-.334-.895-.6-1.294-1.636-2.466-1.424-4.707.726-7.307 2.143-2.59 4.01-3.106 6.965-2.123 2.484.827 4.982.783 7.445-.282-.612-.529-1.236-.865-1.905-1.049-3.768-1.032-6.978-2.665-8.356-6.58-.237-.669-.911-1.324-1.56-1.707-3.917-2.32-5.366-5.917-5.747-10.09-.311-3.421-1.617-6.337-4.299-8.69-1.117-.98-1.977-2.235-2.957-3.36-1.175-1.355-1.17-2.64.19-3.887 3.64-3.336 7.308-6.575 12.29-8.052 3.772-1.118 5.797-7.404 3.518-10.498-.666-.903-1.335-1.393-2.73-.91-1.23.425-3.476.668-3.917.065-.709-.97-.378-2.705-.324-4.112.02-.5.481-1.005.8-1.47 1.919-2.806 4.71-4.332 8.062-4.882 2.79-.459 4.4-1.916 4.867-4.625.201-1.171.45-2.356.861-3.471 1.278-3.458 4.635-4.322 7.484-1.981.387.317.797.62 1.124.99.803.908 1.528.754 2.409.053 2.979-2.37 3.76-6.7 1.384-9.644-1.805-2.24-3.998-4.187-6.018-6.265-.938-.966-2.138-1.796-2.764-2.925-2.21-3.991-4.53-7.968-6.235-12.168-2.216-5.455-4.072-10.982-7.584-15.908-1.79-2.509-3.782-4.473-6.613-5.47-2.42-.85-4.883-2.053-7.656-1.158-.344.11-1.081-.188-1.243-.493-.173-.324-.033-1.007.238-1.311.742-.835 1.624-1.554 2.312-2.191-.624-1.006-1.413-1.812-1.64-2.744-.416-1.718-1.445-2.773-3.075-3.214-1.732-.468-3.516-.855-5.303-1.013a1229.699 1229.699 0 0 0-20.572-1.618c-1.122-.081-2.544-.225-3.357.319-3.652 2.442-7.04 5.194-8.25 9.637-.99 3.627-3.117 6.58-5.733 9.294-1.672 1.734-3.323 3.549-4.627 5.545-6.187 9.466-12.239 19.013-18.37 28.512-1.073 1.665-2.4 3.183-3.396 4.885" fill="#FFF"/><path d="M342.252 332.717c.41-5.89.733-11.788 1.348-17.659.363-3.465.749-7.014 3.276-9.869 2.641-2.986 5.636-5.778 5.229-10.309-.116-1.271.356-2.665.853-3.89.372-.916 1.13-1.737 1.867-2.454 3.047-2.97 6.301-5.754 9.161-8.881 1.182-1.292 2.23-2.118 3.964-1.998 2.882.202 5.757.543 8.64.631 4.823.148 9.65.155 14.475.192 1.13.007 2.147-.377 1.897-1.707a463.941 463.941 0 0 0-2.801-13.801c-.176-.796-.875-1.483-1.496-2.484-.523.802-.9 1.23-1.11 1.725-.856 2.014-1.657 4.051-2.483 6.078-.65 1.592-1.402 2.209-3.24 1.054-1.388-.872-3.192-1.387-4.854-1.509-2.44-.178-4.442-1.017-5.762-2.891-2.365-3.36-4.563-6.837-6.7-10.34-.566-.927-1.25-2.452-.853-3.148 1.337-2.342.52-4.792.966-7.112.375-1.947 1.755-3.69 2.417-5.612.583-1.694 1.269-3.57 1.057-5.264-.397-3.186-.247-6.171 1.221-9.044.905-1.77.762-3.488-.445-4.962-2.696-3.291-5.392-6.6-8.368-9.643-1.043-1.069-2.867-1.488-4.405-2.005-1.28-.43-2.696-.474-4-.856-3.534-1.037-6.824-.126-9.14 2.69-1.04 1.263-1.929 2.649-3.02 3.864-1.182 1.315-2.435 2.6-3.82 3.705-1.163.93-2.378.814-3.33-.538-2.511-3.573-3.671-3.874-8.008-2.81-1.12.276-2.51.03-3.632-.365-1.245-.439-2.39-.9-3.367.202-1.325 1.492-2.797 1.395-4.253.46-1.433-.92-2.734-2.041-4.055-3.116-1.161-.944-2.16-2.118-3.423-2.891-2.961-1.813-6.04-3.448-9.08-5.16-.729.674-1.46 1.696-2.468 2.215-2.628 1.36-3.623 2.833-3.085 5.798.364 2.008-.511 3.088-2.265 3.746-.67.252-1.384.516-2.086.54-1.798.064-2.255.773-2.106 2.555.14 1.66.083 3.722-.812 4.987-1.408 1.988-2.032 3.95-2.055 6.267-.046 4.624-1.18 6.065-5.856 6.853-2.545.428-5.173.434-7.767.516-1.34.042-1.966.48-2.01 1.85-.118 3.653-.56 7.308-.45 10.952.132 4.35 1.36 8.306 4.82 11.545 3.515 3.289 6.152 7.314 7.608 11.897 1.009 3.174 1.597 3.707 5.006 3.187.713-.11 1.433-.243 2.11-.477 1.879-.65 3.352-.065 4.73 1.207 3.231 2.985 4.85 6.718 5.759 10.885 1.12 5.129 2.426 10.218 3.688 15.318.131.527.48 1.015.782 1.488.876 1.374 2.187 2.627 2.59 4.117 1.044 3.864 5.6 4.215 7.302 7.331.098.18.673.084 1.012.168 3.05.77 6.118 1.479 9.126 2.379.733.22 1.671.995 1.822 1.662.882 3.91 2.646 7.954-1.005 11.517-.26.256-.334.691-.762 1.636 1.537-.697 2.535-1.165 3.545-1.607 3.95-1.727 6.385-.73 8.073 3.069.484 1.092 1.304 2.41 2.32 2.844 3.924 1.676 7.42-.6 7.708-4.728m293.774 189.777c2.645 1.24 5.247 2.561 8.246 4.044-.134-1.026-.096-1.848-.365-2.56-.521-1.375-1.118-2.744-1.865-4.016-.821-1.4-.864-2.7-.29-4.197 1.96-5.121 3.832-10.274 5.721-15.421 1.012-2.755.726-3.184-2.267-3.286-5.427-.187-10.853-.32-16.277-.501-2.75-.091-5.505-.147-8.236-.417-.76-.076-1.895-.728-2.08-1.336-.513-1.682-1.846-2.292-3.117-3.24-2.601-1.94-5.042-4.119-7.294-6.432-.776-.797-.801-2.281-1.251-3.712-2.069 1.21-4.425 2.434-6.607 3.902-2.863 1.925-5.825 1.987-8.865.727-3.118-1.293-4.967-6.606-3.179-9.188 1.63-2.355 1.665-4.794.515-7.177-1.12-2.318-3.63-1.751-5.719-2.133-2.211-.402-4.842-.696-6.376-2.023-1.986-1.72-3.25-4.326-4.492-6.715-1.219-2.344-2.452-4.512-5.432-4.81-.577-.057-1.669.545-1.79 1.018-1.111 4.391-3.556 8.079-6.22 11.688-1.888 2.555-4.466 3.7-7.614 3.772-2.534.057-5.07.053-7.605.02-1.753-.02-3.258.278-4.31 1.869-.654.99-1.771 1.528-2.631.26a52.65 52.65 0 0 1-3.396-5.793c-.733-1.453-1.459-1.704-2.73-.585-1.755 1.547-2.046 3.396-1.246 5.668.361 1.025.676 2.824.16 3.208-.813.61-2.367.517-3.565.376-1.857-.217-3.663-.85-5.52-1.082-3.286-.411-5.17.748-5.458 3.91-.329 3.595-.098 7.245-.012 10.87.098 4.16 1.932 7.587 5.165 10.263 3.187 2.639 4.916 5.906 5.534 9.914.274 1.78-.183 2.83-1.515 3.987-3.77 3.273-7.411 6.682-11.068 10.075-.628.582-1.074 1.345-1.975 2.5 7.277-.51 12.661 2.098 17.49 6.329 1.238 1.084 3.235 1.59 4.968 1.861 3.277.515 6.617.642 9.927.975 4.2.422 8.136 1.4 11.94 3.448 5.135 2.766 10.867 4.272 16.769 4.438 4.792.136 9.197-1.496 13.38-3.8 2.239-1.235 4.76-1.995 7.16-2.954 5.43-2.171 11.28-3.497 15.451-8.066 1.014-1.11 2.982-1.669 4.606-1.93 2.813-.453 5.697-.475 8.551-.677l-.023-.484h-3.955l-.068-.348 1.388-.672-2.03-1.641c1.136-1.176 2.065-2.855 3.464-3.396 1.677-.649 2.16 1.065 2.39 2.457.04.25.238.477.406.799 1.427-.594 2.763-1.569 4.123-1.603 1.371-.035 2.884.752 3.033 2.614l-3.279.587.01.64c2.725.486 5.496.811 8.162 1.505 2.668.694 5.23 1.756 7.84 2.655-2.016-1.299-4.22-2.15-6.364-3.125a5.287 5.287 0 0 1-1.942-1.528c-.254-.33-.162-1.183.125-1.529.2-.245 1.075-.204 1.504-.002" fill="#FFF"/><path d="M347.736 429.518c2.79-.373 5.637-.399 8.464-.467 4.307-.102 6.17 1.678 6.301 5.946.024.766-.079 1.54-.193 2.3a178.073 178.073 0 0 1-.948 5.822c-.29 1.57.372 2.077 1.915 1.816 1.566-.268 3.187-.844 4.7-.655 2.732.34 4.703-.796 6.804-2.157 3.114-2.017 6.442-3.723 9.567-5.723 1.483-.95 2.778-2.213 4.017-3.465.427-.434.427-1.263.623-1.91-.663-.18-1.326-.51-1.99-.51-1.246.002-2.393-.076-2.797-1.438-.838-2.824-1.932-5.648-.827-8.64.513-1.391-.07-2.185-1.387-2.56-2.568-.732-5.128-1.52-7.74-2.066-2.452-.512-2.944-1.297-2.212-3.668 1.142-3.702 4.255-4.388 7.557-5.034 2.615-.512 5.492-.784 7.687-2.067 3.416-1.999 7.011-2.916 10.82-3.522 1.279-.204 2.596-.462 3.768-.97 2.437-1.056 4.359-4.183 3.339-5.615-2.234-3.136-1.028-5.606 1.023-8.196 1.934-2.442 3.582-5.096 5.484-7.563.966-1.252 2.036-2.6 3.388-3.355 1.63-.912 2.307-1.934 2.146-3.689-.253-2.739.411-5.246 1.942-7.618.83-1.285 1.304-2.81 1.765-4.279.149-.475-.061-1.37-.437-1.637-2.307-1.638-4.709-3.15-7.34-4.878-2.21 1.9-4.774 3.862-7.037 6.108-4.024 3.991-8.403 5.241-13.732 2.543-1.175-.595-2.648-.982-3.947-.902-1.082.065-2.11.954-3.16 1.479.443.821.749 1.757 1.356 2.442 1.862 2.096 2.29 4.039.684 6.103-2.54 3.269-5.668 5.915-10.111 6.32-6.777.617-13.567 1.095-20.357 1.583-.609.044-1.327-.145-1.855-.45a52.447 52.447 0 0 1-4.325-2.773c-.912-.65-1.564-1.423-.676-2.652a67.035 67.035 0 0 0 3.396-5.182c1.004-1.695 1.898-3.455 2.766-5.221.541-1.099 1.171-2.227 1.363-3.402.462-2.826 1.998-4.277 4.9-4.496 1.087-.083 2.147-.522 3.159-.783-.75-1.065-1.222-1.738-1.696-2.409.903-.329 1.802-.67 2.713-.978.194-.066.481.064.641-.029.917-.538 2.237-.92 2.627-1.718 1.107-2.275 1.907-4.7 2.66-7.117.195-.62-.063-1.953-.391-2.047-1.686-.48-3.49-.991-5.2-.857-1.647.13-2.06 1.751-2.21 3.23-.441 4.343-2.33 5.536-6.753 4.366-1.263-.334-1.855-.887-1.563-2.238.62-2.877 1.212-5.762 1.67-8.667.114-.721-.325-1.526-.511-2.29-.263.026-.526.054-.79.083-.422.947-.797 1.918-1.28 2.839-.816 1.557-1.62 3.133-2.603 4.591-.322.478-1.18.618-1.794.912-.174-.628-.615-1.315-.482-1.875.96-4.044 1.21-8.357 4.455-11.523-.157-.22-.234-.432-.321-.436-1.36-.063-2.966-.56-4.03-.037-1.622.8.01 1.863.442 2.767 1.253 2.622-.064 4.878-3.019 5.13-3.568.304-4.768 1.264-5.744 4.69-.442 1.556-.675 3.178-1.23 4.692-.957 2.605-.482 4.62 1.804 6.436 2.78 2.211 4.15 4.926 2.428 8.504-.917 1.902-.164 3.49 1.577 4.763 1.68 1.23 2.258 2.868 1.334 4.843-.902 1.932-3.011 3.134-5.06 2.96-.727-.06-1.478.126-2.218.2.237.753.305 1.618.742 2.24 1.335 1.902 1.543 3.698.072 5.632-.547.72-.9 1.604-1.217 2.458-.63 1.7-1.174 3.433-1.893 5.568-2.615-2.155-4.732-4.203-7.17-5.787-1.385-.9-3.666-1.883-4.902-1.373-4.519 1.866-9.706 2.875-12.773 7.14-2.98 4.144-6.73 7.062-12.007 7.883-.343.053-.665.275-.982.444-2.124 1.129-2.4 1.965-1.272 4.082 2.316 4.353 3.185 9.395 6.763 13.164.539.568.475 1.632.925 2.324 1.094 1.686 2.229 3.365 3.526 4.905 1.49 1.772 3.21 3.36 4.76 5.086 1.088 1.214 1.857 2.776 3.128 3.738 1.845 1.4 3.958 2.506 6.066 3.525 1.16.561 2.602 1.096 3.819.936 3.946-.518 7.87-1.268 11.754-2.132 1.272-.283 2.388-1.205 3.59-1.806 1.238-.62 2.443-1.555 3.752-1.73z" fill="#28AC01"/><path d="M471.053 189.484c1.87 3.533 2.89 7.31 2.294 11.364-.15 1.02-.341 2.23 1.199 2.513 1.83.336 1.806 1.398 1.452 2.823-.9 3.624-.873 3.705 2.943 4.485 1.925.393 2.663 1.377 2.66 3.213-.003 1.39.155 2.8.426 4.166.394 1.99 1.438 3.524 3.703 3.901 1.382.23 1.937 1.05 1.98 2.352.076 2.263 1.448 3.104 3.64 3.705 2.948.807 5.746 1.957 8.891 1.019.437-.131.999.19 1.497.176 1.625-.046 2.054.775 2.128 2.222.186 3.634.489 7.265.825 10.89.147 1.588.596 2.97 2.627 3.374 1.785.356 2.264 1.594.978 2.927-4.334 4.491-9.387 8.117-15.093 10.857-.311.15-.704.15-1.062.203-3.072.46-3.843 1.418-4.57 4.434-.355 1.473-1.114 3.17-2.268 4.082-2.374 1.875-5.128 3.307-7.746 4.891-1.373.832-2.788 1.599-4.408 2.521 2.387 2.44 3.086 5.14 2.27 8-.884 3.093-.128 5.634 1.956 7.977.418.47.72 1.055.998 1.623 1.039 2.12.725 3.879-.886 5.62-1.162 1.257-2.529 1.668-4.281 1.497-5.239-.51-6.322.258-7.453 5.263-.353 1.562-.4 3.192-.554 4.794-.121 1.282-.713 1.93-2.125 1.67-1.773-.326-2.09.665-2.073 2.077.015 1.201.49 1.85 1.493 2.702 1.552 1.315 2.736 3.168 3.674 4.987.742 1.439-.504 2.531-1.509 3.625-1.136 1.234-.417 3.393 1.295 3.963 3.557 1.183 7.162 2.229 10.743 3.33.79-2.152 1.762-2.551 3.888-1.548 2.475 1.171 4.083 3.137 4.958 5.613.704 1.988 2.142 2.947 4.19 3.13 8.416.754 16.744.195 25.02-1.464 1.104-.221 2.498.034 3.52.528 1.47.708 2.73 1.829 4.067 2.79 1.009.728 1.996 1.48 2.993 2.221.172-.089.345-.178.516-.268l-.503-5.69c-.854-.535-2.03-1.043-1.976-1.274a36.448 36.448 0 0 1 1.786-5.512c.45-1.07 1.534-1.917 1.873-2.999 1.09-3.483 1.007-7.015.244-10.593-1.8-8.44-1.618-17.005-1.455-25.557.01-.476.186-.948.285-1.424l.927.339c.495-2.428 1.132-4.885 1.446-7.382.132-1.051-.417-2.181-.656-3.274-.213.043-.428.087-.64.132l-.719 1.454-.726-.041-1.066-10.451c1.191.314 1.74.46 2.268.598.672-2.746-.993-5.688 1.426-7.99.143-.136-.114-.637-.147-.972a268.907 268.907 0 0 1-.404-4.287c-.036-.413.175-.997-.04-1.222-1.342-1.396-.737-2.252 1.122-2.858-1.974-1.155-2.57-2.834-1.248-4.05 2.376-2.186 2.935 1.43 4.938 1.836l.826-5.407c2.872.974 3.418 1.935 2.537 4.395-1.613 4.503-3.504 8.928-4.814 13.51-.202.707-1.67 4.923-1.119 5.187.915.44 1.125-2.426 1.239-2.893.38-1.57.814-3.126 1.302-4.667a69.401 69.401 0 0 1 3.477-8.803c3.074-6.46 5.89-12.968 6.945-20.056.111-.753-.21-1.567-.328-2.353-.881.163-1.804.221-2.626.53-.485.182-.92.702-1.193 1.17-1.032 1.788-2.519 1.787-4.06.888-1.102-.642-1.945-1.693-3.038-2.354-1.43-.863-2.916-1.892-4.511-2.189-2.904-.537-5.933-.415-8.852-.894-2.224-.366-4.407-1.114-6.517-1.915-2.038-.776-3.869-2.167-5.952-2.695-2.841-.72-5.422-1.601-7.857-3.328-1.781-1.263-4.163-1.902-6.38-2.372-1.653-.352-2.518-.99-3.062-2.495-.468-1.296-1.324-2.458-1.946-3.708-.67-1.342-1.263-2.719-1.895-4.08-.055-.119-.145-.223-.227-.345l-1.026.594-2.362-6.62c-.474-1.321-1.152-2.61-1.386-3.97-.742-4.322-1.35-8.667-1.953-13.01-.401-2.876-3.06-4.465-5.702-3.19-1.735.837-3.325 1.956-4.951 2.93 1.462 1.88 2.969 3.352 3.9 5.109m281.76 323.324c-2.538-.948-4.504-2.292-5.622-4.88-1.183-2.733-3.394-4.66-6.297-5.814-2.229-.888-4.661-1.57-6.55-2.931-4.471-3.218-8.673-6.783-12.977-10.214-.278-.221-.609-.455-.75-.755-.93-2.003-2.821-2.69-4.754-3.355a10.855 10.855 0 0 1-1.777-.79c-1.503-.846-2.49-1.777-1.505-3.728.731-1.452-.025-2.685-1.532-3.458-1.47-.754-3.038-1.418-4.311-2.422-2.568-2.03-5.087-2.852-7.98-.669-.325.245-.803.39-1.221.416-2.213.136-3.8 1.329-5.115 2.883-1.419 1.678-2.695 3.47-4.08 5.177a162.549 162.549 0 0 1-4.39 5.203c-1.309 1.48-2.676 1.295-4.157.103-.982-.792-2.087-1.799-3.247-1.958-3.026-.416-4.126-2.296-4.702-4.782-.316-1.367-.395-2.807-.88-4.11-.576-1.547-1.196-3.222-2.296-4.41-1.806-1.955-3.636-1.705-4.884.596-.815 1.503-1.55 3.311-1.464 4.94.116 2.144-.708 3.557-1.991 5.085-.92 1.099-1.817 2.466-2.03 3.815-.515 3.265-1.96 5.764-4.783 7.661-1.076.723-2.14 1.816-2.61 2.969-1.97 4.824-3.61 9.774-5.574 14.6-1.596 3.918-1.993 7.69.113 11.548.532.974.61 2.171 1.072 3.193.296.658.804 1.54 1.4 1.703 2.021.552 3.045 1.303 1.256 3.303l11.93 7.924.115-2.303c1.236.907 2.991 1.671 2.927 2.243-.21 1.877 1.222 2.34 2.178 3.252 1.39 1.33 2.855 2.595 4.165 3.995 3.15 3.369 6.42 6.449 11.332 7.366 1.485.278 2.82 1.326 4.207 2.052.124.067.115.373.193.666l-1.65.743c1.827 1.745 3.48 3.408 5.226 4.974 3.51 3.149 7.025 6.294 10.627 9.342 2.078 1.757 3.57 1.213 4.075-1.413.223-1.16.081-2.38.193-3.565.206-2.226-.015-4.644.835-6.623 1.212-2.828.86-4.925-1.227-7.07-1.86-1.917-1.998-4.106-.68-6.398 3.386-5.884 6.928-11.69 10.078-17.69 1.25-2.384 2.923-3.16 5.42-3.283 10.716-.52 21.427-1.15 32.146-1.62 1.953-.083 2.705-.577 2.6-2.556-.096-1.787-.081-3.71.505-5.37.915-2.59 1.16-2.573-1.557-3.585M54.514 100.339c.574.51 1.383.764 2.027 1.211 1.803 1.25 3.97 2.243 5.276 3.872 2.43 3.034 4.345 6.452 6.488 9.701.542.823.953 1.908 1.74 2.364 2.475 1.435 3.609 3.743 4.925 6.02 1.091 1.89 2.168 3.985 3.825 5.333 3.227 2.625 3.025 5.64.948 9.524-.938 1.751-.981 2.648 1.368 2.981-.456 1.233-.84 2.28-1.23 3.323-.804 2.148-.669 2.432 1.619 2.737 2.952.394 5.907.78 8.873 1.051 7.38.673 14.768 1.27 22.15 1.919 1.777.155 2.743-.553 2.407-2.277-.56-2.862-1.364-5.68-1.935-8.542-.373-1.872-1.326-2.93-3.299-3.415-3.02-.744-4.126-2.226-4.414-5.279-.1-1.047-.104-2.123-.388-3.124-.165-.583-.728-1.395-1.237-1.49-1.672-.317-1.987-1.448-2.22-2.741-.273-1.513-.826-2.092-2.25-.791-.366.332-1.673.359-1.694.289-.387-1.294-1.2-2.794-.826-3.913 1.219-3.664.493-7.04-1.747-9.818-4.1-5.089-8.625-9.86-13.022-14.721-.495-.547-1.26-.984-1.987-1.198-1.708-.5-2.831-1.228-2.724-3.223.039-.729-.637-1.506-1.033-2.238-1.186-2.197-3.24-4.317-3.426-6.584-.454-5.51-.01-11.085.004-16.634.006-2.59.033-5.2-.303-7.758-.16-1.221-1.502-2.29-1.694-3.515-.926-5.946-.361-11.779 2.312-17.281 1.2-2.472 1.11-3.863-.785-5.919-1.133-1.229-2.2-2.513-3.4-3.893 3.154-.844 3.608-1.378 3.656-4.373.022-1.396.247-2.983-.33-4.159-1.817-3.7-.243-6.278 2.442-8.7 1.008-.911 1.942-1.904 2.848-2.91.544-.604.97-1.306 1.641-2.227-1.05-.246-1.724-.502-2.413-.55-10.585-.739-21.17-1.494-31.761-2.152A993.881 993.881 0 0 0 22.509.097C20.166.004 17.806.31 15 .454c.638 1.517 1.082 2.522 1.488 3.543 1.116 2.816 2.46 5.575 3.264 8.472 1.043 3.76 2.655 7.02 5.86 9.527.543.426.348 1.732.495 2.63-.752-.047-1.504-.077-2.253-.15-.372-.036-.736-.152-1.187-.25.414 1.603.72 3.025 1.155 4.41.471 1.5.807 3.121 1.649 4.421 2.874 4.442 5.707 8.813 5.446 14.392-.052 1.11.861 2.275 1.385 3.39.507 1.08 1.347 2.076 1.582 3.198.573 2.738.919 5.522 1.28 8.297.241 1.844.352 3.705.567 6.063l1.71-2.818c.75 1.618 1.403 2.818 1.87 4.082.594 1.605 1.338 3.241 1.46 4.903.126 1.71-.525 3.46-.63 5.203-.058.98.191 2.013.498 2.964.411 1.28 1.031 2.497 1.523 3.753.528 1.347.637 3.061 1.582 4.005 3.437 3.427 7.132 6.613 10.77 9.85" fill="#FFF"/><path d="M190.55 295.98c-2.157-1.375-3.336-3.26-3.798-5.647-.44-2.28-.887-4.56-1.278-6.848-.21-1.233-.68-1.965-2.129-2.232-.899-.165-1.781-.97-2.446-1.686-2.32-2.496-4.514-5.104-6.834-7.601-.369-.398-1.381-.773-1.67-.573-.47.322-.766 1.117-.807 1.734-.07 1.04.258 2.114.142 3.144-.064.56-.621 1.415-1.087 1.506-.654.127-2.044-.308-2.054-.544-.075-1.819-1.511-1.668-2.662-2.093-.845-.31-1.829-.803-2.281-1.503-3.147-4.87-3.89-10.138-2.556-15.744.31-1.298.494-2.793.135-4.032-.502-1.731-1.438-3.384-2.416-4.937-2.522-4.002-3.75-8.336-4.076-12.988-.068-.988-.535-2.02-1.057-2.899-2.045-3.444-4.39-6.738-6.189-10.296-.713-1.41-.374-3.361-.362-5.065.009-1.304.546-2.65.34-3.9-.466-2.823-1.299-5.587-1.884-8.394-.47-2.247.16-4.83-2.373-6.392-.395-.243-.373-1.053-.674-1.52a360.082 360.082 0 0 0-5.252-7.94c-.272-.397-.85-.595-1.352-.929-.82 2.745-.33 4.587 1.799 8.556.361.674-.008 1.717-.039 2.59-.825-.34-1.666-.65-2.464-1.041-.22-.11-.396-.441-.455-.7-.995-4.418-2.185-8.81-2.834-13.276-.233-1.613-.394-2.877-1.888-3.65-2.507-1.298-3.682-3.377-4.273-6.014-.844-3.764-2.312-7.377-5.386-9.928-3.602-2.988-5.815-6.735-7.577-10.885-.313-.738-1.312-1.574-2.099-1.687-4.073-.591-8.18-.979-12.278-1.407-6.183-.645-12.37-1.258-18.553-1.902-2-.208-3.855-.69-4.579-3.257l-1.963 2.522 1.515 2.675c.886.082 1.966.18 3.047.281l.013.652c-.557.399-1.442.697-1.606 1.214-.436 1.364-1.24 1.984-2.542 1.437-1.006-.424-1.938-1.152-2.705-1.93-.496-.502-.633-1.335-.959-2.083-.534.168-.928.197-1.19.392-3.227 2.39-6.615 1.948-10.098.652-1.755-.653-3.533-1.282-5.352-1.727-.949-.232-2.007-.041-3.016-.041l-.448.791c1.214 1.306 2.419 2.62 3.642 3.918.947 1.004 1.88 2.022 2.882 2.972 1.093 1.035 2.1 2.34 3.426 2.922 2.702 1.184 4 3.03 4.26 5.826.13 1.378.26 2.939 1 4.026.787 1.163 2.381 2.71 3.466 2.601 2.802-.28 4.219 1.123 5.497 2.97 1.25 1.807 2.55 3.376 4.99 3.696.71.092 1.496.637 1.982 1.193 1.848 2.114 3.611 4.302 5.36 6.497.729.916 1.99.913 2.667-.17.33-.528.361-1.229.686-1.761.34-.56.868-1.014 1.314-1.513.434.446.809.976 1.316 1.323 1.002.687 2.014 1.525 3.149 1.791.539.127 1.531-.802 2.028-1.46.717-.954 1.093-2.146 1.773-3.134.3-.436.99-.619 1.502-.916.2.565.67 1.192.548 1.68-.362 1.445-.96 2.835-1.465 4.246.611-.036 1.223-.072 2.599-.15-2.47 2.28-.882 4.042-.172 5.89.127.33.337.67.329 1.001-.085 3.417 2.046 4.833 5.093 5.573.524.127 1.354 1.109 1.257 1.285-.81 1.46.297 1.808 1.215 2.382 1.215.76 2.32 1.698 3.566 2.4.9.503 1.978 1.086 2.936 1.026 1.59-.1 2.204.672 2.78 1.827.531 1.064 1.15 2.09 1.77 3.111.782 1.287 1.966 2.462 2.336 3.847.787 2.953 1.16 6.01 1.718 9.103l.664-1.658.557.084c.595 8.118-2.89 15.468-4.955 23.041l1.7.994-2.436 2.028 2.601 4.176c.294-.164.724-.406 1.238-.697l.378 1.37 1.085-2.104 3.599 8.403c3.433-.614 3.361-.573 5.211 2.516.677 1.129 1.789 2.009 2.694 3.008.379.418.74.85 1.415 1.63-1.847-.3-3.127-.509-4.408-.716a68.27 68.27 0 0 0-.156.568c1.46.505 2.962.916 4.367 1.538 1.884.835 4 1.508 5.475 2.824 3.88 3.465 7.786 6.991 11.081 10.965 3.06 3.694 5.873 7.423 10.344 9.682 1.201.606 2.165 1.87 2.944 3.02 2.876 4.248 4.103 9.09 5.31 13.973.483 1.955 1.783 3.749 2.875 5.52.752 1.222 1.872 1.209 3.199.567 2.649-1.282 5.376-2.41 8.085-3.573 5.455-2.34 8.4-12.083 2.233-16.016m228.224 59.345c1.23 1.292 2.159.95 3.141-.328 3.22-4.195 3.791-8.699 1.664-13.456-.666-1.491-.962-2.52.538-3.837 2.077-1.825 1.133-5.414-1.597-6.839-1.207 3.381-3.442 5.607-7.313 5.956-.275.024-.551.17-.8.304-2.062 1.115-2.675.794-3.914-1.289-.873-1.467-2.034-2.833-3.302-4.01-1.137-1.053-2.634-1.734-3.903-2.666-3.255-2.39-5.134-5.378-4.845-9.537.085-1.237-.572-2.663-1.274-3.78-1.187-1.884-1.28-3.024.804-3.94 3.066-1.349 6.36-2.216 9.532-3.352 2.143-.766 4.681-1.171 6.279-2.558 4.191-3.636 7.988-7.698 11.891-11.637 1.524-1.538 2.137-3.295 1.694-5.558-.55-2.813.58-3.907 3.49-4.334.695-.1 1.728-.543 1.9-1.05.837-2.47 2.393-4.255 4.674-5.579.357-.207.386-.938.567-1.428-.45-.143-.91-.265-1.35-.432-1.358-.516-2.953-.77-4-1.637-1.576-1.3-2.678-3.118-4.153-4.55-.727-.705-1.791-1.254-2.798-1.48-1.1-.247-2.349.136-3.462-.082-1.07-.21-2.253-.63-3.035-1.325-1.779-1.579-3.33-3.394-5.005-5.085-.288-.289-.703-.543-1.104-.636-5.629-1.298-10.896-3.863-16.826-4.143-4.637-.218-5.366.422-3.506 4.59 2.315 5.185 2.89 10.483 2.09 16.02-.175 1.21-.688 1.83-1.853 1.878-3.254.137-6.528.45-9.762.244-4.482-.287-8.939-.954-13.397-1.523-1.568-.2-2.405.422-3.423 1.58-2.695 3.066-5.503 6.097-8.639 8.73-1.865 1.567-3.03 3.168-3.072 5.459-.033 1.811.141 3.627.268 5.44.115 1.659-.171 2.927-2.322 3.017-.582.023-1.385.36-1.674.802-1.412 2.164-3.199 4.27-3.912 6.656-2.11 7.053-2.28 14.356-1.91 21.642.039.78 1.235 1.713 2.118 2.171.594.31 1.585-.095 2.399-.182-.128-.955-.327-1.908-.367-2.866-.065-1.54-.367-3.201.139-4.569.205-.553 2.262-.58 3.487-.635.843-.035 1.722.236 2.554.475 2.264.649 2.35 1.358 1.187 3.31-1.81 3.04-3.345 6.229-4.997 9.355l.851.382c.802-2 1.597-4.004 2.408-6 1.026-2.53 2.45-2.867 4.258-.774.625.723.879 2.066.716 3.033-.383 2.27-1.207 4.467-1.682 6.725-.266 1.262-.6 2.766 1.522 3.048 1.907.253 3.033-.51 3.394-2.393.185-.963.229-1.962.519-2.89.726-2.33 2.909-3.417 5.74-2.963 3.69.593 4.594 1.406 4.403 4.473-.316 5.09-2.35 9.497-6.205 13.028-.873.8-2.044 1.89-3.046 1.86-3.522-.107-4.392 2.127-5.18 4.647-.144.462-.432.885-.67 1.317-2.173 3.924-4.35 7.844-6.636 11.964 2.44.677 3.356 3.14 6.117 2.895 5.258-.468 10.546-.61 15.823-.878 3.765-.191 7.06-1.412 9.819-3.957 3.285-3.029 3.078-6.157-.66-8.706-.354-.24-.837-.333-1.13-.617-.7-.678-1.797-1.375-1.894-2.16-.378-3.01-.625-6.069-.482-9.09.049-1.038 1.226-2.19 2.16-2.993 2.201-1.89 4.545-3.628 6.88-5.368.551-.412 1.303-.57 1.949-.874 2.519-1.179 5.012-2.416 7.564-3.526.687-.299 1.876-.587 2.282-.253 2.992 2.453 5.912 5.053 6.907 8.916.55 2.136 1.798 3.817 3.927 3.989 3.194.255 5.434 1.748 7.445 3.86" fill="#FFF"/><path d="M541.563 362.476c-3.577-2.23-5.99-5.443-8.273-8.798-.81-1.189-1.679-2.34-2.668-3.711 1.446 3.268 2.765 6.265 4.112 9.25.095.213.38.368.61.494 5.703 3.084 8.635 10.7 6.515 17.582-.495-.96-.874-1.68-1.238-2.404-1.108-2.205-2.2-4.418-3.319-6.617-1.88-3.699-3.842-7.362-5.647-11.095-1.197-2.474-2.142-5.063-3.284-7.565-.343-.75-.834-1.552-1.488-2.03-2.822-2.074-5.71-4.064-8.623-6.013-.546-.364-1.383-.666-1.984-.54-2.05.43-4.055 1.063-6.114 1.629 1.169.892 2.613 1.81 3.79 2.98.513.51.83 2.137.637 2.246-2.259 1.26-2.219 3.71-3.148 5.597-.682 1.383-1.051 3.082-.963 4.606.113 1.97-.253 3.632-1.602 5.048-1.162 1.222-1.05 2.331-.35 3.805.923 1.944 1.722 4.036 2.033 6.139.396 2.669 1.495 3.807 4.337 3.734.638-.016 1.315.461 1.929.791.464.252.81.73 1.286.935 1.749.754 2.297 1.944 1.792 3.74-.529 1.887-.93 3.806-1.352 5.72-.325 1.483-1.193 2.152-2.642 1.454-1.637-.787-2.687-.342-3.655 1.031-.46.655-1.22 1.112-2.022 1.814 2.558.532 2.098 1.744 1.06 3.21-.61.86-1.345 1.847-1.402 2.81-.074 1.287.456 2.608.727 3.915 1.107-.238 2.313-.288 3.292-.772.852-.421 1.439-1.342 2.158-2.024 1.548-1.469 3.045-2.995 4.678-4.37 1.4-1.177 2.983-2.068 4.97-.73.86-2.525 2.306-4.363 4.821-5.205 2.227-.748 3.211-.32 3.49 1.937.277 2.25 1.41 3.69 3.308 4.866 3.149 1.952 3.252 3.733-.056 5.38-2.845 1.415-3.089 3.575-3.09 6.071-.002 1.459 2.345 4.026 3.803 4.02.552-.003 1.35-.507 1.612-.996 1.398-2.598 2.597-2.935 5.237-1.407 1.293.748 2.63 1.468 4.03 1.992 2.565.96 2.737 1.623 1.044 3.753-3.43 4.311-5.545 9.206-6.165 14.619-.322 2.808.761 4.126 3.553 5.003 1.58.496 3.241.774 4.781 1.359 2.18.826 2.382 2.504.423 3.753-1.19.756-2.711 1.021-3.905 1.774-.873.55-1.71 1.427-2.12 2.346-.906 2.027-1.365 4.249-2.318 6.252-1.245 2.622-1.059 3.39 1.815 4.345 1.497.498 2.68 1.114 3.183 2.797.992 3.325 1.354 3.424 4.762 2.253.341-.118.694-.208 1.021-.352 1.484-.651 2.653-.285 3.595.973.37.494.82.93 1.316 1.485 1.832-2.35 3.245-4.641 2.86-7.616-.126-.966-.153-2.368 1.317-2.08 3.436.668 6.761 1.8 8.729 4.927 1.49 2.367 2.762 4.862 4.16 7.285.163.286.464.58.77.693 2.316.843 4.424 2.13 7.209 1.497 2.894-.658 4.416.483 5.421 3.262.956 2.648 1.393 5.158-.389 7.826-1.631 2.445-1.036 5.104.925 6.921 1.914 1.776 4.293 2.112 6.565.812 2.84-1.627 5.589-3.41 8.474-4.953.745-.398 2.244-.533 2.698-.1.563.538.814 1.983.464 2.695-.602 1.225-.387 2.067.516 2.788 2.33 1.863 4.739 3.639 7.106 5.456.782.6 1.989 1.1 2.223 1.869.663 2.168 2.27 2.3 4.063 2.301 7.595.009 15.199.185 22.782-.099 2.394-.09 4.809-1.272 7.064-2.273.677-.3 1.334-1.786 1.16-2.546-.715-3.103-1.947-6.023-4.481-8.25-2.197-1.932-4.483-3.797-6.452-5.932-1.154-1.25-1.942-2.906-2.573-4.498-.644-1.62-.964-3.375-1.3-5.094-.321-1.64-1.241-1.916-2.813-1.704a75.67 75.67 0 0 1-7.768.643c-2.767.082-5.199-2.262-6.151-4.727-.941-2.434-2.182-4.778-5.038-5.992-2.6-1.105-5.037-2.652-7.36-4.258-1.736-1.198-3.369-1.755-5.577-1.69-3.423.102-6.867-.387-10.3-.646-.498-.037-.99-.18-1.484-.273 1.197.816 2.813 1.042 3.028 2.718-2.073-.3-4.016-.265-5.667-.922-1.218-.485-2.053-1.873-3.059-2.86l1.712-.774c-1.269-1.316-2.76-2.875-4.273-4.415-.59-.601-1.236-1.152-1.853-1.73-1.027-.965-2.087-1.9-3.07-2.907-1.486-1.523-2.779-3.254-4.411-4.602-1.702-1.406-2.985-2.99-3.039-5.124-.12-4.858-2.347-8.812-4.94-12.796-3.525-5.414-7.04-10.77-11.619-15.444-3.645-3.72-7.545-7.17-9.261-12.47-2.023-6.253-4.627-12.257-2.733-19.008.538-1.926-.173-3.697-1.927-4.79" fill="#28AC01"/><path d="M460.174 180.585c-2.533-1.82-4.513-1.202-5.444 1.719a8.125 8.125 0 0 0-.357 1.648c-.394 3.967-2.563 6.161-6.675 6.887-3.112.55-5.628 2.306-7.254 4.984-.41.675-.272 1.659-.386 2.502.81-.06 1.759.124 2.398-.225 2.037-1.114 3.597-.496 4.658 1.182.69 1.092 1.074 2.458 1.246 3.746.504 3.756-1.196 6.867-3.54 9.658-.386.459-1.453.41-2.216.536-1.01.169-2.243-.023-3.005.476-2.098 1.374-4.016 3.009-5.976 4.576-3.403 2.723-3.441 2.778-.425 5.84 3.731 3.789 6.161 8.038 6.047 13.47-.02.97.766 2.08 1.452 2.918 2.14 2.618 4.406 5.139 6.637 7.688.18.205.437.37.69.488 2.495 1.153 5.026 2.24 7.48 3.467.755.38 1.908 1.231 1.827 1.699-.154.91-.899 1.897-1.69 2.484-.602.446-1.654.424-2.507.434-2.909.037-5.82-.092-8.725.01-2.58.09-5.175 3.073-4.04 4.848 1.955 3.051 1.23 6.042.757 9.166-.451 2.992-.375 5.993 2 8.32 2.819 2.762 3.56 6.055 2.947 9.71-.436 2.601.195 4.882 1.757 6.958 1.743 2.317 2.407 4.897 2.345 7.741-.082 3.797-.062 7.598-.027 11.396.018 1.758.97 2.457 2.424 1.903 1.924-.733 3.843-1.48 6.008-2.317.36-2.87.428-2.883 3.794-3.717.506-.125 1.038-.904 1.189-1.472.417-1.56.536-3.193.953-4.752.937-3.492 2.314-4.559 6.054-5.034 1.579-.202 3.2-.339 4.703-.8 2.21-.678 2.667-1.948 1.576-3.913a26.451 26.451 0 0 0-2.118-3.194c-1.369-1.797-1.948-3.661-1.369-5.93.738-2.888 1.225-5.697-1.634-8.125-1.493-1.268-.78-2.53 1.047-3.371 1.945-.897 3.774-2.034 5.616-3.125 1.418-.84 2.666-2.096 4.19-2.589 2.369-.768 3.35-2.212 3.63-4.454.375-3.011 2.207-4.723 5.294-5.339 1.255-.25 2.621-.541 3.64-1.226 3.456-2.325 6.794-4.816 10.139-7.293.655-.484 1.137-1.185 1.716-1.804-3.753-2.633-3.753-2.633-3.828-7.344-.03-1.9.027-3.804-.109-5.697-.286-4.017-1.776-4.843-5.698-3.27-.134.053-.27.114-.384.199-1.386 1.024-2.255.395-3.312-.666-.711-.715-1.932-1.308-2.938-1.327-3.462-.067-3.59-.176-4.37-3.528-.25-1.08-1.054-2.628-1.934-2.877-2.954-.835-4.073-2.68-4.277-5.398a16.856 16.856 0 0 0-.375-2.5c-.641-2.802-1.341-3.49-4.327-3.886-1.46-.193-2.141-.925-2.046-2.214.106-1.418.454-2.818.71-4.321-1.802-.41-3.288-1.232-2.586-3.45 1.332-4.202-.232-7.892-2.144-11.492-.477-.898-1.25-1.808-2.13-2.314-1.916-1.103-2.093-2.62-.99-4.085 1.247-1.653 2.924-3.003 4.599-4.668-1.287-2.059-1.682-2.062-3.722.203-2.946 3.27-3.516 3.34-6.965.86m64.688 257.856c-.679-.137-1.701.034-2.176.469-2.034 1.86-4.224 1.404-6.19.288-1.66-.944-2.99-2.44-4.465-3.69l.65-.84c.633.319 1.329.56 1.888.976.799.593 1.455 1.367 2.251 1.964 1.417 1.06 2.868 1.244 4.28-.074 1.171-1.095 2.444-1.691 4.105-.918.37.173 1.024.068 1.41-.146 1.765-.974 3.481-2.034 5.404-3.176-.513-1.323-2.032-1.834-3.512-2.526-1.036-.483-1.903-1.364-2.728-2.18-.204-.201-.113-.986.132-1.232.25-.25 1.012-.378 1.275-.192 1.882 1.332 3.8 2.65 5.48 4.204.783.721 1.06 1.96 1.565 2.966-1.036.485-2.076.968-3.11 1.459-.736.35-1.717.533-2.148 1.105-1.085 1.442-2.326 1.904-4.11 1.543m-3.206-14.343c1.182.574 2.32 1.243 3.436 1.932.043.025-.343.816-.357.81-1.339-.495-2.662-1.034-4.339-1.714.696-.58 1.125-1.093 1.26-1.028m9.855 39.378c2.2-.803 2.97-.223 2.976 2.111.008 2.704 1.724 4.002 4.497 3.456.701-.138 1.437-.138 2.157-.142 2.673-.013 5.347-.005 8.02.005 3.467.012 6.415-1.18 8.428-3.94.51-.699.544-2.2.104-2.948-.448-.758-1.71-1.337-2.686-1.456-1.09-.133-2.25.422-3.393.53-1.6.15-2.943-.445-3.4-2.01-.684-2.334-2.195-3.635-4.524-4.365-1.873-.586-2.501-2.056-1.957-3.886.32-1.075.827-2.095 1.211-3.153.505-1.387 1.252-2.761 1.396-4.188.34-3.373.541-3.74 3.947-4.544 1.135-.267 2.249-.627 3.373-.947l.02-.759c-1.793-.615-3.588-1.227-5.38-1.846-4.29-1.48-5.711-3.514-4.405-7.707 1.457-4.675 3.528-9.17 5.31-13.751.21-.543.534-1.54.359-1.65-1.571-.983-3.177-2.01-4.925-2.567-.497-.158-1.533 1.144-2.258 1.84-1.076 1.036-1.97 2.302-3.848 1.477-4.106-1.805-6.324-8.449-3.89-12.11.407-.612 1.388-.864 2.106-1.277.767-.44 1.539-.875 2.309-1.312-.572-.684-1.156-1.358-1.712-2.055-.98-1.226-1.99-2.435-2.893-3.715-.454-.64-.636-1.973-1.053-2.018-.776-.086-1.89.336-2.396.925-.737.858-1.468 2.046-1.484 3.103-.04 2.673-1.234 4.704-2.946 6.601-1.649 1.829-3.26 3.692-4.91 5.567 2.45 2.68 2.536 3.003 1.14 7.093-.43 1.263-1.128 2.448-1.495 3.724-.303 1.055-.613 2.262-.376 3.28.835 3.57.926 3.559-2.961 3.743-.384.018-.78-.155-1.17-.241.142-.42.244-.86.435-1.26.586-1.224 1.267-2.41 1.8-3.655.603-1.41.922-2.952 1.654-4.287 1.836-3.35 1.662-5.031-1.11-7.72-1.51-1.466-1.169-2.2.545-3.366 2.273-1.548 4.357-3.41 6.272-5.37.484-.493.017-1.869-.012-2.84-.963.069-2.147-.183-2.842.272-1.42.929-2.546 2.27-3.849 3.379-1.515 1.293-2.979 2.69-4.664 3.738-2.567 1.598-4.477.863-4.84-2.022-.243-1.926.249-3.975.646-5.925.2-.981.754-1.646-.528-2.442-1.156-.718-.866-1.772.358-2.494.792-.465 1.772-.88 2.223-1.587 1.315-2.049 2.91-2.554 5.094-1.433.13.066.386-.097.255-.06.594-1.869 1.154-3.51 1.62-5.173.156-.553.32-1.524.06-1.696-1.172-.767-2.43-1.62-3.774-1.883-3.948-.768-5.204-2.143-5.264-6.214-.004-.431-.5-.858-.77-1.286-.346.373-.948.721-.99 1.125-.12 1.18.117 2.403-.066 3.568-.082.515-.915 1.38-1.275 1.32-3.259-.53-6.558-1.017-9.702-1.966-1.616-.49-2.347-.456-3.273.975-2.425 3.746-4.226 4.477-7.96 3.686-1.628 3.457-3.809 6.763-4.736 10.375-1.363 5.318-6.224 5.82-9.898 8.022-.041.024-.21-.153-.413-.307.115-.285.148-.73.382-.885 1.424-.937 2.843-1.903 4.363-2.674 1.757-.894 2.657-2.108 3.388-4.01 1.482-3.855 3.528-7.526 5.6-11.133.436-.757 2.346-1.55 2.957-1.226 2.565 1.363 3.07-1.099 4.369-1.937 1.277-.826.355-1.843-.103-2.774-1.121-2.274-2.311-4.522-3.275-6.857-.645-1.563-1.575-1.704-2.53-.608-.903 1.036-1.7 2.321-2.04 3.623-.475 1.8-1.41 2.19-2.982 1.557-1.597-.644-3.184-1.337-4.704-2.14-2.85-1.505-4.09-.974-4.178 2.165-.026.854.802 1.877 1.502 2.572 1.16 1.15 1.159 2.02.058 3.225-1.6 1.758-3.36 2.245-5.62 1.42-.65-.237-1.937-.343-2.101-.056-1.08 1.867-2.098 3.804-2.795 5.83-.48 1.39-1.197 1.742-2.54 1.598-.836-.092-1.72-.14-2.53.029-1.673.35-3.289.976-4.969 1.276-2.4.43-3.294 1.088-2.996 3.482.273 2.185 1.245 4.279 1.758 6.445.668 2.815 2.448 4.83 4.472 6.81 2.217 2.169 4.161 4.6 6.295 6.851.389.41 1.515.84 1.635.705 1.203-1.363 2.473-2.737 3.318-4.315 1.229-2.29 2.12-4.751 3.171-7.134.031-.07.256-.059.91-.192-.096 1.36.074 2.695-.336 3.833-.589 1.635-.122 2.65 1.365 3.21 2.262.855 4.543 1.757 6.9 2.254 2.086.441 3.38 1.39 4.01 3.333.455 1.403.833 2.86 1.516 4.158 1.092 2.076 2.503 2.134 3.892.224 1.337-1.839 3.101-2.916 5.369-3.202 1.551-.197 3.047.363 3.107 1.9.107 2.8 1.815 2.903 3.918 2.83 3.56-.128 6.198.967 6.859 4.832.314 1.835 1.855 1.89 3.375 1.84.914-.028 1.831-.005 2.747-.005l.122.616c-.54.238-1.064.626-1.626.685-1.36.144-2.763-.003-4.098.237-.78.141-1.462.801-2.188 1.228.634.616 1.205 1.317 1.924 1.817.499.347 1.268.314 1.787.645.333.213.428.777.63 1.184-.418.186-.943.63-1.238.514-1.72-.67-2.04.341-2.173 1.592-.12 1.115-.2 2.237-.241 3.357-.155 4.21-.204 8.425-.472 12.628-.102 1.577-.81 3.102.216 4.65.208.312 0 .945-.125 1.4-.458 1.669-.847 3.37-1.505 4.964-.277.671-1.308 1.671-1.74 1.561-3.327-.843-5.367 1.346-7.993 2.687 2.676 2.237 5.094 4.318 7.586 6.313.867.693 1.87 1.268 2.89 1.729 1.695.762 3.512 1.28 5.17 2.107 1.332.667 2.312.478 3.602-.197 1.53-.803 3.313-1.55 4.997-1.573 2.172-.031 4.351.705 6.536 1.057.651.106 1.331.033 2 .04-.124-.587-.22-1.183-.374-1.762-.261-.985-.992-2.067-.766-2.918.72-2.711 2.484-4.746 5.255-5.757" fill="#FFF"/><path d="M512.177 521.504c1.121-2.34 3.228-3.507 5.149-4.96 1.368-1.034 2.785-2.056 3.93-3.298.827-.897 1.745-2.146 1.744-3.236 0-3.256-.571-6.502-3.508-8.67-2.655-1.961-5.183-3.94-5.828-7.37-.358-1.894-.99-3.762-1.132-5.667-.143-1.938.22-3.904.265-5.86.099-4.3-1.736-6.475-6.072-7.63-1.297-.345-2.658-.91-3.665-1.743-4.492-3.712-9.462-6.944-12.925-11.729-.276-.383-1.087-.713-1.545-.615-3.571.762-4.127.358-6.036-2.654-.956-1.51-2.52-2.88-4.137-3.726-2.467-1.289-3.718-.557-5.294 1.69-.645.919-2.013 1.985-3.005 1.944-3.543-.145-6.11 1.169-8.24 3.775-1.246 1.525-3.125 1.835-4.655.707-.934-.688-1.452-2.13-1.769-3.329-.64-2.421-1.1-4.87-3.487-7.133-.486 1.237-.975 2.06-1.111 2.933-.17 1.096-.015 2.236-.067 3.354-.162 3.487-1.119 4.21-4.57 3.498-.708-.146-1.41-.321-2.115-.477-6.4-1.417-12.878-2.01-19.413-1.349-2.944.297-5.635.555-8.176-1.533-1.833-1.507-4.533-1.223-6.307-.025-2.077 1.4-1.6 3.15-.97 5.056.768 2.326.204 3.626-1.934 5.013-.78.506-1.603.954-2.405 1.43-1.725 1.026-2.119 2.617-1.796 4.378.085.463.746 1.146 1.189 1.18 4.626.363 7.605 3.173 10.306 6.37 1.736 2.053 3.698 3.616 6.407 4.445 1.66.509 3.672 1.369 4.505 2.679 1.622 2.553 4.109 3.856 6.414 5.499.692.493 1.554 1.011 1.863 1.713.711 1.616 2.083 2.2 3.586 2.755 1.013.374 1.978.87 2.989 1.253 3.165 1.2 6.262 3 9.533 3.379 3.221.373 5.992 3.48 9.56 1.535.167-.09.56.108.796.251 4.108 2.48 8.202 4.983 12.316 7.455.75.45 1.575.785 2.366 1.172l.416-.548c-.804-.395-1.608-.793-2.412-1.189l.63-.987c.913.163 1.828.313 2.736.492 1.314.26 2.63.777 3.935.752 1.857-.033 3.376.314 4.707 1.643 1.092 1.091 2.34 1.81 4.074.875.467-.253 1.576.116 2.103.537 1.902 1.525 4.062 2.065 6.46 2.023 2.384-.042 4.313.827 5.951 2.542 1.264 1.326 2.73 2.483 4.187 3.616.347.27 1.172.381 1.508.169 1.078-.683 2.458-1.36 2.949-2.385" fill="#FFF"/><path d="M404.847 467.449c2-1.084 2.838-2.644 1.979-4.95-.623-1.673-.399-3.358.99-4.716 1.993-1.948 6.972-2.376 9.417-.969.949.546 2.114.95 3.208 1.02 5.584.357 11.19.443 16.762.91 3.515.294 6.985 1.088 10.712 1.697.187-2.03.207-4.14.637-6.17.24-1.126.919-2.65 1.838-3.054 2.031-.893 3.188-2.392 3.7-4.196 1.477-5.212 2.902-10.455 3.943-15.76.863-4.405 1.205-8.827 3.548-12.927.798-1.398.342-3.939-.422-5.57-.74-1.582-2.857-1.34-4.53-.814-.825.26-1.733.485-2.391.986-4.1 3.121-8.73 2.633-13.372 1.907-.881-.137-1.824-.609-2.49-1.192-1.993-1.742-4.257-2.037-6.719-1.444-1.194.288-2.337.772-3.513 1.135-3.11.958-5.348-.28-6.031-3.335-.124-.551-.162-1.118-.26-1.674-.417-2.33-1.907-3.554-4.285-3.156-1.149.19-2.273.861-3.265 1.516-2.65 1.753-4.115 1.97-6.062-.421-2.465-3.027-5.273-3.87-8.928-2.874-.41.111-.884-.014-1.303.081-2.812.64-5.849.86-8.37 2.079-3.648 1.762-7.317 2.984-11.343 3.51-1.48.192-3.078.956-4.205 1.918-1.56 1.335-1.102 2.26.896 2.909 2.75.892 5.505 1.806 8.159 2.935.73.31 1.72 1.654 1.532 2.121-1.073 2.654-.863 5.09.171 7.714.482 1.222.773 1.929 2.241 1.991 2.694.114 3.6 1.53 2.582 3.924-.384.902-.812 1.932-1.548 2.518-1.695 1.35-3.576 2.485-5.408 3.669-2.896 1.87-5.86 3.648-8.705 5.587-1.807 1.232-3.614 1.625-5.873 1.635-2.828.013-5.66.888-8.47 1.475-.419.088-.784.602-1.086.984-.885 1.12-1.678 2.31-2.597 3.4-1.303 1.546-1.276 3.115-.146 4.662 1.134 1.552 2.723 2.87 3.521 4.556 1.712 3.614 5.094 4.828 8.434 6.184 1.338.544 2.785.832 4.133 1.355 3.633 1.407 7.235 2.891 10.86 4.317 1.545.607 3.089 1.256 4.69 1.686 2.584.695 5.212 1.239 7.827 1.815.99.218 1.997.371 3.001.518 1.802.264 2.783-.34 2.654-2.274-.21-3.146.927-5.616 3.887-7.218" fill="#28AC01"/><path d="M439.8 278c-1.874 1.864-4.165 3.37-5.288 5.459-1.312 2.439-1.997 4.931-5.799 4.002 0 .907-.129 1.544.022 2.111.71 2.66-.223 4.823-2.08 6.715-3.093 3.153-6.13 6.364-9.343 9.4-3.656 3.456-7.793 5.858-13.227 6.1-2.272.103-4.476 1.612-6.085 2.236.852 3.211 1.666 5.77 2.189 8.381.622 3.104 1.8 5.855 4.857 7.31 2.907 1.382 5.243 3.23 6.519 5.727 1.437 0 2.394.035 3.345-.013.68-.034 1.606.056 1.985-.32 1.231-1.217 2.483-2.509 3.31-3.987.928-1.658 1.539-1.994 3.09-.85 2.934 2.163 3.73 5.48 2.251 8.814-.434.981-1.018 2.274-.697 3.132 1.847 4.935.732 9.487-1.515 13.948-.62 1.231-.467 2.05 1.089 1.73 1.718-.352 2.893.228 4.136 1.246.666.548 1.687.93 2.564.96 4.148.134 7.618 1.519 10.31 4.63.454.526 1.11.902 1.7 1.307 2.544 1.747 3.926 1.675 6.056-.524 1.323-1.364 2.8-2.114 4.77-2.118 2.244-.003 3.972.293 5.96 1.944 2.22 1.844 5.65 2.362 8.597 3.338.358.118 1.202-.378 1.443-.793 1.403-2.414 2.268-2.68 4.773-1.272 1.19.67 2.346 1.408 3.585 1.982 1.456.672 2.421.458 3.215-1.232.712-1.516 2.063-2.81 3.325-4.016.92-.878 2.03-.708 2.711.478.986 1.712 1.877 3.476 2.9 5.165.651 1.076 1.253 2.606 2.257 2.978 3.392 1.255 6.529 3.398 10.502 2.978 1.752-.185 2.494-.51 2.135-2.399-.157-.82.306-2.258.955-2.609 1.508-.81 1.273-1.49.585-2.65-1.593-2.684-1.292-3.758.893-6.142.599-.655.854-1.823.814-2.736-.046-1.007-.516-2.037-.978-2.977-.563-1.14-.608-1.852.81-2.469.748-.327 1.384-1.198 1.75-1.965.677-1.42 1.12-2.944 1.809-4.832-2.902-3.23-7.03-4.194-11.918-3.831-3.729.277-7.52-.092-11.275-.307-2.338-.134-3.744-1.461-4.594-3.599-.528-1.33-1.445-2.582-2.44-3.65-.453-.484-1.804-.848-2.26-.558-1.639 1.046-3.218.674-4.815.22-2.926-.83-5.848-1.685-8.728-2.65-4.155-1.391-4.765-3.268-2.254-6.746.984-1.365 1.417-2.969 0-3.961-2.226-1.559-4.767-2.71-7.231-3.93-.407-.2-1.16.024-1.656.25-4.37 1.993-6.287.946-6.41-3.658-.096-3.567.076-7.144-.099-10.707-.086-1.782-.202-3.832-1.137-5.254-2.234-3.398-2.738-7.063-2.624-10.854.112-3.767-2.043-6.228-4.759-8.932m-139.07 53.62c1.006 2.445 1.787 2.837 4.144 1.94-.14-2.864-.74-5.692-.28-8.347.505-2.9 1.898-5.676 3.092-8.432.696-1.606.213-2.383-1.23-3.207-1.356-.776-2.951-1.68-3.636-2.94-1.983-3.648-5.332-6.725-5.353-11.26-.002-.387-.354-.763-.47-1.164-.908-3.15-2.386-6.276-2.552-9.465-.224-4.34-2.359-7.526-4.86-10.716-1.13-1.445-2.643-1.86-4.429-1.455-.773.175-1.545.36-2.316.548-2.007.492-3.579-.096-4.604-1.843-.822-1.398-1.477-2.89-2.346-4.257-1.963-3.092-3.515-6.634-6.143-9.075-3.833-3.56-5.082-7.977-5.744-12.548-.468-3.236.246-6.657.622-9.976.425-3.74.311-7.194-2.676-10.149-1.272-1.259-2.474-2.964-2.816-4.637-.558-2.736-2.195-3.374-4.641-3.705-6.86-.926-7.181-1.507-8.457-8.164-1-5.22-2.467-10.355-3.76-15.52-.292-1.166-.847-2.281-2.387-1.584-2.32 1.05-4.468.703-6.628-.387-1.182-.595-1.88-.21-2.59.947-1.136 1.846-2.313 3.824-3.965 5.187-4.384 3.619-8.96 7.03-13.607 10.33-1.792 1.275-2.794 2.505-2.131 4.705.16.538-.1 1.196-.166 1.797l-.688.128-1.746-3.35-.765-.606-1.723 2.937-.357-.335v-1.862c-.197-.067-.393-.136-.59-.204-1.286 2.386-2.75 4.702-3.764 7.192-.363.893.39 2.196.569 3.322.063.392.088.93-.132 1.202-1.261 1.555-.34 2.54.84 3.523.486.406.91.881 1.73 1.686l-2.44-.215-.216.394c1.372 1.125 2.742 2.252 4.468 3.668l-.208-1.82c1.479.165 2.845.348 4.218.459.72.058 1.451-.011 2.176-.023-.373.706-.56 1.688-1.156 2.062-1.59 1.001-1.284 1.851-.056 2.748.505.37 1.252.892 1.719.763 1.221-.338 2.483-.828 3.483-1.57 1.285-.954 1.978-.952 2.505.615 1.608 4.78 5.693 7.512 9.485 10.388 2.583 1.958 5.558 3.422 8.248 5.255.772.526 1.166 1.571 2.013 2.773l-4.666-.201 2.872 5.129c.45-1.337.799-2.377 1.147-3.417l.95.075c.042 1.06.203 2.133.093 3.18-.107 1.03-.616 2.022-.725 3.052-.192 1.821 1.25 3.425 3.071 3.696 2.534.376 5.063.785 7.586 1.223.484.085.983.294 1.382.572.988.688 1.853 1.534 1.034 2.798-.798 1.234-1.869.712-2.84.169-.954-.535-1.874-1.123-2.811-1.687 2.6 5.104 6.712 8.53 11.999 10.42 1.945.698 3.217 1.784 4.225 3.323.274.418.042 1.146.042 1.731l-.833.387c4.46 2.301 7.198 6.013 9.49 10.125 1.67 2.996 3.284 6.046 5.254 8.853 2.632 3.755 5.576 7.304 8.4 10.93.601.77 1.267 1.494 1.903 2.24l.248-.228-2.034-4.024c.184-.113.368-.228.554-.34 5.447 3.339 6.346 10.4 11.933 13.948l-.78-2.37c2.844.55 3.955 2.554 4.822 4.664m545.747 23.799c-.372-1.92-.831-3.443-3.035-4.094-1.346-.396-2.605-1.223-3.762-2.046-1.705-1.214-3.524-1.462-5.534-1.167-4.898.716-9.802 1.395-14.704 2.088v.429c3.276 0 6.553.012 9.83-.01.788-.005 1.615-.293 2.348-.13.67.15 1.237.736 1.85 1.13-.451.578-.781 1.404-1.38 1.682a10.78 10.78 0 0 1-3.517.958c-1.78.158-2.301.774-1.95 2.576 1.183 6.074.06 11.949-2.318 17.56-.737 1.741-2.07 3.416-3.544 4.647-3.449 2.88-7.115 5.518-10.753 8.176a7011.168 7011.168 0 0 1-32.12 23.334c-1.468 1.06-2.07 2.095-1.841 4.035 1.452 12.378 2.715 24.774 4.035 37.166.536 5.039 1.086 10.079 1.574 15.123.188 1.945 1.458 2.13 3.046 2.123 1.57-.006 2.57-.438 2.869-2.152.657-3.756 2.303-4.406 5.45-2.29 2.188 1.474 3.516 1.252 4.717-1.02 2.213-4.189 4.46-8.371 6.398-12.682 1.028-2.286 2.359-3.956 4.766-4.821 2.994-1.078 4.828-3.46 5.186-6.292.333-2.649.39-5.06 2.988-6.63.719-.433 1.266-1.138 1.891-1.718.284.88.845 1.777.79 2.635-.101 1.53-.566 3.04-.896 4.554-.238 1.1-.568 2.186-.744 3.294-.209 1.32.146 2.181 1.7 2.676 1.03.33 2.042 1.327 2.617 2.281 1.09 1.81 1.862 3.803 2.94 6.086.343-1.201.652-1.99.793-2.806 1.017-5.902 1.98-11.81 2.999-17.711.761-4.42-.216-9.291 3.485-12.963.053-.05-.05-.253-.221-1.005l-4.958 2.491c-1.463-2.02-1.046-4.632 1.058-5.225 3.498-.984 4.153-3.785 4.842-6.607.118-.48-.217-1.066-.34-1.588-1.987 1.095-3.613 2.171-5.396 2.866-.57.225-1.796-.366-2.276-.94-.437-.522-.268-1.529-.366-2.321h2.136c1.367-1.649.47-5.098 3.727-5.464.14-2.976-.037-6.04.53-8.966.42-2.168 2.07-4.082 2.702-6.242.929-3.168 2.627-5.826 4.927-8.084 6.537-6.42 9.21-13.948 7.46-22.937m-69.762 81.247c-.8-7.659-1.792-15.3-2.803-22.936-.128-.973-.692-2.03-1.375-2.777-5.435-5.944-10.94-11.827-16.44-17.717-1.515-1.621-3.092-2.73-5.686-1.914-1.518.477-3.323.166-4.996.118-2.288-.064-2.094-1.975-2.573-3.44a9.064 9.064 0 0 0-.41 2.522c-.044 3.924.069 7.856-.138 11.772-.092 1.76-.23 4.022-1.345 5.126-2.42 2.397-3.21 5.193-3.311 8.196-.25 7.424-4.44 12.347-10.52 16.185-2.98 1.882-6.005 3.696-8.977 5.586-.784.5-1.45 1.17-2.17 1.76l.38.345 2.653-1.65c.828 1.15 1.31 2.004 1.972 2.7 1.703 1.79 1.962 4.064.233 5.835-1.006 1.03-2.484 1.621-3.693 2.484-.71.506-1.87 1.176-1.852 1.743.07 2.135-1.01 1.965-2.477 1.51-.69-.216-1.417-.323-2.108-.538-1.5-.464-2.581-.31-3.369 1.276-.498 1.004-1.556 1.752-2.363 2.614a72.3 72.3 0 0 0-.515-.245c-.015-.267-.107-.554-.03-.791.714-2.228-.17-3.547-2.49-3.951-2.695-.47-5.413-.829-8.11-1.294-.48-.083-.905-.452-1.356-.69.43-.288.854-.813 1.287-.82 1.597-.03 3.194.137 4.793.186 1.157.034 2.324.072 3.47-.044.409-.04 1.097-.548 1.079-.807-.031-.47-.389-1.127-.803-1.319-.835-.386-1.792-.679-2.71-.712a245.3 245.3 0 0 0-9.816-.134c-1.476.006-3.217.077-3.143 2.054.09 2.46.79 3.928 3.01 3.797.93-.055 1.877.196 2.818.287 2.01.195 3.201 1.264 3.53 3.155.157.893.011 1.842.219 2.716.414 1.732.425 4.012 1.585 5.03 3.436 3.017 7.597 4.894 12.471 4.753 1.31-.039 1.886-.454 1.515-1.806-.432-1.574.392-2.786 1.873-3.067 1.538-.291 3.279-.314 4.78.08 3.493.92 6.85 2.33 10.35 3.227 3.476.89 3.76.896 4.052 4.363.12 1.426.634 1.658 2.066 1.539 6.886-.575 13.783-1.023 20.68-1.473 7.042-.46 14.087-.88 21.132-1.295 1.37-.081 1.962-.739 1.914-2.022-.072-2.03-.043-4.068-.21-6.09-.65-7.813-1.26-15.63-2.073-23.427" fill="#FFF"/><path d="M744.727 383.155c.105 1.759.081 3.529.044 5.294-.027 1.269.572 1.907 1.83 1.747 1.841-.234 3.658-.688 5.503-.874.9-.09 1.983-.02 2.732.4.976.546 1.758 1.464 2.53 2.304 5.127 5.578 10.306 11.113 15.287 16.814 1.357 1.55 2.228 1.419 3.695.357 14.724-10.674 29.485-21.303 44.226-31.957.454-.328 1.002-.738 1.157-1.217 1.467-4.491 2.857-9.003 4.269-13.51l-.392-.145c-.26-1.529-.545-3.055-.774-4.59-.439-2.927-2.166-4.703-5.078-5.397-2.605-.619-5.198-1.33-7.84-1.738-8.298-1.287-16.314-.934-23.668 3.783-3.728 2.39-7.944 3.625-12.413 4.27-7.36 1.062-14.522 3.028-21.014 6.623-3.361 1.862-6.509 4.232-9.346 6.8-2.137 1.933-3.567 4.468-1.391 7.54.631.891.571 2.308.643 3.496M405.04 399.73c-.14.626.097 1.506.505 2.032.8 1.034 1.953 1.816 2.747 2.852 1.325 1.732 2.974 2.17 4.91 1.07.312-.177.584-.423.892-.608 4.114-2.486 8.117-.922 9.204 3.574.164.68.4 1.355.707 1.983.803 1.65 1.855 1.95 3.86 1.429 2.96-.771 6.122-.87 9.21-1.104.594-.045 1.473.454 1.825.957 1.087 1.559 2.698 1.653 4.377 1.926 5.594.913 9.999-2.342 15.681-3.869-2.155-2.098-3.907-3.839-5.698-5.54-4.127-3.911-5.412-9.038-6.298-14.225-.473-2.777 1.179-4.498 3.906-4.909 2.785-.42 5.582-.772 8.367-1.188.319-.046.734-.249.878-.501.966-1.702 2-3.386 2.761-5.174.882-2.07 1.57-2.524 3.779-1.896.696.199 1.378.532 2.084.583 1.537.113 2.709-1.22 2.098-2.36-1.35-2.524-2.952-4.657-6.16-5.438-2.278-.555-4.604-1.53-6.464-2.883-1.558-1.135-2.915-1.571-4.566-.882-1.309.547-2.59 1.274-3.69 2.147-2.359 1.872-3.467 2.226-6.113.79-2.077-1.13-3.866-2.734-5.876-3.992-1.318-.825-2.741-1.571-4.22-2.065-2.445-.816-5-1.325-7.463-2.1-2.577-.812-3.914-.213-4.8 2.32-.324.927-.607 1.918-1.17 2.705-1.518 2.118-2.18 4.369-1.876 6.945.258 2.165-.756 3.754-2.697 4.896-.98.576-2.022 1.238-2.672 2.11-2.41 3.24-4.684 6.578-6.98 9.894-1.131 1.637-1.25 3.296.211 4.82 1.233 1.282 1.02 2.5.024 3.775-.481.614-1.125 1.227-1.282 1.927M340.372 341.9c.194-.842.335-1.693.546-2.778-1.163.167-1.944.303-2.732.387-3.499.374-6.371-1.393-7.228-4.43-.745-2.639-2.277-3.387-4.895-2.335-.942.38-1.808.934-2.753 1.304-1.407.55-2.971.922-3.98-.51-1.03-1.46.337-2.418 1.167-3.475.724-.921 1.804-1.967 1.8-2.953-.008-2.084-.505-4.196-1.052-6.234-.186-.694-1.046-1.585-1.738-1.72a70.81 70.81 0 0 0-8.364-1.149c-1.302-.097-1.946.784-2.094 2.194-.142 1.346-.523 2.836-1.31 3.915-1.556 2.133-1.715 4.262-.935 6.623.311.94.712 1.912.715 2.87.002.694-.387 1.742-.936 2.026-3.243 1.68-5.864.487-6.723-2.888-.019-.073-.23-.1-.86-.35l4.96 21.818c1.877-1.68 2.558-.428 3.23.581 1.074 1.616-.1 2.426-2.01 3.286 1.836 2.168 3.254 4.325 5.155 5.958 2.15 1.846 3.49 3.607 2.74 6.566-.479 1.893-.244 3.945-.6 5.88-.268 1.461-.654 3.07-1.536 4.223-1.552 2.031-3.572 3.723-5.279 5.655-.392.443-.542 1.8-.408 1.856 1.727.725 3.491 1.543 5.322 1.775.73.092 1.816-1.075 2.45-1.882 3.118-3.978 8.238-4.568 12.347-6.853.958-.532 2.718-.376 3.803.107 2.083.926 3.984 2.26 5.886 3.531.921.616 1.67 1.469 2.741 2.433.402-1.514.412-2.85 1.062-3.759 2.059-2.877 2.675-5.551.394-8.68-.612-.84-.014-2.508.03-3.795 1.087.226 2.177.45 3.265.681.141.03.297.163.41.131 1.18-.336 2.66-.385 3.45-1.121 1.117-1.042.488-2.527-.598-3.354-2.599-1.977-2.667-4.495-2.096-7.275.53-2.59.089-4.852-2.21-6.644-2.342-1.824-2.922-4.296-2.24-7.08.369-1.511.753-3.02 1.104-4.536M484.695 446.9c3.39-3.314 1.59-6.687 1.14-10.073-.142-1.079.558-2.386 1.19-3.408 1.138-1.842 2.599-3.499 3.767-5.327.847-1.326 1.664-.774 2.167.009 2.354 3.67 5.074 7.224 5.188 11.799.035 1.38.228 2.502 1.619 3.403.726.471.9 1.728 1.382 2.753-.724.097-.96.176-.995.126-2.202-3.113-5.853-2.516-8.982-3.222-1.43-.323-2.43.08-3.07 1.556-.467 1.078-.9 2.576-3.406 2.385m-1.696 8.01c.824.73 1.577 1.693 1.957 2.69.496 1.31 1.184 1.508 2.482 1.232 1.636-.347 3.478-.671 4.544 1.018 1.742 2.759 2.652 2.754 5.852.598 1.703-1.147 3.077-2.96 5.437-1.447.56-2.158 1.27-3.947 1.426-5.777.144-1.69-.307-3.427-.536-5.514a283.85 283.85 0 0 1-1.292-.91c3.044-1.696 2.49-4.416 2.537-6.932.04-2.094.07-4.2-.098-6.286-.145-1.798-.214-3.739-.988-5.312-.752-1.53-.584-2.256.61-3.365.692-.645 1.283-2.08.996-2.836-.371-.977-1.538-2.01-2.592-2.335-1.399-.431-3.017-.232-4.542-.25-3.126-.037-3.126-.022-3.078-2.968.029-1.887-.804-2.619-2.51-1.804-1.354.645-2.653 1.679-3.556 2.84-1.305 1.68-2.97 1.558-4.704 1.422-1.596-.126-2.097-1.283-2.386-2.602a59.45 59.45 0 0 0-.946-3.658c-.532-1.846-1.892-2.56-3.806-2.937-2.166-.426-4.251-1.256-6.35-1.967-.715-.243-1.366-.66-1.672-.811-1.102.987-1.907 1.682-2.678 2.412a5.829 5.829 0 0 0-.929 1.092c-1.47 2.317-2.267 4.806-2.154 7.557.028.67-.056 1.568-.486 1.99-2.392 2.35-2.606 5.405-3.007 8.343-.965 7.064-1.617 14.165-5.282 20.614-.497.872-.135 2.311.114 3.43.453 2.042 1.066 4.056 1.725 6.048.303.92.703 2.303 1.363 2.491.733.208 2.217-.467 2.674-1.174 1.813-2.81 4.524-3.567 7.644-3.533 1.97.022 3.127-.853 3.776-2.556.651-1.71 1.863-2.37 3.77-1.903 2.016.495 3.721-.064 5.087-1.608.611-.69 1.249-1.393 2.004-1.92.401-.28 1.079-.196 1.632-.275-.656 1.52-1.365 2.496-2.205 3.354-1.257 1.283-1.202 2.335.167 3.55m166.293 24.208c1.825 1.322 3.147 3.341 4.536 5.156.705.924 1.05 2.106 1.548 3.149.926-1.761 1.487-3.509 2.61-4.798 1.643-1.888 2.355-3.807 2.272-6.291-.047-1.441.546-3.113 1.408-4.304.712-.984 2.188-1.858 3.422-2.003 3.313-.39 5.71 1.26 6.822 4.59.706 2.112 1.048 4.351 1.389 6.557.274 1.76 1.042 2.756 2.976 2.986 1.023.121 2.092.578 2.953 1.147 2.064 1.365 2.756 1.417 4.307-.49 2.055-2.527 3.93-5.19 5.968-7.73 1.844-2.298 3.507-4.917 7.157-4.694.384.023.821-.26 1.183-.48 3.171-1.927 6.05-1.176 8.822.839 1.21.88 2.348 2.004 3.717 2.495 2.42.864 3.475 2.612 3.572 4.78.102 2.236 1.258 3.19 3.191 3.916 1.86.696 3.783 1.397 4.257 3.763.1.502 1.286 1.086 2.008 1.133 2.518.167 5.054.084 7.581.157 1.486.044 2.112-.541 1.995-2-.465-5.853-.894-11.71-1.34-17.566-.111-1.49-1.03-2.123-2.47-2.473-3.127-.757-6.211-1.68-9.323-2.495a22.872 22.872 0 0 0-3.177-.6c-1.616-.185-2.657.303-2.575 2.163.092 2.071-1.18 3.062-3.178 3.244-2.69.243-5.32.333-7.525-1.706-.81-.75-1.922-1.278-2.988-1.67-3.583-1.317-4.989-3.821-5.08-7.458-.114-4.654-.945-5.406-5.654-5.939-2.153-.245-3.525-1.057-3.57-3.371-.014-.71-.342-1.412-.529-2.127-.487.103-.711.113-.898.2-.455.212-.962.385-1.327.705-4.341 3.812-9.575 6.15-14.796 8.534-1.961.896-2.588.74-3.07-1.486l-12.2 2.05 1.257 1.112c-.348.325-.644.743-1.054.957-1.942 1.015-3.888 2.035-5.896 2.92-.62.274-1.732.446-2.11.117-1.172-1.022-2.125-.466-2.83.275-.754.792-1.74 1.941-1.647 2.84.604 5.784 3.41 10.364 8.286 13.897M407.663 352.196c-.845-.786-1.84-1.786-2.024-2.815-.613-3.44-2.734-5.877-5.195-8.085-.466-.418-1.74-.35-2.452-.062-2.003.807-3.896 1.871-5.855 2.785-1.033.484-2.233.701-3.15 1.327-1.993 1.359-3.77 3.03-5.794 4.338-2.154 1.392-3.211 3.18-3.193 5.695.242 1.246.386 2.52.744 3.733.645 2.194 1.91 2.898 3.857 1.75 2.954-1.742 5.703-1.674 8.585-.048.558.315 1.197.506 1.816.7 3 .94 5.643.603 7.95-1.763 1.282-1.314 2.817-2.43 4.37-3.446 2.132-1.397 2.218-2.365.34-4.11" fill="#FFF"/><path d="M357.332 448.202c2.9-4.545 2.773-9.462 2.583-14.413-.093-2.395-1.26-3.023-3.805-2.717-2.88.345-5.788.481-8.676.77-.752.074-1.859.16-2.148.613-1.257 1.968-3.282 2.332-5.367 2.799-3.655.817-7.281 1.75-10.919 2.634l.014.696c2.323.711 4.655 1.4 6.965 2.144.59.19 1.549.496 1.6.846.479 3.225 3.494 3.036 5.675 4.174.455-.694.789-1.202 1.154-1.755 1.196.764 2.362 1.337 3.293 2.15.992.87 1.725 1.997 2.636 2.958 2.724 2.867 4.874 2.425 6.995-.9" fill="#28AC01"/><path d="M127.837 130.765c1.313.523 2.43.179 2.921-1.092.847-2.186 1.505-4.44 2.242-6.665a38.476 38.476 0 0 0-.439-.157c-.063-.862.007-1.759-.218-2.577-.39-1.417-.556-3.232-2.6-3.273-1.912-.038-3.057 1.245-3.765 2.864-.226.518-.206 1.134-.383 1.676-.376 1.161-.549 2.497-1.265 3.419-2.605 3.35-.994 3.505 1.496 4.917.633.36 1.33.617 2.01.888m-27.38-27.226c-.434-.36-1.277-.665-1.714-.486-.41.169-.808 1.05-.733 1.549.28 1.856.315 3.946 1.253 5.468 1.612 2.615 3.77 4.924 5.824 7.255 1.173 1.33 2.594 2.45 3.914 3.675-.29-2.698-.602-5.094-.782-7.5-.094-1.26-.714-1.78-1.91-1.762-2.004.03-2.912-.962-2.84-2.868.09-2.374-1.343-3.942-3.012-5.331M43 141.176l.194.87L47.279 144c.553-1.508 1.364-2.97 1.591-4.532.3-2.06.152-4.199-1.2-6.468-1.44 3.165-.11 7.505-4.67 8.176M844.796 386c3.325-2.609 4.37-6.39 6.204-10-5.531 1.072-8.535 5.873-6.204 10m-572.591-31.484c-.938 1.492 1.514 5.439 3.824 5.484.163-.187 1.06-.927.964-1.143-.716-1.64-1.513-3.282-2.558-4.675-.27-.36-1.925-.153-2.23.334M123 242.074l-.856-.074L117 252.668c2.995-.458 3.307.84 3.578 2.519.212 1.312 1.047 2.544 1.605 3.813l.664-.351c-2.758-5.464-4.034-10.96.153-16.575M79.646 41.755c1.386-.733 2.922-1.659 2.144-4.128l-.818 1.664c-.598-.482-1.027-.897-1.521-1.211-1.134-.72-2.299-1.39-3.451-2.08.269 1.421.392 2.892.851 4.248.412 1.216 1.41 2.238 2.795 1.507M167 254c-.831-4.413-2.4-6.285-5-5.965 1.064 3.436 2.822 5.534 5 5.965m112.679 109.163c-.704.58-1.205 1.42.309 1.768 1.683.388 4.178-.905 5.012-2.655-2.108-.541-3.87-.308-5.321.887M153.883 216c-2.423 1.077-3.917 3.456-3.882 6 2.906-1.436 4.452-3.73 3.882-6M714 443l-7 3.436.294.564c2.8-.249 5.02-1.613 6.706-4M187 277.62l-3-4.62c.051 1.953.208 3.857 2.136 5l.864-.38zm43-21.283l3.355 6.663.645-.344-3.55-6.656-.45.337m-57 12.124L170.607 264l-.607.394 2.182 4.606.818-.539zm-48-7.845l3.545 2.384.455-.769-3.636-2.231-.364.616m5 4.856l2.434 2.528.566-.444-2.4-2.556-.6.472m358.594 175.925c.48.433 1.2.392 1.845.392a9.475 9.475 0 0 1 4.13.947c.226.11.454.231.703.258.249.03.53-.059.653-.278.094-.167.08-.372.062-.563-.083-.911-.165-1.821-.249-2.73 0-2.985-1.451-5.666-2.674-8.29-.206-.443-.46-.928-.92-1.085-.49-.168-1.041.125-1.34.55-.253.358-.275.766-.453 1.15-.118.254-.32.445-.484.673-.502.7-.992 1.466-1.32 2.264-.646 1.563-.577 3.317-.496 5.006.028.613.089 1.295.543 1.706" fill="#FFF"/><rect fill="#FFFDB8" x="116" y="440" width="178" height="40" rx="6"/><rect fill="#FFFDB8" x="133" y="503" width="232" height="40" rx="6"/><text font-family="Raleway-Medium, Raleway" font-size="18" font-weight="400" fill="#4E4F51"><tspan x="153.772" y="530">Apatzingn, Michoacn</tspan></text><text font-family="Raleway-Medium, Raleway" font-size="18" font-weight="400" fill="#4E4F51"><tspan x="133.118" y="467">Tecomn, Colima</tspan></text><circle fill="#FFF" cx="386" cy="402" r="7"/><circle fill="#FFF" cx="346" cy="452" r="7"/><circle fill="#FFF" cx="396" cy="453" r="7"/><circle fill="#FFF" cx="556" cy="419" r="7"/><path stroke="#FFF" stroke-width="3" d="M235 393h47v9h104m171 17.001h41.485V323M292 461h21v-9h33m50.014 0v71H363"/><rect fill="#FFFDB8" y="373" width="237" height="40" rx="6"/><text font-family="Raleway-Medium, Raleway" font-size="18" font-weight="400" fill="#4E4F51"><tspan x="13.444" y="400">Atotonilco el Alto, Jalisco</tspan></text><rect fill="#FFFDB8" x="559" y="286" width="280" height="40" rx="6"/><text font-family="Raleway-Medium, Raleway" font-size="18" font-weight="400" fill="#4E4F51"><tspan x="575" y="313">Martnez de la Torre, Veracruz</tspan></text></g></svg>