<svg width="1280" height="740" viewBox="0 0 1280 740" xmlns="http://www.w3.org/2000/svg"><title>WE PLANT</title><g fill="#D48D4D" fill-rule="evenodd"><path d="M0 0h1280v740H0V0zm143.18 292.34l26.18 71.06L150 413.34 105.56 291.9H73l63.14 156.2h25.52l27.06-65.56 27.06 65.56h25.52l63.58-156.2h-33l-44.22 121.44-19.8-49.94 26.62-71.06h-28.16l-17.6 51.7-17.6-51.7h-27.94zM429.4 421.48h-78.1v-40.7h65.78v-24.64H351.3v-37.62h76.12V291.9H320.94v156.2H429.4v-26.62zm76.56 26.62h30.36v-52.36h36.96c7.187 0 13.787-1.467 19.8-4.4 6.013-2.933 11.147-6.82 15.4-11.66s7.553-10.377 9.9-16.61c2.347-6.233 3.52-12.65 3.52-19.25 0-6.307-1.247-12.577-3.74-18.81-2.493-6.233-5.94-11.807-10.34-16.72-4.4-4.913-9.643-8.873-15.73-11.88-6.087-3.007-12.723-4.51-19.91-4.51h-66.22v156.2zm137.06 0h110v-26.62h-79.64V291.9h-30.36v156.2zm172.92-156.2l-59.62 156.2h31.24l14.3-38.94h54.56l14.52 38.94h31.24l-59.4-156.2h-26.84zM949.7 348l80.3 100.1h24.64V292.12h-30.36v102.3l-81.4-102.52h-23.54v156.2h30.36V348zm254.32-29.48V291.9H1074v26.62h49.94V448.1h30.14V318.52h49.94z"/><path d="M536.32 369.12h35.2c5.573 0 10.23-2.273 13.97-6.82 3.74-4.547 5.61-10.707 5.61-18.48 0-3.96-.587-7.517-1.76-10.67-1.173-3.153-2.713-5.83-4.62-8.03-1.907-2.2-4.143-3.85-6.71-4.95s-5.17-1.65-7.81-1.65h-33.88v50.6zm314.6 18.7l-21.56-61.38-22.44 61.38z"/></g></svg>