<svg width="22" height="18" viewBox="0 0 22 18" xmlns="http://www.w3.org/2000/svg"><title>Twitter white</title><path d="M22 2.117c-.81.359-1.68.6-2.592.71A4.52 4.52 0 0 0 21.392.33a9.042 9.042 0 0 1-2.866 1.095A4.506 4.506 0 0 0 15.23 0c-2.914 0-5.055 2.719-4.397 5.541A12.813 12.813 0 0 1 1.532.826a4.52 4.52 0 0 0 1.396 6.026 4.494 4.494 0 0 1-2.043-.565c-.05 2.091 1.449 4.048 3.62 4.483a4.524 4.524 0 0 1-2.04.077 4.517 4.517 0 0 0 4.218 3.134A9.075 9.075 0 0 1 0 15.851a12.778 12.778 0 0 0 6.919 2.028c8.38 0 13.115-7.078 12.829-13.426A9.19 9.19 0 0 0 22 2.117z" fill="#FFF" fill-rule="evenodd"/></svg>