<?xml version="1.0" encoding="UTF-8" standalone="no"?>
<svg width="197px" height="120px" viewBox="0 0 197 120" version="1.1" xmlns="http://www.w3.org/2000/svg" xmlns:xlink="http://www.w3.org/1999/xlink">
    <!-- Generator: Sketch 46 (44423) - http://www.bohemiancoding.com/sketch -->
    <title>Caja exhibidora</title>
    <desc>Created with Sketch.</desc>
    <defs>
        <polygon id="path-1" points="163.094338 104.321035 163.094338 0.193518284 0.0352454541 0.193518284 0.0352454541 104.321035"></polygon>
    </defs>
    <g id="7-Productos" stroke="none" stroke-width="1" fill="none" fill-rule="evenodd">
        <g id="7.1-Limon-mexicano" transform="translate(-233.000000, -1768.000000)">
            <g id="Group-6" transform="translate(194.000000, 1715.000000)">
                <g id="Caja-exhibidora" transform="translate(39.000000, 53.000000)">
                    <polygon id="Fill-1" fill="#EAE406" points="37.883423 51.397299 35.568229 51.6334642 36.6215264 51.5258826 33.505629 51.8436983 29.0806213 52.2948124 28.4352942 49.4910475 18.0628477 50.3598438 17.9396626 53.4308483 16.9421634 53.5324293 1.97602703 55.0585021 14.9083209 53.7398775 0.536649419 55.2053016 10.3893147 118.639224 25.9346788 117.300454 26.1003563 114.986593 36.4940491 114.366391 36.6547907 116.377438 43.2022741 115.813599"></polygon>
                    <polygon id="Fill-2" fill="#446B18" points="160.491805 44.1664155 160.491805 44.1667312 163.340301 43.8604155"></polygon>
                    <g id="Group-34" transform="translate(0.000000, 0.020788)">
                        <path d="M37.4027434,46.2679072 L24.2979045,42.4266871 L24.1395236,13.3318668 L33.828872,9.80589077 L33.8954005,8.99217103 L27.5573748,9.51379174 L27.5573748,9.51379174 L27.3337529,7.46524105 L19.6570008,7.98729037 L19.5421854,10.1734255 L6.91184536,11.2128094 L5.91906755,18.0600992 C5.91906755,18.0600992 9.6869448,17.657204 9.21781114,18.8050267 C8.74867748,19.9528495 5.54543456,20.6369141 5.54543456,20.6369141 L2.87978534,39.0222226 C2.87978534,39.0222226 7.52905872,38.5509638 7.05992506,39.9563823 C6.5907914,41.3618008 2.42116749,42.1858072 2.42116749,42.1858072 L0.536692341,55.1843211 L14.9083638,53.7191112 L17.9394909,53.410082 L18.0628906,50.3390776 L28.4353371,49.4702812 L29.0804496,52.2740461 L35.5680573,51.6124836 L37.8834659,51.3765327 L37.4027434,46.2679072 Z" id="Fill-3" fill="#F9F44E"></path>
                        <path d="M172.068118,39.5103687 L181.10377,38.9163126 L181.210645,41.8585192 L195.822034,40.5617538 L183.252643,29.2738301 C183.252643,29.2738301 180.137818,29.6207915 179.060699,28.445109 C177.983581,27.2694265 180.521753,26.8213127 180.521753,26.8213127 L162.840822,10.9429553 C162.840822,10.9429553 159.378761,11.2408406 158.882372,10.1553809 C158.385983,9.07013554 160.913425,9.21200609 160.913425,9.21200609 L153.729843,2.7607537 L142.906289,3.27873121 L142.733315,1.34226253 L135.891604,1.50920688 L135.468182,3.63447911 L129.80424,3.90536184 L142.837615,7.70736392 L167.674873,33.1846997 L161.52699,39.0170364 L163.37863,43.4373112 L171.644696,42.6585233 L172.068118,39.5103687 Z" id="Fill-5" fill="#F9F44E"></path>
                        <polygon id="Fill-7" fill="#446B18" points="163.340387 43.8395849 157.653912 103.785249 163.378587 43.4373326"></polygon>
                        <polygon id="Fill-9" fill="#EAE406" points="181.210602 41.858412 181.103727 38.9162055 172.068076 39.5102616 171.644653 42.6586305 163.378587 43.437204 157.653912 103.78512 163.378587 103.053051 163.789991 100.656682 172.858692 99.6610162 173.01042 101.821435 185.578739 100.213926 195.821991 40.5618609"></polygon>
                        <path d="M167.674787,33.1847854 L142.837529,7.70723534 L129.804155,3.90544757 L129.804155,5.128706 L127.27843,5.28879255 L126.096368,0.729004592 L113.070719,1.35413508 L111.738431,6.27352845 L53.574227,9.95894809 L51.7961976,4.73309719 L37.9086823,5.39315956 L37.2627115,10.9923314 L34.1910234,11.1871356 L33.8287647,9.80593363 L24.1394163,13.3316953 L24.2977972,42.42673 L37.4028507,46.2679501 L38.0159865,52.981513 L41.3063603,52.7414903 L42.6845746,45.5217367 L61.3831778,44.2834769 L62.9446675,51.1631269 L65.4731821,62.3025365 C65.4731821,62.3025365 70.9431175,61.8111329 71.730086,65.9058769 C72.4138279,69.5272191 67.6066028,71.7011388 67.6066028,71.7011388 L69.6973165,80.912652 L133.473527,75.9311099 L135.850957,66.179117 C135.850957,66.179117 132.39512,65.6431378 132.39233,62.045155 C132.44169,58.1344998 138.104558,56.9356723 138.104558,56.9356723 L140.898329,45.4765182 L142.570342,38.6180844 L159.883863,37.4458308 L160.491848,44.0473117 L163.340344,43.8394349 L163.378544,43.4371826 L161.526904,39.0169078 L167.674787,33.1847854 Z" id="Fill-11" fill="#CCBA15"></path>
                        <path d="M159.883756,37.4458951 L142.570234,38.6181487 L140.898221,45.4765824 L138.104666,56.9355223 C138.104666,56.9355223 132.441583,58.1345641 132.392223,62.0452193 C132.395013,65.6432021 135.851064,66.1791813 135.851064,66.1791813 L133.473419,75.9311741 L69.6974238,80.9127162 L67.6064955,71.7012031 C67.6064955,71.7012031 72.4137206,69.5270691 71.7299787,65.9059412 C70.9430102,61.8111972 65.4730748,62.3026008 65.4730748,62.3026008 L62.9447749,51.1629768 L61.3830705,44.2833268 L42.6844673,45.521801 L41.3064676,52.7415546 L38.0158792,52.9815772 L43.0568126,114.033274 L46.7045093,113.634022 L48.0464547,110.650455 L64.5867427,108.930006 L66.4167073,111.63069 L135.198655,104.640029 L137.271986,101.573954 L152.4993,100.213968 L153.731366,102.756494 L157.78875,102.3626 L163.340237,43.8394992 L160.491956,44.047376 L159.883756,37.4458951 Z" id="Fill-13" fill="#E2D100"></path>
                        <path d="M1.97540467,55.5734793 C1.703496,55.5734793 1.47043143,55.3679599 1.44231774,55.0921481 C1.41227259,54.7976917 1.62666624,54.5347383 1.92153799,54.5047354 L17.4222635,52.924229 L17.5267777,50.3176256 C17.5377228,50.0476 17.7484681,49.8277221 18.0180161,49.80522 L28.3904626,48.9364236 C28.655933,48.9137072 28.8984403,49.0905096 28.958316,49.3502484 L29.497412,51.6930412 L36.5672519,50.972116 C36.8621237,50.9431847 37.1252334,51.1564191 37.1554932,51.4506612 C37.1855383,51.7451176 36.9709301,52.008071 36.6760583,52.0380738 L29.1351532,52.8070036 C28.8666783,52.8337919 28.6183765,52.657418 28.5576424,52.394036 L28.016615,50.0428853 L18.5800751,50.83346 L18.4757755,53.4314912 C18.4650451,53.6978735 18.259665,53.916037 17.9941945,53.9430395 L2.03055899,55.5706933 C2.01210268,55.5726221 1.99364637,55.5734793 1.97540467,55.5734793" id="Fill-15" fill="#93820A"></path>
                        <path d="M0.537271783,55.7202789 C0.5117334,55.7202789 0.4857658,55.7183501 0.459798201,55.7147069 C0.166428707,55.6722743 -0.0368053169,55.4005344 0.00568711894,55.1075781 L1.89016227,42.1090643 C1.92278272,41.8842573 2.09382551,41.7044546 2.31680349,41.6603076 C3.8731426,41.3519213 6.29177771,40.5448451 6.54973684,39.7900595 C6.24778302,39.5026752 4.56074747,39.3903788 2.93401685,39.5551801 C2.76984153,39.5714674 2.60673925,39.5118903 2.49256766,39.3927362 C2.37818145,39.2735821 2.32517321,39.1085665 2.34899473,38.9452654 L5.01464395,20.5601711 C5.04662058,20.3383645 5.21380041,20.1600619 5.43313006,20.1131289 C6.55917961,19.8718204 8.30501782,19.2644773 8.67714854,18.6858512 C8.29450201,18.5199784 7.094198,18.4730454 5.97630357,18.5926281 C5.81148442,18.6097726 5.64773832,18.5510527 5.53270829,18.4316843 C5.41767826,18.3125302 5.36424081,18.147086 5.38806232,17.9831419 L6.38084014,11.1360664 C6.41667972,10.8889717 6.6186261,10.6993109 6.86778629,10.6789518 L33.8513415,8.45809914 C34.0080055,8.44545509 34.1631673,8.50181756 34.274549,8.61304235 C34.3861453,8.72426715 34.4430164,8.87878174 34.43014,9.03565371 L34.3636114,9.84958775 C34.3466573,10.0581075 34.2095227,10.2376959 34.0125123,10.3094883 L24.6781259,13.7060235 L24.8322147,42.024842 L37.5539778,45.7537658 C37.7647231,45.8157002 37.9164512,45.9993604 37.9370536,46.2177382 L38.4175615,51.3263637 C38.4452459,51.6210344 38.2287062,51.8822734 37.9336198,51.9099189 C37.6383189,51.9379929 37.376926,51.7213296 37.3492415,51.4266589 L36.9026417,46.6795675 L24.1467559,42.9407857 C23.9192711,42.8741366 23.7626071,42.6662598 23.7613194,42.4294517 L23.6029385,13.3346313 C23.6016509,13.1085385 23.7428631,12.9058051 23.9557545,12.8282263 L32.7656383,9.62263774 L7.38155847,11.7116923 L6.54694694,17.4692362 C7.68758985,17.3989439 9.13705405,17.450163 9.61520125,18.0849373 C9.81435772,18.3493908 9.84976808,18.6768503 9.71456488,19.0073101 C9.2424267,20.1626336 7.00749627,20.8327683 6.0239466,21.0760056 L3.50745013,38.4328598 C4.80411324,38.3499234 6.7849475,38.365782 7.4083845,39.1434984 C7.63071866,39.4208103 7.68780446,39.7697004 7.56891148,40.1256626 C7.09119349,41.5565835 4.10298805,42.3623739 2.89860649,42.6323994 L1.0675688,55.2612355 C1.02893931,55.5280464 0.799523079,55.7202789 0.537271783,55.7202789" id="Fill-17" fill="#93820A"></path>
                        <path d="M10.3888211,119.154115 C10.1267844,119.154115 9.8999435,118.963383 9.85916793,118.700429 L0.00650263033,55.2665074 C-0.0389943212,54.9739798 0.161449795,54.7003111 0.454390073,54.6548782 C0.74733035,54.6105169 1.0213851,54.8100357 1.06666744,55.1023491 L10.8427176,118.041653 L25.4322164,116.785177 L25.5652736,114.927573 C25.5845883,114.659262 25.7996258,114.446885 26.0685299,114.430812 L36.4620081,113.81061 C36.7547337,113.79218 37.0056108,114.012058 37.0287885,114.302871 L37.1466084,115.776439 L42.6236259,115.304966 L37.3487694,51.4205726 C37.324304,51.1256876 37.5440629,50.866806 37.8393639,50.8425894 C38.1348795,50.8192301 38.3939116,51.0376079 38.4181624,51.3324929 L43.7367989,115.748793 C43.7612642,116.042821 43.542793,116.301274 43.2483505,116.326562 L36.700867,116.890401 C36.5583672,116.903045 36.4169403,116.857827 36.3079193,116.765461 C36.1988983,116.673309 36.1312967,116.541511 36.1199225,116.399212 L36.0010295,114.911714 L26.6020461,115.472553 L26.4698474,117.317942 C26.4509619,117.580681 26.2436503,117.790915 25.9807552,117.813417 L10.4353911,119.152186 C10.4197247,119.153472 10.4042729,119.154115 10.3888211,119.154115" id="Fill-19" fill="#93820A"></path>
                        <path d="M43.0539798,114.540772 C42.7820711,114.540772 42.5490066,114.335253 42.5208929,114.059227 C42.4908477,113.76477 42.705456,113.502031 43.0003277,113.472028 L46.3422076,113.132353 L47.557105,110.431027 C47.6356516,110.256796 47.8008999,110.137427 47.9910429,110.117711 L64.5313308,108.397263 C64.7274828,108.376047 64.920201,108.465841 65.0311535,108.629785 L66.681491,111.065158 L134.894512,104.132574 L136.827489,101.274161 C136.917839,101.140435 137.063558,101.054712 137.2243,101.040139 L152.451614,99.680368 C152.673948,99.6608662 152.885123,99.7802346 152.98234,99.9806107 L154.05066,102.185605 L157.238881,101.86136 C157.533538,101.830714 157.796862,102.045877 157.826907,102.340119 C157.856953,102.634576 157.64213,102.897529 157.347473,102.927532 L153.785619,103.289709 C153.561568,103.310711 153.346745,103.192628 153.248455,102.989895 L152.177774,100.780615 L137.573897,102.084881 L135.643281,104.939865 C135.554433,105.071663 135.411289,105.156957 135.253123,105.173244 L66.4709603,112.16369 C66.2745937,112.182764 66.0829485,112.094041 65.9724253,111.930954 L64.3227316,109.49601 L48.409529,111.151523 L47.1939878,113.853493 C47.1154412,114.028152 46.949549,114.147735 46.7589768,114.167022 L43.1089195,114.537986 C43.0904632,114.539915 43.0720069,114.540772 43.0539798,114.540772" id="Fill-21" fill="#93820A"></path>
                        <path d="M69.6970375,81.4485026 C69.4485211,81.4485026 69.2298353,81.2768435 69.1742518,81.0312489 L67.0833235,71.8195214 C67.0270961,71.5715694 67.1530712,71.3180454 67.3852773,71.2130355 C67.4288428,71.1931051 71.7997693,69.1661993 71.2027291,66.0051863 C70.5155534,62.4294913 65.5714083,62.8319579 65.52119,62.8360297 C65.2533588,62.8611035 65.0093493,62.682801 64.9499028,62.4209191 L60.9611936,44.8482588 L43.1338999,46.0290846 L41.8335885,52.8418712 C41.7880915,53.0801794 41.587862,53.2582677 41.3455693,53.2758408 L38.0549808,53.5158634 C37.7586068,53.5409372 37.5025791,53.3157017 37.4809037,53.0206024 C37.4592283,52.7255031 37.6813478,52.4687645 37.9768634,52.4473339 L40.856477,52.2370998 L42.1576469,45.4215272 C42.2033585,45.1817189 42.4053049,45.003202 42.6490999,44.9871291 L61.3474885,43.7486549 C61.611242,43.7312961 61.8479549,43.9078842 61.9063284,44.1648371 L65.8961106,61.7422121 C68.0503483,61.6839209 71.6117724,62.4479216 72.2568849,65.8048102 C72.5736467,67.4817544 71.8905486,69.1256954 70.2822742,70.5609025 C69.5026024,71.2565396 68.6898809,71.7402282 68.2224641,71.9907518 L70.1180989,80.3424695 L133.044246,75.4273623 L135.201917,66.576526 C133.806964,66.1507001 131.857891,64.8462197 131.855745,62.0456694 C131.878494,60.2362841 132.96806,58.6859948 135.006409,57.5555308 C136.079021,56.9606175 137.138113,56.6329437 137.660255,56.4934305 L142.048994,38.491301 C142.104363,38.264351 142.300729,38.0993354 142.534009,38.0834768 L159.84753,36.9114375 C160.138324,36.891507 160.391347,37.1073131 160.418173,37.3968405 L160.977872,43.4747719 L163.339421,43.3024699 C163.635151,43.2799678 163.892037,43.502846 163.913713,43.797731 C163.935174,44.0928303 163.713269,44.3495688 163.417753,44.3709994 L160.531057,44.5816622 C160.240478,44.6043786 159.98445,44.3870724 159.957624,44.0964735 L159.397496,38.0157561 L142.998635,39.1260753 L138.625777,57.0621985 C138.577061,57.2625746 138.417607,57.4168749 138.215876,57.4597361 C138.16394,57.47088 132.972137,58.618917 132.928787,62.0520985 C132.931147,65.1273891 135.812478,65.6301509 135.935019,65.6500813 C136.08267,65.6740836 136.214654,65.7587345 136.297278,65.8830319 C136.379902,66.0075437 136.407586,66.1609868 136.372176,66.3060719 L133.994746,76.0578504 C133.940021,76.2828717 133.746444,76.4472443 133.515311,76.465246 L69.7393153,81.4467881 C69.7251512,81.448074 69.7109871,81.4485026 69.6970375,81.4485026" id="Fill-23" fill="#93820A"></path>
                        <g id="Group-27" transform="translate(33.264281, 0.000000)">
                            <mask id="mask-2" fill="white">
                                <use xlink:href="#path-1"></use>
                            </mask>
                            <g id="Clip-26"></g>
                            <path d="M128.900418,39.1510205 L130.609343,43.2303345 C130.643251,43.3117708 130.656772,43.4000648 130.648402,43.487716 L124.987036,103.168712 L129.65262,102.572084 L129.996851,100.56618 C130.037412,100.330658 130.229058,100.150212 130.467058,100.124067 L139.535759,99.1286159 C139.681049,99.1129716 139.826124,99.1564757 139.93815,99.2499131 C140.050175,99.3431362 140.119279,99.4781489 140.12958,99.6236627 L140.241606,101.217885 L151.852771,99.7329587 L161.979062,40.762387 L149.804121,29.8287111 C148.97187,29.8945031 146.475332,29.9800111 145.400574,28.806686 C144.932728,28.2962092 144.951399,27.8455238 145.04926,27.5574966 C145.212148,27.0785227 145.700382,26.768422 146.178958,26.5734036 L129.388437,11.4944074 C128.290716,11.5681287 125.69138,11.6052036 125.129965,10.3780877 C124.904627,9.88539828 125.066441,9.52643579 125.182759,9.35627686 C125.416038,9.01531607 125.863282,8.83765643 126.330913,8.74850515 L120.27102,3.30641954 L99.7634833,4.28751224 L109.723882,7.19285817 C109.81273,7.2190035 109.893208,7.26743664 109.957805,7.33365719 L134.795063,32.8109929 C134.89507,32.9136455 134.949795,33.0520871 134.947006,33.1952435 C134.944216,33.3383999 134.884125,33.4744842 134.78004,33.5732792 L128.900418,39.1510205 Z M124.389567,104.321035 C124.251359,104.321035 124.117229,104.267459 124.016578,104.170164 C123.899401,104.05701 123.84017,103.896709 123.855407,103.734694 L129.56742,43.5200762 L127.767715,39.2236702 C127.681872,39.0185794 127.731661,38.7817713 127.893261,38.6285426 L133.647338,33.1699554 L109.287369,8.18209449 L97.0763733,4.62011509 L97.0763733,5.12887744 C97.0763733,5.41154701 96.8563998,5.64556912 96.5739753,5.66357082 L94.0480361,5.82344307 C93.7920084,5.83973032 93.5591584,5.67171445 93.494776,5.42311953 L92.4221639,1.28530001 L80.222328,1.87056959 L78.9921935,6.41342738 C78.9323178,6.63480544 78.7376681,6.79360616 78.5082518,6.80817897 L20.3438331,10.4935986 C20.101755,10.5088143 19.87985,10.3605146 19.8019472,10.1312072 L18.1539704,5.28746386 L5.12531743,5.90680809 L4.53149637,11.0537944 C4.50166582,11.3113902 4.29156433,11.5106947 4.03231755,11.5271963 L0.960844109,11.7217861 C0.700738896,11.7393592 0.466386674,11.565557 0.40522332,11.3124617 L0.0502612549,9.84189417 C-0.0190572136,9.55429557 0.158209211,9.26476821 0.446213498,9.19554739 C0.734217785,9.12589795 1.02415355,9.30334329 1.09347202,9.59072758 L1.34284682,10.6238966 L3.51682851,10.4860979 L4.111508,5.33182519 C4.14155316,5.07122914 4.35637603,4.87063876 4.61905654,4.85799471 L18.5063572,4.19793234 C18.7443577,4.18593121 18.9630435,4.33465955 19.0398733,4.56075234 L20.6857041,9.39828083 L78.0567161,5.76322309 L79.2885675,1.21436474 C79.3493016,0.989986393 79.5482435,0.830328451 79.7806642,0.818970235 L92.8065273,0.194054049 C93.0612673,0.182267221 93.2878936,0.349211566 93.3516323,0.594806199 L94.4225275,4.72619654 L96.0033319,4.62590135 L96.0033319,3.90711915 C96.0029027,3.77146348 96.0533357,3.6463088 96.1376767,3.55094264 L96.1378913,3.55072834 C96.1381059,3.55029973 96.1385351,3.54987111 96.1387498,3.54965681 C96.139179,3.5494425 96.1393936,3.54879958 96.1400374,3.54837097 C96.140252,3.54794236 96.1406812,3.54751375 96.1411104,3.54708514 L96.1415397,3.54644222 C96.1419689,3.54601361 96.1421835,3.5457993 96.1426127,3.54537069 C96.1428273,3.54515638 96.1430419,3.54494208 96.1432565,3.54472777 C96.1434711,3.54451346 96.1436857,3.54429916 96.1439004,3.54387055 C96.1445442,3.54344194 96.1449734,3.54279902 96.145188,3.54258471 C96.1454026,3.54237041 96.1456172,3.5421561 96.1458318,3.54194179 C96.1460464,3.54172749 96.146261,3.54129888 96.1464757,3.54108457 C96.1466903,3.54087026 96.1469049,3.54087026 96.1469049,3.54065596 C96.2389718,3.44186091 96.3683806,3.37714051 96.5143142,3.37028272 L120.439916,2.22567457 C120.580699,2.21838817 120.719336,2.26810715 120.82428,2.36240178 L128.008077,8.81365416 C128.177403,8.96559709 128.232128,9.20797713 128.144567,9.41778267 C128.057222,9.62780251 127.84755,9.75960068 127.619206,9.74695663 C127.009075,9.71309629 126.316749,9.80203326 126.106218,9.93318851 C126.284128,10.3202251 127.916224,10.5471751 129.530722,10.4089477 C129.678158,10.3954465 129.825165,10.4453798 129.935259,10.5443891 L147.61619,26.4227465 C147.768776,26.5599023 147.829725,26.7716366 147.773283,26.9685838 C147.716841,27.1655309 147.55288,27.3131878 147.350934,27.3487625 C146.725136,27.4608446 146.122087,27.7458715 146.065645,27.901029 L146.065645,27.901029 C146.06822,27.901029 146.083243,27.9644636 146.192264,28.0834034 C146.921074,28.8791214 149.190985,28.8234019 149.929023,28.7413227 C150.080966,28.7239639 150.233337,28.7732543 150.34708,28.8754782 L162.916471,40.1634019 C163.053606,40.2864135 163.117774,40.4709309 163.086655,40.6522338 L152.843403,100.304513 C152.803486,100.536606 152.616562,100.715552 152.382639,100.745554 L139.814321,102.352849 C139.667743,102.371065 139.520093,102.329061 139.405921,102.235624 C139.29175,102.142186 139.221144,102.005888 139.210842,101.85866 L139.098173,100.254579 L130.986195,101.145021 L130.643251,103.143638 C130.603334,103.375731 130.416411,103.554463 130.182488,103.584465 L124.457812,104.316749 C124.435064,104.319535 124.412315,104.321035 124.389567,104.321035 L124.389567,104.321035 Z" id="Fill-25" fill="#93820A" mask="url(#mask-2)"></path>
                        </g>
                        <path d="M135.468761,4.17039403 C135.433995,4.17039403 135.398799,4.16696513 135.363603,4.16010734 C135.072809,4.10224473 134.884168,3.82021809 134.941898,3.53004781 L135.365535,1.40456128 C135.414465,1.15875234 135.627571,0.979592554 135.878663,0.973591987 L142.72016,0.806647642 C143.005589,0.791217613 143.242516,1.01323859 143.267625,1.29462232 L143.440814,3.23109099 C143.467211,3.52576169 143.249169,3.78592913 142.954083,3.81228877 C142.659211,3.83843409 142.398247,3.62091354 142.372065,3.32624284 L142.243729,1.89017859 L136.334062,2.0341922 L135.994337,3.73899613 C135.943689,3.99402022 135.719424,4.17039403 135.468761,4.17039403" id="Fill-28" fill="#93820A"></path>
                        <path d="M19.5426361,10.7091261 C19.5331933,10.7091261 19.5235359,10.7089118 19.5140932,10.7084832 C19.2181484,10.6928389 18.9908782,10.440815 19.00633,10.1452871 L19.1211454,7.959152 C19.1355242,7.68848357 19.3499179,7.47117732 19.6205389,7.45274701 L27.297291,6.93069768 C27.5848661,6.91141015 27.8359577,7.12142999 27.8670759,7.40709984 L28.0906977,9.45565053 C28.122889,9.74967831 27.9099976,10.0141319 27.6155551,10.0462778 C27.3215417,10.0775664 27.0560713,9.86583215 27.0238801,9.57180437 L26.856271,8.034802 L20.1677899,8.48955926 L20.0778691,10.2014353 C20.0628465,10.4873194 19.8261336,10.7091261 19.5426361,10.7091261" id="Fill-30" fill="#93820A"></path>
                        <path d="M164.854534,43.8334129 C164.55816,43.8334129 164.318013,43.5936045 164.318013,43.297648 C164.318013,43.0098351 164.545283,42.7751701 164.830283,42.7623117 C165.00433,42.7518107 168.810837,42.4839283 171.148994,42.3189127 L171.536362,39.4390691 C171.57027,39.1861881 171.778011,38.9924555 172.032751,38.9757397 L181.068403,38.3816835 C181.214122,38.3731113 181.355763,38.4215444 181.463282,38.518625 C181.571015,38.6157056 181.634754,38.7522185 181.639904,38.8968751 L181.736264,41.569699 L194.228611,40.6839725 C194.522195,40.6621133 194.780798,40.8852058 194.801829,41.1803051 C194.822861,41.4756187 194.600312,41.7317143 194.304582,41.7527163 L181.258116,42.6778752 C181.113256,42.6885905 180.969898,42.6390858 180.86152,42.5420052 C180.753358,42.4449246 180.68919,42.3079831 180.684039,42.1626836 L180.587466,39.4870737 L172.541373,40.0161951 L172.154219,42.8941099 C172.120311,43.1459194 171.914073,43.3392234 171.660406,43.3570108 C164.907971,43.8334129 164.879643,43.8334129 164.854534,43.8334129" id="Fill-32" fill="#93820A"></path>
                    </g>
                </g>
            </g>
        </g>
    </g>
</svg>