<?xml version="1.0" encoding="UTF-8" standalone="no"?>
<svg width="206px" height="135px" viewBox="0 0 206 135" version="1.1" xmlns="http://www.w3.org/2000/svg" xmlns:xlink="http://www.w3.org/1999/xlink">
    <!-- Generator: Sketch 46 (44423) - http://www.bohemiancoding.com/sketch -->
    <title>Caja 5 kilos</title>
    <desc>Created with Sketch.</desc>
    <defs>
        <polygon id="path-1" points="170.07443 78.8195298 170.07443 0.157409523 0.159753658 0.157409523 0.159753658 78.8195298"></polygon>
    </defs>
    <g id="7-Productos" stroke="none" stroke-width="1" fill="none" fill-rule="evenodd">
        <g id="7.1-Limon-mexicano" transform="translate(-846.000000, -1770.000000)">
            <g id="Group-73" transform="translate(812.000000, 1715.000000)">
                <g id="Group-10">
                    <g id="Caja-5-kilos" transform="translate(34.000000, 55.000000)">
                        <polygon id="Fill-1" fill="#CCBA15" points="43.7290615 129.437352 48.980373 133.525062 194.162553 103.882788 194.162553 96.2558121"></polygon>
                        <polygon id="Fill-2" fill="#EAE406" points="0.879189331 18.2439314 3.0936438 56.6857973 40.7088256 130.528224 36.1646123 83.1121101"></polygon>
                        <polygon id="Fill-3" fill="#F9F44E" points="137.524088 1.17735847 0.879265692 18.2439059 36.1646886 83.1120846 204.297526 53.6510957"></polygon>
                        <polygon id="Fill-4" fill="#E2D100" points="204.297653 53.6510447 200.045137 98.9735836 40.7087747 130.528147 36.1648159 83.1120336"></polygon>
                        <polygon id="Fill-5" fill="#CCBA15" points="5.62909235 26.9760833 11.3059864 25.3993367 16.9197557 35.8172356 11.274424 37.3542065"></polygon>
                        <g id="Group-56" transform="translate(0.000000, 0.047170)">
                            <path d="M31.6334312,21.6230747 C31.6334312,21.6230747 31.6334312,19.1959967 38.0744393,18.6633603 C44.5154474,18.1307239 46.2880291,20.3209329 46.0518206,21.0904383 C45.8153576,21.8599436 43.3926935,23.3986993 39.4336561,23.4581078 C35.4743643,23.5172613 31.9289463,22.8069094 31.6334312,21.6230747" id="Fill-6" fill="#CCBA15"></path>
                            <path d="M111.424196,11.44411 C111.424196,11.44411 110.903418,9.00912788 117.414423,8.66109116 C123.925683,8.31330943 124.837173,10.835237 124.793902,11.44411 C124.750376,12.052983 122.449889,13.7052012 118.109049,13.6182558 C113.768209,13.5313104 111.641315,12.3138193 111.424196,11.44411" id="Fill-8" fill="#CCBA15"></path>
                            <polygon id="Fill-10" fill="#93820A" points="142.851556 8.31336042 146.492425 8.17797031 156.904433 16.3600202 153.052301 16.7055072"></polygon>
                            <polygon id="Fill-12" fill="#93820A" points="172.469096 32.605405 177.046144 32.1885258 190.445375 42.7181024 185.72706 43.1665981"></polygon>
                            <path d="M149.980267,47.2417638 C149.980267,46.0676179 152.333188,44.5637934 157.989465,44.5716975 C162.263362,44.5716975 166.043716,46.5130539 166.043716,48.3205501 C166.043716,49.5834262 164.505306,51.9146347 158.215492,51.4161645 C151.925932,50.9174394 149.964486,48.8779188 149.980267,47.2417638" id="Fill-14" fill="#CCBA15"></path>
                            <path d="M60.7570455,78.7558378 L61.4073824,92.0424261 C61.4073824,92.0424261 61.4862883,95.6808758 64.7952432,95.1283516 C68.1039436,94.5758274 118.840404,84.55339 118.840404,84.55339 C118.840404,84.55339 120.73109,84.1586934 120.809996,81.5544099 C120.888648,78.9501264 120.231184,68.3343693 120.231184,68.3343693 L60.7570455,78.7558378 Z" id="Fill-16" fill="#CCBA15"></path>
                            <path d="M14.0952572,61.365578 C14.0952572,61.365578 12.6528074,58.4392649 12.6774973,60.6771537 C12.6344809,62.6136657 12.3768915,66.0132067 15.2551732,72.381896 C18.1332004,78.7508404 20.7941093,83.6134104 20.7941093,83.6134104 C20.7941093,83.6134104 21.7419976,85.2054553 21.8707923,83.7424262 C21.999587,82.2793972 21.999587,76.7712381 19.4649275,71.7363071 C16.9305226,66.7016309 14.0952572,61.365578 14.0952572,61.365578" id="Fill-18" fill="#CCBA15"></path>
                            <path d="M59.3804693,63.6756238 C59.3804693,63.6756238 58.1416475,60.4545632 65.0331825,59.2725132 C71.9249721,58.0907182 75.1774203,60.8056596 75.4871894,62.7449762 C75.7969584,64.6840379 70.6087716,66.855889 67.9758616,66.9334004 C65.3429516,67.0111669 60.232398,66.3905652 59.3804693,63.6756238" id="Fill-20" fill="#CCBA15"></path>
                            <polygon id="Fill-22" fill="#CCBA15" points="21.8092203 56.6741196 27.5981097 55.5425541 34.6179304 68.3344968 28.8412586 69.6017074"></polygon>
                            <path d="M3.98370178,56.3702185 L39.3864654,125.868943 L35.307033,83.3021407 L2.00901927,22.0877101 L3.98370178,56.3702185 Z M40.7204833,131.3437 C40.3926422,131.3437 40.0821095,131.16165 39.9268432,130.856959 L2.31166138,57.0142777 C2.25540915,56.9041298 2.22282867,56.7835281 2.21570169,56.6601216 L0.00150175648,18.2185107 C-0.0224245332,17.8013766 0.245346283,17.4235082 0.646238902,17.3090258 C1.04789513,17.1937785 1.47373218,17.3735337 1.67303308,17.7399284 L36.9587106,82.608362 C37.0162355,82.7139204 37.0518704,82.8301876 37.0630699,82.9500244 L41.6072832,130.365883 C41.6482633,130.792451 41.3804925,131.188168 40.9699276,131.308004 C40.8872037,131.332227 40.8032071,131.3437 40.7204833,131.3437 L40.7204833,131.3437 Z" id="Fill-24" fill="#93820A"></path>
                            <g id="Group-28" fill="#93820A">
                                <path d="M2.29888373,18.8904638 L36.6527086,82.0459959 L202.186489,53.0401319 L137.277774,2.03197346 L2.29888373,18.8904638 Z M36.1762191,83.9276888 C35.8542323,83.9276888 35.5520993,83.7525231 35.394033,83.462365 L0.108610083,18.5939314 C-0.032402305,18.3346249 -0.03622033,18.0225393 0.0981741481,17.7596632 C0.232568626,17.4970421 0.488121763,17.3180518 0.780582474,17.2813358 L137.425404,0.21478837 C137.661104,0.184956652 137.89884,0.251504331 138.085668,0.398368174 L204.859107,52.8718504 C205.136041,53.0893415 205.258981,53.4498718 205.173457,53.7915342 C205.087679,54.1331966 204.809218,54.3925031 204.462796,54.4531864 L36.3299582,83.9144303 C36.2785421,83.9233543 36.2271261,83.9276888 36.1762191,83.9276888 L36.1762191,83.9276888 Z" id="Fill-26"></path>
                            </g>
                            <g id="Group-31" transform="translate(35.125830, 52.524222)">
                                <mask id="mask-2" fill="white">
                                    <use xlink:href="#path-1"></use>
                                </mask>
                                <g id="Clip-30"></g>
                                <path d="M2.01614625,31.2478833 L6.38727575,76.8603253 L164.106323,45.6262615 L168.187282,2.13034163 L2.01614625,31.2478833 Z M5.59465377,78.8195298 C5.40451613,78.8195298 5.21768744,78.7583365 5.06267563,78.6428342 C4.86082937,78.4921458 4.73178013,78.263436 4.70785384,78.0122886 L0.163895084,30.59643 C0.11935146,30.132381 0.43879288,29.7124422 0.897210409,29.6321261 L169.030048,0.170882201 C169.303418,0.122692502 169.583916,0.205303414 169.787798,0.394237629 C169.991936,0.582916871 170.096549,0.856501773 170.070587,1.13340131 L165.818071,46.4561952 C165.781163,46.8493619 165.490739,47.1716465 165.103845,47.2481381 L5.76748303,78.8024467 C5.71021266,78.8139204 5.65217868,78.8195298 5.59465377,78.8195298 L5.59465377,78.8195298 Z" id="Fill-29" fill="#93820A" mask="url(#mask-2)"></path>
                            </g>
                            <path d="M6.95982677,27.4588982 L11.7315943,36.2314631 L15.6140166,35.1743494 L10.8712661,26.3724627 L6.95982677,27.4588982 Z M11.2859036,38.1700148 C10.9659531,38.1700148 10.6625474,37.9966339 10.5037175,37.704436 L4.85864037,27.3260578 C4.72857299,27.0871491 4.71457356,26.8015805 4.82046012,26.550943 C4.92660122,26.3005606 5.14091968,26.1118813 5.40283619,26.0392143 L11.0797302,24.4624678 C11.4798592,24.3510451 11.9041691,24.5320751 12.1016882,24.8984698 L17.7154576,35.3163687 C17.8445068,35.5562973 17.8572336,35.8418659 17.7500743,36.0922484 C17.6429151,36.3426308 17.4275785,36.5300352 17.1651529,36.6014274 L11.5198212,38.1386532 C11.4419335,38.1598159 11.3635367,38.1700148 11.2859036,38.1700148 L11.2859036,38.1700148 Z" id="Fill-32" fill="#93820A"></path>
                            <path d="M32.6061876,21.4584903 C33.1676918,21.9082608 35.4908327,22.59694 39.431798,22.5360017 C42.7781696,22.4860272 44.7027087,21.3289645 45.1455996,20.8626208 C44.8297217,20.4008666 43.093793,19.1152981 38.1593776,19.5229982 C34.2723737,19.8445178 32.9192656,20.8942374 32.6061876,21.4584903 L32.6061876,21.4584903 Z M39.0810488,24.3233551 C37.1659275,24.3233551 31.3597297,24.1298314 30.7809171,21.8095867 C30.7630997,21.7389594 30.7541909,21.6662924 30.7541909,21.5933704 C30.7541909,21.4222843 30.8084069,20.5237631 31.8792356,19.6283016 C33.0913313,18.6145332 35.155101,17.9806729 38.0127654,17.7443139 C43.8675794,17.261142 45.8906236,18.9419171 46.4890354,19.6874551 C46.915636,20.2188167 47.0709024,20.8149411 46.9148724,21.3231002 C46.3821307,23.0574194 42.6292667,24.2733806 39.4585242,24.3205504 C39.3602737,24.3220802 39.2327517,24.3233551 39.0810488,24.3233551 L39.0810488,24.3233551 Z" id="Fill-34" fill="#93820A"></path>
                            <path d="M112.313185,11.2133349 C112.567975,11.6177204 114.285323,12.6189952 118.138473,12.6962517 C121.658692,12.766369 123.440183,11.6623405 123.874674,11.2577 C123.678682,10.8002803 122.624653,9.24724618 117.473628,9.52261589 C113.78847,9.71945423 112.741568,10.5904384 112.462597,10.9555582 C112.389546,11.0509178 112.331512,11.1725394 112.313185,11.2133349 L112.313185,11.2133349 Z M118.451806,14.4841151 C118.337011,14.4841151 118.220943,14.4830952 118.102838,14.4808004 C113.9389,14.3974246 110.982985,13.2786077 110.571657,11.630724 C110.569112,11.621035 110.566821,11.6110911 110.564784,11.6014022 C110.533986,11.458108 110.413336,10.7010962 111.047383,9.87090757 C111.994762,8.63097898 114.124965,7.91425283 117.378686,7.74036196 C121.848321,7.50145324 123.896055,8.58431911 124.827908,9.53485454 C125.518461,10.2390871 125.728198,11.0001783 125.69409,11.4777408 C125.618493,12.5379142 124.080847,13.3035949 123.423129,13.5835541 C122.443933,14.0004333 120.801164,14.4841151 118.451806,14.4841151 L118.451806,14.4841151 Z" id="Fill-36" fill="#93820A"></path>
                            <path d="M145.244643,9.0879907 L153.347765,15.7544873 L154.597023,15.6422996 L146.210858,9.05203966 L145.244643,9.0879907 Z M153.063958,17.5681028 C152.858549,17.5681028 152.658484,17.4969656 152.498636,17.3654001 L142.297892,8.97325332 C142.011794,8.73791421 141.900817,8.34984691 142.019176,7.99849556 C142.13728,7.64714421 142.460285,7.4054308 142.830124,7.39191729 L146.470993,7.25627221 C146.685057,7.25066283 146.888176,7.31593565 147.053878,7.44597134 L157.465887,15.6282762 C157.753257,15.8541813 157.873906,16.2328147 157.770056,16.583911 C157.66646,16.9347525 157.359236,17.1866647 156.995506,17.2193011 L153.143373,17.5645332 C153.116902,17.5670829 153.09043,17.5681028 153.063958,17.5681028 L153.063958,17.5681028 Z" id="Fill-38" fill="#93820A"></path>
                            <path d="M174.774826,33.2628756 L186.012292,42.2144309 L188.151658,42.0112182 L176.786416,33.0795508 L174.774826,33.2628756 Z M185.738921,44.0293212 C185.538348,44.0293212 185.34261,43.9612437 185.184289,43.8352875 L171.926325,33.2740944 C171.641246,33.0471694 171.522887,32.6693009 171.627247,32.3199894 C171.731606,31.9706778 172.037557,31.7200404 172.400015,31.686894 L176.977318,31.2700149 C177.203599,31.2501271 177.429117,31.3161648 177.607801,31.4566543 L191.006778,41.986231 C191.293638,42.2116262 191.414543,42.5892396 191.31171,42.9395711 C191.209133,43.2899025 190.903945,43.5423248 190.540978,43.576746 L185.822918,44.0252416 C185.794919,44.0277914 185.76692,44.0293212 185.738921,44.0293212 L185.738921,44.0293212 Z" id="Fill-40" fill="#93820A"></path>
                            <path d="M157.957725,45.4344206 C152.639725,45.4344206 150.900742,46.8191733 150.882924,47.21234 L150.882924,47.2207541 C150.873252,48.2182044 152.423879,50.0310549 158.297529,50.4966337 C162.339799,50.8176434 163.986386,49.8997444 164.607706,49.3242727 C165.124412,48.8462003 165.164374,48.412493 165.164374,48.2911263 C165.164374,47.3130539 162.13948,45.4344206 158.000995,45.4344206 L157.957725,45.4344206 Z M159.862919,52.3467102 C159.335268,52.3467102 158.767909,52.3242726 158.157025,52.2760829 C155.150713,52.0374292 152.837753,51.4362053 151.282035,50.4879647 C149.371495,49.3237627 149.09507,47.9346755 149.101179,47.2074955 C149.101943,46.8298821 149.226411,46.2589999 149.810059,45.6753691 C151.121169,44.3632834 154.02974,43.6442626 158.002268,43.649617 C162.766145,43.649617 166.946119,45.8184084 166.946119,48.2911263 C166.946119,49.1164705 166.534536,49.9708815 165.817002,50.6350835 C164.935547,51.4509937 163.205727,52.3464552 159.862919,52.3467102 L159.862919,52.3467102 Z" id="Fill-42" fill="#93820A"></path>
                            <path d="M61.6970178,79.4693258 L62.3089199,91.9690707 C62.3211376,92.3553532 62.4870944,93.4175663 63.1124869,93.9315898 C63.4833444,94.2365362 63.989869,94.3303659 64.6603142,94.2184332 C67.895454,93.6781477 117.463345,83.8882447 118.661441,83.6516307 C118.817471,83.6100703 119.877609,83.2630535 119.931061,81.4976277 C119.993677,79.4292952 119.573694,72.0529567 119.413592,69.3558634 L61.6970178,79.4693258 Z M64.1621892,96.047092 C63.1152868,96.047092 62.4061523,95.6633593 61.9703884,95.3015541 C60.6134623,94.175088 60.5330292,92.248265 60.5284476,92.0320488 L59.8788743,78.7696828 C59.8569843,78.3201672 60.1726077,77.9244508 60.615244,77.8469393 L120.089382,67.4257258 C120.339081,67.3821256 120.595398,67.4466335 120.794444,67.6039512 C120.993491,67.7612689 121.116176,67.9958431 121.131958,68.2495401 C121.158938,68.6845223 121.791203,78.9364344 121.712043,81.5516817 C121.632882,84.1676939 119.925462,85.2110392 119.033826,85.3971687 C116.952238,85.8084384 68.2372945,95.4305699 64.9530294,95.9787596 C64.6704956,96.0261843 64.4067973,96.047092 64.1621892,96.047092 L64.1621892,96.047092 Z" id="Fill-44" fill="#93820A"></path>
                            <path d="M13.5570939,62.2020644 C13.5825474,64.1995147 13.9256606,67.2206773 16.078263,71.9840633 C18.1338877,76.5325079 20.0958434,80.3417888 21.0256598,82.104155 C20.9862068,79.9799836 20.6214582,75.9626456 18.6811379,72.1084896 C16.6005688,67.9751393 14.2906637,63.5893668 13.5570939,62.2020644 M21.5645103,85.2250116 C20.8953378,85.2250116 20.3735411,84.6000754 20.0406093,84.0406669 C20.0350095,84.0314879 20.0296643,84.022054 20.0243191,84.01262 C19.9975929,83.9636654 17.314285,79.0467863 14.4550934,72.7201673 C11.641209,66.4940073 11.7348778,63.01466 11.7908755,60.9358737 L11.7982571,60.6408712 C11.7941845,60.2553536 11.7949481,59.1579543 12.7013472,58.9407182 C13.6568716,58.7109885 14.3492068,59.8142521 14.8995115,60.9284796 C15.0514689,61.2145581 17.8197915,66.433069 20.2719816,71.304818 C22.6938821,76.1158837 22.9647074,81.576108 22.7697335,83.7910494 C22.6816644,84.7915593 22.2013569,85.1074695 21.8139546,85.1961998 C21.7286854,85.2158326 21.6454525,85.2250116 21.5645103,85.2250116" id="Fill-46" fill="#93820A"></path>
                            <path d="M68.241978,59.8445683 C67.3523781,59.8445683 66.3411106,59.9259044 65.1954486,60.1224877 C61.8424591,60.6974495 60.7655215,61.7372251 60.4221538,62.3058125 C60.0826041,62.8680257 60.2248892,63.3267202 60.230998,63.3458431 C60.245252,63.3774596 60.2317616,63.3453332 60.241943,63.3782246 C60.8556269,65.3336044 65.1259605,66.0936758 67.9612258,66.0115748 C69.8486028,65.9562459 73.3013701,64.6523194 74.3826347,63.3438033 C74.5475734,63.1441603 74.6358971,62.9618554 74.6190978,62.856297 C74.5320468,62.3114219 74.0639569,61.6877605 73.3667856,61.1877605 C72.5830723,60.6258024 70.9970648,59.8445683 68.241978,59.8445683 M67.5157896,67.8030078 C64.4247166,67.8030078 59.5272087,67.000611 58.5475035,63.9297289 C58.467325,63.6979594 58.172828,62.6571639 58.8478548,61.4672098 C59.7097103,59.9478319 61.7442086,58.9034668 64.8945882,58.3631813 C70.2273509,57.4485969 73.1412676,58.8310548 74.4037611,59.7364602 C75.511752,60.5309528 76.2129959,61.5388569 76.3784436,62.574298 C76.4489498,63.0151445 76.3977883,63.7038237 75.755342,64.4817432 C74.3078015,66.2339104 70.3365464,67.7272811 68.0139146,67.7958686 C67.8540666,67.800458 67.6876007,67.8030078 67.5157896,67.8030078" id="Fill-48" fill="#93820A"></path>
                            <path d="M23.184931,57.2870212 L29.3154064,68.5570363 L33.2746983,67.6883469 L27.1421866,56.5134363 L23.184931,57.2870212 Z M28.8526618,70.4644815 C28.5316932,70.4644815 28.2290511,70.2900807 28.0707303,69.9989027 L21.0386919,57.0715699 C20.9027703,56.8216974 20.8938615,56.5221053 21.0147657,56.2648386 C21.1356698,56.007317 21.3716237,55.8229722 21.6503395,55.7686632 L27.4389744,54.6368427 C27.8187406,54.5629009 28.2038521,54.7429111 28.3904262,55.0827887 L35.4102469,67.8747314 C35.5456595,68.1215442 35.5568591,68.4175667 35.4407911,68.6738135 C35.3244686,68.9300603 35.0946235,69.1164448 34.8199803,69.1763632 L29.043563,70.4438287 C28.9799293,70.4575972 28.916041,70.4644815 28.8526618,70.4644815 L28.8526618,70.4644815 Z" id="Fill-50" fill="#93820A"></path>
                            <path d="M48.9803475,134.370217 C48.7889372,134.370217 48.6005813,134.308259 48.4450604,134.191227 C48.2414324,134.037734 48.1128923,133.80418 48.0922749,133.549718 L47.7221811,128.960733 C47.6824736,128.469402 48.0479858,128.039009 48.5384748,127.999233 C49.0266729,127.958438 49.4583643,128.325597 49.4980717,128.816928 L49.7872235,132.402344 L193.271655,103.106832 L193.271655,100.586689 C193.271655,100.093828 193.670512,99.6942873 194.162528,99.6942873 C194.654544,99.6942873 195.0534,100.093828 195.0534,100.586689 L195.0534,103.835797 C195.0534,104.259815 194.75534,104.625445 194.340702,104.710095 L49.1582675,134.352369 C49.0992154,134.364353 49.0396542,134.370217 48.9803475,134.370217" id="Fill-52" fill="#93820A"></path>
                            <path d="M48.9803475,134.370217 C48.7540659,134.370217 48.5277843,134.284547 48.3541914,134.112441 L44.4297709,130.227433 C44.0797853,129.881181 44.0762218,129.315909 44.4221348,128.965577 C44.7683024,128.614991 45.3320974,128.611676 45.6820831,128.957928 L49.6065036,132.84319 C49.9564892,133.189442 49.9597982,133.75446 49.6138851,134.105047 C49.4397832,134.281742 49.2099381,134.370217 48.9803475,134.370217" id="Fill-54" fill="#93820A"></path>
                        </g>
                    </g>
                </g>
            </g>
        </g>
    </g>
</svg>