<?xml version="1.0" encoding="UTF-8" standalone="no"?>
<svg width="178px" height="157px" viewBox="0 0 178 157" version="1.1" xmlns="http://www.w3.org/2000/svg" xmlns:xlink="http://www.w3.org/1999/xlink">
    <!-- Generator: Sketch 46 (44423) - http://www.bohemiancoding.com/sketch -->
    <title>Caja 40 libras</title>
    <desc>Created with Sketch.</desc>
    <defs>
        <polygon id="path-1" points="148.513945 0.223171985 148.513945 124.226136 0.102325497 124.226136 0.102325497 0.223171985 148.513945 0.223171985"></polygon>
        <polygon id="path-3" points="36.2552809 140.660859 0 140.660859 0 0.206163886 36.2552809 0.206163886"></polygon>
        <polygon id="path-5" points="144.844392 0.192864889 7.41954727e-05 0.192864889 7.41954727e-05 32.7762279 144.844392 32.7762279 144.844392 0.192864889"></polygon>
    </defs>
    <g id="7-Productos" stroke="none" stroke-width="1" fill="none" fill-rule="evenodd">
        <g id="7.1-Limon-mexicano" transform="translate(-551.000000, -2102.000000)">
            <g id="Group-76" transform="translate(503.000000, 2059.000000)">
                <g id="Group-7">
                    <g id="Caja-40-libras" transform="translate(48.000000, 43.000000)">
                        <polygon id="Fill-1" fill="#CCBA15" points="106.165392 25.2707143 57.0840049 32.1285354 55.9666818 24.1536447 105.048069 17.2958236"></polygon>
                        <polygon id="Fill-2" fill="#E2D100" points="0.460384543 17.052229 29.3609855 55.860125 71.4448856 39.4910196 55.5780266 24.3784362"></polygon>
                        <g id="Group-47" transform="translate(0.000000, 0.048820)">
                            <path d="M176.078429,33.455122 L166.222173,123.492815 L137.668603,130.516432 C137.668603,130.516432 137.599874,126.537325 132.56454,127.115678 C127.529447,127.694031 125.052556,133.619671 125.052556,133.619671 L86.3094935,143.150049 C86.3094935,143.150049 85.4104562,139.43317 80.1834557,139.97527 C73.6888489,140.790475 71.7990555,146.719499 71.7990555,146.719499 L35.0220165,155.766023 L29.3608645,55.8112562 L176.078429,33.455122 Z" id="Fill-3" fill="#E2D100"></path>
                            <polygon id="Fill-5" fill="#EAE406" points="0.460384543 17.0034085 9.33096666 105.110761 35.0218955 155.766071 29.3609855 55.8113046"></polygon>
                            <path d="M97.0085457,17.5451945 C97.1837551,17.6034407 111.705809,29.1944272 111.705809,29.1944272 L176.078332,33.4550978 L123.547207,1.03881186 L97.0085457,17.5451945 Z" id="Fill-7" fill="#E2D100"></path>
                            <path d="M0.460384543,17.0034085 L33.9002164,12.6661237 C33.9002164,12.6661237 38.2163215,14.9628593 43.7784947,14.0741824 C49.3409099,13.1855054 47.868812,10.8544505 47.868812,10.8544505 L83.8179622,6.19185719 C83.8179622,6.19185719 88.217316,8.85329599 93.4861828,7.4466874 C98.4072928,6.31294154 96.5673519,4.53800451 96.5673519,4.53800451 L123.547183,1.03864268 L143.610598,12.652831 L12.7891748,31.9303776 L0.460384543,17.0034085 Z" id="Fill-9" fill="#F9F44E"></path>
                            <polygon id="Fill-11" fill="#F9F44E" points="16.7893705 35.3881454 30.1110948 55.5149742 176.078453 33.4551461 148.980041 15.9435942"></polygon>
                            <path d="M11.9878579,55.8113771 C11.638407,55.2233567 11.2824221,55.0967136 10.9303093,55.2697603 C10.4305752,55.5148292 10.1505789,57.753077 11.2069175,60.2675711 C12.2637401,62.7818235 17.3213392,71.5595929 17.3213392,71.5595929 C17.3213392,71.5595929 17.8832678,72.4125004 18.1978703,71.5371161 C18.5127149,70.6614902 19.1196558,67.5186142 17.5011467,64.5553104 C15.8826375,61.5920067 12.3373087,56.3993975 11.9878579,55.8113771" id="Fill-13" fill="#CCBA15"></path>
                            <path d="M68.5522603,49.8395744 C68.5522603,49.8395744 66.6951372,46.8081153 73.8416973,45.8215558 C80.9882574,44.835238 85.5504785,47.136324 85.5504785,47.136324 C85.5504785,47.136324 86.7982407,55.3379155 78.7514332,57.2815489 C70.7043838,59.225424 68.637203,52.8710334 68.5522603,49.8395744" id="Fill-15" fill="#CCBA15"></path>
                            <path d="M127.98078,40.7840361 C127.98078,40.7840361 127.626005,47.1478524 132.64561,47.6679592 C137.665699,48.1883077 143.371863,44.9958863 143.559415,38.4102028 C139.322928,35.9152852 134.658341,36.1518952 131.295965,36.6011882 C127.933832,37.0504812 125.754604,39.0315758 127.98078,40.7840361" id="Fill-17" fill="#CCBA15"></path>
                            <g id="Group-21" transform="translate(28.798234, 32.385834)">
                                <mask id="mask-2" fill="white">
                                    <use xlink:href="#path-1"></use>
                                </mask>
                                <g id="Clip-20"></g>
                                <path d="M6.61016274,124.226136 C6.43083928,124.226136 6.25393584,124.169099 6.10679865,124.060582 C5.904243,123.910979 5.77864398,123.679202 5.76460787,123.428091 L0.103697843,23.4733247 C0.0790136424,23.0378077 0.389986171,22.6549782 0.821475678,22.5892398 L40.0124843,16.6174371 C40.4788221,16.5463816 40.9071656,16.8644395 40.9778301,17.3260584 C41.0484947,17.7879191 40.7305041,18.2195691 40.2682804,18.2898995 L1.83836795,24.1456933 L7.39812115,122.31513 L42.7514626,113.618809 C43.3659056,112.122052 45.7276028,107.495711 51.666089,106.750112 C55.9904222,106.301302 57.7563105,108.524807 58.3980998,109.76997 L96.0415058,100.51028 C96.7273394,99.0940044 99.3276505,94.4328612 104.056127,93.8895526 C105.999403,93.6662354 107.534421,94.0345638 108.619074,94.9836621 C109.377024,95.6468466 109.748255,96.4613261 109.929757,97.0938166 L137.033251,90.4269269 L146.70486,2.07160576 L115.27558,6.86060048 C114.810694,6.93141428 114.381141,6.61383977 114.310476,6.15197911 C114.239812,5.69011845 114.557802,5.25871015 115.020026,5.18813803 L147.53904,0.233105496 C147.799435,0.192744047 148.062975,0.27685054 148.252946,0.458597905 C148.442918,0.640345269 148.537541,0.900156994 148.508984,1.16117714 L138.652728,91.1988699 C138.614008,91.5519721 138.358454,91.8432029 138.013117,91.9282762 L109.459305,98.9518934 C109.209317,99.0137649 108.944567,98.9581772 108.740075,98.8008401 C108.536067,98.6439863 108.41434,98.4025427 108.409984,98.1451478 C108.409742,98.1400724 108.362068,96.9961758 107.488441,96.2435677 C106.777439,95.6313787 105.68722,95.4049196 104.249971,95.5702323 C99.7777742,96.0840554 97.4453592,101.506024 97.422369,101.560887 C97.3183082,101.807406 97.1036524,101.991328 96.8435003,102.055375 L58.1001953,111.585752 C57.8814256,111.639165 57.6503137,111.60412 57.4574381,111.487144 C57.2650466,111.37041 57.1271054,111.181654 57.074107,110.962929 C57.0438568,110.847887 56.2425882,107.97594 51.8592066,108.430792 C45.9882389,109.167932 44.2117024,114.536247 44.1945203,114.590142 C44.1052216,114.870739 43.8760457,115.084631 43.5899994,115.154961 L6.81271839,124.201484 C6.74592584,124.217919 6.67768129,124.226136 6.61016274,124.226136" id="Fill-19" fill="#93820A" mask="url(#mask-2)"></path>
                            </g>
                            <path d="M86.0059504,48.0847697 C85.5945471,48.0847697 85.2337221,47.7848382 85.1695916,47.3662393 C85.098927,46.9046203 85.4166756,46.4729703 85.8791414,46.4026399 L128.239408,39.9479499 C128.705988,39.8766527 129.133847,40.1949523 129.204512,40.6565713 C129.275176,41.1181902 128.957186,41.5498402 128.494962,41.6201706 L86.1346955,48.0748606 C86.0913771,48.0816278 86.0483008,48.0847697 86.0059504,48.0847697" id="Fill-22" fill="#93820A"></path>
                            <g id="Group-26" transform="translate(0.000000, 15.951231)">
                                <mask id="mask-4" fill="white">
                                    <use xlink:href="#path-3"></use>
                                </mask>
                                <g id="Clip-25"></g>
                                <path d="M10.5443403,88.918013 L34.3341017,135.824543 L28.9161617,40.1613822 L1.99634683,4.01299148 L10.5443403,88.918013 Z M35.4081065,140.660908 C35.0951979,140.660908 34.7997135,140.486894 34.6528183,140.197113 L8.96188946,89.5418028 C8.91469907,89.4487539 8.88517483,89.3479711 8.87476875,89.2442881 L0.00418663404,1.13669442 C-0.0338076748,0.758215202 0.18568811,0.401004292 0.540946998,0.263485342 C0.895963884,0.125724706 1.29938116,0.242458718 1.52662101,0.547223913 L30.427222,39.3553616 C30.5259588,39.4882886 30.5840392,39.6470758 30.5932353,39.8123886 L36.2539033,139.767155 C36.2766515,140.166903 36.0155314,140.527739 35.6283283,140.631664 C35.5552437,140.651482 35.4811911,140.660908 35.4081065,140.660908 L35.4081065,140.660908 Z" id="Fill-24" fill="#93820A" mask="url(#mask-4)"></path>
                            </g>
                            <g id="Group-29">
                                <mask id="mask-6" fill="white">
                                    <use xlink:href="#path-5"></use>
                                </mask>
                                <g id="Clip-28"></g>
                                <path d="M2.47509932,17.6452764 L13.5251512,31.0237676 L141.473527,12.1696537 L123.757531,1.91470365 L98.137509,5.23763519 C98.1454951,5.41382379 98.127587,5.60378846 98.0716845,5.80462896 C97.764342,6.91154775 96.4575314,7.71708494 94.077442,8.26764411 C89.2219146,9.55776038 85.1136892,7.64240417 84.0353284,7.06670973 L49.2794898,11.5743827 C49.2751338,11.8431368 49.2204414,12.1428266 49.0774182,12.4584676 C48.5232337,13.6826038 46.960143,14.484274 44.2988473,14.9096402 C39.2267281,15.7202528 35.1787612,14.0294223 34.1412988,13.538076 L2.47509932,17.6452764 Z M13.1759423,32.7762279 C12.9252283,32.7762279 12.6846783,32.6650526 12.522537,32.4685625 L0.193504773,17.5415934 C-0.00251682046,17.3042584 -0.0538212376,16.9791917 0.0591936812,16.6927945 C0.1722086,16.4066391 0.432360715,16.2043485 0.737767198,16.1647121 L34.1775991,11.8274273 C34.3528085,11.8047088 34.5299539,11.8370947 34.6850772,11.9197511 C34.7250075,11.940536 38.8368629,14.0690587 44.0314352,13.2391112 C46.8657622,12.7861929 47.4291428,11.9934651 47.5339296,11.7612055 C47.6452505,11.5158949 47.5399797,11.3073204 47.5390117,11.3056286 C47.3846144,11.0615265 47.3657383,10.7557945 47.4889173,10.4945327 C47.6118543,10.2332709 47.8596643,10.0527319 48.1461946,10.0155124 L84.0953449,5.35291909 C84.2855584,5.3280255 84.47916,5.36887032 84.6434793,5.46820299 C84.6834097,5.49212983 88.8163193,7.92106735 93.6539386,6.62925929 C93.6633767,6.62684244 93.6728147,6.62442558 93.6822528,6.62225042 C96.1997993,6.04220564 96.4294592,5.38433818 96.4379292,5.35654437 C96.4664855,5.26446226 96.3520185,5.13346881 96.3508085,5.13226039 C96.0991265,4.91377685 96.0228958,4.59040189 96.1192126,4.27161894 C96.2155294,3.95259431 96.5139178,3.7420864 96.8444925,3.69930809 L123.824324,0.19994627 C124.008971,0.175777737 124.197007,0.213480648 124.358422,0.306771183 L144.422079,11.9209595 C144.733778,12.1014984 144.897129,12.458951 144.829127,12.8120533 C144.761366,13.1653972 144.477256,13.4370515 144.121029,13.4897389 L13.2996053,32.7670438 C13.258223,32.7733277 13.2168407,32.7762279 13.1759423,32.7762279 L13.1759423,32.7762279 Z" id="Fill-27" fill="#93820A" mask="url(#mask-6)"></path>
                            </g>
                            <g id="Group-32" transform="translate(16.214132, 14.984490)" fill="#93820A">
                                <path d="M14.2831013,41.3763343 C14.001653,41.3763343 13.7349669,41.2359151 13.5766976,40.9968884 L0.255215275,20.8700595 C0.0954939764,20.6288576 0.0705677737,20.3226423 0.188664734,20.0584802 C0.306761694,19.7945598 0.551909687,19.6089455 0.838440016,19.5666506 L133.029111,0.122341112 C133.232392,0.0926138166 133.44003,0.137325602 133.612577,0.248984222 L160.71099,17.7605361 C161.006474,17.9514676 161.153127,18.3050532 161.079075,18.6487297 C161.00478,18.9924062 160.725752,19.2543931 160.377511,19.3070805 L127.803562,24.2297272 C127.34521,24.299816 126.909365,23.9819998 126.839184,23.5198974 C126.769246,23.0580368 127.08772,22.6268702 127.550186,22.5570231 L157.914415,17.9681438 L132.959898,1.84241557 L2.40274073,21.0467315 L14.6913586,39.6132399 L52.5353843,33.8939983 C52.9973661,33.8234262 53.4298236,34.1419675 53.4997621,34.6038281 C53.5697007,35.0656888 53.2512261,35.4968554 52.7887604,35.5667025 L14.4099104,41.3666669 C14.367802,41.3731924 14.3252097,41.3763343 14.2831013,41.3763343" id="Fill-30"></path>
                            </g>
                            <path d="M85.9360118,47.9824402 C85.5241245,47.9824402 85.1630576,47.6820253 85.099411,47.2629429 C85.0294725,46.8010823 85.3477051,46.3699157 85.8101708,46.3000686 L128.177939,39.8970993 C128.639437,39.8265272 129.072137,40.1450684 129.142075,40.6069291 C129.212014,41.0690314 128.893781,41.4999564 128.431315,41.5698034 L86.0635469,47.9727727 C86.0209545,47.9792982 85.9781202,47.9824402 85.9360118,47.9824402" id="Fill-33" fill="#93820A"></path>
                            <path d="M11.7415967,56.3967148 C11.660284,57.1152452 11.7432907,58.4375056 12.3746738,59.940305 C13.2173247,61.9455681 16.7464393,68.1718655 17.9987995,70.3646764 C18.2030492,69.1045292 18.2354775,66.9583635 17.1440486,64.9605926 C15.9517049,62.777449 13.6822104,59.3418921 12.4627625,57.4961413 C12.0956455,56.9400234 11.8700997,56.598522 11.7415967,56.3967148 M18.2052272,72.7783878 C17.5506119,72.7783878 17.1215424,72.2089772 17.0000574,72.0245713 C16.9908613,72.0105535 16.9819073,71.9960524 16.9736792,71.9815513 C16.7660415,71.6211984 11.8773598,63.1288595 10.8125511,60.5947889 C9.71507218,57.9831372 9.77726669,55.083155 10.9429902,54.5106025 C11.2408946,54.3636578 12.278841,53.9933959 13.1028577,55.3797029 C13.1807824,55.510938 13.4881249,55.9756989 13.87678,56.5644444 C15.10978,58.4309801 17.4049267,61.9052067 18.6311507,64.1504634 C20.3050783,67.2147916 19.8539866,70.5092043 19.3815988,71.8230057 C19.1124926,72.5715051 18.6142105,72.7377846 18.3412323,72.7704122 C18.2950099,72.7759709 18.2497556,72.7783878 18.2052272,72.7783878" id="Fill-35" fill="#93820A"></path>
                            <path d="M77.73321,46.4241257 C76.6865514,46.4241257 75.5532562,46.4927643 74.3442144,46.6597689 C70.7362071,47.1576406 69.8739541,48.1538676 69.6709144,48.5589322 C69.4521446,48.9951742 69.6469562,49.3712365 69.6699464,49.4128064 C69.747145,49.5389662 69.7812673,49.6682678 69.7853813,49.8159375 C69.8345077,51.575165 70.5721297,54.1488721 72.4892693,55.6127601 C74.0768022,56.8250537 76.2468339,57.1100007 78.9383798,56.4593838 C85.1946146,54.9483671 85.2672152,49.3635026 85.1469402,47.7147253 C84.1757863,47.3244035 81.5246548,46.4241257 77.73321,46.4241257 M76.3046723,58.4931658 C74.421897,58.4931658 72.8002419,57.9798261 71.460277,56.9567722 C69.1394781,55.1847354 68.2065605,52.1769615 68.0993536,50.0527892 C67.9253542,49.6569086 67.6756082,48.8134268 68.1293619,47.8565946 C68.8183415,46.4030991 70.8313138,45.4365994 74.1121345,44.9836811 C81.4368081,43.9729531 86.1229342,46.2827398 86.3189558,46.3813474 C86.5633777,46.5046069 86.7330211,46.7388 86.7741615,47.0092459 C86.7879556,47.0989111 88.0381377,56.0021151 79.336957,58.1038107 C78.2624683,58.3633808 77.250416,58.4931658 76.3046723,58.4931658" id="Fill-37" fill="#93820A"></path>
                            <path d="M129.213006,40.8304155 C129.200422,41.070409 128.976086,46.3971536 133.119886,46.8266284 C135.725279,47.0975577 138.406177,46.273169 140.291372,44.623425 C141.938195,43.1824971 142.893619,41.2081697 143.072701,38.8896823 C139.134361,36.7730023 134.774211,37.041273 131.794925,37.4395704 C129.774934,37.7095329 128.501278,38.5259459 128.328005,39.1569863 C128.231204,39.5098469 128.581139,39.8752751 128.891627,40.1198607 C129.107977,40.2902488 129.22801,40.5553776 129.213006,40.8304155 M134.09346,48.5684546 C133.71037,48.5684546 133.327039,48.5491197 132.944918,48.5094833 C128.587915,48.0577735 127.497212,43.724839 127.50907,41.1588659 C126.494598,40.1836656 126.553646,39.2227247 126.694249,38.7103518 C127.091133,37.2624151 129.005126,36.1057091 131.570347,35.7627576 C134.910458,35.3163648 139.872951,35.029726 144.376123,37.6814974 C144.642083,37.8381095 144.801563,38.1264401 144.792851,38.4343472 C144.706698,41.4534803 143.536376,44.0334711 141.407969,45.8958982 C139.452835,47.606547 136.784521,48.5684546 134.09346,48.5684546" id="Fill-39" fill="#93820A"></path>
                            <path d="M60.4976604,29.8617204 C60.2878447,29.8617204 60.077303,29.7841394 59.9132257,29.6280107 L56.2229377,26.1129393 C55.8846189,25.7905311 55.8717928,25.2551981 56.1946235,24.9170803 C56.5174541,24.5792042 57.0534884,24.5659115 57.3922912,24.8888031 L61.0825792,28.4036328 C61.4208979,28.726041 61.433724,29.2616157 61.1108934,29.5997335 C60.9443961,29.7739886 60.7212703,29.8617204 60.4976604,29.8617204" id="Fill-41" fill="#93820A"></path>
                            <path d="M103.53408,23.5312808 C103.349433,23.5312808 103.163817,23.4713429 103.007968,23.3478417 L98.6790368,19.9156684 C98.3126459,19.6251626 98.2514194,19.0932132 98.5423057,18.7273016 C98.8334341,18.3611483 99.3658384,18.3002436 99.7322294,18.5907494 L104.061161,22.0229227 C104.427552,22.3134285 104.488778,22.8453779 104.197892,23.2112895 C104.030668,23.4215557 103.783342,23.5312808 103.53408,23.5312808" id="Fill-43" fill="#93820A"></path>
                            <path d="M147.946402,16.9416821 C147.794425,16.9416821 147.640512,16.9008373 147.501845,16.8152807 L142.345993,13.633735 C141.948142,13.3881828 141.824963,12.8668675 142.070837,12.4695368 C142.316711,12.0719645 142.839193,11.9491883 143.23656,12.1944989 L148.392412,15.3760446 C148.790263,15.6215968 148.913442,16.1429121 148.667568,16.5402428 C148.507363,16.7990878 148.230271,16.9416821 147.946402,16.9416821" id="Fill-45" fill="#93820A"></path>
                        </g>
                    </g>
                </g>
            </g>
        </g>
    </g>
</svg>