<?xml version="1.0" encoding="UTF-8" standalone="no"?>
<svg width="188px" height="122px" viewBox="0 0 188 122" version="1.1" xmlns="http://www.w3.org/2000/svg" xmlns:xlink="http://www.w3.org/1999/xlink">
    <!-- Generator: Sketch 46 (44423) - http://www.bohemiancoding.com/sketch -->
    <title>Tomate 25</title>
    <desc>Created with Sketch.</desc>
    <defs>
        <polygon id="path-1" points="0.0305043431 90.6423294 28.8989997 90.6423294 28.8989997 0.0241379717 0.0305043431 0.0241379717 0.0305043431 90.6423294"></polygon>
        <polygon id="path-3" points="77.1127801 31.0773753 77.1127801 0.00873821191 0.142005622 0.00873821191 0.142005622 31.0773753 77.1127801 31.0773753"></polygon>
        <polygon id="path-5" points="52.3099941 111.602145 52.3099941 0.173994929 0.0777407144 0.173994929 0.0777407144 111.602145 52.3099941 111.602145"></polygon>
    </defs>
    <g id="7-Productos" stroke="none" stroke-width="1" fill="none" fill-rule="evenodd">
        <g id="7.3-Tomate-Roma" transform="translate(-391.000000, -1788.000000)">
            <g id="Group-10" transform="translate(348.000000, 1715.000000)">
                <g id="Group-2">
                    <g id="Tomate-25" transform="translate(43.000000, 73.000000)">
                        <polygon id="Fill-1" fill="#CCBA15" points="16.7564498 14.5143558 29.3248482 12.090363 78.4808466 3.65419127 172.695791 9.76546995 130.153685 32.4497701 12.6875069 17.233258"></polygon>
                        <polygon id="Fill-2" fill="#EAE406" points="111.57085 31.7428886 138.674232 35.4011248 136.309332 121.074122 129.609273 119.605642 129.296941 118.038247 117.371211 113.925696 116.367157 115.269336 111.09188 114.008433"></polygon>
                        <g id="Group-51" transform="translate(0.000000, 0.003126)">
                            <path d="M187.255595,10.9297183 L179.10393,15.0352826 L178.802806,12.5046517 L173.592751,15.2634512 L173.968651,17.6218065 L160.67546,24.3170204 L160.232868,21.5992214 L153.352759,25.040872 L153.714145,27.8230215 L138.674287,35.3979992 L111.570905,31.739763 L121.228007,23.5757022 C121.228007,23.5757022 130.743091,25.5282814 136.479883,22.9382641 L142.216676,20.3484307 L164.573356,10.6285578 C164.573356,10.6285578 166.144199,9.0028793 162.387404,7.75503044 L165.623157,5.61657013 L187.255595,10.9297183 Z" id="Fill-3" fill="#EAE406"></path>
                            <polygon id="Fill-5" fill="#EAE406" points="26.6648321 90.5431744 17.2954419 20.1074656 28.9200484 13.6374786 16.586266 13.445714 0.643035191 17.6281313 10.4599779 86.5267816 14.5228579 88.013279 14.488134 86.831987 22.2523246 88.3282289 22.6537623 89.5613691"></polygon>
                            <polygon id="Fill-7" fill="#F9F44E" points="17.5804351 22.2488676 111.555251 34.4300568 111.102738 112.1223 28.0611738 88.8285084 26.6648689 90.5431744"></polygon>
                            <polygon id="Fill-9" fill="#EAE406" points="27.0508553 14.6778613 119.586743 24.9630998 111.57085 31.739763 111.555233 34.4299832 17.5804168 22.2487941 17.2954603 20.1075759"></polygon>
                            <polygon id="Fill-11" fill="#F9F44E" points="25.4553748 13.5836448 16.586266 13.4457508 73.4520726 2.32689707 87.5446481 0.824220078 87.8106809 3.32322726 86.0981864 3.41056013"></polygon>
                            <path d="M164.573264,10.6284842 L77.129848,4.91507572 L86.098168,3.41056013 L164.37723,8.78695567 C164.37723,8.78695567 165.271417,9.34882779 164.573264,10.6284842" id="Fill-13" fill="#EAE406"></path>
                            <polygon id="Fill-15" fill="#E2D100" points="136.309314 121.070941 152.590781 104.525131 152.238581 101.21641 157.4942 95.3480085 157.834274 98.5427369 171.966717 83.9967574 171.663021 81.1443739 175.366352 76.9417321 175.657923 79.6799395 184.115306 71.3932449 187.255522 10.9296631 179.103857 15.0354113 178.802733 12.5045966 173.592678 15.2633961 173.968761 17.6217514 160.675387 24.3169652 160.232795 21.5991662 153.35287 25.0408168 153.714072 27.8231502 138.674397 35.397944"></polygon>
                            <path d="M94.8269114,60.1832341 C94.8269114,60.1832341 94.6090143,56.1159123 90.188423,55.0085315 C85.7678316,53.9011507 86.0311086,58.3942891 86.0176967,59.6156623 C86.0044686,60.8370355 86.8303095,82.0626009 86.8303095,82.0626009 C86.8303095,82.0626009 87.2534266,86.0363385 90.9121132,86.7224991 C94.5706159,87.4088436 95.6307054,84.5687785 95.6307054,84.5687785 L94.8269114,60.1832341 Z" id="Fill-17" fill="#CCBA15"></path>
                            <path d="M36.718081,49.5843511 L38.8325645,71.5050861 C38.8325645,71.5050861 39.2376766,75.3089384 42.7161296,75.4872813 C46.1947662,75.6658081 45.6963221,72.5315691 45.6963221,72.5315691 L44.0240631,50.1241602 C44.0240631,50.1241602 43.196385,46.4756685 39.8864073,46.3339135 C36.5764296,46.1923423 36.718081,49.5843511 36.718081,49.5843511" id="Fill-19" fill="#CCBA15"></path>
                            <path d="M162.080878,44.2048116 C162.080878,44.2048116 159.734534,47.618148 160.223792,51.3618784 C160.712867,55.105425 163.626551,52.1236049 163.626551,52.1236049 L170.606422,47.0913929 C170.606422,47.0913929 173.035442,45.4967865 172.792374,41.2349423 C172.549307,36.9730981 171.522472,37.2231459 170.115695,37.8651804 C168.708917,38.5072149 162.783256,42.9562273 162.080878,44.2048116" id="Fill-21" fill="#CCBA15"></path>
                            <polygon id="Fill-23" fill="#F9F44E" points="17.2955154 20.1075207 0.64310868 17.6280026 16.5861557 13.4457692 28.9199382 13.6375338"></polygon>
                            <g id="Group-27" transform="translate(110.418328, 31.072117)">
                                <mask id="mask-2" fill="white">
                                    <use xlink:href="#path-1"></use>
                                </mask>
                                <g id="Clip-26"></g>
                                <path d="M19.7393615,87.9918595 L25.2696478,89.2038559 L27.5972515,4.88626506 L1.79133069,1.40324622 L1.31952658,82.4259056 L5.6870216,83.4698552 L6.4380867,82.4650675 C6.60545957,82.2409438 6.8984999,82.1510369 7.16232805,82.2420469 L19.0880587,86.3545979 C19.3041185,86.4290607 19.4645099,86.6129194 19.5091549,86.8372269 L19.7393615,87.9918595 Z M25.8910036,90.6423662 C25.8450725,90.6423662 25.7989577,90.637402 25.753394,90.6274736 L19.0535185,89.1589944 C18.8038371,89.1043883 18.6101917,88.907108 18.5604024,88.6563247 L18.320091,87.4511311 L7.18694711,83.6117941 L6.46380811,84.5794423 C6.31003084,84.7849964 6.04895855,84.8796836 5.79946089,84.8199295 L0.524183915,83.5590267 C0.233348284,83.4895281 0.0286793695,83.2286326 0.0305166129,82.9293107 L0.509485968,0.663950467 C0.510588314,0.478988634 0.591243299,0.303219736 0.730690073,0.181873007 C0.870320572,0.0607101363 1.05477981,0.00500095611 1.23850415,0.0300057366 L28.3418863,3.68805804 C28.6676295,3.73200027 28.9077572,4.01477492 28.8987547,4.3436981 L26.5336713,90.0165112 C26.528527,90.2082758 26.4379509,90.3875381 26.2871132,90.5057592 C26.1730204,90.5949307 26.0332062,90.6423662 25.8910036,90.6423662 L25.8910036,90.6423662 Z" id="Fill-25" fill="#93820A" mask="url(#mask-2)"></path>
                            </g>
                            <g id="Group-30" transform="translate(110.785777, 4.964184)">
                                <mask id="mask-4" fill="white">
                                    <use xlink:href="#path-3"></use>
                                </mask>
                                <g id="Clip-29"></g>
                                <path d="M2.30664072,26.3316151 L27.7772646,29.7694047 L42.2319608,22.4893364 L41.9293668,20.1594792 C41.8940917,19.8877361 42.0346409,19.6235311 42.2795454,19.5010812 L49.1596545,16.0594306 C49.3426439,15.967869 49.5581526,15.9689721 49.7400397,16.0620046 C49.9219268,16.155221 50.0488803,16.329519 50.081767,16.5313958 L50.3834423,18.383772 L62.47379,12.2943726 L62.1719309,10.4006281 C62.128572,10.1287012 62.2628744,9.85916433 62.5063092,9.73046326 L67.716364,6.97166376 C67.9037629,6.87256393 68.1279066,6.87201235 68.3154891,6.97056061 C68.5032554,7.06910886 68.6303926,7.25370297 68.6555629,7.46440502 L68.8482897,9.08383228 L74.6240318,6.17482024 L54.9570761,1.34430113 L52.9770788,2.65300721 C53.9655158,3.14262288 54.5343263,3.72858049 54.7061086,4.42834663 C54.9364989,5.3669452 54.3206549,6.03821324 54.2497373,6.11157285 C54.1911293,6.17224622 54.1211303,6.22078491 54.0437824,6.2546149 L31.687286,15.9744879 L25.9585774,18.560828 C20.6191806,20.9712153 12.348462,19.6216925 10.6221881,19.3017784 L2.30664072,26.3316151 Z M27.8886016,31.0773753 C27.8599406,31.0773753 27.8312796,31.0753529 27.8026186,31.0714919 L0.699052742,27.4132557 C0.447166672,27.3792418 0.239006994,27.1999796 0.16772195,26.9558153 C0.0966206305,26.7114671 0.175805821,26.4481815 0.370002449,26.2839957 L10.0271049,18.1199348 C10.1775752,17.9927046 10.3782022,17.9414081 10.5712964,17.9811215 C10.664261,18.0002428 19.9517101,19.8607088 25.429635,17.3876257 L31.1666112,14.7976085 L53.3794351,5.14006358 C53.4327152,5.05181142 53.500142,4.89681855 53.4547621,4.72638155 C53.3985425,4.51457635 53.0856599,3.96189716 51.3990705,3.4014959 C51.1653731,3.32390754 50.9963467,3.11964055 50.9640112,2.87529236 C50.9318595,2.63094417 51.0417266,2.38972158 51.2471305,2.25385002 L54.4830673,0.115389708 C54.6324351,0.0164737378 54.8161595,-0.0155176726 54.9906976,0.0273213999 L76.6231363,5.3406534 C76.8845761,5.40482008 77.078589,5.62526664 77.1087198,5.89314874 C77.1390343,6.16084698 76.9994038,6.41916842 76.7589086,6.54033129 L68.6072434,10.6460795 C68.4198445,10.740399 68.198273,10.7372734 68.0138137,10.6379897 C67.8291708,10.538706 67.704422,10.3555828 67.6796192,10.1472709 L67.4892807,8.54788422 L63.5144046,10.6525145 L63.8179173,12.5561873 C63.8620111,12.8328946 63.7221969,13.1064763 63.4719643,13.2324195 L50.1785897,19.9276334 C49.9959677,20.0197466 49.7800916,20.019195 49.5974696,19.9261625 C49.4152151,19.8329462 49.2878941,19.6584643 49.2550074,19.4562197 L48.9529646,17.6016372 L43.263573,20.4475857 L43.5659832,22.7759721 C43.6012583,23.0469798 43.4612604,23.310817 43.2172744,23.4338184 L28.1776,31.0086122 C28.087575,31.0540253 27.9885476,31.0773753 27.8886016,31.0773753 L27.8886016,31.0773753 Z" id="Fill-28" fill="#93820A" mask="url(#mask-4)"></path>
                            </g>
                            <path d="M162.080878,44.2048116 L162.082715,44.2048116 L162.080878,44.2048116 Z M162.611106,44.5688518 C162.585569,44.6061751 160.411559,47.8363882 160.861316,51.2784066 C160.956852,52.0101641 161.169238,52.4988605 161.429208,52.5856418 C161.845895,52.724639 162.705724,52.1454841 163.166689,51.6737027 C163.192594,51.6472271 163.220704,51.6231416 163.250651,51.6014463 L170.230522,46.5694181 C170.238239,46.5639023 170.245955,46.5585704 170.253672,46.5534224 C170.336164,46.4973455 172.367236,45.072073 172.150442,41.2715302 C172.008423,38.7802451 171.607904,38.2786786 171.442368,38.1788433 C171.242476,38.0580482 170.66154,38.3231724 170.382646,38.4505865 C168.959885,39.0999753 163.210415,43.5087226 162.641237,44.5204969 C162.631867,44.5370442 162.621762,44.5532238 162.611106,44.5688518 L162.611106,44.5688518 Z M161.557447,53.8914062 C161.378316,53.8914062 161.198817,53.8654821 161.022075,53.8064634 C160.239776,53.5452003 159.756765,52.7507469 159.586085,51.4453503 C159.086171,47.619435 161.310706,44.1970895 161.536135,43.862099 C162.403498,42.3974807 168.446008,37.9199703 169.848743,37.2797744 C170.437212,37.0111568 171.326254,36.6055646 172.106899,37.0767944 C172.910509,37.5621813 173.295228,38.7561596 173.434307,41.1981706 C173.688214,45.6484699 171.217673,47.4530429 170.974606,47.6190673 L164.044707,52.6152431 C163.785105,52.8715421 162.681105,53.8914062 161.557447,53.8914062 L161.557447,53.8914062 Z" id="Fill-31" fill="#93820A"></path>
                            <path d="M87.47193,82.0124994 C87.5095935,82.3132922 87.9819488,85.5181328 91.0306705,86.0899333 C93.745565,86.5994057 94.7637653,84.8976098 94.9833159,84.4443981 L94.1844825,60.2142142 C94.1697845,59.997261 93.8760093,56.5956916 90.0323124,55.6328236 C88.9782859,55.3686187 88.1763291,55.4440008 87.6495914,55.8562119 C86.6576637,56.6320956 86.6602359,58.4914584 86.6613382,59.3848277 C86.6613382,59.4734476 86.6615219,59.5530584 86.660787,59.6227409 C86.6479263,60.7955754 87.4392271,81.1737361 87.47193,82.0124994 M91.9908139,87.4710797 C91.6178535,87.4710797 91.2191716,87.4348596 90.7936661,87.3550649 C87.5277822,86.7424478 86.3547023,83.6698015 86.1908202,82.1309044 C86.1893504,82.1165634 86.1884318,82.1020386 86.1876969,82.0876976 C86.1540753,81.2202523 85.3613048,60.8319794 85.3747167,59.6085837 C85.3754516,59.5436816 85.3752678,59.4692189 85.3752678,59.3866663 C85.373798,58.28903 85.3706747,56.0051375 86.8575558,54.8422313 C87.7129763,54.1731696 88.88624,54.0189121 90.3446438,54.3842393 C95.1697961,55.5931102 95.4666947,60.1033475 95.4690831,60.1487605 C95.4692668,60.1531732 95.4694505,60.1575858 95.4696343,60.1619984 L96.2734282,84.5475429 C96.2761841,84.6315663 96.2625885,84.715222 96.2331926,84.7939135 C95.8565577,85.8029299 94.5219841,87.4710797 91.9908139,87.4710797" id="Fill-33" fill="#93820A"></path>
                            <path d="M37.3603997,49.5460166 L39.4726784,71.4432177 C39.4868252,71.5680577 39.8717277,74.6971486 42.7492183,74.8446033 C43.6279718,74.8896486 44.2634743,74.7015612 44.6373534,74.2853052 C45.2048778,73.6533829 45.0628589,72.6428956 45.0612054,72.6327833 C45.0584495,72.6151329 45.0564286,72.5972986 45.0549588,72.5796482 L43.3867418,50.2253744 C43.2869795,49.8372487 42.4870437,47.0892969 39.8590507,46.9769592 C39.0850201,46.9436808 38.4866299,47.1337907 38.076006,47.5412215 C37.3692185,48.2420908 37.3589299,49.4051808 37.3603997,49.5460166 M42.9974299,76.1382329 C42.8949117,76.1382329 42.7901888,76.1354751 42.6832613,76.1299593 C39.4980324,75.9666928 38.3534298,73.0779052 38.1932221,71.5732058 L36.0780038,49.6462195 C36.0769015,49.6344526 36.0761666,49.6228695 36.0756154,49.6111025 C36.0724921,49.5371913 36.0131491,47.7842827 37.1617937,46.6357175 C37.838083,45.9596691 38.7636862,45.6425129 39.9138006,45.6910516 C41.4806017,45.7579762 42.8004774,46.5305503 43.7312249,47.9247507 C44.4100863,48.9418569 44.641579,49.939658 44.6511327,49.9815778 C44.6582979,50.0128337 44.6630748,50.0442736 44.6652795,50.076265 L46.3360686,72.4630818 C46.3676692,72.7024658 46.5100556,74.1253481 45.5938223,75.1455799 C45.0016787,75.8048971 44.1291718,76.1382329 42.9974299,76.1382329" id="Fill-35" fill="#93820A"></path>
                            <path d="M23.1543377,89.0214865 L25.9032212,89.6942254 L16.6582124,20.1925186 C16.6233048,19.9303361 16.7520956,19.6736694 16.9830371,19.5451522 L26.5080418,14.2435871 L16.6640916,14.0904328 L1.36058897,18.105171 L11.0423105,86.0545589 L13.8521906,87.0826967 L13.8453928,86.8508509 C13.8396973,86.6557768 13.9227407,86.4684248 14.0713737,86.34193 C14.2200067,86.2154353 14.418429,86.1630355 14.609686,86.200175 L22.3738767,87.6962331 C22.6037158,87.740543 22.7912984,87.9061997 22.8638695,88.1290364 L23.1543377,89.0214865 Z M26.6647586,91.1866063 C26.613867,91.1866063 26.5626079,91.1805389 26.5120837,91.1682204 L22.5010139,90.1865989 C22.2847704,90.1336476 22.1113346,89.9725874 22.0422542,89.7607822 L21.7584001,88.8883728 L15.1546124,87.615703 L15.1656359,87.994268 C15.1718825,88.2075441 15.0721202,88.4101563 14.8990519,88.5349964 C14.7259835,88.6600203 14.502391,88.6909085 14.3021315,88.6175489 L10.2392514,87.1310515 C10.0167613,87.0496021 9.85692109,86.8523217 9.82348326,86.6175342 L0.00654058651,17.7188839 C-0.0395742229,17.3952926 0.163992346,17.0884325 0.479998211,17.0055122 L16.4230453,12.8232788 C16.4796324,12.8083863 16.5382404,12.8017674 16.5961136,12.8023189 L28.9300797,12.9940835 C29.2210991,12.9984961 29.4728014,13.1981667 29.543719,13.4807575 C29.6146366,13.7633483 29.4869482,14.0582576 29.23249,14.1998288 L17.9907651,20.4569074 L27.3022821,90.4581582 C27.3302082,90.6690441 27.2524928,90.87993 27.0944899,91.0220528 C26.975069,91.1292424 26.8216592,91.1866063 26.6647586,91.1866063 L26.6647586,91.1866063 Z" id="Fill-37" fill="#93820A"></path>
                            <path d="M28.0612473,88.1849295 C28.1191205,88.1849295 28.1773611,88.1926515 28.2348668,88.2088311 L110.464737,111.275006 L110.908983,34.9951648 L18.3282667,22.9947087 L27.1060645,88.9828761 L27.5628032,88.4219233 C27.6868171,88.2696883 27.8709089,88.1849295 28.0612473,88.1849295 M111.102812,112.765916 C111.044755,112.765916 110.986331,112.75801 110.929192,112.742014 L28.2934749,89.562031 L27.1633865,90.9497963 C27.0011579,91.1487314 26.7364111,91.2323871 26.489853,91.1623369 C26.2429275,91.0924706 26.0612242,90.882504 26.0274189,90.6280436 L16.9429852,22.3337368 C16.9167126,22.1355371 16.9839557,21.9364182 17.125056,21.7946631 C17.2661563,21.6529081 17.464946,21.5848804 17.6630009,21.6108044 L111.637817,33.7918097 C111.959886,33.8335457 112.200197,34.108966 112.19836,34.4338443 L111.745847,112.126088 C111.744561,112.326861 111.649943,112.5155 111.489735,112.636295 C111.376929,112.721238 111.240789,112.765916 111.102812,112.765916" id="Fill-39" fill="#93820A"></path>
                            <path d="M18.1526813,21.6741805 L110.916387,33.6983544 L110.927778,31.7360307 C110.92888,31.5479432 111.012291,31.3696003 111.15578,31.2482536 L118.029275,25.4375839 L27.1840187,15.3400651 L17.9908202,20.4568522 L18.1526813,21.6741805 Z M111.555196,35.0734334 C111.527821,35.0734334 111.500263,35.0717787 111.472704,35.0681015 L17.4978878,22.8870962 C17.2090731,22.8495891 16.9814387,22.6227075 16.9430403,22.3338655 L16.6580838,20.1924634 C16.6231762,19.9304648 16.751967,19.6736142 16.9829085,19.545097 L26.7383035,14.1153825 C26.8549684,14.0504804 26.988536,14.0234531 27.1217362,14.0383457 L119.657623,24.3235841 C119.913,24.3518984 120.127039,24.5296897 120.201815,24.7758765 C120.276591,25.0218794 120.197957,25.2888422 120.001739,25.4546827 L112.212195,32.0399491 L112.198231,34.4337891 C112.197129,34.6181994 112.117025,34.7932328 111.978313,34.9145795 C111.860362,35.0177243 111.709892,35.0734334 111.555196,35.0734334 L111.555196,35.0734334 Z" id="Fill-41" fill="#93820A"></path>
                            <g id="Group-45" transform="translate(15.800293, 0.000000)" fill="#93820A">
                                <path d="M6.94119743,12.8978519 L9.60648644,12.9392201 L70.1916086,2.77587997 C70.2158602,2.77183508 70.2404793,2.76926106 70.2650983,2.76797405 L71.2990989,2.71520661 L71.173064,1.53225986 L57.7475916,2.9639674 L6.94119743,12.8978519 Z M9.65498966,14.2271502 C9.65168262,14.2271502 9.64837559,14.2271502 9.64506855,14.2269663 L0.775959751,14.0890723 C0.446725733,14.0839242 0.174446261,13.8309347 0.145417815,13.502747 C0.116205645,13.1745592 0.339430718,12.8772597 0.662601833,12.8141962 L57.5284084,1.69534251 C57.5465971,1.69184919 57.5649696,1.68909131 57.5835257,1.68706887 L71.676285,0.184391871 C71.8460463,0.166189861 72.0156238,0.216383281 72.1482728,0.323572892 C72.2811055,0.430762502 72.3658024,0.586306946 72.3838074,0.756008508 L72.6498402,3.25501569 C72.6685801,3.43078459 72.6141977,3.60673735 72.4995537,3.74113804 C72.384726,3.87553874 72.2197416,3.95680427 72.0431825,3.96581335 L70.3676165,4.05130764 L9.76136606,14.2183249 C9.72627471,14.2242084 9.69063218,14.2271502 9.65498966,14.2271502 L9.65498966,14.2271502 Z" id="Fill-43"></path>
                            </g>
                            <path d="M82.6958137,4.63380871 L164.161023,9.95670136 C164.236167,9.68128106 164.17664,9.51084406 164.108478,9.41358282 L86.1296216,4.05777946 L82.6958137,4.63380871 Z M164.573485,11.2720264 C164.559521,11.2720264 164.545375,11.2714748 164.531412,11.2705555 L77.0879956,5.557147 C76.7622524,5.53581939 76.5041197,5.27363691 76.4875845,4.94747162 C76.471233,4.62112246 76.7016234,4.33430292 77.0235084,4.28043232 L85.9918283,2.77591674 C86.0416176,2.7676431 86.0919581,2.76506908 86.1421149,2.76856239 L164.421177,8.14495793 C164.527002,8.15212841 164.629153,8.18559069 164.718994,8.24185145 C165.20568,8.54760844 165.919082,9.50422515 165.137702,10.936852 C165.024528,11.1442446 164.807366,11.2720264 164.573485,11.2720264 L164.573485,11.2720264 Z" id="Fill-46" fill="#93820A"></path>
                            <g id="Group-50" transform="translate(135.588563, 10.112227)">
                                <mask id="mask-6" fill="white">
                                    <use xlink:href="#path-5"></use>
                                </mask>
                                <g id="Clip-49"></g>
                                <path d="M3.71793761,25.687742 L1.40870638,109.342522 L16.3306136,94.1784099 L16.0105658,91.1723205 C15.9912747,90.9912197 16.049699,90.8103027 16.1711408,90.6747989 L21.4267593,84.8063975 C21.5965206,84.6170231 21.8616348,84.545502 22.1030486,84.6234581 C22.3448298,84.7015981 22.5180819,84.9148741 22.5450894,85.1676798 L22.7400209,86.9987284 L35.7067337,73.6524268 L35.4350054,71.1004683 C35.415898,70.9210222 35.4728526,70.7419439 35.5920897,70.6066239 L39.2956049,66.4037983 C39.4640801,66.2125853 39.730113,66.1386741 39.9729966,66.2162625 C40.2158801,66.293667 40.3902345,66.5074946 40.417242,66.7612196 L40.5682634,68.1784023 L47.8975785,60.9968823 L50.9674285,1.89017755 L43.8043839,5.49785258 C43.6171688,5.59217208 43.3955973,5.58923034 43.2109543,5.48994665 C43.0263114,5.39066296 42.9015625,5.20753972 42.8767598,4.99922783 L42.6866051,3.39984117 L38.711729,5.50447149 L39.0152416,7.40814426 C39.0591517,7.68485158 38.9193375,7.95843329 38.6691049,8.08437649 L25.375914,14.7795903 C25.1931083,14.8717035 24.9772322,14.871152 24.7947939,14.7781195 C24.6123556,14.6849031 24.4850347,14.5104212 24.452148,14.3081767 L24.1501052,12.4535942 L18.4608973,15.2995427 L18.7631238,17.627929 C18.7983989,17.8989367 18.6585847,18.1627739 18.4145988,18.2855915 L3.71793761,25.687742 Z M0.720658724,111.602145 C0.635778079,111.602145 0.550162537,111.585414 0.468772654,111.550665 C0.225705352,111.447153 0.0706420088,111.205195 0.0779909824,110.94099 L2.44307441,25.2679926 C2.44950477,25.0313665 2.58527705,24.817355 2.79674377,24.7109008 L17.4291014,17.3412933 L17.1265074,15.0114361 C17.0914161,14.739693 17.2317815,14.4754881 17.476686,14.3530382 L24.3567951,10.9113876 C24.5397845,10.8198259 24.7552932,10.8209291 24.9371803,10.9139616 C25.1192511,11.0071779 25.2460209,11.181476 25.2789076,11.3833528 L25.5805829,13.235729 L37.6711143,7.1463295 L37.3692552,5.2525851 C37.3257125,4.98065811 37.4601988,4.71112128 37.7034498,4.58242021 L42.9135046,1.82362071 C43.1009034,1.72452088 43.3252309,1.7239693 43.5128134,1.82251756 C43.7005797,1.92106581 43.8275332,2.10565992 43.8527034,2.31636197 L44.0454303,3.93578923 L51.3780524,0.242619915 C51.5825376,0.139659054 51.8267073,0.153264596 52.0185155,0.278656216 C52.2103237,0.403863977 52.3211095,0.621920372 52.3091674,0.850824429 L49.1687672,61.3144062 C49.1604996,61.4756503 49.0917867,61.6278852 48.9765916,61.7407745 L40.5193927,70.0274691 C40.3430174,70.2001124 40.0835986,70.256557 39.8521059,70.173269 C39.6200621,70.089981 39.45618,69.8811175 39.4299074,69.6358501 L39.2934002,68.3523326 L36.7438576,71.2455328 L37.0176068,73.8164287 C37.0378165,74.0065386 36.9724106,74.1959131 36.8392105,74.3330716 L22.7067668,88.8790511 C22.5329636,89.0579456 22.2713401,89.1202737 22.0358055,89.0386405 C21.8000872,88.9571911 21.6327143,88.7468567 21.606258,88.4986475 L21.4194103,86.742981 L17.3196017,91.3205106 L17.6416705,94.344802 C17.6620639,94.5363827 17.5955556,94.7270442 17.4603345,94.8643866 L1.17886723,111.410197 C1.0555882,111.535589 0.889501393,111.602145 0.720658724,111.602145 L0.720658724,111.602145 Z" id="Fill-48" fill="#93820A" mask="url(#mask-6)"></path>
                            </g>
                        </g>
                    </g>
                </g>
            </g>
        </g>
    </g>
</svg>