<?xml version="1.0" encoding="UTF-8" standalone="no"?>
<svg width="232px" height="88px" viewBox="0 0 232 88" version="1.1" xmlns="http://www.w3.org/2000/svg" xmlns:xlink="http://www.w3.org/1999/xlink">
    <!-- Generator: Sketch 46 (44423) - http://www.bohemiancoding.com/sketch -->
    <title>Caja carton 12</title>
    <desc>Created with Sketch.</desc>
    <defs>
        <polygon id="path-1" points="58.829917 56.1333786 58.829917 0.150964761 0.0394528488 0.150964761 0.0394528488 56.1333786 58.829917 56.1333786"></polygon>
        <polygon id="path-3" points="0.168490363 0.0550511628 25.0209236 0.0550511628 25.0209236 38.965254 0.168490363 38.965254 0.168490363 0.0550511628"></polygon>
    </defs>
    <g id="7-Productos" stroke="none" stroke-width="1" fill="none" fill-rule="evenodd">
        <g id="7.4-Piña-MD2" transform="translate(-678.000000, -1777.000000)">
            <g id="Group-7" transform="translate(348.000000, 1715.000000)">
                <g id="Group-6" transform="translate(309.000000, 0.000000)">
                    <g id="Caja-carton-12" transform="translate(21.000000, 62.000000)">
                        <polygon id="Fill-1" fill="#EAE406" points="232 29.952709 225.032434 59 223.745418 59 207.127291 59 214.503988 29.9201452 214.74042 28.990337 184.076141 10.1809719 174 4 185.149339 5.06907466 185.566694 5.62204431 185.979937 5.84138894 186.857821 5.97451126 188.759562 6.98603612 189.109071 7.69281326 190.01985 8.17614969 191.228741 8.2969838 193.55606 9.53399739 193.924072 10.2485571 195.106235 10.877304 196.251391 10.9653696 198.6445 12.2351517 199.201659 13.052318 200.875191 13.9411655 201.929886 13.980283 204.799972 15.5058648 205.390025 16.3394154 206.919641 17.1524856 208.101804 17.2591882 211.278225 18.9467697 211.783985 19.7350586 213.934494 20.8778626 215.27702 21.0705828 218.763886 22.9220071 219.374499 23.7678458 222.051327 25.1889778 223.192372 25.2749953"></polygon>
                        <g id="Group-111">
                            <path d="M61.8829797,57.8852949 C61.8829797,55.2678065 59.7370309,52.9100205 57.0914528,52.621667 C54.4458747,52.3331088 52.2999259,54.2199926 52.2999259,56.8395274 C52.2999259,59.4570158 54.4458747,61.8145972 57.0914528,62.1029507 C59.7370309,62.3917135 61.8829797,60.5027833 61.8829797,57.8852949 L61.8829797,57.8852949 Z M187.216219,55.7998995 C189.460455,55.6627833 191.280826,53.7308763 191.280826,51.4878995 C191.280826,49.2449228 189.460455,47.5379274 187.216219,47.6750437 C184.971982,47.8144112 183.151612,49.7442716 183.151612,51.9872484 C183.151612,54.232067 184.971982,55.9390623 187.216219,55.7998995 L187.216219,55.7998995 Z M178.6529,31.5610158 L194.118884,30.8936484 L213.919767,30.0425042 L206.572759,59.1007181 L223.124004,59.1007181 L219.280544,76.1770158 L133.956554,80.9494809 L133.766122,79.3757135 C133.438496,76.6640856 131.075495,74.6623926 128.345963,74.7831367 L120.394895,75.1373879 C117.616219,75.259974 115.421126,77.537946 115.40065,80.3169042 L115.388364,81.9870623 L17.0432974,87.4878809 L12.6653981,70.2953414 L12.6367308,70.0681786 L31.6717882,67.6389693 L21.2082401,35.5169228 L44.7665808,34.6285321 L47.121391,34.5407367 L64.4835093,33.8856484 L66.4820265,33.8099274 L69.5023266,36.0080856 L69.5043742,36.0080856 L75.8152657,40.6004577 L75.8173133,40.6004577 L81.0040388,44.3740205 L165.463915,41.7076205 L169.600191,38.1548763 L177.209299,31.6224112 L178.6529,31.5610158 Z" id="Fill-2" fill="#EAE406"></path>
                            <polygon id="Fill-4" fill="#CCBA15" points="214.155268 29.1134288 213.919787 30.0425451 194.118905 30.8936893 192.904642 22.5787126 183.151632 22.8161079 183.614404 10.3180614"></polygon>
                            <polygon id="Fill-6" fill="#E2D100" points="192.904662 22.578774 194.118925 30.8937507 178.652941 31.5611181 179.30205 22.9103088 183.151653 22.8161693"></polygon>
                            <path d="M191.280826,51.4879609 C191.280826,53.7309377 189.460455,55.66264 187.216219,55.7997563 C184.971982,55.9391237 183.151612,54.2321284 183.151612,51.9871051 C183.151612,49.7441284 184.971982,47.8144726 187.216219,47.6751051 C189.460455,47.5379888 191.280826,49.2449842 191.280826,51.4879609" id="Fill-8" fill="#CCBA15"></path>
                            <path d="M157.541515,23.4403553 C159.417172,23.1743088 160.938584,21.44296 160.938584,19.5706065 C160.938584,17.6978437 159.417172,16.3962623 157.541515,16.6623088 C155.663809,16.92856 154.144445,18.6617507 154.144445,20.5322623 C154.144445,22.4048205 155.663809,23.7066065 157.541515,23.4403553 L157.541515,23.4403553 Z M183.614383,10.3181228 L183.151612,22.8161693 L179.302009,22.9103088 L178.6529,31.5611181 L177.209299,31.6223088 L169.600191,38.154774 L158.141479,38.4535647 L158.039096,35.3144205 C158.012477,34.5222158 157.363368,33.8939367 156.570923,33.8939367 L149.750164,33.8939367 L151.447675,6.90658791 L151.846969,0.566494884 L160.53929,0.566494884 L161.663456,5.88333209 L173.578796,5.5845414 L173.578796,4.1417507 L183.614383,10.3181228 Z" id="Fill-10" fill="#CCBA15"></path>
                            <polygon id="Fill-12" fill="#CCBA15" points="169.600211 38.1548558 165.463936 41.7076 81.0040593 44.3742047 75.8173338 40.6004372 109.050873 39.7347628 121.899946 39.3991349 158.1415 38.4536465"></polygon>
                            <path d="M158.039137,35.3143181 L158.14152,38.453667 L121.899967,39.3991553 L121.492482,37.859974 C121.093188,36.3580391 119.715112,35.3225042 118.160938,35.3593414 L112.566728,35.4882716 C110.97979,35.5251088 109.634477,36.6650158 109.337566,38.2224112 L109.050894,39.7327367 L109.050894,39.7347833 L75.8173543,40.6004577 L75.8153066,40.6004577 L69.5044152,36.0080856 L80.326304,35.3081786 L75.813259,6.89011349 L75.8153066,6.89011349 L79.4601433,6.89011349 L87.7797903,13.7481786 L141.731564,13.148346 L148.699755,6.89011349 L151.17333,6.89011349 L151.447716,6.90648558 L149.750205,33.8940391 L156.570964,33.8940391 C157.363409,33.8940391 158.012518,34.5223181 158.039137,35.3143181" id="Fill-14" fill="#CCBA15"></path>
                            <path d="M133.766142,79.3756726 L133.956575,80.94944 L115.388384,81.9870214 L115.40067,80.3170679 C115.421147,77.5381098 117.616239,75.2601377 120.394915,75.137347 L128.345983,74.7833005 C131.075516,74.6625563 133.438517,76.6640447 133.766142,79.3756726" id="Fill-16" fill="#CCBA15"></path>
                            <path d="M75.1559393,22.5767888 C75.1559393,20.4381842 73.4399993,18.5676726 71.3247654,18.3978121 C69.2095315,18.2279516 67.4935915,19.8242307 67.4935915,21.9607888 C67.4935915,24.097347 69.2095315,25.9678586 71.3247654,26.1377191 C73.4399993,26.3075795 75.1559393,24.713347 75.1559393,22.5767888 L75.1559393,22.5767888 Z M75.8132385,6.89027721 L80.3262835,35.3081377 L69.5043947,36.0080447 L69.502347,36.0080447 L66.482047,33.8100912 L64.4835297,33.8858121 L62.9703082,26.8478586 L47.5514203,27.2100912 L47.1214115,34.5406958 L44.7666012,34.6286958 C44.7666012,34.6286958 40.1327442,15.6329749 40.2556039,15.5060912 L50.3587636,4.88878884 L51.3600699,7.44897488 L64.4835297,7.14609116 L65.6916498,1.88860279 L74.9429825,1.40562605 L75.8132385,6.89027721 Z" id="Fill-18" fill="#CCBA15"></path>
                            <polygon id="Fill-20" fill="#E2D100" points="62.9703082 26.8478791 64.4835297 33.8858326 47.1214115 34.5407163 47.5514203 27.2101116"></polygon>
                            <path d="M57.0914733,52.6217284 C59.7370514,52.9100819 61.8830002,55.2678679 61.8830002,57.8853563 C61.8830002,60.5028447 59.7370514,62.3915702 57.0914733,62.1030121 C54.4458951,61.8146586 52.2999463,59.4568726 52.2999463,56.8393842 C52.2999463,54.220054 54.4458951,52.3331702 57.0914733,52.6217284" id="Fill-22" fill="#CCBA15"></path>
                            <polygon id="Fill-24" fill="#EAE406" points="50.3587432 4.88885023 40.2555834 15.5061526 21.2082401 35.5169433 31.6717882 67.6389898 12.6367308 70.0681991 11.2934651 70.2378549 0.512529568 38.4227851 8.10935216 31.9414828 9.09427714 31.7861526 11.6886637 29.5716223 11.6948067 28.8841991 14.5246743 26.4693153 15.6734122 26.2053153 17.5756893 24.582227 17.553165 23.8866177 19.9980724 21.8012223 21.2082401 21.5454084 22.7828914 20.2028967 22.821797 19.390227 24.9493169 17.5772223 26.0427679 17.3971293 27.232459 16.3798084 27.4966072 15.403827 29.527887 13.6704316 30.6008614 13.5189898 32.0198906 12.3074549 32.1099876 11.4681805 36.1950715 7.98317581 37.0468985 7.96066419 37.7512939 7.36103628 37.4932886 6.87805953 37.8741536 6.55061767"></polygon>
                            <path d="M44.7665808,34.628614 L21.2082401,35.5170047 L40.2555834,15.506214 C40.1327237,15.6330977 44.7665808,34.628614 44.7665808,34.628614" id="Fill-26" fill="#CCBA15"></path>
                            <path d="M1.10864466,38.5869358 L11.6442704,69.6779498 L12.5724752,69.5606847 L30.9936438,67.2096521 L20.721552,35.6751591 C20.6633984,35.4964986 20.7078327,35.3004428 20.8374496,35.1643498 L39.8847929,15.1535591 L48.9874655,5.58754977 L38.1545193,7.02952186 L38.2028441,7.12018233 C38.3162846,7.33220093 38.2663216,7.59476837 38.0832607,7.75050791 L37.3788653,8.35013581 C37.2897921,8.42585674 37.1773755,8.46903814 37.060454,8.47210791 L36.3896402,8.48991256 L32.5973719,11.7252428 L32.5287753,12.3619126 C32.5148512,12.491866 32.4517832,12.611587 32.3524717,12.6963126 L30.9334425,13.9078474 C30.8593172,13.9712893 30.7688106,14.0120149 30.6723658,14.0255219 L29.7470277,14.156294 L27.9493861,15.6901544 L27.7266005,16.513466 C27.6997762,16.6127219 27.6434655,16.7019498 27.5652448,16.768666 L26.3755538,17.7857823 C26.3044999,17.8465637 26.2182934,17.88688 26.1259439,17.9020242 L25.1731672,18.058787 L23.3224911,19.6358288 L23.2942334,20.2272707 C23.2874761,20.36848 23.22277,20.50048 23.115063,20.5921637 L21.5406164,21.9346753 C21.4755008,21.9899312 21.3976897,22.0282009 21.3141451,22.0460056 L20.2313419,22.2748056 L18.0726976,24.1160521 L18.0874408,24.5656707 C18.0923552,24.7212056 18.0264205,24.8706009 17.9080657,24.971494 L16.0057885,26.5943777 C15.9431301,26.6479963 15.8683905,26.6856521 15.7881222,26.7040707 L14.7616297,26.9398288 L12.2045105,29.1218195 L12.2006199,29.5763498 C12.1991866,29.7243126 12.1338662,29.8647033 12.0210401,29.9608893 L9.42665349,32.1752149 C9.35478058,32.2366102 9.26734545,32.2767219 9.17417688,32.2914567 L8.33197387,32.42448 L1.10864466,38.5869358 Z M11.3117303,70.8070102 C11.2500957,70.8070102 11.1894849,70.7957544 11.1329695,70.7746753 L10.917146,70.8027126 C10.6368212,70.8377079 10.3800445,70.6414474 10.3435961,70.3610753 C10.3149289,70.1410753 10.4310312,69.9351963 10.6179827,69.8396242 L0.0276843778,38.5869358 C-0.0394789056,38.3886288 0.0209270962,38.1696521 0.180235128,38.0337637 L7.77705772,31.5524614 C7.84893063,31.491066 7.93616099,31.4509544 8.02953433,31.4362195 L8.87173733,31.3031963 L11.1788371,29.3340428 L11.1829324,28.8795126 C11.184161,28.7315498 11.2496861,28.5911591 11.3623075,28.494973 L14.1923799,26.080294 C14.2550383,26.0266753 14.3295732,25.9890195 14.4100462,25.9708056 L15.4365387,25.7348428 L17.0560339,24.3528335 L17.0414955,23.9032149 C17.0365811,23.74768 17.1025158,23.5984893 17.2208706,23.4975963 L19.6657779,21.4119963 C19.7306888,21.3565358 19.8084999,21.318266 19.8920445,21.3004614 L20.9750524,21.0716614 L22.2820745,19.9573358 L22.310537,19.365894 C22.3172943,19.2248893 22.3820004,19.0926847 22.4897073,19.0010009 L24.6172272,17.1879963 C24.6880763,17.1276242 24.7742828,17.0875126 24.866018,17.0723684 L25.8185899,16.9154009 L26.7795573,16.0939312 L27.0025476,15.2702102 C27.0293719,15.1707498 27.0858874,15.0817265 27.1643128,15.0146009 L29.1955926,13.2814102 C29.2695132,13.218173 29.3600198,13.1774474 29.4562598,13.1637358 L30.3815979,13.0331684 L31.5325882,12.0506381 L31.6009801,11.4137637 C31.6149041,11.2836056 31.6781769,11.1640893 31.7776932,11.0791591 L35.8627771,7.59415442 C35.9518503,7.51802419 36.0642669,7.47484279 36.1813931,7.47177302 L36.8526164,7.45396837 L37.1057073,7.2384707 L37.0416155,7.11874977 C36.9287894,6.90754977 36.9777285,6.64641488 37.1595608,6.4900614 L37.5404258,6.16261953 C37.6155749,6.09794977 37.7081292,6.05661023 37.8066217,6.04330791 L50.2912113,4.38154047 C50.5064205,4.3532986 50.7163057,4.46319628 50.8147982,4.65638698 C50.9134955,4.84957767 50.8792996,5.08431256 50.7296155,5.24148465 L40.6264558,15.8585823 L21.789612,35.6487591 L32.1585582,67.4808149 C32.2056544,67.6257079 32.1857921,67.7839033 32.1042951,67.9128335 C32.0225935,68.0415591 31.8878574,68.1273079 31.7365352,68.1463405 L11.6061839,70.7140986 C11.5650259,70.7429544 11.5189536,70.76608 11.4685811,70.7822474 C11.4165705,70.7990288 11.3637409,70.8070102 11.3117303,70.8070102 L11.3117303,70.8070102 Z" id="Fill-28" fill="#93820A"></path>
                            <path d="M17.0430722,87.9995907 C16.8104579,87.9995907 16.6052823,87.8418047 16.5471287,87.6140279 L12.1692293,70.4212837 C12.0996088,70.1476651 12.2652646,69.8691349 12.5392417,69.7993488 C12.8132187,69.7297674 13.0919054,69.8951256 13.1615259,70.1691535 L17.4356088,86.9536186 L115.359881,81.4761302 L133.928071,80.4387535 L218.865872,75.6877767 L222.624559,58.9884465 C222.686603,58.712986 222.959965,58.5402605 223.2364,58.6016558 C223.51222,58.6636651 223.685452,58.9372837 223.623408,59.2131535 L219.779948,76.2892465 C219.72978,76.5123163 219.537505,76.675014 219.30919,76.687907 L133.985201,81.4603721 L115.41701,82.4977488 L17.0719442,87.9987721 C17.0623202,87.999386 17.0526962,87.9995907 17.0430722,87.9995907" id="Fill-30" fill="#93820A"></path>
                            <g id="Group-34" transform="translate(173.027361, 3.479070)">
                                <mask id="mask-2" fill="white">
                                    <use xlink:href="#path-1"></use>
                                </mask>
                                <g id="Clip-33"></g>
                                <path d="M34.2027792,55.1101228 L50.9745568,55.1101228 L57.7281525,26.8617135 L49.3999054,22.423853 L48.3707509,22.3460856 C48.3001066,22.3407647 48.2311004,22.3207088 48.1686468,22.2873507 L45.5025921,20.8672763 C45.4333811,20.8304391 45.3735894,20.7780484 45.3277218,20.7146065 L44.7891869,19.9659926 L41.5006432,18.2141786 L40.2521843,18.0344949 C40.1934164,18.0261042 40.1366962,18.0072763 40.0842761,17.9794437 L37.9424226,16.8374902 C37.8648162,16.7961507 37.7992911,16.735574 37.7519901,16.6614902 L37.3205479,15.9865507 L34.3665921,14.4121693 L33.2923891,14.31496 C33.2242019,14.3088205 33.1580625,14.2889693 33.0976565,14.2568391 L31.5741966,13.444374 C31.5035523,13.4067181 31.4427368,13.3530995 31.3966644,13.2878158 L30.8792205,12.5541414 L28.2320042,11.142253 L27.2994994,11.107667 C27.221893,11.1050065 27.1461296,11.0845414 27.0775329,11.0479088 L25.4107368,10.1597228 C25.3376353,10.1208391 25.2747721,10.06456 25.2282902,9.99579721 L24.7444279,9.28381581 L22.5671499,8.12467163 L21.5332858,8.04485767 C21.4628462,8.03953674 21.3940448,8.01948093 21.3315912,7.98612279 L20.1541861,7.35784372 C20.0622461,7.30893209 19.9875064,7.23280186 19.9397959,7.14029953 L19.6465709,6.56850419 L17.5591852,5.45540651 L16.4557006,5.34469023 C16.3893564,5.3381414 16.3248551,5.31849488 16.2660872,5.28718326 L15.3589733,4.80420651 C15.2643714,4.75365767 15.1879936,4.67507163 15.1404879,4.57868093 L14.8650775,4.02018791 L13.1937765,3.12831814 L12.4060413,3.00839256 C12.3489116,2.99959256 12.2936247,2.9813786 12.242638,2.95416 L11.8310581,2.73518326 C11.7649186,2.69998326 11.7073793,2.65066233 11.6623308,2.59090419 L11.3822108,2.21864372 L2.69848967,1.38325767 L41.3964173,25.1987181 C41.5868498,25.3159833 41.6789945,25.543146 41.6241172,25.7600763 L41.3886362,26.6891926 L34.2027792,55.1101228 Z M51.3785603,56.1333786 L33.54548,56.1333786 C33.3876053,56.1333786 33.2385356,56.0607274 33.1414764,55.9360949 C33.0446221,55.811667 33.0104261,55.6493786 33.0491269,55.4965042 L40.5392664,25.8730437 L0.283068667,1.09838326 C0.0801454545,0.973546047 -0.00974686673,0.725508837 0.0662213592,0.499778605 C0.141984819,0.274253023 0.363132215,0.129769302 0.600456134,0.153508837 L11.7049222,1.22178791 C11.8480537,1.23549953 11.9786944,1.30856 12.0651057,1.42357395 L12.4123891,1.88526698 L12.6466415,2.00989953 L13.4345815,2.12982512 C13.491916,2.13862512 13.5474076,2.15704372 13.5985991,2.18446698 L15.4926856,3.19523907 C15.5872876,3.24558326 15.6634605,3.32437395 15.7107615,3.42056 L15.9859672,3.97864372 L16.6584191,4.3365786 L17.7619036,4.44729488 C17.8284526,4.45404837 17.8929539,4.47349023 17.9517218,4.50500651 L20.2698789,5.74109953 C20.3618189,5.79021581 20.4365585,5.8661414 20.484269,5.95884837 L20.7776989,6.53064372 L21.7192134,7.03306233 L22.752668,7.11287628 C22.8231075,7.11819721 22.8914994,7.13804837 22.953953,7.17140651 L25.3374305,8.44024372 C25.4107368,8.47933209 25.4736,8.53561116 25.5202867,8.60437395 L26.004149,9.31635535 L27.4553264,10.0897321 L28.388036,10.1243181 C28.4654376,10.1269786 28.5414058,10.1476484 28.6100025,10.1840763 L31.4685373,11.7085228 C31.5389769,11.7461786 31.5997924,11.7997972 31.6458648,11.8650809 L32.1635135,12.5987553 L33.4881455,13.3052112 L34.5621437,13.4022158 C34.6303308,13.4083553 34.6964703,13.4282065 34.7568763,13.4603367 L37.9205126,15.146867 C37.998119,15.1882065 38.0636441,15.2487833 38.1109451,15.322867 L38.5425921,15.9978065 L40.487051,17.0343647 L41.7353052,17.2140484 C41.7940731,17.2224391 41.8507933,17.2410623 41.9032134,17.2690995 L45.3760466,19.119146 C45.4452575,19.1557786 45.5048445,19.2081693 45.5507121,19.2718158 L46.089247,20.0202251 L48.5552452,21.3338809 L49.5843996,21.4116484 C49.6552487,21.4169693 49.7240501,21.4370251 49.7867086,21.4703833 L58.5588886,26.1446158 C58.7644738,26.2541042 58.8701331,26.4886344 58.8158701,26.7149786 L51.8763467,55.740653 C51.8212646,55.9708856 51.6154747,56.1333786 51.3785603,56.1333786 L51.3785603,56.1333786 Z" id="Fill-32" fill="#93820A" mask="url(#mask-2)"></path>
                            </g>
                            <path d="M81.0040798,44.8857507 C80.8959633,44.8857507 80.7905087,44.851574 80.7028688,44.7877228 L75.5161433,41.01416 C75.2874196,40.8479833 75.2370471,40.5277042 75.403522,40.2993135 C75.5697921,40.0711274 75.8898415,40.0205786 76.1185652,40.1867553 L81.1633878,43.8573786 L165.267381,41.2020298 L176.875776,31.2342902 C176.962802,31.1595926 177.072761,31.1162065 177.187635,31.1110902 L213.897693,29.5313879 C214.181089,29.5244298 214.419028,29.7380856 214.431109,30.0205042 C214.443395,30.3029228 214.224295,30.541546 213.941718,30.5538251 L194.140835,31.4049693 L177.408373,32.1259553 L165.79752,42.0957414 C165.709061,42.171667 165.596849,42.2152577 165.480133,42.219146 L81.0202563,44.885546 C81.0147276,44.8857507 81.0094037,44.8857507 81.0040798,44.8857507" id="Fill-35" fill="#93820A"></path>
                            <path d="M75.8148766,41.112106 C75.7104459,41.112106 75.6049914,41.0803851 75.5140752,41.0140781 L69.202979,36.421706 C68.97446,36.2553247 68.9240876,35.9352502 69.0905624,35.7068595 C69.2570372,35.4784688 69.5772914,35.4283293 69.8056056,35.5943014 L76.1164971,40.1868781 C76.3452208,40.3532595 76.3955933,40.6731293 76.2291184,40.9017247 C76.1289878,41.0392502 75.972956,41.112106 75.8148766,41.112106" id="Fill-37" fill="#93820A"></path>
                            <path d="M69.5019375,36.5196316 C69.3975068,36.5196316 69.2920523,36.4879107 69.2009313,36.4216037 L66.3241723,34.3280223 L21.2275086,36.0282642 C20.9445218,36.0407479 20.7074026,35.8184967 20.6967548,35.5362828 C20.686107,35.2538642 20.9064353,35.0162642 21.1890125,35.005827 L66.4625942,33.2988316 C66.5778775,33.2935107 66.6904989,33.3287107 66.7834627,33.3964502 L69.8037628,35.5944037 C70.0322817,35.7607851 70.0826542,36.0806549 69.9161793,36.3092502 C69.8160487,36.4467758 69.6600169,36.5196316 69.5019375,36.5196316" id="Fill-39" fill="#93820A"></path>
                            <path d="M115.388486,82.4986084 L115.384596,82.4986084 C115.101814,82.4965619 114.874524,82.2657153 114.876571,81.9830921 L114.888857,80.3131386 C114.911177,77.2589247 117.31984,74.7609526 120.372289,74.6260874 L128.323152,74.2722456 C131.303318,74.1384037 133.916748,76.3551851 134.274269,79.3142363 L134.464702,80.8882084 C134.498693,81.1685805 134.298637,81.4235758 134.017902,81.4573433 C133.737168,81.490906 133.482234,81.2915758 133.448448,81.0107944 L133.258015,79.437027 C132.964176,77.0057712 130.815156,75.1837619 128.36861,75.2944781 L120.417747,75.64832 C117.909772,75.7592409 115.931117,77.8116874 115.912688,80.3207107 L115.900402,81.9908688 C115.898149,82.2720595 115.669426,82.4986084 115.388486,82.4986084" id="Fill-41" fill="#93820A"></path>
                            <path d="M56.5574228,53.0743963 C55.5847838,53.0743963 54.6895463,53.4034753 53.9978464,54.023773 C53.2140018,54.7261358 52.78215,55.726266 52.78215,56.8393637 C52.78215,59.2153637 54.738895,61.3617451 57.1438729,61.6236986 C58.2997776,61.7505823 59.3799188,61.4219126 60.1846496,60.7009265 C60.9689038,59.9979498 61.4007555,58.9980242 61.4007555,57.8853358 C61.4007555,55.5093358 59.4442154,53.3629544 57.0392374,53.1010009 C56.8770627,53.0831963 56.7161165,53.0743963 56.5574228,53.0743963 M57.6283495,62.6144149 C57.4340265,62.6144149 57.237451,62.603773 57.0392374,62.5822847 C54.1600212,62.2683498 51.8177017,59.6922009 51.8177017,56.8393637 C51.8177017,55.4487591 52.3631986,54.1938381 53.3536523,53.3060614 C54.3651968,52.3992521 55.7107149,51.9864707 57.1438729,52.1424149 C60.0228844,52.4563498 62.3652039,55.0324986 62.3652039,57.8853358 C62.3652039,59.2757358 61.8195022,60.5304521 60.828639,61.4184335 C59.9571545,62.199587 58.8374934,62.6144149 57.6283495,62.6144149" id="Fill-43" fill="#93820A"></path>
                            <path d="M187.4689,48.1493842 C187.394775,48.1493842 187.320445,48.15184 187.245705,48.1561377 C185.254355,48.2799516 183.633836,49.9984074 183.633836,51.9872074 C183.633836,52.9374028 184.002005,53.8065563 184.670567,54.434426 C185.340561,55.0637284 186.234775,55.3774586 187.186323,55.3187237 C189.178288,55.1971609 190.798602,53.4785005 190.798602,51.4878586 C190.798602,50.5393005 190.430842,49.6711702 189.762895,49.0430958 C189.14532,48.4625005 188.337723,48.1493842 187.4689,48.1493842 M186.957599,56.2897935 C185.84531,56.2897935 184.807555,55.8862214 184.009991,55.1369935 C183.145469,54.3249377 182.669387,53.2063144 182.669387,51.9872074 C182.669387,49.498854 184.695753,47.3485842 187.186323,47.1940726 C188.408162,47.1197842 189.557719,47.5268353 190.42388,48.3411423 C191.287379,49.1529935 191.76305,50.2705935 191.76305,51.4878586 C191.76305,53.9786679 189.73648,56.128733 187.245705,56.2807888 C187.14926,56.2869284 187.05302,56.2897935 186.957599,56.2897935" id="Fill-45" fill="#93820A"></path>
                            <path d="M178.649317,32.1340391 C178.63785,32.1340391 178.626383,32.1336298 178.614711,32.1328112 C178.332544,32.1139833 178.119177,31.8702437 178.138016,31.5882344 L178.142111,31.5268391 L178.791629,22.8721414 C178.811287,22.6099833 179.026496,22.4053321 179.289416,22.3989879 L192.892233,22.067453 C193.150238,22.0508763 193.373843,22.248774 193.411315,22.5047926 L194.625373,30.8197693 C194.629059,30.8443274 194.630902,30.8688856 194.630902,30.8936484 C194.630902,31.1762716 194.401564,31.4065042 194.118987,31.4065042 C193.854838,31.4065042 193.637377,31.2075833 193.609938,30.9509507 L192.463658,23.101146 L179.777783,23.4105786 L179.159594,31.6565879 C179.141575,31.9267274 178.916537,32.1340391 178.649317,32.1340391" id="Fill-47" fill="#93820A"></path>
                            <path d="M5.94024431,38.1588465 C5.68756293,38.1588465 5.4678489,37.972 5.43344819,37.7147535 C5.39618076,37.4347907 5.59296099,37.1773395 5.87328579,37.1398884 C7.6506556,36.903107 9.62501041,36.6751256 11.5344544,36.4547163 C13.141254,36.2690977 14.6591852,36.0937116 16.0257942,35.9181209 C16.306119,35.882307 16.5628957,36.08 16.5989345,36.3603721 C16.6349733,36.6405395 16.4367598,36.8969674 16.156435,36.932986 C14.7832734,37.1093953 13.2622708,37.284986 11.6519901,37.4712186 C9.74684625,37.6912186 7.77699629,37.918586 6.00843142,38.1545488 C5.98549762,38.157414 5.96276858,38.1588465 5.94024431,38.1588465" id="Fill-49" fill="#93820A"></path>
                            <path d="M47.1218415,35.0523033 C47.1118079,35.0523033 47.1015696,35.0520986 47.0915361,35.0514847 C46.8091636,35.0349079 46.5937497,34.7928056 46.6103357,34.5107963 L47.0403446,27.179987 C47.0559068,26.9141451 47.2729589,26.704787 47.5393596,26.6986474 L62.9582475,26.3364149 C63.2045811,26.3286381 63.419176,26.5001358 63.4707771,26.7403963 L64.9839986,33.7781451 C65.0433808,34.0544242 64.8674867,34.3266102 64.5910524,34.3859591 C64.3148229,34.4455126 64.042484,34.2697172 63.9831019,33.9932335 L62.5587488,27.3692893 L48.0348936,27.7104428 L47.6323234,34.5705544 C47.6165564,34.8425358 47.3909041,35.0523033 47.1218415,35.0523033" id="Fill-51" fill="#93820A"></path>
                            <path d="M69.5043742,36.5196316 C69.2215922,36.5196316 68.9914351,36.290627 68.9914351,36.0080037 C68.9914351,35.7323386 69.2082824,35.5078363 69.4812357,35.4967851 L79.7326461,34.83392 L74.5094722,1.94054326 L66.104233,2.37952 L64.9825243,7.26045023 C64.9301041,7.48863628 64.7294334,7.65194791 64.4953857,7.65747349 L51.3719259,7.96035721 C51.3678305,7.96056186 51.36394,7.96056186 51.3600494,7.96056186 C51.1497546,7.96056186 50.9601412,7.83163163 50.8833539,7.63516651 L49.8820477,5.07518512 C49.7790503,4.81179907 49.9090768,4.51505488 50.172406,4.41232 C50.4355305,4.30917581 50.7326461,4.43933395 50.8354387,4.70251535 L51.7065137,6.92912 L64.0737723,6.64383628 L65.1928191,1.77416186 C65.2440106,1.5515014 65.4366955,1.38962233 65.6650097,1.37754791 L74.9163425,0.894571163 C75.1784431,0.880859535 75.4075763,1.06688744 75.4485296,1.32536186 L80.8318305,35.2278735 C80.8543548,35.370106 80.8160635,35.5152037 80.7261712,35.6277619 C80.6362789,35.7399107 80.5029762,35.8092874 80.3592304,35.8187014 L69.5373416,36.5186084 C69.526489,36.5192223 69.5154316,36.5196316 69.5043742,36.5196316" id="Fill-53" fill="#93820A"></path>
                            <path d="M40.6250019,15.8602605 C40.6250019,15.8604651 40.6250019,15.8604651 40.6250019,15.8604651 C40.6250019,15.8604651 40.6250019,15.8604651 40.6250019,15.8602605 M40.6243876,15.8610791 C40.6241829,15.8610791 40.6241829,15.8610791 40.6241829,15.8612837 C40.6241829,15.8610791 40.6241829,15.8610791 40.6243876,15.8610791 M44.7661917,35.1404465 C44.5356251,35.1404465 44.3261493,34.9834791 44.2692244,34.7497674 C44.2575527,34.7022884 43.0973479,29.9453767 41.9672438,25.234307 C41.3031873,22.4664 40.7791908,20.2557581 40.4099975,18.6629581 C39.6517486,15.3940651 39.6517486,15.3940651 39.8876392,15.1503256 C40.0844194,14.9473116 40.4083594,14.9419907 40.6116921,15.1384558 C40.7196039,15.2428279 40.7718192,15.3834233 40.7673144,15.522586 C40.8856692,16.4124093 43.5093373,27.3147907 45.2639781,34.5074605 C45.3309366,34.7818977 45.1624141,35.0587907 44.8878228,35.1257116 C44.8470743,35.1357395 44.8063259,35.1404465 44.7661917,35.1404465" id="Fill-55" fill="#93820A"></path>
                            <path d="M75.8306846,41.1119014 L75.8153271,40.6004781 L75.8153271,40.0888502 L121.886677,38.8877526 L169.586942,37.6434735 C169.871977,37.627306 170.104591,37.8591758 170.111963,38.1413898 C170.119334,38.424013 169.896139,38.6589526 169.613562,38.66632 L75.8306846,41.1119014 Z" id="Fill-57" fill="#93820A"></path>
                            <path d="M71.0169815,18.8970586 C70.2441942,18.8970586 69.5268985,19.1704726 68.9736205,19.6806679 C68.3492886,20.2565563 68.0054863,21.0663609 68.0054863,21.9608912 C68.0054863,23.8340633 69.5129744,25.4790493 71.3656981,25.6278307 C72.2398447,25.6974121 73.0605472,25.4235888 73.6768932,24.8550679 C74.3006108,24.2797935 74.6440035,23.4708074 74.6440035,22.5766865 C74.6440035,20.7024912 73.1367202,19.0564819 71.2837917,18.9079051 C71.1943089,18.9007423 71.1052357,18.8970586 71.0169815,18.8970586 M71.6355799,26.661933 C71.519068,26.661933 71.4019417,26.657226 71.2837917,26.6478121 C68.9115763,26.4572819 66.9816558,24.3546958 66.9816558,21.9608912 C66.9816558,20.7773935 67.4423795,19.7005191 68.2792586,18.9285749 C69.1081518,18.1642028 70.2042648,17.795626 71.3656981,17.8877191 C73.7379135,18.0782493 75.6678341,20.181654 75.6678341,22.5766865 C75.6678341,23.7597749 75.2073151,24.8358307 74.3712551,25.6069563 C73.6267255,26.2939702 72.6657582,26.661933 71.6355799,26.661933" id="Fill-59" fill="#93820A"></path>
                            <path d="M87.7797493,14.259827 C87.660985,14.259827 87.5457017,14.2184874 87.4539665,14.1429712 L79.2762224,7.40176186 L75.8152657,7.40176186 C75.5324837,7.40176186 75.3033504,7.17275721 75.3033504,6.89013395 C75.3033504,6.6075107 75.5324837,6.37850605 75.8152657,6.37850605 L79.4601024,6.37850605 C79.5790715,6.37850605 79.69415,6.41984558 79.7858853,6.49556651 L87.9611721,13.2345247 L141.5329,12.6389898 L148.35755,6.50968744 C148.451538,6.42537116 148.573373,6.37850605 148.699714,6.37850605 L151.173289,6.37850605 C151.456071,6.37850605 151.685204,6.6075107 151.685204,6.89013395 C151.685204,7.17275721 151.456071,7.40176186 151.173289,7.40176186 L148.89588,7.40176186 L142.073688,13.5290177 C141.981133,13.612106 141.86155,13.6585619 141.737257,13.6599944 L87.7854828,14.259827 L87.7797493,14.259827 Z" id="Fill-61" fill="#93820A"></path>
                            <g id="Group-65" transform="translate(149.069726, 0.000000)">
                                <mask id="mask-4" fill="white">
                                    <use xlink:href="#path-3"></use>
                                </mask>
                                <g id="Clip-64"></g>
                                <path d="M9.07148667,38.965254 C8.79648579,38.965254 8.56919541,38.7470958 8.5601857,38.4702028 L8.45780265,35.330854 C8.44019276,34.8122679 8.02001271,34.405626 7.50113539,34.405626 L0.680376346,34.405626 C0.539087732,34.405626 0.404146867,34.3473005 0.307292498,34.2441563 C0.210642895,34.1412167 0.160679965,34.0028726 0.169484907,33.8618679 L2.26628985,0.534426047 C2.28328544,0.264900465 2.50709479,0.0549283721 2.77718129,0.0549283721 L11.4695026,0.0549283721 C11.7115361,0.0549283721 11.9203975,0.224174884 11.9703605,0.460956279 L13.0066817,5.36112372 L23.997093,5.0854586 L23.997093,4.14181209 C23.997093,3.85918884 24.2264311,3.63018419 24.5090083,3.63018419 C24.7917903,3.63018419 25.0209236,3.85918884 25.0209236,4.14181209 L25.0209236,5.58460279 C25.0209236,5.86210977 24.7995714,6.08886326 24.5219086,6.09602605 L12.6065688,6.39481674 C12.3590065,6.41037023 12.1440021,6.23027721 12.0928106,5.98899349 L11.0546464,1.07818419 L3.25797211,1.07818419 L1.22566849,33.3823702 L7.50113539,33.3823702 C8.57533839,33.3823702 9.44498005,34.2232819 9.48101889,35.2970865 L9.58340194,38.4370493 C9.59261642,38.7194679 9.37105949,38.95584 9.08848226,38.9650493 C9.08274881,38.965254 9.07722012,38.965254 9.07148667,38.965254" id="Fill-63" fill="#93820A" mask="url(#mask-4)"></path>
                            </g>
                            <path d="M158.025131,17.1393302 C157.89019,17.1393302 157.752587,17.1491535 157.613551,17.1690047 C155.982999,17.3998512 154.656319,18.9087442 154.656319,20.5322419 C154.656319,21.2802419 154.941968,21.9402419 155.460845,22.3902698 C155.989961,22.8493023 156.703161,23.0426977 157.469601,22.9336186 C159.100153,22.7025674 160.426628,21.1938791 160.426628,19.570586 C160.426628,18.8229953 160.140979,18.1632 159.621897,17.7129674 C159.188612,17.3370233 158.632467,17.1393302 158.025131,17.1393302 M157.053106,23.9869581 C156.20046,23.9869581 155.411701,23.7026977 154.789622,23.1630326 C154.043454,22.5157209 153.632489,21.5812837 153.632489,20.5322419 C153.632489,18.419014 155.353957,16.4555907 157.469601,16.1555721 C158.533565,16.0047442 159.5361,16.2834791 160.293121,16.94 C161.039493,17.5877209 161.450459,18.5219535 161.450459,19.570586 C161.450459,21.6836093 159.729195,23.6468279 157.613551,23.9470512 C157.424347,23.9738605 157.237191,23.9869581 157.053106,23.9869581" id="Fill-66" fill="#93820A"></path>
                            <path d="M109.051446,40.2443237 C109.019708,40.2443237 108.987764,40.2414586 108.955411,40.2353191 C108.677748,40.1827237 108.495302,39.91504 108.547927,39.6373284 L108.834599,38.1270028 C109.174511,36.3436726 110.739129,35.0189656 112.55479,34.9768074 L118.149205,34.8478772 C119.946232,34.8008074 121.524979,35.9900353 121.987341,37.7287516 L122.394825,39.2681377 C122.467108,39.541347 122.304318,39.8215144 122.030956,39.8937563 C121.757798,39.9662028 121.477473,39.8030958 121.40519,39.5300912 L120.997706,37.9909098 C120.657385,36.7114307 119.494723,35.8490307 118.172957,35.8707237 L112.578543,35.999654 C111.242239,36.0307609 110.090634,37.0059237 109.84041,38.318147 L109.553942,39.8280633 C109.507256,40.07344 109.292456,40.2443237 109.051446,40.2443237" id="Fill-68" fill="#93820A"></path>
                            <path d="M226.984357,31.1783181 C226.973709,31.1783181 226.963061,31.1779088 226.952413,31.1772949 C225.287665,31.0749693 220.535453,30.7864112 218.131703,30.6411088 C217.849331,30.6241228 217.634531,30.3816112 217.651527,30.0996019 C217.668523,29.8175926 217.913423,29.5965693 218.193338,29.6198995 C220.597497,29.7652019 225.350528,30.05376 227.015276,30.1560856 C227.297444,30.1734809 227.512244,30.4159926 227.494838,30.6980019 C227.478048,30.9693693 227.2526,31.1783181 226.984357,31.1783181" id="Fill-70" fill="#93820A"></path>
                            <path d="M183.15198,23.3278381 C183.145632,23.3278381 183.13908,23.3276335 183.132732,23.3274288 C182.850155,23.3169916 182.629622,23.0795963 182.640065,22.7971777 L183.102836,10.2991312 C183.113279,10.0167126 183.350808,9.79323349 183.633385,9.80694512 C183.915758,9.81717767 184.136496,10.0547777 184.126053,10.3369916 L183.663281,22.8352428 C183.653043,23.1109079 183.425957,23.3278381 183.15198,23.3278381" id="Fill-72" fill="#93820A"></path>
                            <path d="M1.10805084,38.5867312 L11.6436766,69.6777451 L30.9942786,67.2096521 L20.7215725,35.6755684 C20.6634189,35.4969079 20.7078531,35.3006474 20.8374701,35.1645544 L48.9870764,5.58816372 L38.1537207,7.02993116 L38.2020455,7.12038698 C38.3150764,7.33220093 38.2653183,7.59435907 38.0826669,7.7500986 L37.3792953,8.34993116 C37.2902221,8.4260614 37.1776007,8.46924279 37.0604745,8.47231256 L36.390275,8.48991256 L32.5971876,11.7254474 L32.5283862,12.3625265 C32.5144621,12.49248 32.4511894,12.6122009 32.3518778,12.6969265 L30.932644,13.9076428 C30.8587234,13.97088 30.7682168,14.0116056 30.6719767,14.0251126 L29.7478673,14.1558847 L27.9492018,15.6901544 L27.7272353,16.513466 C27.7004109,16.6131312 27.6438955,16.7023591 27.5652653,16.7694847 L26.3743456,17.785373 C26.3034966,17.8459498 26.2174948,17.8860614 26.1255548,17.9012056 L25.1727781,18.0585823 L23.3227163,19.6370567 L23.2934348,20.2280893 C23.2864727,20.3688893 23.2217666,20.50048 23.1144692,20.5919591 L21.5406369,21.9344707 C21.475726,21.9899312 21.3977102,22.0282009 21.3141656,22.0460056 L20.2305433,22.2746009 L18.0729229,24.1152335 L18.0880756,24.5650567 C18.0933995,24.7207963 18.0274648,24.8706009 17.9089052,24.9716986 L16.0062185,26.5945823 C15.9433553,26.6482009 15.8688205,26.6858567 15.7885522,26.7040707 L14.7612406,26.9402381 L12.204531,29.1210009 L12.2006404,29.5765544 C12.1992071,29.7247219 12.1336819,29.8651126 12.0210605,29.9612986 L9.4264692,32.1743963 C9.35480106,32.235587 9.26777546,32.2756986 9.17481165,32.2904335 L8.33158482,32.425094 L1.10805084,38.5867312 Z M11.3121603,70.8063963 C11.2507305,70.8063963 11.1905292,70.7953451 11.1340138,70.774266 L10.9157331,70.8020986 C10.6360226,70.8368893 10.3790411,70.6398102 10.3432071,70.3594381 C10.3151541,70.1398474 10.4310517,69.9349916 10.6173889,69.8392149 L0.027090556,38.5867312 C-0.0400727273,38.3884242 0.0203332745,38.1694474 0.179641306,38.0335591 L7.77625914,31.55328 C7.84792727,31.4920893 7.93515763,31.4519777 8.02812145,31.4370381 L8.87134828,31.3025823 L11.1788575,29.3344521 L11.1827481,28.8788986 C11.1839767,28.7307312 11.2495019,28.5903405 11.362328,28.4943591 L14.1917861,26.0807033 C14.2546492,26.0270847 14.3291841,25.9894288 14.4094524,25.9710102 L15.436764,25.7350474 L17.0564639,24.3534474 L17.0413112,23.9036242 C17.0359873,23.7478847 17.101922,23.5982847 17.2204816,23.497187 L19.6649793,21.4117916 C19.7298902,21.3563312 19.8079061,21.3180614 19.8914507,21.3002567 L20.9750729,21.0716614 L22.2816854,19.9571312 L22.310967,19.3660986 C22.317929,19.2255033 22.3826351,19.0937079 22.4899326,19.0022288 L24.6164286,17.1879963 C24.6872777,17.1276242 24.7732794,17.0875126 24.8652194,17.0723684 L25.8177914,16.9149916 L26.7799873,16.0941358 L27.0019538,15.2708242 C27.0289829,15.1711591 27.0852936,15.0817265 27.1639237,15.0148056 L29.1964321,13.2812056 C29.2703527,13.2179684 29.3606545,13.1772428 29.4568946,13.1635312 L30.3810041,13.0329637 L31.5321991,12.0508428 L31.6010005,11.4137637 C31.6149246,11.2838102 31.6781974,11.1640893 31.7775089,11.0793637 L35.8636166,7.59394977 C35.9526898,7.51781953 36.0653112,7.47463814 36.1826422,7.47156837 L36.8526369,7.45396837 L37.1049087,7.23867535 L37.0404074,7.11772651 C36.9275813,6.90591256 36.9771347,6.64395907 37.1599908,6.48801488 L37.5424939,6.16180093 C37.6174383,6.09774512 37.7093783,6.05681488 37.8072565,6.04351256 L50.2908222,4.38215442 C50.5060314,4.3532986 50.7159167,4.46381023 50.8146139,4.65700093 C50.9131064,4.85039628 50.8791153,5.08492651 50.7294312,5.24189395 L21.7896325,35.6489637 L32.1593977,67.4806102 C32.2064939,67.6257079 32.1866316,67.7839033 32.1049299,67.9128335 C32.023433,68.0415591 31.8886969,68.1273079 31.7373748,68.1463405 L11.6053853,70.7140986 C11.5664798,70.7413172 11.5234789,70.7634195 11.4763827,70.7793823 C11.4219149,70.7978009 11.3666281,70.8063963 11.3121603,70.8063963 L11.3121603,70.8063963 Z" id="Fill-74" fill="#93820A"></path>
                            <path d="M17.0438708,88 C16.8112565,88 16.6060808,87.842214 16.5479273,87.6144372 L12.1700279,70.4208744 C12.1004074,70.1470512 12.2660632,69.8685209 12.5400402,69.7987349 C12.8138125,69.7293581 13.092704,69.8945116 13.1623244,70.1685395 L17.4364074,86.9540279 L218.865032,75.6871628 L222.624129,58.9892651 C222.686173,58.7136 222.959945,58.5414884 223.23597,58.6024744 C223.51179,58.6644837 223.685022,58.938307 223.622978,59.2139721 L219.778903,76.2886326 C219.728736,76.5117023 219.536665,76.6744 219.308146,76.687293 L17.0727428,87.9991814 C17.0631188,87.9997953 17.0534948,88 17.0438708,88" id="Fill-76" fill="#93820A"></path>
                            <g id="Group-80" transform="translate(173.027361, 3.479070)" fill="#93820A">
                                <path d="M34.2031273,55.1109209 L50.9734715,55.1109209 L57.7282959,26.8610791 L49.4000487,22.4232186 L48.3723276,22.3464744 C48.3012738,22.3411535 48.2322676,22.3210977 48.1694044,22.2877395 L45.5025306,20.8666419 C45.4333197,20.8298047 45.3737327,20.7776186 45.3278651,20.7141767 L44.7889207,19.9661767 L41.5001723,18.2133395 L40.2535562,18.0348837 C40.1945836,18.026493 40.1376586,18.0078698 40.0852385,17.9798326 L37.9425659,16.8378791 C37.8649596,16.7965395 37.7992297,16.7359628 37.7519287,16.6618791 L37.3198722,15.9857116 L34.3659163,14.4117395 L33.2921229,14.3143256 C33.2239357,14.308186 33.1577963,14.2883349 33.0973903,14.2562047 L31.5749543,13.4447628 C31.50431,13.4073116 31.4434944,13.3534884 31.3974221,13.2882047 L30.8799781,12.5541209 L28.2319428,11.1430512 L27.2980046,11.1074419 C27.220603,11.1045767 27.1450443,11.0841116 27.0766524,11.0476837 L25.4100611,10.159907 C25.3367548,10.1208186 25.2740964,10.0645395 25.2274097,9.99577674 L24.7441617,9.2844093 L22.567498,8.12444651 L21.5328148,8.04483721 C21.4623753,8.03931163 21.3937786,8.01946047 21.331325,7.98610233 L20.1537151,7.35864186 C20.0613656,7.30952558 19.9864212,7.23339535 19.9387107,7.14027907 L19.6454856,6.56746047 L17.5583047,5.4551814 L16.4546154,5.34405581 C16.3882711,5.33750698 16.3239746,5.31786047 16.2650019,5.28654884 L15.3585024,4.80357209 C15.2639004,4.75322791 15.1875227,4.67423256 15.1402217,4.57804651 L14.8654256,4.02057674 L13.192896,3.12891163 L12.4051608,3.00857674 C12.3480311,2.99977674 12.2927442,2.98135814 12.2417575,2.95434419 L11.8301776,2.73495814 C11.7638334,2.69975814 11.7062941,2.65023256 11.6612455,2.59026977 L11.3823541,2.21821395 L2.69842824,1.38364651 L41.395332,25.1995163 C41.5857645,25.3165767 41.678114,25.5437395 41.6232367,25.7604651 L34.2031273,55.1109209 Z M51.377475,56.1341767 L33.5458281,56.1341767 C33.3879534,56.1341767 33.2388837,56.0615256 33.1418245,55.936893 C33.0449702,55.8124651 33.0107742,55.6501767 33.049475,55.4973023 L40.5385906,25.8740465 L0.283212004,1.09897674 C0.0804935569,0.974139535 -0.00939876434,0.726102326 0.0663646955,0.500372093 C0.142128155,0.274846512 0.36388985,0.131181395 0.60059947,0.154102326 L11.705475,1.22135814 C11.8490161,1.23506977 11.9798616,1.30874419 12.0662729,1.42375814 L12.4123276,1.88565581 L12.6463753,2.01028837 L13.4341105,2.13062326 C13.4912402,2.13942326 13.5465271,2.15784186 13.5975139,2.18506047 L15.4928289,3.19501395 C15.5874309,3.24535814 15.6638086,3.32435349 15.7113144,3.42053953 L15.9859057,3.9780093 L16.6577433,4.33614884 L17.7612279,4.44706977 C17.8275721,4.45382326 17.8920734,4.47326512 17.9508413,4.5047814 L20.2689984,5.74005581 C20.3611432,5.78917209 20.4360876,5.86530233 20.4837981,5.9584186 L20.7770231,6.53123721 L21.7185377,7.03283721 L22.7532208,7.11265116 C22.8236604,7.11797209 22.892257,7.13802791 22.9547107,7.1711814 L25.3375739,8.44104186 C25.4108801,8.48033488 25.4735386,8.5364093 25.5202252,8.60517209 L26.0032685,9.31633488 L27.4544459,10.089507 L28.3885889,10.1251163 C28.4657857,10.1279814 28.5415492,10.1484465 28.609941,10.1848744 L31.4690902,11.7085023 C31.5397345,11.7461581 31.60055,11.7997767 31.6466224,11.8652651 L32.1640664,12.5991442 L33.4876745,13.3045767 L34.561468,13.401786 C34.6296551,13.4081302 34.6957945,13.4277767 34.7562005,13.4601116 L37.9200417,15.1460279 C37.997648,15.1873674 38.0631732,15.2479442 38.1104741,15.3220279 L38.5425306,15.9981953 L40.4878086,17.0347535 L41.7342199,17.2132093 C41.7931926,17.2216 41.8501176,17.2402233 41.9025377,17.2682605 L45.3757804,19.1191256 C45.4447866,19.1559628 45.5045783,19.2079442 45.5502411,19.2715907 L46.0891855,20.0195907 L48.5560028,21.3340651 L49.5839287,21.4108093 C49.6547778,21.4161302 49.7239887,21.436186 49.7866471,21.4695442 L58.5588272,26.1439814 C58.7644124,26.2534698 58.8700717,26.488 58.8158086,26.7143442 L51.8754662,55.7414512 C51.8203841,55.9716837 51.6143894,56.1341767 51.377475,56.1341767 L51.377475,56.1341767 Z" id="Fill-78"></path>
                            </g>
                            <path d="M81.0034245,44.8863647 C80.895308,44.8863647 80.7898535,44.8521879 80.7022136,44.7883367 L66.323947,34.3277972 L21.2276929,36.0284484 C20.9445013,36.0407274 20.7075869,35.8188856 20.6967343,35.5362623 C20.6860865,35.254253 20.9066196,35.0164484 21.1889921,35.0060112 L66.4625737,33.2986065 C66.5768332,33.2963553 66.6902736,33.3284856 66.7830327,33.3960205 L81.1627326,43.8579926 L165.26734,41.2012112 L176.87594,31.2338809 C176.962966,31.1591833 177.07272,31.1157972 177.187594,31.1106809 L213.897447,29.5322065 C214.176748,29.5238158 214.418782,29.7391088 214.430863,30.0213228 C214.442944,30.3035367 214.223845,30.5423647 213.941472,30.5546437 L177.408537,32.125546 L165.797684,42.0949228 C165.70902,42.171053 165.597013,42.2144391 165.480092,42.2183274 L81.0196011,44.88616 C81.0142771,44.8863647 81.0087485,44.8863647 81.0034245,44.8863647" id="Fill-81" fill="#93820A"></path>
                            <path d="M115.388446,82.4992019 L115.384555,82.4992019 C115.101978,82.4971553 114.874483,82.2663088 114.87653,81.9836856 L114.888611,80.3141414 C114.910931,77.2603367 117.319799,74.7617507 120.372453,74.6262716 L128.322906,74.2730437 C131.303277,74.1404298 133.917116,76.3551647 134.275252,79.3146251 L134.46548,80.887574 C134.499266,81.167946 134.29921,81.4229414 134.01868,81.4567088 C133.737946,81.4904763 133.482807,81.2909414 133.449021,81.0103647 L133.258793,79.4374158 C132.964544,77.0057507 130.815319,75.1888577 128.368364,75.2950716 L120.417911,75.6482995 C117.909935,75.7598344 115.930871,77.8126902 115.912442,80.3217135 L115.900361,81.9914623 C115.898108,82.272653 115.669385,82.4992019 115.388446,82.4992019" id="Fill-83" fill="#93820A"></path>
                            <path d="M56.5573204,53.0738028 C55.5852957,53.0738028 54.6904678,53.4028819 53.9989726,54.0227702 C53.2147184,54.7255423 52.7828667,55.7258772 52.7828667,56.8393842 C52.7828667,59.2153842 54.7389974,61.3617656 57.1435658,61.6241284 C58.2994704,61.7510121 59.3792021,61.4231609 60.1835234,60.7019702 C60.9677776,59.9991981 61.3998341,58.9988633 61.3998341,57.8853563 C61.3998341,55.5091516 59.4434987,53.3627702 57.0389303,53.1004074 C56.8767555,53.0826028 56.7160141,53.0738028 56.5573204,53.0738028 M57.6288614,62.6150493 C57.4341289,62.6150493 57.2375534,62.6042028 57.0389303,62.5827144 C54.1601236,62.2683702 51.8182136,59.6920167 51.8182136,56.8393842 C51.8182136,55.4483702 52.3639153,54.1932447 53.3549832,53.3050586 C54.3661183,52.398454 55.7116364,51.9858772 57.1435658,52.1418214 C60.0223725,52.4561656 62.3642824,55.0325191 62.3642824,57.8853563 C62.3642824,59.2765749 61.8185808,60.5317005 60.8275128,61.4198865 C59.9566425,62.200426 58.837391,62.6150493 57.6288614,62.6150493" id="Fill-85" fill="#93820A"></path>
                            <path d="M187.470108,48.150387 C187.395574,48.150387 187.320629,48.1526381 187.245275,48.1571405 C185.253925,48.2797265 183.633611,49.9981823 183.633611,51.9882102 C183.633611,52.9373823 184.001575,53.8059219 184.669522,54.433587 C185.339517,55.063094 186.233935,55.3772335 187.186098,55.3191126 C189.177448,55.1967312 190.797762,53.4780707 190.797762,51.4882474 C190.797762,50.5390753 190.429798,49.6705358 189.761851,49.042666 C189.14489,48.4628893 188.338112,48.150387 187.470108,48.150387 M186.959422,56.2899777 C185.845494,56.2899777 184.806716,55.8859963 184.008742,55.1359498 C183.144834,54.3240986 182.669162,53.2060893 182.669162,51.9882102 C182.669162,49.4984242 184.695323,47.3481544 187.186098,47.1950753 C188.407118,47.1175126 189.556675,47.5266102 190.422631,48.3405079 C191.286539,49.1523591 191.762211,50.2701637 191.762211,51.4882474 C191.762211,53.9780335 189.73605,56.1280986 187.245275,56.2811777 C187.149649,56.2873172 187.054228,56.2899777 186.959422,56.2899777" id="Fill-87" fill="#93820A"></path>
                            <path d="M178.649767,32.1336298 C178.636867,32.1336298 178.623967,32.1332205 178.611067,32.1321972 C178.329104,32.1111181 178.11758,31.8655367 178.138671,31.5837321 L178.79208,22.8713228 C178.811737,22.6091647 179.026947,22.4045135 179.289866,22.3981693 L192.89125,22.0666344 C193.150279,22.0508763 193.37286,22.2479553 193.410332,22.503974 L194.625414,30.8209972 C194.666163,31.1005507 194.472454,31.3604577 194.192744,31.4011833 C193.913443,31.4417042 193.653185,31.2487181 193.612232,30.96896 L192.462675,23.1005321 L179.778233,23.40976 L179.159635,31.6602716 C179.139568,31.9289786 178.915144,32.1336298 178.649767,32.1336298" id="Fill-89" fill="#93820A"></path>
                            <path d="M47.1224763,35.0515051 C47.1124427,35.0515051 47.1022044,35.0513005 47.0921709,35.0506865 C46.8097984,35.0341098 46.5943845,34.7920074 46.6109705,34.5099981 L47.0405698,27.1806214 C47.056132,26.9147795 47.2729793,26.7054214 47.5393801,26.6990772 L62.959087,26.33664 C63.203373,26.3206772 63.4200155,26.5003609 63.4716166,26.7406214 L64.9844286,33.7775516 C65.0438108,34.0540353 64.8677119,34.3260167 64.5914824,34.3853656 C64.315253,34.4449191 64.042914,34.2691237 63.9833271,33.99264 L62.5595883,27.3695144 L48.034914,27.7110772 L47.6329582,34.5697563 C47.6171912,34.8417377 47.3915389,35.0515051 47.1224763,35.0515051" id="Fill-91" fill="#93820A"></path>
                            <path d="M69.5024699,36.5194474 C69.2348406,36.5194474 69.0095979,36.3115219 68.9921928,36.0407684 C68.9739686,35.7587591 69.1877444,35.5154288 69.4699121,35.4972149 L79.7321751,34.8345544 L74.5106394,1.93974512 L66.1045811,2.37933581 L64.9826676,7.26067535 C64.9304523,7.4888614 64.7297815,7.65217302 64.4957338,7.6576986 L51.3728883,7.95976372 C51.1589077,7.97306605 50.9627417,7.83492651 50.8843163,7.63477767 L49.8817815,5.07581953 C49.7787841,4.81284279 49.9086058,4.5160986 50.1717303,4.41295442 C50.435469,4.30960558 50.7321751,4.43976372 50.8351725,4.70294512 L51.7072713,6.92852651 L64.0741204,6.6440614 L65.1933719,1.77397767 C65.2445635,1.55131721 65.4370436,1.38943814 65.6653578,1.37736372 L74.9173049,0.893773023 C75.179815,0.88088 75.4085387,1.0660893 75.449492,1.32456372 L80.8313596,35.2287126 C80.8538838,35.3709451 80.8155926,35.5160428 80.7254955,35.6283963 C80.6356032,35.7407498 80.5025052,35.8101265 80.3587594,35.8195405 L69.5360515,36.5184242 C69.5247894,36.5190381 69.5135273,36.5194474 69.5024699,36.5194474" id="Fill-93" fill="#93820A"></path>
                            <path d="M40.6272544,15.8562698 C40.6272544,15.8564744 40.6272544,15.8564744 40.6272544,15.8564744 C40.6272544,15.8564744 40.6272544,15.8564744 40.6272544,15.8562698 M40.6266401,15.8570884 C40.6266401,15.8570884 40.6264353,15.8570884 40.6264353,15.857293 C40.6264353,15.8570884 40.6266401,15.8570884 40.6266401,15.8570884 M44.7666012,35.1403442 C44.5360346,35.1403442 44.3267636,34.9835814 44.2698387,34.7496651 C44.258167,34.7023907 43.0977575,29.9456837 41.9672438,25.2344093 C41.3031873,22.4669116 40.7789861,20.2558605 40.409588,18.6630605 C39.6517486,15.3966233 39.6517486,15.3966233 39.8839534,15.1526791 C40.078686,14.9482326 40.4028307,14.9398419 40.6075968,15.1346698 C40.7175562,15.2390419 40.7707954,15.3810698 40.7664953,15.5214605 C40.8846454,16.4100558 43.5091326,27.3136651 45.2643876,34.5075628 C45.3313462,34.782 45.1630284,35.0586884 44.8884371,35.1256093 C44.8476886,35.1356372 44.8067354,35.1403442 44.7666012,35.1403442" id="Fill-95" fill="#93820A"></path>
                            <path d="M75.8143237,41.1113079 C75.5376847,41.1113079 75.3099848,40.8908986 75.302818,40.6129823 C75.2954464,40.3305637 75.5186415,40.0956242 75.8012187,40.0882567 L169.587168,37.6436986 C169.871997,37.6273265 170.105021,37.8594009 170.112188,38.1416149 C170.119764,38.4242381 169.896569,38.6591777 169.613992,38.6665451 L75.8278383,41.1111033 C75.8233335,41.1113079 75.8188286,41.1113079 75.8143237,41.1113079" id="Fill-97" fill="#93820A"></path>
                            <path d="M71.0168791,18.8978567 C70.243887,18.8978567 69.5263866,19.171066 68.9733133,19.6810567 C68.3495958,20.2567405 68.0059982,21.0661358 68.0059982,21.960666 C68.0059982,23.8340428 69.5132816,25.4792335 71.3660053,25.6280149 C72.2393327,25.6978009 73.0602401,25.423773 73.6765861,24.8554567 C74.3003036,24.2799777 74.6439011,23.4705823 74.6439011,22.5760521 C74.6439011,20.7024707 73.1366178,19.05728 71.2838941,18.9087033 C71.1944113,18.9015405 71.1051333,18.8978567 71.0168791,18.8978567 M71.6356823,26.6621172 C71.5193751,26.6621172 71.4020441,26.6574102 71.2838941,26.6479963 C68.9118835,26.457466 66.9821677,24.3546753 66.9821677,21.960666 C66.9821677,20.7771684 67.4426867,19.7007033 68.2789515,18.9291684 C69.1076399,18.1650009 70.2035481,17.7964242 71.3660053,17.8885172 C73.7380159,18.0790474 75.6677317,20.1818381 75.6677317,22.5760521 C75.6677317,23.7595498 75.2072127,24.8360149 74.3709479,25.6073451 C73.6264184,26.2941544 72.6658605,26.6621172 71.6356823,26.6621172" id="Fill-99" fill="#93820A"></path>
                            <path d="M87.778746,14.2596223 C87.6599816,14.2596223 87.5446983,14.2182828 87.4529631,14.1427665 L79.277062,7.40094326 L75.8146718,7.40094326 C75.5318898,7.40094326 75.3027566,7.1719386 75.3027566,6.88931535 C75.3027566,6.60669209 75.5318898,6.37768744 75.8146718,6.37768744 L79.4609419,6.37768744 C79.579911,6.37768744 79.6949896,6.41902698 79.7867248,6.49474791 L87.9601688,13.23432 L141.532921,12.6393991 L148.358389,6.50886884 C148.452377,6.42455256 148.574213,6.37768744 148.700554,6.37768744 L151.173309,6.37768744 C151.456091,6.37768744 151.685224,6.60669209 151.685224,6.88931535 C151.685224,7.1719386 151.456091,7.40094326 151.173309,7.40094326 L148.89672,7.40094326 L142.073913,13.529427 C141.981359,13.6125153 141.861775,13.6589712 141.737277,13.6604037 L87.7844794,14.2596223 L87.778746,14.2596223 Z" id="Fill-101" fill="#93820A"></path>
                            <path d="M158.141766,38.9654586 C157.866765,38.9654586 157.639475,38.7473005 157.630465,38.4706121 L157.527468,35.3304447 C157.510472,34.8118586 157.090292,34.405626 156.57121,34.405626 L149.749632,34.405626 C149.608343,34.405626 149.473198,34.3473005 149.376548,34.2441563 C149.279694,34.1412167 149.229935,34.0028726 149.23874,33.8618679 L151.336979,0.534835349 C151.353974,0.265105116 151.577579,0.0553376744 151.84787,0.0553376744 L160.540191,0.0553376744 C160.782225,0.0553376744 160.991086,0.224584186 161.041049,0.46116093 L162.077166,5.36214698 L173.067168,5.08586791 L173.067168,4.14242605 C173.067168,3.85980279 173.296301,3.63079814 173.579083,3.63079814 C173.861865,3.63079814 174.090998,3.85980279 174.090998,4.14242605 L174.090998,5.58480744 C174.090998,5.86231442 173.869646,6.08906791 173.591983,6.0962307 L161.677053,6.39584 C161.431538,6.40730047 161.214486,6.23130047 161.163295,5.99001674 L160.12513,1.07859349 L152.328456,1.07859349 L150.294719,33.3823702 L156.57121,33.3823702 C157.646027,33.3823702 158.515464,34.2232819 158.550684,35.2968819 L158.653681,38.4370493 C158.662896,38.7194679 158.441339,38.95584 158.158762,38.965254 C158.153028,38.9654586 158.147499,38.9654586 158.141766,38.9654586" id="Fill-103" fill="#93820A"></path>
                            <path d="M158.024128,17.1397395 C157.889187,17.1397395 157.751789,17.1495628 157.612548,17.169414 C155.9822,17.4000558 154.655521,18.9089488 154.655521,20.5324465 C154.655521,21.2796279 154.941374,21.939014 155.460047,22.3892465 C155.989572,22.848893 156.702977,23.042493 157.469007,22.9338233 C159.099559,22.7029767 160.426034,21.1942884 160.426034,19.570586 C160.426034,18.8234047 160.140386,18.163814 159.621508,17.7135814 C159.188223,17.3376372 158.631669,17.1397395 158.024128,17.1397395 M157.053536,23.9867535 C156.200686,23.9867535 155.411517,23.7022884 154.788823,23.1620093 C154.042656,22.514493 153.63169,21.5804651 153.63169,20.5324465 C153.63169,18.4188093 155.353159,16.4555907 157.469007,16.1559814 C158.533176,16.0063814 159.535711,16.284093 160.292732,16.9408186 C161.038899,17.5883349 161.449865,18.5223628 161.449865,19.570586 C161.449865,21.6842233 159.728396,23.6474419 157.612548,23.9470512 C157.423958,23.9736558 157.237212,23.9867535 157.053536,23.9867535" id="Fill-105" fill="#93820A"></path>
                            <path d="M109.050996,40.2449377 C109.019257,40.2449377 108.987109,40.2420726 108.954756,40.235933 C108.676888,40.1829284 108.494646,39.9152447 108.547681,39.637533 L108.835377,38.1267981 C109.175084,36.3436726 110.739702,35.0187609 112.555568,34.9768074 L118.14814,34.8472633 C119.948443,34.7977377 121.525962,35.9904447 121.987095,37.7293656 L122.394784,39.2673191 C122.467271,39.5405284 122.304277,39.8204912 122.03112,39.8929377 C121.757757,39.9653842 121.477432,39.8026865 121.40515,39.5294772 L120.99746,37.9915237 C120.657958,36.71184 119.49591,35.8441191 118.171893,35.8701098 L112.579116,35.999654 C111.242608,36.0305563 110.091208,37.0057191 109.841188,38.3183516 L109.553287,39.8290865 C109.506601,40.0742586 109.292006,40.2449377 109.050996,40.2449377" id="Fill-107" fill="#93820A"></path>
                            <path d="M226.98495,31.1779293 C226.974507,31.1779293 226.963859,31.17752 226.953416,31.176906 L218.131069,30.6409247 C217.848901,30.623734 217.633897,30.3812223 217.651097,30.099213 C217.668297,29.8169991 217.910945,29.5967944 218.193113,29.6197153 L227.015461,30.1556967 C227.297628,30.1726828 227.512633,30.4151944 227.495432,30.6972037 C227.478846,30.9689805 227.253399,31.1779293 226.98495,31.1779293" id="Fill-109" fill="#93820A"></path>
                        </g>
                    </g>
                </g>
            </g>
        </g>
    </g>
</svg>