<?xml version="1.0" encoding="UTF-8" standalone="no"?>
<svg width="194px" height="84px" viewBox="0 0 194 84" version="1.1" xmlns="http://www.w3.org/2000/svg" xmlns:xlink="http://www.w3.org/1999/xlink">
    <!-- Generator: Sketch 46 (44423) - http://www.bohemiancoding.com/sketch -->
    <title>Caja exhibidora 2</title>
    <desc>Created with Sketch.</desc>
    <defs>
        <polygon id="path-1" points="192.917608 0.16203666 4.15380027e-05 0.16203666 4.15380027e-05 35.6104959 192.917608 35.6104959 192.917608 0.16203666"></polygon>
        <polygon id="path-3" points="0 0.00808249816 0 58.9690376 192.917618 58.9690376 192.917618 0.00808249816 3.46595107e-21 0.00808249816"></polygon>
        <polygon id="path-5" points="177.20174 0.16203666 0.13907368 0.16203666 0.13907368 33.1911245 177.20174 33.1911245 177.20174 0.16203666"></polygon>
    </defs>
    <g id="7-Productos" stroke="none" stroke-width="1" fill="none" fill-rule="evenodd">
        <g id="7.1-Limon-mexicano" transform="translate(-543.000000, -1798.000000)">
            <g id="Group-40" transform="translate(503.000000, 1715.000000)">
                <g id="Caja-exhibidora-2" transform="translate(137.500000, 126.000000) rotate(-1.000000) translate(-137.500000, -126.000000) translate(41.000000, 84.000000)">
                    <path d="M0.596765548,32.5457297 L7.26225583,80.4978128 L40.0524784,80.9919563 C40.0524784,80.9919563 40.3348177,80.0853714 40.9636021,79.9592289 C41.5923866,79.8330865 57.7216966,80.1168215 58.4447647,80.242964 C59.1678327,80.3691065 59.4199943,81.2837248 59.4199943,81.2837248 L131.363813,82.3677295 C131.363813,82.3677295 131.78306,81.5406247 132.647127,81.3850832 L149.654314,81.6570244 C150.272869,81.7797484 150.849311,82.6613783 150.849311,82.6613783 L184.191255,83.1637261 L192.320954,35.0210619 L154.118206,34.527944 L153.214755,28.1779188 L135.554743,28.0986097 L133.930781,34.2672838 L57.9687435,33.2865176 L56.9161092,25.3991952 L39.4144873,25.7167733 L37.2019776,33.0183367 L0.596765548,32.5457297 Z" id="Fill-1" fill="#EAE406"></path>
                    <path d="M23.9553748,54.3145517 C23.4871964,54.3065182 23.0234508,54.3253199 22.5533969,54.4557355 C22.3979057,54.4988085 21.9622918,54.9575705 21.9171107,55.117727 C21.5752688,56.3333438 21.2281416,57.5445166 21.0194561,58.7922672 C20.1489102,61.8989954 22.6742777,67.0552823 23.7932344,67.0267378 C25.3917927,67.0908346 26.4786964,67.0267378 26.4786964,67.0267378 C26.4786964,67.0267378 27.4696116,66.8985443 27.8532246,65.3923554 C28.2368377,63.8859956 28.9401284,61.2580276 28.4925798,59.7516678 C28.0537264,58.2747071 27.7198978,56.7398029 26.9131169,55.4076154 C26.4152723,54.5858092 25.799616,54.3554027 24.8734888,54.341045 C24.5635294,54.3362591 24.2583439,54.3198503 23.9553748,54.3145517" id="Fill-3" fill="#CCBA15"></path>
                    <path d="M164.926189,57.5356627 C164.926189,57.5356627 165.071962,56.658306 166.020254,56.6338637 C166.968545,56.6095924 168.864787,56.6338637 168.864787,56.6338637 C168.864787,56.6338637 169.861329,56.5851502 170.128835,57.389522 C170.396341,58.193723 170.979774,62.5808484 170.979774,62.5808484 C170.979774,62.5808484 171.003984,63.1901952 170.78524,63.8482554 C170.566495,64.5061448 169.302277,67.9427577 169.302277,67.9427577 C169.302277,67.9427577 169.035794,68.8689989 167.953493,68.8932703 C166.871022,68.9177125 165.38823,68.8932703 165.38823,68.8932703 C165.38823,68.8932703 164.196983,69.0638532 163.905267,68.0159135 C163.61338,66.967803 163.200101,63.9701248 163.200101,63.9701248 C163.200101,63.9701248 163.005567,62.9220142 163.394635,61.9470595 C163.783704,60.9721047 164.926189,57.5356627 164.926189,57.5356627" id="Fill-5" fill="#CCBA15"></path>
                    <polygon id="Fill-7" fill="#F9F44E" points="9.60151131 30.0964807 41.9327622 4.00567272 38.6510802 4.00567272 0.596833746 32.5456614 37.2020458 33.0182683 39.414385 25.716705 37.964839 30.5005468"></polygon>
                    <polygon id="Fill-9" fill="#F9F44E" points="57.6342329 30.7807266 56.9161092 25.399161 57.9687435 33.2864834 133.930781 34.2672496 135.554743 28.0985755 134.560077 31.8765252"></polygon>
                    <polygon id="Fill-11" fill="#F9F44E" points="158.769217 4.00575818 154.857727 4.00575818 185.470732 32.6018102 153.77986 32.1503979 153.21484 28.1779359 154.118292 34.5279611 192.320868 35.021079"></polygon>
                    <path d="M53.8217497,25.4553439 L49.7689202,25.5288416 C48.9384405,24.0619654 49.0644361,23.3119476 49.0644361,23.3119476 C49.0644361,23.3119476 49.4166782,20.5111747 49.744028,19.5775837 C50.0712073,18.6439928 51.0024494,18.9467005 51.9084582,18.9467005 C52.814467,18.9467005 53.0661172,19.7290231 53.0661172,19.7290231 C53.0661172,19.7290231 53.9973593,22.9333493 54.2239467,23.5138097 C54.4505342,24.0940993 53.8217497,25.4553439 53.8217497,25.4553439 L53.8217497,25.4553439 Z M185.470767,32.6018785 L154.857591,4.00582655 L134.457047,4.00582655 L134.396522,1.07019402 L122.979856,1.19189244 L122.964511,4.00582655 L72.6385678,4.00582655 L72.5294511,0.76902462 L60.8130554,0.76902462 L60.873581,4.00582655 L41.9328133,4.00582655 L9.60156246,30.0964636 L37.9648902,30.5005297 L39.4144361,25.7168588 L56.916058,25.3992806 L57.6341817,30.7806753 L134.560197,31.8766448 L135.554863,28.0985242 L141.722338,28.126214 C141.722338,28.126214 140.955794,25.7989027 141.355604,24.8516377 C141.755414,23.9043728 142.191539,22.4468975 142.191539,22.4468975 C142.191539,22.4468975 142.482403,21.5360395 143.245538,21.4632256 C144.008842,21.3904116 145.425994,21.3174267 145.644057,22.0826568 C145.86229,22.847716 146.225615,25.1430644 146.225615,25.1430644 C146.225615,25.1430644 146.361328,25.83907 145.991696,26.783942 C145.676963,27.5883139 145.501694,28.1433065 145.501694,28.1433065 L153.214874,28.1780042 L153.779894,32.1502953 L185.470767,32.6018785 Z" id="Fill-13" fill="#CCBA15"></path>
                    <path d="M141.722253,28.1262995 L145.501779,28.179559 L141.722253,28.1262995 Z" id="Fill-15" fill="#93820A"></path>
                    <g id="Group-19" transform="translate(0.000000, 0.008888)">
                        <mask id="mask-2" fill="white">
                            <use xlink:href="#path-1"></use>
                        </mask>
                        <g id="Clip-18"></g>
                        <path d="M154.636885,33.9273999 L190.771702,34.3940245 L158.536099,4.59517508 L134.457133,4.59517508 C134.13217,4.59517508 133.867221,4.33468576 133.860572,4.00924504 L133.811981,1.66586677 L123.573433,1.77491675 L123.561157,4.00018603 C123.559452,4.32921617 123.292799,4.59517508 122.964426,4.59517508 L72.638653,4.59517508 C72.3169295,4.59517508 72.0530037,4.33947165 72.0422625,4.01710758 L71.9524118,1.35837315 L61.4211247,1.35837315 L61.4702272,3.98565743 C61.4731256,4.14615577 61.4117475,4.30135544 61.299562,4.41587502 C61.1873765,4.53056552 61.0337608,4.59517508 60.8736663,4.59517508 L38.8495019,4.59517508 L2.36022633,31.9612526 L36.7612829,32.405486 L38.8435346,25.5339693 C38.9187228,25.2857866 39.1447988,25.11452 39.4036097,25.1097341 L56.9052316,24.7921559 C57.2110991,24.7863445 57.4671822,25.0097431 57.5075894,25.3110835 L58.4918553,32.6859735 L133.472696,33.6540913 L134.977823,27.9370003 C135.047215,27.6734344 135.28318,27.4941343 135.557505,27.4913995 L153.217517,27.5708795 C153.513496,27.5722469 153.763782,27.7908597 153.805553,28.0846793 L154.636885,33.9273999 Z M192.320817,35.6104959 L192.313145,35.6104959 L154.110568,35.1172071 C153.816465,35.1134468 153.568907,34.8953468 153.527476,34.6034073 L152.696826,28.7649598 L136.01392,28.6899238 L134.50777,34.410946 C134.438549,34.6738283 134.201391,34.8565469 133.930986,34.8565469 L133.923143,34.8565469 L57.9611053,33.8757807 C57.664956,33.8720203 57.4163747,33.6511855 57.3773314,33.3568531 L56.3951115,25.9982009 L39.8591716,26.2981739 L37.7729984,33.1833645 C37.6955938,33.4380424 37.4608226,33.6122147 37.1943394,33.6075997 L0.589127385,33.1349928 C0.33355583,33.1317452 0.108332332,32.9656064 0.0293932862,32.7220386 C-0.0497162544,32.4782999 0.0346786219,32.2113155 0.239272261,32.0578251 L38.2935187,3.5178364 C38.3968385,3.44040749 38.5221521,3.39870185 38.6510461,3.39870185 L60.2655117,3.39870185 L60.2164092,0.771417567 C60.2135108,0.61091923 60.2748889,0.45571956 60.3870744,0.341199979 C60.4992599,0.226509474 60.6528756,0.16189992 60.8129701,0.16189992 L72.5293659,0.16189992 C72.8510894,0.16189992 73.1150152,0.417603341 73.1257564,0.739967413 L73.2154366,3.39870185 L122.370934,3.39870185 L122.383039,1.17975679 C122.384914,0.853119596 122.647647,0.588186238 122.973462,0.584767743 L134.390128,0.463240249 C134.392345,0.463069324 134.394391,0.463069324 134.396607,0.463069324 C134.720888,0.463069324 134.986348,0.723216788 134.992998,1.04899936 L135.041589,3.39870185 L158.769165,3.39870185 C158.91903,3.39870185 159.06361,3.45527794 159.173749,3.55714909 L192.725401,34.5724699 C192.907149,34.740489 192.966651,35.0033712 192.875266,35.2336068 C192.784733,35.4612786 192.564966,35.6104959 192.320817,35.6104959 L192.320817,35.6104959 Z" id="Fill-17" fill="#93820A" mask="url(#mask-2)"></path>
                    </g>
                    <g id="Group-22" transform="translate(0.000000, 24.792976)">
                        <mask id="mask-4" fill="white">
                            <use xlink:href="#path-3"></use>
                        </mask>
                        <g id="Clip-21"></g>
                        <path d="M151.155895,57.274729 L183.68833,57.7649411 L191.616163,10.8173828 L154.110568,10.333153 C153.816465,10.3292217 153.568907,10.1112927 153.527476,9.81935322 L152.696826,3.98090572 L136.01392,3.90586976 L134.50777,9.62689195 C134.437867,9.89216716 134.189456,10.0748857 133.923143,10.0724928 L57.9611053,9.09172657 C57.664956,9.0877953 57.4163747,8.86696053 57.3773314,8.57279904 L56.3951115,1.21397592 L39.8591716,1.51411978 L37.7729984,8.3991395 C37.6964463,8.65159535 37.4645735,8.82354564 37.2021822,8.82354564 L37.1943394,8.82354564 L1.2835523,8.35999773 L7.78263975,55.1142402 L39.6627617,55.5947096 C39.861388,55.2132056 40.2347714,54.7023115 40.8465064,54.5795876 C41.4764843,54.4534451 57.6876318,54.7108578 58.5469251,54.8605878 C59.1840638,54.9716889 59.5971724,55.4593372 59.8232484,55.8984429 L131.046898,56.9716794 C131.303833,56.6323938 131.794858,56.1377376 132.541454,56.0032198 C132.579645,55.9963828 132.621416,55.9934771 132.656538,55.9938189 L149.663725,56.2659311 C149.699529,56.2664439 149.734992,56.2703752 149.770114,56.2772121 C150.378439,56.3980559 150.885149,56.9313412 151.155895,57.274729 M184.19146,58.969106 C184.18822,58.969106 184.185322,58.9689351 184.182253,58.9689351 L150.840309,58.4665872 C150.642365,58.4636815 150.458913,58.3624941 150.350308,58.1965261 C150.174016,57.9297126 149.817341,57.5412006 149.576432,57.4612079 L132.702742,57.1911468 C132.182563,57.3142126 131.896473,57.844763 131.893574,57.8502326 C131.78855,58.0486762 131.581399,58.1760152 131.354811,58.1729385 L59.4109922,57.0889338 C59.145873,57.0848316 58.9151936,56.9062152 58.8446088,56.649999 C58.8038606,56.5100117 58.6212608,56.0879985 58.3425019,56.0392849 C57.4173977,55.9061345 42.0201919,55.6531659 41.0713889,55.755037 C40.9029401,55.7996484 40.6969825,56.1454292 40.6212829,56.3801088 C40.5413208,56.627266 40.310812,56.7971652 40.052342,56.7971652 C40.0494436,56.7971652 40.0465452,56.7971652 40.0434763,56.7969943 L7.25325371,56.3028509 C6.95897986,56.2985777 6.71176254,56.0796231 6.67118481,55.7873418 L0.00569452297,7.83525876 C-0.0183452297,7.66262476 0.0341671378,7.48793967 0.14925106,7.35718224 C0.264334982,7.22625389 0.430737809,7.15258532 0.604471908,7.15463642 L36.7614534,7.62126098 L38.8435346,0.749915234 C38.9187228,0.501732501 39.1447988,0.330294981 39.4036097,0.325680012 L56.9052316,0.00810183299 C57.2110991,0.00570888654 57.4671822,0.225689036 57.5075894,0.526858439 L58.4918553,7.90191941 L133.472696,8.87003718 L134.977823,3.15294625 C135.047044,2.89023491 135.283861,2.70734543 135.554778,2.70734543 L135.557505,2.70734543 L153.217517,2.78682544 C153.513496,2.78802191 153.763782,3.00680559 153.805553,3.3004543 L154.636885,9.14334585 L192.32849,9.6299686 C192.502906,9.63219062 192.667604,9.710816 192.779107,9.84499193 C192.890781,9.97916786 192.938179,10.1557331 192.909365,10.3280253 L184.779666,58.4706894 C184.731075,58.7586976 184.481983,58.9689351 184.19146,58.969106" id="Fill-20" fill="#93820A" mask="url(#mask-4)"></path>
                    </g>
                    <g id="Group-25" transform="translate(8.865724, 0.008888)">
                        <mask id="mask-6" fill="white">
                            <use xlink:href="#path-5"></use>
                        </mask>
                        <g id="Clip-24"></g>
                        <path d="M145.433002,31.5505888 L175.065833,31.972602 L145.756942,4.59507252 L125.59134,4.59507252 C125.266548,4.59507252 125.001428,4.33475413 124.994779,4.00931341 L124.946359,1.66576421 L114.70764,1.7748142 L114.695535,4.00008348 C114.69366,4.32928454 114.427177,4.59507252 114.098804,4.59507252 L63.7728604,4.59507252 C63.4511369,4.59507252 63.1872111,4.3393691 63.17647,4.01717595 L63.0867898,1.35844152 L52.5553322,1.35844152 L52.6044346,3.98555487 C52.6075035,4.14622414 52.5459549,4.30125288 52.4337694,4.41594339 C52.3215839,4.53046297 52.1681387,4.59507252 52.0078737,4.59507252 L33.277326,4.59507252 L2.39937191,29.5129949 L28.6587951,29.8871491 L29.977742,25.5340377 C30.0529302,25.285855 30.2791767,25.1144174 30.5378171,25.1098025 L48.0396095,24.7922243 C48.345477,24.7896604 48.6015601,25.0098115 48.6417968,25.3109809 L49.2917226,30.1809688 L125.236541,31.2629224 L126.112201,27.9368978 C126.181252,27.6743574 126.418239,27.4914679 126.689155,27.4914679 L126.691713,27.4914679 L144.351724,27.570777 C144.647874,27.5721444 144.897989,27.7907571 144.939761,28.0845768 L145.433002,31.5505888 Z M176.605059,33.1911245 L176.596534,33.1911245 L144.905832,32.7397122 C144.61224,32.7354391 144.365023,32.5175101 144.323593,32.2259124 L143.831034,28.7650282 L127.148298,28.6899922 L126.271273,32.0204609 C126.201541,32.286078 125.959097,32.4676 125.685965,32.4658908 L48.7599496,31.3700922 C48.4643118,31.3658191 48.216242,31.1449844 48.1770283,30.8511647 L47.5294894,25.9980984 L30.9935495,26.2982422 L29.6701696,30.6655404 C29.5936175,30.9178254 29.3615742,31.0899466 29.0991829,31.0899466 C29.0962845,31.0899466 29.0935565,31.0899466 29.0906581,31.0897757 L0.727330389,30.6857096 C0.475680212,30.6821201 0.253525618,30.5209381 0.171688163,30.2824981 C0.089680212,30.0440581 0.165720848,29.7796375 0.361619258,29.6215321 L32.6928701,3.53089505 C32.7987473,3.44526175 32.9308807,3.39859929 33.0669355,3.39859929 L51.3998896,3.39859929 L51.3507871,0.771485937 C51.3477182,0.610816675 51.4090963,0.45578793 51.5214523,0.341097425 C51.6336378,0.226577844 51.787083,0.16196829 51.9473481,0.16196829 L63.6635733,0.16196829 C63.9852968,0.16196829 64.2492226,0.417671711 64.2599638,0.739864859 L64.3498145,3.39859929 L113.505141,3.39859929 L113.517417,1.17965423 C113.519122,0.853017041 113.781854,0.588254608 114.10784,0.584665189 L125.524336,0.463137694 L125.530985,0.463137694 C125.855095,0.463137694 126.120726,0.723114233 126.127375,1.0488968 L126.175966,3.39859929 L145.991883,3.39859929 C146.142942,3.39859929 146.288374,3.45603001 146.398684,3.55909763 L177.01186,32.1551496 C177.192243,32.3238523 177.250723,32.5865637 177.158655,32.8159447 C177.067782,33.0429327 176.848526,33.1911245 176.605059,33.1911245 L176.605059,33.1911245 Z" id="Fill-23" fill="#93820A" mask="url(#mask-6)"></path>
                    </g>
                    <path d="M23.8136767,66.4288602 C23.8148701,66.4288602 23.8158931,66.4288602 23.8170866,66.4290311 C25.1936608,66.4842398 26.1924187,66.4420214 26.4026387,66.4317659 C26.5085159,66.4025378 27.0285247,66.2121276 27.2750601,65.2443517 L27.3188772,65.0727432 C27.6876572,63.6296256 28.3046776,61.2144589 27.9207235,59.9224388 C27.8382041,59.6445151 27.759265,59.3643695 27.6801555,59.0840529 C27.3393366,57.8747603 27.0172721,56.7324702 26.4031502,55.7180318 C26.053636,55.1411608 25.6795707,54.9519471 24.8640945,54.9391278 C24.7009311,54.9367348 24.5389611,54.9310943 24.3778436,54.9252829 C24.2329231,54.920326 24.0886846,54.9151983 23.9451281,54.9126344 C23.5737906,54.9061393 23.1738101,54.9148565 22.7741705,55.015873 C22.6889231,55.0835592 22.5359894,55.2449121 22.4775097,55.3295199 L22.4476731,55.4354932 C22.1303825,56.5629129 21.8023507,57.7287906 21.6081572,58.8910788 C21.6044064,58.9122735 21.599803,58.9332972 21.5940062,58.9539791 C20.8146749,61.7347538 23.0280371,66.1261524 23.8136767,66.4288602 L23.8136767,66.4288602 Z M25.2042314,67.6537069 C24.8028869,67.6537069 24.3229443,67.6465281 23.7845221,67.6251625 L23.7831581,67.6251625 C23.3366325,67.6251625 22.885333,67.3231384 22.403856,66.7028525 C21.1415133,65.0761617 19.7209514,61.2859055 20.4361767,58.6622106 C20.6417933,57.4464229 20.9759629,56.2591796 21.2990504,55.1105653 L21.342697,54.9553656 C21.437492,54.6191566 22.0180265,53.9834875 22.3944788,53.8790525 C22.9620557,53.7216308 23.5078092,53.7086405 23.9655875,53.7163321 L23.965758,53.7163321 C24.1163048,53.7190669 24.2675336,53.7243656 24.4197853,53.7296643 C24.5730601,53.7349629 24.7271873,53.7404325 24.8826784,53.7428255 C25.7414602,53.7563285 26.714644,53.9275951 27.4230495,55.0970622 C28.1217367,56.2504624 28.4811396,57.525561 28.8286078,58.7587831 C28.9061829,59.0336301 28.983417,59.3083061 29.0645724,59.5807602 C29.5428101,61.1903585 28.9002155,63.7053453 28.4750018,65.3694686 L28.4315256,65.5402224 C28.0496175,67.0397452 27.0721714,67.5532032 26.555061,67.6200347 C26.5412509,67.6219149 26.5274408,67.6231114 26.5136307,67.623966 C26.4834532,67.6256752 25.9965203,67.6537069 25.2042314,67.6537069 L25.2042314,67.6537069 Z" id="Fill-26" fill="#93820A"></path>
                    <path d="M164.926189,57.5356627 L164.927894,57.5356627 L164.926189,57.5356627 Z M167.175526,57.2213321 C166.759178,57.2213321 166.344364,57.2240669 166.035598,57.2319294 C165.592483,57.2433814 165.521386,57.594119 165.514737,57.6339444 C165.509622,57.6648818 165.50212,57.6951355 165.492232,57.7248764 C165.445516,57.8658893 164.339858,61.1893501 163.948743,62.1694326 C163.631964,62.9630362 163.78558,63.853725 163.787114,63.8626131 C163.788478,63.8704757 163.790183,63.8802184 163.791206,63.8880809 C163.795298,63.9176509 164.202269,66.8578984 164.480005,67.8550733 C164.629188,68.3912643 165.276385,68.3049473 165.303835,68.301016 C165.334865,68.296572 165.365384,68.2950336 165.398119,68.2952046 C165.412781,68.2953755 166.881934,68.319134 167.940195,68.2952046 C168.576481,68.2808469 168.727539,67.7819176 168.728903,67.7769607 C168.732824,67.7631158 168.737428,67.7492709 168.742372,67.7357679 C168.754989,67.7015829 170.005908,64.3006932 170.219197,63.6590417 C170.377416,63.1831872 170.384577,62.7300657 170.383895,62.6266563 C170.151511,60.8837366 169.744711,58.1256949 169.562622,57.5787357 C169.443276,57.2199647 168.910309,57.2307329 168.888316,57.2315876 C168.879791,57.2319294 168.864617,57.2322713 168.857115,57.2321003 C168.844498,57.2319294 168.006858,57.2213321 167.175526,57.2213321 L167.175526,57.2213321 Z M165.19523,69.5041553 C164.563036,69.5041553 163.625144,69.2354616 163.330529,68.1767537 C163.037108,67.1235154 162.642242,64.2919761 162.61053,64.0625951 C162.583933,63.9068826 162.415655,62.7895476 162.840528,61.7250282 C163.197203,60.8309209 164.223581,57.7564975 164.347701,57.3833687 C164.450168,56.9001645 164.907605,56.0640006 166.004909,56.035798 C166.917908,56.0123813 168.65542,56.0330632 168.855922,56.0354562 C169.402698,56.0159708 170.374859,56.2378311 170.694877,57.2003083 C170.972272,58.0342502 171.510695,62.0468795 171.571391,62.5017103 C171.573607,62.5199992 171.575312,62.5384591 171.575994,62.556919 C171.577188,62.5861471 171.601739,63.2842038 171.351453,64.0372982 C171.137823,64.6799753 169.97539,67.8419121 169.868319,68.132997 C169.721694,68.6052621 169.149173,69.4648426 167.966792,69.4913359 C166.974513,69.5137271 165.675173,69.4959509 165.420624,69.4921906 C165.351915,69.4998822 165.276215,69.5041553 165.19523,69.5041553 L165.19523,69.5041553 Z" id="Fill-28" fill="#93820A"></path>
                    <path d="M49.655115,23.4017173 C49.6515346,23.4788044 49.6500002,23.9926041 50.121759,24.924144 L53.4216839,24.8643203 C53.6044542,24.3800905 53.7174922,23.8835542 53.6677078,23.7300637 C53.4414613,23.1507998 52.6104701,20.2992622 52.4972617,19.9098956 C52.4657201,19.8281936 52.324039,19.5449713 51.9085435,19.5449713 C51.7063367,19.5449713 51.5121433,19.531981 51.3240876,19.5195035 C50.5026442,19.4644658 50.397108,19.5189907 50.3069163,19.7758906 C50.0559481,20.4918944 49.7521265,22.6252062 49.656479,23.3868468 C49.654433,23.4029138 49.6563085,23.3965895 49.655115,23.4017173 M49.7690055,26.1271124 C49.5545231,26.1271124 49.3562378,26.0117382 49.2500196,25.8242337 C48.3871459,24.3000978 48.4444322,23.427356 48.4732458,23.2294251 C48.5148465,22.9012496 48.8450947,20.3372075 49.1811398,19.3791743 C49.592714,18.2045794 50.6825161,18.2773934 51.4035382,18.3255942 C51.5719869,18.3368752 51.7462325,18.3484981 51.9085435,18.3484981 C52.9666336,18.3484981 53.4910753,19.1007379 53.6341203,19.5453132 C53.6358253,19.5506118 53.6373597,19.5560814 53.6390647,19.561551 C53.8960002,20.4457447 54.6018482,22.8402295 54.7796742,23.2957439 C55.075994,24.0548207 54.5358668,25.332996 54.3631557,25.7066375 C54.2671671,25.9146529 54.0612095,26.0493416 53.8325761,26.0534438 L49.7797466,26.1271124 L49.7690055,26.1271124" id="Fill-30" fill="#93820A"></path>
                    <path d="M142.165965,27.5300627 L145.073923,27.543053 C145.158829,27.2996561 145.280733,26.9629344 145.436054,26.5655344 C145.730157,25.8136364 145.639624,25.2569345 145.638601,25.2514649 C145.632634,25.2142033 145.275959,22.968594 145.070342,22.2469497 C145.06932,22.2435312 144.900359,21.9062967 143.302142,22.0587616 C142.952457,22.0920919 142.761674,22.6238388 142.759969,22.6293084 C142.744965,22.6797312 142.312932,24.1185757 141.905279,25.0848133 C141.723702,25.514689 141.927955,26.6703112 142.165965,27.5300627 M145.501694,28.7415773 L145.499137,28.7415773 L141.71961,28.7244848 C141.463016,28.7232884 141.236087,28.5580041 141.155614,28.3137527 C141.015808,27.8895174 140.342354,25.7172348 140.805929,24.6185306 C141.18886,23.7117748 141.615779,22.289339 141.620041,22.2749814 C141.775873,21.7868203 142.277128,20.9547586 143.188933,20.8677579 C143.846702,20.8048576 145.846264,20.6142765 146.217942,21.9182614 C146.439074,22.6947725 146.787054,24.8730375 146.813821,25.0420821 C146.838543,25.180873 146.951581,25.9684942 146.547168,27.002418 C146.24471,27.7756816 146.07234,28.3185386 146.070635,28.3238372 C145.992037,28.5725327 145.761869,28.7415773 145.501694,28.7415773" id="Fill-32" fill="#93820A"></path>
                    <path d="M153.780422,32.7486174 C153.77275,32.7486174 153.764907,32.7484465 153.757235,32.7481046 C153.42801,32.7354562 153.171245,32.4575326 153.183861,32.1274769 L154.261388,3.98283717 C154.274175,3.65278148 154.552252,3.39365957 154.880454,3.40801725 C155.20985,3.42066568 155.466615,3.69858932 155.453828,4.028645 L154.376301,32.1732847 C154.364026,32.4956488 154.099418,32.7486174 153.780422,32.7486174" id="Fill-34" fill="#93820A"></path>
                    <path d="M41.9327451,26.1271637 C41.6031789,26.1271637 41.3360137,25.8593246 41.3360137,25.528927 L41.3360137,4.00574109 C41.3360137,3.67534355 41.6031789,3.40750447 41.9327451,3.40750447 C42.2623114,3.40750447 42.5294766,3.67534355 42.5294766,4.00574109 L42.5294766,25.528927 C42.5294766,25.8593246 42.2623114,26.1271637 41.9327451,26.1271637" id="Fill-36" fill="#93820A"></path>
                </g>
            </g>
        </g>
    </g>
</svg>