<?xml version="1.0" encoding="UTF-8" standalone="no"?>
<svg width="174px" height="125px" viewBox="0 0 174 125" version="1.1" xmlns="http://www.w3.org/2000/svg" xmlns:xlink="http://www.w3.org/1999/xlink">
    <!-- Generator: Sketch 46 (44423) - http://www.bohemiancoding.com/sketch -->
    <title>Europack</title>
    <desc>Created with Sketch.</desc>
    <defs>
        <polygon id="path-1" points="0.126572105 102.832512 33.5638655 102.832512 33.5638655 0.00802912854 0.126572105 0.00802912854 0.126572105 102.832512"></polygon>
    </defs>
    <g id="7-Productos" stroke="none" stroke-width="1" fill="none" fill-rule="evenodd">
        <g id="7.1-Limon-mexicano" transform="translate(-244.000000, -2122.000000)">
            <g id="Group-46" transform="translate(194.000000, 2059.000000)">
                <g id="Europack" transform="translate(50.000000, 63.000000)">
                    <polygon id="Fill-1" fill="#CCBA15" points="163.819243 33.7867611 169.533193 34.7164101 172.080467 26.1017241 166.04148 25.1225062"></polygon>
                    <g id="Group-70" transform="translate(0.000000, 0.067426)">
                        <path d="M5.21756492,85.4798183 L1.32653038,41.5538639 L148.769568,75.8251078 L141.068412,124.307097 L119.129462,118.03693 C119.129462,118.03693 119.689992,114.624985 116.179785,112.721659 L87.1960698,104.557558 C83.6356198,104.958113 83.8729626,107.960268 83.8729626,107.960268 L52.6032053,99.0230757 C52.6032053,99.0230757 53.371487,95.689178 49.4493205,94.1537716 L24.4321584,87.483205 C22.1000344,87.3243381 21.8232372,90.2258159 21.8232372,90.2258159 L5.21756492,85.4798183 Z" id="Fill-2" fill="#EAE406"></path>
                        <polygon id="Fill-4" fill="#E2D100" points="148.769646 75.8251693 173.426478 22.560391 167.872349 57.8645782 141.068335 124.307158"></polygon>
                        <polygon id="Fill-6" fill="#F9F44E" points="1.32653038 41.5539255 0.539600354 38.6995536 11.6338342 29.979572 14.8179263 31.0874846 23.1616039 24.6054957 19.790874 23.5683959 25.1799422 19.3327124 161.997576 47.2498922 148.769723 75.8251693"></polygon>
                        <path d="M51.2414126,0.625277094 L44.2237722,4.91083744 L47.2155242,5.51936576 L41.0979369,9.48734606 L37.9112248,8.76567118 L34.9245587,10.5895628 L34.9245587,12.443319 L165.990637,38.6237377 L168.035329,34.2067118 L164.451299,33.2978448 L167.414077,27.0772475 L171.123251,27.5359914 L173.426555,22.560468 L152.963754,18.8868227 C152.963754,18.8868227 152.620995,20.073399 150.165576,19.6245074 C147.710002,19.1756158 127.082295,15.4023707 125.181703,15.0572352 C123.281266,14.7120998 123.530938,13.6029557 123.530938,13.6029557 L94.7253842,8.43161946 C94.7253842,8.43161946 94.0389396,9.43008005 91.2734338,8.93823892 C88.5079281,8.44655172 70.3818749,5.20193966 69.0404259,4.91206897 C67.6989768,4.62235222 67.8866934,3.61342365 67.8866934,3.61342365 L51.2414126,0.625277094 Z" id="Fill-8" fill="#F9F44E"></path>
                        <path d="M28.2804404,19.9653017 C28.2804404,19.9653017 27.8043678,15.227617 29.0504174,14.3386084 C30.296467,13.4495998 33.5896751,10.8713978 33.5896751,10.8713978 C33.5896751,10.8713978 34.9328195,9.53780788 34.9244971,12.4432882 L34.9163288,15.3487685 L38.7605112,13.2096059 L162.178141,37.8623153 C162.178141,37.8623153 163.384582,34.9066502 164.554651,34.8687808 C165.72472,34.8310653 166.208653,38.1526478 165.990575,38.6238608 C165.772497,39.09492 161.997514,47.2499384 161.997514,47.2499384 L28.2804404,19.9653017 Z" id="Fill-10" fill="#CCBA15"></path>
                        <path d="M19.0771196,45.6798491 C19.0771196,45.6798491 20.1678175,41.6975523 23.2612879,42.3205511 C26.3547582,42.9435499 50.9650469,49.2848368 50.9650469,49.2848368 C50.9650469,49.2848368 53.0760106,49.4096829 52.4293286,53.4321583 C51.7829548,57.4544797 49.0737024,56.9949661 47.6424021,56.6886238 C46.2109477,56.3822814 22.7984694,50.6635314 22.7984694,50.6635314 C22.7984694,50.6635314 18.167357,49.3762777 19.0771196,45.6798491" id="Fill-12" fill="#CCBA15"></path>
                        <path d="M86.1128774,61.2614378 C86.1128774,61.2614378 87.0039917,58.271444 91.349214,59.190625 C95.6942822,60.1096521 121.611652,66.2879156 121.611652,66.2879156 C121.611652,66.2879156 125.346718,67.0750154 124.808381,70.255742 C124.269891,73.4363147 122.378546,75.0192888 119.566805,74.4064501 C116.755372,73.7937654 89.6110634,67.0028171 89.6110634,67.0028171 C89.6110634,67.0028171 85.1197366,65.6299723 86.1128774,61.2614378" id="Fill-14" fill="#CCBA15"></path>
                        <path d="M31.0604487,31.2008005 L37.2247339,29.7269704 C37.2247339,29.7269704 39.6510244,29.2357451 41.2577118,30.0873461 C42.8643991,30.9387931 43.6183477,32.1178264 41.7495045,32.8382697 C39.8805072,33.558867 34.3064965,34.5086823 34.3064965,34.5086823 C34.3064965,34.5086823 31.1587764,35.1309113 29.7815718,33.7552956 C28.4045213,32.3798337 29.6177437,31.5938116 31.0604487,31.2008005" id="Fill-16" fill="#CCBA15"></path>
                        <path d="M60.2423139,37.9474754 C60.2423139,37.9474754 57.5865407,38.537069 58.7341084,40.1091133 C59.8816762,41.6810037 62.8327408,41.8120074 65.5213414,41.4191502 C68.2099419,41.0261392 72.144592,39.7770628 72.144592,39.7770628 C72.144592,39.7770628 74.1447444,38.6679187 71.226507,37.1286638 C68.3082696,35.5894089 61.3347072,37.6943966 60.2423139,37.9474754" id="Fill-18" fill="#CCBA15"></path>
                        <path d="M91.4570663,44.5631466 C91.4570663,44.5631466 88.5388289,45.3163793 88.9979484,46.8557882 C89.4569139,48.3950431 92.0473408,49.1810653 94.2441486,48.9190579 C96.4409564,48.6570505 101.687157,47.6418103 102.310104,47.1176416 C102.933206,46.5936268 103.916792,45.0871613 101.392019,44.0719212 C98.8674011,43.056681 96.6655074,43.5811576 95.1950609,43.744335 C93.7195286,43.9081281 91.4570663,44.5631466 91.4570663,44.5631466" id="Fill-20" fill="#CCBA15"></path>
                        <path d="M123.837495,51.8631619 C122.95532,52.1008467 121.642691,52.4904711 121.813763,53.6744304 C121.814225,53.6767395 121.814533,53.6792026 121.814842,53.6815117 C122.109979,55.711992 125.847974,56.792811 129.880951,56.1377925 C133.913929,55.482774 137.422287,54.860545 136.405874,52.7316964 C135.777687,51.4161176 133.337834,51.058359 132.110587,50.9632235 C130.490029,50.8374538 129.0296,51.2044489 127.416131,51.2911176 C126.987065,51.3142087 124.59129,51.6601139 123.837495,51.8631619" id="Fill-22" fill="#CCBA15"></path>
                        <path d="M59.9376829,12.0439501 L64.5062232,11.8053417 C64.5062232,11.8053417 67.1934367,11.5368688 66.5962267,10.403556 C65.9990168,9.27024323 63.1325633,9.15093904 61.7889566,9.21051416 C60.4453499,9.27024323 55.1601577,9.15093904 55.1005137,10.2842518 C55.0408698,11.4175647 56.8345031,12.2060499 59.9376829,12.0439501" id="Fill-24" fill="#CCBA15"></path>
                        <path d="M85.2581506,17.0544797 C85.2581506,17.0544797 90.4536457,16.7562962 91.5585226,16.5176878 C92.5438034,16.4282482 93.8000248,15.8643627 92.665403,15.0292334 C91.5306271,14.194258 89.333357,14.0714132 87.1094243,14.1614686 C84.8999787,14.2510622 80.5116032,14.3752925 81.6154012,15.980742 C82.4215961,17.1534637 84.2452826,17.1408405 85.2581506,17.0544797" id="Fill-26" fill="#CCBA15"></path>
                        <path d="M114.012429,22.4527401 C114.789341,22.4652094 118.86054,21.9782943 120.099192,21.8149631 C120.623967,21.7456897 121.608477,21.3922414 121.37175,20.6620998 C121.099423,19.8235837 119.634216,19.6209975 118.900303,19.4862993 C116.37137,19.1123768 108.249623,19.3326663 109.43834,21.0629618 C109.449899,21.0791256 109.461612,21.0951355 109.473942,21.1106835 C110.489122,22.393165 112.161155,22.4228756 114.012429,22.4527401" id="Fill-28" fill="#CCBA15"></path>
                        <path d="M140.590228,24.8670105 C139.716375,25.1163947 138.746968,25.5925339 139.155383,26.5055573 C139.76523,27.8690117 143.076316,28.1590363 145.225501,27.8979526 C147.374686,27.6368688 150.598387,26.8827124 150.598387,26.8827124 C150.598387,26.8827124 152.457213,26.3025092 150.743721,25.113008 C149.398419,24.1793565 147.517092,24.0492765 145.931673,24.0902248 C144.432869,24.1288639 142.931753,24.4008775 141.460228,24.6701201 C141.236601,24.7109144 140.92035,24.7727986 140.590228,24.8670105" id="Fill-30" fill="#CCBA15"></path>
                        <path d="M86.0719435,61.7907635 C86.0314103,61.7907635 85.9904147,61.7861453 85.949265,61.776601 L52.3071587,53.9568658 C52.0169532,53.8894397 51.8364802,53.5998768 51.9039842,53.3100062 C51.9713341,53.0202894 52.2615396,52.8400246 52.551591,52.9072968 L86.1936973,60.727032 C86.4839027,60.7946121 86.6643757,61.0841749 86.5968717,61.3738916 C86.5389231,61.6226601 86.3171463,61.7907635 86.0719435,61.7907635" id="Fill-32" fill="#93820A"></path>
                        <path d="M141.068227,124.845951 C141.018601,124.845951 140.968666,124.839024 140.91981,124.825169 L118.981169,118.554849 C118.71778,118.479726 118.552873,118.219412 118.597105,117.949708 C118.616062,117.82794 119.032028,114.916456 115.974159,113.223568 L87.1536563,105.105342 C84.2528344,105.486038 84.4027919,107.817626 84.410806,107.917842 C84.4246767,108.093796 84.3513162,108.265594 84.2144588,108.377355 C84.0776014,108.489116 83.8943543,108.526678 83.7246696,108.478341 L52.4546041,99.5409945 C52.1787316,99.4621767 52.013054,99.1813885 52.0773215,98.9021398 C52.102597,98.7868381 52.6705244,96.0095905 49.2803756,94.6664563 L24.3461293,88.0180573 C24.3168468,88.0166718 24.2877183,88.016056 24.2590523,88.016056 C22.5951869,88.016056 22.3690948,90.1823122 22.3601559,90.2769858 C22.3448981,90.4363147 22.2593623,90.5807112 22.1269743,90.6710745 C21.9947405,90.7612839 21.8287547,90.7879156 21.674636,90.7438885 L5.0691178,85.997891 C4.85443047,85.9364686 4.69984942,85.7494304 4.68012223,85.5272937 L0.789087688,41.6013393 C0.773829938,41.4293873 0.842104517,41.2605142 0.972643047,41.1472137 C1.10318158,41.0339132 1.28026395,40.99004 1.44871568,41.029141 L19.1991816,45.1550647 C19.4893871,45.2224908 19.6698601,45.5122075 19.6023561,45.8019243 C19.5350062,46.091795 19.2443384,46.2722137 18.9547493,46.2046336 L1.92925775,42.2472752 L5.72211869,85.0636238 L21.39676,89.5436115 C21.6948255,88.3482605 22.5709903,86.8160868 24.4686537,86.945705 C24.5033304,86.9480142 24.5376988,86.95371 24.5709885,86.9626385 L49.5884588,93.633205 C49.6080319,93.638439 49.6272967,93.6447506 49.6462533,93.6521398 C52.6939504,94.8451817 53.3110416,97.2001693 53.2039291,98.6342826 L83.384992,107.26036 C83.5571426,106.200015 84.2710204,104.344566 87.1356244,104.02206 C87.2045155,104.014363 87.275256,104.020058 87.3422976,104.038993 L116.326167,112.203094 C116.364696,112.214024 116.401839,112.22911 116.437132,112.248199 C119.424877,113.868273 119.712308,116.546228 119.695047,117.638131 L140.630992,123.621813 L148.157995,76.2361915 L124.686027,70.7805265 C124.395821,70.7129464 124.215348,70.4233836 124.282852,70.1335129 C124.350356,69.8437962 124.640562,69.6635314 124.930459,69.7309575 L148.891754,75.3003849 C149.167472,75.3644243 149.346558,75.6304341 149.302326,75.9096829 L141.601015,124.391518 C141.576818,124.543919 141.488508,124.678618 141.358124,124.761592 C141.270585,124.817164 141.169945,124.845951 141.068227,124.845951" id="Fill-34" fill="#93820A"></path>
                        <g id="Group-38" transform="translate(140.402126, 22.013547)">
                            <mask id="mask-2" fill="white">
                                <use xlink:href="#path-1"></use>
                            </mask>
                            <g id="Clip-37"></g>
                            <path d="M8.88842551,53.9698892 L1.94476209,97.6824815 L26.9468205,35.7066502 L31.8912563,4.27854064 L8.88842551,53.9698892 Z M0.666193446,102.832574 C0.618570771,102.832574 0.570023384,102.826108 0.522092471,102.812869 C0.257624801,102.739748 0.090406023,102.479895 0.133251019,102.209113 L7.83456191,53.7272783 C7.84242197,53.6781712 7.85690912,53.6304495 7.87771515,53.5854988 L32.534856,0.320720443 C32.6476709,0.0768780788 32.9233892,-0.0467364532 33.1809215,0.0313115764 C33.4384539,0.109359606 33.5990455,0.365055419 33.5572794,0.630603448 L28.0029959,35.9346367 C27.9965229,35.9749692 27.9857346,36.014532 27.9703228,36.0524015 L1.16646271,102.494982 C1.08262214,102.70311 0.881497254,102.832574 0.666193446,102.832574 L0.666193446,102.832574 Z" id="Fill-36" fill="#93820A" mask="url(#mask-2)"></path>
                        </g>
                        <g id="Group-41" transform="translate(0.000000, 18.780788)" fill="#93820A">
                            <path d="M148.769646,57.5832512 C148.729112,57.5832512 148.688117,57.578633 148.647275,57.5690887 L124.68598,51.9996613 C124.395929,51.9322352 124.215456,51.6425185 124.282806,51.3528017 C124.350464,51.062931 124.640515,50.8828202 124.930413,50.9500924 L148.464182,56.4202278 L161.221819,28.8608067 L25.3170308,1.12974138 L20.9329706,4.57540025 L23.3202691,5.30985222 C23.5126092,5.36896552 23.6559396,5.53014163 23.6921575,5.72764778 C23.7283754,5.92530788 23.6514702,6.12666256 23.4927279,6.25012315 L15.1488962,12.7321121 C15.004487,12.844181 14.8127633,12.8757389 14.6403045,12.815548 L11.7353213,11.8047722 L1.15461098,20.1208128 L1.76122214,22.3210899 L19.1991353,26.3743534 C19.4893408,26.4417796 19.6698138,26.7313424 19.6023098,27.0212131 C19.53496,27.3110837 19.2442921,27.4910406 18.9547031,27.4237685 L1.20408308,23.2978448 C1.01158884,23.253048 0.858857219,23.1066502 0.806302746,22.9162254 L0.0193727192,20.0616995 C-0.0382676705,19.8526478 0.0352469442,19.6294335 0.205856333,19.495197 L11.3002443,10.7753695 C11.4449617,10.6617611 11.6377642,10.6295874 11.8113019,10.6900862 L14.7181345,11.7016318 L22.0124179,6.03491379 L19.6319006,5.302617 C19.440177,5.24350369 19.2970007,5.08325123 19.2603205,4.8862069 C19.2236402,4.68916256 19.2994666,4.48811576 19.45713,4.36419335 L24.8463523,0.128509852 C24.9708802,0.0304495074 25.1325508,-0.00757389163 25.2877483,0.0239839901 L162.105227,27.9413177 C162.266744,27.9742611 162.404372,28.0790948 162.478657,28.2261084 C162.55325,28.372968 162.556179,28.5458436 162.486979,28.6953202 L149.259126,57.2705973 C149.169429,57.4642549 148.976165,57.5832512 148.769646,57.5832512" id="Fill-39"></path>
                        </g>
                        <path d="M86.1133244,61.8003541 C86.0727911,61.8003541 86.0317956,61.7957358 85.9906459,61.7861915 L52.3070817,53.9569119 C52.0170303,53.8894858 51.8365573,53.5997691 51.9039072,53.3100523 C51.9714112,53.0201817 52.2616167,52.8400708 52.5515139,52.907343 L86.2350781,60.7366225 C86.5252836,60.8042026 86.7057566,61.0937654 86.6382526,61.3834821 C86.580304,61.6322506 86.3585272,61.8003541 86.1133244,61.8003541" id="Fill-42" fill="#93820A"></path>
                        <path d="M165.990251,39.1627001 C165.914425,39.1627001 165.83752,39.1466903 165.764313,39.1128233 C165.493835,38.9879772 165.375934,38.6677802 165.501079,38.3977679 L167.273135,34.569258 L164.31868,33.8200277 C164.16225,33.7804649 164.031711,33.6728602 163.963128,33.5269243 C163.894545,33.3809883 163.895008,33.2119612 163.964361,33.0663331 L166.926985,26.8457358 C167.027008,26.6360683 167.250788,26.5139932 167.480271,26.5426262 L170.798909,26.9530326 L172.643863,22.9673491 L153.227066,19.4816656 C152.857027,19.9297876 151.992884,20.5062962 150.068404,20.1545413 L146.231927,19.4528787 C139.360237,18.1962592 126.569465,15.8568196 125.085148,15.5872691 C124.199428,15.4265548 123.579254,15.0868073 123.241734,14.5775708 C123.121522,14.3962284 123.054326,14.2175031 123.01857,14.0584821 L94.897766,9.0101447 C94.4488182,9.36005234 93.3852452,9.86097599 91.178882,9.46873461 C88.2791389,8.95318658 70.2860902,5.73243534 68.926301,5.43871613 C67.8716668,5.21088362 67.4868324,4.57741687 67.3761752,4.069258 L51.3478315,1.19179495 L45.6747226,4.65608067 L47.323022,4.99136392 C47.5375552,5.03492919 47.7044657,5.20395628 47.7453072,5.41885776 C47.7861486,5.63375924 47.6927527,5.85204741 47.5091973,5.97119766 L41.391456,9.93917796 C41.269394,10.0184575 41.1208236,10.0449353 40.9784179,10.0127617 L38.0054684,9.3395782 L35.463743,10.8916102 L35.463743,12.001524 L162.283851,37.3338824 C162.575906,37.392226 162.765472,37.676093 162.706907,37.9679649 C162.64865,38.2596829 162.364147,38.4490302 162.072092,38.3905326 L34.8186021,12.9716595 C34.566464,12.9211669 34.3849121,12.7001078 34.3849121,12.4433344 L34.3849121,10.5894243 C34.3849121,10.4017703 34.4827775,10.2276632 34.6430609,10.1297568 L37.629727,8.30601909 C37.7496314,8.23274323 37.8934241,8.20919027 38.0302815,8.24013239 L40.9949086,8.91162254 L45.8158953,5.78446736 L44.1159662,5.43871613 C43.8988129,5.3945351 43.7306694,5.22212131 43.6922939,5.00398707 C43.6539183,4.78600677 43.7531708,4.56664101 43.9422744,4.45118534 L50.9599148,0.165625 C51.0728838,0.0968134236 51.2065047,0.0717210591 51.3368891,0.094966133 L67.9820158,3.08311268 C68.1279662,3.10943658 68.2592753,3.18132697 68.34065,3.30524938 C68.4218705,3.4291718 68.4513072,3.56787254 68.4169387,3.71196121 C68.403068,3.81971983 68.4089245,4.22443042 69.1543966,4.38545259 C70.4762726,4.67116687 88.5836774,7.91270012 91.3679857,8.40792796 C93.5261097,8.79154865 94.2068519,8.19548953 94.2869936,8.11528633 C94.400425,7.92286022 94.597851,7.86143781 94.8205525,7.90146244 L123.62626,13.0726447 C123.778375,13.1000462 123.91662,13.170859 123.99707,13.3024784 C124.07567,13.4317888 124.101562,13.5686422 124.059642,13.7128849 C124.037449,13.9342518 124.268319,14.3437346 125.278104,14.5270782 C126.763192,14.7967826 139.554273,17.1362223 146.426271,18.3929957 L150.262593,19.0945043 C151.739204,19.3643627 152.331791,18.9788947 152.44738,18.7268935 C152.506253,18.4430265 152.770875,18.3047876 153.059077,18.3565117 L173.521878,22.030157 C173.686476,22.0597137 173.827957,22.1636238 173.905017,22.3117149 C173.98223,22.459806 173.986237,22.6351447 173.916113,22.7866225 L171.612809,27.7621459 C171.514328,27.9747383 171.290239,28.0995844 171.056903,28.0707974 L167.734104,27.6597752 L165.220583,32.9370228 L168.167948,33.6844058 C168.323454,33.7238147 168.453222,33.8303417 168.522267,33.9750462 C168.591158,34.1195967 168.592083,34.2873922 168.524887,34.4328664 L166.480195,38.8498922 C166.389111,39.0467826 166.19415,39.1627001 165.990251,39.1627001 L165.990251,39.1627001 Z" id="Fill-44" fill="#93820A"></path>
                        <path d="M165.501002,38.3975831 C165.500385,38.3989686 165.499769,38.4003541 165.498998,38.4018935 C165.499769,38.4003541 165.500385,38.3989686 165.501002,38.3975831 M28.7820043,19.517811 L161.687026,46.6366533 C162.428029,45.035822 165.226516,38.9905634 165.49083,38.4195967 C165.568197,38.0524477 165.333629,36.2550339 164.77726,35.5656866 C164.699276,35.4691656 164.619597,35.4072814 164.573515,35.4072814 L164.571974,35.4072814 C164.090045,35.4228294 163.186601,36.8209206 162.677393,38.0658405 C162.579528,38.3049107 162.326157,38.4414563 162.072169,38.3905018 L38.8494994,13.7767395 L35.1785463,15.8195351 C35.0114817,15.9125154 34.8071203,15.9100523 34.6422133,15.8129156 C34.4773063,15.7157789 34.3760503,15.538593 34.3766668,15.3472445 L34.3849892,12.4417642 C34.3877633,11.5056496 34.2407341,11.1962284 34.1854055,11.1129464 C34.1251451,11.1351139 34.0282044,11.19746 33.9667111,11.2564193 C33.9537651,11.2690425 33.9366579,11.2842826 33.9223249,11.2953664 C33.787471,11.4009698 30.6053825,13.8911176 29.3638023,14.7770474 C28.7895561,15.1866841 28.6235702,17.4767087 28.7820043,19.517811 M161.997576,47.7887469 C161.961666,47.7887469 161.925602,47.7852063 161.889384,47.7778171 L28.1723107,20.4931804 C27.9408244,20.4459206 27.7671327,20.2538023 27.7435525,20.0191964 C27.6587872,19.1760622 27.3086296,14.9191349 28.7366934,13.9002001 C29.9084578,13.0641472 32.9583125,10.6806804 33.2366508,10.463008 C33.3812142,10.3289255 33.9690229,9.84000924 34.5990601,10.1026324 C35.3792089,10.4282174 35.4662859,11.5952432 35.46382,12.444843 L35.4581176,14.4303725 L38.4979547,12.7388701 C38.6099989,12.676524 38.7406916,12.6560499 38.8662983,12.6811422 L161.855478,37.2484144 C162.313057,36.2385622 163.322688,34.3694119 164.536989,34.330311 C164.859868,34.3201509 165.331163,34.4397629 165.749287,35.0704587 C166.41246,36.0704587 166.761847,38.241641 166.480272,38.8498615 C166.261886,39.3212284 162.486902,47.476093 162.486902,47.476093 C162.397359,47.6694427 162.204403,47.7887469 161.997576,47.7887469" id="Fill-46" fill="#93820A"></path>
                        <path d="M160.310793,46.3558959 L161.687073,46.6366841 L165.444949,38.5189193 C165.386384,37.5306188 165.167227,36.0746459 164.830015,35.6845597 C164.65956,35.4873615 164.497273,35.3819119 164.385537,35.3928417 C164.214311,35.4106989 164.004709,35.6688578 163.930424,35.8030942 C163.913934,35.8320351 162.97643,37.4530326 161.595834,40.1274477 C160.526867,42.1982605 160.342079,45.2387469 160.310793,46.3558959 M161.997468,47.7887777 C161.961712,47.7887777 161.925648,47.7852371 161.88943,47.7778479 L159.657484,47.3224908 C159.408736,47.2716903 159.229034,47.0547876 159.225951,46.8012469 C159.22364,46.6245228 159.188192,42.4404095 160.637062,39.6336053 C161.985446,37.0213824 162.917864,35.4002309 162.985677,35.282928 C163.054414,35.1574661 163.496426,34.4074661 164.264862,34.3220289 C164.601765,34.2843134 165.117138,34.3679033 165.646382,34.9802802 C166.366116,35.8124846 166.508213,38.1406866 166.529482,38.5989686 C166.533489,38.6853294 166.51669,38.7713824 166.480164,38.8498922 L162.486949,47.4761238 C162.397406,47.6694735 162.204449,47.7887777 161.997468,47.7887777" id="Fill-48" fill="#93820A"></path>
                        <path d="M22.9352035,50.1423337 C23.4988156,50.2799569 46.3580078,55.8627771 47.7552478,56.1618842 C48.7530122,56.3754002 49.7873027,56.4968596 50.5947306,55.9446736 C51.2540503,55.4939347 51.6922097,54.6198584 51.8967252,53.3467672 C52.1944826,51.4942426 51.8686756,50.6221675 51.5430229,50.2168411 C51.258828,49.863085 50.9362576,49.8229064 50.9330211,49.8227525 C50.8981903,49.8207512 50.8639759,49.8152094 50.8302239,49.8065887 C50.5842505,49.743165 26.1988209,43.4617611 23.1546686,42.8487685 C20.6255809,42.3393781 19.659719,45.6006158 19.5989963,45.8164409 C18.8410406,48.9252771 22.6807536,50.0701355 22.9352035,50.1423337 M49.1312195,57.420351 C48.4860787,57.420351 47.907363,57.2964286 47.5291557,57.2154557 C46.1066402,56.9109606 23.6262717,51.4205049 22.6701194,51.1869766 C22.6645711,51.1855911 22.659177,51.1842057 22.6536287,51.1826663 C20.8774108,50.6889778 17.7347766,48.8766318 18.5531469,45.5512007 C18.5542257,45.5467365 18.5554586,45.5421182 18.5566916,45.5376539 C18.568867,45.493165 18.8630795,44.4374384 19.5707926,43.4523707 C20.5665534,42.0665948 21.8796446,41.4925493 23.3678147,41.7924261 C26.409347,42.4049569 49.622704,48.3826355 51.062789,48.753633 C51.2700787,48.7808805 51.8786934,48.9129618 52.3845109,49.5424261 C53.0569307,50.3795567 53.2512744,51.7169951 52.9619936,53.5174877 C52.7086225,55.0938424 52.117115,56.2096059 51.2041159,56.8339901 C50.5415596,57.2868842 49.800557,57.420351 49.1312195,57.420351" id="Fill-50" fill="#93820A"></path>
                        <path d="M89.7567981,66.483867 C90.5199938,66.6747537 116.936554,73.2818966 119.68187,73.8801108 C120.799847,74.1236453 121.748601,73.9897167 122.501317,73.4817118 C123.397671,72.8767241 124.011526,71.7301724 124.276302,70.1658251 C124.720934,67.5399015 121.630855,66.843319 121.499237,66.8148399 C121.227218,66.7501847 95.5260771,60.6248768 91.2371081,59.7177032 C87.5344066,58.934452 86.7074057,61.1759852 86.6343534,61.400585 C85.7947148,65.1539717 89.4715244,66.3938116 89.7567981,66.483867 M120.701057,75.0733067 C120.300194,75.0733067 119.882378,75.0268165 119.451925,74.9329126 C116.664226,74.3254618 90.5884225,67.8028325 89.4798468,67.525431 C89.471062,67.5232759 89.461969,67.5208128 89.4530301,67.5180419 C87.7338361,66.9924877 84.713264,64.9837131 85.5868087,61.1421182 C85.5894287,61.1305727 85.592357,61.1190271 85.5959017,61.1077894 C85.6062276,61.0731527 86.6839796,57.653202 91.4608884,58.663516 C95.7629575,59.5734606 121.477661,65.7020012 121.736888,65.7638855 C123.190228,66.06992 125.834442,67.4259852 125.340183,70.3454741 C125.024857,72.2073892 124.252105,73.6005542 123.105308,74.374569 C122.418555,74.838085 121.602035,75.0733067 120.701057,75.0733067" id="Fill-52" fill="#93820A"></path>
                        <path d="M31.1942546,31.7227525 C30.2058914,31.9932266 29.7877674,32.3362069 29.7264282,32.5672722 C29.6768019,32.7535406 29.8360066,33.0477217 30.1630464,33.3743842 C31.12598,34.336053 33.4052413,34.1376232 34.2017267,33.9801416 C34.270926,33.9681342 39.7578595,33.028633 41.5551917,32.3357451 C42.0978436,32.1265394 42.2998932,31.9087131 42.3077532,31.7746305 C42.3223945,31.5315579 41.9209153,31.0487993 41.0046797,30.5632697 C39.6270128,29.8329741 37.4849171,30.2256773 37.3394291,30.2535406 L31.1942546,31.7227525 Z M32.7220331,35.1875 C31.6296399,35.1875 30.2542847,34.989532 29.4001589,34.1363916 C28.7671934,33.5041564 28.5261518,32.8831589 28.6836611,32.2907943 C28.8739977,31.5746613 29.6257887,31.0330973 30.9183821,30.6810345 C30.9237763,30.6794951 30.9291704,30.6781096 30.9347187,30.6768781 L37.0990039,29.203048 C37.1051686,29.2015086 37.1113334,29.2002771 37.1174981,29.1988916 C37.2241483,29.1773399 39.7530818,28.6801108 41.5104973,29.6112993 C42.7651775,30.2763239 43.4308161,31.06758 43.3847346,31.8389778 C43.346205,32.481835 42.8613476,32.9872229 41.9435708,33.3409791 C40.0462156,34.0725062 34.626786,35.0006158 34.3971492,35.0397167 C34.3399711,35.0511084 33.6284051,35.1875 32.7220331,35.1875 L32.7220331,35.1875 Z" id="Fill-54" fill="#93820A"></path>
                        <path d="M60.2421598,37.9474754 L60.243701,37.9474754 L60.2421598,37.9474754 Z M60.3599065,38.4733374 C59.8921562,38.5790948 59.1385159,38.9002155 59.0053573,39.2544335 C58.9540358,39.3909791 59.0093644,39.5718596 59.1698019,39.7915333 C60.0006558,40.9296182 62.3463422,41.3387931 65.4430491,40.885899 C67.8770455,40.5301416 71.4105247,39.4417796 71.9195787,39.2829126 C72.040716,39.2019397 72.2777506,39.000431 72.2735894,38.7903017 C72.2715858,38.6719212 72.1711004,38.2362685 70.9745229,37.6051108 C68.5550136,36.3289409 62.8094689,37.8350985 60.9213609,38.3300185 C60.6744627,38.3948276 60.4844344,38.4443966 60.3640677,38.4722599 C60.3625265,38.4727217 60.3611394,38.4730296 60.3599065,38.4733374 L60.3599065,38.4733374 Z M63.1019862,42.1452894 C61.2712103,42.1452894 59.2889357,41.7838362 58.2981066,40.4265394 C57.8140198,39.7633621 57.8667284,39.2157943 57.9963422,38.8731219 C58.386879,37.8398707 59.932073,37.4647167 60.1222554,37.4222291 C60.2363033,37.3957512 60.4152351,37.3486453 60.6474919,37.2876847 C64.0988259,36.3829741 68.9763741,35.3327894 71.4783369,36.6522167 C72.7313219,37.3132389 73.344406,38.0096675 73.3524202,38.7815271 C73.3619756,39.6917796 72.504305,40.1937808 72.4064397,40.2481219 C72.3749995,40.2655172 72.3420181,40.2796798 72.3079578,40.2904557 C72.1455167,40.3420259 68.3002554,41.5573892 65.5993254,41.9522475 C64.901476,42.0541564 64.0206877,42.1452894 63.1019862,42.1452894 L63.1019862,42.1452894 Z" id="Fill-56" fill="#93820A"></path>
                        <path d="M91.4570663,44.5631466 L91.4586074,44.5631466 L91.4570663,44.5631466 Z M91.5925366,45.0846983 C90.9735959,45.2458744 89.876425,45.7056958 89.567417,46.2532635 C89.4831141,46.4028941 89.4669316,46.5412869 89.5147084,46.7018473 C89.8522283,47.8333128 92.0760069,48.634883 94.1800353,48.3839594 C97.0733054,48.0389778 101.499286,47.0440579 101.96719,46.7020012 C102.255084,46.4595443 102.543132,46.0265086 102.48395,45.6572044 C102.421686,45.26758 101.962258,44.8819581 101.190586,44.5717672 C99.1566818,43.7537254 97.3712168,43.996952 95.9362177,44.1924569 C95.6947137,44.2254002 95.4672345,44.2563424 95.2545508,44.2798953 C93.8428236,44.4366071 91.6293709,45.0742303 91.607332,45.0806958 C91.6022461,45.0820813 91.5974684,45.0833128 91.5925366,45.0846983 L91.5925366,45.0846983 Z M93.4003488,49.5068042 C91.2514719,49.5069581 88.9694365,48.6481219 88.4807261,47.0095751 C88.3498794,46.5702278 88.4008926,46.1251847 88.628526,45.7226293 C89.255789,44.6134852 91.0706907,44.1071736 91.3141982,44.0435961 C91.4828041,43.9949507 93.6588058,43.3727217 95.1352629,43.2089286 C95.3396243,43.1861453 95.5583187,43.1564347 95.7904214,43.1247229 C97.268882,42.9233682 99.2941557,42.6473522 101.593452,43.5720751 C102.763059,44.0423645 103.421146,44.6866071 103.549219,45.4869458 C103.683764,46.3270012 103.176868,47.0930111 102.657642,47.5297414 C101.827405,48.2280172 96.0661398,49.244335 94.3079538,49.4540025 C94.0120459,49.4892549 93.7075074,49.5068042 93.4003488,49.5068042 L93.4003488,49.5068042 Z" id="Fill-58" fill="#93820A"></path>
                        <path d="M122.34763,53.5974292 C122.347938,53.5995844 122.348401,53.6018935 122.348709,53.6040486 C122.40712,54.0059883 122.663881,54.3762161 123.112059,54.704572 C124.439945,55.6771706 127.125155,56.0395474 129.794183,55.6060499 C132.318184,55.1961053 135.459586,54.6859452 135.976962,53.6988762 C136.042617,53.5732605 136.108271,53.3603602 135.918859,52.9636546 C135.557143,52.2062654 134.117828,51.6593134 132.068666,51.5002925 C131.098951,51.4250154 130.18549,51.5366225 129.218549,51.6545413 C128.647848,51.7242765 128.057881,51.7963208 127.444951,51.8291102 C127.078303,51.8489686 124.707649,52.1867149 123.977743,52.3832974 C122.710734,52.7247383 122.269029,53.0538639 122.34763,53.5974292 M127.564085,56.8657482 C125.483175,56.8657482 123.616181,56.4100831 122.474007,55.5735683 C121.793881,55.0752617 121.381306,54.4479526 121.281129,53.759375 C121.280204,53.7535252 121.279279,53.7479834 121.278663,53.7433651 C121.035155,52.0601755 122.900454,51.5575585 123.696785,51.3429649 L123.696939,51.3429649 C124.503596,51.1256004 126.954083,50.7764624 127.386849,50.7532174 C127.963407,50.7221213 128.534879,50.6523861 129.087703,50.58496 C130.064969,50.4658097 131.075217,50.3425031 132.152199,50.425939 C133.606617,50.5387777 136.15651,50.9581127 136.892581,52.4998307 C137.186948,53.11621 137.200356,53.6877925 136.932652,54.1987223 C136.21862,55.5610991 133.711109,56.061561 129.967258,56.6696275 C129.154436,56.8017087 128.343926,56.8657482 127.564085,56.8657482" id="Fill-60" fill="#93820A"></path>
                        <path d="M55.6392202,10.3703818 C55.6450767,10.4629002 55.681757,10.5877463 55.8294027,10.7353756 C56.281741,11.1871921 57.5903628,11.6268473 59.9093867,11.5058498 L64.4643646,11.2680111 C65.2995337,11.1811884 66.0611883,10.8939347 66.14395,10.7104372 C66.1417924,10.7095135 66.1371688,10.6896552 66.1186746,10.6545567 C65.7652804,9.98368227 63.6513885,9.6671798 61.8127525,9.74892241 C61.5982193,9.75831281 61.2881325,9.7635468 60.9293442,9.76939655 C60.0168074,9.78448276 58.7672131,9.8049569 57.6587915,9.91240764 C56.1516648,10.0586515 55.736315,10.2949507 55.6392202,10.3703818 L55.6392202,10.3703818 Z M59.9375904,12.0440271 L59.9389775,12.0440271 L59.9375904,12.0440271 Z M59.1421839,12.604218 C57.2198615,12.604218 55.7890236,12.2192118 55.0665151,11.4972291 C54.7120422,11.143165 54.5377339,10.7138239 54.5617764,10.2560037 C54.6269686,9.0210899 56.7511865,8.76046798 60.9116205,8.69196429 C61.2622406,8.68626847 61.5652379,8.68118842 61.7648216,8.67225985 C62.802811,8.62638547 66.2538367,8.59682882 67.0734399,10.1527094 C67.2633141,10.513085 67.2708659,10.8920874 67.0944,11.2196736 C66.636051,12.0714286 65.0383026,12.2937192 64.559764,12.3414409 C64.5511334,12.3423645 64.542811,12.3429803 64.5341803,12.3434421 L59.96564,12.5820505 C59.6822158,12.5968288 59.407268,12.604218 59.1421839,12.604218 L59.1421839,12.604218 Z" id="Fill-62" fill="#93820A"></path>
                        <path d="M81.9784586,15.5137469 C81.9799998,15.5137469 81.9849316,15.5667026 82.0599874,15.6758467 C82.6559644,16.5426878 84.1036012,16.6122691 85.212177,16.5175954 C85.2172629,16.5172876 85.2221947,16.5168257 85.2271265,16.5165179 C86.6607385,16.4343134 90.5719626,16.1793873 91.4442744,15.9909637 C91.465851,15.9863454 91.4875818,15.9831127 91.5096207,15.9811115 C92.0311584,15.9336977 92.4232363,15.7598984 92.5506925,15.6504464 C92.5204852,15.6116533 92.4608413,15.5480757 92.3452523,15.4631004 C91.500836,14.841641 89.7952044,14.591795 87.1312629,14.6998615 L86.9290592,14.7078664 C86.0117447,14.7445043 84.7553692,14.7945351 83.7104445,14.948476 C82.1598563,15.1770782 81.985394,15.4994304 81.9784586,15.5137469 M84.4819626,17.6279711 C82.8957731,17.6279711 81.7839609,17.1780018 81.1705685,16.2857605 C80.7948271,15.7392703 80.8782053,15.3014624 81.014138,15.0305265 C81.566037,13.9306188 84.0000335,13.7460437 86.8862142,13.6312038 L87.0874932,13.6231989 C90.0459555,13.5032789 91.9209635,13.8123922 92.9851531,14.5954895 C93.6731389,15.101955 93.7095109,15.5947198 93.6188891,15.9190733 C93.420076,16.630742 92.4360282,16.9721829 91.6395428,17.0511546 C90.4569901,17.292072 85.5956243,17.5747075 85.2964799,17.5919489 C85.0125933,17.6159637 84.740882,17.6279711 84.4819626,17.6279711" id="Fill-64" fill="#93820A"></path>
                        <path d="M109.876053,20.7477371 C109.87821,20.7509698 109.880368,20.7543565 109.882988,20.7580511 L109.898554,20.7785252 C110.755916,21.8614994 112.2689,21.885822 114.021229,21.9139932 C114.029551,21.9141472 114.038644,21.9141472 114.047892,21.9141472 C114.812783,21.9143011 118.61412,21.4672568 120.028467,21.2808344 C120.380783,21.2343442 120.759452,21.0670105 120.855314,20.9153787 C120.867335,20.89629 120.87612,20.8824353 120.858396,20.8280942 C120.70474,20.354726 119.486124,20.1379772 118.965819,20.0454587 L118.813241,20.0180573 C117.817018,19.8721213 115.715918,19.8033097 113.616359,19.95371 C110.983241,20.1422876 110.059762,20.5625462 109.876053,20.7477371 M114.038644,22.9917334 C114.026469,22.9917334 114.014756,22.9915794 114.00366,22.9914255 C112.06161,22.9601755 110.226981,22.9306188 109.050747,21.4447814 C109.032099,21.4212284 109.016071,21.3993688 109.000042,21.3772014 C108.732954,20.9886546 108.711224,20.5667026 108.934079,20.2104834 C109.980391,18.5368381 117.360519,18.714024 118.979227,18.9534021 C118.985392,18.9541718 118.991557,18.9552494 118.997876,18.956327 L119.154923,18.9846521 C120.043725,19.1425954 121.531125,19.4070659 121.884673,20.4958898 C121.998104,20.8459514 121.957725,21.1898553 121.767543,21.4906558 C121.342329,22.1632235 120.36198,22.3237839 120.16964,22.3491841 C119.162783,22.4818812 114.967518,22.9917334 114.038644,22.9917334" id="Fill-66" fill="#93820A"></path>
                        <path d="M140.590074,24.8670105 L140.591615,24.8670105 L140.590074,24.8670105 Z M146.445351,24.6219366 C146.271505,24.6219366 146.104286,24.6247075 145.945698,24.62871 C144.472786,24.6667334 142.990472,24.9378233 141.557168,25.2001385 C141.335854,25.240625 141.042874,25.2981989 140.738336,25.3850216 C139.847838,25.639178 139.656885,25.9195043 139.619742,25.9992457 C139.60433,26.0320351 139.568575,26.1088516 139.647792,26.2857297 C139.997641,27.0679033 142.429942,27.6950585 145.160155,27.3631619 C147.16339,27.1197814 150.163926,26.4302802 150.453053,26.3633159 C150.680995,26.2860376 150.908474,26.1277863 150.930513,26.0534329 L150.930513,26.0534329 C150.92928,26.0534329 150.896144,25.8751693 150.435792,25.5555881 C149.295468,24.764024 147.701264,24.6219366 146.445351,24.6219366 L146.445351,24.6219366 Z M143.720841,28.5227986 C141.674298,28.5229526 139.271126,28.0856065 138.662819,26.7253849 C138.431333,26.2079895 138.52365,25.7974292 138.641859,25.5441964 C138.888757,25.0151016 139.477491,24.6242457 140.441811,24.3489994 C140.791044,24.2492457 141.117468,24.1850523 141.362825,24.1401016 C142.836816,23.8705511 144.36105,23.5917642 145.917648,23.5515856 C147.376536,23.5138701 149.493356,23.5889932 151.051342,24.6705819 C151.760596,25.1628849 152.078543,25.6836669 151.996552,26.2184575 C151.874952,27.0104834 150.944692,27.3391472 150.759287,27.396875 C150.746803,27.4008775 150.734166,27.4042642 150.721374,27.407189 C150.588678,27.4382851 147.444194,28.1711977 145.290539,28.4328972 C144.825101,28.4893935 144.286302,28.5227986 143.720841,28.5227986 L143.720841,28.5227986 Z" id="Fill-68" fill="#93820A"></path>
                    </g>
                </g>
            </g>
        </g>
    </g>
</svg>