<?xml version="1.0" encoding="UTF-8" standalone="no"?>
<svg width="199px" height="127px" viewBox="0 0 199 127" version="1.1" xmlns="http://www.w3.org/2000/svg" xmlns:xlink="http://www.w3.org/1999/xlink">
    <!-- Generator: Sketch 46 (44423) - http://www.bohemiancoding.com/sketch -->
    <title>Caja plastica 10</title>
    <desc>Created with Sketch.</desc>
    <defs>
        <polygon id="path-1" points="198.955428 62.9807712 198.955428 126.849882 0 126.849882 0 0.0142612293 198.955428 0.0142612293 198.955428 62.9807712 4.04885705e-06 62.9807712 4.04885705e-06 0.0142574764 198.955458 0.0142574764 198.955458 62.9807712"></polygon>
        <polygon id="path-3" points="0 0.112952462 0 106.583894 126.095985 106.583894 126.095985 0.112952462 0 0.112952462"></polygon>
        <polygon id="path-5" points="38.2440785 104.332151 76.3438137 104.332151 76.3438137 0.0123834579 0.144343295 0.0123834579 0.144343295 104.332151"></polygon>
    </defs>
    <g id="7-Productos" stroke="none" stroke-width="1" fill="none" fill-rule="evenodd">
        <g id="7.1-Limon-mexicano" transform="translate(-232.000000, -2810.000000)">
            <g id="Group-49" transform="translate(194.000000, 2747.000000)">
                <g id="Caja-plastica-10" transform="translate(38.000000, 63.000000)">
                    <path d="M132.21644,23.4554889 C132.043854,24.306509 131.624543,25.0485433 131.234047,25.8120444 C130.721239,26.8146839 129.692022,26.5225539 129.692022,26.5225539 L115.062821,22.9664038 C113.90859,22.6142265 113.274822,21.3493305 112.805386,20.3361827 C112.291528,19.22786 111.303882,17.7218742 112.027395,16.5111709 C112.421193,15.8523021 113.21059,15.9647407 113.687679,16.0915905 C114.432504,16.2897466 115.194437,16.4349109 115.946915,16.6000409 C117.653873,16.9742856 119.361431,17.3462785 121.067638,17.7238258 C122.967143,18.1441567 124.865897,18.568691 126.759998,19.0128908 C127.549245,19.1979865 128.337891,19.3862348 129.123986,19.5843908 C129.437644,19.663353 129.751002,19.7439664 130.063459,19.8281827 C130.415535,19.9230574 130.875367,19.9829546 131.171916,20.1889168 C131.251756,20.2444605 131.31989,20.3145657 131.385023,20.3866225 C132.154759,21.2398943 132.444405,22.331704 132.21644,23.4554889 L132.21644,23.4554889 Z M48.6672059,21.3930149 C47.6333363,21.8028376 36.4558695,25.2566071 36.4558695,25.2566071 C36.4558695,25.2566071 35.1683725,25.8224026 34.6222481,25.3735492 C34.0761237,24.9248459 33.0227443,22.9345787 33.0227443,22.9345787 C33.0227443,22.9345787 31.871816,20.1053009 34.5246991,19.0321059 C37.1775822,17.9589109 49.1548009,14.6027182 49.1548009,14.6027182 C49.1548009,14.6027182 51.0859713,13.997892 51.7686644,15.5002749 C52.4513575,17.002808 49.7009253,20.9833423 48.6672059,21.3930149 L48.6672059,21.3930149 Z M162.589453,18.6288884 C162.589453,18.6288884 162.607012,16.9157395 161.317864,16.6530326 C160.028716,16.3904759 148.11588,14.4321839 148.11588,14.4321839 C148.11588,14.4321839 147.51903,14.31284 146.850594,15.5307489 C143.747185,14.9814664 98.8759864,6.66551844 98.8759864,6.66551844 C98.8759864,6.66551844 98.7044502,5.6360078 98.1469201,5.4001721 C97.58954,5.16418629 89.2917202,3.57713664 89.2917202,3.57713664 C89.2917202,3.57713664 88.7985724,3.51273593 88.0267345,4.47784586 L72.3747692,1.75410118 L6.11122097,20.7234877 L18.4781855,24.5816757 C18.4781855,24.5816757 19.1823394,23.7090385 20.0089548,23.8774712 C20.8018032,24.1377761 29.2842157,26.6945894 29.2842157,26.6945894 C29.2842157,26.6945894 29.9271388,26.9700563 30.1108311,28.2561189 C30.8322436,28.4832478 45.5945618,61.5720019 50.374914,63.1096626 C63.6477338,67.3787241 75.4199495,42.8366496 75.4199495,42.8366496 C75.4199495,42.8366496 76.3448643,41.4467052 78.1708318,41.8833991 C79.9967994,42.320243 91.3897745,45.9469487 91.3897745,45.9469487 C91.3897745,45.9469487 93.070319,46.4366343 93.0173424,48.5411414 C95.1610196,49.2294333 124.801514,59.3630125 124.801514,59.3630125 L152.879724,44.6437726 C152.879724,44.6437726 151.203532,74.7091461 165.789061,69.7893222 C180.37459,64.8696485 173.980928,33.5821626 173.980928,33.5821626 L191.110686,24.6025421 L162.589453,18.6288884 Z" id="Fill-1" fill="#CCBA15"></path>
                    <path d="M160.855857,62.8019203 C160.806933,62.8019203 160.757408,62.7950149 160.708033,62.7806035 L74.55529,37.5535397 L42.8332492,51.3082702 C42.5671655,51.4237111 42.25771,51.3013648 42.142302,51.0352052 C42.0270441,50.7688955 42.1492055,50.4595019 42.4152892,50.3442111 L74.3117176,36.513821 C74.4244242,36.4650326 74.5503375,36.4572265 74.6681467,36.4916035 L161.003231,61.7721095 C161.281621,61.8536236 161.441151,62.1454534 161.35966,62.4239227 C161.292727,62.6531532 161.083221,62.8019203 160.855857,62.8019203" id="Fill-3" fill="#93820A"></path>
                    <path d="M74.5200673,37.5212643 C74.2446789,37.5212643 74.0134127,37.3067454 73.9963041,37.0279759 L71.8365688,1.78622648 C71.8187098,1.49649835 72.0391706,1.24745225 72.3286661,1.22958818 C72.6162106,1.21262482 72.8672867,1.43224775 72.8851457,1.72197589 L75.044881,36.9637253 C75.0625899,37.2533033 74.8422792,37.5024995 74.5527837,37.5202135 C74.5418282,37.5209641 74.5308727,37.5212643 74.5200673,37.5212643" id="Fill-5" fill="#93820A"></path>
                    <path d="M124.787557,59.3629525 C124.787557,59.3629525 95.1470626,49.2295234 93.0033854,48.5412314 C93.056362,46.4367243 91.3758175,45.9468887 91.3758175,45.9468887 C91.3758175,45.9468887 79.9829925,42.320183 78.1568748,41.8834891 C76.3309072,41.4466452 75.4059925,42.8365896 75.4059925,42.8365896 C75.4059925,42.8365896 32.8213431,29.113534 30.0968741,28.256209 C29.9131817,26.9701463 29.2704087,26.6945293 29.2704087,26.6945293 C29.2704087,26.6945293 20.7878462,24.1377161 19.9949977,23.8774111 C19.1685324,23.7089785 18.4643786,24.5817657 18.4643786,24.5817657 L6.09726395,20.7235778 L72.3608122,1.75404113 L88.0127775,4.47793593 C88.7847655,3.51267589 89.2779133,3.5770766 89.2779133,3.5770766 C89.2779133,3.5770766 97.575583,5.16412624 98.1331131,5.40011206 C98.6904932,5.63609787 98.8620294,6.66545839 98.8620294,6.66545839 C98.8620294,6.66545839 143.733228,14.9815565 146.836637,15.5306889 C147.505223,14.3127799 148.102073,14.432274 148.102073,14.432274 C148.102073,14.432274 160.014759,16.3904158 161.303907,16.6531227 C162.593055,16.9158296 162.575496,18.6288284 162.575496,18.6288284 L191.096729,24.602482 L124.787557,59.3629525 Z M164.089907,16.9339939 C163.727625,15.7483603 162.048581,15.3530991 162.048581,15.3530991 C162.048581,15.3530991 149.66886,13.3442173 149.01033,13.3442173 C148.351949,13.3442173 147.397019,14.398047 147.397019,14.398047 L100.540473,5.81233664 L100.007255,4.59337683 L89.9925724,2.76508723 L88.8501983,3.67930709 L72.1729178,0.675591962 L0.525263952,21.0401771 C0.525263952,21.0401771 14.2399057,25.1328496 18.0357632,26.2657917 C17.9133017,24.6123898 18.4643786,24.7348863 18.4643786,24.7348863 C18.4643786,24.7348863 25.4131704,26.8476499 26.8213281,27.3682598 C28.2296357,27.8887196 28.0608009,29.4268307 28.0608009,29.4268307 C28.0608009,29.4268307 72.8296478,44.0617043 75.0214992,44.664579 C75.295537,42.965391 76.4461652,42.8558047 76.4461652,42.8558047 C76.4461652,42.8558047 87.6246825,46.6926759 89.3233861,47.076378 C91.0220897,47.4600801 90.5289419,50.3102243 90.5289419,50.3102243 L125.570651,62.5912444 L198.430164,23.1913709 C198.430164,23.1913709 164.452039,18.1196274 164.089907,16.9339939 L164.089907,16.9339939 Z" id="Fill-7" fill="#F9F44E"></path>
                    <path d="M61.2175776,52.6185469 C60.4137737,56.1311628 59.4828559,57.3583791 57.7906055,56.7660126 C54.2104064,55.5125257 50.6927888,54.0520257 47.1583627,52.6763424 C45.831696,52.1599358 44.460607,51.7182881 43.1468468,51.1807148 C42.9178317,51.087041 42.7519984,50.9675469 42.6242842,50.8262857 C42.3694562,50.5443637 42.2669547,50.1758235 42.1191304,49.7527904 C41.9144275,49.1671793 41.6592993,48.5928271 41.4313348,48.0154725 C40.962199,46.8268365 40.4953144,45.6371498 40.0210761,44.4507656 C40.0204758,44.4494145 39.2598936,42.5460658 40.6979162,42.0806994 C41.5281334,41.6575162 43.2365919,42.546216 43.2365919,42.546216 L59.1021146,48.3865647 C59.1021146,48.3865647 62.0213815,49.1059311 61.2175776,52.6185469 L61.2175776,52.6185469 Z M123.024186,61.6987467 L90.5289569,50.3103294 C90.5289569,50.3103294 91.0221048,47.4600351 89.3234011,47.076333 C87.6246975,46.6926309 76.4461802,42.8557597 76.4461802,42.8557597 C76.4461802,42.8557597 75.295552,42.9654961 75.0215143,44.664684 C72.8296628,44.0616592 28.0608159,29.4267857 28.0608159,29.4267857 C28.0608159,29.4267857 28.2295007,27.8886746 26.8213431,27.3682148 C25.4131854,26.8476048 18.4643936,24.7348413 18.4643936,24.7348413 C18.4643936,24.7348413 17.9133167,24.6123448 18.0357782,26.2658968 C15.0917488,25.3871048 6.18117112,22.7280611 2.3300859,21.5789063 C1.21592602,21.2463944 0.525278959,21.0402822 0.525278959,21.0402822 L8.52955121,64.5301261 L123.281115,126.46034 L125.570666,62.5911994 L123.024186,61.6987467 Z" id="Fill-9" fill="#EAE406"></path>
                    <path d="M172.797328,48.6024496 C172.109382,51.7645395 171.201876,55.4900229 171.201876,55.4900229 L169.841292,56.3242298 L159.725609,62.5290655 L159.30855,62.7847168 L159.151721,62.8780903 C159.151721,62.8780903 158.338312,63.5563243 157.586734,62.5910643 C156.835307,61.6258043 153.486674,57.4771376 157.680982,54.2293303 C157.784984,54.1488669 157.892888,54.0670525 158.005445,53.9835868 C162.39485,50.7281234 172.484421,45.8162558 172.484421,45.8162558 C172.484421,45.8162558 172.510384,45.8061979 172.551654,45.8031955 C172.764461,45.7871329 173.374368,45.9516624 172.797328,48.6024496 L172.797328,48.6024496 Z M125.570696,62.5912144 L123.281145,126.460355 L189.419531,75.4327759 L198.430209,23.191491 L125.570696,62.5912144 Z" id="Fill-11" fill="#E2D100"></path>
                    <g id="Group-15" transform="translate(0.000000, 0.135857)">
                        <mask id="mask-2" fill="white">
                            <use xlink:href="#path-1"></use>
                        </mask>
                        <g id="Clip-14"></g>
                        <path d="M91.1046462,49.8194579 L125.525193,61.8826565 L196.798409,23.3407085 C193.951628,22.9085182 187.612593,21.9350017 181.309875,20.8897286 C176.346281,20.0666305 172.374836,19.3606246 169.506144,18.7913764 C163.803879,17.6599355 163.703628,17.3317771 163.58747,16.9516778 C163.367909,16.2330619 162.343194,15.8329969 161.943844,15.7325678 C157.029324,14.93514 149.543563,13.7471045 149.007643,13.733744 C148.761369,13.733744 148.16512,14.1983598 147.786029,14.6153882 C147.664018,14.7495939 147.480776,14.8117428 147.302336,14.779017 L100.44579,6.19330662 C100.273954,6.1617818 100.129131,6.04709149 100.059196,5.88706548 L99.6380844,4.92435745 L90.1336583,3.18914113 L89.1782782,3.95369314 C89.0598687,4.04841773 88.9064916,4.08744846 88.7570165,4.0605773 L72.1994962,1.07832908 L2.40377293,20.9167499 L17.4998589,25.4217972 C17.5321251,24.8639579 17.6734962,24.4901636 17.9308755,24.2675383 C18.2086651,24.0273492 18.4968099,24.0678811 18.5783008,24.0860454 C18.5913574,24.0888976 18.6042639,24.0923504 18.6171704,24.0962534 C18.9014132,24.1827215 25.5970278,26.2195253 27.0035346,26.7395348 C28.1598657,27.1669213 28.5296515,28.1842723 28.5868302,28.9100939 C32.6619781,30.2419426 69.4691741,42.2683622 74.6394222,43.8659201 C75.1286681,42.336666 76.3394765,42.2023102 76.3963551,42.1969059 C76.4713928,42.1897002 76.5459803,42.1987073 76.6166658,42.2230265 C76.7281719,42.2613066 87.7873793,46.0549437 89.4391093,46.4279875 C90.9731802,46.7744603 91.2197541,48.5560631 91.1046462,49.8194579 M125.570666,62.9807712 C125.512136,62.9807712 125.453457,62.9710135 125.397029,62.951348 L90.3551696,50.6701778 C90.1129479,50.585361 89.9675248,50.3378161 90.0113468,50.0848669 C90.0152488,50.0618988 90.3799321,47.7178031 89.207693,47.4529946 C87.5835768,47.0861057 77.7555882,43.7242085 76.4127133,43.2639461 C76.2072601,43.3308988 75.7037571,43.5969083 75.5400248,44.6124579 C75.5161628,44.7597239 75.43092,44.8900265 75.3054569,44.9707901 C75.1799939,45.0514035 75.0261666,45.0749721 74.8820942,45.0353409 C72.7032993,44.436069 29.7262028,30.3881577 27.8976839,29.790387 C27.6614652,29.7132262 27.51169,29.4808433 27.5387035,29.2337487 C27.549509,29.1205596 27.6189939,28.087296 26.6393016,27.7252109 C25.4200889,27.2744059 19.8907103,25.5831742 18.5871553,25.1856612 C18.5545889,25.3297747 18.5235233,25.6034402 18.5595414,26.0911742 C18.5724479,26.2635099 18.4996613,26.4310418 18.3650437,26.5394272 C18.230426,26.6478125 18.051236,26.6827901 17.8855527,26.6335513 L0.375053469,21.4079366 C0.151291026,21.341134 -0.00148574661,21.1345714 1.50075411e-05,20.9009875 C0.00151576169,20.6674035 0.156993891,20.4627924 0.381656787,20.3989922 L72.0294607,0.034256974 C72.1064494,0.0123397163 72.1874901,0.00843664303 72.2659796,0.0225477541 L88.7083921,2.98407967 L89.6643725,2.21892719 C89.7830821,2.12405248 89.9370595,2.08502175 90.0868348,2.11234326 L100.101517,3.94078298 C100.273354,3.97215768 100.418477,4.08684799 100.488412,4.24702411 L100.909673,5.21003239 L147.214542,13.6945631 C147.58778,13.3266234 148.336956,12.6829165 149.010345,12.6829165 C149.67743,12.6829165 160.058446,14.3619887 162.132639,14.6987038 C162.144795,14.7006553 162.156801,14.7030572 162.168807,14.7059095 C162.246696,14.7242239 164.022088,15.1567144 164.5427,16.5017735 C166.337452,17.471387 186.208787,20.7001293 198.507768,22.5359248 C198.73123,22.5692511 198.908469,22.7420371 198.947489,22.9648125 C198.986658,23.1874378 198.878904,23.4102132 198.680054,23.5176979 L125.820541,62.9175714 C125.742952,62.9594544 125.656959,62.9807712 125.570666,62.9807712" id="Fill-13" fill="#93820A" mask="url(#mask-2)"></path>
                    </g>
                    <path d="M93.5196298,48.1576344 C97.2866728,49.4079689 122.166025,57.9115647 124.74372,58.7927585 L189.55649,24.8166557 L162.467877,19.1430883 C162.222654,19.0917479 162.047816,18.8742266 162.050367,18.6233791 C162.050367,18.6125706 162.043614,17.3400186 161.19899,17.167833 C159.96687,16.9168353 148.736577,15.0690304 148.048931,14.9559914 C147.94598,14.9755067 147.644178,15.1512952 147.297054,15.783593 C147.188849,15.9808483 146.967188,16.0872822 146.745226,16.0481013 C143.675134,15.5048235 99.2151419,7.2652857 98.7662663,7.18212021 C98.5491072,7.14188853 98.3802723,6.96985307 98.3439541,6.75188144 C98.2833236,6.40030461 98.0925778,5.95355284 97.9283952,5.88404811 C97.4819209,5.71396418 92.3972158,4.70922305 89.2478832,4.10634835 C89.1665423,4.12901619 88.8711939,4.24565804 88.4230687,4.80604929 C88.3034586,4.95571714 88.1115121,5.02852447 87.9228673,4.99549846 L72.3894616,2.29231998 L7.93072029,20.7451498 L18.3133877,23.9842502 C18.6597618,23.6676509 19.3206939,23.2039358 20.0997354,23.3626108 C20.1196954,23.3666639 20.1393553,23.3719181 20.158715,23.378223 C20.9364058,23.6335741 29.3370272,26.1659181 29.4218198,26.1914382 C29.4407293,26.1971427 29.4591886,26.203898 29.4771977,26.211554 C29.5636411,26.2486332 30.275899,26.5895517 30.5568402,27.8508448 C34.9648553,29.2533992 71.3362324,40.9732774 75.2323402,42.2285658 C75.6806155,41.7634996 76.6975265,40.994294 78.2790212,41.3724417 C80.1028877,41.8086852 91.0691984,45.2978826 91.5351826,45.4461994 C92.1896615,45.6368495 93.3959676,46.4461368 93.5196298,48.1576344 M124.787542,59.8883212 C124.730364,59.8883212 124.672885,59.8790138 124.617657,59.8600989 C124.321408,59.7587691 94.9575023,49.7203649 92.8429397,49.0413803 C92.6209782,48.9702242 92.4724035,48.7611096 92.4784066,48.527976 C92.5192271,46.9012952 91.3570431,46.4913223 91.2243764,46.4500398 C91.1028153,46.4113093 79.8213462,42.821833 78.0346984,42.3944465 C76.5816683,42.0469228 75.8505008,43.1169654 75.8432972,43.1277739 C75.7131818,43.323528 75.468859,43.4089453 75.2449465,43.3367384 C74.8191826,43.1995304 32.6307324,29.6043755 29.9391298,28.7574086 C29.7462829,28.6967609 29.6053621,28.5307301 29.5768477,28.3304725 C29.4606894,27.5178826 29.1426796,27.2394134 29.0608885,27.1801167 C28.2623372,26.9394772 20.8008877,24.6895056 19.8659179,24.3879181 C19.4455566,24.3232171 18.9774714,24.7824287 18.8730189,24.9116805 C18.737801,25.0793625 18.5135883,25.1473661 18.307985,25.0832656 L5.94087036,21.2250777 C5.71920897,21.1560233 5.56913356,20.9494606 5.57198499,20.7173779 C5.57468635,20.485145 5.7294141,20.2823353 5.95272632,20.218385 L72.2162746,1.24884835 C72.292663,1.22708121 72.3729533,1.2228779 72.4508425,1.23638853 L87.8070091,3.90879279 C88.5923538,3.0388578 89.1755468,3.0339039 89.3457324,3.05612139 C89.3560876,3.05747246 89.3662927,3.05912376 89.3764978,3.0610753 C90.7712987,3.32783534 97.7582097,4.67109303 98.3376509,4.91623605 C98.8974322,5.15312258 99.1707195,5.78782234 99.2945317,6.21130579 C103.313852,6.95619232 141.642362,14.0582845 146.57309,14.9496864 C147.298554,13.8463176 148.009612,13.883697 148.189252,13.914171 C148.704761,13.9988377 160.12625,15.8769665 161.408795,16.1381722 C162.640164,16.3891699 162.975882,17.5470316 163.067128,18.1949417 L191.204468,24.0882822 C191.421477,24.1336178 191.58656,24.3104571 191.617025,24.53008 C191.64749,24.749703 191.537035,24.9649725 191.340586,25.0678034 L125.031415,59.8282739 C124.955327,59.8682053 124.871585,59.8883212 124.787542,59.8883212" id="Fill-16" fill="#93820A"></path>
                    <g id="Group-20" transform="translate(0.000000, 20.401814)">
                        <mask id="mask-4" fill="white">
                            <use xlink:href="#path-3"></use>
                        </mask>
                        <g id="Clip-19"></g>
                        <path d="M9.00050287,43.7855468 L122.786482,105.19455 L125.03191,42.5572797 L90.3551846,30.4043104 C90.1129629,30.3193435 89.9675398,30.0717986 90.0113618,29.8188494 C90.0152638,29.7960314 90.3799471,27.4517856 89.207708,27.1869771 C87.5835919,26.8202383 77.7556032,23.458191 76.4125783,22.9979286 C76.2072751,23.0648813 75.7037721,23.3310409 75.5400398,24.3464404 C75.5161778,24.4938565 75.430935,24.6241591 75.3054719,24.7047726 C75.1798588,24.7855362 75.0261816,24.8089546 74.8821092,24.7694735 C72.7033143,24.1700515 29.7262178,10.1221402 27.8976989,9.52451962 C27.6614802,9.44720875 27.511705,9.21497589 27.5387186,8.96773121 C27.549524,8.8546922 27.6190089,7.82142861 26.6393166,7.45919338 C25.4201039,7.00838842 19.8905753,5.31730686 18.5870202,4.91964374 C18.5546039,5.06375721 18.5235383,5.33757281 18.5595564,5.82515674 C18.5724629,5.99749243 18.4996763,6.16517447 18.3650587,6.27340969 C18.230291,6.38179504 18.0509508,6.4169227 17.8857178,6.36753381 L1.1971816,1.38721229 L9.00050287,43.7855468 Z M123.28113,106.583894 C123.195437,106.583894 123.109744,106.563028 123.031705,106.520845 L8.28014087,44.5907809 C8.14012051,44.5151213 8.04182112,44.3800149 8.01300664,44.2234416 L0.00858431373,0.733597636 C-0.0244322775,0.553756028 0.0382992459,0.369560993 0.174417647,0.247364775 C0.310385973,0.125318676 0.499931222,0.0825349882 0.675369382,0.134926241 L17.4998739,5.15577967 C17.5321401,4.59809054 17.6735112,4.2241461 17.9308905,4.0015208 C18.2083799,3.76133168 18.4965247,3.80201371 18.5783158,3.8200279 C18.5913724,3.82303026 18.6042789,3.82633286 18.6171854,3.83023593 C18.9014282,3.91670402 25.5968928,5.95365792 27.0033995,6.47351726 C28.1598807,6.9010539 28.5296665,7.91825485 28.5868452,8.64422648 C32.661843,9.97607518 69.4691891,22.0024948 74.6394373,23.5999026 C75.1286831,22.0707986 76.3394916,21.9364428 76.3963701,21.9308884 C76.4714078,21.923983 76.5459953,21.9326898 76.6166808,21.957009 C76.7281869,21.9952891 87.7873943,25.7889262 89.4391243,26.16197 C90.9731952,26.5085929 91.2197691,28.2901957 91.1046612,29.5534404 L125.744318,41.6934995 C125.961477,41.7697596 126.103899,41.9782738 126.095645,42.2082548 L123.806094,106.077396 C123.799641,106.258888 123.699841,106.424169 123.542262,106.51454 C123.461371,106.560776 123.371326,106.583894 123.28113,106.583894 L123.28113,106.583894 Z" id="Fill-18" fill="#93820A" mask="url(#mask-4)"></path>
                    </g>
                    <path d="M33.5018451,22.7169223 C33.9213059,23.5056434 34.6392667,24.7076398 34.9556256,24.9676446 C35.1066015,25.0916422 35.7334665,24.9981186 36.2453738,24.775193 C36.2632327,24.7673869 36.2822923,24.7603313 36.3007516,24.7544767 C40.160091,23.5620878 47.6709152,21.2227959 48.4736686,20.9045453 C48.9211935,20.7272557 50.3461596,19.0571907 51.0428097,17.3296304 C51.4588187,16.2983183 51.3545163,15.8587722 51.2904341,15.7176611 C51.0941354,15.2856209 50.7365057,15.0554897 50.1972848,15.0142072 C49.7301,14.9786292 49.3139409,15.1035275 49.3097388,15.1047285 C49.176922,15.142258 37.3172124,18.4691777 34.721508,19.5191044 C34.0940427,19.7731044 33.684637,20.143446 33.469879,20.6512959 C33.0979922,21.5309885 33.4457169,22.5627509 33.5018451,22.7169223 M35.2299635,26.0714637 C34.8910932,26.0714637 34.5534235,25.9970051 34.2888406,25.7796339 C33.6913903,25.2887474 32.7426136,23.5283112 32.558471,23.1803372 C32.5502169,23.1648751 32.5427131,23.1488124 32.5361098,23.1325996 C32.5110472,23.0707509 31.9269537,21.6031954 32.5023428,20.2420736 C32.8266558,19.4748195 33.4407644,18.9037699 34.3277101,18.5449874 C36.9655857,17.4779472 48.4200917,14.2630157 49.005836,14.0989365 C49.8300502,13.8435855 51.5571181,13.7649235 52.2468647,15.2829188 C52.512048,15.8664283 52.4347591,16.6872746 52.0170992,17.72279 C51.3126452,19.4694152 49.7491596,21.5293372 48.860563,21.8815145 C47.8352478,22.2878845 37.3874477,25.5185784 36.6382712,25.7500606 C36.4323677,25.83818 35.8295148,26.0714637 35.2299635,26.0714637" id="Fill-21" fill="#93820A"></path>
                    <path d="M115.202661,22.4597398 L129.816104,26.0119869 C129.822557,26.0134881 129.828861,26.0152895 129.835314,26.0170909 C129.934214,26.0421606 130.472684,26.1469431 130.766382,25.572741 L130.904601,25.3044798 C131.243622,24.6496642 131.563732,24.0310271 131.701652,23.3509916 C131.89705,22.3879833 131.645974,21.4602528 130.994947,20.7386346 C130.955777,20.6952505 130.910454,20.6470625 130.872185,20.6204916 C130.732014,20.5230649 130.460528,20.4612162 130.220858,20.4065732 C130.118806,20.3833048 130.019306,20.3604869 129.92686,20.3355673 C129.617104,20.2521015 129.306598,20.1722387 128.995642,20.093877 C128.134809,19.876806 127.284632,19.6754975 126.640058,19.5244786 C124.683975,19.0657174 122.751304,18.6345779 120.954151,18.2369148 C119.753998,17.9713557 118.553244,17.7084987 117.352491,17.4456417 L115.834328,17.1131299 C115.626324,17.067494 115.417419,17.0235093 115.208514,16.9792245 C114.665241,16.8645342 114.103358,16.7457907 113.552732,16.5994254 C112.718913,16.3777008 112.537772,16.6810897 112.478342,16.7806181 C112.010707,17.5631843 112.546926,18.6342777 113.019964,19.5792717 C113.113161,19.7654183 113.202906,19.9449597 113.281846,20.1151937 C113.738825,21.1011701 114.301458,22.1758663 115.202661,22.4597398 M130.025309,27.0893852 C129.845669,27.0895353 129.684788,27.0653663 129.559475,27.0309892 L114.938678,23.4770909 C114.928923,23.4745389 114.919168,23.4719869 114.909413,23.4689845 C113.475293,23.0312398 112.757632,21.4824703 112.328867,20.5571417 C112.254129,20.3959148 112.168886,20.2261311 112.080642,20.0497422 C111.545923,18.9815011 110.813405,17.5184491 111.576539,16.2415436 C111.81816,15.8371252 112.431068,15.2136843 113.822567,15.5838758 C114.347081,15.7233356 114.895306,15.8390767 115.425523,15.951215 C115.637279,15.9958001 115.848585,16.0405353 116.059291,16.0867717 L117.577004,16.4191335 C118.778508,16.6821405 119.980162,16.9451476 121.181065,17.2108569 C122.98152,17.6092706 124.918093,18.0413108 126.879879,18.5012729 C127.528355,18.6533427 128.384085,18.8560022 129.252271,19.0748746 C129.56878,19.1545874 129.884989,19.2359514 130.200147,19.3209183 C130.279987,19.3423852 130.366131,19.3619006 130.454375,19.3820164 C130.787092,19.4578261 131.164082,19.5438439 131.471586,19.7574621 C131.597349,19.8448309 131.695499,19.946611 131.774889,20.0345803 C132.654931,21.0100483 132.994551,22.2620342 132.731169,23.5599561 C132.564135,24.3838048 132.1948,25.0974668 131.83762,25.7875602 L131.701652,26.0513178 C131.283091,26.8696122 130.568582,27.0893852 130.025309,27.0893852" id="Fill-23" fill="#93820A"></path>
                    <path d="M171.201831,55.4899629 L171.203332,55.4899629 L171.201831,55.4899629 Z M172.481374,46.4030078 C170.947003,47.1591532 162.250583,51.4891626 158.318157,54.4056591 C158.208452,54.4870232 158.103399,54.5668861 158.001798,54.6452478 C156.916753,55.4854593 156.298142,56.4561236 156.163674,57.529769 C155.906445,59.5839865 157.453873,61.5667478 157.962328,62.2184109 L158.001198,62.2682501 C158.337216,62.6999901 158.633015,62.6157738 158.82196,62.4692584 C158.843121,62.4515444 158.859329,62.4407359 158.883191,62.4266248 L159.451076,62.0810527 L170.74245,55.1553494 C170.943401,54.3241449 171.69813,51.1841225 172.284025,48.4907017 L172.284025,48.4907017 C172.566317,47.1939806 172.530899,46.6290858 172.481374,46.4030078 L172.481374,46.4030078 Z M158.493595,63.6350764 C158.44302,63.6350764 158.391094,63.6323742 158.337967,63.6266697 C158.033914,63.593944 157.584888,63.4438258 157.172481,62.9139085 L157.134212,62.86497 C156.559273,62.12834 154.809844,59.8866248 155.12125,57.3991662 C155.291736,56.0380444 156.044664,54.8318447 157.359325,53.813743 C157.466779,53.7308778 157.577235,53.6469617 157.692492,53.5615444 C162.070793,50.3143376 171.840702,45.5452324 172.25446,45.3437738 C172.268117,45.3370184 172.282224,45.3310137 172.296481,45.3256095 C172.3331,45.3114983 172.410088,45.2867288 172.51319,45.2792229 C172.782425,45.2585066 173.044007,45.3688435 173.2286,45.5811106 C173.645509,46.0604381 173.671622,47.056022 173.310541,48.7142277 L173.310541,48.7142277 C172.629198,51.846444 171.721242,55.5770314 171.712087,55.6144109 C171.679371,55.7490669 171.594578,55.8654085 171.476319,55.9379156 L159.447024,63.3136733 C159.324863,63.4043447 158.967533,63.6350764 158.493595,63.6350764 L158.493595,63.6350764 Z" id="Fill-25" fill="#93820A"></path>
                    <g id="Group-29" transform="translate(122.611614, 22.653587)">
                        <mask id="mask-6" fill="white">
                            <use xlink:href="#path-5"></use>
                        </mask>
                        <g id="Clip-28"></g>
                        <path d="M3.47321033,40.2568983 L1.23453537,102.707272 L66.3250942,52.4882293 L75.1171123,1.51439243 L3.47321033,40.2568983 Z M0.669501433,104.332151 C0.587410181,104.332151 0.505168854,104.312936 0.429380769,104.274056 C0.248239744,104.180832 0.137334012,103.991383 0.144687707,103.787973 L2.43423824,39.9188322 C2.44084155,39.7326856 2.54544412,39.5641028 2.70932647,39.4755331 L75.5688393,0.0756595745 C75.7456281,-0.0201158392 75.9615867,-0.00630496454 76.1250188,0.111237589 C76.2883008,0.228479905 76.3703921,0.428887707 76.3361749,0.627193853 L67.3254969,52.8684787 C67.3031357,52.9981809 67.2329004,53.1148227 67.128748,53.1952861 L0.99036267,104.222715 C0.896565535,104.295072 0.783408673,104.332151 0.669501433,104.332151 L0.669501433,104.332151 Z" id="Fill-27" fill="#93820A" mask="url(#mask-6)"></path>
                    </g>
                    <path d="M41.2531502,42.4893061 C41.1264866,42.4893061 41.017832,42.5074704 40.9364911,42.5489031 C40.9118787,42.561513 40.8860658,42.5721714 40.8596525,42.580578 C40.6474459,42.6493322 40.5119278,42.7590686 40.4329881,42.926 C40.2329376,43.3491832 40.4202317,44.0302695 40.5092264,44.2570981 C40.8671563,45.152253 41.2213342,46.0507104 41.5755122,46.9491678 L41.9199353,47.8224054 C41.9966238,48.0168085 42.076464,48.2109113 42.1564541,48.4050142 C42.3131329,48.7860142 42.4753644,49.1797742 42.6149345,49.5793889 L42.6707626,49.7415165 C42.7788169,50.0581158 42.8640597,50.3080626 43.013835,50.4737931 L43.0139851,50.4739433 C43.0968267,50.5656655 43.2021796,50.6356206 43.3456517,50.6943168 C44.0741178,50.9924515 44.8384519,51.2670177 45.5775733,51.532727 C46.1598659,51.7419917 46.7619685,51.9583121 47.3489134,52.186792 C48.3514172,52.5769492 49.3689285,52.9803168 50.3528229,53.3706241 C52.8380718,54.3561501 55.4079632,55.3751525 57.9640477,56.2700071 C58.5365854,56.470565 58.8385371,56.3632305 59.0157762,56.2653534 C59.6627513,55.907922 60.1997211,54.7119303 60.7056253,52.5012896 C61.3863674,49.5266974 59.075206,48.9209704 58.9764564,48.8966513 C58.957697,48.8919976 58.9390876,48.8862931 58.9207784,48.8795378 L43.0549557,43.0393392 C43.0342452,43.0316832 43.013835,43.0226761 42.9941751,43.0124681 C42.5214376,42.7676253 41.7495997,42.4893061 41.2531502,42.4893061 M58.5454398,57.4329728 C58.2527928,57.4329728 57.942737,57.3759279 57.6170733,57.2618381 C55.0407287,56.3599279 52.4607822,55.3368723 49.9656284,54.3474433 C48.9832347,53.9578865 47.9673742,53.5549693 46.968022,53.166013 C46.3938335,52.9426371 45.7983342,52.7285686 45.2224949,52.5217057 C44.4727181,52.2522435 43.6974285,51.9736241 42.9479519,51.6669326 C42.657556,51.5481891 42.4241887,51.3884634 42.2346434,51.178448 C41.9397452,50.8522411 41.805878,50.4601324 41.676513,50.0810839 L41.6232362,49.9260118 C41.4931208,49.5534184 41.3364421,49.1730189 41.185016,48.8050792 C41.1030748,48.6061726 41.0214338,48.4074161 40.9427943,48.2083593 L40.5982211,47.3346714 C40.2446434,46.4377151 39.8912158,45.540909 39.533286,44.6457541 C39.4831608,44.5201052 39.0543953,43.3910662 39.4810597,42.4816501 C39.6781087,42.0613191 40.0297354,41.7547778 40.4990213,41.5932506 C41.4925205,41.1275839 43.0650107,41.8685674 43.4481532,42.0643215 L59.2673026,47.8874066 C59.6460929,47.999695 62.5845695,48.9999326 61.7295899,52.7357742 C61.1363418,55.3281655 60.4766103,56.6588132 59.5237814,57.1851277 C59.2248312,57.3502577 58.8976668,57.4329728 58.5454398,57.4329728" id="Fill-30" fill="#93820A"></path>
                    <path d="M12.7509925,57.9541982 L32.1575446,67.0322963 L29.1390778,37.4543566 L8.08980023,29.7456368 L12.7509925,57.9541982 Z M32.7742044,68.4261439 C32.6985664,68.4261439 32.6226283,68.4099311 32.5517927,68.376755 L12.055393,58.7888554 C11.8985642,58.7154476 11.7879586,58.5695327 11.7597444,58.3985481 L6.90645558,29.0282219 C6.87599027,28.8438767 6.94577534,28.6571297 7.08954759,28.5379358 C7.23346991,28.4185918 7.42991863,28.3849654 7.60520671,28.449216 L29.8088643,36.5806687 C29.9975091,36.649723 30.1303259,36.8205576 30.1507361,37.0206651 L33.296767,67.8474382 C33.3159767,68.0355363 33.2326848,68.2195812 33.0784073,68.3291675 C32.9880619,68.3934181 32.8813583,68.4261439 32.7742044,68.4261439 L32.7742044,68.4261439 Z" id="Fill-32" fill="#93820A"></path>
                    <path d="M76.2480656,88.568569 L111.135497,106.252944 L111.723492,67.6646092 L75.0723748,54.8153917 L76.2480656,88.568569 Z M111.647854,107.627276 C111.566514,107.627276 111.485173,107.608361 111.410435,107.570531 L75.4964879,89.3656967 C75.3257021,89.2790785 75.2156968,89.1065927 75.2089434,88.9153421 L73.9955837,54.0834154 C73.9895807,53.9100288 74.0695709,53.7447487 74.2092911,53.6419177 C74.3490113,53.5390868 74.5304525,53.5117652 74.6943348,53.5692605 L112.428247,66.798127 C112.641504,66.8728858 112.783025,67.0758456 112.779573,67.3019236 L112.172968,107.109818 C112.170267,107.291011 112.074369,107.457943 111.919341,107.551616 C111.836049,107.601906 111.742102,107.627276 111.647854,107.627276 L111.647854,107.627276 Z" id="Fill-34" fill="#93820A"></path>
                    <path d="M38.3681605,69.9844759 L68.6064056,84.9905917 L66.7262608,51.8913293 L34.9784071,40.2867418 L38.3681605,69.9844759 Z M69.1820949,86.3881922 C69.1024048,86.3881922 69.0224146,86.370178 68.9485775,86.3335492 L37.6452472,70.798717 C37.485717,70.7196047 37.3770624,70.5648329 37.3568023,70.3876934 L33.8381341,39.5609203 C33.8175738,39.3800279 33.8920112,39.2012371 34.035033,39.0884983 C34.1780549,38.9759097 34.369251,38.9452856 34.540337,39.0078849 L67.4113551,51.0230456 C67.608254,51.0949522 67.743622,51.2773459 67.755478,51.4867608 L69.7064584,85.8330551 C69.7171137,86.0198021 69.6276688,86.1982927 69.4714403,86.3012738 C69.3840964,86.3590693 69.2832457,86.3881922 69.1820949,86.3881922 L69.1820949,86.3881922 Z" id="Fill-36" fill="#93820A"></path>
                    <path d="M134.844951,67.610987 L132.877913,102.401931 L157.293682,85.1084645 L159.202191,62.4849007 C159.216298,62.3184196 159.308595,62.1684515 159.451016,62.0812329 L169.566699,55.8763972 C169.735984,55.7726655 169.949242,55.7731158 170.118076,55.8777482 C170.286761,55.9823806 170.382059,56.1731809 170.3645,56.3710366 L168.506717,77.1669113 L185.782948,64.9297258 L190.404521,36.3668853 L134.844951,67.610987 Z M132.291868,103.986279 C132.204524,103.986279 132.11703,103.964512 132.03749,103.920527 C131.861152,103.8228 131.756099,103.6326 131.767505,103.431142 L133.812282,67.2643641 C133.822487,67.0854232 133.923038,66.923896 134.079267,66.8360768 L190.839739,34.9165934 C191.015328,34.8178156 191.232337,34.8283239 191.39787,34.9439149 C191.563253,35.0593558 191.647895,35.2594634 191.615629,35.4586702 L186.784702,65.3150792 C186.76219,65.4542388 186.684751,65.5783865 186.569794,65.6599007 L168.185856,78.6817541 C168.018822,78.8001974 167.797911,78.8105556 167.620521,78.7084752 C167.442832,78.6062447 167.340931,78.4101903 167.35909,78.2061797 L169.224978,57.3185827 L160.226606,62.8381288 L158.319898,85.4403759 C158.306841,85.5946974 158.226401,85.7353582 158.100037,85.8249787 L132.595471,103.889603 C132.504975,103.953703 132.398722,103.986279 132.291868,103.986279 L132.291868,103.986279 Z" id="Fill-38" fill="#93820A"></path>
                    <path d="M15.8082689,60.4792765 C15.5762523,60.4792765 15.3638956,60.3242044 15.301164,60.0892694 L13.295256,52.5758533 C13.2889529,52.552585 13.2843005,52.5287162 13.2814491,52.5046973 L11.6874981,39.5889774 C11.6826957,39.5494963 11.6822455,39.509715 11.6864476,39.4700838 L12.5733933,30.9615342 C12.6035584,30.6728569 12.8630388,30.463442 13.1502832,30.4933155 C13.4388782,30.5234892 13.6483835,30.7818427 13.6182183,31.07052 L12.7375758,39.5196228 L14.3195207,52.3398675 L16.3161241,59.8181559 C16.3910117,60.0984266 16.224428,60.3865034 15.9440871,60.4614124 C15.8987643,60.4734219 15.8531414,60.4792765 15.8082689,60.4792765" id="Fill-40" fill="#93820A"></path>
                    <path d="M18.9377915,61.9431391 C18.7078759,61.9431391 18.4968699,61.7909193 18.4320373,61.5585363 L16.3919121,54.2293152 C16.3847085,54.203645 16.379606,54.1773743 16.3764544,54.1508034 L14.7855049,40.8458271 C14.7807025,40.8054453 14.7805524,40.7647632 14.7850547,40.7243814 L15.7581437,32.1230587 C15.79071,31.8346817 16.0509408,31.6272183 16.3390856,31.6599441 C16.6273805,31.6926699 16.8346346,31.9528247 16.8020683,32.2412018 L15.8358827,40.7817266 L17.4146761,53.9861238 L19.4441459,61.2766143 C19.521885,61.5561344 19.3584529,61.8458625 19.0790124,61.9237739 C19.0318888,61.9368342 18.9844649,61.9431391 18.9377915,61.9431391" id="Fill-42" fill="#93820A"></path>
                    <path d="M21.6905948,63.2308681 C21.4566272,63.2308681 21.24322,63.0733941 21.1822894,62.8362073 L19.1973919,55.1177298 C19.1906385,55.091309 19.1859862,55.0644378 19.1832848,55.0371163 L17.9334568,42.0361293 C17.9294048,41.9934957 17.9304553,41.9502617 17.9369085,41.9077783 L19.2203535,33.3710064 C19.2635752,33.0839804 19.5308595,32.8867251 19.8178037,32.9295087 C20.1047479,32.9727428 20.3023972,33.2404035 20.2591755,33.5272794 L18.9853354,42.0001009 L20.2249583,54.895705 L22.1996506,62.5744012 C22.271987,62.8555726 22.102852,63.141848 21.8219108,63.214205 C21.7779387,63.2254638 21.7339666,63.2308681 21.6905948,63.2308681" id="Fill-44" fill="#93820A"></path>
                    <path d="M24.4316622,64.5131778 C24.1888402,64.5131778 23.9706305,64.3436943 23.9184043,64.0965998 L22.3561192,56.7223433 C22.351617,56.7011766 22.3484654,56.6798598 22.3465144,56.6583929 L21.1976871,43.2728031 C21.1945355,43.234673 21.195436,43.1963929 21.2003885,43.158413 L22.3493658,34.526166 C22.387485,34.2385395 22.6519179,34.0367806 22.9393123,34.0746104 C23.2268568,34.1128905 23.4288583,34.3772487 23.3905891,34.6648752 L22.2492655,43.2402274 L23.3905891,56.5361967 L24.9459707,63.8787783 C25.0061509,64.1626518 24.8248598,64.4414213 24.5410672,64.5016187 C24.5042987,64.5094248 24.4676803,64.5131778 24.4316622,64.5131778" id="Fill-46" fill="#93820A"></path>
                    <path d="M27.2496133,65.8313657 C27.002289,65.8313657 26.7818282,65.6557274 26.7341042,65.403679 L25.3412543,58.0513397 C25.3376525,58.0322747 25.3351012,58.0129095 25.3336005,57.9935442 L24.2980801,44.4473279 C24.2950786,44.4102487 24.2962792,44.3728693 24.3012317,44.3359402 L25.4890786,35.6738196 C25.5285484,35.3863433 25.7949323,35.1854851 26.0808259,35.224666 C26.3682204,35.264147 26.5693214,35.5292558 26.5300017,35.8167322 L25.3496585,44.4231589 L26.3788757,57.8844083 L27.7663229,65.2080749 C27.8203501,65.4931494 27.633056,65.7680158 27.3480627,65.8220584 C27.3150462,65.8283634 27.2820296,65.8313657 27.2496133,65.8313657" id="Fill-48" fill="#93820A"></path>
                    <path d="M83.5289894,93.3604322 C83.2813649,93.3604322 83.0610542,93.1844936 83.0133302,92.932295 L81.4420406,84.6017856 C81.4360376,84.5696603 81.4330361,84.5370846 81.4330361,84.5043589 L81.4330361,67.1667572 C81.4330361,67.1313293 81.4366379,67.0959014 81.4436915,67.061074 L83.454702,57.2696142 C83.5130814,56.9854404 83.7911711,56.8021461 84.0749637,56.8606922 C84.3590565,56.9190882 84.5421485,57.1968069 84.4837692,57.4811307 L82.483564,67.2201993 L82.483564,84.4552702 L84.045699,92.7374416 C84.0995761,93.0226662 83.9119818,93.2973825 83.6269886,93.3511248 C83.5941221,93.3574298 83.5612556,93.3604322 83.5289894,93.3604322" id="Fill-50" fill="#93820A"></path>
                    <path d="M87.8045179,95.5276887 C87.5418859,95.5276887 87.3149719,95.3310338 87.283456,95.0636733 L86.2093663,85.9475953 C86.206815,85.9271792 86.2057645,85.906613 86.2057645,85.8860468 L86.2057645,68.5906284 C86.2057645,68.5461934 86.2113173,68.5019085 86.2224229,68.4588246 L88.6554455,59.0647277 C88.7282321,58.7838565 89.0148761,58.6152738 89.2956672,58.687931 C89.5764583,58.7607383 89.7451431,59.0474641 89.6723565,59.3283352 L87.2562924,68.6575811 L87.2562924,85.8552726 L88.3267803,94.9407265 C88.3608474,95.2289534 88.1547939,95.4901591 87.8666491,95.5240858 C87.8457886,95.5264877 87.8250782,95.5276887 87.8045179,95.5276887" id="Fill-52" fill="#93820A"></path>
                    <path d="M92.982705,98.1525655 C92.7226243,98.1525655 92.4967608,97.9593634 92.4623935,97.6944047 L91.3177683,88.8434355 C91.3155172,88.8258716 91.3140164,88.8081577 91.3135662,88.7905939 L90.8112638,70.6990986 C90.809763,70.6492593 90.815616,70.5994201 90.8282223,70.551082 L93.4069682,60.7286979 C93.4806552,60.4479768 93.7675994,60.280595 94.0483905,60.3540028 C94.3290315,60.4277109 94.4966658,60.714887 94.4229787,60.995608 L91.8634425,70.7451849 L92.3630436,88.7349 L93.5043671,97.5597487 C93.5415858,97.8475253 93.3385338,98.1109827 93.0508392,98.1482121 C93.0278777,98.1510643 93.0050662,98.1525655 92.982705,98.1525655" id="Fill-54" fill="#93820A"></path>
                    <path d="M98.0915722,100.74221 C97.8256386,100.74221 97.597524,100.540901 97.56976,100.270538 L96.5912683,90.7561966 C96.5894674,90.7383325 96.588567,90.7203183 96.588567,90.7023041 L96.588567,72.527193 C96.588567,72.483959 96.5939697,72.4408751 96.604475,72.3989921 L99.0412495,62.7097628 C99.111935,62.4282911 99.3970783,62.2576067 99.6787698,62.3284625 C99.9601612,62.3991682 100.130797,62.684693 100.059961,62.9661647 L97.6390949,72.5921942 L97.6390949,90.675433 L98.6147351,100.163054 C98.6444501,100.451581 98.4344946,100.709784 98.1458995,100.739357 C98.1277404,100.741309 98.1095813,100.74221 98.0915722,100.74221" id="Fill-56" fill="#93820A"></path>
                    <path d="M103.660496,103.565137 C103.408669,103.565137 103.186257,103.383494 103.143186,103.126642 L101.61977,94.0558998 C101.614217,94.0225735 101.611816,93.9886468 101.612717,93.9548702 L102.115169,75.0911669 C102.11607,75.0533371 102.121322,75.0158076 102.130327,74.9790286 L104.674555,64.6869246 C104.74419,64.4051527 105.029334,64.2334175 105.310575,64.3029222 C105.592266,64.3727272 105.764103,64.6575014 105.694318,64.9391232 L103.163746,75.1759837 L102.664295,93.9320522 L104.179156,102.952655 C104.22718,103.23878 104.034334,103.509744 103.74814,103.557782 C103.718725,103.562735 103.68946,103.565137 103.660496,103.565137" id="Fill-58" fill="#93820A"></path>
                    <path d="M137.561782,100.329054 C137.546024,100.329054 137.530116,100.328304 137.514058,100.326953 C137.225012,100.300832 137.011905,100.045481 137.038018,99.7563533 L139.201506,75.7644621 L136.282839,66.1336287 C136.198647,65.85591 136.355475,65.5625791 136.633115,65.4783628 C136.910904,65.3942966 137.203852,65.5511701 137.288194,65.8287387 L140.236426,75.5574491 C140.256085,75.62215 140.262989,75.6898533 140.256836,75.7571063 L138.084344,99.8507777 C138.059732,100.123693 137.830567,100.329054 137.561782,100.329054" id="Fill-60" fill="#93820A"></path>
                    <path d="M141.978741,97.2005759 C141.961783,97.2005759 141.944674,97.1998253 141.927415,97.1980239 C141.63867,97.1701019 141.427364,96.9132496 141.455428,96.6244222 L143.722167,73.2529695 L140.701599,63.6548619 C140.614556,63.378044 140.768233,63.0830617 141.044972,62.9959931 C141.321561,62.9090747 141.616609,63.0626456 141.703653,63.3393135 L144.756337,73.0395014 C144.777498,73.1067544 144.785001,73.1777603 144.778098,73.2480156 L142.501004,96.7259021 C142.47459,96.997466 142.246025,97.2005759 141.978741,97.2005759" id="Fill-62" fill="#93820A"></path>
                    <path d="M146.093584,94.286031 C146.079477,94.286031 146.06522,94.2854305 146.050812,94.2843797 C145.761617,94.2609612 145.546109,94.0075617 145.56937,93.718434 L147.409295,70.8940121 L145.045907,61.1729577 C144.977473,60.8910357 145.15036,60.6068619 145.432202,60.5382579 C145.713893,60.4696539 145.998136,60.6425901 146.06672,60.9246622 L148.449918,70.7279813 C148.463275,70.7823241 148.467627,70.8384683 148.463125,70.8943123 L146.616597,93.8028005 C146.594386,94.0776669 146.36447,94.286031 146.093584,94.286031" id="Fill-64" fill="#93820A"></path>
                    <path d="M150.366486,91.2595879 C150.351929,91.2595879 150.337371,91.2589875 150.322664,91.2577865 C150.033469,91.2339177 149.818561,90.9800678 149.842423,90.6907901 L151.678145,68.480952 L148.86108,59.3515135 C148.775537,59.0742452 148.930865,58.7800135 149.208054,58.6944461 C149.485393,58.6087286 149.779391,58.7642511 149.864934,59.0415194 L152.711865,68.2680844 C152.731675,68.3321849 152.739028,68.3995879 152.733475,68.4663905 L150.889349,90.7774083 C150.866687,91.0518243 150.636922,91.2595879 150.366486,91.2595879" id="Fill-66" fill="#93820A"></path>
                    <path d="M153.973279,88.7048313 C153.962623,88.7048313 153.951968,88.7045311 153.941162,88.7039306 C153.651667,88.6865169 153.431056,88.4374708 153.448465,88.1478928 L154.778133,66.0426871 L152.134404,57.2173881 C152.050963,56.9393691 152.208842,56.6466387 152.486631,56.563323 C152.765171,56.4800074 153.057368,56.6377817 153.14066,56.9158006 L155.811252,65.83042 C155.828961,65.8895665 155.836165,65.9512651 155.832413,66.0128136 L154.497042,88.2109424 C154.480233,88.4898621 154.248967,88.7048313 153.973279,88.7048313" id="Fill-68" fill="#93820A"></path>
                    <path d="M171.324503,76.4155097 C171.309195,76.4155097 171.293887,76.4149092 171.27843,76.4135582 C170.989534,76.3884884 170.775527,76.1337378 170.800589,75.8446102 L172.646967,54.5551468 L171.5172,53.0484104 C171.343112,52.8163277 171.390086,52.4869683 171.622102,52.3128312 C171.854269,52.138544 172.183534,52.1858312 172.357472,52.4179139 L173.60775,54.0852768 C173.685339,54.1887083 173.722108,54.3170593 173.710852,54.4458608 L171.847215,75.9354317 C171.823503,76.2090972 171.594038,76.4155097 171.324503,76.4155097" id="Fill-70" fill="#93820A"></path>
                    <path d="M174.402429,74.235358 C174.385921,74.235358 174.369263,74.2346074 174.352454,74.2329561 C174.063709,74.2056346 173.851653,73.9493829 173.878966,73.6605554 L175.870467,52.5731512 L173.893374,44.9591559 C173.820587,44.6784349 173.988972,44.391559 174.269763,44.3186015 C174.550704,44.2457942 174.837348,44.4142268 174.910285,44.695098 L176.91049,52.3984136 C176.925797,52.4577103 176.93075,52.5191086 176.925047,52.5799065 L174.924692,73.7593332 C174.899179,74.0313474 174.670314,74.235358 174.402429,74.235358" id="Fill-72" fill="#93820A"></path>
                    <path d="M177.511812,72.0328688 C177.497255,72.0328688 177.482847,72.0322683 177.46799,72.0310674 C177.178945,72.0071986 176.963887,71.7534988 176.987749,71.464221 L178.677598,50.948617 L176.583746,43.4572683 C176.505556,43.1777482 176.668688,42.88787 176.948129,42.8096584 C177.227269,42.731747 177.517365,42.8947754 177.595404,43.1742955 L179.714619,50.7563156 C179.731427,50.8163629 179.73743,50.8788121 179.732178,50.940961 L178.034675,71.550539 C178.012013,71.8251052 177.782398,72.0328688 177.511812,72.0328688" id="Fill-74" fill="#93820A"></path>
                    <path d="M180.677683,69.7904031 C180.663876,69.7904031 180.650069,69.7898026 180.636262,69.7887518 C180.347067,69.766234 180.130808,69.513435 180.153469,69.2241572 L181.716205,49.1853286 L179.555419,41.7930579 C179.474078,41.5145887 179.633758,41.2227589 179.912298,41.1412447 C180.190688,41.0598806 180.482435,41.2196064 180.563776,41.4980757 L182.751425,48.9828191 C182.769434,49.0437671 182.775887,49.1075674 182.770935,49.1710674 L181.200696,69.3058215 C181.179235,69.5811383 180.949169,69.7904031 180.677683,69.7904031" id="Fill-76" fill="#93820A"></path>
                    <path d="M184.040678,67.4083124 C184.02567,67.4083124 184.010663,67.4077119 183.995355,67.4063609 C183.70631,67.3817415 183.492002,67.1272911 183.516764,66.8381635 L185.195208,47.17418 L182.670039,40.0755405 C182.57279,39.8021753 182.715512,39.5017888 182.988799,39.4045122 C183.261786,39.3070855 183.562387,39.4498479 183.659786,39.7233632 L186.223074,46.9291871 C186.248287,46.9998928 186.257892,47.0752521 186.251589,47.150011 L184.56339,66.9276339 C184.540129,67.2014495 184.310513,67.4083124 184.040678,67.4083124" id="Fill-78" fill="#93820A"></path>
                    <path d="M30.6743042,47.1592132 C30.612173,47.1592132 30.5491413,47.1481045 30.4876104,47.1248362 L8.87164811,38.9021116 C8.60061192,38.7989804 8.46434344,38.4954414 8.56744525,38.2241778 C8.67054706,37.9529142 8.97384947,37.816757 9.24503575,37.9198882 L30.8611481,46.1426128 C31.1321843,46.245744 31.2684528,46.5491329 31.165351,46.8203965 C31.0856609,47.0301116 30.8860606,47.1592132 30.6743042,47.1592132" id="Fill-80" fill="#93820A"></path>
                    <path d="M112.138946,80.1926939 C112.072463,80.1926939 112.004929,80.1799338 111.939646,80.1532128 L74.7530594,64.8807872 C74.4847245,64.7706005 74.3565601,64.4636087 74.4667155,64.1951974 C74.5768708,63.9267861 74.8840752,63.7985851 75.1519598,63.9086217 L112.338697,79.1810473 C112.607031,79.2913842 112.735196,79.5982258 112.62504,79.8666371 C112.541749,80.069747 112.3456,80.1926939 112.138946,80.1926939" id="Fill-82" fill="#93820A"></path>
                    <path d="M102.137455,94.49438 C102.062718,94.49438 101.98693,94.4784675 101.914894,94.4445408 L81.735303,84.9800384 C81.472671,84.8569415 81.3595142,84.5440952 81.4827261,84.2813883 C81.6057879,84.0185313 81.918395,83.9053422 82.1811771,84.0285892 L102.360768,93.4930916 C102.6234,93.6163387 102.736556,93.929185 102.613344,94.1918918 C102.52405,94.382542 102.334805,94.49438 102.137455,94.49438" id="Fill-84" fill="#93820A"></path>
                    <path d="M102.40492,84.4519376 C102.333784,84.4519376 102.261298,84.4373761 102.192113,84.4066019 L81.7450879,75.3294045 C81.4800548,75.2117118 81.3604446,74.9012674 81.4781038,74.6360085 C81.5957629,74.3707496 81.9062689,74.2511054 82.1713021,74.3689482 L102.618327,83.4461456 C102.88336,83.5638383 103.00297,83.8742827 102.885311,84.1395416 C102.798417,84.3354459 102.606321,84.4519376 102.40492,84.4519376" id="Fill-86" fill="#93820A"></path>
                    <path d="M25.8570185,58.4790565 C25.7839317,58.4790565 25.7097945,58.4637444 25.6388088,58.4313189 L13.5843013,52.9182279 C13.3204687,52.7975329 13.2043103,52.4857374 13.324971,52.2218296 C13.4456316,51.9579217 13.7571882,51.8420305 14.0211708,51.9624253 L26.0758284,57.4756664 C26.3395109,57.5963615 26.4556693,57.908157 26.3350087,58.1720648 C26.2467643,58.3651168 26.0561686,58.4790565 25.8570185,58.4790565" id="Fill-88" fill="#93820A"></path>
                    <path d="M25.2893282,51.0511478 C25.2261465,51.0511478 25.1619142,51.0397388 25.0994828,51.0154196 L12.7869956,46.2391087 C12.5165597,46.1341761 12.3823923,45.8297364 12.487295,45.5592234 C12.5921977,45.2887104 12.8965507,45.1543546 13.1669866,45.2592872 L25.4794738,50.0357482 C25.7499097,50.1406809 25.8840771,50.4449704 25.7791744,50.7156336 C25.6985839,50.9236974 25.499884,51.0511478 25.2893282,51.0511478" id="Fill-90" fill="#93820A"></path>
                    <path d="M133.711987,80.1926188 C133.540901,80.1926188 133.373117,80.1091531 133.272266,79.9552819 C133.113186,79.7126909 133.18087,79.3869344 133.423392,79.2278091 L159.510551,62.1129829 C159.753223,61.9538576 160.078737,62.0215609 160.237817,62.2641519 C160.396896,62.5067429 160.329212,62.8324994 160.086691,62.9916247 L133.999531,80.1064509 C133.910687,80.1646968 133.810737,80.1926188 133.711987,80.1926188" id="Fill-92" fill="#93820A"></path>
                    <path d="M171.275323,56.03872 C171.094332,56.03872 170.918294,55.9450462 170.820745,55.7773642 C170.674871,55.5265167 170.759964,55.2049635 171.01074,55.0590486 L189.380271,44.3728843 C189.631347,44.2271195 189.952659,44.3122365 190.098382,44.5629339 C190.244255,44.8137814 190.159312,45.1354848 189.908536,45.2813996 L171.538855,55.9674138 C171.455864,56.0157519 171.364918,56.03872 171.275323,56.03872" id="Fill-94" fill="#93820A"></path>
                    <path d="M133.012981,92.5558136 C132.848348,92.5558136 132.686417,92.4786528 132.584065,92.334089 C132.416281,92.0973526 132.472109,91.7694944 132.708778,91.6016623 L158.553565,73.2812368 C158.790384,73.1134046 159.118149,73.1692486 159.285783,73.4061351 C159.453567,73.6428715 159.397739,73.9708798 159.16107,74.1385618 L133.316283,92.4589874 C133.223987,92.5244389 133.118033,92.5558136 133.012981,92.5558136" id="Fill-96" fill="#93820A"></path>
                    <path d="M168.908198,68.1396283 C168.738163,68.1396283 168.571279,68.0570632 168.470128,67.9048434 C168.309698,67.6631531 168.375431,67.3369462 168.617052,67.1764699 L187.720152,54.4853268 C187.961923,54.3247004 188.287887,54.3906022 188.448318,54.6322926 C188.608748,54.8739829 188.543015,55.2001897 188.301394,55.3606661 L169.198294,68.0518091 C169.108849,68.1112559 169.007999,68.1396283 168.908198,68.1396283" id="Fill-98" fill="#93820A"></path>
                    <path d="M67.8924968,61.9198708 C67.8275142,61.9198708 67.761481,61.9077112 67.6975489,61.8821911 L35.2836605,48.9094264 C35.0142751,48.8016415 34.8832593,48.4958507 34.9911635,48.2263885 C35.0989176,47.9570765 35.4044712,47.8261734 35.6738566,47.9338082 L68.0877449,60.9065729 C68.3571303,61.0143578 68.4881462,61.3199985 68.3802419,61.5894606 C68.2981507,61.7948223 68.1009516,61.9198708 67.8924968,61.9198708" id="Fill-100" fill="#93820A"></path>
                    <path d="M47.5577133,75.6073483 C47.2893785,75.6073483 47.0605135,75.4027372 47.0353008,75.1302727 L44.9387473,52.4654264 C44.9120339,52.1764488 45.1245406,51.9206474 45.4134358,51.8939264 C45.7015806,51.8666048 45.9580595,52.0796226 45.984923,52.3686001 L48.0813265,75.0334465 C48.1080399,75.322424 47.8955331,75.5783755 47.6066379,75.6050966 C47.5902797,75.6065978 47.5739215,75.6073483 47.5577133,75.6073483" id="Fill-102" fill="#93820A"></path>
                    <path d="M57.9648731,80.77206 C57.6926363,80.77206 57.4622705,80.5618946 57.4417102,80.2858272 L55.6826762,56.7564501 C55.6610654,56.4670222 55.8780744,56.2149738 56.1672698,56.1933567 C56.4566152,56.1715896 56.7085918,56.3888106 56.7303527,56.6780884 L58.4892366,80.2074655 C58.5108474,80.4968934 58.2938384,80.7489418 58.0046431,80.7705589 C57.9912863,80.7716097 57.9780797,80.77206 57.9648731,80.77206" id="Fill-104" fill="#93820A"></path>
                    <path d="M61.4575782,82.5053098 C61.1830903,82.5053098 60.9522743,82.292142 60.9339651,82.0142732 L59.3712298,58.2280439 C59.3521702,57.938616 59.5714304,57.6883689 59.8609259,57.6693039 C60.1510216,57.6505391 60.400447,57.8695616 60.4195066,58.1591396 L61.9822419,81.9453689 C62.0013014,82.2349469 61.7820413,82.4850439 61.4925458,82.5041089 C61.4808399,82.5048595 61.469134,82.5053098 61.4575782,82.5053098" id="Fill-106" fill="#93820A"></path>
                    <path d="M65.3330057,84.4285041 C65.0540155,84.4285041 64.8216987,84.2088812 64.8087922,83.9271093 L63.7102402,59.9544332 C63.6968835,59.664555 63.9210962,59.4188115 64.2108918,59.4056011 C64.4969355,59.3925408 64.7462108,59.6165171 64.7595675,59.9063954 L65.8581195,83.8790715 C65.8714762,84.1689498 65.6472636,84.4146933 65.3574679,84.4279037 C65.3493639,84.428354 65.3411097,84.4285041 65.3330057,84.4285041" id="Fill-108" fill="#93820A"></path>
                    <path d="M44.3271449,74.0040859 C44.0559587,74.0040859 43.8260431,73.7954216 43.8041321,73.520255 L42.0386449,51.2982573 C42.0156834,51.0089796 42.2314919,50.7558803 42.5205371,50.7327621 C42.8082317,50.7096439 43.0627596,50.9256639 43.0858712,51.2149417 L44.8513584,73.4369394 C44.8743199,73.7262171 44.6585115,73.9794665 44.3693161,74.0024346 C44.355209,74.0034855 44.341102,74.0040859 44.3271449,74.0040859" id="Fill-110" fill="#93820A"></path>
                    <path d="M41.1798084,72.4422111 C40.9080218,72.4422111 40.6779562,72.2327962 40.6566455,71.9571792 L38.9667963,50.0676934 C38.9444351,49.7784156 39.1608438,49.5257667 39.4500391,49.5033991 C39.7395346,49.4805811 39.9918114,49.6975019 40.0141726,49.9867797 L41.7041719,71.8762655 C41.7265331,72.1655433 41.5101244,72.4183423 41.220779,72.4405598 C41.2071221,72.4416106 41.1933152,72.4422111 41.1798084,72.4422111" id="Fill-112" fill="#93820A"></path>
                    <path d="M46.086419,59.6987669 C46.0134824,59.6987669 45.9394952,59.6834548 45.8688097,59.6513296 L39.7635917,56.8660364 C39.499609,56.7456416 39.3833006,56.4339962 39.5036611,56.1699383 C39.6240216,55.9058804 39.9355781,55.7895388 40.1994107,55.9099336 L46.3046287,58.6952267 C46.5686113,58.8156215 46.6849198,59.1272669 46.5647094,59.3913248 C46.476465,59.5846771 46.2858692,59.6987669 46.086419,59.6987669" id="Fill-114" fill="#93820A"></path>
                    <path d="M46.7851401,67.2524447 C46.7138543,67.2524447 46.6415179,67.2378832 46.5723332,67.207109 L40.3533581,64.4446338 C40.0881748,64.326791 39.9687148,64.0163466 40.0863739,63.7512378 C40.2041831,63.485979 40.5145391,63.3664849 40.7795722,63.4841775 L46.9985474,66.2466527 C47.2637306,66.3644955 47.3831906,66.67494 47.2655315,66.9400487 C47.1784878,67.135953 46.9863913,67.2524447 46.7851401,67.2524447" id="Fill-116" fill="#93820A"></path>
                    <path d="M64.5681913,67.7331682 C64.5011076,67.7331682 64.4329734,67.720258 64.3672403,67.6929365 L56.5471106,64.4497829 C56.279226,64.3385453 56.1519621,64.0312533 56.2631679,63.7631422 C56.3742238,63.4950311 56.6817283,63.367881 56.9494628,63.4789684 L64.7695925,66.7222722 C65.0374771,66.8333597 65.1647411,67.1408018 65.0535352,67.4089129 C64.9697931,67.6111221 64.7742449,67.7331682 64.5681913,67.7331682" id="Fill-118" fill="#93820A"></path>
                    <path d="M64.9435299,75.9252387 C64.8702931,75.9252387 64.7960058,75.9099266 64.7250201,75.8773509 L57.1240005,72.3944585 C56.860318,72.2736134 56.7444598,71.9618178 56.8652705,71.69791 C56.9860812,71.4341524 57.2979379,71.3182611 57.5616204,71.4391063 L65.16249,74.9219987 C65.4263225,75.0428439 65.5421808,75.3546394 65.4213701,75.6185472 C65.3329756,75.8114491 65.14268,75.9252387 64.9435299,75.9252387" id="Fill-120" fill="#93820A"></path>
                </g>
            </g>
        </g>
    </g>
</svg>