<?xml version="1.0" encoding="UTF-8" standalone="no"?>
<svg width="226px" height="122px" viewBox="0 0 226 122" version="1.1" xmlns="http://www.w3.org/2000/svg" xmlns:xlink="http://www.w3.org/1999/xlink">
    <!-- Generator: Sketch 46 (44423) - http://www.bohemiancoding.com/sketch -->
    <title>RPC</title>
    <desc>Created with Sketch.</desc>
    <defs>
        <polygon id="path-1" points="225.926595 72.2026956 225.926595 0.0696900726 0 0.0696900726 0 72.2026956 225.926595 72.2026956"></polygon>
        <polygon id="path-3" points="0.015093603 100.097298 157.037964 100.097298 157.037964 0.127130269 0.015093603 0.127130269 0.015093603 100.097298"></polygon>
    </defs>
    <g id="7-Productos" stroke="none" stroke-width="1" fill="none" fill-rule="evenodd">
        <g id="7.1-Limon-mexicano" transform="translate(-528.000000, -3157.000000)">
            <g id="Group-43" transform="translate(503.000000, 3091.000000)">
                <g id="RPC" transform="translate(25.000000, 66.000000)">
                    <path d="M58.2236344,23.0306295 C56.4445663,23.4300325 42.2697207,27.9944036 42.2697207,27.9944036 C42.2697207,27.9944036 40.3185488,28.5078748 39.9741757,26.9674612 C39.6298026,25.4268832 38.435987,20.7313502 41.8679797,19.7785357 L57.0759446,15.5565336 C57.0759446,15.5565336 58.6255407,15.1571306 58.8548473,16.2411071 L59.0844844,17.3252479 L59.4288575,20.9767447 C59.4288575,20.9767447 60.0027024,22.6312265 58.2236344,23.0306295 L58.2236344,23.0306295 Z M84.519156,2.41107928 L6.50451807,22.2921449 L146.733137,67.8221157 L177.285626,50.4885181 L178.647577,76.7509919 L201.772486,63.8893931 L215.736541,28.6737174 L84.519156,2.41107928 Z" id="Fill-1" fill="#CCBA15"></path>
                    <path d="M199.213065,51.9693829 C198.89068,53.8927631 196.635805,60.2347241 196.63068,60.2495168 C196.122965,61.6771771 194.149474,62.3224677 192.970703,62.9933991 C190.322519,64.5011043 187.906617,66.3575887 185.406895,68.0866914 C184.474459,68.731489 183.541858,69.3764509 182.609256,70.0212484 C181.954237,70.4742339 181.046269,71.328266 180.1631,71.1157442 C180.010174,71.082214 179.134114,71.0330694 179.521472,69.1716541 C179.908168,67.3123756 181.261192,61.8678386 181.264664,61.8541965 C181.621106,60.4194685 182.27315,60.1050414 183.561862,59.4533406 C186.611292,57.9116121 189.351397,55.8989825 192.248562,54.1067643 C194.161047,52.9235123 196.073864,51.7404247 197.986349,50.5573371 C197.986349,50.5573371 199.535946,50.0437015 199.213065,51.9693829 M223.769196,30.2533645 C223.081608,30.7553303 222.29317,30.5268652 221.540112,30.2821281 C220.786724,30.0373911 220.726876,30.1864686 220.726876,30.1864686 L154.22154,68.4356349 L156.526013,69.2945979 L155.104213,115.196852 L216.910171,66.3099233 L225.237287,29.0775089 C225.237287,29.0775089 224.456785,29.7513988 223.769196,30.2533645" id="Fill-3" fill="#E2D100"></path>
                    <path d="M2.24366584,23.2011237 C2.24366584,23.2011237 0.759703877,23.0577988 0.660343233,22.4930462 L7.23781946,56.2810616 L142.162961,120.587576 C142.162961,120.587576 145.491294,122.577524 149.298245,119.92815 C153.105527,117.278613 155.104313,115.19695 155.104313,115.19695 L156.525947,69.2946965 C156.525947,69.2946965 152.864648,71.6955524 151.217675,71.7083728 C149.570867,71.7210287 145.903451,71.7356571 144.38692,71.2174193 C142.870223,70.6991816 2.24366584,23.2011237 2.24366584,23.2011237" id="Fill-5" fill="#EAE406"></path>
                    <path d="M146.733187,67.8221815 L6.50456767,22.2922106 L84.5190402,2.41114502 L215.736591,28.6737832 L146.733187,67.8221815 Z M222.177508,27.650128 C222.177508,27.650128 88.0819707,1.45455016 85.8008091,0.946174227 C83.5196474,0.437962659 81.0210827,1.03131446 81.0210827,1.03131446 C81.0210827,1.03131446 80.1435347,1.1774335 80.0097864,1.43811382 C79.9666364,1.52210351 80.3678815,1.77555184 80.1124535,1.84228337 C70.5705252,4.33222419 22.3824316,16.32582 6.50456767,20.3073584 C6.06463643,20.4176463 5.22362546,20.0575261 4.83428383,20.1548292 C2.61627652,20.7092269 1.29086174,21.4500127 0.929294806,21.7805474 C-0.355780541,22.9560743 2.16163131,23.2011401 2.16163131,23.2011401 C2.16163131,23.2011401 142.124076,70.4401614 144.304885,71.2174358 C145.743052,71.7299208 149.242993,71.7493157 151.135805,71.7083892 C153.028617,71.6674627 156.443912,69.294713 156.443912,69.294713 L154.13977,68.4355856 L220.644941,30.1865837 C220.644941,30.1865837 220.544423,29.9364226 221.902737,30.4365804 C223.261052,30.9367382 224.091813,29.9761986 225.155517,29.0774596 C226.218891,28.1787207 222.177508,27.650128 222.177508,27.650128 L222.177508,27.650128 Z" id="Fill-7" fill="#F9F44E"></path>
                    <path d="M53.3689824,38.0788694 C53.1208288,38.0788694 52.8915223,37.9191082 52.8154726,37.6709195 C52.7225596,37.3668472 52.8949941,37.0455168 53.2006811,36.9531446 L83.9556935,27.6503417 L83.9556935,2.41119433 C83.9556935,2.09347992 84.2147586,1.83592251 84.5343328,1.83592251 C84.8537418,1.83592251 85.1129722,2.09347992 85.1129722,2.41119433 L85.1129722,28.0765359 C85.1129722,28.3298199 84.9463241,28.5531897 84.7026342,28.6268245 L53.5376145,38.0537218 C53.4815691,38.0708156 53.4246971,38.0788694 53.3689824,38.0788694" id="Fill-9" fill="#93820A"></path>
                    <path d="M196.564302,60.8249366 C196.511067,60.8249366 196.457171,60.8175402 196.403275,60.8022544 L186.774716,58.0370049 C186.467872,57.9489062 186.290643,57.6298768 186.379588,57.324654 C186.468202,57.0192669 186.788769,56.8435624 187.095943,56.9316612 L196.724668,59.6967463 C197.031512,59.7850095 197.208575,60.1038744 197.119796,60.4090972 C197.046722,60.6610663 196.815431,60.8249366 196.564302,60.8249366" id="Fill-11" fill="#93820A"></path>
                    <path d="M172.352345,53.8716753 C172.29911,53.8716753 172.245214,53.864279 172.191318,53.8489932 L84.3737026,28.6292407 C84.0666931,28.5409775 83.8896294,28.2221126 83.9784092,27.9168898 C84.0670237,27.6115026 84.3875899,27.4357982 84.6949301,27.523897 L172.512711,52.7434851 C172.819555,52.8317482 172.996453,53.1506132 172.907839,53.455836 C172.834765,53.707805 172.603474,53.8716753 172.352345,53.8716753" id="Fill-13" fill="#93820A"></path>
                    <g id="Group-17" transform="translate(0.000000, 0.094673)">
                        <mask id="mask-2" fill="white">
                            <use xlink:href="#path-1"></use>
                        </mask>
                        <g id="Clip-16"></g>
                        <path d="M221.197641,29.8783037 C221.197971,29.8791256 221.198302,29.8799474 221.198632,29.8807692 C221.198302,29.8799474 221.197971,29.8791256 221.197641,29.8783037 L221.197641,29.8783037 Z M221.199128,29.8819197 C221.199294,29.8822485 221.199459,29.8827415 221.199624,29.8830703 C221.199459,29.8827415 221.199294,29.8822485 221.199128,29.8819197 L221.199128,29.8819197 Z M1.19879195,22.2548015 C1.38445252,22.368541 1.84273489,22.4959226 2.23339912,22.5338905 C2.27754104,22.538164 2.32102165,22.5475327 2.36301434,22.5616679 C3.76266028,23.0342126 142.355052,69.8112084 144.515526,70.5812509 C145.510125,70.9357827 147.984552,71.1067206 151.138467,71.0385098 C152.201676,71.0154989 153.982562,70.0722175 155.183818,69.3388281 L153.951812,68.8795968 C153.742179,68.8013598 153.596858,68.6102052 153.578176,68.388479 C153.559825,68.1667528 153.671585,67.9543954 153.865181,67.842957 L220.243712,29.6669324 C220.247349,29.6629877 220.251152,29.6588786 220.25512,29.6549339 C220.55221,29.3515191 220.987512,29.3858711 222.119,29.8025322 C222.950256,30.1085768 223.475661,29.6958604 224.410081,28.8781526 C224.471747,28.8242414 224.53391,28.7698371 224.596733,28.7152685 C224.133987,28.504719 223.114921,28.2562016 222.117346,28.125697 C222.105278,28.1242178 222.093209,28.1222454 222.081305,28.1197799 C216.605724,27.0501031 87.9522067,1.91713445 85.6893962,1.4128676 C83.5633099,0.939172347 81.1945257,1.49061148 81.1708841,1.49619984 C81.1579887,1.49932274 81.1450933,1.50195256 81.1320326,1.50408928 C81.0204379,1.52282671 80.897601,1.55126157 80.7868329,1.58216188 C80.799067,1.6682883 80.7944379,1.7629616 80.7618688,1.86437381 C80.6922667,2.08100474 80.5148724,2.24125903 80.2749851,2.30388148 C73.390334,4.10053758 45.9641511,10.950217 25.9386003,15.9516303 C18.0264511,17.9276068 11.0880692,19.6604899 6.66114748,20.7706002 C6.30602824,20.8596851 5.9062711,20.7778322 5.52007067,20.6989378 C5.34118844,20.6622847 5.07038522,20.607223 4.98309334,20.6197146 C2.88660029,21.1438694 1.62020673,21.8498101 1.33634279,22.1093399 C1.26922063,22.1708118 1.22607067,22.2194634 1.19879195,22.2548015 L1.19879195,22.2548015 Z M149.870586,72.2026956 C148.030017,72.2026956 145.392082,72.1159117 144.125028,71.6642412 C141.991006,70.9037318 5.6316654,24.8800134 2.05220234,23.6717782 C1.48877293,23.6093201 0.315126993,23.3856215 0.0509367959,22.6011151 C-0.0523916606,22.2944131 -0.04908515,21.8131571 0.552865106,21.2625398 C1.07595508,20.7842423 2.59942985,20.0293213 4.70848764,19.5023724 C5.02508603,19.4229848 5.37888266,19.4953047 5.75317966,19.5718981 C5.94842911,19.6118384 6.27478171,19.6787343 6.37844082,19.6549016 C10.8051972,18.5447913 17.7440751,16.8117438 25.6567203,14.8356029 C45.1920809,9.9566404 71.7708051,3.31866098 79.4419097,1.33117901 C79.4450509,1.25294204 79.46489,1.16928108 79.5096932,1.08200412 C79.6847729,0.740621385 80.1599185,0.501801396 80.9223999,0.372447417 C81.1887393,0.31130424 83.6415089,-0.222548015 85.9426749,0.290101364 C88.1830012,0.789272945 220.073427,26.5550406 222.286474,26.9873163 C224.477534,27.275774 225.691023,27.767878 225.893382,28.4501503 C225.941657,28.6128701 226.004315,29.0333116 225.545371,29.4212092 C225.418897,29.5280454 225.295895,29.6357034 225.174877,29.7417178 C224.265421,30.537894 223.234286,31.4400846 221.717093,30.8814134 C221.266251,30.7154064 221.01975,30.6490036 220.893442,30.6223768 L155.504218,68.2295397 L156.662324,68.6613223 C156.863525,68.736272 157.006532,68.9160855 157.03348,69.1279499 C157.060262,69.3398143 156.966853,69.5492132 156.790782,69.6714996 C156.42657,69.9246192 153.17379,72.1453328 151.163762,72.1887247 C150.823191,72.1961211 150.376978,72.2026956 149.870586,72.2026956 L149.870586,72.2026956 Z" id="Fill-15" fill="#93820A" mask="url(#mask-2)"></path>
                    </g>
                    <path d="M8.58867783,22.3588106 L146.684432,67.1961542 L214.124353,28.9348251 L84.5498073,3.00107806 L8.58867783,22.3588106 Z M146.748578,68.3974862 C146.688069,68.3974862 146.627395,68.3881174 146.568869,68.3690513 L6.33991997,22.8390804 C6.09556884,22.7596929 5.93305384,22.5292555 5.94132012,22.2735061 C5.94975172,22.017921 6.12665004,21.7984959 6.37596094,21.7348873 L84.3905988,1.85398604 C84.4749149,1.83245444 84.5631987,1.83015335 84.6485067,1.84724714 L215.866057,28.1098853 C216.102638,28.1572219 216.284662,28.345418 216.323183,28.5821013 C216.361538,28.8189489 216.248125,29.0544816 216.038657,29.1733163 L147.035253,68.321879 C146.947134,68.3720098 146.848104,68.3974862 146.748578,68.3974862 L146.748578,68.3974862 Z" id="Fill-18" fill="#93820A"></path>
                    <path d="M41.8833715,19.7785521 L42.0389428,20.3326211 C39.5712939,21.0176877 39.9287277,24.0797774 40.5157987,26.6709661 L40.5544849,26.8425614 C40.6080503,27.082532 40.7133627,27.2427863 40.8859625,27.347157 C41.2731549,27.5813748 41.9103195,27.494591 42.1235895,27.441666 C42.9088857,27.1888751 56.3419157,22.8667757 58.1115602,22.4695094 C58.4797402,22.3868346 58.7278938,22.2352916 58.8490774,22.0189894 C59.0494519,21.661499 58.8988404,21.168902 58.8971871,21.1641354 C58.8821425,21.1209079 58.8723883,21.0760367 58.8680898,21.0303436 L58.5268579,17.4115551 L58.3039991,16.3596295 C58.2773817,16.2342202 58.2254695,16.1870479 58.1730613,16.1548327 C57.9306941,16.0055908 57.4284351,16.0639398 57.2363268,16.1134132 L42.0389428,20.3326211 L41.8833715,19.7785521 Z M41.5798338,28.6530241 C41.180242,28.6530241 40.7026165,28.5831696 40.2843429,28.33005 C39.8432544,28.0632883 39.5459991,27.635286 39.4246502,27.0922294 L39.3866253,26.9237569 C39.0149735,25.2834104 37.8841469,20.2915302 41.7278001,19.2244832 L56.9355997,15.0024811 C57.0577753,14.9709233 58.0594827,14.7311171 58.7826165,15.1767063 C59.1238484,15.386927 59.3498484,15.7140101 59.436479,16.1226175 L59.6661162,17.2067584 C59.67058,17.2281256 59.6738865,17.2498216 59.6758704,17.2715175 L60.0147877,20.8643366 C60.0867043,21.1138402 60.2535178,21.8769794 59.860043,22.5789754 C59.6618177,22.932521 59.2418909,23.3952039 58.3663268,23.5917825 C56.6332193,23.9808306 42.6048521,28.496057 42.4633334,28.5415857 C42.4532486,28.544873 42.443329,28.5478315 42.4330789,28.5504613 C42.3664527,28.5680482 42.0205917,28.6530241 41.5798338,28.6530241 L41.5798338,28.6530241 Z" id="Fill-20" fill="#93820A"></path>
                    <path d="M198.154105,51.089858 L192.487573,54.5952358 C191.553814,55.1728087 190.618402,55.7852266 189.713741,56.3775923 C187.812497,57.6226449 185.846611,58.9099388 183.757723,59.9661379 L183.711763,59.9894775 C182.501415,60.6010736 182.048588,60.8300318 181.759764,61.9922453 C181.746373,62.0463208 180.403103,67.4540404 180.021366,69.2881713 C179.847775,70.1229729 179.98235,70.4060066 180.027649,70.4727382 C180.060218,70.5205679 180.090638,70.5297723 180.169167,70.5439075 C180.189668,70.5475235 180.207027,70.5508108 180.22108,70.5539337 C180.225047,70.5547555 180.228685,70.5555773 180.232652,70.5565635 C180.702342,70.6698099 181.335043,70.1971008 181.843915,69.8174214 C181.973365,69.7209401 182.096698,69.629061 182.212426,69.549016 L185.009899,67.614459 C185.673681,67.1552277 186.344076,66.6780808 186.992483,66.2165485 C188.790398,64.9371439 190.649318,63.6140187 192.616692,62.494211 C192.887826,62.3398738 193.18723,62.1922755 193.50449,62.0361303 C194.533311,61.5295624 195.699186,60.9552767 196.01843,60.0578527 C196.04108,59.994244 198.265039,53.7288764 198.575851,51.8748575 C198.658844,51.3791375 198.582133,51.162671 198.523442,51.1130332 C198.454171,51.0541911 198.263716,51.0673402 198.154105,51.089858 M180.382768,71.724694 C180.248028,71.724694 180.111303,71.7100657 179.972926,71.6778505 C179.812064,71.6489225 179.374944,71.5673983 179.068761,71.1167139 C178.754642,70.6545241 178.695621,69.9801411 178.88806,69.055104 C179.275087,67.1964829 180.623647,61.7669031 180.636543,61.7151286 C181.052006,60.04306 181.901283,59.6137428 183.187185,58.96385 L183.23298,58.9406748 C185.264004,57.913568 187.202611,56.644354 189.077403,55.4167239 C189.988016,54.8204136 190.929875,54.2037222 191.876199,53.6182599 L197.614152,50.0688327 C197.652673,50.045 197.693839,50.0257695 197.736989,50.0114699 C197.830067,49.9804052 198.668929,49.7231765 199.275343,50.2382913 C199.709818,50.6074515 199.858611,51.2216774 199.717258,52.0638754 C199.383135,54.0577675 197.131567,60.3798405 197.109083,60.4427917 C196.633937,61.779066 195.183371,62.4932249 194.017991,63.0671818 C193.716933,63.2154375 193.432408,63.3554751 193.191694,63.4925542 C191.275571,64.5834339 189.440623,65.889301 187.666184,67.1521048 C187.014636,67.6157739 186.340935,68.0953863 185.670705,68.558891 L182.873232,70.493448 C182.768085,70.5662609 182.656159,70.6499219 182.538613,70.7376919 C181.967578,71.1637218 181.215347,71.724694 180.382768,71.724694" id="Fill-22" fill="#93820A"></path>
                    <g id="Group-26" transform="translate(0.000000, 21.790639)">
                        <mask id="mask-4" fill="white">
                            <use xlink:href="#path-3"></use>
                        </mask>
                        <g id="Clip-25"></g>
                        <path d="M7.68408266,34.0969364 L142.346522,98.278206 C142.363054,98.2859311 142.379091,98.294478 142.394631,98.3038467 C142.516807,98.3755092 145.464726,100.056947 148.900026,97.6661168 C152.027489,95.4896169 153.934519,93.6854001 154.466206,93.1620671 L155.8475,48.5637079 C154.598631,49.3095889 152.433032,50.4831435 151.155562,50.4928409 C148.652699,50.5122358 145.594342,50.4703231 144.132203,49.9708228 C142.646257,49.4631043 5.64876006,3.19070409 2.05259912,1.97605872 C1.87801536,1.95682821 1.64986613,1.92346244 1.40948281,1.86511344 L7.68408266,34.0969364 Z M145.080345,100.09738 C143.292184,100.09738 142.036702,99.4264486 141.825085,99.3054772 L6.92127067,35.0093175 C6.75594514,34.9305875 6.63806803,34.7785513 6.60318435,34.5998883 L0.0291799561,0.829952882 C0.0273613753,0.820584169 0.0255427944,0.811215456 0.0238895391,0.80168238 C-0.0309985369,0.490706868 0.176650329,0.194030969 0.488950256,0.13666815 C0.782733723,0.0832500514 1.0649444,0.25928323 1.14826847,0.537714794 C1.29011778,0.652933523 1.7966752,0.794779119 2.23363058,0.838006687 C2.27744184,0.842280135 2.32125311,0.851648848 2.36308047,0.865784098 C3.76933943,1.34079426 143.008154,48.3700879 144.508318,48.8827372 C145.970953,49.3824019 149.866684,49.3524878 151.146634,49.3424616 C152.221746,49.3340791 154.780324,47.9157875 156.140788,47.0237874 C156.321323,46.9054458 156.552779,46.8970633 156.741416,47.0017627 C156.930052,47.1064622 157.044457,47.3069855 157.037679,47.5216441 L155.615879,93.423898 C155.611581,93.5657436 155.554709,93.7008503 155.456175,93.803413 C155.372851,93.8901969 153.3739,95.9570664 149.563642,98.6087408 C147.921464,99.7515594 146.363601,100.097216 145.080345,100.09738 L145.080345,100.09738 Z" id="Fill-24" fill="#93820A" mask="url(#mask-4)"></path>
                    </g>
                    <path d="M221.197641,30.3998616 C221.197475,30.4003547 221.19731,30.4008478 221.197145,30.4011765 C221.19731,30.4008478 221.197475,30.4003547 221.197641,30.3998616 L221.197641,30.3998616 Z M221.197145,30.4013409 C221.190036,30.4189278 221.181935,30.4361859 221.173338,30.452951 C221.181769,30.4365146 221.189705,30.4194209 221.197145,30.4013409 L221.197145,30.4013409 Z M155.504218,68.3242458 L156.662324,68.7560284 C156.894441,68.8424836 157.045383,69.0661821 157.037613,69.3123985 L155.654334,113.973873 L216.323183,65.9865055 L224.244259,30.5691559 C224.177633,30.6194511 224.111007,30.6689245 224.045042,30.7170829 C223.091775,31.4129975 222.01005,31.0615886 221.293695,30.82885 C221.079598,30.7593243 220.951801,30.7328618 220.883522,30.7228357 L155.504218,68.3242458 Z M155.037339,115.772173 C154.949055,115.772173 154.860275,115.752121 154.778274,115.711194 C154.576742,115.610768 154.452252,115.403177 154.459196,115.17915 L155.868265,69.6886262 L153.951812,68.9741386 C153.742179,68.896066 153.596692,68.7049114 153.578176,68.4831852 C153.559825,68.261459 153.671585,68.0491015 153.865016,67.9376632 L220.283225,29.7389565 C220.650413,29.4095723 221.358668,29.639681 221.653112,29.7353405 C222.375254,29.969887 222.920167,30.1109108 223.360098,29.7897447 C224.02107,29.3071739 224.783386,28.6498847 224.791156,28.6431458 C224.979627,28.4804261 225.251919,28.4562647 225.466676,28.5833175 C225.681269,28.7103704 225.789557,28.9600384 225.735496,29.2024744 L217.408379,66.4348888 C217.379613,66.5632566 217.307365,66.6781466 217.203706,66.7601639 L155.397749,115.647092 C155.293263,115.729767 155.165962,115.772173 155.037339,115.772173 L155.037339,115.772173 Z" id="Fill-27" fill="#93820A"></path>
                    <path d="M8.08205428,46.7278512 L139.970496,104.89638 L139.970496,77.5114684 L4.48936518,28.9637859 L8.08205428,46.7278512 Z M140.549135,106.356091 C140.469449,106.356091 140.389431,106.339819 140.314539,106.306782 L7.33924667,47.6588053 C7.16763877,47.5831982 7.04364462,47.4293541 7.00644638,47.2464176 L3.15237762,28.1899631 C3.11121156,27.9863169 3.18362414,27.7764248 3.34167535,27.6408251 C3.49989188,27.5050609 3.71944418,27.4649562 3.91585091,27.5353038 L140.745377,76.5660502 C140.974849,76.6482319 141.127775,76.8646985 141.127775,77.1072988 L141.127775,105.780819 C141.127775,105.97559 141.028745,106.157047 140.864577,106.263226 C140.769184,106.324862 140.659408,106.356091 140.549135,106.356091 L140.549135,106.356091 Z" id="Fill-29" fill="#93820A"></path>
                    <path d="M156.260219,76.3116815 C156.064804,76.3116815 155.874184,76.2132278 155.765234,76.0350579 C155.599248,75.7635296 155.686043,75.4096552 155.959327,75.2446344 L219.252883,37.0117401 C219.525505,36.8468837 219.881616,36.9331744 220.047768,37.2047027 C220.213755,37.476231 220.126959,37.8301054 219.853676,37.9951262 L156.56012,76.2280205 C156.46638,76.2847259 156.362556,76.3116815 156.260219,76.3116815" id="Fill-31" fill="#93820A"></path>
                    <path d="M213.275423,69.7081362 C213.239878,69.7081362 213.203672,69.7048489 213.167631,69.69811 C212.853512,69.6392679 212.646855,69.3383186 212.706207,69.0261925 L220.091629,30.0799612 C220.150816,29.7678351 220.453527,29.5622165 220.76748,29.621223 C221.081599,29.6800651 221.288255,29.98085 221.228904,30.2931405 L213.843481,69.2393718 C213.791073,69.5155023 213.548045,69.7081362 213.275423,69.7081362" id="Fill-33" fill="#93820A"></path>
                    <path d="M155.914556,87.4721028 C155.724101,87.4721028 155.537614,87.3785801 155.427011,87.2073134 C155.254577,86.9398942 155.332611,86.5840475 155.601595,86.4126165 L217.023006,47.2352902 C217.291825,47.0638592 217.649755,47.1412744 217.82252,47.4088579 C217.994954,47.6762772 217.916755,48.0321239 217.647771,48.2037192 L156.226526,87.3808811 C156.12981,87.4426818 156.021522,87.4721028 155.914556,87.4721028" id="Fill-35" fill="#93820A"></path>
                    <path d="M155.164789,111.674495 C154.99285,111.674495 154.82273,111.598559 154.70849,111.453427 C154.511753,111.203101 154.556225,110.841666 154.808181,110.645909 L213.627864,64.9380972 C213.879655,64.7425048 214.243206,64.7867186 214.440108,65.037044 C214.637011,65.2873694 214.592373,65.6489689 214.340582,65.8445613 L155.520734,111.552373 C155.415091,111.634555 155.289444,111.674495 155.164789,111.674495" id="Fill-37" fill="#93820A"></path>
                    <path d="M155.164937,104.124135 C154.98622,104.124135 154.810149,104.042117 154.696735,103.887452 C154.508595,103.630716 154.565467,103.270924 154.823871,103.083879 L214.618643,59.7844835 C214.876882,59.597438 215.238614,59.653979 215.427085,59.9108789 C215.615226,60.1676145 215.558354,60.527406 215.29995,60.7144515 L155.505177,104.013847 C155.402345,104.088304 155.283145,104.124135 155.164937,104.124135" id="Fill-39" fill="#93820A"></path>
                    <path d="M201.773346,78.8060765 C201.746232,78.8060765 201.718953,78.8042685 201.691509,78.8003238 C201.375076,78.7557813 201.154863,78.4646938 201.199501,78.1501023 L205.867302,45.3438293 C205.912105,45.0290735 206.20688,44.8106345 206.521329,44.8548483 C206.837763,44.8992264 207.057976,45.1903139 207.013173,45.5049054 L202.345537,78.3113428 C202.304702,78.5984856 202.056879,78.8060765 201.773346,78.8060765" id="Fill-41" fill="#93820A"></path>
                    <path d="M171.905784,102.430173 C171.898014,102.430173 171.890078,102.430009 171.881977,102.42968 C171.562899,102.416859 171.314415,102.149112 171.32731,101.831726 L172.807469,65.3682033 C172.820034,65.0585427 173.076454,64.8161067 173.385282,64.8161067 C173.393053,64.8161067 173.400988,64.8162711 173.409089,64.8165998 C173.728167,64.8294202 173.976652,65.0971681 173.963756,65.4145538 L172.483597,101.878076 C172.471032,102.187573 172.214612,102.430173 171.905784,102.430173" id="Fill-43" fill="#93820A"></path>
                    <path d="M127.066376,100.40967 C126.746801,100.40967 126.487736,100.152113 126.487736,99.8343985 L126.487736,72.2759195 C126.487736,71.9580407 126.746801,71.7006477 127.066376,71.7006477 C127.38595,71.7006477 127.645015,71.9580407 127.645015,72.2759195 L127.645015,99.8343985 C127.645015,100.152113 127.38595,100.40967 127.066376,100.40967" id="Fill-45" fill="#93820A"></path>
                    <path d="M130.345938,101.856035 L130.335027,101.856035 C130.015452,101.849954 129.761347,101.58763 129.767299,101.269915 L130.28824,73.6269536 C130.294191,73.3092392 130.556398,73.0600643 130.877625,73.0625298 C131.197034,73.0684468 131.451305,73.3307708 131.445188,73.6484852 L130.924247,101.291611 C130.91846,101.605545 130.660387,101.856035 130.345938,101.856035" id="Fill-47" fill="#93820A"></path>
                    <path d="M81.7949549,80.4432508 C81.4920786,80.4432508 81.2374772,80.209033 81.2179688,79.9044677 L79.6610983,55.5323371 C79.6409286,55.2152802 79.8829652,54.9419439 80.2018781,54.9217272 C80.5224443,54.9011818 80.7957274,55.1423028 80.8160625,55.4593598 L82.372933,79.8314904 C82.3931027,80.1485473 82.1510661,80.4218836 81.8321532,80.4421003 C81.8195884,80.4429221 81.807189,80.4432508 81.7949549,80.4432508" id="Fill-49" fill="#93820A"></path>
                    <path d="M87.5301637,82.9726224 C87.2203437,82.9726224 86.9635931,82.7287072 86.9521857,82.4183891 L86.0428952,57.8041513 C86.0313225,57.4866013 86.280468,57.2196752 86.599877,57.2081697 C86.9280481,57.1963356 87.1877745,57.4445243 87.1995127,57.7619099 L88.1088031,82.3763121 C88.1203759,82.6936978 87.8712303,82.9606239 87.5518214,82.9722937 C87.544547,82.9724581 87.5372727,82.9726224 87.5301637,82.9726224" id="Fill-51" fill="#93820A"></path>
                    <path d="M39.9453099,61.9857036 C39.6389617,61.9857036 39.3835337,61.7467193 39.3679931,61.4393597 L38.3204906,40.7110009 C38.3042887,40.3937796 38.5501277,40.1235662 38.869206,40.107623 C39.1836552,40.0915154 39.4600794,40.3359237 39.476116,40.6533094 L40.5236186,61.3815038 C40.5398205,61.6988895 40.2939814,61.9691029 39.9749031,61.9850462 C39.9649836,61.9855393 39.9552294,61.9857036 39.9453099,61.9857036" id="Fill-53" fill="#93820A"></path>
                    <path d="M34.3541162,59.5198585 C34.0545463,59.5198585 33.8009369,59.2902428 33.7777914,58.9884717 L32.2033963,38.5339422 C32.1790935,38.2170497 32.4176582,37.9405905 32.7364059,37.916429 C33.0546575,37.8914458 33.3329004,38.1292796 33.3575339,38.4461722 L34.9317636,58.9007016 C34.9562317,59.2174298 34.7175017,59.493889 34.3989194,59.5182148 C34.3838748,59.5193654 34.3689955,59.5198585 34.3541162,59.5198585" id="Fill-55" fill="#93820A"></path>
                    <path d="M11.1652762,49.2926102 C10.8855454,49.2926102 10.6393757,49.0904432 10.5944072,48.8069164 L7.56828866,29.7501332 C7.51836035,29.4363635 7.73394484,29.1416599 8.04955128,29.0921866 C8.36581902,29.0425488 8.66142107,29.257043 8.71134938,29.5706484 L11.7374679,48.627596 C11.7873962,48.9413657 11.5718117,49.2359048 11.2562053,49.2855426 C11.22562,49.2903091 11.1952001,49.2926102 11.1652762,49.2926102" id="Fill-57" fill="#93820A"></path>
                    <path d="M13.052153,50.1248642 C12.7672971,50.1248642 12.5191435,49.9156296 12.4796307,49.6271719 L9.86633007,30.5621704 C9.82334543,30.2474146 10.045047,29.9574776 10.3616454,29.9145787 C10.6762598,29.872173 10.9697127,30.0919268 11.0130279,30.4068471 L13.6263286,49.4718485 C13.6693132,49.7866043 13.447777,50.0767057 13.1311786,50.1196045 C13.1045612,50.1230562 13.0782745,50.1248642 13.052153,50.1248642" id="Fill-59" fill="#93820A"></path>
                </g>
            </g>
        </g>
    </g>
</svg>