<?xml version="1.0" encoding="UTF-8" standalone="no"?>
<svg width="199px" height="146px" viewBox="0 0 199 146" version="1.1" xmlns="http://www.w3.org/2000/svg" xmlns:xlink="http://www.w3.org/1999/xlink">
    <!-- Generator: Sketch 46 (44423) - http://www.bohemiancoding.com/sketch -->
    <title>Caja plastica 20</title>
    <desc>Created with Sketch.</desc>
    <defs>
        <polygon id="path-1" points="7.61545152e-05 0.0543832338 198.935038 0.0543832338 198.935038 58.917997 7.61545152e-05 58.917997"></polygon>
    </defs>
    <g id="7-Productos" stroke="none" stroke-width="1" fill="none" fill-rule="evenodd">
        <g id="7.1-Limon-mexicano" transform="translate(-850.000000, -2797.000000)">
            <g id="Group-61" transform="translate(812.000000, 2747.000000)">
                <g id="Group-22">
                    <g id="Caja-plastica-20" transform="translate(38.000000, 50.000000)">
                        <path d="M20.0497805,63.0001277 C20.6701668,62.7940325 189.406359,44.4524237 189.406359,44.4524237 L178.446851,119.467189 L27.0806086,142.342676 C27.0806086,142.342676 20.0497805,69.5947423 20.0497805,66.297435 L20.0497805,63.0001277 Z" id="Fill-1" fill="#CCBA15"></path>
                        <path d="M179.9337,80.0692768 L168.482863,81.5883386 L169.831472,67.1133346 L181.605819,65.7045498 L179.9337,80.0692768 Z M177.637945,99.7898891 L166.647689,101.286939 L168.096989,85.7296651 L179.446485,84.2533329 L179.854229,80.7520885 L177.637945,99.7898891 Z M175.485324,118.282131 L164.919702,119.833348 L166.346049,104.523604 L177.263765,103.004327 L175.485324,118.282131 Z M138.218622,105.159154 L139.124624,89.4980779 L165.239314,86.1012838 L163.709894,101.687044 L138.218622,105.159154 Z M161.885331,120.278988 L137.133758,123.913169 L138.027634,108.464662 L163.390931,104.934931 L161.885331,120.278988 Z M167.070374,67.4437343 L165.645326,81.9644893 L139.358704,85.4512747 L140.214469,70.6566612 L167.070374,67.4437343 Z M109.63408,67.8274382 L109.827667,55.6768858 L108.33311,55.8385248 L168.850764,49.2995884 L167.738183,60.6391401 L140.59991,63.9964415 L141.277679,52.2787969 L137.90334,52.6435099 L137.093915,64.4302126 L109.63408,67.8274382 Z M135.615815,85.9478454 L109.289349,89.4400259 L109.530358,74.3277453 L136.6368,71.0846055 L135.615815,85.9478454 Z M134.259194,105.698455 L108.97515,109.142079 L109.226336,93.3869107 L135.338211,89.9905483 L134.259194,105.698455 Z M132.966018,124.525197 L108.672644,128.092046 L108.921232,112.515134 L134.030961,109.020796 L132.966018,124.525197 Z M105.884479,68.2912064 L76.7646506,71.8938798 L76.3763949,59.2914286 L106.248915,56.063611 L105.884479,68.2912064 Z M105.238108,89.9773841 L77.4350576,93.6653011 L76.9595363,78.2243472 L105.690892,74.7869815 L105.238108,89.9773841 Z M104.649336,109.731446 L78.0413688,113.355485 L77.5532882,97.5068723 L105.120743,93.9210317 L104.649336,109.731446 Z M104.082002,128.76601 L78.631223,132.502915 L78.1474732,116.797814 L104.548212,113.123708 L104.082002,128.76601 Z M46.8661457,137.166925 L45.8414798,121.29371 L73.8474275,117.396245 L73.9983557,133.183137 L46.8661457,137.166925 Z M44.5827344,101.795379 L73.661853,98.0129385 L73.8140804,113.931256 L45.6141131,117.77218 L44.5827344,101.795379 Z M44.3410761,98.0550207 L43.3207409,82.2489223 L73.4760619,78.6410695 L73.6250412,94.1707198 L44.3410761,98.0550207 Z M32.7362795,139.241688 L31.3335353,123.31258 L42.9708127,121.693168 L44.0125853,137.586021 L32.7362795,139.241688 Z M29.6105287,103.742816 L41.6912795,102.171529 L42.7395483,118.163653 L31.15489,119.74163 L31.3335353,123.31258 L29.6105287,103.742816 Z M27.8808095,84.0962258 L40.4082817,82.5972339 L41.4465897,98.4391563 L29.2855026,100.052094 L27.8808095,84.0962258 Z M26.17426,64.7155087 L39.1443394,63.3142772 L40.0048682,76.441354 L27.3446571,78.0076775 L26.17426,64.7155087 Z M73.293952,59.624418 L73.4154308,72.3082282 L42.9227409,76.0805256 L42.0778029,62.9972575 L73.293952,59.624418 Z M184.871671,37.6503544 L182.4068,58.8244233 L170.465934,60.3016187 L171.517883,49.0112709 L183.70214,47.6948514 L184.871671,37.6503544 C184.871671,37.6503544 182.894447,38.4257471 180.791197,39.7110905 C178.687947,40.9964339 173.559853,44.4776083 169.971357,44.8744765 C166.382861,45.2713446 43.7494896,58.4862546 43.7494896,58.4862546 C43.7494896,58.4862546 43.0225657,58.6237233 41.7956517,58.6258814 L41.7928367,58.579483 C41.7928367,58.579483 40.9078388,58.6101275 39.927347,58.5287685 C38.8398845,58.4163333 37.571828,58.1895207 36.1887888,57.7654609 C28.3790674,55.6315664 27.7894297,54.4368617 25.2864471,54.6325982 C25.2864471,54.6325982 10.982483,55.7595397 10.4300902,55.7247948 C9.87748085,55.6896184 8.28461469,55.3102306 7.93750152,54.9655876 L17.7279118,143.499118 C17.7279118,143.499118 17.7679716,145.054436 21.6964351,144.554628 C22.5773187,144.442624 31.2783176,143.145412 44.2490467,141.198405 L44.3646789,141.181141 C44.9941598,141.086618 45.6336016,140.990584 46.2825712,140.893039 L47.0989259,140.770461 C54.9584515,139.590216 64.1659368,138.204306 74.0323524,136.7174 L74.1904264,136.693445 C75.6860663,136.468143 77.1966473,136.240467 78.7197877,136.010849 L78.7390597,136.007828 C86.913001,134.775357 95.4502959,133.486777 103.979795,132.198196 L104.070959,132.184384 C105.553389,131.960593 107.035604,131.736586 108.515436,131.512795 L108.618293,131.497257 C116.839006,130.254859 124.989994,129.02174 132.737569,127.848185 L132.789322,127.840416 C134.145727,127.634968 135.489572,127.431247 136.819559,127.229899 L136.942987,127.211124 C146.003442,125.838163 154.402368,124.563179 161.571998,123.471845 L161.640641,123.461486 C175.865568,121.2963 185.234592,119.856439 185.29977,119.813278 C185.569362,119.633943 186.558083,119.992397 187.007619,115.692669 C187.456939,111.39294 197.286326,35.585518 197.286326,35.585518 L184.871671,37.6503544 Z" id="Fill-3" fill="#E2D100"></path>
                        <path d="M15.2023874,12.2470395 L2.05777693,13.5699333 C2.05777693,13.5699333 0.430697497,14.0818262 0.815921654,15.6608823 C1.20136235,17.2397225 5.07785637,33.4202452 7.13779869,51.4908011 C7.13779869,51.4908011 6.10750272,55.6554346 10.9571262,55.4976801 C15.8067497,55.3401414 25.611235,53.8167634 27.0871697,54.6573296 C34.2561502,56.7584216 37.9459869,58.9123861 44.7988194,58.1769176 C56.4482231,57.2312536 170.218407,44.6341975 170.218407,44.6341975 C170.218407,44.6341975 172.497704,44.4880965 176.864877,41.9279842 C181.232267,39.3676561 183.972577,37.2767071 186.541604,37.1060041 C189.798361,36.6482786 201.355519,36.2330669 197.336325,33.3900323 C193.317565,30.5467819 158.635048,2.70731392 158.635048,2.70731392 C158.635048,2.70731392 157.795956,0.892165583 153.948262,0.973740434 C150.101001,1.05531528 144.312894,1.82962895 144.312894,1.82962895 C144.312894,1.82962895 142.783908,1.79099959 139.173541,4.89645488 C138.376675,5.59480466 28.1902231,14.4493447 24.5382807,14.6701147 C20.8861219,14.8906689 19.1893166,12.0597195 15.2023874,12.2470395" id="Fill-5" fill="#F9F44E"></path>
                        <path d="M4.39506333,16.6396726 C4.39506333,16.6396726 11.3840992,38.5066961 10.7539687,50.7817689 C10.7539687,50.7817689 14.2883299,50.3184324 16.2291754,51.285677 C17.4086672,51.9419446 17.1304137,52.7708573 17.1304137,52.7708573 L24.4087467,52.3910379 C24.4087467,52.3910379 26.0031286,52.2181769 28.0479132,53.0473054 C30.0929143,53.8762181 38.6882418,56.2941139 38.7923974,56.2595849 C38.8961199,56.2250558 40.3519164,56.4676223 42.6392255,56.2600165 C44.9269676,56.0524106 168.208225,43.0496384 168.208225,43.0496384 C168.208225,43.0496384 170.558331,42.6279525 172.880286,41.4045456 C177.514669,38.9624794 181.856074,35.6709989 184.466244,35.5913663 C186.357285,35.4321012 189.020724,35.1135708 189.020724,35.1135708 C189.020724,35.1135708 186.304017,32.857314 191.284647,32.3529743 L156.371948,3.80825069 C156.371948,3.80825069 150.551793,4.11037977 151.014106,2.44305888 L145.642838,2.77216376 C145.642838,2.77216376 144.01381,2.8597812 142.693134,3.75926262 C141.372458,4.65874404 140.712012,5.7556884 139.58947,5.82150937 C138.466712,5.88733035 23.8065497,15.6517105 23.8065497,15.6517105 C23.8065497,15.6517105 22.6892048,15.9184473 21.578356,15.4861869 C20.4672908,15.0541423 17.3506346,13.0555585 15.3452603,13.1364859 C13.3559099,13.3067573 8.57038215,13.9466235 8.57038215,13.9466235 C8.57038215,13.9466235 10.7342635,16.2807864 4.39506333,16.6396726" id="Fill-7" fill="#F9F44E"></path>
                        <path d="M7.11153243,26.2731877 C7.11153243,26.2731877 9.72451719,26.2576496 9.58788063,24.3052484 C9.45124407,22.3528471 8.92288716,14.7309937 8.92288716,14.7309937" id="Fill-9" fill="#F9F44E"></path>
                        <path d="M151.032403,2.84353097 L151.491251,10.5286156 C151.491251,10.5286156 151.376052,13.377477 155.912992,11.7664816 C156.165044,11.6769219 156.37184,3.80840175 156.37184,3.80840175" id="Fill-11" fill="#F9F44E"></path>
                        <path d="M186.824058,35.3609929 L156.393082,8.55307994" id="Fill-13" fill="#F9F44E"></path>
                        <path d="M151.386403,8.21974524 L9.39892807,21.5926256" id="Fill-15" fill="#F9F44E"></path>
                        <path d="M156.094236,10.5583106 C156.038585,11.3332717 155.977304,11.8624292 155.912992,11.8853047 C151.375835,13.4963001 151.491251,10.6474387 151.491251,10.6474387 L151.353532,8.34176223 L16.5151161,21.0413264 L9.39918792,21.7139952 L9.58779402,24.4238772 C9.72443058,26.375631 7.11317813,26.3920323 7.11144581,26.3920323 C8.99772329,33.7950579 11.1130998,43.9051601 10.7538604,50.9005272 C10.7538604,50.9005272 14.2882217,50.4374065 16.2290671,51.4044354 C17.4083424,52.0607029 17.1303054,52.8896156 17.1303054,52.8896156 L24.4086384,52.5097962 C24.4086384,52.5097962 26.0030203,52.3369352 28.0478049,53.1660637 C30.0925894,53.9949764 38.6883501,56.4128722 38.7920726,56.3783432 C38.8962282,56.3438141 40.3518082,56.5863806 42.6393337,56.3787748 C44.9268593,56.171169 168.208117,43.1686125 168.208117,43.1686125 C168.208117,43.1686125 170.558439,42.7469267 172.880395,41.5233039 C177.514561,39.0812377 181.855966,35.7897572 184.466136,35.7101247 C185.202804,35.6481882 186.05597,35.5618656 186.824037,35.4798591 L156.206836,8.55670549 C156.206836,9.28095205 156.15465,9.9851286 156.094236,10.5583106" id="Fill-17" fill="#CCBA15"></path>
                        <g id="Group-21" transform="translate(7.145811, 34.474654)" fill="#93820A">
                            <path d="M175.364798,24.1252442 L175.366964,24.1252442 L175.364798,24.1252442 Z M165.173356,14.9966299 L164.265838,24.7372714 L174.680533,23.4486908 L175.798094,13.8485394 L165.173356,14.9966299 Z M163.423932,26.3577622 C163.22818,26.3577622 163.038708,26.28223 162.896441,26.1447612 C162.731655,25.9854961 162.64807,25.7604099 162.669291,25.5325182 L163.721241,14.2423863 C163.754588,13.8847949 164.035873,13.6001462 164.394246,13.561301 L176.57872,12.2448814 C176.808468,12.2204953 177.036052,12.3005595 177.198456,12.4637092 C177.360861,12.6266431 177.439898,12.8545348 177.413264,13.082858 L176.117707,24.2122142 C176.07743,24.558152 175.804807,24.8317946 175.458343,24.8747401 L163.517477,26.3519355 C163.486295,26.35582 163.455114,26.3577622 163.423932,26.3577622 L163.423932,26.3577622 Z M160.696181,25.9399609 L160.698347,25.9399609 L160.696181,25.9399609 Z M134.955672,18.2615662 L134.367117,28.4361945 L160.000872,25.2649182 L160.964041,15.4513342 L134.955672,18.2615662 Z M103.532944,21.6568496 L103.36361,32.2717231 L129.338415,29.0581488 L130.043685,18.7924502 L103.532944,21.6568496 Z M102.592079,33.8835817 C102.406071,33.8835817 102.225477,33.8156027 102.085809,33.6904349 C101.922538,33.5443339 101.830725,33.3350017 101.83419,33.1163897 L102.027993,20.9658373 C102.034273,20.584723 102.324003,20.2679191 102.704246,20.2269159 L130.772125,17.1941873 C130.774723,17.1937557 130.777322,17.1935399 130.780137,17.1933241 L134.154475,16.8286112 C134.156424,16.8283954 134.158589,16.8281795 134.160755,16.8279637 L161.727343,13.8494027 C161.953844,13.8245849 162.179911,13.9035701 162.3421,14.0634827 C162.504288,14.2233953 162.58549,14.4476182 162.563403,14.6739992 L161.450389,26.0135509 C161.415959,26.3650997 161.14117,26.6460797 160.78951,26.6894568 L133.651237,30.0467583 C133.427984,30.0752447 133.204299,30.0016547 133.040162,29.8486479 C132.875808,29.6956411 132.788542,29.4776766 132.801318,29.2538852 L133.427768,18.4266582 L131.574404,18.6269266 L130.80807,29.7826111 C130.783168,30.1434396 130.505348,30.4360732 130.145242,30.4805293 L102.685408,33.877755 C102.654226,33.8816395 102.623044,33.8835817 102.592079,33.8835817 L102.592079,33.8835817 Z M70.1135033,25.2677237 L70.4547699,36.3431282 L98.1042933,32.9223797 L98.4236893,22.2088826 L70.1135033,25.2677237 Z M69.7226491,37.9500233 C69.5427046,37.9500233 69.3675239,37.8863604 69.2293716,37.7683142 C69.0676164,37.6301981 68.9716893,37.4301455 68.9651931,37.2177919 L68.577154,24.6153407 C68.5648112,24.2210622 68.8593052,23.8837567 69.2529744,23.8412428 L99.1254946,20.6136411 C99.3446328,20.5899024 99.5607394,20.6615501 99.7216284,20.8098092 C99.8825174,20.9580682 99.9710822,21.1684795 99.964586,21.3868757 L99.5999331,33.6146869 C99.5891061,33.9871688 99.3069548,34.2957721 98.9360223,34.3417389 L69.8157612,37.9441965 C69.784796,37.948081 69.7533977,37.9500233 69.7226491,37.9500233 L69.7226491,37.9500233 Z M35.8389472,28.9711788 L36.5853596,40.5332269 L65.6094771,36.9424228 L65.50229,25.7660209 L35.8389472,28.9711788 Z M35.8807394,42.1366691 C35.7051257,42.1366691 35.5340593,42.0760275 35.3972062,41.9631607 C35.2365337,41.8304397 35.1377916,41.6375087 35.1241496,41.4299028 L34.2796447,28.3466348 C34.25366,27.9430767 34.550969,27.5906647 34.9543825,27.5470718 L66.170315,24.174448 C66.3840397,24.1513568 66.595599,24.21912 66.7556219,24.360689 C66.9154282,24.5024739 67.0078906,24.7049004 67.0098395,24.9181172 L67.1315348,37.6017116 C67.135216,37.9858472 66.849167,38.3112834 66.467191,38.358545 L35.974068,42.1310581 C35.9428863,42.1349426 35.9117046,42.1366691 35.8807394,42.1366691 L35.8807394,42.1366691 Z M19.9522943,30.6877035 L20.9890865,42.4625369 L32.1599374,41.0805122 L31.3975011,29.4509166 L19.9522943,30.6877035 Z M20.3026556,44.0640368 C20.1300734,44.0640368 19.9618221,44.0053374 19.8262682,43.8959235 C19.6662454,43.7670871 19.5657709,43.5789038 19.5477982,43.3745351 L18.3776175,30.0825821 C18.3414554,29.6729814 18.6404967,29.3097791 19.0508395,29.2655388 L32.0207024,27.8640915 C32.2274978,27.8416476 32.4319113,27.9044473 32.5897688,28.0367367 C32.7482758,28.1692419 32.8452856,28.3604464 32.8587111,28.5658942 L33.7190234,41.6931868 C33.7452247,42.0922129 33.4546284,42.4426827 33.0561953,42.4918866 L20.3962008,44.05821 C20.3648025,44.0620945 20.3338373,44.0640368 20.3026556,44.0640368 L20.3026556,44.0640368 Z M172.891698,45.3700976 L172.893863,45.3700976 L172.891698,45.3700976 Z M163.487378,33.0913561 L162.283417,46.015359 L172.206783,44.6989395 L173.700257,31.8694598 L163.487378,33.0913561 Z M161.440861,47.6442663 C161.246409,47.6442663 161.057803,47.5695973 160.915752,47.4336392 C160.74945,47.274374 160.664783,47.0482088 160.68622,46.8192382 L162.034613,32.3442341 C162.067744,31.9900957 162.344482,31.7067417 162.699174,31.6642279 L174.473737,30.2554431 C174.703702,30.2282515 174.934534,30.3070209 175.098671,30.4703864 C175.263241,30.6335361 175.343577,30.8627226 175.316726,31.0925565 L173.644607,45.4572834 C173.604547,45.8006316 173.335604,46.0731951 172.991739,46.1189461 L161.540903,47.6377922 C161.507555,47.6421083 161.474208,47.6442663 161.440861,47.6442663 L161.440861,47.6442663 Z M133.892895,36.6320931 L133.126344,49.882827 L157.907799,46.5958784 L159.182569,33.6064862 L133.892895,36.6320931 Z M132.316919,51.507634 C132.126797,51.507634 131.942522,51.4364179 131.801338,51.3058549 C131.635902,51.1526323 131.54712,50.9338046 131.560329,50.7087184 L132.416094,35.9138891 C132.437315,35.5487446 132.71795,35.2511474 133.082387,35.2075545 L159.938292,31.9944118 C160.166092,31.9676518 160.394541,32.0444789 160.558462,32.2046073 C160.722816,32.3645199 160.805317,32.5902535 160.782797,32.8179293 L159.357749,47.3389002 C159.323536,47.6882909 159.052428,47.9677603 158.703583,48.0141587 L132.41696,51.500944 C132.383613,51.5054759 132.35005,51.507634 132.316919,51.507634 L132.316919,51.507634 Z M128.573813,51.2486662 L128.575979,51.2486662 L128.573813,51.2486662 Z M103.235635,40.2999401 L103.019095,53.8765418 L127.859882,50.5813926 L128.776495,37.2443361 L103.235635,40.2999401 Z M102.247348,55.4961694 C102.062639,55.4961694 101.883128,55.4290536 101.74346,55.3051807 C101.578673,55.1590797 101.485994,54.9486684 101.489675,54.7289774 L101.730467,39.616481 C101.736747,39.2388196 102.021713,38.9235263 102.398059,38.8786386 L129.504718,35.6354988 C129.728187,35.609602 129.953388,35.6829762 130.117092,35.8379252 C130.280796,35.9930901 130.366546,36.2125653 130.351171,36.4372199 L129.32997,51.300244 C129.305285,51.6584827 129.030929,51.9500373 128.673855,51.9972989 L102.347389,55.4894794 C102.314042,55.4940114 102.280478,55.4961694 102.247348,55.4961694 L102.247348,55.4961694 Z M70.6964282,44.1928733 L71.1249603,58.1072121 L97.4579222,54.6141683 L97.8654499,40.942396 L70.6964282,44.1928733 Z M70.393056,59.7214446 C70.2144108,59.7214446 70.0405294,59.6586449 69.9025936,59.5418936 C69.7393226,59.4037774 69.6423128,59.2028616 69.6356001,58.989429 L69.1600789,43.5484751 C69.1479527,43.1574337 69.4374663,42.8220705 69.8272378,42.7752405 L98.5588101,39.3378748 C98.7772987,39.3115464 98.9975196,39.3818993 99.1603575,39.5303742 C99.3231953,39.6786332 99.4130593,39.8905552 99.4065631,40.1102462 L98.9537786,55.3006488 C98.942735,55.6705411 98.6644815,55.9780653 98.296364,56.0268376 L70.4930974,59.7149704 C70.4597503,59.7192865 70.4264032,59.7214446 70.393056,59.7214446 L70.393056,59.7214446 Z M37.0812356,48.2146429 L38.0034782,62.5006005 L65.8186545,58.810957 L65.6843999,44.7925995 L37.0812356,48.2146429 Z M37.2992911,64.1113801 C37.1251931,64.1113801 36.9549929,64.0513859 36.8187894,63.9400297 C36.6563847,63.8070929 36.5565598,63.6132987 36.5429178,63.404398 L35.5223662,47.5982996 C35.4965979,47.1981943 35.7891431,46.8477246 36.1884423,46.7998156 L66.3439799,43.1921786 C66.5572715,43.1664976 66.772512,43.232966 66.9347002,43.3745351 C67.0964554,43.5163199 67.1900005,43.7200413 67.1921659,43.9347687 L67.3409287,59.4644191 C67.3443934,59.8457491 67.0624587,60.1698904 66.6830811,60.2201734 L37.3993324,64.1046901 C37.3659853,64.1090062 37.3326382,64.1113801 37.2992911,64.1113801 L37.2992911,64.1113801 Z M21.6579777,50.0597883 L22.9294989,64.5000475 L33.6023085,63.084357 L32.662093,48.743153 L21.6579777,50.0597883 Z M22.2437176,66.1084533 C22.0724347,66.1084533 21.9050495,66.0504013 21.7699287,65.9424981 C21.6081736,65.8134458 21.506833,65.6243993 21.4888602,65.4191674 L20.0837339,49.4630834 C20.0480049,49.0569356 20.3422824,48.6956755 20.7485109,48.6471191 L33.2759831,47.148343 C33.482562,47.1235253 33.6902236,47.1845985 33.8506795,47.3171037 C34.0107024,47.4496089 34.1090114,47.6418925 34.1224369,47.8490667 L35.1609614,63.6905574 C35.1869461,64.0872097 34.900031,64.4361688 34.504846,64.4886098 L22.343759,66.1017633 C22.3104119,66.1060794 22.2768482,66.1084533 22.2437176,66.1084533 L22.2437176,66.1084533 Z M170.596161,65.0909257 L170.598109,65.0909257 L170.596161,65.0909257 Z M161.753761,51.7012124 L160.44846,65.7107219 L169.910812,64.4219256 L171.540057,50.4283858 L161.753761,51.7012124 Z M159.605687,67.3430822 C159.411451,67.3430822 159.223495,67.2688447 159.081445,67.1333182 C158.914492,66.9740531 158.829609,66.7472405 158.85083,66.5178382 L160.300347,50.9605646 C160.333044,50.6092316 160.605668,50.3271725 160.956895,50.2814216 L172.306608,48.8050894 C172.538955,48.7755239 172.770652,48.8529985 172.936738,49.0161482 C173.103041,49.1795137 173.18446,49.4102108 173.157609,49.6411237 L171.348853,65.1778957 C171.309226,65.5203806 171.041366,65.7925126 170.698584,65.8391268 L159.70811,67.3361763 C159.673897,67.3407083 159.639684,67.3430822 159.605687,67.3430822 L159.605687,67.3430822 Z M132.803267,55.4668198 L131.986479,69.5874696 L155.971934,66.3203752 L157.350426,52.2741786 L132.803267,55.4668198 Z M131.176837,71.2152979 C130.987365,71.2152979 130.80309,71.1442976 130.662339,71.0145979 C130.49582,70.8611594 130.407039,70.6419001 130.420031,70.4163823 L131.32625,54.7555216 C131.347254,54.3931825 131.623775,54.0968802 131.984747,54.0500502 L158.099437,50.6532561 C158.328752,50.6239065 158.558501,50.6996545 158.724587,50.8595671 C158.890673,51.0196956 158.974257,51.2465082 158.951737,51.4756947 L157.422317,67.0614547 C157.387887,67.4095505 157.118295,67.6888041 156.770533,67.7362816 L131.279261,71.2083921 C131.245047,71.212924 131.210834,71.2152979 131.176837,71.2152979 L131.176837,71.2152979 Z M102.931613,59.3524155 L102.704896,73.5755734 L126.503477,70.33416 L127.47704,56.1597744 L102.931613,59.3524155 Z M101.933149,75.1984381 C101.748873,75.1984381 101.569795,75.1315381 101.430343,75.0080968 C101.264907,74.8619958 101.171795,74.6511529 101.175476,74.4310303 L101.426446,58.6758622 C101.432509,58.3012221 101.713361,57.9874395 102.086242,57.938883 L128.198117,54.5425206 C128.423968,54.5136025 128.649819,54.5861135 128.815255,54.7412784 C128.980908,54.8962274 129.06774,55.1172133 129.052366,55.3431626 L127.973565,71.0508533 C127.94888,71.4082289 127.67604,71.699136 127.319832,71.7476925 L102.035572,75.1913165 C102.001359,75.1960643 101.967145,75.1984381 101.933149,75.1984381 L101.933149,75.1984381 Z M71.2899635,63.4682767 L71.7312715,77.7943743 L96.8689342,74.3703887 L97.2948678,60.0855101 L71.2899635,63.4682767 Z M70.9995838,79.4116281 C70.8215881,79.4116281 70.6477067,79.3490442 70.510204,79.2329404 C70.3462835,79.0946084 70.248624,78.8934768 70.2421279,78.6793967 L69.7538308,62.8310002 C69.7419211,62.4429801 70.0271039,62.1089117 70.4131942,62.0586288 L97.9806491,58.4730041 C98.2010865,58.4449492 98.4226066,58.5133599 98.5871768,58.6618347 C98.751747,58.8103096 98.8429102,59.0230948 98.8361975,59.2442964 L98.3647905,75.054711 C98.353747,75.4235243 98.0770092,75.7306169 97.7099744,75.7804682 L71.1022236,79.4047223 C71.0680103,79.4092543 71.0335805,79.4116281 70.9995838,79.4116281 L70.9995838,79.4116281 Z M38.342796,67.7537619 L39.2760822,82.2147385 L66.0079102,78.5738674 L65.870191,64.1731007 L38.342796,67.7537619 Z M38.5721115,83.8283236 C38.3984467,83.8283236 38.228463,83.768761 38.0924761,83.6578365 C37.9296382,83.5251155 37.8293803,83.3308897 37.8157383,83.1215574 L36.7843596,67.144756 C36.7588079,66.7474563 37.0468058,66.398713 37.4426404,66.3471352 L66.521759,62.5649108 C66.737216,62.5370718 66.9535392,62.6020295 67.1172432,62.7438144 C67.2805141,62.8855992 67.3755751,63.0906154 67.3777405,63.3066377 L67.5301844,79.2249555 C67.5336491,79.6052065 67.2530136,79.9289163 66.8747187,79.980494 L38.6747514,83.8214178 C38.6407546,83.8261655 38.6063248,83.8283236 38.5721115,83.8283236 L38.5721115,83.8283236 Z M23.3931104,69.6981783 L24.7917405,84.1876414 L34.8952671,82.8114435 L33.9457405,68.3254333 L23.3931104,69.6981783 Z M24.1128885,85.7977736 C23.9431213,85.7977736 23.7770354,85.7410165 23.6425642,85.6348397 C23.480809,85.5072981 23.3781692,85.3195464 23.3584641,85.1149619 L21.8143194,69.1159324 C21.7749091,68.7106478 22.0652889,68.3474455 22.4704347,68.2945729 L34.5511855,66.7232859 C34.7599298,66.6969575 34.9688906,66.7563043 35.1306458,66.8888095 C35.292401,67.0213147 35.3920092,67.2146773 35.4054347,67.4231464 L36.4537035,83.4154858 C36.4796882,83.8110591 36.1942889,84.1593708 35.8001866,84.2131066 L24.2155283,85.7908678 C24.181315,85.7956155 24.1468852,85.7977736 24.1128885,85.7977736 L24.1128885,85.7977736 Z M160.003254,70.4899723 L158.721555,84.2469882 L167.757541,82.9202099 L169.356038,69.1882276 L160.003254,70.4899723 Z M157.8777,85.8897071 C157.685196,85.8897071 157.498106,85.8163329 157.356489,85.6825329 C157.187588,85.5230519 157.101622,85.2951603 157.123059,85.0644632 L158.549406,69.7547196 C158.581887,69.4057605 158.85083,69.1249963 159.199242,69.0764398 L170.116958,67.5571622 C170.349955,67.5254386 170.583818,67.6014025 170.751419,67.7649838 C170.919238,67.9283493 171.001739,68.1599097 170.974672,68.3923333 L169.196231,83.6699217 C169.156604,84.0096011 168.893076,84.2804382 168.553758,84.3302895 L157.988135,85.8815065 C157.951324,85.8869017 157.914295,85.8897071 157.8777,85.8897071 L157.8777,85.8897071 Z M131.706493,74.4277932 L130.902048,88.3317733 L154.146937,84.918578 L155.501393,71.1164585 L131.706493,74.4277932 Z M130.091973,89.9693129 C129.904017,89.9693129 129.721041,89.8996074 129.58029,89.7712026 C129.412039,89.61798 129.322175,89.3974257 129.335384,89.1706131 L130.229043,73.7218902 C130.249614,73.3621408 130.522671,73.0673491 130.880611,73.0174978 L156.244341,69.487767 C156.474306,69.4551802 156.706437,69.5302809 156.873822,69.6908409 C157.04164,69.8509693 157.126091,70.0788609 157.103571,70.3093423 L155.597754,85.653399 C155.563973,85.9986894 155.298279,86.2766482 154.953764,86.3269311 L130.202409,89.9613281 C130.165597,89.9667232 130.128569,89.9693129 130.091973,89.9693129 L130.091973,89.9693129 Z M102.626942,78.4745964 L102.40304,92.5160452 L125.209652,89.167376 L126.169356,75.1984381 L102.626942,78.4745964 Z M101.630859,94.1481897 C101.448316,94.1481897 101.270104,94.0823687 101.131085,93.9606538 C100.963917,93.8145528 100.869722,93.6024151 100.87297,93.3809976 L101.121558,77.8040856 C101.127621,77.4318194 101.404575,77.1195475 101.774425,77.0679697 L126.884154,73.5736311 C127.111737,73.5421234 127.338671,73.6139869 127.505839,73.7691518 C127.672792,73.9243167 127.760707,74.1461657 127.745332,74.3731942 L126.680174,89.8775952 C126.655921,90.2319494 126.386979,90.5215617 126.034452,90.5731394 L101.741294,94.1402048 C101.704483,94.1456 101.667671,94.1481897 101.630859,94.1481897 L101.630859,94.1481897 Z M71.883932,82.7529599 L72.3206926,96.9329565 L96.3016001,93.4120737 L96.7221202,79.2963875 L71.883932,82.7529599 Z M71.5892214,98.5592742 C71.412525,98.5592742 71.2401594,98.4975535 71.1028732,98.3831761 C70.9370038,98.2448441 70.8382617,98.0424176 70.8317655,97.8270428 L70.3480158,82.1219417 C70.3363226,81.7365114 70.6176077,81.4039536 71.0006665,81.3506494 L97.4014053,77.676544 C97.6227089,77.6461153 97.8461779,77.7134469 98.0120473,77.8621376 C98.1783498,78.0106124 98.2705958,78.2246925 98.2636665,78.4469731 L97.797673,94.0894903 C97.786846,94.4554981 97.5142225,94.7608643 97.1506523,94.8143843 L71.6996567,98.5510735 C71.6628449,98.5564687 71.6260332,98.5592742 71.5892214,98.5592742 L71.5892214,98.5592742 Z M39.6008917,87.2456193 L40.5281148,101.601067 L66.1924021,97.8326537 L66.0557655,83.5639607 L39.6008917,87.2456193 Z M39.8245773,103.223068 C39.6522116,103.223068 39.4835272,103.164585 39.3477568,103.055171 C39.1831866,102.922234 39.081846,102.726929 39.0679875,102.516302 L38.043105,86.6430876 C38.0177699,86.2485933 38.3016534,85.9011449 38.694673,85.8465458 L66.7006208,81.9490808 C66.9171605,81.9192995 67.1349995,81.9831782 67.3002193,82.124963 C67.4654391,82.2667479 67.5611496,82.4726273 67.563315,82.6897286 L67.7144597,98.4768361 C67.7181409,98.8542816 67.4418362,99.1762649 67.067006,99.2312956 L39.934796,103.215083 C39.8979842,103.220478 39.8611725,103.223068 39.8245773,103.223068 L39.8245773,103.223068 Z M25.1096208,89.2623309 L26.3789766,103.678636 L36.1687372,102.241149 L35.2257067,87.8546252 L25.1096208,89.2623309 Z M25.694278,105.297832 C25.5247274,105.297832 25.3590745,105.24129 25.2246034,105.135329 C25.0606828,105.006277 24.9573934,104.81572 24.939204,104.608546 L23.5368928,88.6796534 C23.5015968,88.2789007 23.7874293,87.9210936 24.186945,87.8654155 L35.824006,86.2460036 C36.033833,86.2170856 36.244093,86.2757849 36.407364,86.4082901 C36.5708515,86.5410111 36.6713259,86.7354528 36.6849679,86.944785 L37.7267405,102.837638 C37.7525087,103.230406 37.4714402,103.576775 37.081019,103.634179 L25.8044967,105.289847 C25.767685,105.295242 25.7310898,105.297832 25.694278,105.297832 L25.694278,105.297832 Z M1.42407345,19.7251658 L1.4303531,19.7314242 C1.4281877,19.7292661 1.42602231,19.7273238 1.42407345,19.7251658 L1.42407345,19.7251658 Z M177.841363,84.4830805 C177.841146,84.4832963 177.841146,84.4832963 177.84093,84.4835121 C177.841146,84.4832963 177.841146,84.4832963 177.841363,84.4830805 L177.841363,84.4830805 Z M177.840064,84.4837279 C177.839197,84.4843753 177.838115,84.4850227 177.837249,84.4856702 C177.838115,84.4850227 177.839197,84.4843753 177.840064,84.4837279 L177.840064,84.4837279 Z M11.4431496,108.764979 C11.4433662,108.770374 11.4435827,108.775337 11.4437992,108.780732 C11.4435827,108.775121 11.4433662,108.769942 11.4431496,108.764979 L11.4431496,108.764979 Z M11.4392519,108.713832 C11.5200212,108.919064 12.2417481,109.40096 14.5587231,109.106384 C15.3856882,109.001071 23.178303,107.841111 37.0944445,105.75232 L39.9441072,105.324592 C47.8034162,104.14413 57.0109015,102.758437 66.8771007,101.27153 L71.5647524,100.564764 C71.5654021,100.564764 71.5853237,100.561743 71.5859733,100.561527 C79.7579657,99.3294875 88.294611,98.040907 96.824327,96.7523265 L101.463041,96.051387 C109.683538,94.8089891 117.834093,93.5758709 125.581884,92.4023152 L129.787735,91.7652545 C138.847107,90.3922936 147.24625,89.1173089 154.415663,88.0259755 L154.484523,88.0156168 C173.384326,85.1389164 177.423008,84.4996976 178.010264,84.3939524 C178.076958,84.3663292 178.138455,84.3484172 178.189342,84.3335266 C178.625453,84.2062008 178.998118,82.9603499 179.211843,80.9151519 C179.628682,76.9264007 188.193477,10.8145161 189.362142,1.79898443 L178.036465,3.68254341 C177.67008,3.83209731 175.944042,4.55677548 174.145463,5.6558779 C173.889946,5.81190599 173.589822,6.00073666 173.25267,6.21244282 C170.665453,7.83789725 166.335308,10.5585696 163.01294,10.926088 C159.481177,11.3166978 39.168895,24.2817039 36.8146752,24.5352765 C36.6485892,24.5637629 35.9043422,24.6798668 34.7551659,24.6820249 L34.7538667,24.6820249 C34.6668177,24.6820249 34.5832334,24.6675659 34.5054956,24.6405901 C34.1562171,24.6436113 33.5154761,24.6397268 32.8227655,24.5823223 C31.5101017,24.44658 30.2073988,24.181138 28.935228,23.7916073 C25.3209635,22.8036453 23.2036382,22.0014926 21.8019766,21.4706086 C20.1651529,20.8503808 19.4878166,20.5937869 18.3037775,20.6863679 C14.9363683,20.9518098 3.91059902,21.8176254 3.34001687,21.7794277 C3.14426496,21.7669109 2.46822797,21.6611657 1.79110827,21.4693138 L11.4392519,108.713832 Z M13.2464924,110.708748 C12.0256415,110.708748 11.1202889,110.461865 10.545809,109.970905 C10.041055,109.539292 9.94859249,109.055454 9.93191893,108.874608 L0.142374864,20.3492781 C0.10707889,20.0307478 0.277279108,19.72495 0.566792709,19.5859706 C0.850243199,19.4500125 1.1882617,19.5026693 1.41606148,19.7176126 C1.68760229,19.9118384 2.94634766,20.2407275 3.4361605,20.2718036 L3.44655441,20.2718036 C4.09097661,20.2718036 12.595574,19.6209312 18.1848972,19.1804702 C19.707821,19.0617766 20.643056,19.4154835 22.3405109,20.058371 C23.7991224,20.6108356 25.7960517,21.3674531 29.3475196,22.3377191 C29.3548819,22.3398771 29.3624608,22.3420352 29.3698232,22.3444091 C30.5514804,22.706964 31.7606382,22.9538466 32.9637329,23.0781511 C33.8695185,23.1534676 34.7164053,23.1256285 34.7248504,23.1254127 C34.8212106,23.1213124 34.9182203,23.1377137 35.0057024,23.1687898 C35.9814304,23.1510937 36.5615403,23.0459959 36.5676034,23.0447011 C36.5864423,23.0412482 36.6070136,23.0382269 36.6260691,23.0362847 C37.8523335,22.9039953 159.2995,9.81705851 162.845987,9.42472232 C165.821676,9.09540163 170.129734,6.38854091 172.444327,4.93443682 C172.787542,4.71884615 173.09308,4.52699418 173.353144,4.36794481 C175.488442,3.062963 177.468915,2.28109611 177.552282,2.24829352 C177.601437,2.22908675 177.65254,2.21484352 177.704943,2.20621126 L190.119814,0.141374827 C190.356492,0.102098047 190.597718,0.176551284 190.770516,0.34250647 C190.943098,0.508461656 191.026899,0.746064594 190.996151,0.983235919 C190.897842,1.74114829 181.162649,76.8303668 180.719609,81.0718274 C180.352791,84.5791144 179.613307,85.4919758 178.615492,85.7830987 L178.577598,85.7945365 C178.581279,85.7932416 178.60748,85.7841778 178.644509,85.7632445 C178.406532,85.8905704 177.214047,86.0841488 154.713189,89.5089977 L154.644329,89.5193564 C147.474483,90.6106898 139.075557,91.8856745 130.015102,93.2588511 L125.809251,93.8959119 C118.061676,95.0694675 109.911121,96.3025858 101.690191,97.5449837 L97.0514771,98.2459232 C88.5217612,99.5345037 79.9846828,100.823084 71.810525,102.055555 L67.1036012,102.765127 C57.2371855,104.252249 48.0297002,105.637727 40.1699581,106.818404 L37.3200789,107.246133 C27.6084891,108.703905 15.8094565,110.470066 14.7507938,110.604729 C14.2057633,110.674003 13.7040408,110.708748 13.2464924,110.708748 L13.2464924,110.708748 Z" id="Fill-19"></path>
                        </g>
                        <g id="Group-24" transform="translate(0.000000, 0.161423)">
                            <mask id="mask-2" fill="white">
                                <use xlink:href="#path-1"></use>
                            </mask>
                            <g id="Clip-23"></g>
                            <path d="M138.683511,4.15904413 C138.680047,4.16184961 138.676799,4.1648709 138.673334,4.16789219 C138.676582,4.1648709 138.680047,4.16184961 138.683511,4.15904413 M27.3695375,53.7912982 C29.0379761,54.2818264 30.4872764,54.7641538 31.8893711,55.2307275 C36.3884168,56.7279928 39.6393275,57.8096149 44.717617,57.2647036 C56.2425103,56.3289667 168.997123,43.8480145 170.134606,43.7219835 C170.146516,43.7206887 170.158209,43.7196096 170.169686,43.7189622 C170.186143,43.7176674 172.373843,43.5230099 176.480952,41.1154728 C177.459495,40.5416434 178.340162,40.0012639 179.191813,39.4787964 C182.152777,37.6621375 184.295871,36.3472286 186.462783,36.1929269 C187.050472,36.1115679 187.874839,36.0327985 188.826964,35.941944 C190.519872,35.7803049 192.62637,35.5791733 194.375794,35.2664697 C196.674797,34.8555741 197.259887,34.4353989 197.394358,34.3005199 C197.347369,34.2275773 197.221126,34.0732756 196.897832,33.8445208 C192.906139,31.0206929 159.576563,4.27147931 158.159743,3.13417914 C158.057753,3.05238848 157.995173,2.98354621 157.946885,2.86204716 C157.945802,2.86204716 157.17557,1.5018189 153.964503,1.56742407 C150.202991,1.64727247 144.471402,2.40906936 144.414018,2.41662258 C144.358801,2.42396 144.356202,2.42870775 144.310296,2.42482323 C144.142478,2.44597226 142.701406,2.69846585 139.668984,5.30691881 C139.386183,5.55466466 139.212518,5.70680823 121.506498,7.27809523 C112.023791,8.11974052 99.0647552,9.22164842 82.9894962,10.553606 C55.2799913,12.849787 26.4488107,15.1498525 24.5841872,15.2625035 C22.5922383,15.3827077 21.1386072,14.6910479 19.733914,14.021832 C18.3699304,13.3720387 17.0797867,12.757206 15.2582546,12.8392125 L2.22559521,14.1506685 C1.96120022,14.2540398 1.37026333,14.5747282 1.55258977,15.3209871 C1.72430577,16.0245162 5.784642,32.7667832 7.89070729,51.2441343 C7.90088466,51.3330466 7.89525462,51.4232537 7.87360065,51.5102237 C7.87100218,51.5203666 7.55961806,52.8780052 8.27528183,53.7500792 C8.76184657,54.3433312 9.65637214,54.622369 10.9324407,54.5813658 C12.6656246,54.5250403 15.1118738,54.2848476 17.4775702,54.0524241 C23.3117998,53.4794579 26.2554407,53.2619249 27.3695375,53.7912982 M42.1566017,58.917997 C38.183531,58.917997 35.1173286,57.8974482 31.409519,56.6636825 C30.0009282,56.1949508 28.5442655,55.7102495 26.873445,55.2203688 C26.8169282,55.2039675 26.7625767,55.1806604 26.7112568,55.1517423 C25.943407,54.7386887 20.9383079,55.2305117 17.626333,55.5559478 C15.2361676,55.7907453 12.7647998,56.0333118 10.9820283,56.0913637 C9.19622524,56.1476892 7.89222307,55.6791733 7.09232535,54.6946642 C6.07437214,53.4423391 6.2785691,51.7948724 6.3712481,51.2954962 C4.271679,32.9584193 0.250103373,16.3764966 0.0796866159,15.677931 C-0.325892274,14.0162211 0.904053319,12.9797025 1.82954407,12.688148 C1.87913166,12.6726099 1.9300185,12.6622512 1.98155495,12.656856 L15.1261654,11.3341781 C15.1395909,11.3328833 15.1530163,11.3318042 15.1666583,11.3311568 C17.3861904,11.2258432 18.9786235,11.9876401 20.3874309,12.6587983 C21.7306268,13.2988803 22.8919293,13.8511291 24.4923743,13.7546636 C26.3006975,13.6454655 54.6474788,11.3842452 81.9507552,9.12388809 C129.624356,5.17700331 137.71926,4.26500511 138.804341,4.05588863 C142.128009,1.22623402 143.800345,0.934247847 144.253563,0.913962038 C144.821979,0.838645575 150.214035,0.135979665 153.932455,0.0572102988 C157.592193,-0.0209116482 158.872808,1.48930212 159.222953,2.0478093 C161.403725,3.79778408 193.93427,29.8954779 197.775468,32.6126974 C198.702691,33.2689649 199.076872,33.9604088 198.887183,34.6680383 C198.4593,36.2658695 195.348924,36.8366777 188.971396,37.4456836 C188.022952,37.5363223 187.203349,37.6144442 186.647708,37.6925662 C186.629086,37.6951558 186.61068,37.6970981 186.592058,37.6983929 C184.789798,37.8179497 182.775112,39.0540893 179.986514,40.7652189 C179.128367,41.2915709 178.241203,41.8360507 177.249452,42.4174333 C172.958501,44.9328737 170.56552,45.201337 170.290515,45.2246441 C168.55928,45.4162802 56.3568433,57.8352959 44.8603166,58.7684431 C43.9071088,58.8707354 43.0108509,58.917997 42.1566017,58.917997" id="Fill-22" fill="#93820A" mask="url(#mask-2)"></path>
                        </g>
                        <path d="M38.8401011,55.5010682 C38.9260674,55.5017157 39.030223,55.5101321 39.1737888,55.5211382 C39.7396071,55.5655944 40.9180162,55.6577438 42.5708639,55.5077582 C44.8142153,55.3040369 165.573435,42.5680015 168.098072,42.3016963 C168.34601,42.2537873 170.464851,41.8230375 172.526092,40.7366677 C173.9912,39.9647279 175.420362,39.1105658 176.802752,38.2844586 C179.833225,36.4731948 182.452056,34.9079504 184.421918,34.8371658 C185.45438,34.7497642 186.726767,34.6138061 187.656155,34.5100032 C187.523417,34.1722661 187.467333,33.7844618 187.592276,33.3765876 C187.838265,32.5755139 188.633832,32.140448 189.526409,31.8924864 L156.116063,4.57613332 C154.542469,4.63806978 151.447683,4.60461978 150.533669,3.46990929 C150.474121,3.39631927 150.42345,3.31906055 150.381225,3.23856474 L145.689459,3.52623478 C145.671486,3.527098 144.241675,3.61967899 143.120865,4.38298652 C142.695797,4.67238301 142.341322,4.9883237 141.99854,5.29368988 C141.291971,5.92298158 140.624379,6.51752844 139.633926,6.57558039 C138.468942,6.6459333 26.7686615,16.1573883 23.9176996,16.4001705 C23.6307844,16.4575751 22.4703481,16.6440319 21.3027659,16.189975 C20.9751413,16.0624334 20.5459596,15.8416634 20.0026615,15.5619782 C18.7023405,14.8925465 16.753483,13.8894779 15.4700521,13.8894779 C15.4438508,13.8894779 15.4178661,13.8899095 15.3920978,13.8907728 C13.9874047,14.0118402 11.1671914,14.3694315 9.66548847,14.5647364 C9.70489869,14.8407529 9.68454396,15.1411555 9.56111632,15.4458743 C9.14406083,16.4739764 7.81342427,17.0773713 5.40095528,17.3195062 C6.69283123,21.5229848 11.8010032,38.8938961 11.5428878,49.9520361 C12.7873416,49.8732668 15.0592763,49.8581603 16.568125,50.6100301 C16.5785189,50.6149937 16.5886963,50.6206046 16.5986571,50.6262156 C17.3190848,51.027184 17.6770249,51.5222441 17.8279531,51.9782432 L24.353594,51.6374848 C24.590705,51.6163357 26.2567616,51.505627 28.3333775,52.3474881 C30.2250684,53.1142485 37.9680956,55.2986418 38.8401011,55.5010682 M40.785927,57.0999785 C39.9838639,57.0999785 39.387297,57.0531485 39.0549085,57.0272517 C38.9505363,57.019051 38.874964,57.0121452 38.8307899,57.0114978 C38.8344711,57.0114978 38.8524439,57.0117136 38.880594,57.0089081 C38.5921631,57.0253094 37.836656,56.8382052 33.9354765,55.7021999 C32.1472915,55.1816746 28.9671892,54.2353632 27.7625788,53.7469931 C25.9403971,53.0082876 24.5019237,53.1410085 24.4876321,53.1420876 C24.4757224,53.1433824 24.4605646,53.1446773 24.4484384,53.1451089 L17.170322,53.5251441 C16.8994308,53.5398189 16.6268073,53.457165 16.4786941,53.2338053 C16.3351283,53.016704 16.2957181,52.7860069 16.4013894,52.5531517 C16.4037714,52.478051 16.3686919,52.2328949 15.8745483,51.9534255 C14.4488508,51.2537808 11.7685222,51.410888 10.8527757,51.5306606 C10.6286571,51.5595786 10.4051881,51.4887941 10.2399683,51.3366505 C10.074532,51.1847228 9.98553417,50.9671898 9.99722731,50.7431827 C10.6132828,38.7439106 3.74247758,17.0864352 3.67296834,16.869118 C3.60194331,16.6466216 3.63810544,16.4038393 3.77084429,16.2115557 C3.90358313,16.0192721 4.11817399,15.8988521 4.35203689,15.8856879 C7.73005647,15.6942675 8.1222099,14.9626836 8.15577356,14.8798139 C8.22073547,14.7194697 8.0158889,14.4617967 8.01394004,14.4594228 C7.82186931,14.2524644 7.76167127,13.9561621 7.85738183,13.690936 C7.95309238,13.4257098 8.18933721,13.2358001 8.46953961,13.1982498 C8.66572459,13.1719214 13.2957768,12.5536358 15.2805799,12.3840119 C15.2918399,12.3831487 15.3033165,12.3822854 15.3145766,12.3818538 C16.9999052,12.3138748 19.135853,13.4155669 20.6981871,14.2196618 C21.1821533,14.4687025 21.600075,14.6838616 21.8538595,14.782701 C22.7198018,15.1191433 23.6210402,14.9193065 23.6299183,14.9171484 C23.66673,14.9083003 23.7041914,14.9024736 23.7418693,14.8990206 C28.4238911,14.5004261 138.425418,5.13312985 139.544712,5.06752468 C139.986669,5.0416279 140.362366,4.72482399 140.988165,4.16718003 C141.34957,3.84541257 141.759263,3.4804838 142.26575,3.13584085 C143.744499,2.12867199 145.526838,2.02206359 145.602194,2.01796327 L150.967398,1.68928999 C151.212738,1.67245709 151.448333,1.77777065 151.602726,1.96746455 C151.740661,2.13687264 151.797395,2.35634783 151.761233,2.56913302 C152.20384,2.92974566 154.313153,3.15893214 156.332603,3.054266 C156.522725,3.04477051 156.706567,3.10498052 156.852515,3.22453731 L191.76543,31.7690451 C192.001891,31.9626235 192.098684,32.2789958 192.010336,32.5711978 C191.921771,32.8631839 191.666038,33.0735953 191.36115,33.1044556 C189.252486,33.3178882 189.043309,33.8133799 189.04201,33.8183434 C189.001084,33.9512802 189.273274,34.3399477 189.505838,34.5333103 C189.738401,34.7264571 189.833462,35.0387291 189.747496,35.3279098 C189.661746,35.6170905 189.411643,35.8275018 189.111086,35.8635415 C189.084235,35.8667786 186.412784,36.1855248 184.530188,36.3439267 C184.516546,36.3450057 184.503121,36.345869 184.489479,36.3463006 C182.911987,36.3944254 180.323038,37.9417579 177.582295,39.5799449 C176.182799,40.4164109 174.735664,41.2811474 173.23461,42.072294 C170.836,43.3360568 168.443453,43.7750072 168.342762,43.7931349 C168.324789,43.796372 168.306599,43.7989617 168.288194,43.8009039 C163.254295,44.3317879 44.9751044,56.8064817 42.7081501,57.0121452 C41.9836082,57.0779662 41.3363709,57.0999785 40.785927,57.0999785" id="Fill-25" fill="#93820A"></path>
                        <path d="M7.11174897,27.0285104 C6.69512655,27.0285104 6.35645843,26.6933629 6.35385996,26.2777196 C6.35126148,25.8612131 6.68754766,25.5215337 7.10503624,25.517865 C7.38199053,25.5139805 8.25681099,25.4099617 8.64030283,24.9949659 C8.73449761,24.8928894 8.85705909,24.7154965 8.83194048,24.3579051 C8.69508738,22.4052881 8.16694701,14.7830031 8.16694701,14.7830031 L9.67882731,14.6787686 C9.67882731,14.6787686 10.2071842,22.3004061 10.3440373,24.2525916 C10.3921091,24.9418775 10.1866129,25.5543363 9.7496358,26.024147 C8.85077943,26.9903126 7.29104385,27.0274313 7.1162963,27.0285104 L7.11174897,27.0285104 Z" id="Fill-27" fill="#93820A"></path>
                        <path d="M153.536144,13.0131094 C152.794495,13.0131094 152.181904,12.8376587 151.703352,12.4867574 C150.789987,11.816894 150.732821,10.8004455 150.73347,10.5457938 L150.275705,2.88833239 C150.25102,2.47204169 150.56955,2.11445034 150.987255,2.0896326 C151.402578,2.0630884 151.763983,2.38226619 151.789101,2.7985569 L152.248166,10.4838574 C152.249681,10.5088909 152.249898,10.5341403 152.248815,10.5591738 C152.249032,10.5667271 152.250114,11.0212155 152.613252,11.278241 C152.893671,11.4769988 153.603271,11.7113647 155.27041,11.1854443 C155.392972,10.1150441 155.535239,6.79119265 155.614276,3.78867704 C155.625103,3.37173892 155.978712,3.04738177 156.39187,3.05342435 C156.810008,3.06421468 157.140664,3.4112315 157.12962,3.82816963 C156.909183,12.2144096 156.766916,12.2651241 156.167751,12.4781251 C155.163007,12.8346374 154.283855,13.0131094 153.536144,13.0131094" id="Fill-29" fill="#93820A"></path>
                        <path d="M186.823842,36.1164019 C186.645413,36.1164019 186.466335,36.0540339 186.322119,35.9271397 L155.891143,9.11901086 C155.577594,8.84277856 155.548144,8.36541462 155.825532,8.05292683 C156.102703,7.74022324 156.581688,7.71108936 156.895238,7.98710585 L187.325997,34.7950188 C187.639763,35.0714669 187.668996,35.5488309 187.391825,35.8613187 C187.242197,36.0302951 187.033452,36.1164019 186.823842,36.1164019" id="Fill-31" fill="#93820A"></path>
                        <path d="M9.39832176,22.3479915 C9.01179837,22.3479915 8.6815753,22.0549263 8.64476355,21.6636691 C8.60535332,21.2484574 8.9111074,20.8798599 9.32794635,20.840799 L151.315421,7.46770281 C151.729661,7.42691538 152.101893,7.73314478 152.141087,8.14878807 C152.180497,8.56399975 151.874743,8.93238141 151.457904,8.97165819 L9.47042949,22.3445386 C9.44639358,22.3469124 9.42214113,22.3479915 9.39832176,22.3479915" id="Fill-33" fill="#93820A"></path>
                    </g>
                </g>
            </g>
        </g>
    </g>
</svg>