<?xml version="1.0" encoding="UTF-8" standalone="no"?>
<svg width="208px" height="134px" viewBox="0 0 208 134" version="1.1" xmlns="http://www.w3.org/2000/svg" xmlns:xlink="http://www.w3.org/1999/xlink">
    <!-- Generator: Sketch 46 (44423) - http://www.bohemiancoding.com/sketch -->
    <title>caja plastica 15</title>
    <desc>Created with Sketch.</desc>
    <defs></defs>
    <g id="7-Productos" stroke="none" stroke-width="1" fill="none" fill-rule="evenodd">
        <g id="7.1-Limon-mexicano" transform="translate(-537.000000, -2806.000000)">
            <g id="Group-52" transform="translate(503.000000, 2747.000000)">
                <g id="caja-plastica-15" transform="translate(34.000000, 59.000000)">
                    <path d="M59.2434547,45.0754751 L15.0053989,77.6643618 L151.910069,127.390215 L187.730807,76.2408106 L174.65484,71.1626876 L64.0313765,44.3603748 C64.0313765,44.3603748 62.2703486,46.3057599 59.2434547,45.0754751" id="Fill-1" fill="#CCBA15"></path>
                    <path d="M57.1001542,3.05973894 L7.70058994,28.5539978 C7.70058994,28.5539978 10.2193944,29.283698 8.83427709,30.348904 L7.70058994,31.220699 L10.9985229,32.2462977 C10.9985229,32.2462977 11.9775173,32.6052211 13.3688804,34.5027594 C14.7600983,36.4001532 16.2544447,38.0411111 16.2544447,38.0411111 C16.2544447,38.0411111 10.2490257,39.6126839 9.98176313,42.7733204 C9.44593073,49.111795 12.9424223,77.1510421 15.0054279,77.6642028 C15.9999642,77.9116764 53.0254168,49.6582028 53.0254168,49.6582028 L59.2462436,45.0754606 L57.1001542,3.05973894 Z" id="Fill-3" fill="#CCBA15"></path>
                    <path d="M8.78338101,31.0273603 L11.1501073,31.7634207 C11.1582413,31.7658781 11.1663754,31.7686246 11.174219,31.7715156 C11.2892581,31.8137249 12.3391352,32.2401543 13.779448,34.2044757 C15.1376939,36.0567691 16.6164983,37.685151 16.6311687,37.7014854 C16.7504201,37.8323053 16.7922525,38.0155976 16.7418503,38.1850129 C16.6913028,38.3544283 16.555638,38.4853927 16.3839508,38.5303484 C14.8100067,38.9436235 10.682543,40.5190992 10.4884872,42.8157465 C10.2444648,45.7023118 10.8498726,53.5390712 11.9607553,61.8736688 C12.5060291,65.9643549 13.0954592,69.5631294 13.6649899,72.2807131 C14.403448,75.8037422 14.9034034,76.8147411 15.0993475,77.096329 C17.6371799,75.7931899 38.7512134,59.9129612 52.7159732,49.2567087 L58.7245877,44.8302276 L56.6325318,3.87103883 L8.88752626,28.5112826 C9.28740335,28.7492157 9.6566324,29.0825534 9.74087821,29.5244498 C9.79897877,29.8294552 9.74276648,30.2895653 9.14505698,30.7492416 L8.78338101,31.0273603 Z M15.020476,78.1761348 C14.9670235,78.1761348 14.9253363,78.1658716 14.8821966,78.1550302 C14.3804983,78.0302816 13.7627441,77.5182772 12.7779397,72.9945124 C12.1933028,70.3085858 11.5836827,66.6694811 11.0151687,62.4708145 C10.0335598,55.2203592 9.18935866,46.1118285 9.47521341,42.7308943 C9.60172737,41.2350669 10.7826212,39.9031618 12.9852134,38.772329 C13.8792358,38.3133754 14.7548112,37.986109 15.3536827,37.7867713 C14.7879285,37.1335394 13.8480067,36.0144153 12.9581966,34.8008986 C11.7732358,33.1850928 10.9219173,32.7663247 10.8244536,32.7222362 L7.54888939,31.7035761 C7.3680514,31.6473452 7.2335486,31.4955653 7.20014078,31.3099601 C7.16673296,31.1243549 7.23979441,30.9355696 7.38969385,30.8203614 L8.52338101,29.9485663 C8.69187263,29.8189029 8.73864358,29.7297141 8.74183911,29.708754 C8.71395084,29.5574078 8.16214078,29.2162643 7.55789497,29.0396214 C7.35861006,28.9813668 7.21481117,28.8083376 7.19476648,28.6027843 C7.17486704,28.3970863 7.28220782,28.2000615 7.46653184,28.1048015 L56.8660961,2.61068716 C57.0196268,2.53132794 57.2030793,2.53523085 57.353124,2.62095038 C57.5031687,2.70652535 57.5990346,2.8622082 57.607895,3.03408091 L59.7539844,45.0498026 C59.7625542,45.2190734 59.6855709,45.3812611 59.5487441,45.4821586 L53.3279173,50.0647562 C53.2420737,50.1302384 43.9693698,57.2047735 34.6941966,64.1581737 C29.2455263,68.2429331 24.8616939,71.4875545 21.6645654,73.8018371 C16.2623754,77.712411 15.3777944,78.1761348 15.020476,78.1761348 L15.020476,78.1761348 Z" id="Fill-5" fill="#93820A"></path>
                    <path d="M197.230931,38.261857 L174.656975,71.1626876 L202.159165,31.0791968 C202.159165,31.0791968 198.098808,30.3976326 198.783668,28.4015096 L193.842651,27.2330932 C193.842651,27.2330932 192.277277,26.6002431 190.516104,27.7199454 C188.754931,28.8396477 186.162193,30.3002043 186.162193,30.3002043 C186.162193,30.3002043 184.841422,30.7870565 182.737892,30.3002043 C180.634216,29.8133521 72.2760927,8.58685588 72.2760927,8.58685588 C72.2760927,8.58685588 71.0461039,8.4852356 70.2906514,7.40268328 C69.5351989,6.31998641 67.6011765,3.91420216 67.6011765,3.91420216 C67.6011765,3.91420216 67.359333,3.28785696 66.1204838,2.96955275 C64.8814894,2.65110399 62.2826514,2.1999562 62.2826514,2.1999562 C62.2826514,2.1999562 62.4273218,5.79699612 62.6340145,10.8981029 L197.230931,38.261857 Z" id="Fill-7" fill="#E2D100"></path>
                    <path d="M59.5059531,45.173973 C60.0651709,45.364493 61.4441877,45.7179234 62.7990927,45.1690583 C62.8384559,45.1527238 62.8773832,45.1362449 62.9151486,45.1191877 C62.9218302,45.1162967 62.9285117,45.1131165 62.9353385,45.1099364 C63.0688246,45.0490798 63.1902547,44.9848986 63.3003553,44.9207174 C63.3479978,44.8923851 63.3957855,44.8641974 63.4432827,44.8332632 C63.4472045,44.8306613 63.450981,44.8282039 63.4549028,44.8256019 C63.6525899,44.6956494 63.8466458,44.5418457 64.0341654,44.3604326 C63.8786011,41.4594121 63.0994726,22.3724347 62.6346682,10.8983053 L62.6346682,10.8980162 C62.4278302,5.79690939 62.283305,2.20001402 62.283305,2.20001402 C62.283305,2.20001402 62.1489475,2.4792891 61.6107911,2.74165156 C60.9240425,3.08742071 59.5920872,3.4106397 57.1001542,3.05966667 L59.2462436,45.0755329 C59.3339754,45.1110928 59.4204,45.1434725 59.5059531,45.173973" id="Fill-9" fill="#CCBA15"></path>
                    <polygon id="Fill-11" fill="#E2D100" points="62.6345955 10.8980595 62.6345955 10.8983487 64.0340927 44.3603314 174.657556 71.1626442 197.231512 38.2618136"></polygon>
                    <path d="M171.826476,75.2848572 C171.826476,75.2848572 169.77175,74.6520071 167.374811,74.6520071 C164.977727,74.6520071 163.999314,76.2098475 163.999314,76.2098475 C163.999314,76.2098475 159.44975,75.3335713 157.24832,74.7492908 C155.046889,74.1651549 153.872822,74.9441474 153.872822,74.9441474 C153.872822,74.9441474 150.986532,76.9888399 149.469962,77.4564667 C147.953537,77.924238 146.966264,77.4564667 146.966264,77.4564667 C134.984912,73.9056835 23.5057721,40.8715756 20.5802637,40.1436101 C17.4884425,39.3744472 16.2517721,38.0410967 16.2517721,38.0410967 C16.2517721,38.0410967 14.7574257,36.4001387 13.3660626,34.502745 C11.9748447,32.6052067 10.995705,32.2462833 10.995705,32.2462833 L7.69777207,31.2206846 L8.83145922,30.3488895 C10.2165765,29.2836835 7.69777207,28.5539834 7.69777207,28.5539834 L57.0973363,3.05972449 C61.4935151,3.67884207 62.2804872,2.20007184 62.2804872,2.20007184 C62.2804872,2.20007184 64.8793251,2.65107508 66.1183196,2.96952384 C67.357314,3.28782805 67.5990123,3.91417325 67.5990123,3.91417325 C67.5990123,3.91417325 69.5330346,6.3199575 70.2884872,7.40265437 C71.0439397,8.48520669 72.2740737,8.58682697 72.2740737,8.58682697 C72.2740737,8.58682697 180.632197,29.8133232 182.735582,30.3001754 C184.839258,30.7870276 186.160029,30.3001754 186.160029,30.3001754 C186.160029,30.3001754 188.752912,28.8397633 190.51394,27.7199165 C192.275113,26.6002142 193.840632,27.2330643 193.840632,27.2330643 L198.781504,28.4014807 C198.096644,30.3976037 202.156856,31.0791679 202.156856,31.0791679 L171.826476,75.2848572 Z M205.99585,27.8874526 C203.834074,27.2785983 195.268454,25.6549866 195.268454,25.6549866 C195.268454,25.6549866 192.965928,25.168279 191.311806,26.7103631 C187.47499,29.5470578 187.110699,29.7141603 184.826476,29.1863998 C182.542253,28.6587838 73.0857385,7.53665437 73.0857385,7.53665437 C73.0857385,7.53665437 72.6209341,7.53665437 71.8242302,6.5785616 C71.0275263,5.62046882 69.0688112,3.04353463 69.0688112,3.04353463 C69.0688112,3.04353463 68.7196268,2.38293053 67.2761184,1.96878813 C65.7158279,1.58977195 61.6082637,0.690656526 60.7692916,0.558391154 C60.7692916,0.558391154 58.4122972,0.268274649 57.0713363,1.05565113 C55.3413922,2.07113118 1.41390615,29.261567 1.41390615,29.261567 C1.41390615,29.261567 -0.00244022346,29.8179489 0.705660335,31.1163178 C1.41390615,32.4145422 7.22875531,33.4532951 7.22875531,33.4532951 L8.90626369,33.8613663 C8.90626369,33.8613663 9.76353743,34.009677 10.2480961,34.7886695 C10.8530682,35.6178216 14.7211128,40.4642272 14.7211128,40.4642272 C14.7211128,40.4642272 14.7211128,40.7609931 17.7029788,41.6884408 L20.6849899,42.6157439 L144.866655,80.180266 C144.866655,80.180266 146.566677,80.7792908 148.646968,79.7645335 C150.727113,78.7497763 153.460018,77.6643329 153.460018,77.6643329 C153.460018,77.6643329 154.561314,77.0447817 156.02966,77.3695907 C157.498007,77.6942552 168.34785,81.5912412 171.977973,80.81991 C175.608241,80.0487234 175.15956,78.1003027 178.871314,72.6607989 C182.583068,67.2214397 207.301079,30.079444 207.301079,30.079444 C207.301079,30.079444 208.157627,28.4964516 205.99585,27.8874526 L205.99585,27.8874526 Z" id="Fill-13" fill="#F9F44E"></path>
                    <path d="M165.924011,125.796266 L192.575173,82.2453983 C192.575173,82.2453983 195.566771,80.1482332 195.230078,77.3293184 C196.038257,73.5050423 206.826078,30.7930121 206.826078,30.7930121 L179.778235,71.3220132 C179.778235,71.3220132 177.189564,74.9916183 176.111363,77.2579096 C175.380603,78.5116119 175.142682,78.8654759 175.142682,78.8654759 C175.142682,78.8654759 175.798782,79.1171415 175.888838,80.3559549 C175.590492,81.7111329 165.924011,125.796266 165.924011,125.796266" id="Fill-15" fill="#CCBA15"></path>
                    <path d="M8.78067933,31.0273458 L11.1474056,31.7634063 C11.1553944,31.7658636 11.1635285,31.7686101 11.1715173,31.7715012 C11.2864112,31.8137105 12.3364335,32.2401398 13.7767464,34.2044613 C15.1364447,36.0587784 16.6136514,37.6851366 16.628467,37.701471 C16.6351486,37.7082649 17.8253385,38.9368151 20.7036402,39.6529273 C23.6333609,40.3817601 134.481528,73.2286727 147.111428,76.9715659 C147.136556,76.9790826 147.161104,76.9884785 147.18478,76.9997536 C147.214411,77.0129079 148.033774,77.3698076 149.31954,76.9733005 C150.741696,76.5347288 153.549841,74.5519046 153.57802,74.5319564 C153.582232,74.5289208 153.586445,74.5260298 153.590802,74.5231387 C153.646579,74.4861333 154.983473,73.6246015 157.379249,74.2604872 C159.210143,74.7463275 162.733361,75.4465389 163.789629,75.6535379 C164.232355,75.1447137 165.358199,74.1460017 167.374724,74.1460017 C169.249629,74.1460017 170.903171,74.5154775 171.612143,74.7000708 L201.31402,31.410554 C200.419272,31.1740665 199.007718,30.6662542 198.445015,29.726375 C198.268825,29.4319219 198.185596,29.1124613 198.196925,28.7833156 L193.723037,27.7253372 C193.697908,27.7194106 193.673216,27.7114602 193.649249,27.7017752 C193.59754,27.681827 192.289696,27.1913609 190.787651,28.1462736 C189.035339,29.2604828 186.436501,30.7258097 186.410501,30.740554 C186.386825,30.7538529 186.362132,30.7652725 186.336713,30.7746684 C186.276869,30.7966403 184.84716,31.308211 182.620456,30.7930265 C180.559048,30.3158593 74.2524559,9.49006214 72.1978749,9.08762848 C71.9676514,9.0608863 70.6885676,8.86299417 69.8708022,7.69125307 C69.1339419,6.63515383 67.2212715,4.25423258 67.2020983,4.23023689 C67.1624447,4.1810891 67.1451598,4.16215275 67.1277296,4.10635556 C67.0905453,4.04419806 66.8402771,3.67761338 65.9911374,3.45933937 C65.0263777,3.21143215 63.188076,2.87549256 62.4805564,2.74915383 C61.9797296,3.2334041 60.6071039,4.03379029 57.1881765,3.58278706 L8.88482458,28.5112682 C9.28470168,28.7492013 9.65393073,29.0825389 9.73803128,29.5244354 C9.79627709,29.8294408 9.7400648,30.2895508 9.14235531,30.7492272 L8.78067933,31.0273458 Z M148.151718,78.1691819 C147.426478,78.1691819 146.939596,77.9938399 146.792892,77.9329834 C134.030813,74.1509165 23.3633385,41.3576328 20.4570034,40.6345821 C17.2546458,39.8378097 15.9328581,38.4433135 15.8782436,38.3843361 C15.8599419,38.3642434 14.3465676,36.6979888 12.955495,34.8008841 C11.7700983,33.1843556 10.9184894,32.7660211 10.8214615,32.7220772 L7.54618771,31.7035616 C7.36520447,31.6473307 7.23084693,31.4955508 7.19743911,31.3099456 C7.16388603,31.1243405 7.23694749,30.9355551 7.38699218,30.8203469 L8.52067933,29.9485519 C8.68917095,29.8188885 8.7359419,29.7296997 8.73899218,29.7087396 C8.71153966,29.5592725 8.14883575,29.2116242 7.5557743,29.0397515 C7.35619888,28.9819305 7.2121095,28.8091905 7.19191955,28.603348 C7.17158436,28.3975055 7.27921564,28.200047 7.46368492,28.1049316 L56.8633944,2.61052816 C56.9572268,2.56210313 57.0639866,2.54388954 57.1685676,2.55877843 C60.8611486,3.07858857 61.7558972,2.05645912 61.8359307,1.95267055 C61.9303441,1.7436479 62.1386346,1.66168673 62.3678413,1.70158317 C62.4747464,1.72008587 65.0011039,2.15981402 66.2453274,2.47956375 C67.4636961,2.79266408 67.9009028,3.40094024 68.0300313,3.64046343 C68.3004894,3.97755944 69.9957184,6.09611823 70.7059978,7.11405566 C71.3083553,7.97732211 72.2781989,8.07894239 72.3191598,8.08298986 C72.3358637,8.08457994 72.3557631,8.08718188 72.3723218,8.09050658 C76.7969698,8.95724229 180.762836,29.3242304 182.850825,29.8074688 C184.583674,30.2086015 185.74583,29.8986813 185.952959,29.835512 C186.298947,29.6397881 188.63459,28.3145325 190.240344,27.2935594 C192.056277,26.1388755 193.698635,26.6439413 193.988992,26.7481635 L198.898925,27.9093523 C199.038366,27.9423102 199.157327,28.0322218 199.226612,28.157115 C199.295752,28.2818636 199.308825,28.4300298 199.262489,28.5650416 C199.180858,28.8032639 199.198434,29.0076608 199.318266,29.2078658 C199.743417,29.9192078 201.33726,30.4273092 202.241886,30.5803901 C202.412702,30.6093005 202.557082,30.7227741 202.624769,30.881348 C202.692456,31.0400665 202.67459,31.2222024 202.576836,31.3644419 L172.246311,75.5701312 C172.120668,75.7534235 171.889718,75.8337946 171.676344,75.7683124 C171.65659,75.7622412 169.660981,75.157868 167.374724,75.157868 C165.310992,75.157868 164.46345,76.4270373 164.428445,76.4810999 C164.315875,76.6547072 164.106277,76.7457752 163.902635,76.7066015 C163.716277,76.670608 159.310512,75.8202067 157.117361,75.2382391 C155.252769,74.7432919 154.25097,75.3071905 154.155975,75.3645778 C153.924154,75.528211 151.162635,77.4642002 149.620501,77.9397773 C149.064914,78.1112164 148.56888,78.1691819 148.151718,78.1691819 L148.151718,78.1691819 Z" id="Fill-17" fill="#93820A"></path>
                    <path d="M73.0857531,7.03072125 L73.0886581,7.03072125 L73.0857531,7.03072125 Z M73.0888034,7.03072125 L73.0912726,7.03072125 L73.0888034,7.03072125 L73.0888034,7.03072125 Z M15.2229709,40.3840006 L15.2231162,40.3847234 L15.2229709,40.3840006 Z M15.2231162,40.3847234 C15.227038,40.4091528 15.2290715,40.4338712 15.229362,40.4588787 C15.2290715,40.4327148 15.2268927,40.4079963 15.2231162,40.3847234 L15.2231162,40.3847234 Z M15.229362,40.4590233 C15.229362,40.4598906 15.229362,40.4604688 15.2295073,40.4613361 C15.229362,40.4604688 15.229362,40.4598906 15.229362,40.4590233 L15.229362,40.4590233 Z M15.2295073,40.4617698 L15.2295073,40.4642272 L15.2295073,40.4617698 Z M155.170803,76.7696986 C155.471474,76.7696986 155.796837,76.7997655 156.139921,76.8756554 C156.469206,76.9485098 157.19125,77.174156 158.190435,77.4865335 C161.742558,78.5966954 169.134546,80.9069305 171.871809,80.3251074 C174.106647,79.8503976 174.584234,78.9816382 175.860993,76.6599834 C176.476859,75.539992 177.243206,74.1462186 178.45068,72.3766091 C182.077027,67.0625767 206.079094,30.9992304 206.85953,29.826622 C206.892502,29.7543458 207.042546,29.3931096 206.898602,29.0641085 C206.735194,28.6902962 206.242211,28.4827191 205.85744,28.3743049 C203.741563,27.7783156 195.258736,26.1681474 195.173328,26.1519575 C195.143697,26.1458863 193.092166,25.7437417 191.659407,27.0795497 C191.645317,27.092704 191.630502,27.1049909 191.615105,27.1164106 C187.754468,29.9707407 187.245507,30.2646155 184.711451,29.6791786 C182.474289,29.1624041 75.2183341,8.46352384 73.0150156,8.03839547 C72.7831944,8.0125206 72.216133,7.84324984 71.4326469,6.90120237 C70.6378313,5.94542244 68.7436078,3.45435232 68.6632838,3.34868457 C68.6417866,3.32049687 68.6355408,3.31485933 68.6223229,3.28638252 C68.5806358,3.22653786 68.2353732,2.77264358 67.1454067,2.45780863 C65.5580994,2.07272125 61.5344905,1.19326494 60.7000212,1.0596986 C60.5586916,1.04379784 58.4692503,0.822343689 57.3296078,1.49133182 C55.605619,2.50348716 3.84630056,28.6022639 1.64370838,29.7128593 C1.62961899,29.7199424 1.61523911,29.7263027 1.60056872,29.7320848 C1.48233408,29.7806544 1.14506034,29.9708852 1.04585363,30.2488593 C0.983395531,30.4239122 1.01825587,30.6287428 1.15261341,30.8749154 C1.51806592,31.5447709 4.63777542,32.4764106 7.31868045,32.9553124 C7.3289933,32.9571916 7.33930615,32.9593599 7.34961899,32.9618173 L9.01652402,33.3672865 C9.17964134,33.4005335 10.1120101,33.6253124 10.6697754,34.5054915 C11.2940659,35.3560373 15.0807698,40.1015454 15.1191162,40.1496813 C15.1243453,40.1561862 15.1294291,40.1628356 15.1343676,40.1696296 C15.2486804,40.2500006 15.7792838,40.5600654 17.8546358,41.2054915 L20.8366469,42.1327946 L145.01439,79.6963049 C145.021653,79.6984731 145.028915,79.700786 145.036178,79.7033879 C145.096021,79.7237698 146.577004,80.2107666 148.42315,79.3102056 C150.38782,78.3518237 152.957172,77.3201538 153.245206,77.2049456 C153.414278,77.1173469 154.149977,76.7696986 155.170803,76.7696986 L155.170803,76.7696986 Z M170.844301,81.4251506 C167.398647,81.4252951 161.333965,79.529636 157.885842,78.4518539 C156.947373,78.1585573 156.20601,77.9268399 155.919429,77.8633814 C154.673608,77.5881538 153.717273,78.1010255 153.707686,78.1062293 C153.689384,78.1162035 153.667887,78.1266112 153.648423,78.1342725 C153.621261,78.1451139 150.909127,79.2244861 148.870669,80.2188615 C146.700613,81.2775627 144.900368,80.7253728 144.710815,80.6620589 L20.5371385,43.0998496 L17.5513508,42.1712455 C16.2872279,41.7782078 15.3823117,41.4442919 14.8620212,41.1787493 C14.6383341,41.0648421 14.4041888,40.9302639 14.2876972,40.7346846 C13.8741665,40.2164645 10.4173285,35.881485 9.83675866,35.0860136 C9.82935084,35.0758949 9.82237877,35.0656317 9.81584246,35.0549348 C9.4612838,34.4851096 8.82537318,34.3607946 8.81912737,34.3597827 C8.80779777,34.357759 8.79661341,34.3554462 8.78542905,34.3526997 L7.12346257,33.9483868 C5.68460223,33.6907946 1.0214514,32.7555411 0.259026816,31.3577202 C-0.0875430168,30.7222682 -0.0233418994,30.2140222 0.0915519553,29.8994764 C0.348211173,29.1972412 1.04018883,28.8695411 1.20141788,28.801457 C2.41847933,28.1878324 55.1278872,1.60914196 56.8129486,0.61982589 C58.285943,-0.245030636 60.7284905,0.0436403452 60.8317642,0.056216397 C60.8375743,0.0569391586 60.8432391,0.0576619202 60.8489039,0.0586737864 C61.6791609,0.189638188 65.7955855,1.08846451 67.3966916,1.4771657 C67.4033732,1.47890032 67.4102,1.48063495 67.4168816,1.48265868 C68.8551609,1.895211 69.3663006,2.5621754 69.4903453,2.75948932 C69.6796078,3.00826386 71.4731721,5.36302114 72.2158425,6.25606537 C72.7595184,6.90973096 73.0863341,7.02016893 73.1316525,7.03274498 C73.1487922,7.03433506 73.1656413,7.03679245 73.1826358,7.0399726 C77.6521665,7.90251629 182.674301,28.1699079 184.941384,28.6936209 C187.016882,29.173101 187.247105,29.0850686 190.986166,26.3209392 C192.810669,24.641964 195.269775,25.1380675 195.374066,25.1600395 C195.714245,25.2243653 203.975854,26.7927579 206.134289,27.400745 C207.009429,27.6472067 207.582591,28.076238 207.837798,28.6759855 C208.18001,29.4805638 207.793787,30.2358496 207.748613,30.3194009 C207.741351,30.3328442 207.733362,30.3459985 207.724792,30.3588636 C207.47772,30.7302186 182.96277,67.5654742 179.291831,72.9451333 C178.111809,74.6744127 177.358245,76.0447687 176.752837,77.1456792 C175.435842,79.5409111 174.774803,80.7431528 172.084166,81.3147126 C171.727284,81.3906026 171.309541,81.4251506 170.844301,81.4251506 L170.844301,81.4251506 Z" id="Fill-19" fill="#93820A"></path>
                    <path d="M64.5234302,43.9588662 L174.433274,70.5882945 L196.377709,38.6052265 L63.1667821,11.523205 L64.5234302,43.9588662 Z M174.654927,71.6686785 C174.614838,71.6686785 174.574603,71.6639083 174.534514,71.6542233 L63.9111955,44.8519105 C63.6909944,44.7985707 63.5329609,44.6067497 63.5235196,44.3813927 L62.1238771,10.9191208 C62.1173408,10.7635825 62.1831397,10.6138263 62.3022458,10.5129288 C62.421352,10.4120313 62.5805475,10.3712675 62.7336425,10.4023463 L197.330559,37.7661003 C197.497307,37.8000701 197.636022,37.9148447 197.699933,38.0718285 C197.763989,38.2288123 197.74467,38.4071899 197.648659,38.5471165 L175.074704,71.4479471 C174.978547,71.5880183 174.820369,71.6686785 174.654927,71.6686785 L174.654927,71.6686785 Z" id="Fill-21" fill="#93820A"></path>
                    <path d="M175.812959,78.752942 C176.068165,79.0345299 176.337607,79.5166119 176.395998,80.3193109 C176.399484,80.3678805 176.395998,80.4167392 176.38554,80.4641523 C176.135853,81.5980207 169.237718,113.056653 167.067227,122.955307 L192.141104,81.9822408 C192.177272,81.9229743 192.225495,81.8718028 192.282434,81.8319064 C192.309305,81.8128255 195.021439,79.869175 194.725272,77.3889463 C194.718735,77.3344501 194.721204,77.2790865 194.732534,77.2251685 C195.410858,74.0155288 203.182389,43.1608362 205.612154,33.5264242 L180.20173,71.6019387 C180.168612,71.6490628 177.617998,75.2734231 176.57088,77.4743767 C176.56478,77.4870973 176.558244,77.4995288 176.551126,77.5116712 C176.205137,78.1054921 175.967942,78.5002645 175.812959,78.752942 L175.812959,78.752942 Z M165.923808,126.302271 C165.860623,126.302271 165.796568,126.290562 165.734981,126.265844 C165.504467,126.174053 165.374322,125.929904 165.427339,125.688357 C165.522769,125.253399 174.847618,82.7259625 175.375897,80.3220574 C175.305596,79.5881653 175.009428,79.3714813 174.948422,79.3343314 C174.797506,79.2890865 174.697864,79.1825515 174.642378,79.0339517 C174.585584,78.8815935 174.629305,78.7191167 174.720087,78.5841049 C174.722266,78.5810693 174.962366,78.2204112 175.661171,77.0220725 C176.750411,74.7421933 179.255707,71.1821588 179.362031,71.0313907 L206.402612,30.5132311 C206.539584,30.3078222 206.805394,30.2306313 207.031696,30.3303724 C207.258143,30.4299689 207.379573,30.6774425 207.319149,30.9163875 C207.211953,31.3406485 196.662199,73.1167025 195.744355,77.3554101 C196.020769,80.1418006 193.481339,82.2008039 192.957272,82.5939862 L166.358255,126.059423 C166.263551,126.214094 166.096802,126.302271 165.923808,126.302271 L165.923808,126.302271 Z" id="Fill-23" fill="#93820A"></path>
                    <path d="M59.7370916,44.7196017 C60.4065553,44.9401886 62.1273486,45.3322145 63.5140637,44.148331 C63.2777397,39.459921 62.0522536,9.09511629 61.8150581,3.20547659 C61.7373486,3.24277109 61.6538291,3.27919827 61.5636279,3.31432449 C60.6206559,3.68192104 59.3020637,3.78729968 57.6382089,3.62858123 L59.7370916,44.7196017 Z M61.2353598,45.9743159 C60.0379073,45.9743159 59.1065553,45.5676902 59.0374156,45.536756 C58.8635497,45.4588423 58.7482201,45.2905834 58.7384883,45.1012198 L56.5923989,3.08535361 C56.5848458,2.93574196 56.6441084,2.79046688 56.7544994,2.68870205 C56.8648905,2.58693722 57.0144994,2.53880129 57.1642536,2.5578822 C60.8851587,3.0286891 61.7422872,2.0810041 61.8295832,1.96825329 C61.9139743,1.74810011 62.1324324,1.63910766 62.3689017,1.67394477 C62.6104547,1.70979374 62.7815609,1.93702999 62.7912927,2.17973333 C62.8065441,2.55947228 64.3200637,40.1939577 64.5418626,44.3335025 C64.5495609,44.4792112 64.4936391,44.6213061 64.3884771,44.723071 C63.3778179,45.7009674 62.2172592,45.9743159 61.2353598,45.9743159 L61.2353598,45.9743159 Z" id="Fill-25" fill="#93820A"></path>
                    <path d="M10.9961263,32.7523176 C10.8131095,32.7523176 10.6361933,32.6535883 10.5454112,32.4811374 C10.4151207,32.2335193 10.5111318,31.9277912 10.7598022,31.7981277 L56.8641933,7.76023344 C57.1128637,7.63057001 57.4202156,7.72597454 57.5505061,7.97359266 C57.6807966,8.22106624 57.5847855,8.52679439 57.3359698,8.65645782 L11.2315788,32.6944967 C11.1563385,32.7336703 11.0755788,32.7523176 10.9961263,32.7523176" id="Fill-27" fill="#93820A"></path>
                    <path d="M173.608362,91.027978 C173.514384,91.027978 173.41939,91.0021031 173.334418,90.947896 C173.098094,90.7969834 173.02939,90.4840276 173.180887,90.248841 L202.92939,44.0872142 C203.081032,43.8520276 203.395502,43.7836544 203.631826,43.934567 C203.86815,44.0853351 203.936854,44.3982908 203.785356,44.6334775 L174.036854,90.7951042 C173.93968,90.9457277 173.775837,91.027978 173.608362,91.027978" id="Fill-29" fill="#93820A"></path>
                    <path d="M158.062846,96.6727894 L139.764511,90.816975 L140.809594,83.3984054 L159.55603,89.2202501 L158.062846,96.6727894 Z M155.883058,107.557579 L138.244455,101.604915 L139.468053,92.9197776 L157.654254,98.7157474 L155.883058,107.557579 Z M151.909997,127.390302 L135.454321,121.413642 L136.476019,114.161018 L153.363382,120.134932 L151.909997,127.390302 Z M106.729985,103.638621 L134.225058,113.364535 L133.228198,120.605161 L106.381673,110.853372 L106.729985,103.638621 Z M77.6156503,93.3391238 L103.452533,102.478878 L102.94212,109.604151 L77.6156503,100.405564 L77.6156503,93.3391238 Z M27.7955832,82.3096373 L26.9906,75.4314043 L48.4763318,83.0315316 L48.7867341,89.9346276 L27.7955832,82.3096373 Z M15.0054715,77.664304 L14.0234268,70.8440365 L24.4301084,74.5252058 L25.224924,81.3758293 L15.0054715,77.664304 Z M21.1481531,46.2406535 L21.9455832,53.1133935 L10.9647229,49.5990375 L9.9818067,42.7734216 L21.1481531,46.2406535 Z M47.1831587,54.3256093 L47.4963207,61.2895618 L24.4736838,53.9218746 L23.6668123,47.0232598 L47.1831587,54.3256093 Z M74.937505,62.9435294 L74.856019,70.0448067 L50.4115162,62.2225025 L50.0557955,55.2170634 L74.937505,62.9435294 Z M105.082835,79.7182479 L77.6156503,70.9280214 L77.6156503,63.7760063 L105.601673,72.4657689 L105.082835,79.7182479 Z M135.949918,100.831415 L107.331181,91.1737301 L107.735125,82.8066082 L137.140254,92.1785133 L135.949918,100.831415 Z M107.210768,93.6747743 L135.609013,103.307596 L134.614041,110.538103 L106.863326,100.872034 L107.210768,93.6747743 Z M77.6156503,83.636194 L104.156566,92.6394906 L103.648041,99.7518984 L77.6156503,90.6851433 L77.6156503,83.636194 Z M25.8984547,66.0944809 L48.051181,73.6088887 L48.361438,80.4953612 L26.7006782,72.9505974 L25.8984547,66.0944809 Z M23.0618402,62.7360969 L12.3347341,59.115784 L11.3213151,52.0781098 L22.2282425,55.5544485 L23.0618402,62.7360969 Z M47.9400637,71.1308283 L25.6056279,63.594304 L24.7589575,56.3601832 L47.6027899,63.6412835 L47.9400637,71.1308283 Z M74.7393821,80.1745996 L50.9155385,72.1347441 L50.5310581,64.5743687 L74.8301642,72.3190483 L74.7393821,80.1745996 Z M104.334499,90.1622975 L77.6156503,81.1452684 L77.6156503,73.2068887 L104.925382,81.9105284 L104.334499,90.1622975 Z M12.6951028,61.6159609 L23.3519073,65.2306362 L24.1439631,72.0600106 L13.6733709,68.4131001 L12.6951028,61.6159609 Z M51.3934156,81.5518941 L51.3934156,81.5510268 L51.0414715,74.6229232 L74.7114939,82.6516481 L74.6310246,89.6452339 L51.3934156,81.5518941 Z M74.519762,99.2808024 L51.8769575,91.0566427 L51.5239966,84.110181 L74.6003765,92.2726168 L74.519762,99.2808024 Z M153.937851,117.267881 L136.875315,111.325335 L137.89527,104.082975 L155.390365,110.017137 L153.937851,117.267881 Z M137.431047,90.0702177 L107.841594,80.6004507 L108.195427,73.2715036 L138.449114,82.6663924 L137.431047,90.0702177 Z M175.142958,78.8655338 C174.412924,79.8924334 173.605181,80.474112 171.978511,80.8198811 C168.630611,81.5306449 159.146566,78.273592 156.537125,77.5065974 L156.029472,77.3692727 C154.56127,77.0447528 153.459829,77.664304 153.459829,77.664304 C153.459829,77.664304 150.727069,78.7493137 148.64736,79.7643601 C146.566779,80.7794065 144.866902,80.1800926 144.866902,80.1800926 L20.6849464,42.615715 L17.7029352,41.6882673 C14.7210693,40.7608196 14.7210693,40.4640537 14.7210693,40.4640537 C14.7210693,40.4640537 10.8534603,35.6176481 10.2476168,34.7889297 C9.76320335,34.0097927 8.90636536,33.861482 8.90636536,33.861482 L7.22871173,33.4529771 C7.22871173,33.4529771 1.41400782,32.4149469 0.705326257,31.1159998 C0.812812291,32.7847118 0.529281564,34.2652166 2.16611955,35.2423903 C3.13610838,35.5641638 3.60381788,39.9919458 3.63446592,41.1148283 C3.66409721,42.2377107 4.85530391,41.9196956 5.13331508,43.3412231 C5.13331508,43.3412231 9.50291285,71.1179631 9.50291285,72.3975402 C9.50291285,73.6761055 7.57048827,76.5193051 7.69743799,77.1590936 C7.69743799,77.7988822 7.14620894,78.3676956 12.9312816,80.3220429 C18.7163542,82.2765348 154.845673,132.50861 154.845673,132.50861 C154.845673,132.50861 159.90536,134.76724 162.174913,131.990535 C164.444466,129.214697 165.069773,129.857232 165.923851,125.796323 C166.77793,121.735415 175.888678,80.3561573 175.888678,80.3561573 C175.888678,80.3561573 175.857159,79.1679372 175.142958,78.8655338 L175.142958,78.8655338 Z" id="Fill-31" fill="#EAE406"></path>
                    <path d="M11.4228458,49.2142393 L21.3500525,52.3913547 L20.6810246,46.6255963 L10.5992704,43.4951713 L11.4228458,49.2142393 Z M21.9455832,53.6193266 C21.893438,53.6193266 21.8410022,53.6112317 21.790019,53.5950419 L10.8090134,50.0806859 C10.6239631,50.0214194 10.4890246,49.8624119 10.4614268,49.67088 L9.47865587,42.8451195 C9.45381788,42.6732468 9.51947151,42.5006513 9.65223128,42.3881896 C9.78513631,42.2755834 9.96670056,42.238578 10.1333039,42.2904723 L21.299505,45.7575597 C21.4913821,45.8172598 21.6300972,45.983784 21.6530469,46.1825435 L22.4506223,53.0552835 C22.4705218,53.2261443 22.4018179,53.3952706 22.2681866,53.5044076 C22.175952,53.5797193 22.0616391,53.6193266 21.9455832,53.6193266 L21.9455832,53.6193266 Z M24.9408123,53.5398229 L46.955695,60.5851584 L46.6913374,54.7027463 L24.262343,47.7382155 L24.9408123,53.5398229 Z M47.4961754,61.7954949 C47.4440302,61.7954949 47.3915944,61.7875446 47.3406112,61.7712101 L24.3179743,54.403523 C24.128276,54.342811 23.9917397,54.1772986 23.9686447,53.9802738 L23.1619184,47.0818035 C23.142019,46.9116654 23.2098514,46.7431174 23.3424659,46.6338358 C23.4749352,46.5244097 23.6540302,46.4892835 23.8183095,46.5403105 L47.3346559,53.84266 C47.5390246,53.9061184 47.6815162,54.0901335 47.6911028,54.3030591 L48.0041196,61.2670117 C48.0115274,61.4325241 47.9371587,61.591098 47.8048346,61.6917064 C47.714924,61.7599351 47.606276,61.7954949 47.4961754,61.7954949 L47.4961754,61.7954949 Z M12.7937285,58.7364787 L22.4647117,62.000181 L21.7608235,55.9367894 L11.9397955,52.8063644 L12.7937285,58.7364787 Z M23.0618402,63.2418854 C23.0070804,63.2418854 22.9520302,63.2332123 22.8985777,63.2151433 L12.1714715,59.5948304 C11.9900525,59.5336848 11.8586,59.3762673 11.831438,59.187482 L10.8181642,52.1498078 C10.7933263,51.9772123 10.8594156,51.8041832 10.9931922,51.6915769 C11.1269687,51.5791152 11.309695,51.5431217 11.4764436,51.5961724 L22.3832257,55.0726557 C22.5733598,55.1332231 22.7103318,55.2990246 22.7332816,55.4964831 L23.5668793,62.6779868 C23.586924,62.8501487 23.5169128,63.0205758 23.3813933,63.1295683 C23.2895944,63.20329 23.1764436,63.2418854 23.0618402,63.2418854 L23.0618402,63.2418854 Z M50.9014492,61.8479674 L74.3556279,69.3532684 L74.4249128,63.3143061 L50.600343,55.9161184 L50.9014492,61.8479674 Z M74.856019,70.5507398 C74.8038737,70.5507398 74.751438,70.5427894 74.7004547,70.526455 L50.255952,62.7041508 C50.0546335,62.639825 49.9144659,62.4581228 49.9037173,62.2480882 L49.5479966,55.2426492 C49.5395721,55.0774259 49.612924,54.9185629 49.7443765,54.8172317 C49.8756838,54.7159005 50.0486782,54.6848218 50.2071475,54.7341141 L75.0890022,62.4604356 C75.3033933,62.5270742 75.4484994,62.7256891 75.4458849,62.9493115 L75.3643989,70.0505888 C75.3625106,70.2111864 75.2842201,70.3615208 75.1532034,70.4553353 C75.0656168,70.518071 74.9613263,70.5507398 74.856019,70.5507398 L74.856019,70.5507398 Z M26.0734827,63.2178898 L47.398857,70.4139933 L47.1106782,64.0158186 L25.3552145,57.0814992 L26.0734827,63.2178898 Z M47.9400637,71.6367614 C47.8851587,71.6367614 47.8301084,71.6279437 47.7768011,71.6098746 L25.4423654,64.0734949 C25.2564436,64.0107592 25.1233933,63.8469814 25.1007341,63.6528477 L24.2539184,56.4187269 C24.234019,56.2480106 24.3025777,56.0787398 24.4359184,55.9694583 C24.5694045,55.8601767 24.7495162,55.8259178 24.914086,55.8783903 L47.7577732,63.1594906 C47.9603989,63.2241055 48.1011475,63.4072533 48.1107341,63.6187333 L48.4478626,71.1081335 C48.4554156,71.2750915 48.3795944,71.4349663 48.2453821,71.5352857 C48.1561978,71.6020688 48.0487117,71.6367614 47.9400637,71.6367614 L47.9400637,71.6367614 Z M14.1328011,68.0371195 L23.5458179,71.3157107 L22.8836168,65.6063277 L13.3159073,62.3609836 L14.1328011,68.0371195 Z M24.1438179,72.5659437 C24.0874603,72.5659437 24.0308123,72.5566923 23.9759073,72.5376114 L13.5053151,68.8905564 C13.3262201,68.8282544 13.1969464,68.6717042 13.1700749,68.4847981 L12.1918067,61.6876589 C12.1668235,61.5134734 12.2345106,61.3388542 12.3706112,61.226537 C12.5067117,61.1142198 12.691762,61.0802501 12.8590916,61.1370591 L23.5158961,64.751879 C23.7016726,64.8147592 23.8344324,64.9786816 23.8569464,65.1726708 L24.6490022,72.0020451 C24.6690469,72.1752188 24.5981642,72.3463687 24.4613374,72.4552166 C24.3699743,72.5279264 24.257695,72.5659437 24.1438179,72.5659437 L24.1438179,72.5659437 Z M78.1240302,70.5592684 L104.621807,79.0392857 L105.065985,72.829318 L78.1240302,64.4637862 L78.1240302,70.5592684 Z M105.082835,80.224181 C105.030689,80.224181 104.978108,80.2162306 104.92727,80.1998962 L77.460086,71.4096697 C77.2499073,71.3424529 77.1072704,71.1477409 77.1072704,70.9280214 L77.1072704,63.7760063 C77.1072704,63.6151195 77.1842536,63.4637732 77.3145441,63.3683687 C77.4448346,63.2729642 77.6127453,63.2450656 77.7671475,63.293057 L105.75317,71.9826751 C105.978309,72.0526384 106.125594,72.2674431 106.108745,72.5016179 L105.590053,79.7540969 C105.579013,79.909057 105.496946,80.0504291 105.367527,80.1374496 C105.28241,80.1946923 105.183203,80.224181 105.082835,80.224181 L105.082835,80.224181 Z M51.405762,71.7659912 L74.2389911,79.4714971 L74.3175721,72.686934 L51.0758961,65.2792058 L51.405762,71.7659912 Z M74.7392369,80.6805327 C74.6844771,80.6805327 74.6292816,80.671715 74.5761196,80.6537905 L50.752276,72.6139351 C50.5548793,72.5472964 50.418343,72.3674734 50.4077397,72.1603299 L50.0232592,64.5999545 C50.0148346,64.4340084 50.0887676,64.2745672 50.2209464,64.173236 C50.3532704,64.0720494 50.5269911,64.041838 50.6860413,64.0924313 L74.9852927,71.8372554 C75.1977955,71.9050505 75.3411587,72.1027981 75.3385441,72.324975 L75.2476168,80.1803817 C75.2457285,80.3424248 75.1659855,80.4937711 75.0332257,80.587441 C74.9460749,80.6487312 74.8432369,80.6805327 74.7392369,80.6805327 L74.7392369,80.6805327 Z M27.1688235,72.5776524 L47.8199408,79.7707204 L47.5587788,73.9763407 L26.4964547,66.8318423 L27.1688235,72.5776524 Z M48.361438,81.0012943 C48.3049352,81.0012943 48.2482872,80.9918984 48.1935274,80.972962 L26.5326223,73.4281983 C26.3490246,73.3641616 26.2181531,73.2013957 26.1956391,73.0091411 L25.3934156,66.1530246 C25.3732257,65.9805737 25.4433821,65.8098574 25.5790469,65.7008649 C25.714857,65.5917279 25.897438,65.5594928 26.0624436,65.6155791 L48.2151698,73.1299868 C48.4132927,73.1972037 48.5496838,73.3781832 48.5589799,73.586194 L48.8693821,80.4726665 C48.8767899,80.6404917 48.8002425,80.8010893 48.6648682,80.9014086 C48.5759743,80.9671799 48.4692145,81.0012943 48.361438,81.0012943 L48.361438,81.0012943 Z M15.4654827,77.2928045 L24.6254715,80.6195316 L23.9613821,74.8964162 L14.6461196,71.6012015 L15.4654827,77.2928045 Z M25.2247788,81.8817625 C25.1662425,81.8817625 25.1072704,81.8716438 25.0506223,81.8511174 L14.8311698,78.139592 C14.6551251,78.0755553 14.5287564,77.9205953 14.5021754,77.7360019 L13.520276,70.915879 C13.4950022,70.740537 13.5638514,70.5647614 13.7015497,70.4525888 C13.839248,70.3402716 14.0258961,70.3080365 14.1938067,70.3673029 L24.600343,74.0484723 C24.7830693,74.1130872 24.912924,74.275564 24.9351475,74.4672403 L25.7299631,81.3177193 C25.7501531,81.4920494 25.6782536,81.6643558 25.5398291,81.7730591 C25.4487564,81.844468 25.3374939,81.8817625 25.2247788,81.8817625 L25.2247788,81.8817625 Z M51.8839296,81.1867549 L74.1307788,88.9349038 L74.1989017,83.0123061 L51.5870358,75.3425046 L51.8839296,81.1867549 Z M74.6310246,90.151167 C74.5743765,90.151167 74.5177285,90.1417711 74.4629687,90.1226902 L51.225505,82.0293504 C51.0273821,81.9603989 50.8928793,81.7776848 50.8854715,81.5701077 L50.5336726,74.648509 C50.525248,74.4809728 50.6006335,74.3200861 50.7351363,74.219044 C50.8697844,74.1180019 51.0459743,74.0899588 51.2054603,74.1440214 L74.8754827,82.1727463 C75.0834827,82.2432878 75.222343,82.4388671 75.2198737,82.6574302 L75.1394045,89.651016 C75.1373709,89.8139264 75.0567564,89.9659955 74.9226894,90.0595208 C74.8361196,90.1199437 74.7340078,90.151167 74.6310246,90.151167 L74.6310246,90.151167 Z M28.2643095,81.941318 L48.2448011,89.19929 L47.9837844,83.3942134 L27.5900525,76.1804744 L28.2643095,81.941318 Z M48.7867341,90.4405607 C48.7280525,90.4405607 48.6690804,90.4304421 48.6124324,90.4099156 L27.6212816,82.7849254 C27.4407341,82.7192986 27.3127676,82.5581228 27.2905441,82.368181 L26.4855609,75.489948 C26.4652257,75.3163407 26.5363989,75.1446125 26.6738067,75.0357646 C26.8112145,74.9267722 26.9951028,74.8961271 27.1608346,74.9546708 L48.6465665,82.5547981 C48.8414939,82.6237495 48.9749799,82.8032835 48.984276,83.0088369 L49.294533,89.9120775 C49.3022313,90.0810591 49.2243765,90.2426686 49.0874045,90.3425543 C48.9989464,90.4071691 48.8933486,90.4405607 48.7867341,90.4405607 L48.7867341,90.4405607 Z M108.368131,80.2374798 L137.009673,89.4038315 L137.887136,83.0218466 L108.671706,73.9493094 L108.368131,80.2374798 Z M137.431047,90.5761508 C137.378902,90.5761508 137.326321,90.5680559 137.275483,90.551866 L107.68603,81.082099 C107.467136,81.0121357 107.322756,80.8047031 107.333796,80.5761659 L107.687628,73.2472188 C107.695181,73.0906686 107.775215,72.9465499 107.904198,72.856783 C108.033181,72.767016 108.196734,72.7418639 108.346924,72.7884097 L138.600611,82.1834431 C138.837661,82.2570203 138.986544,82.4901832 138.952846,82.7350548 L137.934779,90.1387355 C137.914444,90.2870462 137.829181,90.4185888 137.701941,90.4983817 C137.619874,90.5496977 137.525896,90.5761508 137.431047,90.5761508 L137.431047,90.5761508 Z M78.1240302,80.7825866 L103.874198,89.472783 L104.389985,82.2710419 L78.1240302,73.9001616 L78.1240302,80.7825866 Z M104.334499,90.6682306 C104.279594,90.6682306 104.224399,90.6594129 104.171237,90.6414885 L77.4523877,81.6244593 C77.2461307,81.5547851 77.1072704,81.3620969 77.1072704,81.1452684 L77.1072704,73.2068887 C77.1072704,73.0452792 77.1848346,72.8934992 77.3159966,72.7982393 C77.4471587,72.7029793 77.6162313,72.6758035 77.7707788,72.7250958 L105.080511,81.4285909 C105.303762,81.4998552 105.449159,81.7137927 105.4326,81.9463773 L104.841572,90.198291 C104.830388,90.3546967 104.746868,90.4970807 104.615706,90.5838121 C104.53146,90.6396093 104.43327,90.6682306 104.334499,90.6682306 L104.334499,90.6682306 Z M140.32736,90.4655683 L157.675751,96.0175338 L158.968053,89.5676093 L141.229807,84.0590095 L140.32736,90.4655683 Z M158.062846,97.1787225 C158.010555,97.1787225 157.957974,97.1707722 157.907282,97.1544378 L139.608946,91.2984787 C139.373639,91.223167 139.22679,90.9902932 139.261069,90.746578 L140.306153,83.328153 C140.326924,83.1809987 140.41146,83.050468 140.537539,82.9709642 C140.663762,82.8914604 140.818455,82.8712231 140.960946,82.9154561 L159.707527,88.7373008 C159.955762,88.8143471 160.105516,89.0654345 160.054678,89.3191238 L158.561494,96.7716632 C158.533025,96.9131799 158.445438,97.0359049 158.320377,97.1089038 C158.24165,97.1551605 158.152466,97.1787225 158.062846,97.1787225 L158.062846,97.1787225 Z M52.367762,90.6962738 L74.0196615,98.5606427 L74.0879296,92.6282155 L52.0701419,84.8403148 L52.367762,90.6962738 Z M74.519762,99.7867355 C74.4610804,99.7867355 74.4021084,99.7766168 74.3454603,99.7560904 L51.7026559,91.5319307 C51.510924,91.4622565 51.3796168,91.2850354 51.3693039,91.0820839 L51.016343,84.1356222 C51.0077732,83.9670742 51.0843207,83.8051756 51.2205665,83.7042781 C51.356667,83.6035251 51.5343095,83.576783 51.6943765,83.6334475 L74.7706112,91.7958833 C74.9754156,91.868304 75.1112257,92.0621487 75.1087564,92.2783989 L75.0281419,99.2865845 C75.0262536,99.4506513 74.9444771,99.6037323 74.8088123,99.6969685 C74.7226782,99.756235 74.6217285,99.7867355 74.519762,99.7867355 L74.519762,99.7867355 Z M78.1240302,90.3260753 L103.188175,99.0557344 L103.621606,92.9926319 L78.1240302,84.3431994 L78.1240302,90.3260753 Z M103.648041,100.257831 C103.591539,100.257831 103.534745,100.248436 103.480131,100.229355 L77.4477397,91.1625996 C77.2438067,91.0916244 77.1072704,90.9000926 77.1072704,90.6851433 L77.1072704,83.636194 C77.1072704,83.4729944 77.1864324,83.3197689 77.3199184,83.2247981 C77.4532592,83.1298272 77.6243654,83.1048196 77.7797844,83.1574367 L104.320555,92.1605888 C104.539159,92.2347441 104.680053,92.4462242 104.663639,92.6753396 L104.155114,99.7877474 C104.14393,99.9450203 104.059684,100.088127 103.92736,100.174714 C103.843404,100.229644 103.746086,100.257831 103.648041,100.257831 L103.648041,100.257831 Z M107.857427,90.816975 L135.529706,100.155344 L136.578712,92.5307873 L108.211114,83.4894734 L107.857427,90.816975 Z M135.949918,101.337348 C135.894868,101.337348 135.839818,101.328531 135.786656,101.310606 L107.167918,91.6527765 C106.953092,91.5802112 106.812488,91.3749469 106.823382,91.1494453 L107.227326,82.7823234 C107.234879,82.625195 107.315494,82.4804982 107.445349,82.3908757 C107.575203,82.3011087 107.739628,82.2768239 107.890108,82.3246708 L137.295237,91.6967204 C137.530399,91.7715985 137.677393,92.0037495 137.643985,92.2471756 L136.45365,100.900077 C136.433025,101.049689 136.346309,101.182244 136.217326,101.261747 C136.136131,101.311762 136.043315,101.337348 135.949918,101.337348 L135.949918,101.337348 Z M138.806432,101.260302 L155.497706,106.893217 L157.067002,99.0597819 L139.887829,93.5847182 L138.806432,101.260302 Z M155.883058,108.063512 C155.828153,108.063512 155.772958,108.05455 155.719796,108.036625 L138.081192,102.084106 C137.849952,102.005903 137.707025,101.775342 137.741013,101.534662 L138.964611,92.8495251 C138.985527,92.7017927 139.07079,92.5706837 139.19774,92.4913245 C139.324689,92.4119653 139.480399,92.3923061 139.623181,92.4379847 L157.809382,98.2338099 C158.055583,98.3123018 158.203449,98.5622328 158.152902,98.8146211 L156.381706,107.656453 C156.353092,107.799271 156.264053,107.922863 156.137248,107.995717 C156.059103,108.040528 155.971371,108.063512 155.883058,108.063512 L155.883058,108.063512 Z M78.1240302,100.051555 L102.48298,108.89888 L102.918008,102.826671 L78.1240302,94.0559588 L78.1240302,100.051555 Z M102.94212,110.110084 C102.883438,110.110084 102.824466,110.099965 102.767818,110.079439 L77.4413486,100.880852 C77.2407564,100.807853 77.1072704,100.618056 77.1072704,100.405564 L77.1072704,93.3391238 C77.1072704,93.1747679 77.1875944,93.0206751 77.322533,92.9258488 C77.4576168,92.8310224 77.6301754,92.8074604 77.7860302,92.8625348 L103.622768,102.002144 C103.83803,102.078323 103.975874,102.288069 103.959606,102.514871 L103.449192,109.640144 C103.437863,109.798574 103.352455,109.942403 103.218533,110.028701 C103.135159,110.082474 103.039002,110.110084 102.94212,110.110084 L102.94212,110.110084 Z M107.389282,100.519182 L134.194846,109.855961 L135.048488,103.652065 L107.686175,94.3705046 L107.389282,100.519182 Z M134.614041,111.044036 C134.557393,111.044036 134.500745,111.034641 134.446131,111.01556 L106.695416,101.349491 C106.483058,101.275624 106.344779,101.071372 106.355527,100.84775 L106.702969,93.6504895 C106.710667,93.4917711 106.792734,93.3457732 106.924913,93.2564399 C107.056946,93.1671066 107.223695,93.144701 107.374756,93.1958725 L135.773002,102.828694 C136.003371,102.906897 136.145717,103.136446 136.112745,103.376259 L135.117773,110.606766 C135.097002,110.7571 135.009561,110.890377 134.87927,110.969592 C134.798511,111.018884 134.706566,111.044036 134.614041,111.044036 L134.614041,111.044036 Z M137.436566,110.98477 L153.553661,116.598026 L154.804566,110.353076 L138.313304,104.759335 L137.436566,110.98477 Z M153.937851,117.773814 C153.881203,117.773814 153.82441,117.764418 153.769796,117.745337 L136.707404,111.802792 C136.478634,111.723143 136.338175,111.493883 136.371874,111.255083 L137.391829,104.012723 C137.412891,103.8634 137.499751,103.731135 137.628879,103.652065 C137.758008,103.572994 137.915751,103.555504 138.059259,103.604073 L155.554354,109.538235 C155.795617,109.620196 155.938689,109.867236 155.888868,110.116155 L154.436354,117.366755 C154.407594,117.51044 154.317684,117.63461 154.189863,117.70732 C154.112153,117.751409 154.025293,117.773814 153.937851,117.773814 L153.937851,117.773814 Z M106.907483,110.505724 L132.810164,119.914634 L133.665259,113.70351 L107.204812,104.343603 L106.907483,110.505724 Z M133.228198,121.111094 C133.169516,121.111094 133.110399,121.100975 133.053896,121.080449 L106.207371,111.32866 C105.998354,111.252625 105.86327,111.050252 105.873874,110.829087 L106.222187,103.614336 C106.229885,103.454461 106.313259,103.307596 106.446891,103.218408 C106.580377,103.129219 106.748432,103.108114 106.90022,103.161888 L134.395293,112.887801 C134.622175,112.968028 134.761326,113.195842 134.72879,113.433197 L133.73193,120.673823 C133.711013,120.825458 133.62241,120.959458 133.490667,121.038528 C133.410488,121.08652 133.319561,121.111094 133.228198,121.111094 L133.228198,121.111094 Z M136.014846,121.078569 L151.527259,126.712641 L152.778891,120.465089 L136.892891,114.845473 L136.014846,121.078569 Z M151.909997,127.896235 C151.85117,127.896235 151.792198,127.885972 151.735695,127.86559 L135.279874,121.88893 C135.054734,121.807113 134.917472,121.579732 134.950734,121.343389 L135.972578,114.090766 C135.993784,113.940287 136.081807,113.807154 136.212533,113.728373 C136.343259,113.649592 136.502455,113.633402 136.646399,113.684429 L153.533762,119.658198 C153.771684,119.742328 153.911416,119.987488 153.86203,120.233806 L152.408499,127.489176 C152.379594,127.634017 152.288377,127.75891 152.159103,127.831331 C152.08212,127.874408 151.996276,127.896235 151.909997,127.896235 L151.909997,127.896235 Z M2.00474525,35.7221594 C2.0048905,35.722304 2.00518101,35.722304 2.00547151,35.7224485 C2.00518101,35.722304 2.00503575,35.722304 2.00474525,35.7221594 L2.00474525,35.7221594 Z M15.2232034,40.3849836 C15.2269799,40.4092684 15.2291587,40.4338423 15.2294492,40.4585607 C15.2291587,40.4326859 15.2268346,40.408112 15.2232034,40.3849836 L15.2232034,40.3849836 Z M15.2294492,40.4588498 L15.2294492,40.4610181 L15.2294492,40.4588498 L15.2294492,40.4588498 Z M15.2294492,40.4615963 L15.2294492,40.4640537 L15.2294492,40.4615963 Z M8.19623128,77.0610872 C8.19623128,77.0615208 8.19637654,77.0619545 8.19652179,77.0623881 C8.19637654,77.0619545 8.19623128,77.0615208 8.19623128,77.0610872 L8.19623128,77.0610872 Z M8.19986257,77.0914431 L8.19986257,77.0917323 L8.19986257,77.0914431 Z M8.20015307,77.0836373 C8.20392961,77.1086449 8.20581788,77.133797 8.20581788,77.1590936 C8.20581788,77.2215402 8.20189609,77.2835532 8.1976838,77.3459998 C8.18286816,77.5600818 8.17604134,77.6577991 8.59116983,77.9482047 C9.28576201,78.4340451 10.7587564,79.0537409 13.0946894,79.8429965 C18.8202089,81.7772511 153.661002,131.53187 155.022298,132.03419 C155.032902,132.038093 155.04336,132.042429 155.053673,132.047055 C155.100444,132.067726 159.785382,134.112129 161.780555,131.671219 C162.440142,130.864472 162.96755,130.336278 163.391248,129.911728 C164.419628,128.881648 164.845215,128.455219 165.42622,125.692679 C166.255025,121.751894 174.96212,82.2005003 175.377393,80.3143817 C175.363594,80.1308002 175.30927,79.8392382 175.200332,79.6169167 C174.425125,80.5205133 173.505103,81.0127139 172.084689,81.3146837 C169.08365,81.9517258 161.798131,79.6744485 157.883896,78.4509577 C157.281539,78.262606 156.761393,78.0999847 156.393181,77.9918595 L155.908332,77.8607506 C154.670645,77.5913051 153.719103,78.099551 153.709952,78.1047549 C153.690053,78.1158854 153.669282,78.125715 153.64822,78.134099 C153.620913,78.1449405 150.909069,79.2240235 148.871192,80.2185435 C146.69765,81.2788347 144.895952,80.7236093 144.710466,80.6615963 L20.5370804,43.0998207 L17.5512927,42.1712166 C16.2870246,41.7780343 15.3822536,41.4441184 14.8619631,41.1785758 C14.638276,41.0645241 14.4039855,40.9300904 14.2876391,40.7343666 C13.8738179,40.2157128 10.4177061,35.8814561 9.83655531,35.0864183 C9.82914749,35.0762997 9.82203017,35.0658919 9.8153486,35.055195 C9.4609352,34.4852252 8.82546034,34.3609102 8.81906927,34.3598984 C8.80788492,34.3578746 8.79670056,34.3555618 8.7855162,34.3528153 L7.12311397,33.9482134 C6.00061117,33.7471411 2.91808603,33.1343838 1.25350503,32.2112727 C1.28851061,33.3348779 1.38728156,34.1680775 2.38966145,34.7854604 C2.80537095,34.9538639 3.32115866,35.491743 3.7522648,37.7852101 C3.99425363,39.0728822 4.12628715,40.499469 4.14270056,41.1010958 C4.15010838,41.3831174 4.24190726,41.4604529 4.55899106,41.6850872 C4.93533743,41.9516416 5.45083464,42.3166362 5.63225363,43.2446621 C5.63356089,43.2507333 5.63457765,43.2569491 5.63544916,43.2630203 C6.08340447,46.1099782 10.0112927,71.1155057 10.0112927,72.3975402 C10.0112927,73.2109361 9.43900223,74.3701012 8.88559441,75.4909599 C8.60148268,76.0664227 8.21366145,76.8520645 8.20015307,77.0836373 L8.20015307,77.0836373 Z M158.803047,133.885327 C156.786812,133.885471 154.8846,133.078725 154.65365,132.977394 C152.535013,132.19551 18.463762,82.7255143 12.7678737,80.8010893 C7.45588492,79.0066168 7.11439888,78.272291 7.18324804,77.2764701 C7.18528156,77.2475597 7.18746034,77.2187937 7.18847709,77.1898833 C7.14156089,76.7547808 7.43278994,76.1391325 7.97312514,75.0447269 C8.42819777,74.1229167 8.99453296,72.9757495 8.99453296,72.3975402 C8.99453296,71.4878725 6.38654413,54.5794431 4.63263352,43.4296891 C4.52790726,42.9049642 4.28127039,42.7302004 3.96941564,42.509469 C3.62255531,42.2637301 3.14729274,41.9272123 3.12623128,41.1281271 C3.07728156,39.3285953 2.51181788,36.0508714 1.99472291,35.7186902 C1.9633486,35.7075597 1.93313631,35.6933935 1.90466704,35.6763364 C0.300655866,34.7186772 0.264197765,33.3087139 0.228901676,31.9450073 C0.222220112,31.6851023 0.215248045,31.4163795 0.197963128,31.1483795 C0.182711732,30.9113137 0.335225698,30.6956416 0.564577654,30.6298703 C0.793784358,30.564099 1.03824246,30.6658639 1.15211955,30.8745974 C1.51757207,31.5444529 4.63742682,32.4760926 7.31847709,32.9549944 C7.3289352,32.9568736 7.33924804,32.9590419 7.34956089,32.9614992 L9.01588492,33.3672576 C9.17667821,33.3999264 10.1107899,33.623838 10.6691363,34.505318 C11.2947341,35.3562975 15.0807117,40.1012274 15.1192034,40.1493633 C15.1242872,40.1558682 15.1293709,40.1626621 15.1343095,40.1693115 C15.2484771,40.2496826 15.7787899,40.5597474 17.8545777,41.205318 L20.8365888,42.1327657 L145.014768,79.6959868 C145.022175,79.6982997 145.029438,79.7006125 145.036701,79.7032145 C145.096544,79.7235963 146.577382,80.2107376 148.423673,79.3100321 C150.387617,78.3515057 152.956969,77.3199804 153.245002,77.2049167 C153.464041,77.0912986 154.632153,76.5421443 156.139717,76.8753374 C156.147561,76.8770721 156.155259,76.8789512 156.162812,76.880975 L156.670611,77.0184442 C157.057706,77.1320624 157.581773,77.2958401 158.188634,77.4856373 C161.741047,78.5960882 169.133472,80.9066125 171.872477,80.3250785 C173.458913,79.9879825 174.120823,79.4274086 174.727829,78.573249 C174.866108,78.3788261 175.121751,78.3066945 175.341952,78.3999307 C176.328354,78.8175424 176.392701,80.1878984 176.396768,80.3428585 C176.39793,80.3837668 176.394008,80.4245305 176.385293,80.464427 C176.294075,80.8782803 167.265248,121.887773 166.421483,125.899967 C165.778745,128.955803 165.221851,129.513631 164.112566,130.624949 C163.704555,131.033598 163.197047,131.541989 162.56927,132.309851 C161.583159,133.51614 160.166958,133.885327 158.803047,133.885327 L158.803047,133.885327 Z" id="Fill-33" fill="#93820A"></path>
                </g>
            </g>
        </g>
    </g>
</svg>