<?xml version="1.0" encoding="UTF-8" standalone="no"?>
<svg width="1280px" height="740px" viewBox="0 0 1280 740" version="1.1" xmlns="http://www.w3.org/2000/svg" xmlns:xlink="http://www.w3.org/1999/xlink">
    <!-- Generator: Sketch 46 (44423) - http://www.bohemiancoding.com/sketch -->
    <title>WE SHIP</title>
    <desc>Created with Sketch.</desc>
    <defs></defs>
    <g id="5-We-ship" stroke="none" stroke-width="1" fill="none" fill-rule="evenodd">
        <g transform="translate(0.000000, -30.000000)" id="WE-SHIP" fill="#6FBDED">
            <g transform="translate(0.000000, 30.000000)">
                <path d="M0,0 L1280,0 L1280,740 L0,740 L0,0 Z M256.18,290.54 L282.36,361.6 L263,411.54 L218.56,290.1 L186,290.1 L249.14,446.3 L274.66,446.3 L301.72,380.74 L328.78,446.3 L354.3,446.3 L417.88,290.1 L384.88,290.1 L340.66,411.54 L320.86,361.6 L347.48,290.54 L319.32,290.54 L301.72,342.24 L284.12,290.54 L256.18,290.54 Z M542.4,419.68 L464.3,419.68 L464.3,378.98 L530.08,378.98 L530.08,354.34 L464.3,354.34 L464.3,316.72 L540.42,316.72 L540.42,290.1 L433.94,290.1 L433.94,446.3 L542.4,446.3 L542.4,419.68 Z M712.02,331.02 L725.44,306.38 C718.546632,301.686643 710.480046,297.616684 701.24,294.17 C691.999954,290.723316 681.880055,289 670.88,289 C662.95996,289 655.553368,290.063323 648.66,292.19 C641.766632,294.316677 635.716693,297.433313 630.51,301.54 C625.303307,305.646687 621.233348,310.779969 618.3,316.94 C615.366652,323.100031 613.9,330.13996 613.9,338.06 C613.9,344.073363 614.816658,349.243312 616.65,353.57 C618.483343,357.896688 621.233315,361.709983 624.9,365.01 C628.566685,368.310017 633.149973,371.169988 638.65,373.59 C644.150028,376.010012 650.639963,378.246656 658.12,380.3 C664.280031,382.060009 669.853308,383.673326 674.84,385.14 C679.826692,386.606674 684.079982,388.219991 687.6,389.98 C691.120018,391.740009 693.833324,393.793322 695.74,396.14 C697.646676,398.486678 698.6,401.34665 698.6,404.72 C698.6,415.42672 690.240084,420.78 673.52,420.78 C667.506637,420.78 661.640029,420.046674 655.92,418.58 C650.199971,417.113326 644.993357,415.316677 640.3,413.19 C635.606643,411.063323 631.536684,408.936677 628.09,406.81 C624.643316,404.683323 622.260007,402.960007 620.94,401.64 L607.52,427.82 C616.613379,434.273366 626.879943,439.259982 638.32,442.78 C649.760057,446.300018 661.346608,448.06 673.08,448.06 C680.706705,448.06 688.003299,447.216675 694.97,445.53 C701.936702,443.843325 708.09664,441.166685 713.45,437.5 C718.80336,433.833315 723.056651,429.03003 726.21,423.09 C729.363349,417.14997 730.94,410.000042 730.94,401.64 C730.94,394.453297 729.766678,388.403358 727.42,383.49 C725.073322,378.576642 721.736688,374.360018 717.41,370.84 C713.083312,367.319982 707.803365,364.386678 701.57,362.04 C695.336636,359.693322 688.406705,357.493344 680.78,355.44 C674.913304,353.973326 669.743356,352.580007 665.27,351.26 C660.796644,349.939993 657.093348,348.473341 654.16,346.86 C651.226652,345.246659 648.990008,343.376677 647.45,341.25 C645.909992,339.123323 645.14,336.446683 645.14,333.22 C645.14,327.646639 647.193313,323.320015 651.3,320.24 C655.406687,317.159985 661.639958,315.62 670,315.62 C674.693357,315.62 679.313311,316.206661 683.86,317.38 C688.406689,318.553339 692.623314,319.983325 696.51,321.67 C700.396686,323.356675 703.696653,325.079991 706.41,326.84 C709.123347,328.600009 710.993328,329.993328 712.02,331.02 Z M885.16,290.1 L855.02,290.1 L855.02,353.24 L784.18,353.24 L784.18,290.1 L753.82,290.1 L753.82,446.3 L784.18,446.3 L784.18,379.64 L855.02,379.64 L855.02,446.3 L885.16,446.3 L885.16,290.1 Z M917.72,446.3 L948.08,446.3 L948.08,290.1 L917.72,290.1 L917.72,446.3 Z M980.64,446.3 L1011,446.3 L1011,393.94 L1047.96,393.94 C1055.1467,393.94 1061.74664,392.473348 1067.76,389.54 C1073.77336,386.606652 1078.90665,382.720024 1083.16,377.88 C1087.41335,373.039976 1090.71332,367.503365 1093.06,361.27 C1095.40668,355.036636 1096.58,348.620033 1096.58,342.02 C1096.58,335.713302 1095.33335,329.443365 1092.84,323.21 C1090.34665,316.976636 1086.90002,311.403358 1082.5,306.49 C1078.09998,301.576642 1072.8567,297.616682 1066.77,294.61 C1060.6833,291.603318 1054.0467,290.1 1046.86,290.1 L980.64,290.1 L980.64,446.3 Z" id="Combined-Shape"></path>
                <path d="M1011,367.32 L1046.2,367.32 C1051.77336,367.32 1056.42998,365.046689 1060.17,360.5 C1063.91002,355.953311 1065.78,349.793372 1065.78,342.02 C1065.78,338.05998 1065.19334,334.503349 1064.02,331.35 C1062.84666,328.196651 1061.30668,325.520011 1059.4,323.32 C1057.49332,321.119989 1055.25668,319.470006 1052.69,318.37 C1050.12332,317.269995 1047.52001,316.72 1044.88,316.72 L1011,316.72 L1011,367.32 Z" id="WE-SHIP-"></path>
            </g>
        </g>
    </g>
</svg>