<?xml version="1.0" encoding="UTF-8" standalone="no"?>
<svg width="252px" height="151px" viewBox="0 0 252 151" version="1.1" xmlns="http://www.w3.org/2000/svg" xmlns:xlink="http://www.w3.org/1999/xlink">
    <!-- Generator: Sketch 46 (44423) - http://www.bohemiancoding.com/sketch -->
    <title>Primus</title>
    <desc>Created with Sketch.</desc>
    <defs>
        <polygon id="path-1" points="0 0.015408954 0 39.3321234 23.21261 39.3321234 23.21261 0.015408954 3.92555959e-20 0.015408954"></polygon>
    </defs>
    <g id="1-Inicio" stroke="none" stroke-width="1" fill="none" fill-rule="evenodd">
        <g id="1.1-Slider-piña" transform="translate(-844.000000, -4825.000000)">
            <g id="Inicio-" transform="translate(0.000000, 775.000000)">
                <g id="Certificaciones" transform="translate(0.000000, 3721.000000)">
                    <g id="Primus" transform="translate(844.000000, 329.000000)">
                        <g id="Group-3" transform="translate(53.586207, 0.223971)" fill="#000000">
                            <path d="M49.1799,0.690626316 C69.2906586,2.47083684 87.2500034,16.4625402 93.946831,36.1980234 C95.9201069,42.0126072 96.2445207,48.0013105 94.6065207,54.0037411 C94.4559,54.554277 94.2487966,55.0896407 93.8034517,55.6040522 C93.8034517,54.0593727 93.8679,52.5125258 93.7918655,50.9714589 C93.5072793,45.1597651 91.6476931,39.7967364 88.7272448,34.8332435 C81.5553828,22.6376455 71.234969,14.3998368 57.3836586,11.0048656 C45.1348655,8.00292775 33.6587276,10.4557746 22.9537966,16.8093344 C20.1868655,18.4515498 17.6125552,20.428277 15.0230379,22.3500952 C14.1663828,22.9851622 13.4306586,23.3377364 12.3133138,23.1910713 C8.41383103,22.6802722 4.49841724,22.2973536 0.436727586,21.849411 C0.638037931,21.5098416 0.717693103,21.2772005 0.874831034,21.124033 C9.91279655,12.2894493 20.078969,5.28492775 32.4993828,2.07274593 C38.0962448,0.624157416 43.7177276,0.207281818 49.1799,0.690626316" id="Fill-1"></path>
                        </g>
                        <g id="Group-6" transform="translate(0.000000, 31.290957)">
                            <mask id="mask-2" fill="white">
                                <use xlink:href="#path-1"></use>
                            </mask>
                            <g id="Clip-5"></g>
                            <path d="M8.55177931,12.3809885 L8.53657241,12.3809885 C8.53657241,13.1735579 8.53512414,13.9654048 8.53657241,14.7579742 C8.53874483,16.6711225 8.53946897,16.6711225 10.4642276,16.6465579 C12.8871931,16.6154909 14.167469,15.9117876 14.5671931,13.9769646 C15.4318138,9.79231388 13.6982276,7.62701722 9.23681379,8.19706029 C8.97902069,8.23029474 8.6031931,8.71219426 8.58364138,9.0055244 C8.50615862,10.1261033 8.55177931,11.2546297 8.55177931,12.3809885 L8.55177931,12.3809885 Z M-0.000289655172,0.0697923445 C4.90646897,0.0567875598 9.81395172,-0.0378583732 14.7192621,0.0575100478 C18.4145379,0.129758852 21.0127448,2.18090239 22.2061241,5.888711 C23.5508483,10.0625244 23.5559172,14.3042517 22.1742621,18.4708402 C20.7998483,22.6164766 17.7237103,24.731199 13.3347103,24.762266 C12.1601586,24.7702134 10.9805379,24.8316249 9.81322759,24.7470938 C8.77843448,24.6726775 8.5191931,25.1068928 8.52643448,26.0482947 C8.55684828,29.9822421 8.49746897,33.916912 8.56264138,37.8486919 C8.5821931,39.0285148 8.18464138,39.3688067 7.04484828,39.3290699 C4.69936552,39.2488737 2.34881379,39.2900555 -0.000289655172,39.2806632 L-0.000289655172,0.0697923445 Z" id="Fill-4" fill="#000000" mask="url(#mask-2)"></path>
                        </g>
                        <path d="M175.592152,150.501339 C175.513221,150.353951 175.360428,150.203674 175.366221,150.060621 C175.390841,149.448674 175.462531,148.838894 175.517566,148.228391 C176.020841,148.377224 176.524117,148.525334 177.15991,148.712458 C177.960807,148.076669 179.053531,144.805966 178.633531,143.668047 C177.661738,141.038913 176.663152,138.419171 175.6146,135.818937 C175.435014,135.373162 174.957083,135.045875 174.521876,134.55675 L178.771841,134.55675 C178.154152,134.868865 177.857255,135.019143 177.436531,135.231554 C178.170807,137.197444 178.909428,139.178506 179.648772,141.158846 C179.76029,141.173296 179.871807,141.187745 179.9826,141.202195 C180.635772,139.239195 181.287497,137.276195 181.958048,135.259009 C181.403359,135.052377 181.0116,134.906434 180.619117,134.759769 C180.631428,134.680296 180.644462,134.600822 180.656048,134.521348 L183.191255,134.521348 C182.748807,135.376774 182.178186,136.22064 181.854497,137.150482 C180.671979,140.547621 179.611117,143.986664 178.41629,147.38019 C178.033221,148.46898 177.381497,149.463123 176.851428,150.501339 L175.592152,150.501339 Z" id="Fill-7" fill="#FFFFFF"></path>
                        <path d="M251.925776,36.890456 C251.216121,37.0111115 250.803362,36.7618531 250.744707,35.9996282 C250.697638,35.3761211 250.602052,34.7562263 250.492707,33.8328866 C249.8685,34.98381 249.360155,35.920877 248.717121,37.1079249 C248.076983,35.9692837 247.565017,35.0603938 246.914741,33.9065804 C246.7395,35.075566 246.606259,35.9606139 246.474466,36.8456617 C246.362948,36.8463842 246.252155,36.8471067 246.140638,36.8478292 C246.050845,36.6881593 245.871259,36.5198196 245.884293,36.3695421 C245.990741,35.1622646 246.107328,33.9549871 246.284741,32.7571019 C246.323121,32.4998962 246.603362,32.1155325 246.809741,32.089523 C247.057397,32.0591785 247.455672,32.2831498 247.596155,32.512901 C248.046569,33.2577861 248.408638,34.0561354 248.922052,35.0632837 C249.374638,34.1551163 249.689638,33.4015612 250.117603,32.7180876 C250.303707,32.4204225 250.72081,32.267255 251.032914,32.0483411 C251.209603,32.3358914 251.471741,32.603212 251.547052,32.9153268 C251.720845,33.6421498 251.804845,34.3913699 251.925776,35.1304751 L251.925776,36.890456 Z" id="Fill-9" fill="#000000"></path>
                        <path d="M57.1425931,100.283868 C59.0586621,101.53016 60.9530069,102.810409 62.8922483,104.016242 C71.3936276,109.301964 80.5032828,113.076242 90.4659724,114.435242 C105.979179,116.552132 120.087559,112.897787 132.470317,103.323376 C145.627903,93.1500215 153.47611,79.713189 156.049697,63.3076531 C157.360386,54.950634 156.635524,46.6998206 153.888869,38.6614187 C153.742593,38.2351507 153.632524,37.797323 153.785317,37.251122 C154.623869,39.2589163 155.569593,41.2298636 156.285041,43.2810072 C162.650938,61.5223852 160.595834,78.8700455 150.13349,95.0429402 C141.771869,107.966806 130.005352,116.458931 114.884628,119.96083 C102.630766,122.798763 90.7998,121.118978 79.3946276,116.044222 C71.3349724,112.458514 64.2796966,107.383036 57.8573172,101.391443 C57.6429724,101.191313 57.4365931,100.982514 57.236731,100.767935 C57.1534552,100.679069 57.0969724,100.566361 57.0281793,100.463768 L57.1425931,100.283868 Z" id="Fill-11" fill="#000000"></path>
                        <path d="M67.4417172,45.0396153 C70.8697862,39.4468354 78.0793034,39.2149167 80.4342,45.5648641 C80.9439931,44.879223 81.4117862,44.2607732 81.8687172,43.6350986 C83.4538552,41.4604096 85.6422,40.5825866 88.2469241,40.9416632 C90.9088552,41.3086871 92.5359931,43.0766153 93.2058207,45.5374096 C93.7619586,47.5777158 94.1747172,49.7184478 94.2196138,51.8230555 C94.3528552,57.9786536 94.2522,64.1385866 94.2898552,70.2963522 C94.2963724,71.2955531 94.0559586,71.7297684 92.9654069,71.6813617 C91.1637517,71.601888 89.354131,71.6163378 87.5510276,71.6770268 C86.6082,71.7088163 86.3272345,71.3844191 86.3337517,70.4538545 C86.3685103,64.9665579 86.3815448,59.4778163 86.3134759,53.9912421 C86.3011655,53.0281656 86.0397517,51.9776679 85.5864414,51.130912 C84.8014759,49.6635388 83.2489241,49.5327684 82.3582345,50.9372852 C81.6985448,51.9769455 81.2437862,53.3243856 81.2119241,54.5482804 C81.0786828,59.6974526 81.1409586,64.8516823 81.1279241,70.004467 C81.1243034,71.6553522 81.1199586,71.6575196 79.4602345,71.6589646 C77.8222345,71.6611321 76.1813379,71.5932182 74.5484069,71.6791943 C73.4578552,71.7362708 73.2196138,71.3128928 73.2268552,70.307912 C73.2674069,64.98751 73.2710276,59.6671081 73.2196138,54.3474287 C73.2102,53.3655675 73.0545103,52.3157923 72.6728897,51.4220746 C71.9067517,49.6303043 70.1652,49.5363809 69.0507517,51.1352469 C67.9305103,52.7435053 67.9160276,54.6255866 67.8914069,56.4542038 C67.829131,61.06151 67.8334759,65.6709837 67.8892345,70.27829 C67.9029931,71.3923665 67.5764069,71.7384383 66.4634069,71.6799167 C64.7472,71.5896057 63.0215793,71.6286201 61.3010276,71.6712469 C60.479131,71.6914766 60.0960621,71.4920699 60.0982345,70.5643952 C60.1250276,61.2645292 60.1192345,51.9646632 60.1054759,42.6647971 C60.1040276,41.9531464 60.2821655,41.5803426 61.0866828,41.5962373 C62.8912345,41.6338067 64.6979586,41.6287493 66.5025103,41.5947923 C67.2252,41.5810651 67.4750276,41.8780077 67.4496828,42.5643713 C67.4178207,43.3880077 67.4417172,44.214534 67.4417172,45.0396153" id="Fill-13" fill="#000000"></path>
                        <path d="M112.629662,67.5161459 C111.610076,68.7357057 110.872903,69.8216053 109.938041,70.6987057 C106.798179,73.6457344 102.0348,72.8878445 100.245455,68.9864091 C99.3793862,67.0985478 98.8297655,64.9094091 98.7718345,62.8394809 C98.5842828,56.1463517 98.7015931,49.4452751 98.6682828,42.7470885 C98.6639379,41.8829928 98.9376621,41.5593182 99.8203862,41.5853278 C101.580766,41.6380694 103.347662,41.6648014 105.105145,41.5824378 C106.244214,41.5289737 106.631628,41.8736005 106.618593,43.049811 C106.561386,48.1144522 106.57949,53.1805383 106.610628,58.2451794 C106.617145,59.2833947 106.599041,60.4010837 106.970524,61.3316483 C107.268145,62.0794234 108.032834,62.8546531 108.779421,63.1595431 C109.801179,63.5771411 110.738938,62.8438158 111.087248,61.9067488 C111.558662,60.6373373 111.979386,59.2667775 112.0098,57.9294522 C112.121317,52.9919689 112.101766,48.0508732 112.042386,43.111945 C112.027903,41.872878 112.434145,41.5217488 113.625352,41.5824378 C115.382834,41.6720263 117.149007,41.6359019 118.91011,41.5918301 C119.728386,41.5716005 119.999214,41.8627632 119.997041,42.6777297 C119.976041,51.9710933 119.976041,61.2651794 119.994145,70.5585431 C119.996317,71.3453325 119.783421,71.6921268 118.936179,71.6697297 C117.174352,71.6227679 115.4118,71.6343278 113.649248,71.6675622 C112.874421,71.6827344 112.603593,71.3467775 112.623145,70.6170646 C112.64849,69.6604904 112.629662,68.7031938 112.629662,67.5161459" id="Fill-15" fill="#000000"></path>
                        <path d="M123.2322,63.2238445 C124.975924,62.9724187 126.660269,62.7296627 128.345338,62.4883517 C128.469166,62.471012 128.604579,62.4941316 128.720441,62.4565622 C130.21651,61.9746627 131.05289,62.2918349 131.654648,63.9723421 C132.439614,66.1643708 135.043614,66.6303756 136.5882,65.128323 C138.003166,63.7519833 137.733062,61.7759785 135.904614,61.0440981 C134.277476,60.3931364 132.554028,59.9813182 130.873303,59.4640167 C124.494372,57.5010167 121.929476,50.2819163 125.535683,44.6074952 C127.230166,41.9407919 129.802303,41.0687488 132.711166,40.9141364 C134.249234,40.8317727 135.818441,40.9524282 137.347097,41.1691746 C139.298648,41.4458876 140.952579,42.4067967 141.944648,44.1458254 C142.778131,45.6088636 143.402338,47.1911124 144.242338,48.9814378 C142.293683,49.2791029 140.739683,49.5182464 139.184234,49.7537775 C138.853303,49.8043517 138.51151,49.8094091 138.189993,49.8961077 C137.165338,50.1742656 136.524476,50.0030359 136.111717,48.8398301 C135.612786,47.4353134 133.914683,46.7027105 132.564166,47.3312751 C131.924752,47.6296627 131.2332,48.5031507 131.178166,49.1663947 C131.123855,49.812299 131.694476,50.8700215 132.27089,51.1330072 C133.503372,51.6943804 134.906752,51.9060694 136.257269,52.1762799 C140.294338,52.9811316 143.497924,54.8054139 144.337924,59.174299 C145.204717,63.6862368 144.497959,67.8427105 140.520993,70.7485574 C137.884407,72.675433 134.737303,72.6588158 131.669855,72.2600024 C126.502407,71.588811 123.899131,68.7826675 123.2322,63.2238445" id="Fill-17" fill="#000000"></path>
                        <path d="M216.407679,57.3727029 C216.288197,55.676301 216.362783,54.3844923 216.071679,53.1808273 C215.684266,51.5790713 215.219369,49.9267411 214.406886,48.5149995 C213.509679,46.9558703 211.498748,46.9197459 210.356059,48.3249852 C209.6913,49.1421191 209.012783,50.1810569 208.911403,51.1780904 C208.618852,54.0752675 208.418266,57.0114589 208.572507,59.9122483 C208.6623,61.6035928 209.263334,63.3801909 210.059162,64.8966933 C211.195334,67.060545 213.453197,67.0273105 214.747231,64.9559373 C215.267886,64.1229086 215.641541,63.134545 215.819679,62.169301 C216.137576,60.4468895 216.25561,58.6883536 216.407679,57.3727029 M208.087334,68.1269373 C208.087334,69.3024254 208.055472,70.1231718 208.0953,70.9403057 C208.133679,71.7148129 207.884576,72.0601622 207.040955,72.1035115 C203.552059,72.2805211 203.553507,72.3043632 203.553507,68.8638751 C203.553507,56.5526789 203.552783,44.2414828 203.553507,31.9295641 C203.553507,30.1710282 203.555679,30.1710282 205.244369,30.1623584 C208.360334,30.1471861 208.360334,30.1471861 208.360334,33.2553297 L208.360334,44.5478177 C208.442162,44.591167 208.523266,44.6337938 208.605093,44.6771431 C208.860714,44.3411861 209.120679,44.0088416 209.371231,43.6692722 C211.924541,40.2013297 215.703093,40.2468464 218.219472,43.7675306 C219.721334,45.8692483 220.437507,48.2570713 220.79161,50.7713297 C221.491852,55.7499947 221.518645,60.7221574 220.150748,65.5910043 C219.694541,67.2144349 218.957369,68.8371431 218.006576,70.22721 C215.601714,73.7435593 211.915852,73.6648081 209.428438,70.1845833 C209.025093,69.6203201 208.668093,69.0221 208.087334,68.1269373" id="Fill-19" fill="#FFFFFF"></path>
                        <path d="M91.9697897,103.035536 C88.5612724,103.354876 85.1614448,102.967622 81.8144793,102.167828 C70.4259621,99.4469383 61.8130655,92.8108856 55.3827207,83.2314167 C49.6113414,74.6359766 46.4837897,65.1208091 45.7386517,54.79501 C45.462031,50.9687134 45.6539276,47.1922684 46.2397552,43.4158234 C46.3367897,42.7865364 46.5279621,42.41879 47.2412379,42.4245699 C49.6229276,42.444077 52.0046172,42.4317947 54.5680655,42.4317947 C54.2320655,44.5537421 53.904031,46.3462349 53.6701345,48.1502876 C52.4905138,57.2680866 53.7468931,66.0896656 57.1039966,74.6128569 C60.7963759,83.9900292 66.6539276,91.6628522 75.2842034,97.07501 C80.2959621,100.219278 85.7914448,102.042115 91.6156862,102.94667 C91.735169,102.965455 91.8517552,103.005192 91.9697897,103.035536" id="Fill-21" fill="#000000"></path>
                        <path d="M194.607145,57.8630555 C194.057524,57.8941225 193.925731,57.8702804 193.820007,57.9121847 C192.696145,58.3637397 191.565041,58.79651 190.460007,59.2906919 C188.630834,60.1085483 187.771283,61.6684 188.011697,63.6314 C188.247766,65.5561081 189.19711,66.892711 190.439731,67.046601 C191.814145,67.2178306 193.50211,65.9975483 193.888076,64.1508689 C194.308076,62.1416297 194.372524,60.0579742 194.607145,57.8630555 M199.926662,72.0780077 C198.554421,72.0780077 197.30311,72.1235244 196.059766,72.0433282 C195.768662,72.025266 195.374007,71.6271751 195.258145,71.3172278 C195.019179,70.6749359 194.935903,69.9755675 194.753421,69.1389263 C194.043041,69.9553378 193.518766,70.6597636 192.892386,71.2579837 C190.267386,73.7635722 186.42149,73.2260411 184.695869,70.0420364 C182.718248,66.3949167 182.697248,62.5809024 184.166524,58.7611081 C185.0898,56.3617254 187.148524,55.2570411 189.443317,54.4695292 C190.75111,54.0208641 192.039352,53.5144 193.331214,53.0209407 C194.199455,52.6900411 194.543421,52.0470268 194.410903,51.1352469 C194.345731,50.6793569 194.303007,50.220577 194.236386,49.7654096 C194.011179,48.2091703 193.368869,47.5741033 191.813421,47.3551895 C190.292731,47.1406105 189.290524,47.6897014 188.682972,49.0718211 C187.7988,51.0846727 187.7988,51.0846727 185.708214,50.4568306 C183.554628,49.8102038 183.530007,49.8029789 184.182455,47.5690459 C184.834179,45.3343904 185.613352,43.1524766 187.854559,41.9531464 C193.381903,38.9960029 198.817283,42.3057206 199.006283,48.8131703 C199.121421,52.7868545 198.940386,56.7699311 199.091731,60.7407254 C199.227869,64.2816392 199.637731,67.8117158 199.92449,71.3468498 C199.937524,71.5079646 199.926662,71.6719694 199.926662,72.0780077" id="Fill-23" fill="#FFFFFF"></path>
                        <path d="M235.175162,50.3316234 C235.060748,50.0281785 234.929679,49.6828292 234.800059,49.3360349 C234.010024,47.21481 232.315541,46.4106809 230.172817,47.124499 C229.256059,47.4301115 228.650679,48.002322 228.521783,48.9812933 C228.390714,49.9812167 228.673852,50.8554273 229.600748,51.3344368 C230.902748,52.0070732 232.230093,52.6406952 233.587128,53.1941211 C236.572748,54.4107909 239.144162,55.9995421 239.896541,59.45159 C240.772024,63.4686234 240.281783,67.2494033 237.62999,70.4897622 C234.888403,73.8392167 228.553645,73.6434225 225.984403,70.0324273 C224.829403,68.4097191 224.276886,66.3506282 223.53899,64.4562646 C223.434714,64.188944 223.751162,63.4823507 224.010403,63.3970971 C225.312403,62.9679392 226.660748,62.677499 227.964197,62.345877 C228.386369,63.4187718 228.655024,64.3962981 229.135852,65.2560589 C230.0613,66.9127239 231.832541,67.4538675 233.58061,66.7212646 C234.806576,66.2075756 235.300438,65.2531689 235.343162,63.9432981 C235.385886,62.6543794 234.944886,61.7686091 233.709507,61.2867096 C232.419093,60.7838579 231.151852,60.2239297 229.870128,59.7030158 C225.195817,57.8021498 223.737403,54.4924321 224.081369,49.1604703 C224.1603,47.9293507 224.516576,46.6794464 224.950334,45.5147957 C225.971369,42.7678962 228.017059,41.3120828 230.966472,41.1502455 C234.141093,40.9754033 236.756679,41.8351641 238.298369,44.894901 C240.160852,48.5882598 239.599645,49.7362933 235.496679,50.4024273 C235.421369,50.4147096 235.336645,50.3691928 235.175162,50.3316234" id="Fill-25" fill="#FFFFFF"></path>
                        <path d="M163.461466,51.3511986 C163.460017,44.9441746 163.488259,38.5378732 163.435397,32.1315718 C163.425259,30.9134569 163.809776,30.5558254 165.012569,30.5731651 C168.518121,30.6244617 168.518845,30.578945 168.518845,34.0743421 C168.518845,43.8308206 168.518121,53.587299 168.519569,63.3437775 C168.519569,64.9881603 168.524638,64.9910502 170.192328,64.9932177 C173.340155,64.9968301 176.487259,65.0250072 179.635086,64.9823804 C180.62281,64.9686531 180.976914,65.3140024 180.939983,66.2951411 C180.880603,67.841988 180.903052,69.3938923 180.933466,70.9421842 C180.948672,71.7051316 180.732879,72.1003325 179.8755,72.0959976 C174.755845,72.0750455 169.634741,72.0685431 164.515086,72.1017775 C163.407879,72.1090024 163.458569,71.4414234 163.459293,70.6965383 C163.464362,64.2483325 163.46219,57.7994043 163.461466,51.3511986" id="Fill-27" fill="#FFFFFF"></path>
                        <path d="M34.3810552,45.3521636 C34.7590552,44.664355 35.0899862,43.9462019 35.5237448,43.2945177 C37.3080207,40.6148096 40.1191241,41.0670871 42.2908138,42.7786612 C42.4559172,42.9094316 42.538469,43.3219722 42.4696759,43.5459435 C41.7542276,45.8990871 40.9996759,48.2406708 40.2436759,50.6234364 C40.0162966,50.5902019 39.829469,50.6147665 39.7063655,50.5381828 C37.8091241,49.3590823 36.0936414,50.1429818 35.661331,52.3906421 C35.094331,55.326111 34.8394345,58.3352737 34.6605724,61.3256517 C34.5005379,63.9938 34.5809172,66.680733 34.6504345,69.3568287 C34.6765034,70.3798718 34.3158828,70.6508048 33.3527793,70.6168478 C31.5518483,70.5547139 29.7465724,70.5792785 27.9427448,70.6045656 C27.2005034,70.6146804 26.8963655,70.3415799 26.8978138,69.5764651 C26.9130207,60.7057569 26.8999862,51.8350488 26.9376414,42.9643407 C26.9383655,42.6580057 27.3742966,42.09591 27.6226759,42.0872402 C29.749469,42.0171589 31.8806069,42.0467809 34.1674345,42.0467809 L34.1674345,45.3326565 C34.2384,45.3391589 34.3093655,45.3456612 34.3810552,45.3521636" id="Fill-29" fill="#000000"></path>
                        <path d="M49.7626138,35.7661923 C49.9284414,32.856733 50.9053034,30.6228 53.181269,29.1445895 C56.331269,27.0985033 59.8686828,27.0334794 63.5357172,27.3622115 C60.5797862,29.4559818 57.1278207,31.1610536 58.0489241,35.7661923 L49.7626138,35.7661923 Z" id="Fill-31" fill="#000000"></path>
                        <path d="M63.874831,143.847946 C64.1203138,143.197707 64.4867276,142.655841 64.5041069,142.102415 C64.5692793,140.13797 64.5511759,138.168468 64.4765897,136.2033 C64.4606586,135.785702 64.0855552,135.045875 63.8625207,135.04154 C63.4077621,135.030702 62.6800034,135.311028 62.5330034,135.664324 C62.078969,136.764674 61.7487621,137.939439 61.5517966,139.114927 C61.3946586,140.052717 61.5250034,141.036023 61.4851759,141.996932 C61.4511414,142.800339 61.4996586,143.515602 62.5112793,143.838554 L58.645831,143.838554 C59.7226241,143.458525 59.7182793,142.658009 59.7095897,141.744061 C59.6704862,137.76821 59.6704862,133.792358 59.7066931,129.816506 C59.7153828,128.857765 59.6951069,128.045688 58.3257621,128.056525 C58.3634172,127.94165 58.3996241,127.827497 58.4372793,127.712621 C59.369969,127.624478 60.3026586,127.535611 61.4040724,127.431573 L61.4040724,135.749578 C61.5489,135.843501 61.6944517,135.937425 61.8392793,136.032071 C61.9551414,135.782812 62.0297276,135.504655 62.1904862,135.290076 C62.7842793,134.497506 63.5533138,134.017052 64.577969,134.290875 C65.7025552,134.592152 66.2029345,135.449023 66.2543483,136.539257 C66.3376241,138.294181 66.3694862,140.051272 66.3846931,141.808363 C66.3919345,142.618994 66.2529,143.45708 67.3579345,143.847946 L63.874831,143.847946 Z" id="Fill-33" fill="#FFFFFF"></path>
                        <path d="M117.5685,139.256968 C117.60181,139.257691 117.635845,139.258413 117.669879,139.259136 C117.669879,140.178863 117.548948,141.120988 117.712603,142.01037 C117.818328,142.582581 118.299155,143.469074 118.69019,143.512423 C119.234017,143.572389 120.141362,143.120834 120.386845,142.6346 C121.5375,140.355873 121.526638,137.940595 120.513569,135.624299 C120.308638,135.155404 119.362914,134.775375 118.771293,134.79416 C118.409224,134.80572 117.872638,135.614906 117.76981,136.13582 C117.570672,137.150193 117.621362,138.213696 117.5685,139.256968 M121.1175,135.150346 C121.1175,133.026954 121.191362,130.99315 121.056672,128.972351 C121.029155,128.558366 120.223914,128.194954 119.652569,127.700772 C120.66419,127.620576 121.711293,127.53749 122.8815,127.445011 C122.910466,128.073576 122.95319,128.5627 122.953914,129.051825 C122.958983,133.399035 122.933638,137.746246 122.987224,142.092011 C122.994466,142.641825 123.4065,143.185858 123.675879,143.841155 C122.672948,144.570145 121.284776,144.228409 120.978466,142.777653 C120.786569,143.016074 120.642466,143.202476 120.491121,143.382375 C119.507741,144.552083 118.202121,144.636614 117.110845,143.602734 C114.908017,141.514744 114.956534,136.848193 117.201362,134.819447 C118.289017,133.837586 119.336845,133.901887 121.1175,135.150346" id="Fill-35" fill="#FFFFFF"></path>
                        <path d="M80.6388414,143.865647 L76.8001862,143.865647 C78.1738759,143.408312 77.8219448,142.280509 77.8313586,141.317432 C77.8458414,139.767695 77.8052897,138.217958 77.8458414,136.669667 C77.8697379,135.760777 77.9363586,134.895236 76.5518069,134.843217 C76.5952552,134.735566 76.6394276,134.627915 76.6828759,134.520265 C77.5771862,134.427786 78.4714966,134.334585 79.5099103,134.226212 C79.5808759,134.876451 79.6409793,135.4306 79.7220828,136.179097 C79.9863931,135.773059 80.1522207,135.502848 80.332531,135.243475 C80.9371862,134.37071 81.8372897,133.776824 82.7917034,134.223322 C83.4680483,134.539772 84.2110138,135.400255 84.3181862,136.109738 C84.5933586,137.916681 84.5506345,139.774198 84.5940828,141.61293 C84.6295655,143.106312 84.6034966,143.107035 85.9931172,143.86059 L82.0748069,143.86059 C82.2920483,143.145327 82.6389103,142.490753 82.6642552,141.824619 C82.7359448,139.94326 82.7098759,138.055399 82.6389103,136.17404 C82.6222552,135.752829 82.264531,135.001442 82.0588759,134.999997 C81.5939793,134.995662 80.8662207,135.248533 80.7076345,135.603274 C80.2362207,136.650882 79.8871862,137.780853 79.6873241,138.912992 C79.5222207,139.848614 79.6236,140.834088 79.6351862,141.796442 C79.6453241,142.594068 79.3209103,143.587489 81.0030828,143.528245 C80.8821517,143.640231 80.7604966,143.752939 80.6388414,143.865647" id="Fill-37" fill="#FFFFFF"></path>
                        <path d="M225.54,143.880458 L221.972897,143.880458 C222.153207,143.017808 222.450103,142.159492 222.490655,141.289616 C222.568138,139.620669 222.546414,137.942329 222.462414,136.273382 C222.439966,135.815324 222.049655,135.376052 221.828069,134.928832 C221.347966,135.19832 220.611517,135.357989 220.437,135.759693 C219.981517,136.810913 219.670138,137.953167 219.493448,139.088918 C219.342103,140.070056 219.37831,141.100324 219.484034,142.0923 C219.544862,142.661621 219.909828,143.19843 220.168345,143.824104 L216.646862,143.824104 C217.872103,143.476588 217.662103,142.502674 217.660655,141.626296 C217.659207,139.953013 217.661379,138.280454 217.657034,136.607171 C217.653414,135.266956 217.650517,135.266956 216.285517,134.523516 C217.460069,134.416588 218.323966,134.337836 219.329069,134.246803 C219.402207,134.8732 219.465931,135.420123 219.555724,136.187406 C220.350103,134.796616 221.24731,133.675315 222.807828,134.233076 C224.348069,134.784334 224.302448,136.335516 224.395862,137.646832 C224.495793,139.062186 224.421931,140.489822 224.429897,141.911678 C224.437138,143.174588 224.440034,143.174588 225.54,143.880458" id="Fill-39" fill="#FFFFFF"></path>
                        <path d="M211.063614,134.432338 C211.913028,134.432338 212.774028,134.352864 213.601717,134.483634 C213.832717,134.520481 214.108614,135.175056 214.118028,135.552917 C214.167993,137.602615 214.165821,139.654481 214.130338,141.704902 C214.115855,142.594285 214.047062,143.448266 215.181786,143.912826 C214.303407,143.971347 213.424303,144.030591 212.453234,144.095615 C212.3772,143.538577 212.312752,143.064625 212.246855,142.582003 C212.138959,142.61018 212.020924,142.605122 211.991234,142.653529 C211.351821,143.698247 210.511097,144.394725 209.202579,144.115122 C207.81151,143.81818 207.541407,142.714941 207.497959,141.52428 C207.437855,139.89507 207.398028,138.263692 207.399476,136.633036 C207.4002,135.760271 207.440028,134.925075 206.172786,134.800807 C206.213338,134.688821 206.25389,134.577558 206.295166,134.465572 C207.156166,134.465572 208.030924,134.389711 208.871648,134.521926 C209.069338,134.552993 209.268476,135.279816 209.27789,135.690912 C209.325683,137.782515 209.268476,139.877008 209.346683,141.967166 C209.364786,142.463515 209.759441,142.946137 209.981028,143.434539 C210.456786,143.147711 211.179476,142.967089 211.359062,142.553103 C211.813821,141.502606 212.106372,140.361075 212.306234,139.228936 C212.44889,138.416137 212.291752,137.556376 212.348959,136.722625 C212.418476,135.711864 212.332303,134.860773 210.923855,134.834041 C210.9702,134.700381 211.017269,134.566721 211.063614,134.432338" id="Fill-41" fill="#FFFFFF"></path>
                        <path d="M45.4891862,134.523371 L49.1359448,134.523371 L49.1743241,134.748788 C48.8709103,134.904122 48.5674966,135.059457 48.1967379,135.248749 C48.7427379,137.00584 49.2713586,138.703687 49.7992552,140.402256 C49.9049793,140.408036 50.0107034,140.413094 50.1164276,140.418874 C50.7218069,138.463099 51.3271862,136.507323 51.9325655,134.552271 C52.0520483,134.543601 52.1708069,134.535654 52.2895655,134.526984 C52.9253586,136.478424 53.5604276,138.429142 54.1962207,140.379859 L54.4699448,140.405869 C54.9471517,138.715247 55.4243586,137.025347 55.9225655,135.258864 C55.4779448,135.092692 55.1173241,134.956864 54.7567034,134.821759 C54.7610483,134.738673 54.7653931,134.655587 54.7682897,134.5725 L57.3918414,134.5725 C56.1101172,135.032003 56.150669,136.247228 55.8559448,137.261601 C55.1948069,139.538883 54.5496,141.821223 53.8971517,144.100673 C53.7617379,144.116567 53.6263241,144.132462 53.4909103,144.148357 C52.8420828,142.175242 52.1939793,140.201405 51.5458759,138.22829 C51.4640483,138.221065 51.3829448,138.21384 51.3011172,138.206615 C50.6841517,140.204295 50.0671862,142.201974 49.3437724,144.542835 C49.0657034,143.943893 48.9078414,143.680907 48.8180483,143.396247 C48.0837724,141.084285 47.3972897,138.755706 46.6152207,136.460362 C46.385669,135.788448 45.8954276,135.2054 45.4891862,134.523371" id="Fill-43" fill="#FFFFFF"></path>
                        <path d="M138.834403,141.623333 C139.195024,142.106678 139.58099,142.623979 139.967679,143.141281 C140.477472,142.715013 141.044472,142.337874 141.472438,141.841525 C141.686783,141.592989 141.725886,141.123372 141.706334,140.761405 C141.678817,140.257831 141.521679,139.760759 141.4203,139.260798 C140.780162,139.472487 140.043714,139.556295 139.5303,139.938491 C139.172576,140.205089 139.119714,140.880616 138.834403,141.623333 M144.823748,143.273496 C144.365369,143.615233 143.8563,144.287147 143.458024,144.22718 C142.7853,144.12531 142.182817,143.561046 141.395679,143.100099 C141.275472,143.209917 140.938748,143.565381 140.553507,143.857989 C139.329714,144.784941 137.81699,144.318214 137.313714,142.877573 C136.672128,141.036673 137.722852,139.372783 139.897438,138.786845 C141.925024,138.240644 141.997438,138.080975 141.641162,135.973477 C141.494162,135.102156 141.104576,134.716348 140.208817,134.829056 C139.294231,134.943932 139.009645,135.360807 139.239197,136.287037 C139.326817,136.641056 139.042231,137.120788 138.834403,137.491424 C138.775024,137.596908 138.23699,137.608467 138.179783,137.510932 C137.960369,137.13885 137.615679,136.599874 137.743852,136.315214 C138.031334,135.678702 138.462921,134.941042 139.041507,134.646267 C139.7403,134.29008 140.654162,134.238061 141.470266,134.2554 C142.670162,134.28141 143.439921,134.942487 143.4783,136.211176 C143.535507,138.131549 143.552162,140.053367 143.582576,141.974463 C143.592714,142.660104 143.59561,143.342133 144.817231,142.721515 C144.819403,142.905027 144.8223,143.089262 144.823748,143.273496" id="Fill-45" fill="#FFFFFF"></path>
                        <path d="M151.361121,128.165621 C150.170638,127.787037 149.538466,128.328181 149.419707,129.239238 C149.227086,130.722506 149.151052,132.238286 149.242293,133.727334 C149.264017,134.082798 150.141672,134.385521 150.799914,134.829851 C148.679638,134.782167 149.172052,136.245927 149.155397,137.412745 C149.137293,138.750793 149.142362,140.090286 149.153224,141.429056 C149.161914,142.421033 148.794776,143.643482 150.460293,143.855171 L146.177741,143.855171 C147.617328,143.498262 147.369672,142.400803 147.355914,141.394377 C147.335638,139.929894 147.333466,138.464688 147.356638,137.000927 C147.372569,135.968492 147.5355,134.886927 145.893879,134.681018 C147.342879,134.511233 147.342155,133.616071 147.407328,132.615425 C147.519569,130.877841 147.950431,129.206004 149.354534,127.998004 C150.639879,126.891875 152.341603,127.34632 152.577672,128.882329 C152.648638,129.348334 152.372017,129.893812 152.156948,130.35765 C152.109155,130.459521 151.436431,130.440736 151.406017,130.353315 C151.24019,129.883698 151.159086,129.377233 151.108397,128.877994 C151.090293,128.695927 151.237293,128.496521 151.361121,128.165621" id="Fill-47" fill="#FFFFFF"></path>
                        <path d="M202.7445,139.273513 L202.730017,139.273513 C202.730017,138.27359 202.81619,137.264274 202.704672,136.276633 C202.607638,135.402422 202.157948,134.666207 201.098534,134.697274 C200.04419,134.728341 199.610431,135.474671 199.576397,136.360442 C199.503983,138.233131 199.493845,140.113767 199.58219,141.985011 C199.624914,142.898958 200.057948,143.714647 201.197017,143.692973 C202.268017,143.672743 202.627914,142.883064 202.722052,142.021858 C202.821259,141.115135 202.7445,140.190351 202.7445,139.273513 M205.116776,139.036537 C204.922707,140.727159 204.498362,142.175748 203.331776,143.341121 C201.890741,144.780317 199.684293,144.625705 198.543776,142.943753 C197.025259,140.704762 196.91519,138.325609 198.228776,135.968131 C199.639397,133.436533 202.600397,133.390293 204.047948,135.905997 C204.588155,136.843786 204.771362,137.986762 205.116776,139.036537" id="Fill-49" fill="#FFFFFF"></path>
                        <path d="M95.9242345,134.725885 C94.499131,135.346502 94.4998552,135.346502 94.499131,137.186679 C94.4984069,138.734248 94.5331655,140.283263 94.4824759,141.829387 C94.4506138,142.801856 94.5070966,143.616822 95.9097517,143.512784 C95.0820621,144.119674 92.6047862,144.184698 91.2759931,143.632717 C92.7887172,143.520732 92.7286138,142.58511 92.7039931,141.611918 C92.6648897,140.106976 92.7068897,138.599866 92.6873379,137.0942 C92.6743034,136.073325 93.1435448,134.772846 91.1239241,134.705655 C92.6656138,134.532258 92.6815448,133.66744 92.745269,132.653067 C92.8517172,130.965334 93.2174069,129.258095 94.6084759,128.141851 C95.1646138,127.696076 96.1646483,127.477162 96.8562,127.631775 C97.3305103,127.737258 97.7345793,128.625918 97.9453034,129.241478 C98.0474069,129.539143 97.6730276,130.042717 97.4253724,130.388789 C97.3507862,130.49355 96.8199931,130.46465 96.767131,130.360612 C96.5730621,129.980583 96.4340276,129.548535 96.3920276,129.125157 C96.3659586,128.864339 96.5542345,128.583291 96.6440276,128.315248 C95.6526828,127.860803 94.9249241,128.130291 94.7590966,129.251593 C94.5396828,130.728358 94.4976828,132.248473 94.5809586,133.739689 C94.6005103,134.084315 95.433269,134.383425 95.9242345,134.725885" id="Fill-51" fill="#FFFFFF"></path>
                        <path d="M111.912548,139.318308 C111.823479,138.246858 111.777134,137.120499 111.622893,136.00859 C111.505583,135.171226 110.981307,134.651035 110.072514,134.693662 C109.168066,134.736289 108.653203,135.321504 108.62279,136.138638 C108.549652,138.135595 108.543134,140.138332 108.608307,142.135289 C108.635824,142.982044 109.094203,143.664796 110.083376,143.69803 C110.992893,143.729097 111.497617,143.173504 111.62941,142.357815 C111.787997,141.375231 111.820583,140.37314 111.912548,139.318308 M113.892341,139.070494 C113.945203,140.687422 113.4651,142.04281 112.467962,143.195901 C111.123238,144.747805 108.965307,144.692174 107.661134,143.1027 C105.983307,141.057336 105.894962,137.591561 107.469962,135.479729 C108.766893,133.739255 111.128307,133.610652 112.5831,135.219633 C113.5911,136.335155 113.964031,137.676092 113.892341,139.070494" id="Fill-53" fill="#FFFFFF"></path>
                        <path d="M99.2104448,139.187826 C99.2987897,140.209424 99.3458586,141.251975 99.4899621,142.280798 C99.6130655,143.160066 100.104031,143.757563 101.08741,143.697597 C102.075859,143.63763 102.491514,142.936094 102.516859,142.087893 C102.575514,140.131396 102.561755,138.171286 102.519031,136.213343 C102.500928,135.371644 102.031686,134.769089 101.141721,134.700453 C100.202514,134.628204 99.610169,135.147673 99.4798241,136.050783 C99.3313759,137.078884 99.2966172,138.123601 99.2104448,139.187826 M96.9656172,139.082343 C97.3921345,137.930697 97.6448586,136.6714 98.2806517,135.64908 C99.6072724,133.514128 102.423445,133.595769 103.809445,135.687372 C105.230928,137.833884 105.064376,141.113979 103.432893,143.089262 C102.13379,144.662841 99.9968586,144.724975 98.6173759,143.217142 C97.5709966,142.074889 97.2125483,140.686989 96.9656172,139.082343" id="Fill-55" fill="#FFFFFF"></path>
                        <path d="M155.452066,137.894862 C156.384755,138.021297 156.98941,137.720742 156.875721,136.694809 C156.781583,135.843718 156.811272,134.832235 155.600514,134.701465 C154.72141,134.606096 154.236962,135.380603 154.171066,136.64568 C154.119652,137.632599 154.461445,138.074039 155.452066,137.894862 M158.481859,140.980608 C158.531824,142.253632 158.103134,143.299072 156.995203,143.953646 C155.9901,144.546809 154.979203,144.436268 154.054479,143.741957 C151.46641,141.798465 151.42441,136.699144 153.969031,134.706522 C155.16241,133.771622 156.714238,133.89589 157.662134,135.087273 C158.041583,135.564115 158.308066,136.162335 158.503583,136.746106 C158.992376,138.209867 158.796134,138.45479 157.294272,138.459847 C157.210272,138.46057 157.125548,138.446843 157.042997,138.456957 C156.121169,138.569666 155.199341,138.685986 154.278238,138.801584 C154.3731,140.203211 154.303583,141.642407 154.617859,142.99346 C154.849583,143.993383 156.409376,144.023728 157.223307,143.064986 C157.741066,142.453761 158.068376,141.680699 158.481859,140.980608" id="Fill-57" fill="#FFFFFF"></path>
                        <path d="M72.1465138,137.874054 C73.2073759,138.147155 73.5824793,137.540987 73.5086172,136.574298 C73.4448931,135.746327 73.3789966,134.82082 72.2522379,134.703777 C71.3644448,134.612021 70.8553759,135.387973 70.798169,136.63282 C70.7525483,137.599509 71.0617552,138.082853 72.1465138,137.874054 M75.2117897,140.8377 C75.1734103,142.497978 74.3558586,143.794121 73.2211345,144.17415 C72.0205138,144.575131 70.7402379,144.083839 69.8292724,142.870781 C68.1536172,140.640461 68.4389276,136.705791 70.4064103,134.890178 C71.3716862,133.999351 72.5911345,133.847628 73.6317207,134.489198 C74.6571,135.120652 75.6165828,137.004178 75.2907207,137.926796 C75.2052724,138.169552 74.7577552,138.406528 74.4601345,138.429647 C73.5441,138.499729 72.6121345,138.39858 71.7026172,138.506954 C71.3818241,138.545245 70.8713069,138.987408 70.8597207,139.262676 C70.8141,140.297279 70.8423414,141.358614 71.0422034,142.37082 C71.1356172,142.850552 71.6302034,143.536193 72.0313759,143.602662 C72.5947552,143.696585 73.3985483,143.467556 73.8134793,143.075245 C74.3841,142.534824 74.6889621,141.713356 75.2117897,140.8377" id="Fill-59" fill="#FFFFFF"></path>
                        <path d="M167.438576,134.5876 C168.790541,134.549309 169.092507,133.778414 168.98099,132.66217 C168.911472,131.962801 169.340886,131.577715 169.960748,131.727993 C170.289507,131.807467 170.779024,132.367395 170.7363,132.636883 C170.490093,134.17506 171.384403,134.542806 172.630645,134.469112 C172.600955,134.706811 172.606024,134.775447 172.588645,134.78195 C170.791334,135.429299 170.789886,135.428577 170.791334,137.45949 C170.792059,138.879902 170.737024,140.304648 170.82899,141.720002 C170.863748,142.269816 171.235955,142.797955 171.455369,143.336208 C171.923886,142.978577 172.396024,142.624557 172.860921,142.261868 C172.95361,142.188897 173.021679,142.085581 173.116541,141.978653 C173.238197,143.158476 172.503197,143.998007 171.232334,144.169959 C169.996955,144.336132 169.116403,143.742969 169.049783,142.508959 C168.952024,140.716467 168.988231,138.916749 168.979541,137.119921 C168.971576,135.318036 168.978817,135.318036 167.438576,134.5876" id="Fill-61" fill="#FFFFFF"></path>
                        <path d="M226.514472,134.662017 C227.86861,134.553644 228.113369,133.83549 228.001852,132.820395 C227.922197,132.100074 228.279921,131.73883 229.008403,131.694758 C229.878817,131.641294 229.841886,132.256132 229.786128,132.78716 C229.667369,133.919299 229.978024,134.576763 231.268438,134.404089 C231.435714,134.381691 231.622541,134.508127 231.810817,134.569538 C231.738403,134.723428 231.717403,134.844806 231.670334,134.855644 C229.799886,135.281189 229.798438,135.279744 229.799886,137.321495 C229.801334,138.785978 229.744852,140.254797 229.846231,141.712055 C229.883886,142.258256 230.297369,142.777725 230.539231,143.310199 C231.010645,142.959792 231.487128,142.61661 231.949852,142.254644 C232.058472,142.16939 232.118576,142.022725 232.300334,141.762629 C232.227197,143.350658 231.433541,144.134557 230.038852,144.190911 C228.930197,144.236428 228.168403,143.632428 228.084403,142.359404 C227.966369,140.567634 228.009817,138.764304 227.997507,136.966031 C227.989541,135.95238 228.2553,134.79351 226.514472,134.662017" id="Fill-63" fill="#FFFFFF"></path>
                        <path d="M163.913328,135.362252 C163.681603,135.963362 163.295638,136.551467 163.245672,137.16775 C163.0965,138.995644 163.011052,140.836544 163.066086,142.668051 C163.077672,143.052415 163.796741,143.415104 164.262362,143.857989 L159.95519,143.857989 C161.719914,143.410046 161.177534,142.014922 161.202155,140.884951 C161.231845,139.546903 161.169569,138.205965 161.225328,136.869362 C161.270224,135.796467 161.282534,134.824721 159.685086,134.875295 C159.726362,134.769089 159.767638,134.662884 159.809638,134.5574 L162.916914,134.5574 C162.953121,134.847118 163.003086,135.250989 163.071879,135.80586 C163.379638,135.389707 163.594707,135.023405 163.881466,134.726463 C164.4615,134.128243 165.294983,133.925946 165.688914,134.674444 C165.984362,135.236539 165.696879,136.103525 165.668638,136.834683 C165.263845,136.733534 164.767086,136.740037 164.483948,136.497281 C164.265259,136.309434 164.313776,135.81164 164.24281,135.451118 C164.133466,135.421496 164.022672,135.391874 163.913328,135.362252" id="Fill-65" fill="#FFFFFF"></path>
                        <path d="M195.691903,140.919919 C195.759248,142.637996 194.927214,143.89946 193.760628,144.210852 C192.381145,144.579321 191.141421,143.966651 190.216697,142.460264 C189.008834,140.490039 189.129041,137.401402 190.483179,135.563393 C191.773593,133.812804 194.045214,133.533201 195.191524,135.043924 C195.519559,135.476694 195.772283,136.126933 195.715076,136.6399 C195.666559,137.076283 195.122731,137.458479 194.798317,137.864517 C194.538352,137.40646 194.042317,136.932508 194.072007,136.49468 C194.123421,135.734622 194.743283,134.902316 193.411593,134.702187 C192.404317,134.550465 191.592559,135.184809 191.527386,136.407259 C191.429628,138.239489 191.447007,140.084 191.541869,141.91623 C191.581697,142.68857 191.850352,143.525933 192.851834,143.679823 C193.875041,143.837326 194.52749,143.291125 194.978628,142.458819 C195.247283,141.962469 195.456559,141.433608 195.691903,140.919919" id="Fill-67" fill="#FFFFFF"></path>
                        <path d="M130.122807,143.481428 L130.122807,140.444811 C130.741221,141.496754 131.122841,142.376022 131.708669,143.086227 C132.533462,144.083261 133.902807,143.876629 134.546566,142.768333 C135.13529,141.755404 134.771772,140.762706 133.654428,140.3834 C133.259048,140.249017 132.841945,140.18038 132.440048,140.063337 C130.43129,139.475232 129.557979,137.652395 130.353807,135.717572 C130.965703,134.232136 132.130841,133.779136 133.607359,134.405533 C133.988255,134.567371 134.428531,134.59049 134.968738,134.704644 C134.968738,135.178596 134.978876,135.716127 134.962945,136.252935 C134.9586,136.407548 134.879669,136.55927 134.754393,136.992763 C134.429979,136.381538 134.243152,135.956715 133.994772,135.571629 C133.26991,134.44816 131.856393,134.367242 131.174979,135.393897 C130.6746,136.148175 130.91429,137.014438 131.750669,137.358342 C132.096083,137.500672 132.47191,137.588093 132.842669,137.645892 C136.023807,138.142964 136.007152,141.936749 134.688497,143.4966 C133.954221,144.365754 133.046152,144.550711 131.9766,144.050749 C131.436393,143.797878 130.828841,143.692395 130.122807,143.481428" id="Fill-69" fill="#FFFFFF"></path>
                        <path d="M233.874683,140.216144 C234.467028,141.361287 234.767545,142.26801 235.343234,142.938478 C235.711821,143.366191 236.538786,143.708651 237.066683,143.607502 C237.598924,143.505632 238.185476,142.887904 238.441821,142.350373 C238.827786,141.541909 238.549717,140.776794 237.601097,140.448062 C237.087683,140.27033 236.551097,140.1569 236.03189,139.992172 C234.068752,139.370833 233.222234,137.085603 234.293959,135.319842 C235.022441,134.120512 236.092717,133.830794 237.435269,134.420344 C237.761855,134.56412 238.149269,134.570622 238.59751,134.657321 L238.59751,136.735196 C238.514959,136.752536 238.432407,136.769876 238.349855,136.787215 C238.163028,136.393459 238.006614,135.980919 237.782855,135.608115 C237.072476,134.4189 235.564097,134.349541 234.907303,135.477344 C234.444579,136.271359 234.600993,136.933158 235.465614,137.333416 C235.766131,137.472856 236.103579,137.555943 236.433062,137.602904 C239.564234,138.050124 239.701821,141.120699 238.821269,142.921139 C238.178959,144.235344 236.931269,144.607426 235.653166,144.009206 C235.15351,143.774397 234.577821,143.699258 233.874683,143.507077 L233.874683,140.216144 Z" id="Fill-71" fill="#FFFFFF"></path>
                        <path d="M241.694503,32.1427703 L245.391228,32.1427703 C243.491814,32.7836172 244.3014,34.3369665 244.160917,35.5334067 C244.127607,35.8209569 244.210883,36.148244 244.097917,36.3931675 C244.003779,36.5983541 243.717021,36.7890909 243.488193,36.8273828 C243.364366,36.8483349 243.072538,36.5506699 243.05009,36.3722153 C242.984193,35.8397416 243.018228,35.2949856 243.005193,34.7552871 C242.977676,33.735134 243.383917,32.4693349 241.438159,32.524244 C241.523607,32.3970861 241.609055,32.2699282 241.694503,32.1427703" id="Fill-73" fill="#000000"></path>
                        <path d="M142.116341,20.4214134 C148.178824,29.1996431 151.731445,39.8375569 151.731445,51.3041646 C151.731445,81.4008488 127.278031,105.798547 97.1133414,105.798547 C66.9472034,105.798547 42.4937897,81.4008488 42.4937897,51.3041646 C42.4937897,45.5690545 43.3844793,40.0420211 45.031169,34.8494995 C42.4365828,41.3381646 41.0078586,48.4163799 41.0078586,55.8276622 C41.0078586,87.1164517 66.430169,112.480839 97.7911345,112.480839 C129.151376,112.480839 154.573686,87.1164517 154.573686,55.8276622 C154.573686,42.429844 149.909514,30.1208153 142.116341,20.4214134" id="Fill-75" fill="#F8F196"></path>
                    </g>
                </g>
            </g>
        </g>
    </g>
</svg>