<?xml version="1.0" encoding="UTF-8" standalone="no"?>
<svg width="147px" height="179px" viewBox="0 0 147 179" version="1.1" xmlns="http://www.w3.org/2000/svg" xmlns:xlink="http://www.w3.org/1999/xlink">
    <!-- Generator: Sketch 46 (44423) - http://www.bohemiancoding.com/sketch -->
    <title>Honestidad</title>
    <desc>Created with Sketch.</desc>
    <defs>
        <polygon id="path-1" points="9.26581934e-15 103.491468 9.26581934e-15 0.0342935079 146.525522 0.0342935079 146.525522 103.491468 0 103.491468"></polygon>
        <polygon id="path-3" points="0.140500332 0.0530823786 69.8860123 0.0530823786 69.8860123 69.7207638 0.140500332 69.7207638 0.140500332 0.0530823786"></polygon>
    </defs>
    <g id="2.1-We-are" stroke="none" stroke-width="1" fill="none" fill-rule="evenodd">
        <g id="2.1-We-Are-Valores" transform="translate(-341.000000, -691.000000)">
            <g id="Honestidad" transform="translate(341.000000, 691.000000)">
                <g id="Group-3" transform="translate(0.000000, 75.178778)">
                    <mask id="mask-2" fill="white">
                        <use xlink:href="#path-1"></use>
                    </mask>
                    <g id="Clip-2"></g>
                    <path d="M94.6570047,0.0342935079 L51.8684408,0.0342935079 C23.2216656,0.0342935079 -7.64627657e-05,23.2301473 -7.64627657e-05,51.8449864 L-7.64627657e-05,74.460371 L-7.64627657e-05,86.8182542 C-7.64627657e-05,88.861353 0.39752992,90.8166176 1.11627992,92.6038516 C1.20038896,92.8558974 1.28832114,93.1079433 1.38772274,93.3599891 C1.46418551,93.5547518 1.54447141,93.7495145 1.62858045,93.9404583 C2.04147939,94.8989962 2.54231051,95.7964321 3.11578125,96.6289471 C3.34516955,96.9611893 3.58602726,97.2819749 3.83835439,97.5951227 C3.96451795,97.7516967 4.09068152,97.9044517 4.22449136,98.0533879 C4.4882879,98.3512602 4.75973072,98.6414948 5.04264295,98.9202728 C5.32173205,99.1952319 5.61229056,99.4587343 5.91431848,99.7184179 L5.91814162,99.7184179 C6.51837434,100.226328 7.15301529,100.684594 7.81824136,101.100851 L7.82206449,101.100851 C8.15467753,101.30707 8.4911137,101.498014 8.83901928,101.68132 L8.84284242,101.68132 C9.18692487,101.860807 9.53865359,102.028838 9.89802859,102.185412 C11.870768,103.037021 14.0193717,103.491468 16.2062068,103.491468 C18.1215991,103.491468 20.0675765,103.14395 21.9600299,102.410726 L22.1473637,102.338167 L29.5986602,99.4472777 L34.56874,97.5149264 L92.1452028,75.1668631 C98.4380884,72.7227823 102.291812,66.7233279 102.291812,60.3610802 C102.291812,58.4478232 101.940083,56.5040153 101.206041,54.6136716 C100.670801,53.2388762 99.9635206,51.9824659 99.1224302,50.8558974 C98.8815725,50.5351118 98.6292453,50.221964 98.3692719,49.9202728 C97.4517188,48.8700818 96.4041789,47.9573704 95.2648836,47.1935952 C94.9399169,46.9721004 94.6073039,46.7658811 94.2670445,46.5749373 C91.8890525,45.2192362 89.1708012,44.4821931 86.3837334,44.4821931 C85.4241257,44.4821931 84.4606948,44.5700273 83.497264,44.7495145 C83.137889,44.8144354 82.778514,44.8946318 82.419139,44.9901037 L82.4153158,44.9901037 C82.1782813,45.0512057 81.9374235,45.1199454 81.700389,45.1925041 C81.341014,45.3032515 80.9854621,45.4292744 80.6299102,45.566754 L34.56874,63.4429133 L29.5986602,65.3714457 L29.5986602,60.0479324 L29.5986602,45.0015603 C29.5986602,43.6305837 30.7111935,42.5192908 32.0837001,42.5192908 C33.4562068,42.5192908 34.56874,43.6305837 34.56874,45.0015603 L34.56874,58.1193999 L78.8292121,40.9382761 C81.2569049,39.9950136 83.7992919,39.5176541 86.3837334,39.5176541 C90.5433078,39.5176541 94.5728956,40.7473322 98.0366589,43.0730278 C101.588354,45.4560065 104.283667,48.8242553 105.839684,52.8149809 C107.858301,58.0048336 107.732138,63.668227 105.484132,68.7664266 C103.23995,73.8608074 99.1415459,77.7789744 93.9459009,79.795341 L35.8647839,102.338167 L114.346167,102.338167 L114.346167,45.0015603 C114.346167,43.6305837 115.4587,42.5192908 116.831207,42.5192908 C118.203713,42.5192908 119.316247,43.6305837 119.316247,45.0015603 L119.316247,102.338167 L130.988288,102.338167 C139.56741,102.338167 146.525522,95.3878123 146.525522,86.8182542 L146.525522,51.8449864 C146.525522,23.2301473 123.30378,0.0342935079 94.6570047,0.0342935079" id="Fill-1" fill="#FFFFFF" mask="url(#mask-2)"></path>
                </g>
                <g id="Group-6" transform="translate(40.525266, 0.328805)">
                    <mask id="mask-4" fill="white">
                        <use xlink:href="#path-3"></use>
                    </mask>
                    <g id="Clip-5"></g>
                    <path d="M35.0132563,69.7207638 C54.2730801,69.7207638 69.8860123,54.1252373 69.8860123,34.8868849 C69.8860123,15.6485325 54.2730801,0.0530060011 35.0132563,0.0530060011 C15.7538148,0.0530060011 0.140500332,15.6485325 0.140500332,34.8868849 C0.140500332,54.1252373 15.7538148,69.7207638 35.0132563,69.7207638" id="Fill-4" fill="#FFFFFF" mask="url(#mask-4)"></path>
                </g>
            </g>
        </g>
    </g>
</svg>