<?xml version="1.0" encoding="UTF-8" standalone="no"?>
<svg width="190px" height="166px" viewBox="0 0 190 166" version="1.1" xmlns="http://www.w3.org/2000/svg" xmlns:xlink="http://www.w3.org/1999/xlink">
    <!-- Generator: Sketch 46 (44423) - http://www.bohemiancoding.com/sketch -->
    <title>Trabajo</title>
    <desc>Created with Sketch.</desc>
    <defs></defs>
    <g id="2.1-We-are" stroke="none" stroke-width="1" fill="none" fill-rule="evenodd">
        <g id="2.1-We-Are-Valores" transform="translate(-320.000000, -277.000000)" fill="#FFFFFF">
            <g id="Trabajo" transform="translate(320.000000, 277.000000)">
                <path d="M68.2877691,32.2669085 C88.1170727,32.2669085 104.211422,48.2920274 104.349191,68.1196202 C108.700882,66.9342213 113.282188,66.2995255 118.013409,66.2995255 C119.526595,66.2995255 121.023082,66.3664156 122.50287,66.4918345 C123.640701,59.624958 130.756129,54.1650539 136.575462,53.2092096 C134.791292,45.1109472 131.602481,37.5432449 127.288363,30.7641616 C122.061097,34.5126675 111.97319,35.5730275 106.512512,30.1047621 C101.051834,24.6364967 102.110723,14.5345719 105.853648,9.30004178 C99.0843509,4.97992969 91.5267702,1.78668769 83.4401246,3.80057368e-05 C82.3979352,6.35307696 76.0119635,14.2510491 68.2877691,14.2510491 C60.5635747,14.2510491 54.177603,6.35307696 53.1354136,3.80057368e-05 C45.0487681,1.78668769 37.4911873,4.97992969 30.7215108,9.30004178 C34.4648151,14.5345719 35.5237038,24.6364967 30.0630262,30.1047621 C24.6023487,35.5730275 14.5144415,34.5126675 9.28717485,30.7641616 C4.97305741,37.5432449 1.78386688,45.1109472 7.59059991e-05,53.2092096 C6.34429928,54.2528471 14.2309326,60.6476924 14.2309326,68.3826199 C14.2309326,76.1133668 6.34429928,82.5123927 7.59059991e-05,83.5560302 C1.78386688,91.6539126 4.97305741,99.2219949 9.28717485,106.001078 C14.5144415,102.252572 24.6023487,101.192212 30.0630262,106.660478 C35.5237038,112.124562 34.4648151,122.226107 30.7215108,127.460637 C37.4911873,131.78531 45.0487681,134.978552 53.1354136,136.765202 C54.0899316,130.938162 59.5422595,123.812467 66.3992279,122.673055 C66.2743625,121.191211 66.2079447,119.692645 66.2079447,118.177356 C66.2079447,113.439561 66.8410008,108.851888 68.0251343,104.494151 C48.2288499,104.35619 32.2221724,88.2394772 32.2221724,68.3826199 C32.2221724,48.4337888 48.3707941,32.2669085 68.2877691,32.2669085" id="Fill-1"></path>
                <path d="M156.350607,109.757755 C156.946849,112.470985 157.259581,115.28873 157.259581,118.177166 C157.259581,139.849937 139.655842,157.477758 118.013144,157.477758 C103.082054,157.477758 90.0721455,149.087612 83.4402384,136.765392 L83.4402384,136.760831 C82.276979,134.602865 81.3141114,132.327842 80.5679554,129.952864 C79.3967259,126.233622 78.7674652,122.276085 78.7674652,118.177166 C78.7674652,112.262333 80.0802594,106.652306 82.4272729,101.613886 C86.333016,93.2321008 93.1026925,86.4530175 101.472847,82.5418471 C106.504276,80.1915724 112.106518,78.8765739 118.013144,78.8765739 C122.110929,78.8765739 126.06677,79.5112697 129.785026,80.6841267 C132.152913,81.4271389 134.420225,82.3955251 136.571401,83.5562203 L136.575576,83.5562203 C140.281307,85.555322 143.628382,88.1309708 146.49649,91.1657289 C148.588839,89.3456341 150.714966,87.5422619 152.865763,85.7727148 C145.149918,77.4574397 134.507897,71.8930198 122.590275,70.7494272 C121.085439,70.6034851 119.555554,70.5282338 118.013144,70.5282338 C113.177932,70.5282338 108.509333,71.2545234 104.107544,72.6071476 C89.034131,77.2237044 77.1165097,89.1578858 72.5059793,104.251864 C71.1556116,108.659769 70.4303298,113.335235 70.4303298,118.177166 C70.4303298,119.721719 70.5054767,121.25373 70.6512162,122.760658 C72.9606562,146.896201 93.3194042,165.826098 118.013144,165.826098 C144.253847,165.826098 165.596337,144.453952 165.596337,118.177166 C165.596337,113.114042 164.804258,108.234105 163.336995,103.654794 C161.069303,105.571043 158.738989,107.608151 156.350607,109.757755" id="Fill-3"></path>
                <path d="M118.050869,124.672422 L104.336553,109.427941 L95.3534572,117.534565 L118.042519,142.74263 L122.527805,137.696228 C122.769565,137.424867 137.504817,120.932278 155.091858,105.287216 C157.284403,103.333722 159.527045,101.392769 161.790562,99.5016031 C162.915869,98.5541201 164.049904,97.6233596 165.187735,96.7047609 C173.620512,89.8967933 182.195233,83.9568767 189.764959,80.5629644 L184.829551,69.5139367 C176.663584,73.1746492 167.655439,79.2981335 158.868181,86.277507 C157.763749,87.1542994 156.663112,88.0432535 155.567029,88.9489303 C153.416233,90.7108762 151.290106,92.518049 149.201932,94.3423244 C135.962787,105.883906 124.228479,118.043842 118.050869,124.672422" id="Fill-5"></path>
            </g>
        </g>
    </g>
</svg>