<?xml version="1.0" encoding="UTF-8" standalone="no"?>
<svg width="190px" height="190px" viewBox="0 0 190 190" version="1.1" xmlns="http://www.w3.org/2000/svg" xmlns:xlink="http://www.w3.org/1999/xlink">
    <!-- Generator: Sketch 46 (44423) - http://www.bohemiancoding.com/sketch -->
    <title>Colaboracion</title>
    <desc>Created with Sketch.</desc>
    <defs>
        <polygon id="path-1" points="91.5990246 0.204772846 91.5990246 86.3791517 0.0508446594 86.3791517 0.0508446594 0.204772846 91.5990246 0.204772846"></polygon>
        <polygon id="path-3" points="0.0598828325 0.145323657 88.3796595 0.145323657 88.3796595 91.4472182 0.0598828325 91.4472182 0.0598828325 0.145323657"></polygon>
        <polygon id="path-5" points="0 86.4405862 0 0.269540784 91.5421279 0.269540784 91.5421279 86.4405862 1.17978391e-16 86.4405862"></polygon>
    </defs>
    <g id="2.1-We-are" stroke="none" stroke-width="1" fill="none" fill-rule="evenodd">
        <g id="2.1-We-Are-Valores" transform="translate(-319.000000, -1107.000000)">
            <g id="Colaboracion" transform="translate(319.000000, 1107.000000)">
                <g id="Group-3" transform="translate(98.297105, 75.207684)">
                    <mask id="mask-2" fill="white">
                        <use xlink:href="#path-1"></use>
                    </mask>
                    <g id="Clip-2"></g>
                    <path d="M42.6724694,19.5025886 L42.3016387,19.8724335 L37.1836361,14.7680361 L35.2543145,16.692229 C32.2629987,19.675593 32.0213035,24.3693933 34.5226757,27.6307176 C34.7435551,27.9263628 34.9887196,28.2047076 35.2543145,28.4692121 L36.1694413,29.3822906 L37.0884229,30.2984448 C37.3536323,30.5633337 37.632719,30.8078465 37.9256829,31.0246786 L36.2103021,32.735115 L34.5022453,34.4390156 L8.55797725,60.3143158 L6.8533898,62.0143719 L5.14841688,63.7148124 L0.0508446594,68.7988337 L5.41709563,74.151204 L7.13209101,75.8616404 L8.84053324,77.5651566 L17.3310902,86.033143 C17.4432646,86.1450192 17.5523551,86.2603554 17.6575908,86.3791517 L54.423021,49.7114556 L56.1276084,48.0113995 L57.8426038,46.3005786 C58.5198901,46.8268963 59.2549983,47.227113 60.0309672,47.512378 C60.9565019,47.8583867 61.9333053,48.0317755 62.9097232,48.0348512 C65.0572258,48.0452314 67.2112816,47.2340332 68.8445554,45.6051011 L89.1565921,25.3470602 C92.4135029,22.0988073 92.4135029,16.8179455 89.1565921,13.5700771 L78.1958867,2.63850863 C76.3583091,0.805815836 73.8708141,0.00807353653 71.4685099,0.245666183 C70.5495284,0.333706176 69.6409547,0.57475891 68.7902029,0.968439929 C68.0585641,1.30483728 67.3643167,1.75272633 66.7348297,2.31249153 C66.6157168,2.41783196 66.5000731,2.52624802 66.3875133,2.63850863 L57.9004256,11.1026505 L56.1923689,12.8065512 L55.4163999,13.5800729 L54.4773735,14.5169876 L53.7148963,15.2770534 L52.0137782,16.9740339 L47.4061496,21.569414 L46.0754766,22.8965496 L45.704646,23.2663945 L44.0135503,21.5797942 C44.1291939,21.4506176 44.2479214,21.3252856 44.373973,21.1995691 L44.0031424,21.569414 L42.3120467,19.8828137 C42.4276903,19.7536372 42.5498871,19.624845 42.6724694,19.5025886" id="Fill-1" fill="#FFFFFF" mask="url(#mask-2)"></path>
                </g>
                <g id="Group-6" transform="translate(75.168374, 0.239130)">
                    <mask id="mask-4" fill="white">
                        <use xlink:href="#path-3"></use>
                    </mask>
                    <g id="Clip-5"></g>
                    <path d="M0.10076417,20.2163277 C0.189424304,21.1324819 0.430734059,22.0386402 0.825849874,22.8871305 C1.15890359,23.6202845 1.60837193,24.3126863 2.16962912,24.9404999 C2.27525032,25.0592962 2.38395536,25.1746325 2.49651518,25.2865086 L10.9866867,33.7544951 L12.6951289,35.4583957 L13.4710978,36.2319174 L14.4101243,37.1688321 L15.172216,37.9288979 L16.8737196,39.6258784 L19.7767608,42.5208179 L21.4782644,44.2177984 L22.8085519,45.544934 L23.1793825,45.9147789 L21.4882868,47.6017636 C21.3587659,47.4860429 21.2330998,47.3672466 21.1070482,47.2415301 L21.4782644,47.6117594 L19.7867832,49.2987441 C19.6572623,49.1830234 19.5281269,49.060767 19.4055446,48.9385106 L19.7767608,49.3087399 L14.661842,54.4096771 L16.5946329,56.3373301 C19.5824794,59.317234 24.2887906,59.5582867 27.5557238,57.067024 C27.8517716,56.8463474 28.1308582,56.602219 28.3964532,56.3373301 L29.3115799,55.424636 L30.230176,54.5080974 C30.495771,54.243593 30.7409355,53.9648637 30.958731,53.6730631 L32.6737264,55.3838839 L34.3821686,57.0874001 L60.3260512,82.9623158 L62.0310241,84.6627563 L63.7356116,86.3631969 L68.8331838,91.4472182 L74.2029041,86.0917723 L75.918285,84.3809515 L77.6228724,82.6805109 L86.1134294,74.2129089 C86.2256037,74.1010327 86.3416329,73.9926167 86.4603604,73.8872762 C87.0593945,73.3236665 87.7027587,72.8319497 88.3796595,72.4075123 L51.1042409,35.2307989 L49.3275689,33.4592343 L47.4934605,31.6296172 C47.8403915,30.7065428 48.0142425,29.7327205 48.0173263,28.7585138 C48.0277342,26.6171043 47.2143739,24.4687747 45.5776307,22.8363825 L25.265594,2.57834156 C22.0121526,-0.666451218 16.7172152,-0.666451218 13.4606899,2.58141719 L2.49998449,13.5133701 C0.665876154,15.3426028 -0.137461755,17.8204096 0.10076417,20.2163277" id="Fill-4" fill="#FFFFFF" mask="url(#mask-4)"></path>
                </g>
                <g id="Group-9" transform="translate(0.000000, 28.304281)">
                    <mask id="mask-6" fill="white">
                        <use xlink:href="#path-5"></use>
                    </mask>
                    <g id="Clip-8"></g>
                    <path d="M48.923587,67.1426438 L49.2909484,66.7762591 L54.408951,71.8806564 L56.3421274,69.952619 C59.3334432,66.9696395 59.5782223,62.272379 57.0737662,59.0141304 C56.8559707,58.7223297 56.6108061,58.4439849 56.3452112,58.1794805 L55.4266151,57.2629418 L54.5111029,56.3502478 C54.245508,56.0853589 53.9668068,55.8408461 53.670759,55.6201694 L55.3857544,53.909733 L57.0907273,52.2096769 L83.0380792,26.3309167 L84.7430521,24.6304761 L86.4476396,22.93042 L91.5421279,17.8498588 L86.1754915,12.4974885 L84.4604961,10.7870522 L82.7555232,9.08661158 L74.2618824,0.615549492 C74.1493225,0.503288889 74.0406175,0.388337107 73.9353818,0.269540784 L37.173421,36.9333924 L35.468448,38.633833 L33.7534527,40.3446538 C33.0827195,39.8183361 32.3410582,39.4177349 31.5685586,39.1293944 C30.6395546,38.7864613 29.6627512,38.6134569 28.6863333,38.6099968 C26.5357468,38.6034611 24.3886296,39.4142749 22.7549703,41.0435914 L2.44293362,61.3016324 C-0.813591646,64.5495008 -0.813977125,69.830747 2.43946431,73.0751554 L13.403639,84.0101839 C15.2412167,85.8428767 17.7252424,86.6371589 20.127932,86.3995663 C21.0469135,86.3111418 21.9554872,86.0700891 22.8058535,85.6764081 C23.5374924,85.3403952 24.2317397,84.8925061 24.8612267,84.3323565 C24.9803397,84.2274005 25.0959833,84.1189844 25.2085431,84.0067238 L33.6991001,75.5391218 L35.4036876,73.8386812 L36.1796565,73.0647751 L37.118683,72.1282449 L37.8811601,71.3677946 L39.5826637,69.6708141 L42.4853194,66.7762591 L44.186823,65.0792786 L45.5205798,63.7486829 L45.8883266,63.3822981 L47.5794223,65.0688983 C47.4637787,65.1976904 47.3446657,65.3234069 47.2220834,65.4456633 L47.5898302,65.0792786 L49.2809259,66.7658788 C49.1652823,66.8946709 49.0461693,67.0203874 48.923587,67.1426438" id="Fill-7" fill="#FFFFFF" mask="url(#mask-6)"></path>
                </g>
                <path d="M114.627415,169.698356 C114.53914,168.781818 114.293976,167.879119 113.902715,167.027169 C113.565806,166.29786 113.113254,165.608533 112.551611,164.98072 C112.446376,164.861923 112.337285,164.746587 112.225111,164.634711 L103.73147,156.163649 L102.026497,154.463208 L101.253998,153.692762 L100.311116,152.752772 L99.5524939,151.995782 L97.8509903,150.298801 L94.9448653,147.400402 L93.2433617,145.703421 L91.9130742,144.37667 L91.5418581,144.006441 L93.2333393,142.319841 C93.3624747,142.435177 93.4885263,142.553973 93.6145778,142.67969 L93.2433617,142.30946 L94.9348429,140.62286 C95.0639783,140.738196 95.1931137,140.860453 95.315696,140.982709 L94.9448653,140.61248 L100.062868,135.508082 L98.130077,133.580429 C95.1422305,130.600526 90.43245,130.356397 87.1659023,132.854196 C86.8729384,133.071412 86.5938517,133.315925 86.3286422,133.580429 L85.4096607,134.496968 L84.4945339,135.409662 C84.228939,135.674551 83.9841599,135.952896 83.7628951,136.248157 L82.0478997,134.53772 L80.3429268,132.83728 L54.3955749,106.958904 L52.6906019,105.258463 L50.985629,103.558407 L45.8880568,98.4743859 L40.5218058,103.826372 L38.8068105,105.536808 L37.0983682,107.240709 L28.611666,115.704851 C28.4991062,115.817111 28.3834625,115.925527 28.2643496,116.030483 L65.0263104,152.695104 L66.7312833,154.39516 L68.4428094,156.102521 C67.9185582,156.774547 67.5141909,157.510776 67.2316349,158.288142 C66.8808491,159.207757 66.7073836,160.181963 66.7039143,161.155786 C66.6969757,163.300655 67.5103361,165.449369 69.1474647,167.081762 L89.4595014,187.339802 C92.7125574,190.584211 98.0109641,190.587671 101.26402,187.343263 L112.22858,176.408234 C114.066158,174.575541 114.862172,172.098119 114.627415,169.698356" id="Fill-10" fill="#FFFFFF"></path>
            </g>
        </g>
    </g>
</svg>