<?xml version="1.0" encoding="UTF-8" standalone="no"?>
<svg width="169px" height="169px" viewBox="0 0 169 169" version="1.1" xmlns="http://www.w3.org/2000/svg" xmlns:xlink="http://www.w3.org/1999/xlink">
    <!-- Generator: Sketch 46 (44423) - http://www.bohemiancoding.com/sketch -->
    <title>Investigacion</title>
    <desc>Created with Sketch.</desc>
    <defs>
        <polygon id="path-1" points="0 69.5890928 0 0.285498127 138.887873 0.285498127 138.887873 138.892687 0 138.892687"></polygon>
        <polygon id="path-3" points="48.9901829 0.331379316 48.9901829 49.1766597 0.0461109437 49.1766597 0.0461109437 0.331379316 48.9901829 0.331379316"></polygon>
    </defs>
    <g id="2.1-We-are" stroke="none" stroke-width="1" fill="none" fill-rule="evenodd">
        <g id="2.1-We-Are-Valores" transform="translate(-330.000000, -1959.000000)">
            <g id="Investigacion" transform="translate(330.000000, 1959.000000)">
                <g id="Group-3" transform="translate(0.000000, 0.056007)">
                    <mask id="mask-2" fill="white">
                        <use xlink:href="#path-1"></use>
                    </mask>
                    <g id="Clip-2"></g>
                    <path d="M69.4439367,10.5305438 C36.8131296,10.5305438 10.2658873,37.0241553 10.2658873,69.5890416 C10.2658873,102.153928 36.8131296,128.647539 69.4439367,128.647539 C102.074744,128.647539 128.621986,102.153928 128.621986,69.5890416 C128.621986,37.0241553 102.074744,10.5305438 69.4439367,10.5305438 M69.4439367,138.892687 C31.1525193,138.892687 0,107.803103 0,69.5890416 C0,31.3749806 31.1525193,0.285395676 69.4439367,0.285395676 C107.735354,0.285395676 138.887873,31.3749806 138.887873,69.5890416 C138.887873,107.803103 107.735354,138.892687 69.4439367,138.892687" id="Fill-1" fill="#FFFFFF" mask="url(#mask-2)"></path>
                </g>
                <g id="Group-6" transform="translate(119.768685, 119.582735)">
                    <mask id="mask-4" fill="white">
                        <use xlink:href="#path-3"></use>
                    </mask>
                    <g id="Clip-5"></g>
                    <path d="M25.0653615,45.9112749 L3.31810587,24.2079531 C-1.04455403,19.8541067 -1.04455403,12.7948581 3.31810587,8.44101168 L8.17181737,3.59676415 C12.5348195,-0.757082295 19.6080158,-0.757082295 23.9710179,3.59676415 L45.7182735,25.3000859 C50.0809334,29.6542739 50.0809334,36.7131809 45.7182735,41.0673688 L40.8642198,45.9112749 C36.5015599,50.2651213 29.4283636,50.2651213 25.0653615,45.9112749" id="Fill-4" fill="#FFFFFF" mask="url(#mask-4)"></path>
                </g>
                <polygon id="Fill-7" fill="#FFFFFF" points="128.57271 137.532951 109.799482 118.797649 118.696242 109.919204 137.469128 128.654506"></polygon>
                <path d="M97.7778882,51.6689798 C97.7778882,58.2043598 95.5563502,64.2216768 91.8257268,69.010259 C86.6417959,75.6644827 94.1020162,94.6190312 69.4440393,94.6190312 C44.7857203,94.6190312 52.5621299,75.8301126 47.3686175,69.3968426 C43.4535503,64.5474725 41.1098483,58.3816009 41.1098483,51.6689798 C41.1098483,36.0523005 53.7954052,23.392371 69.4440393,23.392371 C85.0923313,23.392371 97.7778882,36.0523005 97.7778882,51.6689798" id="Fill-9" fill="#FFFFFF"></path>
                <path d="M70.0075339,103.528758 C59.9897389,103.528758 55.4638514,100.516343 55.2759856,100.387938 C54.4184419,99.8022566 54.1987519,98.6332852 54.7859606,97.7771323 C55.3697474,96.925419 56.5325303,96.7041238 57.3887052,97.2788766 C57.4793873,97.3372739 61.3527065,99.7722041 70.0075339,99.7722041 C78.450884,99.7722041 81.2647637,97.4629477 81.2924816,97.4397254 L81.2579198,97.4711439 L83.8394482,100.204891 C83.4777468,100.54503 80.0164318,103.528758 70.0075339,103.528758" id="Fill-11" fill="#FFFFFF"></path>
                <path d="M70.0075339,110.560106 C59.9897389,110.560106 55.4638514,107.547691 55.2759856,107.419285 C54.4184419,106.833604 54.1987519,105.664633 54.7859606,104.80848 C55.3697474,103.956767 56.5325303,103.735471 57.3887052,104.310224 C57.4793873,104.368622 61.3527065,106.803552 70.0075339,106.803552 C78.450884,106.803552 81.2647637,104.494295 81.2924816,104.471073 L81.2579198,104.502491 L83.8394482,107.236238 C83.4777468,107.576377 80.0164318,110.560106 70.0075339,110.560106" id="Fill-13" fill="#FFFFFF"></path>
                <path d="M70.0075339,117.591454 C65.9083651,117.591454 63.4243626,117.322689 60.8418075,116.599382 C59.8412257,116.319348 59.2570967,115.282539 59.5380398,114.283637 C59.818983,113.284735 60.858233,112.702469 61.8588148,112.982503 C63.7864062,113.522422 65.7379514,113.834899 70.0075339,113.834899 C73.1136492,113.834899 75.1616937,113.637851 77.0762817,113.154963 C78.084734,112.900883 79.1075586,113.510128 79.3621526,114.51586 C79.6170888,115.521592 79.0062685,116.543033 77.9988427,116.797113 C75.7615637,117.361279 73.4462639,117.591454 70.0075339,117.591454" id="Fill-15" fill="#FFFFFF"></path>
                <path d="M77.537528,93.7285912 L77.537528,54.4944551 C77.537528,52.7964925 75.4436292,50.0972375 73.6056932,51.4683798 C72.3700225,52.3901016 71.0628329,53.2568412 69.4439025,53.2568412 C67.7503733,53.2568412 66.623521,52.3074574 65.2728725,51.4755514 C63.3442544,50.2874557 61.3502769,52.6636471 61.3502769,54.4944551 L61.3502769,93.7285912" id="Fill-17" fill="#FFFFFF"></path>
            </g>
        </g>
    </g>
</svg>