<?xml version="1.0" encoding="UTF-8" standalone="no"?>
<svg width="147px" height="190px" viewBox="0 0 147 190" version="1.1" xmlns="http://www.w3.org/2000/svg" xmlns:xlink="http://www.w3.org/1999/xlink">
    <!-- Generator: Sketch 46 (44423) - http://www.bohemiancoding.com/sketch -->
    <title>Medio ambiente</title>
    <desc>Created with Sketch.</desc>
    <defs></defs>
    <g id="2.1-We-are" stroke="none" stroke-width="1" fill="none" fill-rule="evenodd">
        <g id="2.1-We-Are-Valores" transform="translate(-342.000000, -2391.000000)" fill="#FFFFFF">
            <g id="Medio-ambiente" transform="translate(342.000000, 2391.000000)">
                <g id="Page-1">
                    <path d="M73.3583211,69.8824597 C92.6432664,69.8824597 108.276563,54.238871 108.276563,34.9412298 C108.276563,15.6435887 92.6432664,0 73.3583211,0 C54.0737586,0 38.4400789,15.6435887 38.4400789,34.9412298 C38.4400789,54.238871 54.0737586,69.8824597 73.3583211,69.8824597" id="Fill-1"></path>
                    <path d="M107.12246,165.217641 C107.10332,165.05254 107.084179,164.888206 107.057382,164.723488 C107.04207,164.608569 107.022929,164.489819 106.99996,164.374899 C106.984648,164.275302 106.965507,164.175323 106.942538,164.076109 C106.915741,163.945867 106.888945,163.815625 106.862148,163.685383 C106.854491,163.662016 106.850663,163.639415 106.846835,163.612601 C106.839179,163.574294 106.827695,163.539819 106.820038,163.501512 C106.793241,163.401915 106.770273,163.302319 106.743476,163.202339 C106.709023,163.060988 106.670741,162.919254 106.628632,162.77752 C106.601835,162.681754 106.57121,162.585988 106.540585,162.490222 C106.521445,162.428931 106.502304,162.371089 106.483163,162.310181 C106.444882,162.191431 106.402773,162.072681 106.360663,161.953548 C106.318554,161.835181 106.276445,161.716048 106.230507,161.601512 C106.18457,161.482762 106.138632,161.36746 106.088866,161.25254 C106.042929,161.138004 105.993163,161.023085 105.93957,160.911996 C105.87832,160.770262 105.809413,160.631976 105.740507,160.490625 C105.706054,160.42129 105.671601,160.352722 105.637148,160.28377 C105.602695,160.214435 105.564413,160.145867 105.526132,160.076915 C105.44957,159.935181 105.369179,159.793448 105.288788,159.655161 C105.193085,159.486996 105.089726,159.318448 104.982538,159.15373 C104.871523,158.984798 104.756679,158.816633 104.638007,158.651532 C104.615038,158.620887 104.595898,158.590242 104.569101,158.55998 C104.515507,158.479536 104.454257,158.402923 104.396835,158.32631 C104.339413,158.249698 104.278163,158.172702 104.220741,158.100302 C104.201601,158.076935 104.18246,158.054335 104.167148,158.030968 C104.148007,158.008367 104.125038,157.981169 104.105898,157.958569 C104.10207,157.950524 104.094413,157.947077 104.090585,157.939415 C104.021679,157.858972 103.952773,157.774315 103.880038,157.698085 L103.822616,157.62875 C103.81496,157.621472 103.811132,157.617641 103.803476,157.60998 C103.769023,157.56746 103.726913,157.521875 103.684804,157.479738 C103.558476,157.334173 103.420663,157.19244 103.282851,157.054153 C103.18332,156.95494 103.083788,156.859173 102.984257,156.766855 C102.915351,156.702117 102.850273,156.640444 102.785195,156.583367 C102.716288,156.525907 102.65121,156.468448 102.586132,156.410988 C102.524882,156.357359 102.463632,156.307177 102.40621,156.261593 C102.371757,156.234778 102.337304,156.207581 102.306679,156.18498 C102.199491,156.100323 102.092304,156.019879 101.985116,155.943649 C101.870273,155.858992 101.755429,155.778548 101.640585,155.70998 C101.571679,155.66746 101.510429,155.625706 101.441523,155.587016 C101.437695,155.583569 101.430038,155.579738 101.42621,155.575907 C101.422382,155.571694 101.414726,155.568246 101.410898,155.568246 C101.307538,155.510786 101.208007,155.453327 101.104648,155.399698 C101.096991,155.395484 101.093163,155.392036 101.085507,155.388206 C101.012773,155.349516 100.93621,155.31504 100.863476,155.280948 C100.798398,155.249919 100.73332,155.219274 100.67207,155.192843 C100.473007,155.108185 100.281601,155.039617 100.086366,154.985988 C99.9868352,154.959173 99.891132,154.931976 99.7954289,154.909375 C99.6997258,154.886008 99.6001945,154.866855 99.5044914,154.848085 C99.3360539,154.81744 99.1637883,154.802117 98.9915227,154.798286 C98.9187883,154.794456 98.8460539,154.790242 98.7733195,154.790242 L98.7541789,154.790242 C98.5895695,154.790242 98.421132,154.790242 98.2565227,154.805565 C98.0115227,154.825101 97.7703508,154.863407 97.5253508,154.924698 C97.4564445,154.94002 97.3875383,154.959173 97.318632,154.978327 L97.3109758,154.978327 C97.2344133,155.00131 97.1540227,155.024294 97.073632,155.046895 C96.9970695,155.074093 96.920507,155.100907 96.8401164,155.127722 C96.8209758,155.135383 96.8056633,155.138831 96.7865227,155.146875 C96.706132,155.17752 96.6180852,155.211996 96.5376945,155.246472 C96.5070695,155.257964 96.4802727,155.269073 96.4534758,155.280948 C96.3309758,155.334194 96.2123039,155.388206 96.0898039,155.445282 C96.0476945,155.464819 96.0055852,155.487802 95.9634758,155.506573 C95.8830852,155.545262 95.8026945,155.587016 95.7184758,155.632984 C95.7108195,155.636815 95.6993352,155.641028 95.6916789,155.644859 C95.6266008,155.682782 95.5615227,155.717258 95.4964445,155.755948 C95.4122258,155.805746 95.3241789,155.855544 95.236132,155.90879 C95.1480852,155.958972 95.0600383,156.012601 94.9758195,156.07006 C94.838007,156.158165 94.6963664,156.253931 94.5547258,156.353145 C94.4819914,156.402944 94.409257,156.456956 94.3326945,156.510585 C94.2676164,156.556552 94.2025383,156.606351 94.133632,156.65998 C94.0647258,156.713609 93.9919914,156.766855 93.919257,156.824698 C93.7776164,156.931956 93.6359758,157.046875 93.490507,157.165242 C93.276132,157.341452 93.061757,157.525706 92.8435539,157.717238 L92.6253508,157.912601 C92.479882,158.039012 92.3344133,158.172702 92.1889445,158.314435 C92.112382,158.38377 92.0396477,158.452722 91.9669133,158.521673 C91.8176164,158.663407 91.6721477,158.805141 91.5228508,158.950706 L91.5190227,158.950706 C91.3697258,159.099718 91.2204289,159.245665 91.071132,159.39506 C90.918007,159.547903 90.764882,159.701512 90.6155852,159.854738 C90.5390227,159.935181 90.4624602,160.011794 90.3820695,160.092238 C90.2289445,160.248911 90.0719914,160.409798 89.9188664,160.574899 C89.8384758,160.655343 89.7619133,160.735786 89.6853508,160.82006 C89.5475383,160.961794 89.4097258,161.107359 89.2719133,161.256754 C89.172382,161.360181 89.0728508,161.46744 88.9733195,161.574315 C88.8814445,161.670081 88.7933977,161.765847 88.7053508,161.861613 C88.5828508,161.988024 88.4641789,162.118649 88.3416789,162.248891 C88.2689445,162.325121 88.1962102,162.401734 88.1234758,162.47873 C87.916757,162.700907 87.7100383,162.923085 87.4994914,163.149093 C87.3310539,163.32875 87.1626164,163.50496 86.9941789,163.689214 C86.0601164,164.684798 85.0839445,165.711794 84.058007,166.738407 C83.8474602,166.949093 83.6369133,167.155948 83.4301945,167.358972 C83.2655852,167.519859 83.1048039,167.680746 82.9401945,167.837802 C82.7487883,168.02129 82.5612102,168.205544 82.373632,168.385585 C82.189882,168.557964 82.0099602,168.730343 81.8300383,168.902722 C81.6003508,169.120685 81.3668352,169.339415 81.1371477,169.553548 C81.0069914,169.67996 80.873007,169.806371 80.7390227,169.929335 C80.4174602,170.231956 80.0997258,170.526532 79.7858195,170.821875 C79.6709758,170.929133 79.556132,171.036008 79.4451164,171.135605 C79.4259758,171.158972 79.403007,171.178125 79.3838664,171.193448 C79.219257,171.350504 79.0584758,171.50373 78.8976945,171.656956 C78.821132,171.725524 78.7483977,171.794859 78.6718352,171.867258 C78.3234758,172.197077 77.9827727,172.518851 77.6535539,172.836794 C77.5731633,172.913407 77.4927727,172.993851 77.4162102,173.06625 C77.3358195,173.142863 77.259257,173.223306 77.1788664,173.300302 C77.1023039,173.376915 77.0257414,173.449315 76.9491789,173.525927 C76.8573039,173.614415 76.769257,173.706351 76.6812102,173.794456 C76.3941008,174.085202 76.1146477,174.369052 75.8466789,174.65252 C75.7739445,174.724919 75.7050383,174.798085 75.6399602,174.870484 C75.5021477,175.020262 75.3681633,175.165827 75.238007,175.311391 C75.1078508,175.456573 74.9776945,175.602137 74.8513664,175.747702 C74.7288664,175.889435 74.6101945,176.035 74.4915227,176.176734 C74.4532414,176.222702 74.4187883,176.269052 74.380507,176.31502 C74.3307414,176.37248 74.2848039,176.42994 74.2426945,176.487399 L74.2388664,176.49123 C74.227382,176.506552 74.2158977,176.518044 74.2044133,176.533367 C74.2044133,176.537198 74.2044133,176.537198 74.2005852,176.541028 C74.1814445,176.564012 74.166132,176.583165 74.1508195,176.605766 C74.1010539,176.670887 74.0512883,176.73256 74.0053508,176.797298 C73.9976945,176.805343 73.9938664,176.813004 73.9862102,176.820665 C73.8943352,176.942863 73.8024602,177.065827 73.7182414,177.188407 C73.5919133,177.368448 73.4732414,177.548105 73.3583977,177.724315 C72.7688664,176.793851 71.9879289,175.851512 71.0768352,174.870484 C71.011757,174.798085 70.9428508,174.724919 70.8701164,174.65252 C70.6021477,174.369052 70.3226945,174.085202 70.0355852,173.794456 C68.5196477,172.269859 66.7395695,170.660988 64.886757,168.902722 C64.7068352,168.734173 64.5269133,168.557964 64.3431633,168.385585 C63.784257,167.849294 63.2215227,167.301129 62.6587883,166.738407 C61.2155852,165.293871 59.8680852,163.84627 58.6009758,162.486391 C58.5129289,162.394456 58.4287102,162.30252 58.3483195,162.214415 C58.2258195,162.08379 58.1071477,161.957379 57.9846477,161.831351 C57.8659758,161.700726 57.7434758,161.570484 57.6209758,161.444073 C57.5023039,161.317661 57.383632,161.19125 57.2687883,161.069052 C57.1118352,160.900121 56.954882,160.735786 56.7979289,160.574899 C56.6409758,160.414012 56.4878508,160.253125 56.3347258,160.092238 C56.1969133,159.94629 56.0552727,159.80494 55.9174602,159.667036 C55.5997258,159.345262 55.2819914,159.031149 54.9719133,158.731976 C54.8953508,158.659577 54.8226164,158.586411 54.749882,158.521673 C54.3249602,158.115625 53.9038664,157.736391 53.4866008,157.383972 C53.402382,157.310806 53.3143352,157.238407 53.2262883,157.165242 C53.1229289,157.07752 53.0157414,156.997077 52.912382,156.912419 C52.9047258,156.908972 52.9008977,156.90131 52.8932414,156.897097 C52.7630852,156.797883 52.636757,156.698286 52.5066008,156.60252 C52.4070695,156.529355 52.3075383,156.456956 52.208007,156.387621 C51.9821477,156.226734 51.7562883,156.073891 51.5304289,155.935988 C51.3926164,155.851714 51.2548039,155.77127 51.1169914,155.694657 C51.1169914,155.694657 51.1131633,155.694657 51.1131633,155.690827 C51.0098039,155.636815 50.9064445,155.579738 50.8030852,155.52994 C50.5963664,155.422681 50.3896477,155.330363 50.1829289,155.242641 C50.0795695,155.200504 49.9762102,155.162198 49.8728508,155.123508 L49.666132,155.05494 C49.3560539,154.955343 49.0459758,154.88256 48.7358977,154.83621 C48.6325383,154.820887 48.5291789,154.809778 48.4258195,154.802117 C48.288007,154.794456 48.1501945,154.786794 48.012382,154.786794 C47.8822258,154.786794 47.7482414,154.794456 47.614257,154.802117 C47.4802727,154.809778 47.3462883,154.828931 47.2123039,154.848085 L47.2123039,154.851532 C47.1166008,154.866855 47.0170695,154.886008 46.9213664,154.909375 C46.8256633,154.931976 46.7299602,154.959173 46.6304289,154.985988 C46.4351945,155.039617 46.2437883,155.108185 46.0447258,155.192843 C45.9834758,155.219274 45.9183977,155.249919 45.8533195,155.280948 C45.7805852,155.31504 45.7040227,155.349516 45.6312883,155.388206 C45.5202727,155.445282 45.4054289,155.506573 45.2905852,155.575907 C45.2178508,155.617661 45.1489445,155.664012 45.0762102,155.70998 C44.9613664,155.778548 44.8465227,155.858992 44.7316789,155.943649 C44.6244914,156.019879 44.5173039,156.100323 44.4101164,156.18498 C44.3182414,156.253931 44.2225383,156.330544 44.1306633,156.410988 C43.9009758,156.606351 43.6674602,156.820867 43.4339445,157.054153 C43.296132,157.19244 43.1583195,157.334173 43.0319914,157.479738 C42.989882,157.521875 42.9477727,157.56746 42.9133195,157.60998 C42.7869914,157.747883 42.6683195,157.889617 42.5496477,158.030968 C42.5343352,158.054335 42.5151945,158.076935 42.4960539,158.100302 C42.377382,158.249698 42.2587102,158.402923 42.1476945,158.55998 C42.1208977,158.590242 42.101757,158.620887 42.0787883,158.651532 C41.9601164,158.816633 41.8452727,158.984798 41.734257,159.15373 C41.6576945,159.272097 41.581132,159.39506 41.5083977,159.517641 C41.4777727,159.563226 41.4509758,159.609194 41.4241789,159.655161 C41.4126945,159.674315 41.4012102,159.693851 41.3935539,159.713004 C41.336132,159.80494 41.2863664,159.896492 41.2366008,159.98881 C41.2021477,160.04627 41.1753508,160.099899 41.1447258,160.157359 C41.0834758,160.272278 41.0222258,160.390645 40.9648039,160.509778 C40.9150383,160.612823 40.8652727,160.716633 40.815507,160.82006 C40.7810539,160.896673 40.7466008,160.969456 40.7159758,161.045685 C40.6126164,161.275907 40.5169133,161.509194 40.4326945,161.743246 C40.3982414,161.827137 40.3676164,161.911794 40.3408195,161.996069 C40.2451164,162.252722 40.1608977,162.512823 40.0881633,162.77752 C40.0460539,162.919254 40.0077727,163.060988 39.9733195,163.202339 C39.896757,163.482359 39.8316789,163.765827 39.7780852,164.048911 C39.7551164,164.156169 39.7359758,164.267641 39.7168352,164.374899 C39.6938664,164.489819 39.6747258,164.604355 39.6594133,164.723488 C39.6326164,164.888206 39.6096477,165.05254 39.5943352,165.221472 C39.5713664,165.367036 39.5560539,165.50877 39.5445695,165.654335 C39.4794914,166.33619 39.4603508,167.025706 39.4794914,167.726714 C39.4833195,167.841633 39.4871477,167.960383 39.4948039,168.079133 C39.498632,168.174899 39.5024602,168.270665 39.5101164,168.362601 C39.5981633,169.78377 39.8546477,171.224093 40.2757414,172.664032 C40.3101945,172.778952 40.3446477,172.89004 40.3791008,173.001129 C40.539882,173.518649 40.7198039,174.035786 40.9226945,174.54871 C40.9724602,174.678952 41.0260539,174.805363 41.0796477,174.935988 C41.4509758,175.832359 41.8835539,176.720685 42.3850383,177.590625 C42.4539445,177.717036 42.5266789,177.839234 42.6032414,177.965645 C42.714257,178.15373 42.8291008,178.341431 42.9477727,178.524919 C43.1391789,178.831754 43.3382414,179.134375 43.5487883,179.432782 C43.5526164,179.440827 43.5564445,179.444657 43.5641008,179.452319 C43.663632,179.597883 43.7669914,179.743448 43.8741789,179.889012 C44.0694133,180.157157 44.2723039,180.424919 44.4828508,180.689617 C44.6015227,180.842843 44.7278508,180.995685 44.8541789,181.149294 C44.9307414,181.24123 45.011132,181.336996 45.0915227,181.428548 C45.5279289,181.942238 45.991132,182.444052 46.4773039,182.930161 C46.8026945,183.256149 47.1319133,183.570262 47.4687883,183.8725 C47.5798039,183.97248 47.6908195,184.072077 47.8018352,184.167843 C48.104257,184.432157 48.4066789,184.684597 48.716757,184.925927 C48.8583977,185.04123 49.0000383,185.152319 49.145507,185.259194 C49.4670695,185.508569 49.7962883,185.742238 50.125507,185.968246 C50.2862883,186.079335 50.4470695,186.18621 50.6078508,186.29002 C50.768632,186.393065 50.9294133,186.496875 51.0901945,186.596472 C51.2509758,186.699899 51.411757,186.795665 51.5763664,186.891431 C51.9055852,187.082964 52.2309758,187.266835 52.5640227,187.439214 C52.728632,187.526935 52.8932414,187.611593 53.0616789,187.695867 C53.3947258,187.860202 53.7277727,188.017641 54.0646477,188.162823 C54.4015227,188.308387 54.7383977,188.446673 55.0752727,188.576532 C55.4121477,188.703327 55.7528508,188.825907 56.0935539,188.936996 C56.6026945,189.101714 57.1118352,189.246895 57.6248039,189.37369 C58.4746477,189.583992 59.3244914,189.73377 60.1666789,189.829536 C60.5035539,189.864012 60.8366008,189.894657 61.1696477,189.91381 C61.5065227,189.932964 61.8395695,189.940625 62.1687883,189.940625 L62.1726164,189.940625 C62.3716789,189.940625 62.5630852,189.936411 62.7621477,189.929133 L62.7851164,189.929133 C63.0951945,189.917258 63.4014445,189.898488 63.7038664,189.87129 C63.8531633,189.855968 64.0024602,189.840645 64.1479289,189.821492 C64.2972258,189.806169 64.4426945,189.787399 64.5881633,189.764415 C65.2006633,189.67631 65.805507,189.549899 66.3912102,189.389012 C66.5175383,189.354536 66.6476945,189.31623 66.7701945,189.277923 C66.9118352,189.235403 67.0534758,189.193649 67.1912883,189.143851 C67.3176164,189.101714 67.4439445,189.059194 67.5702727,189.009395 C68.2708195,188.752742 68.9445695,188.439012 69.5915227,188.07127 C69.6872258,188.017641 69.7791008,187.960181 69.8748039,187.902722 C69.9437102,187.864415 70.0126164,187.818448 70.0815227,187.77631 C70.3035539,187.634577 70.5255852,187.489012 70.7399602,187.331573 C70.9275383,187.197883 71.1112883,187.05998 71.2912102,186.914415 C71.3716008,186.849294 71.4558195,186.780343 71.5400383,186.70756 L71.5438664,186.70756 C71.5974602,186.66121 71.6472258,186.615242 71.7008195,186.565444 C71.9190227,186.381956 72.1295695,186.182379 72.3362883,185.975524 C72.7305852,185.581351 73.0712883,185.190625 73.3583977,184.80373 C73.645507,185.190625 73.9862102,185.581351 74.380507,185.975524 C74.5872258,186.182379 74.7977727,186.381956 75.0159758,186.565444 C75.0695695,186.615242 75.1193352,186.66121 75.1729289,186.70756 L75.176757,186.70756 C75.2609758,186.780343 75.3451945,186.849294 75.4255852,186.914415 C75.605507,187.05998 75.789257,187.197883 75.9768352,187.331573 C76.1912102,187.489012 76.4132414,187.634577 76.6352727,187.77631 C76.7041789,187.818448 76.7730852,187.864415 76.8419914,187.902722 C76.9376945,187.960181 77.0295695,188.017641 77.1252727,188.07127 C77.1291008,188.075101 77.1329289,188.075101 77.136757,188.078931 C77.2937102,188.167036 77.4544914,188.255141 77.6152727,188.335585 C77.779882,188.42369 77.9483195,188.504133 78.116757,188.580363 C78.2851945,188.660806 78.453632,188.733972 78.6258977,188.806754 C78.7981633,188.879536 78.9704289,188.944274 79.1465227,189.009395 C79.2728508,189.059194 79.3991789,189.101714 79.525507,189.143851 C79.6633195,189.193649 79.8049602,189.235403 79.9466008,189.277923 C80.0691008,189.31623 80.199257,189.354536 80.3255852,189.389012 C80.7734758,189.511593 81.2290227,189.614637 81.6922258,189.695081 C81.8376945,189.722278 81.9831633,189.744879 82.128632,189.764415 C82.2741008,189.787399 82.4195695,189.806169 82.5688664,189.821492 C82.6951945,189.837198 82.8253508,189.85252 82.955507,189.864012 C82.9746477,189.867843 82.9937883,189.867843 83.0129289,189.87129 C83.3153508,189.898488 83.6216008,189.917258 83.9316789,189.929133 L83.9546477,189.929133 C84.1537102,189.936411 84.3451164,189.940625 84.5441789,189.940625 L84.548007,189.940625 C84.8772258,189.940625 85.2102727,189.932964 85.5471477,189.91381 C85.8801945,189.894657 86.2132414,189.864012 86.5501164,189.829536 C86.7185539,189.81 86.8869914,189.787399 87.0554289,189.764415 C87.1970695,189.744879 87.3387102,189.725726 87.4803508,189.699294 C87.5301164,189.695081 87.5760539,189.687802 87.6219914,189.67631 C87.7559758,189.657157 87.886132,189.63379 88.0201164,189.607359 C88.376132,189.538024 88.7359758,189.461794 89.0919914,189.37369 C89.3484758,189.312016 89.601132,189.243448 89.8576164,189.170282 C89.9839445,189.132359 90.1141008,189.094052 90.2404289,189.055363 C90.366757,189.01744 90.4969133,188.97875 90.6232414,188.936996 C90.9639445,188.825907 91.3046477,188.703327 91.6415227,188.576532 C91.9783977,188.446673 92.3152727,188.308387 92.6521477,188.162823 C92.9890227,188.017641 93.3220695,187.860202 93.6551164,187.695867 C93.8235539,187.611593 93.9881633,187.526935 94.1527727,187.439214 C94.4858195,187.266835 94.8112102,187.082964 95.1404289,186.891431 C95.3050383,186.795665 95.4658195,186.699899 95.6266008,186.596472 C95.787382,186.496875 95.9481633,186.393065 96.1089445,186.29002 C96.2697258,186.18621 96.430507,186.079335 96.5912883,185.968246 C96.920507,185.742238 97.2497258,185.508569 97.5712883,185.259194 C97.716757,185.152319 97.8583977,185.04123 98.0000383,184.925927 C98.3101164,184.684597 98.6125383,184.432157 98.9149602,184.167843 C99.0259758,184.072077 99.1369914,183.97248 99.248007,183.8725 C99.584882,183.570262 99.9141008,183.256149 100.239491,182.930161 C100.419413,182.750504 100.599335,182.562419 100.775429,182.375101 C100.863476,182.283165 100.951523,182.19123 101.035741,182.095464 C101.123788,181.999698 101.208007,181.907379 101.292226,181.811613 C101.40707,181.685202 101.514257,181.55496 101.625273,181.428548 C101.705663,181.336996 101.786054,181.24123 101.862616,181.149294 C101.988945,180.995685 102.115273,180.842843 102.233945,180.689617 C102.444491,180.424919 102.647382,180.157157 102.842616,179.889012 C102.949804,179.743448 103.053163,179.597883 103.152695,179.452319 C103.160351,179.444657 103.164179,179.440827 103.168007,179.432782 C103.504882,178.950504 103.818788,178.459798 104.113554,177.965645 C104.170976,177.869879 104.228398,177.774113 104.281991,177.678347 C104.377695,177.514012 104.46957,177.349294 104.557616,177.180363 C104.615038,177.081149 104.668632,176.981552 104.722226,176.881573 C104.905976,176.537198 105.078241,176.188609 105.239023,175.839637 C105.288788,175.732379 105.338554,175.621673 105.38832,175.514415 C105.392148,175.510585 105.392148,175.502923 105.395976,175.499093 C105.438085,175.407157 105.476366,175.314839 105.514648,175.227117 C105.556757,175.12752 105.595038,175.031754 105.637148,174.935988 C105.679257,174.840222 105.717538,174.740242 105.759648,174.644476 C105.763476,174.633367 105.767304,174.621875 105.771132,174.610383 C105.778788,174.594677 105.782616,174.575907 105.790273,174.560585 C105.790273,174.556754 105.794101,174.552923 105.794101,174.54871 C105.840038,174.437621 105.87832,174.330746 105.920429,174.219657 C105.981679,174.05877 106.039101,173.897883 106.096523,173.732782 C106.153945,173.572278 106.207538,173.411391 106.261132,173.246673 C106.30707,173.10494 106.353007,172.959375 106.398945,172.817641 C106.425741,172.713831 106.456366,172.614617 106.486991,172.51119 C106.50996,172.430746 106.529101,172.346089 106.55207,172.265645 C106.609491,172.055343 106.663085,171.844657 106.712851,171.629758 C106.747304,171.488407 106.777929,171.34246 106.808554,171.201109 C106.843007,171.051331 106.873632,170.906149 106.900429,170.756754 C106.954023,170.476734 107.003788,170.19748 107.04207,169.917843 C107.06121,169.787601 107.080351,169.66119 107.095663,169.530948 C107.110976,169.400706 107.126288,169.270464 107.141601,169.139839 C107.168398,168.879738 107.191366,168.623085 107.206679,168.366431 C107.214335,168.274113 107.218163,168.182177 107.221991,168.090625 C107.229648,167.968044 107.233476,167.845081 107.237304,167.726714 C107.241132,167.557782 107.24496,167.393448 107.24496,167.22873 C107.24496,166.71121 107.221991,166.198286 107.176054,165.692258 C107.160741,165.535585 107.145429,165.374698 107.12246,165.217641" id="Fill-3"></path>
                    <g id="Group-7" transform="translate(0.000000, 75.021270)">
                        <path d="M100.560977,49.0824012 C98.8723914,51.7389536 95.1958602,52.4234899 92.3106023,53.2022601 C92.1264695,53.2524415 91.9362117,53.1685504 91.8481648,52.9988528 C90.5707195,50.5391956 85.5336727,42.6381069 84.4170086,40.8920988 C84.295657,40.7028649 84.3526961,40.4511915 84.5433367,40.3316754 L94.3318523,34.2049415 L94.6025008,34.0478851 C94.7946727,33.9364133 95.0408211,34.0011512 95.153368,34.1926835 L101.065524,44.2339536 C101.921493,45.6949617 101.414266,47.7428246 100.560977,49.0824012 L100.560977,49.0824012 Z M98.634282,54.9287319 L93.0846492,65.5315746 C93.0846492,65.5315746 92.2443758,67.6250222 89.9153445,67.8372399 C87.9955398,68.010002 84.4158602,68.158631 83.2134461,68.2053649 C82.9887352,68.2141754 82.8168523,68.4049415 82.8279539,68.6294173 L82.9944773,71.9954052 C83.0151492,72.4114133 82.4700242,72.5834093 82.2487586,72.2306069 L75.7367352,61.8522399 C75.6567273,61.7250625 75.6540477,61.5637923 75.7298445,61.4339335 L81.7472742,51.0808488 C81.9505477,50.7311109 82.4838055,50.8632681 82.5006492,51.2674012 L82.6633445,55.1509093 C82.6717664,55.3524012 82.8260398,55.5163528 83.0262508,55.5366552 C84.8090086,55.7166956 93.0214852,56.4031472 98.130118,54.3663931 C98.4780945,54.2277238 98.8080789,54.596998 98.634282,54.9287319 L98.634282,54.9287319 Z M75.4212977,34.581494 L78.7923445,32.6485504 C78.966907,32.5481875 79.0411727,32.3355867 78.966907,32.1482681 C78.3057898,30.4815544 75.132657,22.8700625 70.9733992,19.269256 C70.690118,19.0244778 70.8654461,18.5609698 71.2398367,18.562502 L83.2011961,18.6119173 C83.2011961,18.6119173 85.4475398,18.3935706 86.7054617,20.3655867 C87.7436492,21.9913125 89.5233445,25.1029456 90.1182352,26.1494778 C90.2296336,26.3452238 90.4780789,26.4103448 90.6721648,26.2969577 L93.5826883,24.5980665 C93.9421492,24.3881472 94.3456336,24.7934294 94.1347039,25.1523609 L87.9243367,35.7153649 C87.848157,35.8448407 87.7065164,35.9218367 87.5564539,35.9145585 L75.6027508,35.3365141 C75.1992664,35.3169778 75.0710242,34.7822198 75.4212977,34.581494 L75.4212977,34.581494 Z M72.6753836,25.4760504 C71.0802039,27.7437923 66.3735242,35.8613125 65.3364852,37.6563528 C65.2239383,37.8509496 64.9747273,37.9160706 64.781407,37.8015343 L54.8382352,31.9272399 L54.5740945,31.7594577 C54.3865164,31.6399415 54.3298602,31.3920988 54.4481492,31.203631 C55.5621336,29.4308085 60.6546883,21.3243972 60.6546883,21.323248 C61.5569773,19.8913528 63.6073211,19.3975827 65.1883367,19.5393165 C68.3228055,19.8178044 70.6231258,22.7693165 72.6432273,24.9723206 C72.7722352,25.1129052 72.7852508,25.3201431 72.6753836,25.4760504 L72.6753836,25.4760504 Z M71.3141023,68.0567359 L71.2915164,68.3700827 C71.2754383,68.5911109 71.0844148,68.758127 70.863532,68.7447198 L58.9285867,68.015748 C57.2400008,67.8996794 55.836993,66.323752 55.2126258,64.8646593 C53.9738445,61.9694577 55.4840398,58.545627 56.467868,55.7212923 C56.5306492,55.540869 56.7071258,55.4309294 56.8962352,55.4535302 C59.667032,55.784498 69.2809852,56.039619 71.388368,56.0924819 C71.6138445,56.0982278 71.7910867,56.2878448 71.7818992,56.5130867 L71.3141023,68.0567359 Z M51.7868367,59.9208286 L46.1721258,49.3524617 C46.1721258,49.3524617 44.9165008,47.477744 46.057282,45.4337117 C46.9967039,43.7509093 48.8943055,40.7082278 49.5339852,39.688127 C49.6538055,39.4973609 49.5933211,39.2476028 49.401532,39.130002 L46.5292898,37.3690544 C46.1744227,37.1514738 46.3401805,36.6040746 46.7562977,36.6201633 L58.9948133,37.0955464 C59.1448758,37.1016754 59.2796258,37.1905464 59.3439383,37.3261512 L64.4897039,48.1381472 C64.6638836,48.5032077 64.2538914,48.8690343 63.9108914,48.6552843 L60.614493,46.5974617 C60.4437586,46.4909698 60.2213445,46.5258286 60.0915711,46.6802036 C58.9370086,48.0519577 53.7372664,54.4514335 52.5352352,59.8216149 C52.4536961,60.1870585 51.9625477,60.2517964 51.7868367,59.9208286 L51.7868367,59.9208286 Z M86.6419148,0.0420987903 L60.0747273,0.0420987903 C26.896368,0.0420987903 -3.828125e-05,26.9562117 -3.828125e-05,60.1564133 L-3.828125e-05,72.1195181 C-3.828125e-05,89.955002 14.4473055,104.411474 32.2710555,104.411474 L37.706993,104.411474 C36.083868,101.4048 35.0387898,98.1832278 34.6559773,94.9233488 C34.1468367,90.5717359 34.8358992,86.4959294 36.6198055,83.0291956 C33.9171492,81.7765746 31.6049617,80.0144778 29.6947273,77.7425222 C20.6258992,66.9749617 24.2855867,48.8598407 24.446368,48.0937117 C24.7258211,46.7449415 26.0465242,45.8830464 27.3901961,46.1668972 C28.733868,46.4465343 29.5951961,47.7642762 29.315743,49.1084496 C29.3004305,49.1854456 28.5730867,52.8092359 28.5730867,57.5554052 C28.5730867,62.9566149 29.5148055,69.809256 33.511368,74.5481472 C35.1191805,76.4558085 37.1442586,77.896131 39.5712898,78.8652843 C39.6861336,78.7461512 39.8009773,78.6277843 39.9158211,78.5128649 C40.9073055,77.5207278 41.9370711,76.7239536 43.005118,76.1298206 C43.005118,76.1298206 45.4930164,74.0532278 48.7396492,74.8124617 C49.1741414,74.9139738 49.6074852,74.9676028 50.0339383,74.9882883 C54.6073992,75.9003649 58.2701492,79.8214133 62.4290242,84.2741552 C63.6272273,85.5574214 64.8675398,86.8828246 66.1805867,88.1963528 C67.4898055,89.5064335 68.8143367,90.7479456 70.0967586,91.9465544 C71.2337117,93.0080262 72.3323836,94.0380867 73.3583211,95.0574214 C74.3842586,94.0380867 75.4829305,93.0080262 76.6198836,91.9465544 C77.9023055,90.7479456 79.2268367,89.5064335 80.5398836,88.1963528 C81.8491023,86.8828246 83.0894148,85.5574214 84.287618,84.2741552 C88.8312195,79.4092359 92.7822273,75.176373 97.976993,74.8124617 L97.976993,74.8124617 C97.976993,74.8124617 101.91843,74.9124415 103.711524,76.1298206 C104.779571,76.7239536 105.809337,77.5207278 106.800821,78.5128649 C106.915665,78.6277843 107.030509,78.7461512 107.145352,78.8652843 C109.576212,77.8923004 111.605118,76.4477641 113.216759,74.5366552 C120.742852,65.5997601 117.435352,49.277381 117.400899,49.1126633 C117.117618,47.7677238 117.982774,46.4465343 119.326446,46.1668972 C120.670118,45.8830464 121.990821,46.7449415 122.270274,48.0937117 C122.431055,48.8598407 126.090743,66.9749617 117.021915,77.7425222 C115.11168,80.0144778 112.799493,81.7765746 110.096837,83.0291956 C111.880743,86.4920988 112.569805,90.5717359 112.060665,94.9233488 C111.677852,98.1832278 110.632774,101.4048 109.009649,104.411474 L114.445587,104.411474 C132.269337,104.411474 146.71668,89.955002 146.71668,72.1195181 L146.71668,60.1564133 C146.71668,26.9562117 119.820274,0.0420987903 86.6419148,0.0420987903 L86.6419148,0.0420987903 Z" id="Fill-5"></path>
                    </g>
                </g>
            </g>
        </g>
    </g>
</svg>