<?xml version="1.0" encoding="UTF-8" standalone="no"?>
<svg width="168px" height="168px" viewBox="0 0 168 168" version="1.1" xmlns="http://www.w3.org/2000/svg" xmlns:xlink="http://www.w3.org/1999/xlink">
    <!-- Generator: Sketch 46 (44423) - http://www.bohemiancoding.com/sketch -->
    <title>Lealtad</title>
    <desc>Created with Sketch.</desc>
    <defs>
        <polygon id="path-1" points="0 167.815802 0 0.326215217 167.27976 0.326215217 167.27976 167.815802 1.63854273e-15 167.815802"></polygon>
    </defs>
    <g id="2.1-We-are" stroke="none" stroke-width="1" fill="none" fill-rule="evenodd">
        <g id="2.1-We-Are-Valores" transform="translate(-331.000000, -2822.000000)">
            <g id="Lealtad" transform="translate(331.000000, 2822.000000)">
                <path d="M117.52544,89.1205513 L111.392216,95.2648317 L97.1474162,109.527499 C95.1858593,111.488153 92.9421607,113.058695 90.5036498,114.198766 L119.577685,143.305908 C124.276689,140.443958 128.623015,137.02038 132.569641,133.072166 C137.503763,128.131856 141.611612,122.562656 144.836089,116.462095 L117.52544,89.1205513 Z" id="Fill-1" fill="#FFFFFF"></path>
                <path d="M49.3075622,81.7939593 C49.3377916,81.9923788 49.3747388,82.1938252 49.4116859,82.3922447 C49.4284801,82.2446071 49.4452742,82.0962969 49.4654272,81.9520223 L52.992199,85.4862447 C53.052658,85.5467795 53.1131169,85.6042875 53.1735759,85.6577599 C53.2373937,85.7149317 53.2978526,85.7687404 53.3616704,85.8195223 C53.4221293,85.8696317 53.4792294,85.9136875 53.5396884,85.9574071 C53.5430472,85.9607702 53.5497649,85.9637969 53.5531237,85.9671599 C53.5900708,85.9940643 53.6236591,86.0209686 53.6606063,86.0448462 C53.7109887,86.0781404 53.7580124,86.1121071 53.805036,86.1423745 C53.8554184,86.1726419 53.9058009,86.205936 53.9528245,86.2328404 C53.9998481,86.2597447 54.0468718,86.2866491 54.0938954,86.3135534 C54.140919,86.3407941 54.1879426,86.3676984 54.2383251,86.3912397 C54.2584781,86.4009925 54.2752722,86.4080549 54.2954252,86.4181441 C54.3861136,86.4618636 54.4801609,86.5055832 54.5742081,86.5422404 C54.5842846,86.5493028 54.5943611,86.5523295 54.6044376,86.5556925 C54.6514612,86.5762071 54.6984849,86.5930223 54.7455085,86.6095012 C54.7925321,86.6300158 54.8395557,86.643468 54.8899382,86.6602832 C54.893297,86.6633099 54.893297,86.6633099 54.8966558,86.6633099 C54.9470383,86.6801252 54.9974208,86.6972767 55.0478032,86.7103925 C55.1250563,86.7339338 55.1989506,86.7544484 55.2762037,86.7746267 C55.3601744,86.7944686 55.447504,86.8116202 55.5314748,86.8284354 C55.6759045,86.8553397 55.823693,86.8751817 55.9681227,86.8886338 C56.0285817,86.8956962 56.0890406,86.902086 56.1494996,86.902086 L56.1562172,86.902086 C56.2469056,86.9091484 56.3409529,86.9125115 56.4350001,86.9125115 C56.5290474,86.9125115 56.6264535,86.9091484 56.7205007,86.902086 C56.7272184,86.902086 56.7372949,86.902086 56.7440125,86.8990593 C56.8044715,86.8990593 56.8582128,86.8919969 56.9186717,86.8856071 C56.9287482,86.8856071 56.9388247,86.8856071 56.9489012,86.8822441 L56.9690542,86.8822441 C57.0093601,86.8785447 57.0496661,86.8751817 57.0899721,86.8687919 C57.1000485,86.8654288 57.110125,86.8654288 57.1202015,86.8617295 C57.1974546,86.8519767 57.2780666,86.8385245 57.3586785,86.8250723 C57.4359316,86.8116202 57.5131847,86.7911056 57.5937966,86.7746267 C57.6710497,86.7544484 57.744944,86.7339338 57.8221971,86.7103925 C57.8725795,86.6972767 57.922962,86.6801252 57.9733444,86.6633099 C57.9767033,86.6633099 57.9767033,86.6633099 57.9800621,86.6602832 C58.0136504,86.6498578 58.0438799,86.6397686 58.0774682,86.6300158 C58.141286,86.6064745 58.2017449,86.5825969 58.2655627,86.5556925 C58.299151,86.5422404 58.3293805,86.5291245 58.3629688,86.511973 C58.4301454,86.488768 58.4939631,86.4581643 58.5611397,86.4248702 C58.5846516,86.4144447 58.6048045,86.4046919 58.6283164,86.3912397 C58.7257224,86.3407941 58.8231285,86.2900121 58.9171758,86.2328404 C59.0045053,86.182731 59.0918349,86.1289223 59.1758057,86.0683875 C59.1825234,86.0646882 59.1858822,86.0613252 59.1925998,86.0582984 C59.1925998,86.0549354 59.1959587,86.0549354 59.1959587,86.0549354 C59.2396235,86.024668 59.2799294,85.9977636 59.3202354,85.9671599 C59.3840532,85.9204136 59.447871,85.8696317 59.5083299,85.8195223 C59.5721477,85.7687404 59.6359655,85.7149317 59.6964244,85.6577599 C59.7602422,85.6042875 59.8173423,85.5467795 59.8778012,85.4862447 L61.6075989,83.7509143 C62.396924,82.9639621 62.8537249,81.9718643 62.9880781,80.946136 C64.1099275,80.7241752 65.1780355,80.1759991 66.0479726,79.3083338 L68.355489,76.997923 C69.6150504,75.7367817 70.1894104,74.0552599 70.0886455,72.4043419 C71.4019481,72.2664571 72.6783036,71.6947397 73.6859528,70.6858267 L75.9934692,68.3754158 C76.7928708,67.5750115 77.3134895,66.5993925 77.5654018,65.5740006 C78.5260273,66.0078332 79.5639058,66.2227317 80.5984256,66.2227317 C82.4894471,66.2227317 84.3838274,65.5000136 85.8281244,64.0539049 L88.3438883,61.5383484 C89.7881854,60.0888767 90.5103339,58.1917838 90.5103339,56.2953636 C90.5103339,56.1776571 90.5069751,56.0596143 90.5002574,55.9385447 C90.4968986,55.8544686 90.4901809,55.7670295 90.4834633,55.6799267 L90.4834633,55.6664745 C90.4767456,55.5854252 90.4700279,55.5050484 90.4565926,55.4276984 C90.4532338,55.3601012 90.4431573,55.2965397 90.4330808,55.2326419 C90.4230043,55.1452028 90.4062102,55.0577636 90.3927748,54.9736875 C90.389416,54.9635984 90.3860572,54.956536 90.3860572,54.9467832 C90.3826984,54.933331 90.3826984,54.9198788 90.3793395,54.9064267 C90.3591865,54.7920832 90.3323159,54.6774034 90.3054453,54.5630599 C90.2953688,54.5163136 90.2819334,54.4655317 90.2684981,54.4154223 C90.2483451,54.3410991 90.2281922,54.2640854 90.2046803,54.1863991 C90.1811685,54.1060223 90.1542979,54.0219462 90.1274272,53.9378702 C90.1207096,53.9207186 90.1173508,53.9076028 90.1106331,53.8904512 C90.0871213,53.8235267 90.0636095,53.7562658 90.0367388,53.6890049 C90.0300212,53.6651273 90.0233035,53.6419223 90.013227,53.618381 C90.0065094,53.5978665 89.9964329,53.5780245 89.9897152,53.5578462 C89.9897152,53.5541469 89.9863564,53.5541469 89.9863564,53.5541469 C89.9662034,53.5003382 89.9426916,53.4468658 89.9191798,53.3930571 C89.895668,53.3358854 89.8687973,53.2750143 89.8419267,53.2148158 C89.8116972,53.150918 89.7814677,53.0836571 89.7478794,53.019423 C89.7310853,52.9790665 89.7109323,52.9387099 89.6907793,52.8986897 C89.6403969,52.8045245 89.5900144,52.713386 89.5362731,52.6195571 C89.5026848,52.558686 89.4690965,52.5015143 89.4321494,52.4443425 C89.3884846,52.3673288 89.341461,52.2930056 89.2910785,52.2193549 C89.0223721,51.8090636 88.706642,51.4189506 88.3438883,51.0557419 L84.1587857,46.8653897 L83.9908442,46.6972375 L82.0192108,44.723131 C81.9453165,44.6491441 81.8747811,44.5785202 81.797528,44.5112593 C81.7706574,44.4843549 81.7404279,44.4571143 81.7101984,44.433573 C81.659816,44.3868267 81.6094335,44.3431071 81.5556922,44.2993875 C81.4582861,44.2153115 81.3608801,44.1345984 81.2601152,44.0639745 C81.2063739,44.0202549 81.1492738,43.9765354 81.0921736,43.9392056 C81.085456,43.9328158 81.0787383,43.9257534 81.0720207,43.9227267 C81.0585853,43.9123012 81.04515,43.9059115 81.0317147,43.8958223 C80.9477439,43.8386506 80.8637732,43.7814788 80.7798024,43.7276702 C80.6286551,43.6301419 80.4741489,43.5356404 80.3162838,43.4515643 C80.2457484,43.4112078 80.175213,43.3745506 80.1046775,43.3405838 C80.0845245,43.330831 80.0643716,43.3207419 80.0475774,43.3103165 C80.0375009,43.3039267 80.0240656,43.3005636 80.0139891,43.2938375 C80.0039126,43.2871115 79.9904773,43.2834121 79.9804008,43.2770223 C79.9736831,43.2736593 79.9669655,43.2699599 79.9602478,43.2699599 C79.9199419,43.250118 79.8829947,43.2299397 79.8393299,43.2127882 C79.758718,43.176131 79.6781061,43.1421643 79.5974941,43.1088702 C79.5135234,43.0749034 79.4329115,43.0416093 79.3489407,43.0113419 C79.2884818,42.9874643 79.2213051,42.9642593 79.1574874,42.9437447 C79.1507697,42.940718 79.1474109,42.940718 79.1406932,42.9373549 C78.9626752,42.8764838 78.7812984,42.8226752 78.5965627,42.7789556 C78.5428214,42.7655034 78.4957978,42.7520512 78.4454153,42.7422984 C78.43198,42.7385991 78.4151859,42.735236 78.4017505,42.7322093 C78.3681622,42.7254832 78.3379328,42.7187571 78.3043445,42.712031 C78.2405267,42.6985788 78.1800677,42.6851267 78.11625,42.6750375 C78.0222027,42.6582223 77.9247966,42.6414071 77.8273906,42.6279549 C77.7165492,42.6108034 77.6057078,42.5973512 77.4982252,42.5875984 L77.4915075,42.5875984 C77.4847899,42.5875984 77.4747134,42.5875984 77.4679957,42.5838991 C77.2429541,42.5640571 77.0145536,42.5536317 76.7861532,42.5536317 C74.8917728,42.5536317 72.9973925,43.2770223 71.5497367,44.723131 L69.0373316,47.2386875 C68.9432843,47.3325165 68.8525959,47.4300447 68.7619075,47.527573 C68.6812955,47.6187115 68.6040425,47.7091773 68.5301482,47.8036788 C68.4495363,47.8978441 68.375642,47.9987354 68.3017477,48.0996267 C68.2211358,48.2106071 68.1438827,48.3215875 68.0699884,48.435931 C68.0330413,48.4927665 67.9960942,48.5469115 67.9625059,48.6071099 C67.9255587,48.6642817 67.8919704,48.7214534 67.8583821,48.7823245 C67.8113585,48.8593382 67.7676937,48.9403875 67.7240289,49.0211006 C67.66357,49.1354441 67.6064698,49.2494512 67.5527286,49.3674941 C67.5023461,49.4747752 67.4553225,49.5827288 67.4116577,49.6937093 C67.3747105,49.7811484 67.3411222,49.8682512 67.3108928,49.9593897 C67.2974575,49.9960469 67.2806633,50.0364034 67.267228,50.080123 C67.2000514,50.2856049 67.1395924,50.4907506 67.0858511,50.6992593 C67.0858511,50.7059854 67.0824923,50.7090121 67.0824923,50.7160745 C67.0589805,50.8169658 67.0354687,50.9175208 67.0153157,51.0184121 C67.008598,51.0587686 66.9985216,51.0991252 66.9918039,51.139818 C66.9750097,51.2302838 66.9615744,51.3244491 66.9481391,51.4189506 C66.9313449,51.5332941 66.9179096,51.6473012 66.9044743,51.7616447 C66.9044743,51.7787962 66.9044743,51.7922484 66.9011155,51.8057006 C66.891039,51.9129817 66.8843213,52.0175723 66.8809625,52.1248534 C66.8742448,52.2428962 66.870886,52.3602665 66.870886,52.4783093 C66.870886,52.7840099 66.891039,53.0900469 66.9279861,53.3930571 C65.4232301,53.4128991 63.9251918,53.9950419 62.7764718,55.1418397 L60.4689554,57.4519143 C59.209394,58.7130556 58.635034,60.3945773 58.7324401,62.0458317 C57.4191374,62.1837165 56.1461407,62.7557702 55.1384916,63.7646832 L52.8309752,66.0750941 C51.1750718,67.7327382 50.6981179,70.117136 51.390037,72.1991962 C51.1347659,72.3703752 50.8895713,72.5687947 50.6645296,72.7941186 L49.3075622,74.1527882 L48.934732,74.5264223 C47.033634,76.4299049 47.033634,79.5168425 48.934732,81.4206615 L49.3075622,81.7939593 Z" id="Fill-3" fill="#FFFFFF"></path>
                <path d="M94.0606847,106.436963 L102.242795,98.2412261 L114.438708,86.0300152 L117.411273,83.0537217 C117.582574,82.8855696 117.73708,82.7073283 117.881509,82.5223609 C119.779249,80.131237 119.624742,76.6403978 117.411273,74.4275152 C116.907449,73.9230587 116.333089,73.5295826 115.72514,73.2403609 C116.554772,71.0947391 116.108047,68.5724565 114.381608,66.8404891 L112.074092,64.5300783 C111.066443,63.5211652 109.790087,62.9528109 108.476785,62.811563 C108.574191,61.1636717 108.003189,59.48215 106.743628,58.2210087 L104.436112,55.9105978 C103.287392,54.760437 101.789353,54.1786304 100.284597,54.1584522 C100.553304,51.9724739 99.8513083,49.6856043 98.1752519,48.0074457 L95.659488,45.4918891 C95.5687996,45.401087 95.4781112,45.3136478 95.3840639,45.2295717 C94.5409975,44.4627978 93.5635779,43.931437 92.5324169,43.6254 C91.8472156,43.4202543 91.1351435,43.319363 90.4264303,43.319363 C89.7177171,43.319363 89.0056451,43.4202543 88.3204437,43.6254 C88.2431906,43.6489413 88.1692963,43.6691196 88.0920432,43.6960239 C87.9442547,43.7431065 87.7964662,43.8002783 87.6486776,43.860813 L87.6453188,43.860813 C87.5747834,43.8944435 87.5008891,43.9247109 87.4303537,43.9583413 L91.4307206,47.9637261 C92.2032516,48.7372261 92.848147,49.5948022 93.3586892,50.506187 C94.5745858,52.6652609 95.0582574,55.1270087 94.8063451,57.5282217 C94.5376387,60.1244913 93.4124305,62.6434109 91.4307206,64.6276065 L88.9183155,67.143163 C86.6947698,69.3694978 83.7389991,70.5936457 80.5984928,70.5936457 C80.356657,70.5936457 80.1148212,70.5869196 79.8763442,70.5701043 C79.6277908,70.8828674 79.3624432,71.1821783 79.0803014,71.468037 L76.772785,73.7784478 C75.9700246,74.5822152 75.0396286,75.2447348 74.0319795,75.7424652 C73.5449491,77.3668152 72.6649355,78.8667326 71.4423213,80.0875174 L69.1348048,82.3979283 C68.3521974,83.1815174 67.4587485,83.8272217 66.4880465,84.3182261 C66.0413221,85.2464261 65.4400915,86.0972761 64.6977899,86.8405087 L62.9646335,88.5758391 C61.7319428,89.8100761 60.2070338,90.6542 58.5477716,91.04095 C57.8625702,91.199013 57.153857,91.2830891 56.4350673,91.2830891 C55.0848175,91.2830891 53.7748737,90.9938674 52.5824889,90.4456913 C51.8569816,90.11275 51.1717802,89.6822804 50.5470377,89.1610087 L22.7359225,117.007009 C25.913376,122.895698 29.9238195,128.276567 34.7101527,133.072267 C38.801208,137.168454 43.3221937,140.696287 48.2227271,143.618772 L77.8711225,113.93655 L79.822603,111.982622 C80.098027,111.992711 80.3700923,111.999437 80.6421576,111.999437 C82.3114962,111.999437 83.9808349,111.780839 85.60315,111.343643 C85.740862,111.303287 85.8819329,111.266293 86.0196449,111.225937 C86.0230038,111.225937 86.0230038,111.225937 86.0263626,111.222574 L86.0297214,111.222574 L86.0330802,111.222574 C86.096898,111.205759 86.157357,111.18558 86.2211747,111.162039 C86.3085043,111.138498 86.3958339,111.111593 86.4798047,111.081326 C86.9198115,110.940078 87.3531006,110.782015 87.7830309,110.6105 C88.0685314,110.492793 88.3506732,110.368361 88.6294561,110.240565 C89.0526687,110.045509 89.4691637,109.833637 89.878941,109.60495 C90.1510062,109.45025 90.4197127,109.292187 90.6850603,109.127398 C91.8841627,108.377439 93.0160885,107.48287 94.0606847,106.436963" id="Fill-5" fill="#FFFFFF"></path>
                <g id="Group-9" transform="translate(0.000000, 0.010089)">
                    <mask id="mask-2" fill="white">
                        <use xlink:href="#path-1"></use>
                    </mask>
                    <g id="Clip-8"></g>
                    <path d="M112.272196,151.942237 C103.206713,155.77947 93.5735872,157.726672 83.638167,157.726672 C73.7027469,157.726672 64.0696215,155.77947 55.0074972,151.942237 C51.5411843,150.472587 48.2159423,148.757435 45.0452065,146.793418 C40.1984143,143.800309 35.7076581,140.242209 31.6233204,136.152748 C26.8437049,131.367137 22.7929555,126.029987 19.5214547,120.215285 C18.1611285,117.803983 16.9385142,115.308604 15.853612,112.735876 C12.0211866,103.662385 10.0764238,94.0171762 10.0764238,84.0692936 C10.0764238,74.121411 12.0211866,64.4762023 15.853612,55.402711 C19.5584019,46.6318936 24.861995,38.7556458 31.6233204,31.9858393 C38.3812871,25.2193958 46.2510266,19.9057871 55.0074972,16.1963501 C64.0696215,12.3591175 73.7027469,10.4152784 83.638167,10.4152784 C93.5735872,10.4152784 103.206713,12.3591175 112.272196,16.1963501 C121.028666,19.9057871 128.898406,25.2193958 135.656372,31.9858393 C142.417698,38.7556458 147.721291,46.6318936 151.426081,55.402711 C155.258506,64.4762023 157.203269,74.121411 157.203269,84.0692936 C157.203269,94.0171762 155.258506,103.662385 151.426081,112.735876 C150.418432,115.116911 149.296582,117.434048 148.057174,119.677198 C144.735291,125.700409 140.580418,131.222526 135.656372,136.152748 C131.716464,140.097598 127.400367,143.548081 122.748387,146.470565 C119.423145,148.569104 115.923244,150.395237 112.272196,151.942237 M83.638167,0.326147957 C37.4475322,0.326147957 -6.71766065e-05,37.8173567 -6.71766065e-05,84.0692936 C-6.71766065e-05,100.006757 4.44702419,114.901676 12.1622575,127.583713 C18.6280059,138.207568 27.3878354,147.274333 37.749827,154.094585 C50.9265184,162.771237 66.692868,167.815802 83.638167,167.815802 C100.798431,167.815802 116.756234,162.640078 130.030332,153.761644 C140.3453,146.867404 149.041311,137.733378 155.429807,127.059078 C162.956945,114.491385 167.27976,99.7847958 167.27976,84.0692936 C167.27976,37.8173567 129.832161,0.326147957 83.638167,0.326147957" id="Fill-7" fill="#FFFFFF" mask="url(#mask-2)"></path>
                </g>
            </g>
        </g>
    </g>
</svg>