<?xml version="1.0" encoding="UTF-8" standalone="no"?>
<svg width="169px" height="169px" viewBox="0 0 169 169" version="1.1" xmlns="http://www.w3.org/2000/svg" xmlns:xlink="http://www.w3.org/1999/xlink">
    <!-- Generator: Sketch 46 (44423) - http://www.bohemiancoding.com/sketch -->
    <title>Respeto</title>
    <desc>Created with Sketch.</desc>
    <defs>
        <polygon id="path-1" points="0 44.8206803 0 0.307894359 44.5330597 0.307894359 44.5330597 44.8206803 4.97455972e-15 44.8206803"></polygon>
    </defs>
    <g id="2.1-We-are" stroke="none" stroke-width="1" fill="none" fill-rule="evenodd">
        <g id="2.1-We-Are-Valores" transform="translate(-330.000000, -1538.000000)">
            <g id="Respeto" transform="translate(330.000000, 1538.000000)">
                <path d="M39.3336715,86.6407677 L12.6617165,86.6407677 C12.7780982,97.8904249 13.7878809,109.136661 15.6910646,120.352104 C17.7927818,119.818361 19.9971887,119.534382 22.2666326,119.534382 C36.9991909,119.534382 48.9830865,131.512804 48.9830865,146.238632 C48.9830865,148.50704 48.6989781,150.71044 48.1615683,152.814618 C59.3821367,154.716932 70.636935,155.726254 81.8917332,155.842582 L81.8917332,129.179389 C69.2369312,129.025425 56.4452094,127.550789 43.7356395,124.779432 C40.9630158,112.079089 39.4877062,99.2897892 39.3336715,86.6407677" id="Fill-1" fill="#FFFFFF"></path>
                <path d="M48.9830522,22.59857 C48.9830522,37.3209773 36.9991566,49.3028202 22.2665983,49.3028202 C19.9971545,49.3028202 17.7927475,49.0188416 15.6910304,48.4850988 C13.7878467,59.6971202 12.778064,70.943356 12.6616823,82.1930132 L39.3336373,82.1930132 C39.4876719,69.5439917 40.9629816,56.7581131 43.7356052,44.0543487 C56.4451752,41.286413 69.2368969,39.8083559 81.891699,39.6543916 L81.891699,12.99462 C70.6369007,13.1109486 59.3821025,14.12027 48.1615341,16.0225843 C48.6989439,18.1267629 48.9830522,20.3301629 48.9830522,22.59857" id="Fill-3" fill="#FFFFFF"></path>
                <path d="M128.899548,82.1929106 L155.571503,82.1929106 C155.455121,70.9432534 154.445338,59.6970176 152.542155,48.4849961 C150.440438,49.018739 148.236031,49.3027175 145.966587,49.3027175 C131.234028,49.3027175 119.250133,37.3208746 119.250133,22.5984674 C119.250133,20.3300603 119.534241,18.1266602 120.071651,16.0224817 C108.851083,14.1201674 97.5962844,13.1108459 86.3414861,12.9945174 L86.3414861,39.6542889 C98.9962882,39.8082532 111.78801,41.2863104 124.49758,44.0542461 C127.270204,56.7580104 128.745513,69.5438891 128.899548,82.1929106" id="Fill-5" fill="#FFFFFF"></path>
                <path d="M145.966621,119.534416 C148.236065,119.534416 150.440472,119.818395 152.542189,120.352138 C154.445373,109.136695 155.455155,97.8904592 155.571537,86.640802 L128.899582,86.640802 C128.745547,99.2898235 127.270238,112.079124 124.497614,124.779466 C111.788044,127.550824 98.9963224,129.025459 86.3415204,129.179424 L86.3415204,155.842617 C97.5963186,155.726288 108.851117,154.716967 120.071685,152.814652 C119.534275,150.710474 119.250167,148.507074 119.250167,146.238667 C119.250167,131.512838 131.234063,119.534416 145.966621,119.534416" id="Fill-7" fill="#FFFFFF"></path>
                <g id="Group-11" transform="translate(123.570017, 0.160807)" fill="#FFFFFF">
                    <path d="M22.3966036,44.6940875 C22.5437922,44.6940875 22.6909809,44.6940875 22.8347466,44.6872446 C22.9374363,44.6872446 23.0401261,44.6838232 23.1428159,44.6804017 C23.3550414,44.6735589 23.5672669,44.6632946 23.7760694,44.6496089 C23.8582212,44.6461875 23.940373,44.642766 24.0191019,44.6359232 C24.0499088,44.6325017 24.0772927,44.6325017 24.1080997,44.6290803 C24.1560215,44.6256589 24.2039434,44.6222375 24.2552883,44.6153946 C24.2758263,44.6153946 24.2963642,44.6119732 24.3169022,44.6085517 C24.4367069,44.6017089 24.5530886,44.5914446 24.6728934,44.5777589 C24.7071233,44.5743375 24.7447762,44.570916 24.7790061,44.5674946 C24.9056568,44.5538089 25.0323075,44.5401232 25.1555353,44.523016 C25.2205721,44.5161732 25.282186,44.5093303 25.3472228,44.499066 C25.3643378,44.4956446 25.3848757,44.4956446 25.4019907,44.4922232 C25.5115264,44.4785374 25.6210622,44.4614303 25.7305979,44.4443232 C25.7922118,44.4340589 25.8572487,44.4237946 25.9188625,44.4135303 C26.0215523,44.3998446 26.124242,44.3827374 26.2269318,44.3622089 C26.6513828,44.2937803 27.0724109,44.2082446 27.4865929,44.1056017 C27.7193564,44.0508589 27.9521199,43.9926946 28.1814603,43.9311089 C28.6264493,43.8113589 29.0645923,43.6813446 29.4993123,43.5342232 C29.643078,43.4863232 29.7868437,43.4350017 29.9306093,43.3836803 C30.074375,43.3323589 30.2147177,43.2810374 30.3584834,43.2262946 C30.502249,43.1715517 30.6425917,43.1168089 30.7829344,43.0586446 C30.8513942,43.0312732 30.9232771,43.0039017 30.9917369,42.9731089 C31.0636197,42.942316 31.1320796,42.9149446 31.2005394,42.8841517 C31.3374591,42.8259874 31.4778018,42.7644017 31.6147215,42.6993946 C31.7208342,42.654916 31.823524,42.607016 31.9227908,42.5556946 C32.0254805,42.5077946 32.1247473,42.4564732 32.2274371,42.4085732 C32.4328166,42.3093517 32.6313502,42.2067089 32.8298837,42.1006446 C32.9633804,42.032216 33.0934541,41.960366 33.2269508,41.8850946 C33.3570245,41.8132446 33.4870982,41.7379731 33.6171719,41.6627017 C33.8020135,41.553216 33.9834321,41.4437303 34.1648507,41.3308231 C34.1819656,41.3205589 34.2025036,41.3102946 34.2196185,41.2966089 C34.4010371,41.1837017 34.5824557,41.0673731 34.7604513,40.9476231 C34.883679,40.8655089 35.0069067,40.7799731 35.1301345,40.6944374 C35.2088633,40.643116 35.2875921,40.5849517 35.3663209,40.5302089 C35.3765899,40.523366 35.3868589,40.5165231 35.3971278,40.5096803 C35.4005508,40.5062589 35.4005508,40.5028374 35.4039738,40.5028374 C35.4245118,40.4891517 35.4416267,40.475466 35.4621647,40.4617803 C35.4724337,40.451516 35.4827026,40.4446731 35.4929716,40.4378303 C35.8044639,40.2085946 36.1125332,39.9759374 36.4103335,39.733016 C36.5472532,39.6201089 36.6807499,39.5106231 36.8142466,39.3942946 C36.9580123,39.2745446 37.094932,39.1513731 37.2352746,39.0282017 C37.3208494,38.9529303 37.4064242,38.8742374 37.4885761,38.798966 C37.498845,38.7887017 37.509114,38.7818588 37.519383,38.7715946 C37.5364979,38.7544874 37.5570359,38.7373803 37.5741509,38.7202731 C37.7144935,38.5868374 37.8514132,38.4568231 37.9883329,38.319966 C37.9951789,38.3165446 37.9986019,38.3131231 38.0054479,38.3062803 C38.1320986,38.1831088 38.2587493,38.056516 38.3854,37.9265017 C38.392246,37.9162374 38.399092,37.9093946 38.409361,37.8991303 C38.5223197,37.7862231 38.6318554,37.6698946 38.7379682,37.5501446 C38.8680419,37.409866 38.9981156,37.266166 39.1247663,37.122466 C39.2240331,37.0129803 39.3198769,36.9000731 39.4157207,36.7837446 C39.5115644,36.6708374 39.6074082,36.5545088 39.703252,36.4381803 C39.8230567,36.2910588 39.9428614,36.140516 40.0592432,35.9865517 C40.1756249,35.8360088 40.2920066,35.6820445 40.4049654,35.5246588 C40.4563103,35.4528088 40.5110781,35.3809588 40.562423,35.3056874 C40.6137679,35.2338374 40.6685358,35.158566 40.7164577,35.0832945 C40.8362624,34.9156445 40.9492211,34.7445731 41.0621799,34.5735017 C41.0656029,34.5666588 41.0690259,34.5632374 41.0724489,34.5563945 C41.1374857,34.4571731 41.2025226,34.3545303 41.2675594,34.2518874 C41.4181711,34.008966 41.5687827,33.7626231 41.7125484,33.5128588 C41.7947002,33.3725802 41.873429,33.2323017 41.9487349,33.0886017 C42.0206177,32.955166 42.0925005,32.8251517 42.1609604,32.691716 C42.2328432,32.5582802 42.3013031,32.4248445 42.3663399,32.2879874 C42.4347997,32.1545517 42.4998366,32.0176945 42.5614505,31.8808374 C42.6264873,31.7439802 42.6915242,31.6071231 42.749715,31.470266 C42.8284438,31.2957731 42.9037497,31.1212802 42.9756325,30.9467874 C42.9824785,30.9331017 42.9893245,30.9159945 42.9961705,30.9023088 C43.0064394,30.8749374 43.0167084,30.8475659 43.0304004,30.8201945 C43.0406694,30.7962445 43.0509383,30.7688731 43.0577843,30.7449231 C43.1125522,30.6114874 43.1638971,30.4814731 43.211819,30.3480374 C43.2255109,30.3172445 43.2392029,30.2864517 43.2494719,30.2556588 C43.3076628,30.0982731 43.3658536,29.9374659 43.4206215,29.7766588 C43.4719664,29.6329588 43.5198883,29.4892588 43.5678102,29.3455588 C43.6123091,29.2087017 43.653385,29.0752659 43.6978839,28.9384088 C43.7389598,28.8049731 43.7766127,28.6681159 43.8176886,28.5312588 C43.8758795,28.3259731 43.9340703,28.1138445 43.9854152,27.9017159 C44.0230681,27.7545945 44.057298,27.6108945 44.091528,27.4637731 C44.1189119,27.3508659 44.1428728,27.2379588 44.1668338,27.1216302 C44.2010637,26.9710874 44.2318706,26.8205445 44.2592546,26.6665802 C44.2797925,26.5707802 44.2969075,26.4715588 44.3140225,26.3723374 C44.3414064,26.2286374 44.3653673,26.0883588 44.3859053,25.9446588 C44.4030202,25.8317516 44.4235582,25.7154231 44.4372502,25.5990945 C44.4475191,25.5375088 44.4577881,25.4725016 44.4646341,25.4074945 C44.4749031,25.3493302 44.4817491,25.2877445 44.4885951,25.2261588 C44.495441,25.1679945 44.502287,25.1064088 44.509133,25.0448231 C44.526248,24.9284945 44.5399399,24.8087445 44.5502089,24.6889945 C44.5639009,24.5624016 44.5741699,24.4323873 44.5844388,24.3023731 C44.5912848,24.2134159 44.5981308,24.1244588 44.6049768,24.0355016 C44.6118228,23.9397016 44.6186688,23.8404802 44.6255147,23.7446802 L44.6255147,23.7173088 C44.6323607,23.6386159 44.6357837,23.5599231 44.6392067,23.4778088 C44.6426297,23.4607016 44.6426297,23.4435945 44.6426297,23.4264873 L44.6426297,23.4025373 C44.6494757,23.2725231 44.6528987,23.1425088 44.6563217,23.0124945 C44.6597447,22.8208945 44.6631677,22.6292945 44.6631677,22.4376945 C44.6631677,10.1445016 34.6919915,0.181301501 22.3966036,0.181301501 C22.204916,0.181301501 22.0132284,0.18472293 21.8215409,0.188144358 C21.6880442,0.191565787 21.5545475,0.194987215 21.4210508,0.201830072 C21.4073588,0.201830072 21.3936669,0.201830072 21.3799749,0.205251501 C21.2875541,0.20867293 21.1951333,0.212094358 21.0992895,0.218937215 C20.9931768,0.225780073 20.890487,0.23262293 20.7843742,0.239465787 C20.7193374,0.242887216 20.6508776,0.249730073 20.5858407,0.25657293 C20.442075,0.266837216 20.3017324,0.277101501 20.1648127,0.294208644 C20.0655459,0.301051502 19.9662791,0.311315787 19.8704353,0.325001502 C19.8635894,0.325001502 19.8601664,0.325001502 19.8533204,0.32842293 C19.7882835,0.331844359 19.7266697,0.338687216 19.6650558,0.348951502 C19.600019,0.355794359 19.5384051,0.366058645 19.4767912,0.372901502 C19.4494073,0.376322931 19.4254464,0.379744359 19.3980624,0.383165788 C19.3090646,0.393430074 19.2200668,0.407115788 19.134492,0.420801502 C19.1173771,0.420801502 19.1002621,0.424222931 19.0831471,0.427644359 C19.0044183,0.437908645 18.9291125,0.448172931 18.8538067,0.461858645 C18.72031,0.482387217 18.5868133,0.506337217 18.4567396,0.530287217 C18.275321,0.561080074 18.0939024,0.59529436 17.9124838,0.632930075 L17.9056378,0.632930075 C17.7242192,0.670565789 17.5462237,0.711622932 17.3682281,0.752680075 C17.2176164,0.786894361 17.0635818,0.824530076 16.9129701,0.86216579 C16.8718942,0.872430076 16.8273953,0.882694362 16.7863194,0.896380076 C16.6596687,0.927172933 16.536441,0.961387219 16.4132132,0.995601505 C16.3481764,1.01270865 16.2865625,1.02981579 16.2249487,1.05034436 C16.081183,1.08798008 15.9408403,1.12903722 15.8004976,1.17351579 C15.7833827,1.18035865 15.7662677,1.18378008 15.7491528,1.19062293 C15.5848491,1.24194436 15.4205455,1.29326579 15.2562419,1.35143008 C15.0816693,1.40959436 14.9105197,1.46775865 14.7393701,1.53276579 C14.5716435,1.59435151 14.4004938,1.65935865 14.2327672,1.72436579 C13.897314,1.85780151 13.5618608,1.99808008 13.2332535,2.14862294 C13.0860649,2.21363008 12.9388762,2.28205865 12.7951105,2.35048723 C12.7643036,2.36417294 12.7334967,2.38128008 12.7026897,2.3949658 C12.5589241,2.46339437 12.4151584,2.53524437 12.2713927,2.6105158 C11.7853278,2.85685866 11.3129549,3.12030866 10.850851,3.40428723 C10.6968163,3.4966658 10.5462047,3.58904438 10.395593,3.68826581 C10.2449813,3.78406581 10.0943697,3.88328723 9.94718103,3.98250866 C9.40634826,4.34518009 8.88263046,4.73522295 8.3828736,5.13895153 C8.26649187,5.23475153 8.15353313,5.3271301 8.04399738,5.4229301 C7.93446163,5.51530867 7.82492588,5.60768724 7.71881312,5.70348724 C7.64693029,5.76507296 7.57504745,5.82665867 7.50658761,5.89166582 C7.43812776,5.95325153 7.36966792,6.01825867 7.29778508,6.08326582 C7.29436209,6.08668725 7.28751611,6.09010868 7.28409312,6.0935301 C7.23959422,6.13458725 7.19509532,6.17564439 7.15059642,6.22012296 C7.00683075,6.35355868 6.86306508,6.49041582 6.7227224,6.63069439 L6.52761185,6.82571582 C6.34961625,7.00363011 6.17846664,7.18838725 6.00731704,7.3731444 C5.85670538,7.53737297 5.70609372,7.70160154 5.55890506,7.87267297 C5.5417901,7.89320154 5.52467514,7.91715154 5.50413719,7.93768011 C5.37064049,8.09506583 5.2371438,8.25245154 5.10707009,8.41325869 C5.10022411,8.42010154 5.09680112,8.4269444 5.08995513,8.43378726 C4.96330442,8.59117297 4.83665371,8.75198012 4.71342599,8.91278726 C4.59019828,9.07017298 4.47381654,9.22755869 4.35743481,9.38836584 C4.35743481,9.39178726 4.35401182,9.39178726 4.35058882,9.39520869 C4.27870599,9.49785155 4.20682315,9.60391584 4.13151732,9.70655869 C4.00144362,9.89131584 3.8782159,10.076073 3.75498818,10.2642516 C3.63176047,10.4524301 3.51195574,10.6406087 3.39557401,10.8322087 C3.34080613,10.9245873 3.28261526,11.0169658 3.22784739,11.1093444 C3.21073243,11.1367158 3.19704046,11.1606658 3.1799255,11.1880373 C3.09777369,11.3283158 3.01904487,11.4685944 2.94031605,11.608873 C2.86843321,11.7423087 2.79655038,11.872323 2.72466754,12.0057587 C2.6527847,12.135773 2.58432486,12.2726301 2.51586502,12.4060659 C2.38236832,12.6729373 2.25229462,12.9466516 2.12564391,13.2203659 C2.06403005,13.357223 2.00241619,13.4975016 1.94080233,13.6343587 C1.9099954,13.7027873 1.87918847,13.7712159 1.85180454,13.8430659 C1.8244206,13.9114944 1.79703666,13.9833444 1.76622973,14.051773 C1.70803886,14.1920516 1.65327099,14.3323301 1.59850312,14.4760301 C1.54715823,14.6197301 1.49239036,14.7600087 1.44104548,14.9037087 C1.38970059,15.0474087 1.33835571,15.1911087 1.29043382,15.3348087 C1.19459004,15.6256302 1.10216925,15.9164516 1.01659445,16.2106944 C0.97551854,16.3578159 0.934442634,16.5049373 0.893366727,16.6520587 C0.845444837,16.8333944 0.797522947,17.0181516 0.753024048,17.2029087 C0.732486095,17.2816016 0.715371134,17.3602944 0.694833181,17.4355659 C0.684564205,17.4834659 0.674295228,17.5347873 0.664026252,17.5826873 C0.62979633,17.740073 0.595566408,17.8940373 0.564759479,18.051423 C0.557913494,18.0890587 0.547644518,18.1301159 0.540798534,18.1677516 C0.520260581,18.2772373 0.499722627,18.386723 0.479184674,18.4962087 C0.47233869,18.5406873 0.462069714,18.5851659 0.455223729,18.6296445 C0.441531761,18.7151802 0.4244168,18.8041373 0.410724831,18.8930945 C0.379917901,19.0881159 0.349110972,19.2865587 0.325150027,19.4850016 C0.297766089,19.6766016 0.277228136,19.8647802 0.256690183,20.0563802 C0.253267191,20.0905945 0.249844199,20.1282302 0.246421207,20.1624445 C0.232729238,20.2719302 0.222460261,20.3814159 0.215614277,20.4909016 C0.205345301,20.6003873 0.195076324,20.7132945 0.18823034,20.8262016 C0.181384355,20.901473 0.177961363,20.9767445 0.174538371,21.0554373 C0.160846402,21.2641445 0.150577426,21.476273 0.143731441,21.6884016 C0.140308449,21.7910445 0.136885457,21.8936873 0.136885457,21.9997516 C0.130039473,22.1434516 0.130039473,22.290573 0.130039473,22.4376945 C0.130039473,34.727466 10.0977927,44.6940875 22.3966036,44.6940875" id="Fill-9"></path>
                </g>
                <g id="Group-14" transform="translate(0.000000, 0.160807)" fill="#FFFFFF">
                    <path d="M16.4816731,43.9344619 C18.3266659,44.430569 20.2675024,44.694019 22.2665299,44.694019 C34.5653407,44.694019 44.533094,34.7273975 44.533094,22.437626 C44.533094,20.4360903 44.2695236,18.4961403 43.7697667,16.6519903 C41.2264835,7.16436882 32.5628903,0.181233072 22.2665299,0.181233072 C9.96771898,0.181233072 -3.42299217e-05,10.1444331 -3.42299217e-05,22.437626 C-3.42299217e-05,32.7292832 6.98971579,41.388919 16.4816731,43.9344619" id="Fill-12"></path>
                </g>
                <path d="M168.212647,145.263457 C168.212647,145.249771 168.212647,145.236085 168.209224,145.2224 C168.205801,145.130021 168.202378,145.037642 168.195532,144.941842 C168.188686,144.835778 168.18184,144.733135 168.174994,144.627071 C168.171571,144.568907 168.168148,144.507321 168.161302,144.449157 C168.14761,144.28835 168.133918,144.124121 168.116803,143.963314 C168.106534,143.8333 168.089419,143.699864 168.072304,143.56985 C168.065459,143.477471 168.051767,143.388856 168.038075,143.296135 C168.027806,143.2106 168.017537,143.128485 168.003845,143.04295 C168.003845,143.039528 168.003845,143.032685 168.000422,143.029264 C167.990153,142.930042 167.973038,142.830821 167.955923,142.7316 C167.935385,142.5879 167.911424,142.4442 167.88404,142.3005 C167.866925,142.194435 167.846387,142.08495 167.822426,141.978885 C167.801888,141.8694 167.78135,141.756492 167.757389,141.647007 C167.753966,141.6299 167.750543,141.609371 167.74712,141.592606 C167.743697,141.582 167.743697,141.575157 167.740274,141.564892 C167.716313,141.448564 167.688929,141.328814 167.661545,141.212485 C167.62047,141.034571 167.575971,140.856657 167.531472,140.678742 C167.490396,140.524778 167.44932,140.374235 167.408244,140.224035 C167.367168,140.069728 167.319246,139.915764 167.274747,139.765221 C167.230248,139.621521 167.18575,139.4744 167.137828,139.3307 C167.096752,139.200685 167.052253,139.074092 167.007754,138.944078 C166.949563,138.769927 166.884526,138.595092 166.819489,138.4206 C166.80922,138.389807 166.795528,138.359014 166.781836,138.328221 C166.733915,138.194785 166.68257,138.064771 166.627802,137.931335 C166.620956,137.907385 166.610687,137.880014 166.600418,137.856064 C166.586726,137.829035 166.576457,137.801321 166.566188,137.77395 C166.559342,137.760264 166.552496,137.743499 166.54565,137.729471 C166.473767,137.554978 166.398461,137.380485 166.319733,137.205992 C166.261542,137.069135 166.196505,136.932278 166.131468,136.795421 C166.069854,136.658564 166.004817,136.521707 165.936357,136.388271 C165.871321,136.251414 165.802861,136.11832 165.730978,135.984542 C165.662518,135.851107 165.590635,135.717671 165.518752,135.587657 C165.44687,135.454221 165.374987,135.324207 165.299681,135.194192 C165.149069,134.934164 164.995035,134.677557 164.837577,134.424371 C164.762271,134.3012 164.683542,134.18145 164.604813,134.0617 C164.597967,134.048014 164.591121,134.03775 164.580852,134.024064 C164.580852,134.024064 164.580852,134.020642 164.577429,134.020642 C164.502124,133.904314 164.423395,133.787985 164.344666,133.671657 C164.259091,133.548485 164.173516,133.425314 164.087942,133.305564 C164.033174,133.230292 163.978406,133.155021 163.923638,133.07975 C163.86887,133.004478 163.814102,132.929207 163.755911,132.853935 C163.642953,132.703392 163.529994,132.556271 163.413612,132.40915 C163.29723,132.26545 163.177426,132.12175 163.061044,131.97805 C162.937816,131.83435 162.818012,131.694071 162.694784,131.553792 C162.59894,131.440885 162.49625,131.3314 162.396983,131.218492 C162.246372,131.054264 162.092337,130.890035 161.938303,130.73265 C161.780845,130.571842 161.623387,130.414457 161.462507,130.257071 C161.352971,130.154428 161.246858,130.051785 161.137322,129.949142 C161.027787,129.849921 160.918251,129.747278 160.805292,129.648057 C160.360303,129.24775 159.901622,128.867971 159.425826,128.508721 C159.306022,128.420106 159.186217,128.330807 159.066412,128.24185 C158.943184,128.156314 158.82338,128.067357 158.700152,127.981821 C158.576924,127.896285 158.453696,127.814171 158.330469,127.728635 C158.084013,127.564749 157.830712,127.400178 157.573988,127.246214 C157.443914,127.167521 157.317263,127.088828 157.187189,127.013557 C157.057116,126.938285 156.927042,126.863014 156.796968,126.791164 C156.663472,126.719314 156.533398,126.647464 156.399901,126.575614 C156.269827,126.503764 156.136331,126.435335 155.999411,126.367249 C155.732418,126.23005 155.458578,126.096614 155.184739,125.976864 C155.047819,125.915278 154.907477,125.854035 154.770557,125.792107 C154.702097,125.761314 154.633637,125.730521 154.561754,125.70315 C154.493295,125.675778 154.421412,125.648407 154.352952,125.617614 C154.212609,125.55945 154.072267,125.504707 153.928501,125.449964 C153.784735,125.398642 153.644392,125.3439 153.500627,125.292578 C153.356861,125.241257 153.213095,125.189935 153.06933,125.142035 C152.638033,124.991492 152.196467,124.861478 151.751478,124.74515 C151.556367,124.693828 151.361257,124.642507 151.162723,124.594607 C151.104532,124.580921 151.049764,124.567235 150.994997,124.55355 C150.837539,124.515914 150.683504,124.4817 150.526047,124.450907 C150.484971,124.440642 150.440472,124.4338 150.399396,124.423535 C150.197439,124.3859 149.998906,124.348264 149.796949,124.314392 C149.69426,124.293521 149.59157,124.276414 149.48888,124.262728 C149.427266,124.252464 149.362229,124.2422 149.300615,124.231935 C149.19108,124.214828 149.081544,124.197721 148.972008,124.184035 C148.954893,124.180614 148.934355,124.180614 148.91724,124.177192 C148.852203,124.166928 148.79059,124.160085 148.725553,124.153242 C148.602325,124.136135 148.475674,124.12245 148.349024,124.108764 C148.314794,124.105342 148.277141,124.101921 148.242911,124.0985 C148.123106,124.084814 148.006724,124.07455 147.88692,124.067707 C147.866382,124.064285 147.845844,124.060864 147.825306,124.060864 C147.773961,124.054021 147.726039,124.0506 147.678117,124.047178 C147.64731,124.043757 147.619926,124.043757 147.589119,124.040335 C147.510391,124.033492 147.428239,124.030071 147.346087,124.02665 C147.137284,124.012964 146.925059,124.0027 146.712833,123.995857 C146.610144,123.992435 146.507454,123.989014 146.404764,123.989014 C146.260998,123.982171 146.11381,123.982171 145.966621,123.982171 C133.66781,123.982171 123.700057,133.948792 123.700057,146.238564 C123.700057,146.385685 123.700057,146.532807 123.706903,146.68335 C123.706903,146.782571 123.710326,146.885214 123.713749,146.987857 C123.720595,147.196564 123.727441,147.405271 123.741133,147.613978 C123.747979,147.696092 123.751402,147.778207 123.758248,147.860321 C123.761671,147.891114 123.761671,147.918485 123.765094,147.949278 C123.768517,147.997178 123.77194,148.045078 123.778786,148.0964 C123.778786,148.116928 123.782209,148.137457 123.785632,148.157985 C123.792478,148.277735 123.802747,148.397485 123.816439,148.513814 C123.819862,148.55145 123.823285,148.592507 123.830131,148.630143 C123.8404,148.722521 123.847246,148.818321 123.860938,148.9107 C123.871207,149.003078 123.881476,149.098878 123.895168,149.191257 C123.919128,149.386278 123.949935,149.5813 123.980742,149.7729 C123.994434,149.872121 124.011549,149.971343 124.032087,150.070564 C124.062894,150.255321 124.097124,150.440078 124.134777,150.624835 C124.165584,150.782221 124.199814,150.936185 124.234044,151.093571 C124.244313,151.141471 124.254582,151.192793 124.264851,151.240693 C124.285389,151.315964 124.302504,151.394657 124.323042,151.47335 C124.36754,151.658107 124.415462,151.842864 124.463384,152.0242 C124.501037,152.171321 124.542113,152.318443 124.586612,152.465564 C124.672187,152.759807 124.764608,153.054392 124.860451,153.34145 C124.908373,153.48515 124.959718,153.62885 125.011063,153.77255 C125.055562,153.8923 125.100061,154.015471 125.14456,154.135221 C125.151406,154.152328 125.154829,154.166356 125.161675,154.183121 C125.165098,154.193385 125.168521,154.200228 125.171944,154.210493 C125.175367,154.220757 125.182213,154.234443 125.185636,154.244707 C125.23698,154.3713 125.284902,154.497893 125.336247,154.624485 C125.391015,154.757921 125.449206,154.894778 125.503974,155.028214 C125.569011,155.171914 125.630625,155.315614 125.695661,155.455893 C125.818889,155.729607 125.948963,156.003321 126.085882,156.270193 C126.161188,156.417314 126.236494,156.561356 126.3118,156.708135 C126.376837,156.827885 126.445297,156.947635 126.510334,157.067385 C126.585639,157.204243 126.664368,157.337678 126.743097,157.471114 C126.818403,157.597707 126.893709,157.727721 126.972437,157.854314 C127.075127,158.025385 127.18124,158.193035 127.290776,158.360685 C127.31816,158.405164 127.348967,158.449643 127.379774,158.494121 C127.482463,158.651507 127.591999,158.812314 127.701535,158.9697 C127.776841,159.079185 127.852146,159.181828 127.927452,159.287893 C128.043834,159.4487 128.160216,159.606085 128.283443,159.763471 C128.406671,159.924278 128.533322,160.085085 128.659973,160.242471 C128.666819,160.249314 128.670242,160.256157 128.677088,160.263 C128.807161,160.423807 128.940658,160.581535 129.074155,160.738578 C129.094693,160.759107 129.111808,160.783057 129.128923,160.803585 C129.272688,160.967814 129.416454,161.128621 129.563643,161.286007 C129.591026,161.320221 129.621833,161.354435 129.65264,161.385228 C129.813521,161.559721 129.974402,161.727371 130.142128,161.895021 C130.323547,162.079778 130.508388,162.261114 130.700076,162.439028 C130.706922,162.44245 130.713768,162.449293 130.720614,162.459557 C130.905455,162.630628 131.097143,162.805463 131.288831,162.972771 C131.394943,163.068571 131.504479,163.16095 131.614015,163.253328 C131.723551,163.349128 131.836509,163.441507 131.952891,163.537307 C132.178809,163.718643 132.408149,163.899978 132.644335,164.074471 C132.788101,164.180535 132.931867,164.2866 133.075633,164.389243 C133.222821,164.491885 133.37001,164.594528 133.517199,164.69375 C133.664387,164.792971 133.814999,164.892193 133.96561,164.987993 C134.116222,165.087214 134.266834,165.179593 134.420868,165.271971 C134.882972,165.55595 135.355345,165.8194 135.84141,166.065743 C135.985176,166.141356 136.128942,166.212864 136.272707,166.281293 C136.303514,166.294978 136.334321,166.312428 136.365128,166.325771 C136.508894,166.3942 136.656082,166.462628 136.803271,166.527635 C137.131878,166.678178 137.467331,166.818457 137.802785,166.951893 C137.970511,167.0169 138.141661,167.082249 138.309388,167.143493 C138.480537,167.2085 138.651687,167.266664 138.826259,167.324828 C138.990563,167.382993 139.154867,167.434314 139.31917,167.489057 C139.702545,167.605385 140.089343,167.714871 140.482988,167.814093 C140.633599,167.85207 140.787634,167.889364 140.938246,167.923578 C141.116241,167.968057 141.294237,168.005693 141.475655,168.043328 L141.482501,168.043328 C141.66392,168.080964 141.845338,168.115178 142.026757,168.145971 C142.156831,168.169921 142.290327,168.194213 142.423824,168.2144 C142.512822,168.228085 142.605243,168.241771 142.694241,168.255457 C142.814045,168.272564 142.930427,168.289671 143.050232,168.306778 C143.101577,168.313621 143.149498,168.320464 143.19742,168.323885 C143.204266,168.323885 143.214535,168.327307 143.221381,168.327307 C143.378839,168.347835 143.532874,168.365285 143.690331,168.378628 C143.858058,168.395735 144.025784,168.412843 144.193511,168.423107 C144.248279,168.42995 144.299624,168.433371 144.354392,168.436793 C144.460504,168.443635 144.563194,168.45082 144.669307,168.457321 C144.765151,168.464164 144.857572,168.467585 144.949992,168.471007 C144.963684,168.474428 144.977376,168.474428 144.991068,168.474428 C145.124565,168.481271 145.258062,168.484693 145.391558,168.488114 C145.583246,168.491535 145.774933,168.494957 145.966621,168.494957 C158.262009,168.494957 168.233185,158.531757 168.233185,146.238564 C168.233185,146.046964 168.229762,145.855364 168.226339,145.663764 C168.222916,145.530328 168.219493,145.396892 168.212647,145.263457" id="Fill-15" fill="#FFFFFF"></path>
                <g id="Group-19" transform="translate(0.000000, 123.674379)">
                    <mask id="mask-2" fill="white">
                        <use xlink:href="#path-1"></use>
                    </mask>
                    <g id="Clip-18"></g>
                    <path d="M22.2664956,0.307894359 C22.119307,0.307894359 21.9721183,0.307894359 21.8283526,0.314737216 C21.7256629,0.314737216 21.6229731,0.318158645 21.5202833,0.321580073 C21.3080578,0.32842293 21.0958323,0.338687216 20.8870298,0.35237293 C20.808301,0.355794359 20.7261492,0.359215788 20.6474203,0.366058645 C20.5378846,0.372901502 20.4283488,0.383165788 20.3188131,0.393430074 C20.2092773,0.400272931 20.0997416,0.410537216 19.9902058,0.424222931 C19.9696679,0.424222931 19.9491299,0.427644359 19.928592,0.431065788 C19.7232124,0.45159436 19.5178329,0.47554436 19.3158764,0.502915788 C19.1104968,0.530287217 18.9085403,0.557658646 18.7065838,0.591872932 C18.61074,0.605558646 18.5148962,0.622665789 18.4224754,0.639772932 C18.2581718,0.667144361 18.0972912,0.697937218 17.9364105,0.728730075 C17.9192956,0.732151504 17.9021806,0.735572932 17.8850656,0.738994361 C17.8782197,0.74241579 17.8679507,0.74241579 17.8611047,0.745837218 C17.7721069,0.762944361 17.6865321,0.783472933 17.5975343,0.800580076 C17.5051135,0.817687219 17.4126927,0.83821579 17.3202719,0.86216579 C17.2278512,0.882694362 17.1354304,0.906644362 17.0430096,0.927172933 C17.0224716,0.930594362 17.0053567,0.937437219 16.9848187,0.940858648 C16.8958209,0.961387219 16.8068231,0.981915791 16.7144023,1.00586579 C16.6562115,1.01955151 16.5980206,1.03665865 16.5398297,1.05376579 C16.5192918,1.05718722 16.5021768,1.06060865 16.4816389,1.06745151 C16.3960641,1.09140151 16.3104892,1.11535151 16.2249144,1.13930151 C16.1393396,1.16325151 16.0503418,1.18720151 15.96819,1.21457294 C15.8449623,1.24878722 15.7217346,1.28642294 15.5985069,1.32405865 C15.3041295,1.41643722 15.0097522,1.51565865 14.7187979,1.62172294 C14.5716092,1.67304437 14.4278436,1.72778722 14.2840779,1.78253008 C14.1403122,1.83727294 13.9965465,1.89543722 13.8562039,1.95360151 C13.7227072,2.00492294 13.5926335,2.0596658 13.4625598,2.11783008 C13.35987,2.15888723 13.2606032,2.20678723 13.1613364,2.2512658 C13.0586467,2.29574437 12.9593799,2.34364437 12.8601131,2.38812294 C12.8498442,2.39154437 12.8395752,2.3949658 12.8327292,2.39838723 C12.8156142,2.40523008 12.7984993,2.41549437 12.7813843,2.42575866 C12.5965427,2.51129437 12.4151242,2.60025151 12.2337056,2.69263009 C12.1378618,2.73710866 12.045441,2.78500866 11.9530202,2.83633009 C11.9256363,2.84659437 11.9016753,2.86028009 11.8777144,2.8739658 C11.8503304,2.88765152 11.8263695,2.90133723 11.8024086,2.91502294 C11.7065648,2.96634437 11.610721,3.0176658 11.5183002,3.06898723 C11.5148772,3.06898723 11.5148772,3.07240866 11.5114542,3.07240866 C11.4566863,3.10320152 11.4053415,3.13057295 11.3539966,3.1613658 C11.2513068,3.21953009 11.1486171,3.27769437 11.0459273,3.33928009 C10.8610857,3.44534438 10.6796671,3.55483009 10.4982485,3.67115866 C10.4811336,3.68142295 10.4605956,3.69168723 10.4434807,3.70537295 C10.2620621,3.81828009 10.0806435,3.93460866 9.9026479,4.05435866 C9.77942018,4.13647295 9.65619246,4.22200867 9.53296474,4.30754438 C9.40973703,4.39308009 9.2899323,4.47861581 9.16670458,4.56757295 C9.04689986,4.6565301 8.92709513,4.74548724 8.8072904,4.83444438 C8.68748568,4.92340153 8.57110394,5.0157801 8.45472221,5.10815867 C8.10215402,5.38187296 7.7598548,5.67269439 7.42782456,5.9737801 C7.31486582,6.07300153 7.20533007,6.17222296 7.09579432,6.27486582 C6.98625857,6.37750868 6.88014581,6.48015153 6.77061006,6.58279439 C6.69188124,6.66148725 6.60972943,6.73675868 6.53100061,6.81887296 C6.45227179,6.89756582 6.37354297,6.97625868 6.29481415,7.05837297 C6.1407795,7.21575868 5.98674485,7.37998725 5.8361332,7.54421583 C5.73686642,7.65370154 5.63417666,7.76660868 5.53833288,7.87951583 C5.41510516,8.0197944 5.29530043,8.16007297 5.17207271,8.30377297 C5.05569098,8.44747297 4.93588625,8.59117297 4.81950452,8.73487297 C4.70312279,8.8819944 4.59016405,9.02911583 4.4772053,9.17965869 C4.41901444,9.25493012 4.36424656,9.33020155 4.30947869,9.40547298 C4.25471081,9.48074441 4.19994294,9.55601584 4.14517506,9.63128727 C4.05960026,9.75103727 3.97402545,9.8742087 3.88845065,9.99738012 C3.80629884,10.1137087 3.72757002,10.2300373 3.65568718,10.3463658 C3.65226419,10.3463658 3.65226419,10.3497873 3.65226419,10.3497873 C3.65226419,10.3497873 3.65226419,10.3532087 3.6488412,10.3532087 C3.63514923,10.3737373 3.62488025,10.3908444 3.61461128,10.411373 C3.53930545,10.5208587 3.46742261,10.6337658 3.39896277,10.746673 C3.37157883,10.7808873 3.35104088,10.818523 3.32707993,10.8561587 C3.27231206,10.9485373 3.21754418,11.0374944 3.16277631,11.129873 C3.08404749,11.2598873 3.00874166,11.3899016 2.93343583,11.5199158 C2.82390008,11.7080944 2.71778733,11.8996944 2.61509756,12.0947158 C2.5979826,12.1255087 2.58086764,12.1563016 2.56375268,12.1905159 C2.4679089,12.3718516 2.37206512,12.5566087 2.28306732,12.7413659 C2.22145346,12.8679587 2.1598396,12.9911301 2.10164873,13.117723 C2.03661188,13.2545801 1.97157503,13.3914373 1.91338417,13.5317159 C1.78673345,13.8054301 1.67035172,14.0859873 1.56081597,14.3665444 C1.53000904,14.4383944 1.5026251,14.5102444 1.47866416,14.5820944 C1.47181817,14.5992016 1.46497219,14.6128873 1.45812621,14.6299944 C1.37939739,14.8387016 1.30066857,15.0474087 1.23220872,15.2561159 C1.17744085,15.4066587 1.12609597,15.560623 1.07817407,15.7145873 C1.03367518,15.8411802 0.996022263,15.9643516 0.958369349,16.0909444 C0.86594856,16.3920302 0.780373756,16.6965373 0.701644936,17.0044659 C0.657146038,17.1823802 0.612647139,17.3602944 0.571571233,17.5382087 C0.544187296,17.6545373 0.516803358,17.7708659 0.492842413,17.8906159 C0.489419421,17.9008802 0.489419421,17.907723 0.485996429,17.9179873 L0.475727452,17.9693087 C0.475727452,17.9727302 0.475727452,17.9761516 0.47230446,17.979573 C0.451766507,18.0856373 0.431228554,18.195123 0.410690601,18.3046087 C0.386729656,18.410673 0.366191703,18.5167373 0.349076742,18.626223 C0.321692804,18.769923 0.297731859,18.913623 0.277193906,19.057323 C0.260078945,19.1565445 0.242963985,19.2557659 0.232695008,19.3549873 C0.229272016,19.3584087 0.229272016,19.3652516 0.229272016,19.368673 C0.215580047,19.4542087 0.205311071,19.536323 0.195042094,19.6218587 C0.181350125,19.7142373 0.167658157,19.8031945 0.160812172,19.895573 C0.143697211,20.0255873 0.126582251,20.159023 0.116313274,20.2890373 C0.0991983132,20.4498445 0.0855063445,20.614073 0.0718143758,20.7748802 C0.0649683915,20.8330445 0.0615453993,20.8946302 0.0581224071,20.9527945 C0.0512764228,21.0588588 0.0444304384,21.1615016 0.0375844541,21.2675659 C0.0307384697,21.3633659 0.0273154775,21.4557445 0.0238924854,21.548123 C0.0204694932,21.5618088 0.0204694932,21.5754945 0.0204694932,21.5891802 C0.0136235089,21.7226159 0.0102005167,21.8560516 0.00677752451,21.9894873 C0.00335453233,22.1810873 -6.84598425e-05,22.3726873 -6.84598425e-05,22.5642873 C-6.84598425e-05,34.8574803 9.96768475,44.8206803 22.2664956,44.8206803 C22.4581832,44.8206803 22.6498708,44.8172589 22.8415583,44.8138375 C22.975055,44.810416 23.1085517,44.8069946 23.2420484,44.8001517 C23.2557404,44.8001517 23.2694323,44.8001517 23.2831243,44.7967303 C23.3755451,44.7933089 23.4679659,44.7898875 23.5638097,44.7830446 C23.6699224,44.7762017 23.7726122,44.7693589 23.8787249,44.762516 C23.9334928,44.7590946 23.9848377,44.7556732 24.0396056,44.7488303 C24.2073322,44.738566 24.3750588,44.7214589 24.5427854,44.7043517 C24.7002431,44.690666 24.8542777,44.6735589 25.0117354,44.6530303 C25.0185813,44.6530303 25.0288503,44.6496089 25.0356963,44.6496089 C25.0836182,44.6461875 25.1315401,44.6393446 25.182885,44.6325017 C25.3026897,44.6153946 25.4190714,44.5982875 25.5388761,44.5811803 C25.6278739,44.5674946 25.7202947,44.5538089 25.8092925,44.5401232 C25.9427892,44.5195946 26.0762859,44.4956446 26.2063596,44.4716946 C26.3877782,44.4409017 26.5691968,44.4066874 26.7506154,44.3690517 L26.7574614,44.3690517 C26.9388799,44.331416 27.1168755,44.2903589 27.2948711,44.2493017 C27.4454828,44.2150874 27.5995174,44.1774517 27.7501291,44.139816 C28.1437732,44.0405946 28.5305713,43.9311089 28.9139464,43.8147803 C29.0782501,43.7600374 29.2425537,43.708716 29.4068573,43.6505517 C29.5814299,43.5923874 29.7525795,43.5342232 29.9237291,43.469216 C30.0914557,43.4076303 30.2626053,43.3426232 30.430332,43.277616 C30.7657852,43.1441803 31.1012384,43.0039017 31.4298457,42.8533589 C31.5770343,42.7883517 31.724223,42.7199232 31.8679887,42.6514946 C31.8987956,42.6378089 31.9296025,42.6207017 31.9604095,42.607016 C32.1041751,42.5385874 32.2479408,42.4667374 32.3917065,42.391466 C32.8777714,42.1451232 33.3501443,41.8816732 33.8122482,41.5976946 C33.9662829,41.505316 34.1168945,41.4129374 34.2675062,41.313716 C34.4181178,41.217916 34.5687295,41.1186946 34.7159182,41.0194731 C34.8631068,40.9202517 35.0102955,40.8176089 35.1574842,40.714966 C35.3012498,40.6123231 35.4450155,40.5062589 35.5887812,40.4001946 C35.8249676,40.2257017 36.0543081,40.044366 36.2802256,39.8630303 C36.3966073,39.7672303 36.5095661,39.6748517 36.6191018,39.5790517 C36.7286376,39.4866731 36.8381733,39.3942946 36.9442861,39.2984946 C37.1359736,39.1308446 37.3276612,38.9563517 37.5125028,38.7852803 C37.5193488,38.775016 37.5261947,38.7681731 37.5330407,38.7647517 C37.7213053,38.5902588 37.9095699,38.4055017 38.0909885,38.2207446 C38.2587151,38.0530946 38.4195957,37.8854446 38.5804763,37.7109517 C38.6112833,37.6801588 38.6420902,37.6459446 38.6694741,37.6117303 C38.8166628,37.4543446 38.9604285,37.2935374 39.1041941,37.1293088 C39.1213091,37.1087803 39.1384241,37.0848303 39.158962,37.0643017 C39.2924587,36.906916 39.4259554,36.7495303 39.5560291,36.5887231 C39.5628751,36.5818803 39.5662981,36.5750374 39.5731441,36.5681946 C39.6997948,36.4108088 39.8264455,36.2500017 39.9496732,36.0891945 C40.0729009,35.9318088 40.1892827,35.7744231 40.3056644,35.613616 C40.3809702,35.5075517 40.456276,35.4049088 40.5315819,35.2954231 C40.6411176,35.1380374 40.7506534,34.9772303 40.8533431,34.8198445 C40.8841501,34.775366 40.914957,34.7308874 40.9423409,34.6864088 C41.0518767,34.5187588 41.1579894,34.3511088 41.2606792,34.1800374 C41.339408,34.0534445 41.4147139,33.9234303 41.4900197,33.7968374 C41.5687485,33.6634017 41.6474773,33.529966 41.7227831,33.3931088 C41.78782,33.2733588 41.8562798,33.1536088 41.9213167,33.0338588 C41.9966225,32.8867374 42.0719283,32.7430374 42.1472342,32.595916 C42.2807309,32.3290445 42.4108046,32.0587517 42.5374553,31.781616 C42.6024921,31.6413374 42.664106,31.4976374 42.7291428,31.3539374 C42.7839107,31.2205017 42.8421016,31.0836445 42.8968695,30.9502088 C42.9482143,30.8236159 42.9961362,30.6970231 43.0474811,30.5704302 C43.0509041,30.5601659 43.0577501,30.5464802 43.0611731,30.5362159 C43.0645961,30.5259517 43.0680191,30.5191088 43.0714421,30.5088445 C43.078288,30.4917374 43.081711,30.4780517 43.088557,30.4609445 C43.1330559,30.3411945 43.1775548,30.2180231 43.2220537,30.0982731 C43.2733986,29.9545731 43.3247435,29.8108731 43.3726654,29.6671731 C43.4719321,29.3797731 43.5643529,29.0855302 43.6465047,28.7912874 C43.6875807,28.6475874 43.7286566,28.4970445 43.7697325,28.3499231 C43.8176544,28.1685874 43.8655762,27.9838302 43.9100751,27.7990731 C43.9306131,27.7203802 43.9477281,27.6416874 43.968266,27.5664159 C43.978535,27.5185159 43.988804,27.4671945 43.9990729,27.4192945 C44.0333029,27.2619088 44.0675328,27.1079445 44.0983397,26.9505588 C44.1359926,26.7658016 44.1702226,26.5810445 44.2010295,26.3962874 C44.2215674,26.2970659 44.2386824,26.1978445 44.2523744,26.0986231 C44.2831813,25.9070231 44.3139882,25.7120016 44.3379492,25.5169802 C44.3516411,25.4246016 44.3619101,25.3288016 44.3721791,25.2364231 C44.3858711,25.1440445 44.392717,25.0482445 44.402986,24.9558659 C44.409832,24.9182302 44.413255,24.8771731 44.416678,24.8395373 C44.43037,24.7232088 44.4406389,24.6034588 44.4474849,24.4837088 C44.4509079,24.4631802 44.4543309,24.4426516 44.4543309,24.4221231 C44.4611769,24.3708016 44.4645999,24.3229016 44.4680229,24.2750016 C44.4714459,24.2442088 44.4714459,24.2168373 44.4748689,24.1860445 C44.4817148,24.1039302 44.4851378,24.0218159 44.4919838,23.9397016 C44.5056758,23.7309945 44.5125218,23.5222873 44.5193678,23.3135802 C44.5227907,23.2109373 44.5262137,23.1082945 44.5262137,23.0090731 C44.5330597,22.8585302 44.5330597,22.7114088 44.5330597,22.5642873 C44.5330597,10.2745158 34.5653065,0.307894359 22.2664956,0.307894359" id="Fill-17" fill="#FFFFFF" mask="url(#mask-2)"></path>
                </g>
            </g>
        </g>
    </g>
</svg>