<?xml version="1.0" encoding="UTF-8" standalone="no"?>
<svg width="1280px" height="740px" viewBox="0 0 1280 740" version="1.1" xmlns="http://www.w3.org/2000/svg" xmlns:xlink="http://www.w3.org/1999/xlink">
    <!-- Generator: Sketch 46 (44423) - http://www.bohemiancoding.com/sketch -->
    <title>WE ARE</title>
    <desc>Created with Sketch.</desc>
    <defs></defs>
    <g id="2.1-We-are" stroke="none" stroke-width="1" fill="none" fill-rule="evenodd">
        <g id="2-We-are" transform="translate(-1.000000, -30.000000)" fill="#88D43B">
            <g id="WE-ARE" transform="translate(1.000000, 30.000000)">
                <path d="M0,0 L1280,0 L1280,740 L0,740 L0,0 Z M288.18,291.24 L314.36,362.3 L295,412.24 L250.56,290.8 L218,290.8 L281.14,447 L306.66,447 L333.72,381.44 L360.78,447 L386.3,447 L449.88,290.8 L416.88,290.8 L372.66,412.24 L352.86,362.3 L379.48,291.24 L351.32,291.24 L333.72,342.94 L316.12,291.24 L288.18,291.24 Z M574.4,420.38 L496.3,420.38 L496.3,379.68 L562.08,379.68 L562.08,355.04 L496.3,355.04 L496.3,317.42 L572.42,317.42 L572.42,290.8 L465.94,290.8 L465.94,447 L574.4,447 L574.4,420.38 Z M695.4,290.8 L635.78,447 L667.02,447 L681.32,408.06 L735.88,408.06 L750.4,447 L781.64,447 L722.24,290.8 L695.4,290.8 Z M798.8,447 L829.16,447 L829.16,394.64 L859.08,394.64 L890.98,447 L925.08,447 L889.44,388.26 C898.093377,384.593315 904.949975,378.616708 910.01,370.33 C915.070025,362.043292 917.6,352.840051 917.6,342.72 C917.6,336.413302 916.353346,330.143364 913.86,323.91 C911.366654,317.676635 907.920022,312.103358 903.52,307.19 C899.119978,302.276642 893.876697,298.316682 887.79,295.31 C881.703303,292.303318 875.066703,290.8 867.88,290.8 L798.8,290.8 L798.8,447 Z M1053.56,420.38 L975.46,420.38 L975.46,379.68 L1041.24,379.68 L1041.24,355.04 L975.46,355.04 L975.46,317.42 L1051.58,317.42 L1051.58,290.8 L945.1,290.8 L945.1,447 L1053.56,447 L1053.56,420.38 Z" id="Combined-Shape"></path>
                <polygon points="730.38 386.72 708.82 325.34 686.38 386.72"></polygon>
                <path d="M829.16,368.02 L867.22,368.02 C870.006681,368.02 872.609988,367.360007 875.03,366.04 C877.450012,364.719993 879.539991,362.923345 881.3,360.65 C883.060009,358.376655 884.453328,355.700015 885.48,352.62 C886.506672,349.539985 887.02,346.240018 887.02,342.72 C887.02,339.053315 886.433339,335.680015 885.26,332.6 C884.086661,329.519985 882.51001,326.843345 880.53,324.57 C878.54999,322.296655 876.276679,320.536673 873.71,319.29 C871.14332,318.043327 868.540013,317.42 865.9,317.42 L829.16,317.42 L829.16,368.02 Z"></path>
            </g>
        </g>
    </g>
</svg>