<svg width="252" height="151" viewBox="0 0 252 151" xmlns="http://www.w3.org/2000/svg" xmlns:xlink="http://www.w3.org/1999/xlink"><title>Primus</title><defs><path id="a" d="M0 .015v39.317h23.213V.015H0z"/></defs><g fill="none" fill-rule="evenodd"><path d="M102.766.915c20.11 1.78 38.07 15.772 44.767 35.507 1.973 5.815 2.298 11.803.66 17.806-.15.55-.358 1.086-.803 1.6 0-1.545.064-3.092-.012-4.633-.285-5.811-2.144-11.174-5.065-16.138-7.171-12.195-17.492-20.433-31.343-23.828-12.249-3.002-23.725-.55-34.43 5.804-2.767 1.643-5.341 3.62-7.93 5.541-.857.635-1.593.988-2.71.841-3.9-.51-7.815-.894-11.877-1.342.201-.34.28-.572.438-.725 9.038-8.835 19.204-15.84 31.625-19.051a49.135 49.135 0 0 1 16.68-1.382" fill="#000"/><g transform="translate(0 31.291)"><mask id="b" fill="#fff"><use xlink:href="#a"/></mask><path d="M8.552 12.381h-.015c0 .793-.002 1.584 0 2.377.002 1.913.002 1.913 1.927 1.889 2.423-.032 3.703-.735 4.103-2.67.865-4.185-.869-6.35-5.33-5.78-.258.033-.634.515-.653.809-.078 1.12-.032 2.249-.032 3.375zM0 .07C4.906.057 9.814-.038 14.72.058c3.695.072 6.293 2.123 7.486 5.83 1.345 4.175 1.35 8.416-.032 12.583-1.374 4.145-4.45 6.26-8.84 6.291-1.174.008-2.353.07-3.52-.015-1.036-.074-1.295.36-1.288 1.301.03 3.934-.029 7.869.037 11.8.02 1.18-.378 1.52-1.518 1.481-2.346-.08-4.696-.039-7.045-.048V.07z" fill="#000" mask="url(#b)"/></g><path d="M175.592 150.501c-.079-.147-.232-.297-.226-.44.025-.612.097-1.222.152-1.833.503.15 1.006.297 1.642.484.8-.635 1.894-3.906 1.474-5.044-.972-2.63-1.97-5.249-3.02-7.85-.179-.445-.657-.772-1.092-1.261h4.25l-1.335.675 2.212 5.927.334.043 1.975-5.943-1.339-.5.037-.238h2.535c-.442.856-1.013 1.7-1.337 2.63-1.182 3.397-2.243 6.836-3.438 10.23-.383 1.088-1.035 2.082-1.565 3.12h-1.259z" fill="#FFF"/><path d="M251.926 36.89c-.71.121-1.123-.128-1.181-.89-.047-.624-.143-1.244-.252-2.167l-1.776 3.275a3235.1 3235.1 0 0 0-1.802-3.201c-.175 1.169-.309 2.054-.44 2.939l-.334.002c-.09-.16-.27-.328-.257-.478a61.54 61.54 0 0 1 .4-3.613c.04-.257.32-.641.526-.667.247-.03.646.193.786.423.45.745.813 1.543 1.326 2.55.453-.908.768-1.661 1.196-2.345.186-.298.603-.45.915-.67.177.288.439.555.514.867.174.727.258 1.476.379 2.215v1.76zM57.143 100.284c1.916 1.246 3.81 2.526 5.75 3.732 8.5 5.286 17.61 9.06 27.573 10.42 15.513 2.116 29.622-1.538 42.004-11.113 13.158-10.173 21.006-23.61 23.58-40.015 1.31-8.357.586-16.608-2.161-24.647-.146-.426-.256-.864-.104-1.41.839 2.008 1.785 3.979 2.5 6.03 6.366 18.241 4.31 35.589-6.152 51.762-8.361 12.924-20.128 21.416-35.248 24.918-12.254 2.838-24.085 1.158-35.49-3.917-8.06-3.585-15.115-8.661-21.538-14.653-.214-.2-.42-.408-.62-.623-.084-.089-.14-.202-.209-.304l.115-.18zM67.442 45.04c3.428-5.593 10.637-5.825 12.992.525.51-.686.978-1.304 1.435-1.93 1.585-2.175 3.773-3.052 6.378-2.693 2.662.367 4.289 2.135 4.959 4.595.556 2.04.969 4.181 1.014 6.286.133 6.156.032 12.316.07 18.473.006 1-.234 1.434-1.325 1.385a69.744 69.744 0 0 0-5.414-.004c-.943.032-1.224-.293-1.217-1.223.035-5.487.048-10.976-.02-16.463a6.452 6.452 0 0 0-.728-2.86c-.785-1.467-2.337-1.598-3.228-.194-.66 1.04-1.114 2.387-1.146 3.611-.133 5.15-.071 10.304-.084 15.456-.004 1.651-.008 1.654-1.668 1.655-1.638.002-3.279-.066-4.912.02-1.09.057-1.328-.366-1.321-1.371.04-5.32.044-10.64-.007-15.96-.01-.982-.165-2.032-.547-2.926-.766-1.792-2.508-1.886-3.622-.287-1.12 1.609-1.135 3.49-1.16 5.32a539.71 539.71 0 0 0-.002 13.823c.014 1.114-.313 1.46-1.426 1.402-1.716-.09-3.441-.051-5.162-.009-.822.02-1.205-.179-1.203-1.107.027-9.3.021-18.6.007-27.9-.001-.71.177-1.084.982-1.068 1.804.038 3.611.033 5.416-.001.722-.014.972.283.947.97-.032.823-.008 1.65-.008 2.475m45.188 22.476c-1.02 1.22-1.757 2.306-2.692 3.183-3.14 2.947-7.903 2.189-9.693-1.713-.866-1.887-1.415-4.077-1.473-6.147-.188-6.693-.07-13.394-.104-20.092-.004-.864.27-1.188 1.152-1.162 1.76.053 3.528.08 5.285-.003 1.14-.053 1.527.292 1.514 1.468-.058 5.064-.04 10.13-.008 15.195.006 1.038-.012 2.156.36 3.087.297.747 1.062 1.523 1.808 1.828 1.022.417 1.96-.316 2.308-1.253.472-1.27.892-2.64.923-3.978.111-4.937.092-9.878.032-14.817-.014-1.24.392-1.59 1.583-1.53 1.758.09 3.524.054 5.285.01.818-.02 1.09.27 1.087 1.086a6643.55 6643.55 0 0 0-.003 27.88c.002.787-.21 1.134-1.058 1.112a116.195 116.195 0 0 0-5.287-.002c-.775.015-1.045-.321-1.026-1.05.025-.958.007-1.915.007-3.102" fill="#000"/><path d="M123.232 63.224l5.113-.736c.124-.017.26.006.375-.031 1.497-.482 2.333-.165 2.935 1.515.785 2.192 3.389 2.658 4.933 1.156 1.415-1.376 1.145-3.352-.683-4.084-1.628-.65-3.351-1.063-5.032-1.58-6.379-1.963-8.944-9.182-5.337-14.857 1.694-2.666 4.266-3.538 7.175-3.693 1.538-.082 3.107.038 4.636.255 1.952.277 3.606 1.238 4.598 2.977.833 1.463 1.457 3.045 2.297 4.835-1.948.298-3.502.537-5.058.773-.33.05-.672.055-.994.142-1.025.278-1.666.107-2.078-1.056-.5-1.405-2.197-2.137-3.548-1.509-.64.299-1.33 1.172-1.386 1.835-.054.646.516 1.704 1.093 1.967 1.232.561 2.636.773 3.986 1.043 4.037.805 7.24 2.63 8.08 6.998.868 4.512.161 8.669-3.816 11.575-2.637 1.926-5.784 1.91-8.851 1.511-5.168-.671-7.77-3.477-8.438-9.036" fill="#000"/><path d="M216.408 57.373c-.12-1.697-.045-2.989-.336-4.192-.388-1.602-.853-3.254-1.665-4.666-.897-1.56-2.908-1.595-4.05-.19-.666.817-1.344 1.856-1.446 2.853-.292 2.897-.493 5.833-.338 8.734.09 1.692.69 3.468 1.486 4.985 1.136 2.164 3.394 2.13 4.688.059a8.163 8.163 0 0 0 1.073-2.787c.318-1.722.436-3.48.588-4.796m-8.32 10.754c0 1.175-.033 1.996.007 2.813.039.775-.21 1.12-1.054 1.164-3.489.177-3.487.2-3.487-3.24V31.93c0-1.759.002-1.759 1.69-1.768 3.116-.015 3.116-.015 3.116 3.093v11.293l.245.13c.256-.337.516-.67.766-1.009 2.554-3.468 6.332-3.422 8.848.099 1.502 2.101 2.219 4.49 2.573 7.003.7 4.979.727 9.951-.641 14.82a16.007 16.007 0 0 1-2.144 4.636c-2.405 3.517-6.091 3.438-8.579-.042-.403-.565-.76-1.163-1.34-2.058" fill="#FFF"/><path d="M91.97 103.036c-3.409.319-6.809-.068-10.156-.868-11.388-2.721-20-9.357-26.431-18.937-5.772-8.595-8.9-18.11-9.644-28.436-.277-3.826-.085-7.603.5-11.38.098-.628.289-.996 1.002-.99 2.382.02 4.764.007 7.327.007-.336 2.122-.664 3.914-.898 5.718-1.18 9.118.077 17.94 3.434 26.463 3.692 9.377 9.55 17.05 18.18 22.462 5.012 3.144 10.507 4.967 16.332 5.872.12.018.236.058.354.089" fill="#000"/><path d="M194.607 57.863c-.55.031-.681.007-.787.05-1.124.45-2.255.884-3.36 1.378-1.83.818-2.689 2.377-2.448 4.34.236 1.925 1.185 3.262 2.428 3.416 1.374.17 3.062-1.05 3.448-2.896.42-2.01.485-4.093.72-6.288m5.319 14.215c-1.373 0-2.624.046-3.867-.035-.291-.018-.686-.416-.802-.726-.239-.642-.322-1.341-.505-2.178-.71.816-1.234 1.52-1.86 2.119-2.626 2.506-6.472 1.968-8.197-1.216-1.978-3.647-1.999-7.461-.53-11.28.924-2.4 2.983-3.505 5.277-4.292 1.308-.45 2.596-.956 3.888-1.45.868-.33 1.212-.973 1.08-1.885-.065-.456-.108-.914-.175-1.37-.225-1.556-.867-2.19-2.423-2.41-1.52-.214-2.522.335-3.13 1.717-.884 2.013-.884 2.013-2.975 1.385-2.153-.647-2.178-.654-1.526-2.888.652-2.235 1.431-4.417 3.673-5.616 5.527-2.957 10.962.353 11.151 6.86.115 3.974-.066 7.957.086 11.928.136 3.54.546 7.07.832 10.606.014.161.003.325.003.731m35.248-21.746l-.375-.996c-.79-2.121-2.484-2.925-4.627-2.212-.917.306-1.522.878-1.651 1.857-.131 1 .152 1.874 1.079 2.353a49.148 49.148 0 0 0 3.986 1.86c2.986 1.217 5.557 2.806 6.31 6.258.875 4.017.385 7.797-2.267 11.038-2.742 3.35-9.076 3.153-11.646-.458-1.155-1.622-1.707-3.681-2.445-5.576-.104-.267.212-.974.471-1.059 1.302-.43 2.65-.72 3.954-1.051.422 1.073.691 2.05 1.172 2.91.925 1.657 2.697 2.198 4.445 1.465 1.226-.513 1.72-1.468 1.762-2.778.043-1.289-.398-2.174-1.633-2.656-1.29-.503-2.558-1.063-3.84-1.584-4.674-1.9-6.133-5.21-5.789-10.543.08-1.23.436-2.48.87-3.645 1.02-2.747 3.066-4.203 6.015-4.365 3.175-.175 5.79.685 7.332 3.745 1.863 3.693 1.302 4.841-2.801 5.507-.076.013-.16-.033-.322-.07m-71.714 1.019c-.001-6.407.027-12.813-.026-19.22-.01-1.218.375-1.575 1.578-1.558 3.505.051 3.506.006 3.506 3.501v29.27c0 1.644.006 1.647 1.673 1.65 3.148.003 6.295.031 9.443-.012.988-.013 1.342.332 1.305 1.313-.06 1.547-.037 3.099-.007 4.647.016.763-.2 1.158-1.058 1.154-5.12-.021-10.24-.027-15.36.006-1.107.007-1.056-.66-1.056-1.405.005-6.449.003-12.898.002-19.346" fill="#FFF"/><path d="M34.381 45.352c.378-.688.709-1.406 1.143-2.057 1.784-2.68 4.595-2.228 6.767-.516.165.13.247.543.179.767-.716 2.353-1.47 4.695-2.226 7.077-.228-.033-.415-.008-.538-.085-1.897-1.179-3.612-.395-4.045 1.853-.567 2.935-.822 5.944-1 8.935-.16 2.668-.08 5.355-.01 8.03.026 1.024-.335 1.295-1.298 1.26-1.801-.061-3.606-.037-5.41-.011-.742.01-1.047-.263-1.045-1.029.015-8.87.002-17.741.04-26.612 0-.306.436-.868.685-.877 2.126-.07 4.258-.04 6.544-.04v3.286l.214.02m15.382-9.587c.165-2.91 1.142-5.143 3.418-6.621 3.15-2.046 6.688-2.112 10.355-1.783-2.956 2.094-6.408 3.8-5.487 8.404h-8.286z" fill="#000"/><path d="M63.875 143.848c.245-.65.612-1.192.63-1.746a83.03 83.03 0 0 0-.028-5.899c-.016-.417-.391-1.157-.614-1.161-.455-.011-1.183.269-1.33.622a16.068 16.068 0 0 0-.981 3.45c-.157.939-.027 1.922-.067 2.883-.034.803.015 1.519 1.026 1.842h-3.865c1.077-.38 1.072-1.181 1.064-2.095-.04-3.976-.04-7.952-.003-11.927.008-.96-.012-1.771-1.381-1.76l.111-.344 2.967-.281v8.318l.435.282c.116-.25.19-.527.351-.742.594-.792 1.363-1.273 2.388-1 1.125.302 1.625 1.159 1.676 2.25.084 1.754.115 3.511.13 5.268.008.811-.131 1.65.974 2.04h-3.483zm53.694-4.591l.1.002c0 .92-.12 1.862.044 2.751.105.573.586 1.46.977 1.502.544.06 1.451-.391 1.697-.877 1.15-2.28 1.14-4.694.127-7.01-.205-.47-1.151-.85-1.743-.83-.362.01-.898.82-1.001 1.34-.2 1.015-.149 2.079-.201 3.122m3.549-4.107c0-2.123.073-4.157-.061-6.178-.028-.414-.833-.777-1.404-1.271l3.228-.256c.03.629.072 1.118.073 1.607.005 4.347-.02 8.694.033 13.04.007.55.42 1.094.689 1.75-1.003.728-2.391.386-2.698-1.064-.191.238-.336.424-.487.604-.983 1.17-2.289 1.255-3.38.22-2.203-2.087-2.154-6.754.09-8.783 1.088-.981 2.136-.917 3.917.331m-40.479 8.716H76.8c1.374-.458 1.022-1.585 1.031-2.549.015-1.55-.026-3.099.015-4.647.024-.91.09-1.775-1.294-1.827l.13-.323c.895-.092 1.79-.185 2.828-.294l.212 1.953c.264-.406.43-.676.61-.936.605-.872 1.505-1.466 2.46-1.02.676.317 1.419 1.177 1.526 1.887.275 1.807.233 3.664.276 5.503.036 1.493.01 1.494 1.4 2.248h-3.92c.218-.716.565-1.37.59-2.036.072-1.882.046-3.77-.025-5.651-.017-.421-.374-1.173-.58-1.174-.465-.004-1.193.249-1.351.603a14.112 14.112 0 0 0-1.02 3.31c-.166.936-.064 1.921-.053 2.883.01.798-.314 1.791 1.368 1.732l-.364.338m144.901.014h-3.567c.18-.862.477-1.72.518-2.59a51.973 51.973 0 0 0-.029-5.017c-.022-.458-.412-.897-.634-1.344-.48.27-1.216.429-1.391.83a13.757 13.757 0 0 0-.944 3.33c-.15.981-.115 2.011-.009 3.003.06.57.426 1.106.684 1.732h-3.521c1.225-.347 1.015-1.321 1.014-2.198-.002-1.673 0-3.346-.004-5.019-.004-1.34-.006-1.34-1.371-2.083l3.043-.277.227 1.94c.794-1.39 1.691-2.512 3.252-1.954 1.54.551 1.494 2.103 1.588 3.414.1 1.415.026 2.843.034 4.265.007 1.263.01 1.263 1.11 1.968m-14.476-9.448c.849 0 1.71-.08 2.538.052.23.036.507.691.516 1.069.05 2.05.048 4.101.012 6.152-.014.89-.083 1.743 1.052 2.208l-2.729.183-.206-1.514c-.108.028-.226.023-.256.072-.64 1.044-1.48 1.74-2.788 1.461-1.391-.297-1.662-1.4-1.705-2.59-.06-1.63-.1-3.261-.099-4.892.001-.873.041-1.708-1.226-1.832.04-.112.08-.223.122-.335.861 0 1.736-.076 2.577.056.197.031.396.758.406 1.169.048 2.092-.01 4.186.069 6.276.018.497.412.98.634 1.468.476-.287 1.198-.468 1.378-.882.455-1.05.747-2.192.947-3.324.143-.813-.014-1.673.043-2.506.07-1.011-.017-1.862-1.425-1.889l.14-.402m-165.574.091h3.646l.038.226-.977.5 1.602 5.153.317.017 1.817-5.867.357-.025 1.906 5.853.274.026 1.453-5.147-1.166-.437.011-.25h2.624c-1.282.46-1.241 1.675-1.536 2.69-.661 2.277-1.306 4.56-1.959 6.839l-.406.047-1.945-5.92-.245-.021a35212.8 35212.8 0 0 1-1.957 6.336c-.278-.6-.436-.862-.526-1.147-.734-2.312-1.42-4.64-2.203-6.936-.23-.672-.72-1.255-1.126-1.937m93.345 7.1l1.134 1.518c.51-.426 1.076-.803 1.504-1.3.215-.248.254-.718.234-1.08-.027-.503-.184-1-.286-1.5-.64.211-1.376.295-1.89.677-.357.267-.41.943-.696 1.685m5.99 1.65c-.459.342-.968 1.014-1.366.954-.673-.102-1.275-.666-2.062-1.127-.12.11-.457.465-.842.758-1.224.927-2.737.46-3.24-.98-.642-1.841.409-3.505 2.583-4.091 2.028-.546 2.1-.706 1.744-2.814-.147-.87-.536-1.257-1.432-1.144-.915.115-1.2.532-.97 1.458.088.354-.197.834-.405 1.204-.059.106-.597.117-.654.02-.22-.372-.564-.911-.436-1.196.287-.636.719-1.374 1.298-1.669.698-.356 1.612-.408 2.428-.39 1.2.025 1.97.686 2.008 1.955.058 1.92.074 3.842.105 5.763.01.686.013 1.368 1.234.748l.007.551m6.537-15.107c-1.19-.379-1.823.162-1.941 1.073a23.743 23.743 0 0 0-.178 4.488c.022.356.9.659 1.558 1.103-2.12-.048-1.628 1.416-1.645 2.583a185.632 185.632 0 0 0-.002 4.016c.009.992-.358 2.214 1.307 2.426h-4.282c1.44-.357 1.192-1.454 1.178-2.46-.02-1.465-.023-2.93 0-4.394.017-1.033.18-2.114-1.462-2.32 1.449-.17 1.448-1.065 1.513-2.066.113-1.737.543-3.409 1.948-4.617 1.285-1.106 2.987-.652 3.223.884.07.466-.206 1.012-.421 1.476-.048.102-.72.083-.751-.005-.166-.47-.247-.976-.298-1.475-.018-.182.13-.381.253-.712m51.383 11.108h-.014c0-1 .086-2.01-.025-2.997-.097-.875-.547-1.61-1.606-1.58-1.055.031-1.489.778-1.523 1.663a65.626 65.626 0 0 0 .006 5.625c.043.914.476 1.73 1.615 1.708 1.071-.02 1.43-.81 1.525-1.671.1-.907.022-1.832.022-2.748m2.373-.237c-.194 1.69-.619 3.139-1.785 4.304-1.441 1.44-3.648 1.285-4.788-.397-1.519-2.24-1.629-4.618-.315-6.976 1.41-2.531 4.371-2.578 5.819-.062.54.938.723 2.08 1.069 3.13m-109.193-4.31c-1.425.62-1.424.62-1.425 2.46 0 1.548.034 3.097-.017 4.643-.031.973.025 1.788 1.428 1.684-.828.607-3.305.672-4.634.12 1.513-.112 1.453-1.048 1.428-2.021-.04-1.505.003-3.012-.017-4.518-.013-1.02.457-2.321-1.563-2.388 1.542-.174 1.558-1.039 1.621-2.053.107-1.688.472-3.395 1.863-4.511.557-.446 1.557-.665 2.248-.51.475.105.879.994 1.09 1.61.101.297-.273.8-.52 1.147-.075.105-.606.076-.659-.028a3.544 3.544 0 0 1-.375-1.236c-.026-.26.162-.542.252-.81-.991-.454-1.72-.185-1.885.937-.22 1.476-.261 2.996-.178 4.488.02.344.852.643 1.343.986m15.989 4.592c-.09-1.071-.136-2.198-.29-3.31-.117-.837-.642-1.357-1.55-1.314-.905.042-1.42.628-1.45 1.445-.073 1.997-.08 4-.015 5.996.028.847.486 1.53 1.475 1.563.91.031 1.415-.524 1.546-1.34.159-.983.192-1.985.284-3.04m1.98-.248c.052 1.617-.428 2.973-1.425 4.126-1.345 1.552-3.503 1.496-4.807-.093-1.678-2.046-1.766-5.511-.191-7.623 1.297-1.74 3.658-1.87 5.113-.26 1.008 1.115 1.381 2.456 1.31 3.85m-14.683.118c.089 1.021.136 2.064.28 3.093.123.88.614 1.477 1.597 1.417.989-.06 1.405-.762 1.43-1.61.059-1.957.045-3.917.002-5.875-.018-.841-.487-1.444-1.377-1.513-.94-.072-1.532.448-1.662 1.35-.149 1.029-.183 2.074-.27 3.138m-2.244-.106c.426-1.151.679-2.41 1.315-3.433 1.326-2.135 4.142-2.053 5.528.038 1.422 2.147 1.255 5.427-.376 7.402-1.3 1.574-3.436 1.636-4.816.128-1.046-1.142-1.404-2.53-1.651-4.135m58.486-1.187c.933.126 1.537-.174 1.424-1.2-.094-.851-.065-1.863-1.275-1.994-.88-.095-1.364.68-1.43 1.945-.051.987.29 1.428 1.281 1.249m3.03 3.086c.05 1.273-.379 2.318-1.487 2.973-1.005.593-2.016.482-2.94-.212-2.589-1.944-2.63-7.043-.086-9.035 1.193-.935 2.745-.811 3.693.38.38.477.646 1.075.842 1.66.488 1.463.292 1.708-1.21 1.713-.084 0-.168-.013-.251-.003-.922.113-1.844.229-2.765.345.095 1.401.026 2.84.34 4.191.232 1 1.791 1.03 2.605.072.518-.611.845-1.384 1.259-2.084m-86.335-3.107c1.06.273 1.435-.333 1.362-1.3-.064-.828-.13-1.753-1.257-1.87-.888-.092-1.397.684-1.454 1.929-.045.967.264 1.45 1.349 1.241m3.065 2.964c-.039 1.66-.856 2.956-1.99 3.336-1.201.401-2.482-.09-3.393-1.303-1.675-2.23-1.39-6.165.577-7.98.966-.892 2.185-1.043 3.226-.402 1.025.632 1.985 2.515 1.659 3.438-.086.243-.533.48-.83.503-.917.07-1.849-.031-2.758.077-.321.038-.832.48-.843.756-.046 1.034-.018 2.096.182 3.108.094.48.588 1.165.99 1.232.563.094 1.367-.135 1.781-.528.571-.54.876-1.362 1.399-2.237m92.227-6.25c1.352-.039 1.654-.81 1.542-1.926-.07-.7.36-1.084.98-.934.329.08.818.64.775.909-.246 1.538.648 1.906 1.895 1.832-.03.238-.025.306-.042.313-1.798.647-1.8.647-1.798 2.677.001 1.42-.054 2.846.038 4.261.035.55.407 1.078.626 1.616.469-.357.941-.711 1.406-1.074.093-.073.16-.176.256-.283.121 1.18-.614 2.019-1.885 2.191-1.235.166-2.116-.427-2.182-1.661-.098-1.793-.062-3.592-.07-5.39-.008-1.801-.001-1.801-1.541-2.531m59.075.074c1.355-.108 1.6-.827 1.488-1.842-.08-.72.278-1.081 1.006-1.125.87-.054.834.561.778 1.092-.119 1.132.192 1.79 1.482 1.617.168-.022.355.104.543.166-.073.153-.094.275-.14.286-1.871.425-1.873.424-1.871 2.465.001 1.465-.055 2.934.046 4.391.038.546.451 1.066.693 1.598.472-.35.948-.693 1.41-1.055.11-.086.17-.232.351-.492-.073 1.588-.866 2.372-2.261 2.428-1.109.045-1.87-.559-1.955-1.832-.118-1.791-.074-3.595-.086-5.393-.008-1.014.257-2.172-1.484-2.304m-62.601.7c-.231.601-.617 1.19-.667 1.806-.15 1.828-.235 3.669-.18 5.5.012.384.73.747 1.196 1.19h-4.307c1.765-.448 1.223-1.843 1.247-2.973.03-1.338-.032-2.679.023-4.016.045-1.073.058-2.044-1.54-1.994l.125-.318h3.107l.155 1.249c.308-.416.523-.783.81-1.08.58-.598 1.413-.8 1.807-.052.295.563.008 1.43-.02 2.16-.405-.1-.902-.094-1.185-.337-.219-.188-.17-.685-.241-1.046l-.33-.089m31.779 5.558c.067 1.718-.765 2.98-1.931 3.29-1.38.37-2.62-.243-3.544-1.75-1.208-1.97-1.088-5.059.266-6.897 1.29-1.75 3.562-2.03 4.709-.52.328.434.58 1.084.523 1.597-.048.436-.592.818-.917 1.225-.26-.459-.756-.932-.726-1.37.051-.76.671-1.593-.66-1.793-1.008-.152-1.82.483-1.885 1.705a52.556 52.556 0 0 0 .015 5.51c.04.772.308 1.609 1.31 1.763 1.023.157 1.675-.389 2.127-1.221.268-.497.478-1.025.713-1.54m-65.569 2.562v-3.036c.618 1.052 1 1.931 1.586 2.641.824.997 2.194.79 2.838-.318.588-1.013.225-2.005-.893-2.385-.395-.134-.812-.203-1.214-.32-2.009-.588-2.882-2.41-2.086-4.345.612-1.486 1.777-1.939 3.253-1.312.381.161.822.184 1.362.299 0 .474.01 1.011-.006 1.548-.004.155-.083.306-.209.74-.324-.611-.51-1.036-.76-1.421-.724-1.124-2.138-1.205-2.819-.178-.5.754-.26 1.62.576 1.964.345.143.72.23 1.092.288 3.18.497 3.164 4.29 1.845 5.85-.734.87-1.642 1.055-2.711.555-.54-.253-1.148-.359-1.854-.57m103.752-3.265c.592 1.145.893 2.052 1.468 2.722.369.428 1.196.77 1.724.67.532-.102 1.118-.72 1.375-1.258.386-.808.108-1.573-.84-1.902-.514-.178-1.05-.291-1.57-.456-1.963-.621-2.81-2.906-1.738-4.672.728-1.2 1.799-1.49 3.141-.9.327.144.714.15 1.163.237v2.078l-.248.052c-.187-.394-.343-.806-.567-1.179-.71-1.19-2.219-1.258-2.876-.13-.462.793-.306 1.455.559 1.855.3.14.638.223.967.27 3.131.447 3.269 3.518 2.388 5.318-.642 1.314-1.89 1.686-3.168 1.088-.5-.235-1.075-.31-1.778-.502v-3.29z" fill="#FFF"/><path d="M241.695 32.143h3.696c-1.9.64-1.09 2.194-1.23 3.39-.033.288.05.615-.063.86-.094.205-.381.396-.61.434-.124.021-.415-.276-.438-.455-.066-.532-.032-1.077-.045-1.617-.027-1.02.379-2.286-1.567-2.23l.257-.382" fill="#000"/><path d="M142.116 20.421a54.157 54.157 0 0 1 9.615 30.883c0 30.097-24.453 54.495-54.618 54.495-30.166 0-54.62-24.398-54.62-54.495 0-5.735.891-11.262 2.538-16.455a56.375 56.375 0 0 0-4.023 20.979c0 31.288 25.422 56.653 56.783 56.653 31.36 0 56.783-25.365 56.783-56.653 0-13.398-4.664-25.707-12.458-35.407" fill="#F8F196"/></g></svg>