<svg width="329" height="93" viewBox="0 0 329 93" xmlns="http://www.w3.org/2000/svg" xmlns:xlink="http://www.w3.org/1999/xlink"><title>Senasica</title><defs><path id="a" d="M0 25.105V.097h24.413v25.008H0z"/><path id="c" d="M7.64 9.022H.556V.555H7.64v8.467z"/><path id="e" d="M0 92.34h328.48V0H0z"/></defs><g fill="none" fill-rule="evenodd"><path d="M20.315 32.15c-1.019.534-2.032 1.08-3.058 1.598-1.078.544-.83.701-1.706-.294-.765-.87-.763-.87-.087-1.827a1063.97 1063.97 0 0 0 2.164-3.071 1.22 1.22 0 0 0 .25-.66c-.271.11-.545.214-.811.333-.842.376-1.67.787-2.53 1.116-.209.08-.617-.014-.766-.18-1.102-1.225-1.088-1.237-.096-2.59.763-1.041 1.523-2.084 2.212-3.265-.189.052-.382.091-.564.16-.656.25-1.327.474-1.956.781-.563.276-.946.222-1.222-.37a2.465 2.465 0 0 0-.365-.547c-.294-.34-.261-.633.001-.995.76-1.05 1.487-2.124 2.224-3.19.13-.19.247-.388.48-.756-.985.303-1.78.527-2.56.795-.428.148-.687.075-.9-.347-.815-1.612-.896-1.123.22-2.459.643-.77 1.286-1.538 1.855-2.446-.802.167-1.61.309-2.403.512-.497.128-.835.031-1.107-.415-.213-.35-.487-.665-.774-1.05l3.303-3.018-.087-.148c-.567.207-1.14.4-1.698.626-.368.149-.588.072-.816-.268-.89-1.324-.9-1.312.338-2.355.555-.466 1.096-.948 1.638-1.428.04-.036.044-.111.077-.204-.097-.027-.182-.083-.252-.068-1.262.288-1.807-.598-2.346-1.459-.088-.142-.1-.456-.003-.571 1.105-1.333 2.238-2.641 3.477-4.09.522.56 1.008 1.056 1.463 1.579.284.326.544.4.967.212 1.399-.627 1.407-.608 2.456.536.839.915.839.915.02 1.911.7-.087 1.319-.144 1.932-.246.374-.062.572.089.83.354.966 1 .87 1.9-.297 2.77l.191.13c.65-.202 1.315-.366 1.945-.616.627-.25 1.087-.2 1.4.455.093.195.24.37.388.53.273.3.241.561.002.873-.462.6-.892 1.225-1.335 1.84l.114.158c.737-.302 1.476-.605 2.213-.909 1.285-.53 1.794-.345 2.355.923.07.159-.034.46-.152.627-.644.916-1.32 1.81-1.98 2.716-.06.081-.095.18-.225.435.596-.287 1.043-.498 1.485-.717.708-.35 1.408-.718 2.123-1.054.306-.144.79-.416.935-.302.453.359.804.86 1.14 1.342.054.079-.143.38-.277.532-1.067 1.193-2.146 2.374-3.15 3.687.19-.096.385-.181.567-.29 1.247-.737 2.5-1.464 3.73-2.229.402-.249.636-.191.943.154 1.137 1.28 1.156 1.275-.038 2.46-1.214 1.206-2.442 2.397-3.664 3.595l.107.147c.158-.08.324-.147.475-.239 1.708-1.036 3.422-2.063 5.115-3.122.438-.273.742-.264 1.063.148.242.311.511.608.807.868.396.348.344.603-.018.96-1.816 1.787-3.609 3.598-5.408 5.402-.164.165-.318.34-.478.51l.097.14c.708-.367 1.429-.712 2.12-1.108.41-.234.7-.23 1.02.15.396.47.835.905 1.277 1.331.344.332.326.599.002.944-1.052 1.123-2.078 2.267-3.11 3.406a.848.848 0 0 0-.249.56c.601-.377 1.225-.723 1.798-1.138.503-.365.891-.42 1.335.1.398.464.859.88 1.33 1.274.41.342.352.614.032.976-.871.99-1.718 2-2.572 3.003a.727.727 0 0 0-.2.53c.49-.373.996-.728 1.469-1.124.34-.283.587-.261.895.056.49.503 1.004.984 1.537 1.441.357.307.385.554.091.936-.815 1.061-1.592 2.152-2.293 3.334.54-.407 1.105-.787 1.617-1.228.388-.336.65-.292.988.064a28.461 28.461 0 0 0 1.665 1.595c.337.303.325.546.046.886-.69.84-1.348 1.707-1.927 2.653.58-.456 1.18-.89 1.733-1.378.369-.324.61-.28.926.068a31.886 31.886 0 0 0 1.669 1.685c.3.284.316.506.064.839-.604.796-1.17 1.621-1.753 2.435l.128.136c.586-.436 1.19-.85 1.752-1.315.387-.32.653-.302.987.075a24.547 24.547 0 0 0 1.57 1.597c.317.298.293.509.004.813-.57.602-1.1 1.24-1.647 1.864l.105.157c.555-.304 1.128-.578 1.658-.92.5-.323.864-.252 1.254.18.47.52.984 1.003 1.494 1.487.27.255.267.462-.004.71-.564.513-1.115 1.042-1.671 1.564.048.073.097.144.146.216.614-.243 1.241-.461 1.841-.738.435-.2.72-.13 1.01.255.383.508.8.995 1.247 1.446.354.358.298.602-.037.926-.435.42-.822.89-1.16 1.461.503-.11 1.015-.192 1.51-.334.439-.124.713-.047.977.37.959 1.513.974 1.502-.165 2.88-.106.128-.187.278-.361.543.685-.127 1.24-.208 1.783-.339.42-.102.687-.019.928.373.816 1.322.83 1.313-.144 2.564-.14.181-.266.375-.517.73.776-.147 1.354-.238 1.922-.372.402-.096.62.049.879.363.58.699.688 1.363.14 2.122-.173.238-.263.536-.433.899.215-.029.32-.031.417-.058.353-.094.837-.389 1.028-.255.452.314.79.811 1.107 1.28.069.102-.104.433-.24.596-.67.803-.676.792.011 1.592.254.295.491.606.806.996-.76.506-1.457.989-2.18 1.427-.108.066-.383-.028-.51-.133-.337-.28-.634-.607-.947-.915-.466-.454-1.116-.853-.264-1.746-.352.085-.492.08-.581.147-.698.52-1.222.29-1.737-.314-.411-.48-1.182-.841-1.278-1.351-.09-.483.491-1.091.865-1.814-.443.36-.783.604-1.084.89-.3.282-.532.3-.825-.019a28.25 28.25 0 0 0-1.484-1.497c-.301-.282-.327-.515-.057-.835.437-.519.839-1.066 1.256-1.6l-.098-.141c-.455.29-.93.553-1.36.875-.394.294-.678.286-.993-.112a13.45 13.45 0 0 0-1.106-1.22c-.282-.278-.274-.494-.011-.776.58-.625 1.14-1.27 1.627-2.033-.618.334-1.246.647-1.848 1.007-.388.231-.663.216-.965-.145-.38-.453-.788-.89-1.228-1.285-.386-.345-.348-.622-.058-1.003.502-.66.96-1.353 1.436-2.033l-.11-.118c-.537.425-1.092.83-1.603 1.282-.357.317-.613.311-.93-.048-.494-.557-1.025-1.08-1.607-1.687l1.96-2.507-.095-.1c-.644.438-1.3.86-1.93 1.32-.329.24-.553.225-.843-.072-.58-.593-1.198-1.147-1.842-1.756l2.116-2.31a5.773 5.773 0 0 1-.118-.146c-.721.433-1.46.839-2.158 1.306-.428.286-.735.25-1.084-.11a28.318 28.318 0 0 0-1.523-1.458c-.313-.28-.319-.515-.063-.837.586-.741 1.147-1.502 1.714-2.257a.91.91 0 0 0 .208-.57c-1.028.691-2.079 1.352-3.075 2.089-.484.358-.783.3-1.146-.13-.354-.419-.75-.804-1.156-1.173-.317-.29-.295-.519-.025-.83.707-.812 1.387-1.646 2.074-2.475a.745.745 0 0 0 .194-.504c-.239.172-.48.341-.716.517-1.04.772-2.085 1.539-3.115 2.323-.303.23-.521.234-.778-.068a51.296 51.296 0 0 0-1.67-1.866c-.315-.334-.26-.592.04-.896.888-.905 1.761-1.824 2.554-2.85-.437.31-.877.618-1.31.931-1.21.876-2.424 1.744-3.623 2.636-.341.253-.583.293-.88-.071a20.687 20.687 0 0 0-1.417-1.561c-.333-.331-.354-.564-.024-.93 1.175-1.303 2.315-2.638 3.4-4.076-.187.104-.378.2-.561.312-1.463.891-2.936 1.764-4.378 2.688-.492.316-.854.372-1.216-.137-.113-.158-.272-.285-.41-.426-1.049-1.07-1.045-1.066-.04-2.22.945-1.09 1.883-2.186 2.824-3.28-.034-.04-.067-.084-.1-.126-.17.11-.345.212-.505.333-.963.73-1.93 1.455-2.876 2.204-.317.25-.524.26-.83-.04-1.367-1.325-1.374-1.312-.16-2.762.854-1.02 1.702-2.046 2.552-3.068l-.097-.123z" fill="#F3A801"/><path d="M71.521 60.468c-.013.142-.009.166-.017.186-.652 1.488-.652 1.492-2.234 1.299-.63-.077-1.255-.18-1.932-.166l3.115 1.759c-.26.592-.47 1.145-.75 1.66-.077.14-.384.25-.558.221-.578-.098-1.144-.266-1.79-.305.378.336.734.704 1.139 1.001.442.325.598.714.506 1.245-.087.51-.133 1.027-.205 1.606l-1.448-.422c.355.772.636 1.428.956 2.064.189.375.186.633-.217.861-.437.248-.842.552-1.364.9l-.811-1.431c-.323-.574-.616-1.169-.978-1.717-.286-.434-.239-.75.136-1.08.194-.17.347-.386.546-.612l-1.568-1.889 1.08-1.15-1.831-2.236 1.367-1.106-2.334-2.8c.331-.349.63-.661.992-1.04-.654-.846-1.305-1.69-1.959-2.533-.677-.874-.678-.873.086-1.653.122-.125.237-.256.41-.445l-3.006-3.252.86-.951c-.792-.848-1.542-1.706-2.354-2.5-.48-.467-.642-.849-.054-1.318.08-.065.127-.172.225-.308L54.6 41.11l.791-.85-3.267-3.383.545-.693-3.312-2.896.982-1.1-3.126-2.652 1.521-1.649-3.022-2.868 2.791-3.383-2.878-2.837 4.195-3.733c-1.153-1.219-2.263-2.389-3.357-3.543.054-.101.067-.146.096-.177.981-1.094.983-1.096 2.216-.328l12.849 8.01c.166.104.323.22.547.375l-.841 1.193 3.636 2.728-1.383 1.688 5.283 3.821-.872 1.486 1.898 1.482c-.48.777-.923 1.532-1.417 2.251-.079.115-.424.152-.59.085a44.284 44.284 0 0 1-2.466-1.09c-.351-.166-.555-.175-.792.212-.759 1.242-.778 1.228-2.09.63-1.952-.888-3.906-1.775-5.935-2.562.177.127.352.258.53.383 3.113 2.212 6.22 4.433 9.35 6.621.453.318.559.587.299 1.067-.216.4-.365.837-.566 1.31-1.016-.316-1.986-.617-2.956-.92l-.049.102c1.45 1.021 2.88 2.073 4.36 3.05.58.382.714.733.48 1.391-.434 1.225-.393 1.24-1.693.97l-1.714-.359c.25.211.36.32.486.409 1.294.908 2.583 1.821 3.888 2.713.313.213.37.4.212.755-.662 1.5-.65 1.505-2.264 1.12-.167-.04-.334-.08-.536-.038.203.087.405.178.61.262 3.148 1.279 6.293 2.568 9.45 3.826.49.196.657.402.417.91-.26.551-.313 1.393-.727 1.626-.405.227-1.156-.129-1.745-.272-2.447-.592-4.889-1.201-7.37-1.71l6.84 2.878c-.332.56-.586 1.07-.927 1.515-.111.146-.457.191-.677.16-1.82-.262-3.634-.553-5.482-.746l4.703 2.118" fill="#000"/><path d="M33.94 71.658l1.734-3.215c.564.329 1.073.585 1.529.914.145.104.224.41.208.611-.128 1.508-.286 3.014-.303 4.565.51-1.233 1.017-2.466 1.57-3.807.607.395 1.183.736 1.713 1.138.13.098.155.392.157.598.013 1.293.007 2.589.007 3.993l1.46-3.165c.589.363 1.135.647 1.613 1.018.188.146.28.48.322.743.13.822.215 1.653.341 2.68l1.18-2.23c.572.307 1.109.56 1.6.88.167.108.282.38.316.593.158 1.033.28 2.072.543 3.138l1.313-2.632c.987.429 1.818.87 2.033 2.01.116.616.402 1.199.733 1.801l.532-2.284c2.055.293 2.618 2.083 3.68 3.554.267-.59.504-1.07.7-1.565.144-.361.324-.497.743-.415 1.455.283 1.459.265 1.788 1.726.113.501.228 1.004.387 1.7l1.34-2.947c.711 1.099 1.349 2.059 1.951 3.04.082.134.015.384-.034.568-.492 1.87-1.02 3.73-1.483 5.606-.17.696-.707.59-1.167.711-.483.127-.535-.265-.667-.545-.306-.647-.597-1.301-1.021-1.93-.06.731-.141 1.462-.17 2.194-.019.441-.222.563-.628.668-.886.23-1.419-.067-1.852-.85-.42-.759-.97-1.444-1.564-2.31-.09 1.112-.184 2.041-.233 2.973-.025.467-.218.632-.68.67-1.857.155-1.856.17-2.59-1.525-.348-.801-.696-1.603-1.199-2.41-.159.688-.307 1.38-.479 2.064-.153.613-.153 1.436-.55 1.764-.359.296-1.166.06-1.774.033-1.27-.056-1.266-.063-1.401-1.312-.1-.932-.21-1.863-.453-2.842-.18.282-.365.562-.54.847-.37.599-.735 1.2-1.101 1.8-.69 1.133-1.313 1.342-2.563.81-.132-.057-.244-.335-.24-.507.029-.944.103-1.887.149-2.83.018-.368.003-.738.003-1.267-.242.258-.403.417-.55.588-.804.931-1.624 1.85-2.397 2.806-.312.388-.611.476-1.073.324-.638-.21-1.296-.356-2.006-.546l1.313-4.693-.19-.163c-.073.142-.125.303-.224.425-.92 1.12-1.854 2.23-2.768 3.355-.23.282-.44.363-.786.199a19.053 19.053 0 0 0-1.698-.714c-.406-.147-.455-.376-.343-.76.44-1.515.855-3.037 1.185-4.62-.116.13-.241.256-.345.397-.864 1.164-1.737 2.323-2.577 3.505-.277.39-.513.489-.97.263-1.407-.7-1.417-.68-1.002-2.201.38-1.39.76-2.78 1.043-4.22-1.335 1.445-2.67 2.89-4.036 4.366-.67-.437-1.312-.82-1.903-1.268-.129-.099-.165-.469-.095-.658.493-1.316 1.027-2.618 1.546-3.924.078-.196.15-.395.123-.656l-3.481 4.04c-.814-.647-1.607-1.257-2.362-1.911-.078-.067.016-.44.127-.607 1.4-2.103 2.844-4.176 4.214-6.3a9.035 9.035 0 0 0 1.074-2.299c1.01-3.411 1.953-6.844 2.921-10.268.065-.227.137-.454.256-.847.754.73 1.444 1.353 2.07 2.036.13.141.054.504.019.757-.167 1.194-.353 2.384-.43 3.62l1.976-3.371c.5.456.965.825 1.354 1.262.14.156.17.487.13.715-.191 1.038-.427 2.065-.642 3.097a1.04 1.04 0 0 0 .039.643l2.463-2.89c.573.456 1.142.861 1.641 1.34.135.128.115.49.068.726-.234 1.198-.5 2.391-.756 3.586l.12.044" fill="#57585D"/><path d="M64.47 71.431c-1.168.881-2.318 1.76-3.486 2.613-.127.092-.386.11-.533.047-.56-.243-1.1-.534-1.738-.852l1.788-3.417c-.61-.438-1.405-.398-1.805-1.225-.455-.94.325-1.296.605-1.998-.449-.09-.859-.212-1.276-.245-.478-.04-.689-.3-.928-.69-.488-.792-.48-1.448.242-2.07.14-.123.22-.314.41-.591-.606.051-1.095.074-1.578.137-.42.054-.685-.073-.906-.46-.71-1.246-.724-1.237.25-2.281.237-.255.469-.515.836-.918-.784.08-1.399.12-2.007.208-.51.074-.845-.068-1.154-.515-1.004-1.45-1.029-1.442.225-2.688.242-.241.543-.425.817-.635l-.17-.205c-.752.128-1.5.291-2.256.364-.239.023-.59-.127-.737-.316-.415-.534-1.063-1.149-1.03-1.695.032-.535.79-1.028 1.233-1.534.2-.227.413-.445.562-.821-.656.155-1.333.255-1.966.48-.756.266-1.225.087-1.704-.573-1.002-1.379-1.045-1.351.155-2.53.262-.257.543-.493.816-.739l-.098-.141c-.77.133-1.55.22-2.304.414-.634.165-1.031-.005-1.378-.541-.331-.513-.74-.975-1.166-1.525l2.386-2.183a11.825 11.825 0 0 0-.04-.116c-.986.209-1.98.39-2.955.638-.452.115-.74.021-1.018-.34-.454-.587-.947-1.145-1.467-1.768l2.761-2.266-.06-.122c-.741.142-1.493.245-2.222.435-.624.164-1.068.04-1.501-.457-.428-.49-.966-.885-1.534-1.392 1.348-1.152 2.552-2.18 3.756-3.211l-.066-.139c-1.09.177-2.185.326-3.266.541-.46.092-.734-.03-.998-.392-.4-.545-.843-1.056-1.314-1.64 1.202-1.061 2.359-2.08 3.515-3.102l-.064-.11c-.774.122-1.545.26-2.322.354-.21.025-.507-.018-.641-.152-.541-.54-1.034-1.128-1.534-1.687l3.835-4.009c-.925.288-1.705.57-2.507.76-.259.061-.637-.035-.851-.2-.602-.466-1.147-1.007-1.754-1.552l6.226-6.506-.069-.108c-.738.188-1.48.357-2.21.573-.394.117-.664.032-.918-.283-.439-.545-.906-1.066-1.423-1.671L50.376 2.543c.642.745 1.247 1.45 1.888 2.197l-9.258 8.88.083.163c.672-.262 1.36-.492 2.012-.795.485-.225.79-.15 1.108.285.436.597.943 1.143 1.443 1.737l-5.727 5.864.094.136c.765-.306 1.52-.642 2.3-.896.227-.075.61-.004.782.153.484.437.896.955 1.368 1.477-1.325 1.667-2.62 3.292-3.913 4.917l.073.135c.544-.17 1.08-.387 1.636-.492.27-.05.647.023.856.19.562.447 1.06.975 1.636 1.521l-3.085 3.675.084.105c.683-.282 1.373-.546 2.046-.85.349-.16.606-.117.888.138.44.398.892.786 1.372 1.13.428.307.407.578.113.97a15.41 15.41 0 0 0-1.42 2.254c.48-.24.97-.46 1.439-.724.318-.18.544-.152.808.111.605.603 1.24 1.174 1.924 1.817l-2.674 3.255.094.128c.888-.402 1.792-.77 2.656-1.218.485-.252.79-.178 1.121.23.36.443.757.858 1.17 1.249.333.314.31.55.014.88-.703.785-1.373 1.6-2.054 2.405-.119.142-.22.298-.257.549.888-.355 1.785-.69 2.657-1.077.414-.184.665-.103.969.217 1.312 1.385 1.322 1.376.23 2.925-.265.375-.528.751-.727 1.255.524-.214 1.057-.408 1.568-.65.362-.172.6-.108.841.207.36.47.745.923 1.141 1.363.25.277.27.51.035.808-.284.361-.528.755-.79 1.135-.26.378-.52.756-.703 1.265.42-.187.852-.352 1.259-.565.386-.202.675-.18.98.164.466.525.964 1.024 1.474 1.506.284.268.29.476.048.778-.562.7-1.094 1.424-1.637 2.14-.007.009.01.037.024.09.077-.013.158-.026.238-.042.483-.096 1.16-.437 1.41-.238.6.476 1.013 1.195 1.46 1.846.068.098-.05.369-.14.527-.31.545-.645 1.075-1.003 1.664.439 0 .909-.14 1.077.026.508.505.915 1.118 1.318 1.719.06.09-.084.362-.189.509-.44.616-.904 1.217-1.411 1.894 1.303-.253 1.28-.235 2.066.743.327.408.344.728-.008 1.078-.49.487-.533.957.003 1.444.144.13.227.326.363.467.332.343.384.68.003 1.011-.414.362-.36.721-.087 1.155.351.556.64 1.152.953 1.731.02.037.022.084.053.217" fill="#508535"/><path d="M36.044 63.736c-.657.338-1.3.706-1.978.996-.195.083-.56.03-.717-.11-.508-.45-.941-.983-1.43-1.455-.26-.252-.26-.458-.06-.739.324-.46.62-.94.83-1.525-.657.37-1.321.726-1.966 1.114-.314.19-.54.184-.801-.095-.45-.481-.915-.95-1.405-1.39-.316-.282-.295-.514-.079-.844.479-.728.923-1.479 1.275-2.35-.904.464-1.826.895-2.704 1.404-.53.306-.893.298-1.277-.21-.328-.437-.725-.826-1.117-1.21-.266-.26-.304-.485-.08-.797.288-.404.535-.837.707-1.364-.911.504-1.835.988-2.727 1.525-.413.248-.689.234-1.009-.14-.413-.483-.872-.928-1.329-1.372-.24-.234-.244-.425-.025-.672.405-.456.79-.929 1.1-1.509-.972.565-1.963 1.1-2.91 1.706-.482.307-.798.284-1.162-.161-.456-.559-1.313-1.038-1.366-1.61-.057-.61.622-1.289.982-1.935.124-.222.253-.44.273-.773l-1.817 1.117c-.822.505-1.654.999-2.463 1.524-.317.206-.538.194-.79-.092-.363-.411-.73-.826-1.145-1.182-.46-.397-.6-.774-.16-1.266.114-.127.178-.296.345-.585-.34.162-.55.252-.752.359-1.65.87-3.307 1.726-4.943 2.623-.437.24-.688.182-.976-.211-.452-.618-.956-1.199-1.487-1.856.216-.166.393-.315.583-.445 4.33-2.963 8.665-5.918 12.986-8.894.396-.272.653-.305 1.006.055.551.562 1.155 1.072 1.783 1.647l-2.342 3.528.063.105c.17-.091.345-.175.51-.276 1.011-.616 2.028-1.227 3.028-1.861.311-.198.532-.204.797.078.449.481.921.943 1.407 1.387.275.252.31.471.115.797-.43.725-.824 1.473-1.233 2.21l.127.119c.412-.266.827-.528 1.237-.798.806-.53 1.63-1.04 2.409-1.61.415-.303.67-.24.982.127.469.552 1.249 1.003 1.392 1.616.128.549-.424 1.258-.736 2.05.852-.39 1.61-.703 2.333-1.082.47-.246.76-.18 1.122.219 1.237 1.363 1.254 1.347.255 2.882-.21.324-.414.653-.526 1.097.886-.406 1.788-.777 2.648-1.23.509-.268.833-.197 1.17.246.382.504 1.07.931 1.149 1.464.073.493-.483 1.08-.758 1.627a1.24 1.24 0 0 0-.162.685c.66-.316 1.334-.608 1.976-.957.397-.215.667-.19.96.168.43.525 1.195.973 1.274 1.53.078.55-.52 1.198-.823 1.802l-.315.637c.622-.369 1.095-.625 1.541-.92.321-.214.565-.244.857.06.441.458.914.889 1.394 1.306.277.242.328.466.154.8-.279.536-.512 1.097-.828 1.784.289-.114.426-.159.555-.221 1.194-.582 1.132-.515 2.074.35.839.77 1.059 1.525.5 2.514-.096.168-.134.368-.26.726.297-.168.493-.238.638-.367.468-.414.85-.33 1.193.156.037.052.087.1.14.139.835.634 1.337 1.367.723 2.436-.024.042.012.12.036.303.881-.906 1.32-.067 1.915.36.848.61 1.202 1.346.804 2.333.096.053.152.1.166.09.7-.507 1.256-.265 1.837.261.503.455 1.126.778 1.035 1.615-.025.225.08.465.146.81.682-.482 1.29-.63 1.871.054.44.518.958.97 1.555 1.563.418-.272 1.011-.628 1.567-1.034.377-.276.702-.335 1.141-.123.83.402.842.375 1.843 1.926l4.73-3.98 1.915 2.372c-.455.394-.86.754-1.276 1.099-1.388 1.147-2.766 2.307-4.184 3.415-.268.209-.704.2-1.062.29-.02.005-.043-.013-.064-.013-1.175-.003-1.99-.524-2.384-1.657-.028-.08-.09-.151-.141-.222-.025-.034-.065-.058-.097-.086-.925-.027-1.51 1.314-2.542.697-.743-.445-1.828-.562-1.909-1.824-.781.354-1.51.792-2.25.032-.516-.53-1.656-.551-1.302-1.847-.96 1.05-1.62.141-2.407-.162-1.074-.414-1.085-1.196-.804-2.25-.526.289-.871.525-1.251.666-.204.075-.522.069-.694-.043a14.176 14.176 0 0 1-1.62-1.24c-.142-.126-.225-.457-.169-.645.15-.5.39-.976.498-1.59-.465.286-.943.553-1.393.863-.329.227-.568.205-.859-.076a19.956 19.956 0 0 0-1.442-1.252c-.29-.232-.346-.455-.192-.792.231-.508.422-1.033.63-1.552l-.131-.112c-.665.316-1.344.605-1.988.958-.409.225-.671.157-.96-.184a16.77 16.77 0 0 0-1.218-1.297c-.31-.295-.36-.543-.085-.896.323-.411.595-.864.89-1.298l-.09-.133" fill="#508535"/><path d="M86.916 25.581l-1.39-1.317c.45-.581.874-1.132 1.357-1.755l-3.325-2.822 1.485-1.976-4.948-3.862c-.087.022-.138.02-.166.045-.83.721-.829.721-1.792.178-1.088-.615-2.177-1.228-3.326-1.875-.34.488-.681.941-.98 1.422-.22.35-.443.4-.814.221-.65-.316-1.334-.561-1.986-.874-.343-.164-.55-.111-.774.193-.413.562-.864 1.096-1.31 1.654l-.872-.53c-.25.446-.518.863-.72 1.31-.188.412-.429.6-.864.392-.484-.23-.759-.082-.943.417-.164.447-.41.865-.663 1.386-.982-.937-1.467-.052-2.06.549l-3.03-2.054L61 14.773c-1.027-.997.233-1.476.47-2.17.124-.362.21-.332 1.635.202.157-.238.322-.49.49-.74.254-.38.407-.929 1.078-.585.072.037.322-.169.422-.31.265-.375.493-.775.781-1.238.9.357 1.786.707 2.719 1.074.259-.53.513-1.01.731-1.508.144-.328.336-.399.674-.297.986.299 1.988.544 2.968.86.445.145.712.052 1.01-.302.915-1.087.93-1.075 2.148-.34.902.546 1.823 1.06 2.697 1.647.49.33.852.359 1.214-.136.086-.117.228-.194.392-.328l6.497 5.19c.09-.065.17-.103.222-.164.789-.906.787-.906 1.775-.257.549.361 1.099.718 1.715 1.122.29-.47.562-.905.867-1.395l2.376 1.214.816-1.571 5.087 2.325-.642 1.936c.421.236.826.493 1.256.695.418.197.546.437.334.877-.2.413-.324.863-.512 1.284-.155.343-.109.553.252.73.528.259 1.032.57 1.634.907l-3.142 5.925-.966-.454c-.332.456-.693.915-1.01 1.403-.224.345-.438.422-.803.195-.463-.288-.958-.525-1.493-.814-.332.436-.663.842-.961 1.27-.218.313-.43.363-.767.17-.703-.402-1.427-.767-2.18-1.168-.352.455-.686.884-1.044 1.344l.385.57-1.267 1.731-2.419-1.63-1.09 1.35-2.596-2.168 1.196-1.773c-.034-.076-.05-.141-.087-.19-.217-.286-.685-.69-.616-.83.295-.604.724-1.15 1.168-1.66.073-.085.488.062.703.18.402.22.671.176.926-.227.244-.386.555-.728.873-1.138" fill="#000"/><g transform="translate(0 54.169)"><mask id="b" fill="#fff"><use xlink:href="#a"/></mask><path d="M11.107 2.601c-.07.431-.154.773-.175 1.118-.027.445-.176.685-.674.67-.151-.004-.413.197-.445.343A11.177 11.177 0 0 0 9.6 6.36c-.009.135.112.355.232.411.788.37 1.592.707 2.45 1.08.16-.58.316-1.077.432-1.585.094-.415.182-.778.748-.632.095.023.31-.069.322-.134.111-.622.203-1.248.262-1.877.008-.08-.195-.221-.323-.26-.835-.256-1.676-.49-2.617-.762m11.48 1.047c.598.386 1.145.71 1.651 1.087.126.093.207.386.163.549a2028.507 2028.507 0 0 1-3.047 11.259 1.77 1.77 0 0 1-.221.474c-1.628 2.558-3.26 5.114-4.893 7.668-.08.125-.185.233-.335.42-.805-.723-1.609-1.398-2.344-2.14-.157-.16-.135-.575-.085-.852.313-1.724.659-3.444.854-5.241l-2.804 3.952c-.76-.744-1.492-1.432-2.18-2.164-.119-.128-.099-.451-.051-.664.308-1.366.641-2.728.992-4.199L7.774 16.41C4.209 12.237 2.01 7.512 0 2.49l5.75 2.967.098-.11L2.194.165c.341-.025.546-.054.75-.053 3.138.007 6.28-.074 9.412.074 1.28.06 2.542.606 3.8.974.124.036.238.375.225.564-.04.6-.145 1.196-.224 1.793l.158.075c.48-.525.978-1.036 1.435-1.58.268-.318.488-.32.837-.118 1.427.833 1.43.82 1.415 2.475-.01.978-.002 1.955-.002 3.042l2.588-3.764" fill="#57585D" mask="url(#b)"/></g><path d="M75.735 83.043l1.1 1.915c-.778.41-1.483.806-2.213 1.15-.163.077-.426.02-.613-.05-.55-.207-1.086-.453-1.703-.716-.145.623-.244 1.182-.416 1.718-.07.218-.257.462-.456.563-.605.306-1.25.532-1.865.822-.347.164-.562.066-.786-.21-.343-.425-.717-.825-1.165-1.334-.259.657-.525 1.221-.7 1.813-.156.534-.47.773-.996.89-1.015.227-2.018.513-3.154.81.437-1.628.697-3.16 1.265-4.568.675-1.67.412-2.962-.91-4.125-.34-.298-.58-.71-.922-1.137.588-.499 1.138-.99 1.721-1.439.118-.09.377-.063.543-.008.39.129.765.306 1.304.528 0-.605-.023-1.098.005-1.588.058-1.014.894-1.561 1.43-2.284.052-.072.331-.009.49.04.414.127.82.281 1.33.459-.05-.853-.134-1.615-.12-2.374.007-.332.138-.727.352-.975.74-.863 1.542-1.674 2.32-2.504l.239.118c.057.263.125.524.17.789.414 2.447.847 4.89 1.217 7.344.099.655.36.91 1.006 1.012 2.62.412 5.23.88 7.843 1.331.12.021.236.06.521.132-1.204.85-2.277 1.632-3.384 2.361-.178.118-.512.034-.765-.007-.856-.14-1.71-.3-2.688-.476" fill="#57585D"/><path d="M76.758 50.53c-.473.286-.868.48-1.21.742-.433.331-.77.34-1.084-.14-.118-.181-.28-.334-.45-.533l-1.355.95-2.05-2.553 1.271-.953c.67.415.836.367 1.815-.505l-.353-.75 1.617-1.196c.735.618.735.616 1.596.183.426-.213.856-.42 1.27-.623.851.96.85.958 2.088.47.2-.08.404-.148.712-.26l.838 2.574c.438-.12.855-.217 1.26-.35.36-.12.564-.083.652.348.154.752.35 1.495.558 2.234.099.348.04.526-.335.613-.597.14-1.183.321-1.774.483-.084.023-.211.078-.253.042-.642-.558-1.209 0-1.788.139-.355.084-.556.063-.764-.26-.09-.14-.425-.278-.55-.216-.695.338-1.351.687-1.71-.438m8.529-4.345c-.596-.268-1.141-.484-1.652-.765-.116-.063-.205-.403-.14-.53.778-1.54.682-3.083.261-4.71-.129-.497.16-1.418.559-1.675 1.18-.76 1.783-1.896 2.447-3.023.198-.337.408-.666.653-1.066l1.844 1.001c-.841 1.44-.99 3.233-2.572 4.172-.463.276-.633.624-.405 1.133.632 1.407.482 2.743-.328 4.044-.262.42-.427.9-.667 1.419" fill="#000"/><path d="M173.517 27.357c.26-.05.52-.144.779-.145 3.072-.01 6.144-.016 9.215.007.385.003.77.18 1.154.277l.016.276c-.46.134-.911.327-1.38.39-1.192.156-1.79.628-1.847 1.831a297.425 297.425 0 0 0-.262 8.5c-.12 6.286-.212 12.572-.32 18.859-.008.44-.031.88-.096 1.314-.104.708-.526.987-1.165.685a5.244 5.244 0 0 1-1.38-.977c-7.1-6.906-14.21-13.804-20.866-21.15-.172-.189-.311-.406-.465-.61l-.202.13c0 .21-.006.42 0 .629.175 5.866.343 11.733.535 17.598.02.632.136 1.27.284 1.887.272 1.131.756 1.499 1.925 1.64.537.066 1.07.175 1.595.301.146.035.26.204.39.311l.01.224c-.396.078-.793.223-1.19.222-2.302-.01-4.604-.062-6.907-.08-.701-.005-1.406.1-2.103.065-.473-.024-.938-.205-1.407-.315l-.017-.285c.345-.138.68-.317 1.037-.402.358-.086.74-.078 1.11-.111.682-.061 1.105-.458 1.225-1.1.14-.753.256-1.522.272-2.285.112-5.693.198-11.387.29-17.08.048-3.077.085-6.155.143-9.232.01-.562-.045-1.315.581-1.464.37-.087.973.315 1.307.657 6.229 6.381 12.42 12.798 18.652 19.177 1.178 1.206 2.49 2.28 3.74 3.415l-.072.202c0-.22.005-.442 0-.662-.134-6.066-.263-12.132-.412-18.199a11.855 11.855 0 0 0-.224-2.025c-.216-1.07-.747-1.518-1.84-1.658-.37-.048-.751-.032-1.111-.114-.357-.082-.693-.252-1.039-.383.016-.106.03-.213.045-.32M147.56 52.711c.104.408.328.826.29 1.221a63.293 63.293 0 0 1-.568 4.437c-.13.793-.533 1.085-1.344 1.074-4.125-.052-8.248-.151-12.373-.182-1.906-.015-3.813.074-5.72.141-.588.02-1.137.004-1.672-.605.386-.158.715-.382 1.064-.419 1.805-.193 2.211-.547 2.28-2.37.111-2.964.214-5.931.224-8.897.018-5.408-.035-10.817-.06-16.226 0-.22-.006-.44-.02-.659-.088-1.414-.835-2.085-2.447-2.19-.63-.04-1.282-.004-1.83-.776.457-.072.815-.18 1.173-.179 4.585.013 9.171.077 13.758.047 1.965-.014 3.931-.2 5.894-.349.516-.04.644.193.606.6a208 208 0 0 1-.526 5.11c-.035.3-.26.577-.398.864l-.246.015c-.139-.48-.311-.953-.411-1.44-.265-1.302-.742-1.833-2.063-2.017-1.018-.14-2.05-.202-3.078-.244-1.272-.052-2.546-.035-3.817-.073-.561-.017-.795.205-.793.772.011 3.232.007 6.464.004 9.696-.001.565.216.838.828.823 1.908-.046 3.817-.047 5.726-.077 1.342-.022 2.713.034 3.808-1.374.14.477.31.762.29 1.032a156.618 156.618 0 0 1-.464 5.25c-.045.417-.253.813-.387 1.22l-.19.025c-.113-.182-.262-.352-.33-.55-.07-.203-.074-.432-.088-.651-.098-1.453-.745-2.172-2.209-2.259-2.101-.122-4.208-.165-6.313-.247-.547-.021-.667.319-.668.762-.004 1.275-.003 2.55-.003 3.825 0 1.825-.011 3.65.004 5.475.02 2.277.907 3.308 3.164 3.446 1.678.103 3.374.097 5.05-.025 1.876-.136 2.643-.93 3.098-2.773.109-.439.312-.854.472-1.28.095.01.19.018.286.027M198.74 35.7c-.13.205-.188.272-.217.35-1.278 3.36-2.552 6.722-3.833 10.082-.213.561.128.582.524.582 2.278-.003 4.557.002 6.836-.003.69 0 .739-.072.5-.721-.972-2.633-1.948-5.265-2.922-7.896l-.889-2.394m-16.013 23.151c.295-.12.593-.35.885-.344 1.862.043 3.003-.942 3.688-2.552 1.168-2.748 2.306-5.509 3.448-8.268 2.55-6.166 5.094-12.337 7.647-18.503.21-.506.427-1.016.706-1.484.439-.736 1.085-.729 1.544.005.219.35.389.738.547 1.123 3.387 8.22 6.758 16.448 10.164 24.66.478 1.15 1.077 2.257 1.697 3.339.636 1.11 1.634 1.686 2.941 1.656.044 0 .097-.013.13.007.332.198.659.401.988.603-.325.12-.648.34-.973.342-2.83.019-5.66.007-8.49-.02-.482-.005-.962-.128-1.591-.217.237-.274.349-.397.452-.527.397-.5.603-.99.328-1.675a288.578 288.578 0 0 1-2.738-7.132c-.218-.588-.56-.819-1.174-.815-2.852.017-5.703.015-8.556.001-.517-.002-.873.144-1.072.663-.701 1.824-1.443 3.632-2.128 5.461-.222.59-.351 1.223-.455 1.848-.157.936.255 1.412 1.208 1.465.54.03 1.115-.062 1.586.62-.387.124-.731.327-1.077.33-2.85.027-5.7.028-8.549.002-.38-.003-.757-.195-1.137-.3l-.02-.288m117.57-23.111c-.137.259-.21.367-.255.486-1.26 3.28-2.512 6.561-3.779 9.837-.211.546.024.655.504.653 2.238-.008 4.475-.001 6.714-.003.842-.001.896-.077.604-.864-1.16-3.128-2.324-6.256-3.487-9.384-.074-.198-.162-.392-.301-.724m7.424 23.388c.184-.222.296-.347.398-.48.39-.511.578-1.014.305-1.695a324.456 324.456 0 0 1-2.724-7.136c-.199-.531-.52-.766-1.078-.764-2.917.006-5.835-.012-8.752.026-.295.004-.746.259-.856.513a177.825 177.825 0 0 0-2.35 5.797c-.18.466-.29.971-.351 1.469-.152 1.233.18 1.572 1.414 1.65.446.028.885.19 1.327.291l.012.316c-.327.113-.654.32-.983.322-2.893.026-5.787.027-8.681.001-.357-.003-.713-.21-1.07-.322l-.015-.266c.297-.12.597-.349.893-.345 1.856.026 2.992-.953 3.675-2.572a1669.5 1669.5 0 0 0 4.165-9.965c2.319-5.597 4.622-11.201 6.942-16.8a10.97 10.97 0 0 1 .787-1.589c.354-.57.971-.574 1.338-.009.284.438.507.925.706 1.41 3.345 8.12 6.669 16.246 10.03 24.358.494 1.192 1.11 2.34 1.753 3.459.648 1.127 1.66 1.718 2.995 1.692.211-.004.456.028.628.136.181.114.294.338.437.515-.203.099-.407.287-.61.286-3.2-.017-6.402-.055-9.602-.102-.216-.003-.43-.112-.733-.196m-24.402-8.151c.536.509.702.904.61 1.444-.257 1.514-.478 3.034-.7 4.554-.128.88-.595 1.487-1.464 1.651-1.567.296-3.138.65-4.723.753-3.67.24-7.336.112-10.855-1.126-5.898-2.072-9.69-6.046-10.7-12.353-1.394-8.691 3.503-16.928 13.393-18.424 3.877-.587 7.739-.346 11.586.32.82.142 1.645.259 2.462.42.793.156.978.416.942 1.223-.087 1.953-.162 3.908-.276 5.86-.025.424-.196.84-.299 1.259l-.303.011c-.15-.385-.398-.762-.439-1.16-.231-2.3-1.417-3.937-3.507-4.79-3.78-1.545-7.665-1.65-11.494-.244-2.366.868-3.955 2.723-4.822 5.049-1.683 4.51-1.82 9.1.117 13.555 1.895 4.36 5.305 6.988 10.017 7.724 1.906.298 3.862.214 5.755-.25 2.34-.574 3.664-2.192 4.317-4.442.093-.315.227-.616.383-1.034m-47.603-16.317c-.15-.346-.373-.679-.442-1.04-.458-2.426-2.223-4.044-4.703-4.244-1.212-.099-2.41-.027-3.563.418-3.257 1.26-4.005 4.928-1.397 7.256 1.053.94 2.331 1.626 3.502 2.434 1.658 1.144 3.445 2.143 4.939 3.472 3.05 2.713 3.94 6.216 2.696 10.069-1.063 3.29-3.491 5.374-6.864 6.084-3.1.653-6.236.519-9.318-.306-.043-.01-.086-.018-.128-.032-1.66-.519-1.804-.682-1.758-2.416.046-1.67.135-3.337.24-5.004.02-.315.201-.622.307-.932l.25-.016c.144.292.329.572.42.879.104.355.106.738.186 1.102.61 2.8 2.41 4.398 5.317 4.776 1.236.16 2.448.152 3.638-.258 3.37-1.16 4.642-5.446 2.304-8.145-.9-1.04-2.118-1.822-3.253-2.634-1.657-1.186-3.447-2.195-5.04-3.457-2.136-1.692-3.393-3.922-3.482-6.738-.102-3.202 1.328-5.52 4-7.134 2.011-1.215 4.24-1.707 6.553-1.621 1.788.066 3.572.335 5.35.571.757.1.985.54.947 1.303-.077 1.558-.108 3.118-.183 4.676-.015.306-.15.605-.229.908l-.289.029M104.885 50.41c.144.39.379.773.419 1.174.326 3.225 2.184 5.206 5.408 5.546 1.071.113 2.215.116 3.252-.137 3.63-.883 5.136-5.379 2.716-8.237-.913-1.08-2.185-1.875-3.356-2.711-1.622-1.159-3.393-2.123-4.938-3.37-2.645-2.136-3.868-4.96-3.352-8.394.425-2.833 2.174-4.675 4.65-5.905 2.574-1.279 5.32-1.366 8.103-1.099 1 .097 1.995.275 2.985.459.757.139 1.005.535.98 1.299-.046 1.428-.045 2.857-.108 4.284-.02.449-.181.893-.278 1.338l-.288.024c-.165-.333-.412-.65-.484-1-.505-2.507-2.051-4-4.576-4.287-1.295-.148-2.575-.041-3.815.45-3.446 1.367-3.566 5.266-1.33 7.163 1.047.888 2.218 1.647 3.4 2.352 1.773 1.06 3.56 2.082 5.083 3.504 3.344 3.12 4.262 8.047 2.054 11.713-1.656 2.75-4.103 4.416-7.349 4.741-2.743.275-5.474.244-8.157-.51-.021-.005-.043-.009-.064-.015-1.74-.528-1.895-.698-1.842-2.489.049-1.668.153-3.336.265-5.002.02-.298.196-.585.3-.876.108-.004.214-.01.322-.015m149.227 8.709c-.4.112-.8.318-1.202.32a808.21 808.21 0 0 1-11.12-.001c-.399-.003-.796-.218-1.194-.334a36.717 36.717 0 0 1-.005-.277c.33-.116.655-.311.992-.336 1.715-.124 2.168-.515 2.224-2.257.094-3.03.168-6.064.18-9.096.021-5.364-.01-10.729-.022-16.093 0-.33.002-.661-.038-.987-.145-1.199-.71-1.749-1.912-1.875-.593-.063-1.177-.131-1.613-.773.22-.084.4-.202.588-.214.48-.031.963-.016 1.445-.017 3.116-.006 6.231-.022 9.346-.007.413.002.826.154 1.24.237l.03.291c-.447.157-.885.385-1.346.456-1.435.22-1.796.501-1.954 1.922-.106.958-.108 1.93-.108 2.896-.005 6.772-.008 13.543.019 20.314.005 1.204.107 2.413.249 3.61.11.922.595 1.326 1.528 1.441.543.068 1.096.063 1.634.152.359.059.7.227 1.048.346l-.009.282m18.17 27.364l-.001 5.461c0 .04-.028.08-.048.136-.047.023-.102.07-.162.075-1.38.126-1.38.126-1.38-1.244 0-2.065.016-4.13-.012-6.196-.007-.557.19-.708.721-.713 1.798-.014 1.798-.032 2.267 1.715.296 1.102.59 2.204.889 3.305.008.03.06.049.156.12.366-1.375.727-2.72 1.08-4.066.281-1.063.278-1.064 1.378-1.065 1.43 0 1.43 0 1.43 1.432l-.001 5.866c-.001.87-.003.87-.858.867h-.753v-5.688l-.087-.015c-.395 1.566-.79 3.132-1.183 4.699-.245.978-.723 1.28-1.665.973-.163-.052-.305-.336-.359-.54-.407-1.549-.79-3.103-1.182-4.655-.042-.163-.092-.322-.138-.482l-.092.015m-34.803-.973c-.316 1.91-.279 1.955 1.533 1.899.219-.006.437-.02.654-.028.58-.023.889-.337.914-.903.024-.572-.278-.93-.846-.957-.736-.037-1.475-.01-2.255-.01m5.384 6.66c-.54 0-1.084.03-1.62-.018-.174-.015-.37-.205-.487-.366-.496-.696-.957-1.419-1.453-2.115-.176-.245-.382-.497-.632-.655-.758-.477-1.267-.184-1.268.696-.001.636-.022 1.274.006 1.91.019.438-.155.569-.576.559-1.332-.03-1.156.13-1.162-1.16-.01-2.108.01-4.216-.012-6.325-.005-.508.153-.707.672-.69 1.248.04 2.498.031 3.747.069 1.31.038 2.073.704 2.266 1.936.175 1.106-.387 2.013-1.523 2.46-.1.04-.197.082-.226.094l2.388 3.404-.12.2m68.882-6.658c-.324 1.9-.28 1.953 1.532 1.897.218-.006.437-.02.655-.028.582-.018.902-.343.928-.9.025-.561-.279-.933-.852-.96-.74-.035-1.48-.009-2.263-.009m3.122 3.051l2.518 3.606c-.785 0-1.348.03-1.903-.019-.17-.015-.356-.225-.473-.39a65.255 65.255 0 0 1-1.485-2.172c-.428-.657-1.013-.855-1.857-.672 0 .833-.033 1.683.012 2.529.03.572-.135.77-.728.745-1.01-.043-1.012-.007-1.012-.992 0-2.15.013-4.302-.01-6.453-.006-.52.113-.75.686-.726 1.247.051 2.497.023 3.744.057 1.298.036 2.076.723 2.264 1.943.168 1.097-.404 2.01-1.537 2.454-.099.039-.197.081-.219.09M129.307 72.87c0 .498-.042.961.02 1.41.025.175.277.443.439.453.63.038 1.265.005 1.897-.03.558-.031.819-.398.829-.916.009-.49-.227-.88-.751-.907-.778-.041-1.559-.01-2.434-.01m5.453 6.637c-.52 0-1.045.035-1.56-.018-.195-.02-.418-.208-.544-.382-.49-.673-.938-1.377-1.417-2.059-.162-.231-.33-.527-.564-.623-.365-.148-.792-.195-1.188-.175-.074.004-.162.52-.174.804a17.595 17.595 0 0 0 0 1.843c.032.51-.173.638-.647.622-1.193-.042-1.088.14-1.092-1.102-.005-2.042-.002-4.083 0-6.124 0-.92.002-.924.947-.92 1.095.005 2.191.008 3.285.033 1.455.03 2.215.632 2.436 1.894.205 1.168-.352 2.023-1.657 2.552-.059.024-.108.07-.078.05l2.38 3.409-.127.196m-41.866 7.841v4.795h-1.516v-8.016c1.161-.316 1.526-.183 2.111.772.858 1.4 1.714 2.8 2.696 4.175v-5.048c.467 0 .86-.039 1.24.02.142.02.357.267.358.412.022 2.44.017 4.878.008 7.317 0 .116-.056.274-.142.341-.339.262-1.6.001-1.832-.371-.914-1.471-1.823-2.946-2.733-4.42l-.19.023M292.53 84.18c.083-.06.1-.079.119-.084 1.308-.309 1.494-.167 1.494 1.136 0 2.066-.017 4.134.011 6.2.007.557-.127.743-.724.77-.76.034-1.185-.23-1.555-.882a37.79 37.79 0 0 0-2.613-3.991v3.518c0 1.498-.002 1.499-1.558 1.254v-7.944c1.073-.372 1.551-.206 2.132.747.744 1.22 1.488 2.438 2.235 3.655.108.177.233.345.46.677V84.18zm-26.31-4.798c-.011-.145-.04-.337-.04-.529-.003-2.263.015-4.528-.013-6.792-.007-.557.18-.679.71-.711.71-.045 1.108.207 1.457.82a45.355 45.355 0 0 0 2.725 4.233v-4.179c0-.767.674-1.173 1.383-.807.115.058.21.279.21.425.014 2.396.02 4.792-.008 7.187-.002.162-.263.429-.437.46-.81.147-1.424-.025-1.858-.887-.6-1.193-1.38-2.294-2.086-3.432a1.322 1.322 0 0 0-.482-.494V78.2c0 1.458-.027 1.483-1.468 1.27-.018-.003-.032-.029-.093-.087m-55.704-3.053c0-1.43.03-2.857-.014-4.284-.02-.662.318-.695.813-.681.458.012.839-.044.827.653-.04 2.308-.015 4.617-.017 6.926 0 .15-.023.3-.035.443-1.202.357-1.615.209-2.226-.783-.716-1.16-1.428-2.319-2.145-3.477a1.29 1.29 0 0 0-.47-.48c0 1.376.01 2.751-.008 4.126-.003.236-.09.659-.188.674-.423.065-.866.03-1.296-.022-.059-.007-.115-.308-.116-.474-.008-2.33.004-4.66-.013-6.99-.004-.475.19-.568.622-.605.734-.062 1.198.143 1.579.834.79 1.434 1.695 2.804 2.552 4.201l.135-.062m-39.608-1.727l-.001 4.675c0 .04-.027.081-.045.137-.047.023-.103.072-.16.074-1.714.063-1.357.1-1.372-1.249-.024-1.998-.017-3.997.006-5.994.003-.286.09-.723.28-.825.508-.273 1.402-.016 1.638.37.818 1.325 1.627 2.656 2.44 3.985.113.181.237.356.46.691.03-.374.058-.575.059-.775.004-1.23.032-2.461-.009-3.69-.022-.705.408-.619.854-.635.47-.017.772.022.764.647-.033 2.457-.013 4.916-.013 7.357-1.179.385-1.64.219-2.247-.766l-2.513-4.067-.14.065m63.215 11.718c-.48.1-.902.217-1.33.26-.142.014-.352-.13-.446-.262-.597-.85-1.28-1.112-2.339-.863-.822.195-1.44.901-1.54 1.85a6.32 6.32 0 0 0 .006 1.512c.253 1.851 2.224 2.665 3.74 1.533.196-.147.236-.562.25-.857.002-.077-.36-.189-.565-.251-.121-.037-.262-.007-.393-.008-.864-.005-.866-.027-.859-.89.003-.416.13-.594.567-.582a41.12 41.12 0 0 0 2.5 0c.455-.015.555.188.542.592-.023.703-.04 1.409.005 2.109.035.522-.2.81-.612 1.049-1.099.637-2.275.91-3.535.773-1.872-.206-3.229-1.566-3.409-3.452-.056-.585-.068-1.198.039-1.772.51-2.747 3.676-4.127 6.077-2.672.687.417 1.127 1.02 1.302 1.93m-104.742-.824c-.035.12-.066.181-.067.243-.006 1.117-.01 2.234-.012 3.352-.001 1.741 0 1.741 1.731 1.608.887-.068 1.32-.43 1.496-1.285.07-.342.115-.693.131-1.042.101-2.268-.543-2.937-2.788-2.911-.15.002-.301.02-.49.035m.43-1.447c.35 0 .702-.012 1.052.002 2.139.077 3.133.952 3.49 3.085.17 1.013.109 2.012-.258 2.982-.49 1.292-1.45 1.963-2.798 2.035-1.072.056-2.149.009-3.223.028-.367.006-.51-.133-.51-.499.008-2.395-.004-4.79.025-7.184.002-.161.279-.439.448-.456.587-.056 1.182-.021 1.774-.021v.028m79.816 1.361v3.674c0 1.76-.001 1.747 1.794 1.618.727-.053 1.293-.388 1.373-1.087.11-.965.127-1.965-.008-2.923-.056-.396-.554-.901-.958-1.035-.658-.218-1.404-.174-2.201-.247zm-1.72 2.722c0-1.077-.002-2.153 0-3.23.002-.883.003-.89.854-.887.834.003 1.667.01 2.499.038 2.035.07 3.038.927 3.407 2.944.192 1.05.16 2.1-.226 3.114-.489 1.288-1.446 1.969-2.795 2.041-1.071.057-2.148.006-3.222.031-.425.01-.52-.192-.518-.558.008-1.165.003-2.329.003-3.493h-.002zm-59.005-.009l.058-.007c-.074-.496-.109-1.001-.233-1.483-.14-.542-.505-.944-1.071-1.04a8.71 8.71 0 0 0-1.63-.11c-.147.003-.412.262-.415.408-.03 1.466-.028 2.935 0 4.401.003.144.238.404.369.407 1.808.04 2.877.215 2.922-2.313v-.263m-4.993 3.99v-7.976c1.46 0 2.886-.09 4.293.029 1.097.092 1.78.905 2.15 1.908a5.808 5.808 0 0 1 .077 3.873c-.39 1.206-1.2 2.043-2.484 2.143-1.321.103-2.656.023-4.036.023m52.789-4.001c.003-2.12-.567-2.68-2.693-2.651-.065 0-.155-.027-.193.005-.15.135-.406.286-.409.435-.031 1.445-.031 2.89 0 4.337.003.162.245.456.382.459 1.832.041 2.88.218 2.914-2.388v-.197zm-4.986-4.157c1.509.078 2.996.074 4.46.257 1.013.126 1.628.923 1.97 1.85a5.83 5.83 0 0 1 .06 3.935c-.411 1.241-1.28 2.025-2.58 2.121-1.28.095-2.573.021-3.91.021v-8.184zm-86.484 4.328c-.036-.49-.036-.8-.086-1.103-.16-.984-.805-1.642-1.697-1.759-1.077-.14-1.927.25-2.293 1.13-.42 1.015-.437 2.067.007 3.076.372.85 1.079 1.232 2.012 1.192.888-.038 1.499-.489 1.8-1.3.166-.442.199-.936.257-1.236m-2.22-4.382c2.447-.022 3.999 1.61 4.003 4.208.004 2.544-1.506 4.182-3.871 4.199-2.493.016-4.025-1.525-4.04-4.07-.017-2.734 1.409-4.316 3.908-4.337m60.253-8.453c-.044-.339-.064-.67-.134-.988-.273-1.224-1.04-1.802-2.259-1.724-1.078.069-1.822.803-1.932 1.964-.047.5-.05 1.014.007 1.512.133 1.133.937 1.896 1.976 1.938 1.169.048 1.922-.54 2.196-1.735.073-.318.1-.648.146-.967m1.721.024c.007 3.03-2.213 4.78-5.114 4.037-1.777-.455-2.877-2.052-2.755-4.127.041-.689.153-1.416.427-2.041.738-1.693 2.47-2.434 4.472-2.03 1.695.341 2.86 1.742 2.968 3.568.012.197.002.395.002.593m37.696.102c-.043-.486-.049-.796-.101-1.098-.166-.95-.805-1.6-1.663-1.718-1.078-.147-1.941.235-2.308 1.104-.438 1.035-.456 2.107.014 3.135.375.82 1.063 1.188 1.968 1.157.888-.03 1.51-.467 1.817-1.276.175-.463.209-.98.273-1.304m-2.22 4.069c-2.435-.006-3.928-1.606-3.92-4.198.009-2.634 1.504-4.217 3.978-4.21 2.41.009 3.934 1.634 3.94 4.207.007 2.593-1.53 4.207-3.999 4.2m49.181 8.428c-.044-.325-.061-.655-.134-.973-.268-1.167-1.003-1.74-2.149-1.703-1.099.035-1.869.714-2.023 1.87a6.382 6.382 0 0 0 0 1.642c.15 1.145.95 1.875 2 1.91 1.156.041 1.897-.552 2.175-1.763.073-.318.087-.65.13-.983m-6.135.008c.034-2.167 1.02-3.61 2.772-4.056 2.8-.713 5.05 1.001 5.093 3.887.007.415.009.84-.068 1.247-.421 2.227-2.127 3.404-4.5 3.133-2.064-.235-3.335-1.86-3.297-4.21m35.63-15.329v3.693c0 1.735 0 1.735 1.762 1.587.832-.069 1.317-.386 1.42-1.198.111-.88.102-1.791.017-2.678-.059-.614-.47-1.116-1.128-1.226-.64-.107-1.297-.117-2.071-.178m-1.737 2.711c0-1.164.016-2.327-.007-3.49-.009-.463.166-.618.616-.604.984.029 1.971.004 2.957.032 1.65.048 2.645.834 3.082 2.435.327 1.193.321 2.387-.102 3.561-.475 1.323-1.444 2.02-2.821 2.092-1.071.056-2.147.006-3.22.03-.43.01-.512-.2-.509-.564.012-1.164.004-2.328.004-3.492m-43.96-.07v1.251c0 1.481 0 1.481 1.501 1.405 1.198-.061 1.644-.48 1.773-1.67.021-.196.048-.393.052-.59.072-2.666-.659-3.01-2.76-2.993-.021.001-.044.003-.066 0-.364-.04-.512.118-.503.49.017.702.005 1.404.003 2.107m-1.735.05c0-1.143.018-2.285-.01-3.425-.01-.48.135-.67.634-.651.985.037 1.972.005 2.957.034 1.609.047 2.622.838 3.05 2.391.335 1.212.338 2.428-.098 3.624-.473 1.294-1.422 1.99-2.77 2.069-1.092.064-2.19.008-3.285.033-.453.01-.484-.242-.482-.585.008-1.163.004-2.327.004-3.49m63.708-.017c0 .701-.024 1.403.016 2.102.011.18.22.493.348.498 1.834.069 2.903.203 2.956-2.268.002-.088.006-.176.007-.263.01-2.182-.619-2.783-2.783-2.707-.39.015-.556.142-.549.536.013.7.004 1.401.005 2.102m-1.712 4.047v-4.349c0-1.011.036-2.024-.013-3.033-.03-.602.192-.755.753-.726.897.045 1.798.005 2.697.032 1.835.054 2.943.907 3.228 2.734a8.6 8.6 0 0 1-.103 3.055c-.279 1.317-1.225 2.16-2.59 2.266-1.281.1-2.577.021-3.972.021m-7.872 7.697v1.423h-4.003c0 .655-.038 1.224.027 1.78.016.14.363.333.564.34a52.48 52.48 0 0 0 3.288.008c.61-.02.657.3.662.779.004.49-.117.701-.665.691-1.816-.033-3.634-.012-5.509-.012v-8.164h5.062c.977.002 1.004.03.93.998-.009.127-.05.253-.09.448h-3.285c-.995 0-.995 0-.994.866.001.843.001.843 1.031.843h2.982zm-159.58-7.657h-.888c-1.58 0-3.16-.007-4.74.005-.37.003-.568-.084-.566-.508.013-2.374.01-4.75.003-7.124 0-.36.13-.515.5-.513 1.712.01 3.424.01 5.136.003.59-.003.432.43.445.75.013.321.08.682-.454.672-1.03-.017-2.063-.003-3.094-.003h-.66c-.067.12-.1.155-.106.194-.194 1.515-.194 1.515 1.309 1.516.724 0 1.449.02 2.172-.002.638-.019.533.418.55.807.02.405-.05.663-.562.65-1.135-.031-2.271-.01-3.367-.01-.06.109-.097.144-.1.183-.171 1.93-.171 1.93 1.747 1.93.615 0 1.23 0 1.843.002.879.003.88.004.866.86-.003.154-.018.307-.034.588m-14.078-2.66c.391-.057.714-.098 1.035-.154.407-.07.609.068.764.487.363.978 1.812 1.346 2.661.727.613-.447.554-1.238-.151-1.505-.654-.246-1.346-.386-2.013-.598-1.417-.45-2.183-1.427-2.016-2.542.18-1.205 1.132-1.97 2.623-2a6.269 6.269 0 0 1 1.931.254c.408.125.831.453 1.067.81.242.367.264.878.382 1.327-.45.052-.899.134-1.348.134-.122 0-.308-.227-.357-.385-.3-.954-1.912-.903-2.452-.427-.353.312-.224.832.299 1.037.568.222 1.17.36 1.754.543.334.105.672.203.992.341.968.42 1.452 1.17 1.432 2.226-.018 1.048-.512 1.823-1.473 2.215-1.138.463-2.32.46-3.463.008-1.067-.424-1.525-1.316-1.667-2.498m127.688 2.657V75.79c0-1.273.01-2.547-.005-3.82-.005-.394.075-.608.536-.603 1.664.02 3.33.023 4.995-.001.583-.01.547.344.555.731.008.412-.012.726-.578.706-1.028-.035-2.06.02-3.088-.02-.564-.024-.757.186-.691.718.018.151.014.307.002.46-.028.4.165.548.548.542.833-.01 1.665-.002 2.499 0 1.013.002 1.014.003.963 1.027-.005.106-.028.212-.057.42-1.048 0-2.094.047-3.134-.017-.695-.045-.857.204-.831.85.057 1.417-.152 1.266 1.268 1.278.92.008 1.84.014 2.761.004.555-.005.497.383.478.73-.016.293.146.713-.405.713h-5.816m10.252-2.651l.812-.14c.495-.09.825-.037 1.039.56.337.942 1.932 1.23 2.694.564.535-.467.457-1.15-.205-1.417-.525-.212-1.093-.311-1.632-.495-.475-.161-.968-.313-1.393-.568-.732-.44-1.088-1.133-1.027-2 .06-.84.503-1.463 1.26-1.79 1.16-.503 2.358-.48 3.515.016.709.304 1.097.915 1.271 1.665.078.334-.03.514-.375.524-.597.016-1.207.261-1.555-.61-.273-.683-1.883-.703-2.339-.116-.315.406-.11.734.265.909.432.203.908.313 1.365.462.5.163 1.01.296 1.496.49.935.377 1.403 1.122 1.423 2.104.02.996-.394 1.823-1.326 2.247-1.258.572-2.564.582-3.817-.011-.955-.452-1.345-1.315-1.47-2.394M139.963 88.862l-1.027-2.787-1.012 2.787h2.039zm3.08 3.31c-.556 0-1.038.04-1.507-.021-.174-.022-.424-.266-.456-.442-.222-1.216-.948-1.481-2.097-1.4-1.533.11-1.524.034-2.128 1.413-.088.2-.375.395-.597.434-.4.07-.822.02-1.325.02.097-.29.157-.494.234-.692.886-2.29 1.793-4.57 2.648-6.87.197-.527.509-.643.99-.603.494.04 1.01-.149 1.282.569.883 2.336 1.839 4.645 2.763 6.967.07.175.113.362.193.625zM324.507 86.3l-.15-.022c-.306.84-.614 1.68-.948 2.593h2.044l-.946-2.571m-4.117 5.875a7402.2 7402.2 0 0 0 1.454-3.75c.509-1.311 1.033-2.614 1.513-3.934.156-.431.44-.529.812-.47.453.07 1.046-.286 1.318.394a4920.92 4920.92 0 0 1 2.973 7.465c.022.057.01.127.02.29-.507 0-1.005.04-1.489-.023-.17-.022-.363-.279-.447-.471-.575-1.336-.567-1.34-2.046-1.34h-.065c-1.508 0-1.52-.004-2.058 1.38-.133.344-.309.489-.674.466-.39-.026-.784-.007-1.311-.007M202 88.848h2.03c-.34-.914-.65-1.74-.959-2.565l-.153.015-.918 2.55m-3.017 3.327c.209-.56.363-.989.528-1.413.81-2.088 1.633-4.17 2.423-6.266.16-.423.43-.535.805-.476.456.071 1.055-.285 1.323.387.996 2.487 1.982 4.976 2.97 7.467.022.057.02.125.044.297-.515 0-1.011.04-1.494-.023-.172-.021-.373-.268-.455-.457-.584-1.351-.575-1.354-2.036-1.354h-.131c-1.47 0-1.482-.005-2.004 1.366-.128.337-.287.505-.662.479-.39-.027-.783-.007-1.31-.007m24.044-3.298l-.973-2.586-.152.01-.92 2.576h2.045zm3.054 3.291c-.555 0-1.057.042-1.544-.022-.167-.023-.354-.289-.437-.484-.565-1.322-.557-1.325-1.99-1.325h-.197c-1.447 0-1.458-.004-1.96 1.331-.134.356-.297.551-.707.515-.387-.035-.779-.008-1.256-.008.095-.291.153-.497.23-.695.888-2.293 1.798-4.578 2.654-6.882.2-.542.535-.625 1.002-.585.468.042.976-.164 1.24.533.899 2.359 1.864 4.693 2.8 7.037.063.159.094.329.165.585zm79.969-3.304l-1.03-2.792-1.008 2.792h2.038zm3.093 3.308c-.565 0-1.049.04-1.52-.021-.173-.023-.382-.254-.465-.439-.605-1.371-.597-1.375-2.09-1.375-1.529 0-1.514.006-2.129 1.397-.087.197-.381.383-.606.422-.398.068-.817.019-1.317.019.1-.301.159-.507.236-.707.881-2.272 1.782-4.536 2.636-6.818.189-.506.462-.696.969-.639.509.057 1.046-.146 1.327.61.86 2.302 1.809 4.573 2.72 6.857.079.198.14.403.24.694zm-54.359-3.32h2.03l-1.03-2.779-1 2.78m5.099 3.288c-.201.016-.309.03-.417.033-1.35.039-1.37.046-1.834-1.234-.171-.47-.412-.647-.91-.614-.654.043-1.314.034-1.97.002-.401-.019-.577.142-.714.505-.546 1.451-.557 1.447-2.074 1.321-.02 0-.038-.02-.126-.068.043-.156.076-.338.142-.508.902-2.33 1.831-4.65 2.699-6.993.206-.556.553-.605 1.01-.57.469.033.969-.16 1.233.538.892 2.356 1.855 4.687 2.789 7.028.063.158.101.326.172.56m-84.17-3.293h2.03l-1.034-2.763-.996 2.763m5.08 3.319c-.55 0-1.05.042-1.536-.024-.166-.022-.348-.293-.432-.49-.56-1.313-.551-1.316-1.993-1.316h-.065c-1.54 0-1.525.005-2.134 1.387-.088.2-.376.393-.6.432-.399.069-.82.02-1.304.02.082-.269.127-.456.196-.634.902-2.334 1.817-4.662 2.702-7.002.163-.433.426-.592.84-.522.47.079 1.06-.263 1.344.47.94 2.413 1.914 4.812 2.871 7.217.047.117.06.246.11.462m.909-15.965l-1.035-2.788-1.007 2.788h2.042zm3.075 3.301c-.558 0-1.058.041-1.545-.022-.169-.023-.359-.282-.442-.475-.574-1.331-.566-1.336-1.982-1.336h-.132c-1.502 0-1.514-.004-2.054 1.38-.134.342-.31.49-.675.465-.39-.026-.783-.005-1.28-.005.096-.284.156-.484.23-.678.888-2.292 1.793-4.577 2.655-6.878.183-.492.461-.638.934-.585.505.056 1.059-.186 1.345.573.883 2.34 1.84 4.652 2.767 6.976.063.158.1.326.18.585zm105.02-3.294l-1.047-2.805-.986 2.805h2.033zm-5.064 3.301c.21-.552.371-.979.535-1.405.793-2.044 1.598-4.083 2.372-6.135.162-.43.368-.627.852-.608 1.417.052 1.094-.17 1.616 1.122.838 2.073 1.664 4.152 2.492 6.23.088.22.162.444.288.79-.583 0-1.08.041-1.56-.023-.17-.022-.364-.278-.447-.47-.579-1.337-.571-1.34-2.045-1.34h-.065c-1.508 0-1.52-.004-2.058 1.37-.132.335-.297.501-.67.475-.39-.027-.782-.006-1.31-.006zm-168.28 4.591c1.406-.323 1.55-.209 1.56 1.21.012 1.406.01 2.812.08 4.214.045.949.605 1.335 1.68 1.293.876-.034 1.298-.45 1.312-1.38.025-1.581.053-3.164.002-4.744-.024-.744.403-.688.874-.682.451.007.926-.102.894.658-.074 1.754-.034 3.513-.132 5.264-.075 1.323-.747 2.076-2.05 2.273a7.119 7.119 0 0 1-2.404-.065c-.997-.197-1.752-.874-1.793-1.93-.08-2.031-.023-4.068-.023-6.11m101.563-7.882l-.965-2.59h-.153l-.943 2.59h2.06zm3.017 3.29c-.444 0-.868.054-1.266-.02-.243-.046-.557-.243-.654-.456-.612-1.355-.595-1.363-2.1-1.363h-.196c-1.379 0-1.397-.007-1.856 1.288-.15.427-.36.603-.808.558-.362-.036-.73-.007-1.143-.007.044-.198.053-.306.09-.403.941-2.436 1.876-4.873 2.845-7.297.08-.196.387-.362.619-.42.289-.072.618-.06.913-.002.2.04.471.183.54.35 1.011 2.476 1.995 4.966 2.981 7.453.03.076.02.167.035.319zm40.267-5.877l-.172.015-.912 2.55h2.034l-.95-2.565m-4.078 5.877c.103-.311.161-.518.239-.717.88-2.27 1.783-4.532 2.63-6.814.196-.527.489-.653.981-.612.517.044 1.043-.146 1.323.606.858 2.301 1.803 4.57 2.712 6.853.071.18.125.368.23.675-.579 0-1.094.042-1.596-.024-.16-.021-.334-.307-.418-.507-.54-1.296-.533-1.299-1.94-1.3h-.13c-1.515 0-1.5.007-2.124 1.406-.087.195-.383.375-.609.415-.38.068-.78.02-1.298.02M152.914 76.97c-.329 2.124-2.513 3.247-4.65 2.46-1.564-.575-2.473-2.151-2.393-4.15.081-2.054 1.06-3.462 2.723-3.917 1.823-.499 3.603.256 4.2 1.785.054.138.076.29.13.507l-1.585.39c-.34-.854-.884-1.382-1.84-1.318-.86.057-1.546.512-1.677 1.399a9.239 9.239 0 0 0 0 2.604c.124.873.793 1.368 1.586 1.417.894.056 1.415-.3 1.795-1.228.05-.119.095-.239.149-.375.133.008.244-.004.343.027.396.121.788.256 1.219.399" fill="#FFF"/><g transform="translate(107.358 83.318)"><mask id="d" fill="#fff"><use xlink:href="#c"/></mask><path d="M7.563 2.998c-.315.083-.596.134-.86.232-.48.18-.746.084-1.025-.414-.634-1.134-2.473-1.006-3.03.216-.523 1.148-.484 2.367.006 3.523.28.658.868.953 1.6.948.72-.004 1.2-.35 1.5-.982.093-.197.172-.4.293-.685l1.593.494c-.321 1.165-.883 2.02-1.988 2.432-2.44.91-4.876-.656-5.072-3.264a9.208 9.208 0 0 1 0-1.319C.765 1.544 3.072-.029 5.583.759c1.063.333 1.755 1.096 1.98 2.239" fill="#FFF" mask="url(#d)"/></g><path d="M192.35 73.64c-.251.07-.485.119-.707.2-.545.202-.894.174-1.25-.442-.613-1.066-2.406-.903-2.951.252-.551 1.165-.515 2.404-.004 3.58.286.657.883.938 1.613.927.723-.013 1.19-.377 1.485-1.006.092-.197.172-.398.288-.666l1.533.491c-.262 1.44-1.204 2.373-2.588 2.624-1.557.283-3.094-.307-3.812-1.616-.947-1.726-.933-3.524.1-5.204.847-1.376 2.233-1.704 3.746-1.492 1.195.17 2.065.812 2.473 1.994.034.1.043.207.074.359m-20.019 12.637l-1.775.419.085-.199c-.444-.352-.835-.855-1.34-1.025-1.087-.366-2.135.285-2.302 1.426-.12.808-.095 1.661.017 2.474.12.861.786 1.38 1.57 1.439.887.065 1.415-.245 1.772-1.146.17-.428.367-.538.782-.358.315.138.652.224.968.33a2.985 2.985 0 0 1-2.16 2.528c-2.48.698-4.632-.816-4.83-3.476a6.387 6.387 0 0 1 .263-2.333c.755-2.413 3.925-3.317 5.804-1.67.434.38.698.955 1.146 1.591m-37.606-14.899c.569 0 1.052-.05 1.515.024.183.03.393.309.468.519.538 1.506 1.045 3.025 1.564 4.539.07.201.153.398.284.737l1.273-3.857.248-.75c.44-1.34.646-1.45 2.145-1.112-.067.228-.124.455-.201.674-.796 2.231-1.608 4.455-2.384 6.693-.166.48-.37.706-.921.677-1.36-.068-1.044.19-1.5-1.056-.77-2.1-1.51-4.21-2.259-6.318-.078-.22-.135-.446-.232-.77m19.349 12.648c.696 0 1.22-.038 1.732.02.187.022.399.24.513.422.534.851 1.038 1.722 1.622 2.701.434-.742.817-1.393 1.196-2.046.72-1.241.935-1.332 2.475-.999-.074.16-.127.318-.213.455-.394.633-.742 1.304-1.205 1.882-1.153 1.437-1.679 3.027-1.433 4.871.034.255-.06.744-.158.76-.464.08-.95.041-1.427.025-.043-.001-.1-.134-.116-.214a.901.901 0 0 1-.014-.327c.345-2.094-.406-3.842-1.652-5.461-.464-.603-.82-1.289-1.32-2.089m145.242 8.066c-1.75.263-1.75.263-1.75-1.333 0-1.539-.023-3.077.01-4.615.011-.56-.185-.752-.721-.692-.282.032-.57.005-.855.005-.781-.002-1.065-.399-.796-1.16.043-.12.245-.261.375-.262 1.992-.018 3.985-.012 6.033-.012v1.413h-2.296v6.656zm-117.641-3.989c0-1.142.016-2.285-.007-3.426-.01-.465.166-.646.617-.6.173.017.352.017.526 0 .455-.048.614.144.61.603-.02 1.758.016 3.516-.021 5.272-.013.61.175.813.776.784.876-.041 1.756.018 2.631-.019.593-.025.68.27.673.766-.005.47-.081.72-.65.705a99.893 99.893 0 0 0-4.538-.003c-.51.01-.635-.186-.625-.656.025-1.141.008-2.284.008-3.426m45.968-8.601c-1.82 0-3.59.007-5.36-.016-.11-.001-.314-.24-.315-.369-.019-2.437-.019-4.875.001-7.313.001-.128.194-.34.329-.37 1.158-.245 1.384-.052 1.384 1.12 0 1.581.027 3.163-.014 4.743-.016.63.217.8.799.772.765-.037 1.533-.01 2.3-.008.953.002.954.003.925.939-.004.13-.025.26-.05.502m33.135 12.621V89.59c0-1.58.025-3.162-.012-4.74-.015-.599.154-.856.768-.776.275.036.56.006.95.006v1.243c0 1.515.026 3.03-.012 4.544-.016.649.167.908.85.874 1.022-.051 2.05-.014 3.132-.014v1.398h-5.676zm-70.619.014h-1.616v-8.025c.096-.033.156-.065.219-.074 1.409-.173 1.438-.146 1.438 1.258.001 1.976.002 3.953-.001 5.93 0 .282-.024.564-.04.911m79.109-8.124v2.401c0 1.689-.02 3.376.011 5.064.01.54-.146.777-.698.7a2.138 2.138 0 0 0-.525 0c-.479.05-.526-.239-.525-.613.007-1.754.003-3.508.003-5.262 0-.548.026-1.098-.007-1.643-.03-.49.155-.685.64-.652.341.024.685.005 1.1.005m-143.131 4.135c0 1.14-.015 2.281.007 3.421.009.444-.122.661-.593.61a3.51 3.51 0 0 0-.656-.002c-.374.028-.498-.145-.497-.504.008-2.39.008-4.781 0-7.172 0-.33.126-.492.459-.482.088.003.175-.005.262-.007 1.018-.02 1.018-.02 1.018.978v3.158m-36.364 3.995h-1.623c-.022-.304-.055-.583-.056-.86-.005-2.111-.004-4.22-.002-6.33 0-.96.002-.962.934-.937.238.006.475.032.747.051v8.076z" fill="#FFF"/><mask id="f" fill="#fff"><use xlink:href="#e"/></mask><path fill="#FFF" mask="url(#f)" d="M318.107 92.143h1.596v-8.08h-1.596zM144.705 75.49c0 1.163-.012 2.327.005 3.49.007.399-.135.576-.534.53-.043-.005-.088 0-.131 0-1.075.016-1.076.016-1.076-1.042 0-2.13.031-4.262-.016-6.391-.016-.77.41-.706.914-.712.502-.006.891-.022.854.699-.058 1.14-.015 2.283-.016 3.425m9.561 4.021v-5.896c0-.57.018-1.141-.004-1.71-.017-.398.131-.569.529-.534.174.016.352.022.525-.001.536-.074.672.19.668.68-.014 2.237-.024 4.474.006 6.71.009.61-.19.835-.787.757-.275-.035-.558-.006-.937-.006m39.404-4.053c0-1.142.02-2.284-.009-3.425-.013-.523.186-.724.691-.663.151.019.308.018.46 0 .463-.05.602.159.597.61-.019 1.888-.007 3.776-.007 5.663 0 .264.004.528 0 .79-.021 1.197.175 1.046-1.096 1.088-.492.015-.655-.152-.644-.638.025-1.142.008-2.283.008-3.425m82.295-.031c0 1.141-.022 2.284.01 3.426.013.52-.166.734-.68.659-.043-.006-.088 0-.131 0-.933.003-.935.003-.935-.914 0-2.174.029-4.348-.016-6.521-.015-.703.327-.73.842-.711.487.019.966-.088.924.702-.058 1.116-.014 2.239-.014 3.359m26.699 4.178c-.816-.14-1.26-1.117-.818-1.528.25-.232.805-.174 1.22-.16.114.005.29.32.308.506.042.41.02.829-.01 1.243-.049.66-.382 1.16-.969 1.453-.137.068-.359-.035-.542-.06.04-.196.032-.419.13-.58.165-.278.396-.516.68-.874"/></g></svg>