<svg width="641" height="220" viewBox="0 0 641 220" xmlns="http://www.w3.org/2000/svg" xmlns:xlink="http://www.w3.org/1999/xlink"><title>slogan</title><defs><filter x="-1.1%" y="-2.4%" width="102.2%" height="106.6%" filterUnits="objectBoundingBox" id="a"><feOffset dy="2" in="SourceAlpha" result="shadowOffsetOuter1"/><feGaussianBlur stdDeviation="2" in="shadowOffsetOuter1" result="shadowBlurOuter1"/><feColorMatrix values="0 0 0 0 0 0 0 0 0 0 0 0 0 0 0 0 0 0 0.2 0" in="shadowBlurOuter1" result="shadowMatrixOuter1"/><feMerge><feMergeNode in="shadowMatrixOuter1"/><feMergeNode in="SourceGraphic"/></feMerge></filter><path id="b" d="M0 112.826V.416h61.5v112.41z"/><path id="d" d="M53.251.898v62.148H.508V.898h52.743z"/></defs><g filter="url(#a)" transform="translate(4 2)" fill="none" fill-rule="evenodd"><path d="M44.136 19.953c1.19-5.94 1.732-9.944 2.055-12.644.326-3.24 3.24-6.268 7.566-6.16h2.377c3.784-.108 6.703 2.92 5.946 5.726-.864 2.92-1.947 8.001-3.242 14.484-2.162 12-4.651 25.615-6.81 37.613-1.082 5.62-1.62 9.402-1.947 12.106-.322 3.35-3.89 5.947-8.322 5.947h-1.944c-3.895.107-6.81-2.704-6.054-5.623.65-2.05 1.187-4.322 2.052-7.997.107-.65.326-1.298.433-1.948l.323-1.295c.108-.433.108-.755.219-1.19l7.348-39.019zm41.499-3.026c.538 0 1.08-.108 1.621-.108 1.406 0 2.7 0 3.783-.107 3.242-.323 5.835 1.84 5.404 3.998-.649 2.378-3.783 3.89-7.35 3.89-2.052-.107-3.785-.107-5.297-.107-.108.542-.216.865-.323 1.514-.542 2.596-1.19 5.838-1.836 9.079-.542 2.92-1.19 6.16-1.732 9.08-.43 2.486-.972 4.756-1.294 6.376-1.19 5.619-2.056 10.486-2.056 13.62 0 3.998 1.73 5.619 4.106 5.619.65 0 1.406-.107 2.27-.323 2.92-.434 5.731 1.406 5.404 3.242-.649 2.7-3.456 5.082-7.347 5.619-.757.108-2.055.108-2.812.108-7.24 0-11.887-2.051-13.512-4.321-1.62-2.378-2.485-4.325-2.485-6.487 0-2.052.434-4.43.976-7.456l6.806-35.885c-2.159-.434-3.89-1.947-3.564-3.675.322-2.163 2.377-3.891 5.184-3.891.542-2.7.757-4.97.976-7.133.323-3.46 3.564-6.487 8.212-7.566 3.783-.757 7.785 1.298 7.03 4.106-1.084 3.568-1.734 6.16-2.49 10.808h.326zm25.285-1.295c-1.407 1.621-4.002 2.485-6.918 2.485-2.054 0-4.001-1.513-3.133-2.704 3.456-4.647 5.725-9.295 6.805-14.157.22-.864 2.054-.972 3.569-.757h.434c.214 0 .322.108.755.108h.864c.65 0 1.836 0 2.808-.108 2.597.108 5.404 2.163 4.54 3.783-1.836 3.135-4.863 6.376-9.725 11.35M128.1 49.893c-3.354-1.944-9.73-5.834-9.73-12.752 0-5.838 3.999-11.242 9.296-15.456 5.51-4.109 13.942-4.866 18.374-4.866 3.242 0 5.512.219 7.459.757h-.107c3.564.756 5.404 3.891 4.32 6.38-.756 1.728-2.92 2.592-5.296 2.592-1.401 0-2.7-.215-3.671-.757h.107c-1.621-.756-3.461-1.298-5.297-1.298-6.917 0-10.593 5.189-10.593 9.295 0 5.082 3.46 7.025 7.025 9.08l5.404 3.353c3.46 2.051 8.757 5.292 8.757 11.672 0 4.647-2.377 10.809-9.187 15.778-6.38 4.648-14.376 4.974-19.346 4.974-2.92 0-5.946-.326-8.001-.757-3.783-.974-6.376-3.782-5.726-6.16 1.4-3.568 5.726-4.866 9.075-3.246h-.107c2.055.975 4.54 1.732 8.323 1.732 7.132 0 10.916-4.54 10.916-8.864 0-4.213-2.593-5.946-5.297-7.566l-6.698-3.891zm96.177-24.317c-1.947-.649-4.325-1.405-6.917-1.405-16.427 0-20.752 23.13-20.752 31.99 0 7.351 2.054 12.648 7.46 12.648 3.133 0 7.131-1.729 10.807-7.133 2.92-4.002 4.755-10.27 6.59-21.079l2.812-15.02zm8.215-7.025c3.891-1.19 7.348 1.836 6.81 4.755-.756 3.564-1.947 9.08-3.783 19.02l-1.947 10.593c-1.513 8.865-2.378 16.32-2.378 19.458 0 2.7-3.568 4.648-7.239 4.755-3.784.108-7.03-2.163-6.81-4.867.107-1.836.43-4.32.864-6.59-4.433 6.053-10.159 12.644-18.59 12.644-8.972 0-17.837-5.834-17.837-18.157 0-4.973 2.92-24.642 18.701-37.182 2.593-1.944 8.861-6.053 18.912-6.053 5.082 0 8.431 1.083 11.565 2.27l1.732-.646zm23.334 59.119c-12.106-.108-13.293-7.456-12.971-12.968.108-2.054.43-4.54.757-6.379 0-.108.108-.216.108-.323.215-1.19.322-2.269.322-2.704.112-.648.22-1.187.326-1.62.108-.43.216-.973.216-1.295.107-.649.326-1.298.434-2.162.43-2.378 1.186-7.025 3.564-20.97 1.948-11.24 3.027-18.913 2.919-22.374-.108-2.485 1.513-5.62 5.297-5.942.97-.11 1.947-.327 3.349-.649 3.676-.976 7.243 1.621 7.029 4.54a298.77 298.77 0 0 0-1.948 10.481c-.107.757-.215 1.621-.434 2.49-.322 1.621-.753 3.456-1.08 5.403a823.57 823.57 0 0 1-2.484 14.48c-.864 4.866-1.621 9.73-2.485 14.484-.111.435-.111.864-.22 1.298-.107 1.08-.322 2.593-.536 3.457 0 .22-.112.65-.112.868-.645 3.565-1.187 7.24-.43 9.51 0 0 .756 2.812 2.055 2.92 1.62 0 2.485-.22 3.998-.758.107 0 .757-.219 1.079-.326 2.81-.972 5.404 1.191 4.54 3.461-.972 2.485-4.106 4.213-7.781 4.755-1.621.215-3.676.322-5.512.322m30.903.001c-12.106-.108-13.293-7.456-12.97-12.968.107-2.054.429-4.54.756-6.379 0-.108.108-.216.108-.323.215-1.19.322-2.269.322-2.704.112-.648.22-1.187.327-1.62.107-.43.215-.973.215-1.295.108-.649.326-1.298.434-2.162.43-2.378 1.186-7.025 3.564-20.97 1.948-11.24 3.027-18.913 2.919-22.374-.107-2.485 1.514-5.62 5.297-5.942.972-.11 1.947-.327 3.349-.649 3.676-.976 7.244 1.621 7.029 4.54-.542 2.7-1.191 5.942-1.947 10.481-.108.757-.215 1.621-.435 2.49-.322 1.621-.752 3.456-1.08 5.403a823.57 823.57 0 0 1-2.484 14.48c-.864 4.866-1.62 9.73-2.485 14.484-.111.435-.111.864-.22 1.298-.106 1.08-.322 2.593-.536 3.457 0 .22-.112.65-.112.868-.645 3.565-1.187 7.24-.43 9.51 0 0 .756 2.812 2.055 2.92 1.62 0 2.485-.22 3.998-.758.108 0 .757-.219 1.079-.326 2.812-.972 5.404 1.191 4.54 3.461-.971 2.485-4.105 4.213-7.781 4.755-1.621.215-3.676.322-5.512.322m82.67-52.093c-1.948-.649-4.325-1.405-6.918-1.405-16.427 0-20.752 23.13-20.752 31.99 0 7.351 2.055 12.648 7.459 12.648 3.134 0 7.133-1.729 10.808-7.133 2.92-4.002 4.755-10.27 6.59-21.079l2.813-15.02zm8.215-7.025c3.89-1.19 7.348 1.836 6.81 4.755-.756 3.564-1.948 9.08-3.784 19.02l-1.946 10.593c-1.514 8.865-2.378 16.32-2.378 19.458 0 2.7-3.568 4.648-7.24 4.755-3.783.108-7.029-2.163-6.81-4.867.108-1.836.43-4.32.864-6.59-4.432 6.053-10.159 12.644-18.589 12.644-8.972 0-17.837-5.834-17.837-18.157 0-4.973 2.919-24.642 18.701-37.182 2.593-1.944 8.86-6.053 18.912-6.053 5.082 0 8.431 1.083 11.564 2.27l1.733-.646zm31.871 16.32c-5.188 8.538-7.133 25.292-8.431 36.422 1.729.328 3.027.542 4.648.542 19.78 0 22.158-26.263 22.158-32.424 0-6.81-1.947-12.756-7.46-12.756-3.891 0-7.888 3.35-10.915 8.216zm-16.754 1.187c2.056-11.565 3.676-20.967 3.676-27.02 0-.865-.108-1.729-.215-2.378-.22-2.592 1.62-5.296 5.512-5.838 1.079-.108 2.162-.323 3.456-.645 3.784-.757 8.216.972 7.567 4.106a40.63 40.63 0 0 0-.65 3.134c-.214.756-.43 2.162-.537 3.134a601.819 601.819 0 0 1-1.298 6.702c-.327 2.051-.65 4.54-1.083 6.702-.215.972-.431 1.944-.538 2.916 3.783-4.755 9.187-9.833 16.212-9.833 9.187 0 17.94 5.727 17.94 18.697 0 3.891-.648 7.89-1.62 11.673-4.971 18.375-18.048 31.452-39.02 31.452-4.862 0-8.32-.434-11.023-1.19h.108c-4.54-1.08-5.946-5.185-5.078-8.539.757-2.807 1.514-6.268 2.808-12.643l3.783-20.43zm92.506-9.08c-1.294-1.187-3.456-2.807-6.59-2.807-15.456 0-19.24 24.965-19.24 33.396 0 10.158 4.322 13.726 9.296 13.726 17.076 0 19.454-29.182 19.454-34.371 0-2.7-.107-7.347-2.92-9.944m12.322-4.536c5.623 5.619 5.838 11.888 5.838 14.914 0 16.861-10.916 41.182-35.666 41.182-6.272 0-12.433-1.733-16.646-5.516-2.597-2.484-6.702-7.239-6.702-16.75 0-17.402 11.564-39.453 35.884-39.453 7.674 0 13.728 1.84 17.292 5.623m24.846 28.964c-1.19 5.512-1.621 8-1.621 10.378 0 3.999 1.402 7.348 5.619 7.348 1.836 0 7.459-.865 11.995-8.104h-.107c2.269-4 4.866-14.054 6.38-22.373 1.186-6.27 1.728-10.486 1.835-13.19.108-3.134 2.704-6.05 6.703-6.806.107 0 .537 0 .757-.107l-.22.215c.542-.327 1.513-.542 2.055-.542 3.349-.43 7.025 1.948 6.594 4.325-1.512 5.404-3.134 12.429-4.866 22.373-2.7 14.914-3.671 22.158-3.671 26.156v.864c.108 2.919-3.353 5.297-7.244 5.297-4.106 0-7.674-2.704-7.46-5.838v-1.514c-1.294 1.84-2.7 3.354-4.646 4.755-4.863 3.245-11.566 3.784-13.293 3.784-8.216 0-15.564-3.891-15.564-11.78 0-1.513.215-3.027.864-7.025l5.405-28.641c.433-2.055.648-3.783.756-5.082.215-2.811 1.835-6.053 6.053-6.81h-.215c.215-.107.645-.107 1.079-.107.108 0 .434-.108.542-.108h-.22a4.874 4.874 0 0 1 1.407-.215c3.676-.434 7.459 2.159 6.917 4.97-1.08 4.325-1.621 6.376-2.378 10.052-.106.54-.322 1.298-.43 1.947l-3.026 15.778zm66.35-34.479c.538 0 1.078-.108 1.62-.108 1.407 0 2.7 0 3.784-.107 3.241-.323 5.835 1.84 5.404 3.998-.65 2.378-3.784 3.89-7.351 3.89-2.052-.107-3.784-.107-5.298-.107-.106.542-.215.865-.322 1.514a1143.98 1143.98 0 0 0-1.836 9.079c-.541 2.92-1.19 6.16-1.731 9.08-.43 2.486-.972 4.756-1.294 6.376-1.192 5.619-2.055 10.486-2.055 13.62 0 3.998 1.727 5.619 4.104 5.619.65 0 1.408-.107 2.27-.323 2.92-.434 5.732 1.406 5.405 3.242-.65 2.7-3.457 5.082-7.346 5.619-.758.108-2.057.108-2.814.108-7.238 0-11.886-2.051-13.511-4.321-1.621-2.378-2.486-4.325-2.486-6.487 0-2.052.436-4.43.972-7.456l6.81-35.885c-2.158-.434-3.89-1.947-3.564-3.675.322-2.163 2.378-3.891 5.185-3.891.541-2.7.756-4.97.976-7.133.322-3.46 3.563-6.487 8.212-7.566 3.783-.757 7.784 1.298 7.029 4.106-1.085 3.568-1.732 6.16-2.49 10.808h.327z" fill="#FFF"/><g transform="translate(0 96.706)"><mask id="c" fill="#fff"><use xlink:href="#b"/></mask><path d="M24.221 30.033c.323-1.73 2.812-2.813 5.296-3.027 2.055-11.565 5.297-17.184 11.35-21.94C45.837 1.607 51.348.636 56.323.42c3.35-.112 5.945 2.485 4.97 4.969-1.187 2.378-4.863 3.243-8.104 3.35-5.297.326-7.782 8.757-9.729 18.374h3.35c.433 0 .867-.107 1.19-.107h2.7c3.026 0 5.73 1.84 5.296 3.89-.322 2.163-3.457 3.354-6.59 3.354-1.407-.112-4.648-.112-5.839-.112h-1.406c-.97 5.624-1.943 11.135-2.807 17.08a2109.774 2109.774 0 0 1-2.919 17.4c-.108.864-.215 1.732-.434 2.596-.216.864-.323 1.836-.538 2.7-.326 1.62-.649 3.568-.975 5.189-1.836 10.374-7.675 32.424-29.72 33.723-3.246-.107-5.297-2.92-4.649-5.082.972-2.377 4.322-3.457 7.456-3.564 3.134-.434 5.515-3.138 6.487-4.432 3.242-3.891 5.512-15.133 7.782-28.32 1.08-6.052 2.054-12.536 3.133-18.808 1.08-6.375 2.056-12.536 2.812-18.59-2.377-.43-3.89-2.27-3.568-3.997" fill="#FFF" mask="url(#c)"/></g><path d="M54.694 144.034c1.08-5.838 1.402-9.406 1.294-11.892-.214-2.7 1.622-5.403 5.405-5.945a69.34 69.34 0 0 0 2.81-.323h-.106c3.89-.756 7.566 1.406 7.347 3.999-.107.326-.107 1.405-.322 2.162-.108.542-.323.864-.435 1.406 1.733-2.27 3.783-4.432 6.273-6.161 1.836-1.19 4.105-2.162 6.268-2.92 3.998-1.19 7.24 1.837 6.268 4.863-.972 2.812-5.081 4.755-9.187 5.73h.108c-4.107 1.08-9.618 5.62-12.537 16.32-1.621 5.62-4.11 19.782-4.647 26.806-.327 3.242-3.891 5.835-8.11 5.726h-.54c-3.784 0-7.24-2.484-6.484-5.403.542-1.836 1.08-3.783 1.299-5.185l5.296-29.183zm45.925 13.723c5.946-.864 12.214-4.755 17.618-9.833 2.489-2.489 4.432-6.272 4.432-10.7 0-4.648-2.27-6.81-4.97-6.81-1.621 0-5.296.756-9.943 6.16-3.354 3.998-6.27 12.214-7.137 21.183m10.27 20.43c3.89 0 7.133-1.08 9.73-2.163 2.7-1.187 5.94.433 5.292 2.811-.756 2.378-3.027 4.755-6.917 5.834-2.701.542-6.05 1.083-10.59 1.083-18.808-.54-23.455-10.593-23.671-24.104 0-11.566 5.834-21.29 9.51-25.723 7.459-9.295 18.052-12.32 25.834-12.32 11.564 0 17.398 5.725 17.398 13.184 0 3.027-1.513 7.244-3.89 10.916-2.592 3.891-7.347 7.025-11.131 8.865-6.81 3.457-14.05 3.89-22.265 4.213-.108.434-.215 1.84-.215 3.891 0 5.188 1.513 13.62 10.916 13.512m36.844-21.293c-3.353-1.944-9.73-5.835-9.73-12.752 0-5.838 4-11.242 9.296-15.455 5.512-4.11 13.942-4.867 18.374-4.867 3.242 0 5.512.219 7.459.757h-.107c3.564.756 5.404 3.89 4.32 6.379-.756 1.729-2.918 2.593-5.296 2.593-1.401 0-2.7-.216-3.671-.757h.107c-1.621-.756-3.46-1.297-5.296-1.297-6.918 0-10.594 5.188-10.594 9.294 0 5.082 3.46 7.025 7.025 9.08l5.405 3.353c3.46 2.051 8.757 5.292 8.757 11.672 0 4.647-2.378 10.809-9.188 15.778-6.38 4.648-14.376 4.974-19.346 4.974-2.92 0-5.946-.326-8-.757-3.784-.974-6.376-3.782-5.727-6.16 1.4-3.568 5.727-4.866 9.076-3.246h-.108c2.055.975 4.54 1.732 8.323 1.732 7.132 0 10.916-4.54 10.916-8.864 0-4.213-2.593-5.946-5.297-7.566l-6.698-3.891zm37.713-22.915c2.163-11.453 3.027-17.184 2.919-20.425-.107-2.485 1.08-5.297 4.97-5.731 1.083-.108 2.27-.215 3.353-.43 3.89-.542 7.997 1.621 7.348 4.54-.65 3.134-1.187 5.834-2.27 11.131-.538 3.026-1.187 6.16-1.73 9.295-.106.326-.106.326 0 .107 1.514-2.051 3.243-3.779 5.732-5.293 4.648-3.026 9.403-3.568 12.859-3.568 8 0 15.675 3.35 15.675 11.999 0 2.27-.435 5.077-1.3 10.589l-4.216 24.105c-.43 2.701-.757 5.942-.971 7.889-.216 3.242-3.891 5.728-8.431 5.728-3.784 0-7.132-2.701-6.484-5.512.542-2.051 1.187-5.078 1.836-8.754 1.299-7.889 2.704-16.538 4.11-24.428.323-1.836.645-3.998.645-5.619 0-3.998-1.294-7.024-5.727-7.024-3.675 0-7.673 2.05-10.915 5.511-1.621 1.728-4.648 7.459-7.025 17.184-.65 2.811-3.134 15.782-4.11 22.592-.537 3.564-4.32 6.161-9.08 6.161-3.671 0-6.59-2.704-5.726-5.404.54-2.055 1.62-7.03 3.026-14.592l5.512-30.051zm96.282 19.024c-1.836 6.053-3.457 15.455-4.321 20.103-.326.65-.434 1.19-.434 2.162h-.323c2.05 1.084 4.536 2.27 7.89 2.27 6.702 0 10.374-3.783 12.32-6.16 5.835-7.025 7.675-19.889 7.675-26.372 0-6.16-2.055-11.457-7.133-11.457-5.73 0-11.891 7.24-15.674 19.454m38.047-11.13c0 11.022-5.081 25.29-13.62 33.721-5.837 5.835-13.834 9.511-22.914 9.511-2.055 0-4.647 0-7.89-.65-.326 2.162-.756 3.998-1.19 6.16-.43 2.271-.864 4.433-1.294 6.596-.65 3.563-.975 6.591-1.191 8.538-.322 3.456-3.456 6.16-8.104 5.945h-.756c-3.568 0-7.03-2.38-6.488-4.973.865-3.242 1.729-7.459 2.593-11.566.219-1.186.54-2.377.649-3.567 0-.108.107-.538.326-1.08.108-.322.108-.756.216-1.079l-.108.108 6.81-35.129c.43-2.269.649-4.214.972-6.053.215-1.513.54-3.027.864-4.97.327-.649.327-1.298.327-1.62.863-4.433.97-8 .863-10.27.108-2.053 1.407-4.864 4.755-5.298 1.406-.107 2.7-.323 3.784-.538 3.783-.648 7.347 1.621 7.132 4.43-.323 1.512-.65 2.918-.971 4.324 1.728-2.485 3.783-4.97 6.268-6.809 1.298-.973 5.296-3.677 12.644-3.677 9.943 0 16.323 6.272 16.323 17.945m7.77 2.163c1.079-5.838 1.401-9.406 1.293-11.892-.214-2.7 1.622-5.403 5.404-5.945a69.412 69.412 0 0 0 2.813-.323h-.108c3.89-.756 7.567 1.406 7.348 3.999-.108.326-.108 1.405-.323 2.162-.108.542-.324.864-.435 1.406 1.733-2.27 3.784-4.432 6.274-6.161 1.835-1.19 4.104-2.162 6.267-2.92 3.998-1.19 7.24 1.837 6.269 4.863-.973 2.812-5.082 4.755-9.189 5.73h.108c-4.106 1.08-9.618 5.62-12.536 16.32-1.62 5.62-4.11 19.782-4.647 26.806-.327 3.242-3.892 5.835-8.108 5.726h-.541c-3.78 0-7.242-2.484-6.485-5.403.541-1.836 1.08-3.783 1.298-5.185l5.298-29.183zm70.348-10.056c-1.295-1.187-3.457-2.808-6.59-2.808-15.457 0-19.24 24.966-19.24 33.397 0 10.158 4.321 13.726 9.295 13.726 17.076 0 19.454-29.182 19.454-34.371 0-2.7-.107-7.347-2.919-9.944m12.321-4.536c5.623 5.619 5.838 11.888 5.838 14.914 0 16.861-10.915 41.182-35.666 41.182-6.272 0-12.432-1.733-16.646-5.516-2.596-2.484-6.702-7.239-6.702-16.75 0-17.402 11.565-39.453 35.884-39.453 7.675 0 13.728 1.84 17.292 5.623m22.145 33.83c0 7.455 2.594 12.859 7.245 12.859 3.023 0 7.563-2.377 11.346-9.943 2.81-5.512 4.109-12.103 8.323-33.938-2.055-.538-3.783-.972-5.726-.972-17.081 0-21.187 25.184-21.187 31.994zm36.428-4.974c-.112.972-.22 1.836-.434 2.812-.972 5.726-2.163 12.644-2.163 17.292-.107 2.919-2.811 5.623-6.917 5.73-4.105 0-7.89-2.596-7.46-5.84.112-1.078 0-.754.543-3.782-4 5.512-8.861 10.809-16.861 10.809-9.726 0-18.156-6.161-18.156-18.483 0-2.918 1.513-17.94 11.238-30.261 6.054-7.352 15.675-12.43 26.049-12.43 2.485 0 4.432.323 6.053.649.972-5.081 1.406-8.107 1.187-10.377-.108-2.812 2.055-5.727 5.945-6.268.327-.107 1.083-.216 1.514-.327 4.217-.757 8.538 1.083 7.889 4.11-.43 1.187-.54 2.7-.865 4.54a88.44 88.44 0 0 0-.648 3.672c-.11.756-.323 1.624-.431 2.488a86.547 86.547 0 0 0-.65 3.242l-5.833 32.424zm24.845.108c-1.19 5.512-1.62 8-1.62 10.378 0 3.999 1.401 7.348 5.62 7.348 1.835 0 7.458-.865 11.993-8.104h-.107c2.27-4 4.867-14.054 6.38-22.373 1.186-6.27 1.728-10.486 1.836-13.19.107-3.134 2.704-6.05 6.702-6.806.107 0 .538 0 .757-.108l-.219.216c.541-.327 1.512-.542 2.054-.542 3.35-.43 7.025 1.948 6.595 4.325-1.512 5.404-3.134 12.429-4.866 22.373-2.7 14.914-3.672 22.158-3.672 26.156v.864c.108 2.919-3.353 5.297-7.244 5.297-4.105 0-7.674-2.704-7.459-5.838v-1.514c-1.294 1.84-2.7 3.354-4.647 4.755-4.863 3.245-11.565 3.784-13.293 3.784-8.216 0-15.564-3.891-15.564-11.78 0-1.513.216-3.027.864-7.025l5.405-28.641c.434-2.055.65-3.783.756-5.082.215-2.811 1.836-6.054 6.054-6.81h-.216c.216-.107.646-.107 1.08-.107.107 0 .434-.108.541-.108h-.218a4.867 4.867 0 0 1 1.405-.215c3.676-.434 7.46 2.159 6.918 4.97-1.08 4.325-1.62 6.376-2.378 10.05-.107.543-.322 1.3-.43 1.949l-3.027 15.778zm87.534-33.723c3.353.757 4.432 3.891 3.567 6.054-.648 1.728-2.592 2.377-4.973 2.377-1.403 0-2.593-.215-3.457-.649h.108c-1.3-.43-2.701-.753-4.321-.753-13.19 0-20.972 14.48-20.972 29.18 0 5.296.864 11.782 5.732 14.81 2.807 1.836 5.51 2.484 8.103 2.484 2.378 0 4.433-.434 6.487-1.19 3.135-.865 5.405 1.297 4.648 3.46-.976 2.485-4.217 4.326-7.781 4.863-1.625.22-3.676.326-5.623.326-17.078 0-27.452-9.294-27.452-23.997 0-16.858 12.323-37.722 38.478-37.722 3.242 0 5.62.327 7.456.757" fill="#FFF"/><g transform="translate(580 122.706)"><mask id="e" fill="#fff"><use xlink:href="#d"/></mask><path d="M16.398 35.051c5.942-.864 12.211-4.755 17.614-9.833 2.49-2.489 4.433-6.272 4.433-10.7 0-4.648-2.271-6.81-4.97-6.81-1.621 0-5.297.756-9.944 6.16-3.353 3.998-6.269 12.214-7.133 21.183m10.267 20.43c3.891 0 7.132-1.08 9.729-2.163 2.7-1.187 5.941.433 5.292 2.811-.756 2.378-3.026 4.755-6.917 5.834-2.7.542-6.049 1.083-10.589 1.083C5.372 62.506.724 52.453.508 38.942c0-11.566 5.835-21.29 9.511-25.723C17.478 3.924 28.071.9 35.852.9c11.566 0 17.4 5.725 17.4 13.184 0 3.027-1.514 7.244-3.892 10.916-2.592 3.891-7.347 7.025-11.13 8.865-6.811 3.457-14.05 3.89-22.266 4.213-.107.434-.214 1.84-.214 3.891 0 5.188 1.512 13.62 10.915 13.512" fill="#FFF" mask="url(#e)"/></g></g></svg>